<svg width="41" height="27" viewBox="0 0 41 27" fill="none" xmlns="http://www.w3.org/2000/svg">
<path d="M6.05245 22.6833C6.21198 22.6805 6.37124 22.6688 6.52947 22.6483L6.7658 22.6221C7.04151 22.6221 7.20343 22.7971 7.20343 23.1516C7.21047 23.2975 7.16022 23.4405 7.06339 23.5499C7.00266 23.6077 6.93016 23.6517 6.85085 23.6789C6.77154 23.7061 6.68729 23.7158 6.60387 23.7074C6.78972 23.786 6.94382 23.9247 7.04151 24.1013C7.1382 24.2752 7.18797 24.4712 7.18593 24.6702C7.1918 24.8172 7.16723 24.9639 7.11376 25.1009C7.06029 25.238 6.97908 25.3625 6.87521 25.4667C6.60976 25.6831 6.27147 25.7896 5.92991 25.7643C5.62876 25.7775 5.32877 25.719 5.05464 25.5936C4.81428 25.4617 4.62255 25.2561 4.50759 25.0072L4.00431 24.0794C3.96447 23.9806 3.89622 23.8958 3.80819 23.8359C3.72015 23.7759 3.6163 23.7434 3.50978 23.7424C3.38933 23.7375 3.27118 23.7764 3.17718 23.8518C3.13233 23.8869 3.09658 23.9322 3.07297 23.984C3.04936 24.0358 3.03856 24.0926 3.04151 24.1494C3.03471 24.2173 3.04295 24.2858 3.06564 24.3501C3.08834 24.4144 3.12492 24.4729 3.1728 24.5214C3.29946 24.6157 3.45256 24.6677 3.61044 24.6702C3.66075 24.6755 3.70913 24.6925 3.75169 24.7199C3.79425 24.7472 3.82981 24.7842 3.85551 24.8278C3.92011 24.9312 3.95213 25.0516 3.94742 25.1735C3.94894 25.3078 3.91253 25.4397 3.84238 25.5542C3.80853 25.6103 3.76016 25.6562 3.70238 25.687C3.6446 25.7178 3.57956 25.7324 3.51416 25.7293C3.33702 25.7359 3.16092 25.6996 3.00088 25.6234C2.84085 25.5471 2.70163 25.4333 2.59512 25.2917C2.36814 24.994 2.24791 24.6287 2.25376 24.2545C2.24424 23.9752 2.2782 23.6962 2.35442 23.4273C2.4051 23.2413 2.50664 23.0731 2.64763 22.9415C2.77339 22.8356 2.92397 22.7633 3.08527 22.7315C3.2725 22.6937 3.46323 22.6761 3.6542 22.679L6.05245 22.6833ZM4.63013 23.7424L4.89271 24.1144C5.00822 24.2878 5.15697 24.4365 5.33035 24.552C5.46712 24.6379 5.62411 24.6862 5.78549 24.6921C5.92831 24.7015 6.07051 24.6663 6.19249 24.5914C6.23915 24.5635 6.27752 24.5236 6.30367 24.4759C6.32982 24.4283 6.34281 24.3745 6.34129 24.3201C6.34273 24.2361 6.31997 24.1535 6.27574 24.0821C6.23151 24.0107 6.16767 23.9536 6.09184 23.9175C5.90026 23.8084 5.6819 23.7553 5.46164 23.7643L4.63013 23.7424Z" fill="#094154"/>
<path d="M4.01284 21.8911C3.78712 21.8924 3.56168 21.8748 3.33888 21.8386C3.14622 21.8025 2.95928 21.7407 2.78308 21.6548C2.62574 21.5749 2.4916 21.4558 2.39359 21.309C2.29207 21.1421 2.24327 20.9484 2.25354 20.7532C2.25005 20.5457 2.3079 20.3417 2.41984 20.1668C2.52971 19.9915 2.69202 19.8552 2.88374 19.7773C2.4461 19.7773 2.25354 19.6066 2.25354 19.2565C2.25072 19.1874 2.2634 19.1185 2.29066 19.0549C2.31792 18.9913 2.35907 18.9346 2.41109 18.8889C2.54856 18.7911 2.71533 18.7432 2.88374 18.7532H7.32138C7.53206 18.7355 7.74414 18.7613 7.94441 18.8291C8.14468 18.8968 8.32887 19.0051 8.48549 19.1471C8.7603 19.4817 8.89375 19.9104 8.85748 20.3419C8.87287 20.6907 8.79747 21.0375 8.63866 21.3484C8.5776 21.4687 8.48327 21.569 8.36691 21.6372C8.25054 21.7055 8.11701 21.7389 7.98221 21.7335C7.91714 21.736 7.85234 21.724 7.79253 21.6982C7.73272 21.6725 7.6794 21.6337 7.63647 21.5848C7.55089 21.4769 7.50735 21.3416 7.51394 21.204C7.50948 21.0999 7.53863 20.9971 7.59709 20.9108C7.66345 20.8376 7.748 20.7832 7.84216 20.7532C7.92777 20.7189 8.00312 20.6631 8.06098 20.5913C8.10296 20.5309 8.12583 20.4592 8.12663 20.3856C8.13871 20.3001 8.12522 20.2129 8.08784 20.135C8.05045 20.0571 7.99086 19.9921 7.91656 19.948C7.68863 19.8576 7.44354 19.8188 7.19884 19.8342H6.52925C6.70798 19.9175 6.85964 20.0495 6.96689 20.2149C7.03762 20.3852 7.06904 20.5692 7.05879 20.7532C7.06643 20.9509 7.01787 21.1466 6.91875 21.3178C6.82077 21.4679 6.68284 21.5876 6.5205 21.6635C6.3395 21.746 6.14809 21.8034 5.95157 21.8342C5.71219 21.8657 5.4709 21.8803 5.22947 21.878L4.01284 21.8911ZM4.88811 20.7839C5.24078 20.8016 5.59421 20.7707 5.93844 20.692C6.01856 20.6719 6.08931 20.6248 6.13874 20.5586C6.18817 20.4925 6.21326 20.4113 6.20978 20.3287C6.20556 20.25 6.18015 20.1739 6.13624 20.1084C6.09234 20.0429 6.03155 19.9905 5.96032 19.9567C5.68451 19.8384 5.38448 19.7874 5.08505 19.8079H4.26667C4.07662 19.8124 3.8875 19.8359 3.70212 19.878C3.57891 19.9024 3.45964 19.9436 3.34763 20.0005C3.27703 20.0379 3.218 20.0939 3.17695 20.1624C3.1449 20.2135 3.12819 20.2728 3.12881 20.3331C3.12778 20.4092 3.1498 20.4837 3.19199 20.547C3.23418 20.6103 3.29454 20.6593 3.36514 20.6876C3.61948 20.7822 3.8908 20.8224 4.16164 20.8058L4.88811 20.7839Z" fill="#094154"/>
<path d="M0.75694 16.9721C0.641412 16.902 0.545155 16.8042 0.476852 16.6876C0.424747 16.5784 0.399251 16.4585 0.402454 16.3375C0.398742 16.2165 0.424263 16.0964 0.476852 15.9874C0.545155 15.8708 0.641412 15.7731 0.75694 15.703L1.32149 15.331C1.36588 15.2972 1.41441 15.2692 1.46591 15.2478C1.50669 15.2334 1.54959 15.226 1.59283 15.2259C1.64021 15.2241 1.68744 15.2325 1.73126 15.2506C1.77508 15.2687 1.81445 15.2962 1.84666 15.331C1.91488 15.4062 1.951 15.5052 1.94731 15.6067C1.94632 15.6716 1.92793 15.7351 1.89406 15.7905C1.86019 15.8459 1.81209 15.8913 1.75475 15.9218L1.06329 16.3375L1.75475 16.7752C1.81369 16.8037 1.86318 16.8486 1.89732 16.9044C1.93146 16.9603 1.94882 17.0248 1.94731 17.0903C1.95031 17.1904 1.91421 17.2877 1.84666 17.3616C1.81524 17.3977 1.77612 17.4262 1.73219 17.4452C1.68825 17.4641 1.64063 17.4729 1.59283 17.471C1.54959 17.4709 1.50669 17.4635 1.46591 17.4491C1.41441 17.4277 1.36588 17.3998 1.32149 17.366L0.75694 16.9721ZM4.22303 17.9086C3.93019 17.9141 3.63741 17.8951 3.34775 17.8517C3.13732 17.8224 2.93576 17.7477 2.75694 17.6329C2.58018 17.5112 2.4444 17.3388 2.36744 17.1384C2.27083 16.8676 2.22628 16.5811 2.23615 16.2938C2.21314 16.0823 2.24083 15.8684 2.31694 15.6698C2.39304 15.4711 2.51537 15.2935 2.67379 15.1515C3.09433 14.8969 3.58412 14.7806 4.07423 14.8189C4.27068 14.8045 4.46735 14.8439 4.64316 14.9327C4.71335 14.989 4.76764 15.0625 4.80064 15.1462C4.83365 15.2299 4.84423 15.3207 4.83134 15.4097V16.8145H5.30837C5.57382 16.8231 5.83878 16.7861 6.09174 16.7051C6.17164 16.6796 6.24039 16.6274 6.28657 16.5573C6.33274 16.4873 6.35356 16.4035 6.34557 16.32C6.34566 16.2647 6.33213 16.2102 6.30618 16.1614C6.28023 16.1125 6.24265 16.0708 6.19677 16.0399C6.10181 15.9611 5.98315 15.9164 5.85979 15.913C5.70056 15.9246 5.54321 15.8727 5.42215 15.7686C5.33378 15.6639 5.28981 15.5289 5.29961 15.3922C5.28824 15.2501 5.32866 15.1087 5.4134 14.994C5.46592 14.9409 5.52996 14.9007 5.60054 14.8764C5.67113 14.8521 5.74636 14.8444 5.8204 14.8539C6.00508 14.8456 6.18942 14.8764 6.36137 14.9443C6.53332 15.0122 6.689 15.1156 6.81821 15.2478C7.06894 15.537 7.19898 15.9114 7.18145 16.2938C7.19224 16.5815 7.14614 16.8685 7.04579 17.1384C6.972 17.3393 6.83737 17.5122 6.66067 17.6329C6.48061 17.7484 6.27746 17.8231 6.06548 17.8517C5.78452 17.894 5.50055 17.9131 5.21646 17.9086H4.22303ZM4.10924 15.878H3.71974C3.55773 15.8682 3.39639 15.9062 3.25585 15.9874C3.20149 16.0282 3.15738 16.081 3.127 16.1418C3.09661 16.2026 3.08079 16.2696 3.08079 16.3375C3.08079 16.4055 3.09661 16.4725 3.127 16.5332C3.15738 16.594 3.20149 16.6469 3.25585 16.6876C3.3945 16.775 3.55595 16.8191 3.71974 16.8145H4.10924V15.878Z" fill="#094154"/>
<path d="M2.88392 14.0706C2.71531 14.0824 2.54793 14.0344 2.41127 13.9349C2.35792 13.8847 2.31618 13.8234 2.28897 13.7554C2.26176 13.6874 2.24973 13.6142 2.25372 13.541C2.25372 13.1909 2.45504 13.0115 2.85766 13.0115C2.67068 12.9347 2.51604 12.7955 2.42003 12.6176C2.30854 12.4313 2.25097 12.2177 2.25372 12.0006C2.24742 11.8646 2.26989 11.7288 2.31966 11.6021C2.36943 11.4754 2.44539 11.3607 2.54256 11.2653C2.78579 11.0599 3.10052 10.9592 3.41784 10.9853H6.52944C6.70169 10.9709 6.87316 11.0208 7.01084 11.1253C7.114 11.2287 7.17193 11.3688 7.17193 11.5148C7.17193 11.6608 7.114 11.8009 7.01084 11.9043C6.87643 12.0086 6.70773 12.0586 6.53819 12.0443H3.66729C3.53487 12.0352 3.40381 12.0758 3.29968 12.1581C3.25782 12.1943 3.22467 12.2394 3.2027 12.2902C3.18072 12.341 3.17049 12.3961 3.17276 12.4513C3.16816 12.5337 3.18463 12.616 3.22062 12.6902C3.25661 12.7645 3.31093 12.8284 3.37845 12.8758C3.57112 12.9855 3.79189 13.0357 4.01303 13.0203H6.52944C6.69876 13.0081 6.86672 13.0579 7.00209 13.1603C7.05687 13.2087 7.09993 13.2689 7.12798 13.3364C7.15604 13.4039 7.16836 13.4768 7.16401 13.5498C7.16839 13.6234 7.1561 13.697 7.12806 13.7652C7.10003 13.8334 7.05697 13.8944 7.00209 13.9437C6.86612 14.0445 6.69821 14.0927 6.52944 14.0793L2.88392 14.0706Z" fill="#094154"/>
<path d="M4.28429 10.158C4.01076 10.1589 3.73744 10.1428 3.46591 10.1098C3.24684 10.0819 3.03556 10.0105 2.84446 9.89978C2.65305 9.7915 2.50009 9.6263 2.40682 9.42714C2.29701 9.16726 2.24619 8.88626 2.25803 8.60438C2.24951 8.35888 2.29275 8.11434 2.38494 7.88665C2.45249 7.72329 2.55422 7.57628 2.6833 7.45551C2.81238 7.33473 2.96582 7.24298 3.1333 7.18644C3.26344 7.14439 3.39918 7.12225 3.53593 7.12079C3.69493 7.11106 3.85159 7.16276 3.97357 7.26521C4.02386 7.31385 4.06345 7.37244 4.08983 7.43725C4.1162 7.50205 4.12877 7.57164 4.12674 7.64158C4.13188 7.71534 4.12213 7.78939 4.09807 7.85931C4.07401 7.92923 4.03613 7.99359 3.98669 8.04858C3.85546 8.14853 3.6914 8.1954 3.52718 8.17987C3.40651 8.1733 3.28778 8.21236 3.19457 8.28928C3.15502 8.32684 3.12401 8.37246 3.10362 8.42305C3.08323 8.47363 3.07395 8.52801 3.07641 8.5825C3.06972 8.66491 3.09241 8.74704 3.14048 8.81432C3.18854 8.88161 3.25886 8.92971 3.33899 8.95011C3.61383 9.01687 3.89666 9.04486 4.17926 9.03326H5.21646C5.51157 9.05143 5.80762 9.01887 6.09173 8.93698C6.16837 8.91643 6.23589 8.87076 6.2835 8.80729C6.33111 8.74381 6.35604 8.6662 6.35431 8.58687C6.35665 8.53448 6.34814 8.48217 6.32931 8.43322C6.31049 8.38427 6.28175 8.33973 6.2449 8.30241C6.13971 8.2217 6.0098 8.17994 5.87729 8.18425C5.6655 8.20357 5.45266 8.161 5.2646 8.06171C5.21202 8.01182 5.17016 7.95176 5.14155 7.88517C5.11294 7.81859 5.09818 7.74687 5.09818 7.6744C5.09818 7.60193 5.11294 7.53021 5.14155 7.46363C5.17016 7.39704 5.21202 7.33698 5.2646 7.28709C5.38823 7.18765 5.54369 7.13634 5.70223 7.14267C5.85001 7.14592 5.99689 7.16648 6.13987 7.20394C6.30792 7.25009 6.46646 7.32565 6.60814 7.42714C6.76896 7.53966 6.8997 7.68993 6.98889 7.86477C7.09945 8.09202 7.15208 8.3431 7.14206 8.59563C7.15479 8.878 7.10238 9.15951 6.98889 9.41838C6.89661 9.61822 6.7434 9.78368 6.55125 9.89103C6.36015 10.0017 6.14887 10.0731 5.9298 10.1011C5.65398 10.1353 5.37622 10.1514 5.09829 10.1492L4.28429 10.158Z" fill="#094154"/>
<path d="M0.840147 6.21066C0.781924 6.15362 0.735669 6.08553 0.704092 6.01038C0.672515 5.93523 0.65625 5.85454 0.65625 5.77303C0.65625 5.69152 0.672515 5.61082 0.704092 5.53568C0.735669 5.46053 0.781924 5.39244 0.840147 5.33539C0.896637 5.27674 0.964725 5.23049 1.04007 5.1996C1.11542 5.1687 1.19638 5.15384 1.27778 5.15596C1.35909 5.15463 1.43981 5.16985 1.51504 5.2007C1.59028 5.23154 1.65845 5.27737 1.71542 5.33539C1.77364 5.39244 1.8199 5.46053 1.85147 5.53568C1.88305 5.61082 1.89932 5.69152 1.89932 5.77303C1.89932 5.85454 1.88305 5.93523 1.85147 6.01038C1.8199 6.08553 1.77364 6.15362 1.71542 6.21066C1.65845 6.26869 1.59028 6.31451 1.51504 6.34536C1.43981 6.37621 1.35909 6.39143 1.27778 6.3901C1.19638 6.39221 1.11542 6.37735 1.04007 6.34646C0.964725 6.31557 0.896637 6.26932 0.840147 6.21066ZM2.88391 6.31132C2.71477 6.32191 2.54734 6.2723 2.41126 6.17128C2.31019 6.06681 2.25369 5.92714 2.25369 5.78178C2.25369 5.63642 2.31019 5.49675 2.41126 5.39228C2.54734 5.29126 2.71477 5.24166 2.88391 5.25224H6.52942C6.69874 5.24009 6.86671 5.28985 7.00207 5.39228C7.05686 5.44066 7.09991 5.50087 7.12797 5.56835C7.15602 5.63584 7.16834 5.70883 7.164 5.78178C7.16834 5.85474 7.15602 5.92772 7.12797 5.99521C7.09991 6.06269 7.05686 6.12291 7.00207 6.17128C6.86671 6.27371 6.69874 6.32347 6.52942 6.31132H2.88391Z" fill="#094154"/>
<path d="M6.05245 1.30909C6.21208 1.30857 6.37148 1.29687 6.52947 1.27408L6.7658 1.2522C7.04151 1.2522 7.20343 1.42725 7.20343 1.78174C7.21047 1.92767 7.16022 2.07058 7.06339 2.17999C7.00229 2.23701 6.92962 2.28021 6.85032 2.30664C6.77103 2.33307 6.68697 2.34212 6.60387 2.33316C6.78913 2.41486 6.94275 2.55465 7.04151 2.73141C7.13877 2.90508 7.18858 3.1013 7.18593 3.30034C7.195 3.45277 7.17073 3.60536 7.1148 3.74745C7.05887 3.88955 6.97262 4.01774 6.86208 4.12309C6.59862 4.34354 6.25925 4.45195 5.91678 4.42506C5.61563 4.43827 5.31564 4.37977 5.04151 4.25438C4.80204 4.11661 4.61214 3.9068 4.49884 3.65482L4.00431 2.70953C3.96447 2.61073 3.89622 2.52597 3.80819 2.46598C3.72015 2.406 3.6163 2.37348 3.50978 2.37255C3.38966 2.3699 3.27226 2.40851 3.17718 2.48196C3.13072 2.51637 3.09304 2.56125 3.06718 2.61296C3.04133 2.66466 3.02803 2.72174 3.02838 2.77955C3.02188 2.84737 3.03027 2.9158 3.05294 2.98004C3.07562 3.04429 3.11204 3.10282 3.15967 3.15154C3.28833 3.24194 3.44021 3.29358 3.59731 3.30034C3.64761 3.30373 3.69629 3.31949 3.73904 3.34621C3.78179 3.37293 3.81729 3.40978 3.84238 3.45351C3.9066 3.55871 3.93855 3.68044 3.93429 3.80362C3.93534 3.93783 3.89897 4.06968 3.82925 4.18436C3.79472 4.23978 3.74621 4.28514 3.68859 4.31586C3.63098 4.34659 3.56629 4.36161 3.50103 4.35942C3.32379 4.36678 3.14743 4.33077 2.98727 4.2545C2.82711 4.17824 2.68799 4.06402 2.58199 3.92178C2.35529 3.61804 2.23945 3.24582 2.25376 2.86708C2.24424 2.58782 2.2782 2.30877 2.35442 2.03994C2.40594 1.85678 2.50748 1.6916 2.64763 1.56292C2.77192 1.45389 2.92296 1.37988 3.08527 1.34848C3.2725 1.31074 3.46323 1.29313 3.6542 1.29596L6.05245 1.30909ZM4.63013 2.37255L4.89271 2.74891C5.00822 2.92229 5.15697 3.07104 5.33035 3.18655C5.47697 3.26395 5.6418 3.30024 5.80737 3.29158C5.94998 3.29876 6.09155 3.26375 6.21438 3.19093C6.26138 3.16227 6.29992 3.12164 6.32607 3.0732C6.35221 3.02475 6.36502 2.97023 6.36317 2.91522C6.36104 2.83032 6.33425 2.74787 6.28607 2.67793C6.23789 2.608 6.1704 2.55359 6.09184 2.52134C5.89981 2.41381 5.68148 2.36226 5.46164 2.37255H4.63013Z" fill="#094154"/>
<path d="M23.4351 13.7862L18.1178 2.84526C18.1178 2.84526 17.2425 0.705215 16.236 0.267578C15.155 0.766484 15.2819 3.53235 15.2819 3.53235V8.23694L18.0128 13.7862H23.4351Z" fill="#3CCBDA"/>
<path d="M15.2821 3.53225C15.2821 3.53225 15.1552 0.766383 16.2361 0.263101C16.1264 0.212197 16.007 0.185339 15.886 0.184326C14.4068 0.184326 14.5512 3.53225 14.5512 3.53225V6.79702L15.2821 8.23684V3.53225Z" fill="#3EB1C8"/>
<path d="M14.5512 26.1843H9.59277V2.84078C9.59277 2.84078 9.59277 0.184326 11.8028 0.184326H15.886C14.4068 0.184326 14.5512 3.53225 14.5512 3.53225V26.1843Z" fill="#094154"/>
<path d="M17.4089 12.5869L22.7219 23.5278C22.7219 23.5278 23.5971 25.6722 24.6037 26.1099C25.6847 25.6066 25.5796 22.8407 25.5796 22.8407V18.1274L22.8531 12.5869H17.4089Z" fill="#3CCBDA"/>
<path d="M25.5841 22.8408C25.5841 22.8408 25.6891 25.6067 24.6082 26.1099C24.7187 26.158 24.8377 26.1833 24.9583 26.1843C26.42 26.1843 26.2712 22.8408 26.2712 22.8408V19.5716L25.5841 18.1274V22.8408Z" fill="#3EB1C8"/>
<path d="M26.4481 0.406494H31.3934V23.75C31.3934 23.75 31.3934 26.4065 29.2052 26.4065H25.1133C26.575 26.4065 26.4262 23.063 26.4262 23.063V0.406494H26.4481Z" fill="#094154"/>
<path d="M36.3105 0.236816L35.1639 0.560668L32.4155 1.33966L33.1201 5.27839L35.1639 4.81012L35.3608 4.76636V26.1318H38.5031C40.1136 25.6941 40.1136 23.5454 40.1136 23.5454V0.236816H36.3105Z" fill="#3CCBDA"/>
</svg>
