<svg width="45" height="31" viewBox="0 0 45 31" fill="none" xmlns="http://www.w3.org/2000/svg">
<rect x="0.692383" y="1.05261" width="42.8462" height="29" rx="3.5" fill="#006FCF" stroke="#F3F3F3"/>
<path fill-rule="evenodd" clip-rule="evenodd" d="M9.16073 22.2229V16.047H16.2091L16.9653 16.9616L17.7466 16.047H43.3305V21.797C43.3305 21.797 42.6614 22.2167 41.8876 22.2229H27.7213L26.8687 21.2494V22.2229H24.0747V20.561C24.0747 20.561 23.6931 20.793 22.868 20.793H21.917V22.2229H17.6868L16.9316 21.2887L16.1649 22.2229H9.16073ZM0.948486 11.3923L2.53432 7.95447H5.27686L6.17684 9.88019V7.95447H9.58606L10.1218 9.34632L10.6412 7.95447H25.9451V8.6542C25.9451 8.6542 26.7496 7.95447 28.0718 7.95447L33.0373 7.9706L33.9218 9.87113V7.95447H36.7748L37.56 9.04616V7.95447H40.4392V14.1304H37.56L36.8075 13.0351V14.1304H32.6158L32.1943 13.1568H31.0674L30.6527 14.1304H27.81C26.6724 14.1304 25.9451 13.4449 25.9451 13.4449V14.1304H21.659L20.8084 13.1568V14.1304H4.87057L4.44932 13.1568H3.32604L2.90777 14.1304H0.948486V11.3923ZM0.95661 13.3401L3.09556 8.71582H4.71715L6.85405 13.3401H5.43081L5.03819 12.4141H2.74384L2.34917 13.3401H0.95661ZM4.5863 11.4102L3.88695 9.79203L3.18555 11.4102H4.5863ZM7.00134 13.3394V8.71504L8.98026 8.72187L10.1313 11.7033L11.2547 8.71504H13.2178V13.3394H11.9745V9.93196L10.6566 13.3394H9.56622L8.24463 9.93196V13.3394H7.00134ZM14.0685 13.3394V8.71504H18.1255V9.74943H15.3248V10.5404H18.0601V11.514H15.3248V12.3354H18.1255V13.3394H14.0685ZM18.8453 13.3401V8.71582H21.612C22.5287 8.71582 23.3501 9.24295 23.3501 10.2161C23.3501 11.0479 22.6576 11.5838 21.9862 11.6364L23.6221 13.3401H22.1028L20.612 11.6973H20.0886V13.3401H18.8453ZM21.5097 9.7502H20.0886V10.7237H21.5282C21.7773 10.7237 22.0987 10.5442 22.0987 10.237C22.0987 9.99818 21.8507 9.7502 21.5097 9.7502ZM25.1272 13.3394H23.8577V8.71504H25.1272V13.3394ZM28.1372 13.3394H27.8632C26.5374 13.3394 25.7325 12.3681 25.7325 11.0462C25.7325 9.69167 26.5284 8.71504 28.2027 8.71504H29.5768V9.81027H28.1524C27.4728 9.81027 26.9921 10.3035 26.9921 11.0576C26.9921 11.9532 27.5417 12.3293 28.3335 12.3293H28.6607L28.1372 13.3394ZM28.7036 13.3401L30.8426 8.71582H32.4642L34.6011 13.3401H33.1778L32.7852 12.4141H30.4909L30.0962 13.3401H28.7036ZM32.3333 11.4102L31.6339 9.79203L30.9325 11.4102H32.3333ZM34.7463 13.3394V8.71504H36.327L38.3452 11.6205V8.71504H39.5885V13.3394H38.059L35.9895 10.3579V13.3394H34.7463ZM10.0114 21.4319V16.8076H14.0685V17.842H11.2678V18.633H14.003V19.6065H11.2678V20.4279H14.0685V21.4319H10.0114ZM29.8909 21.4319V16.8076H33.9479V17.842H31.1473V18.633H33.8694V19.6065H31.1473V20.4279H33.9479V21.4319H29.8909ZM14.2259 21.4319L16.2012 19.1483L14.1789 16.8076H15.7452L16.9497 18.2546L18.1582 16.8076H19.6632L17.6674 19.1198L19.6464 21.4319H18.0803L16.9108 20.0077L15.7698 21.4319H14.2259ZM19.7941 21.4327V16.8084H22.5404C23.6672 16.8084 24.3256 17.4837 24.3256 18.3638C24.3256 19.4261 23.4862 19.9724 22.3788 19.9724H21.0701V21.4327H19.7941ZM22.4484 17.8542H21.0701V18.919H22.4443C22.8074 18.919 23.0618 18.6952 23.0618 18.3866C23.0618 18.058 22.8061 17.8542 22.4484 17.8542ZM24.8654 21.4319V16.8076H27.6321C28.5489 16.8076 29.3703 17.3347 29.3703 18.3078C29.3703 19.1397 28.6777 19.6755 28.0063 19.7282L29.6422 21.4319H28.1229L26.6322 19.7891H26.1087V21.4319H24.8654ZM27.5299 17.842H26.1087V18.8155H27.5483C27.7975 18.8155 28.1188 18.636 28.1188 18.3287C28.1188 18.09 27.8708 17.842 27.5299 17.842ZM34.5238 21.4319V20.4279H37.012C37.3802 20.4279 37.5396 20.243 37.5396 20.0401C37.5396 19.8457 37.3807 19.6491 37.012 19.6491H35.8876C34.9103 19.6491 34.3659 19.0954 34.3659 18.2641C34.3659 17.5226 34.8644 16.8076 36.3168 16.8076H38.7379L38.2144 17.8481H36.1204C35.7202 17.8481 35.597 18.0434 35.597 18.2299C35.597 18.4216 35.7492 18.633 36.055 18.633H37.2329C38.3224 18.633 38.7951 19.2076 38.7951 19.9602C38.7951 20.7693 38.2683 21.4319 37.1735 21.4319H34.5238ZM38.9048 21.4319V20.4279H41.393C41.7611 20.4279 41.9206 20.243 41.9206 20.0401C41.9206 19.8457 41.7617 19.6491 41.393 19.6491H40.2686C39.2912 19.6491 38.7469 19.0954 38.7469 18.2641C38.7469 17.5226 39.2454 16.8076 40.6977 16.8076H43.1189L42.5954 17.8481H40.5014C40.1011 17.8481 39.9779 18.0434 39.9779 18.2299C39.9779 18.4216 40.1302 18.633 40.436 18.633H41.6138C42.7034 18.633 43.1761 19.2076 43.1761 19.9602C43.1761 20.7693 42.6493 21.4319 41.5545 21.4319H38.9048Z" fill="white"/>
</svg>
