<svg width="44" height="31" viewBox="0 0 44 31" fill="none" xmlns="http://www.w3.org/2000/svg">
<rect x="0.538574" y="1.05261" width="42.8462" height="29" rx="3.5" fill="#006FCF" stroke="#F3F3F3"/>
<g clip-path="url(#clip0_7865_3339)">
<path fill-rule="evenodd" clip-rule="evenodd" d="M0.86084 1.55261H44.981V29.5526H0.86084V1.55261Z" fill="#312783"/>
<path fill-rule="evenodd" clip-rule="evenodd" d="M22.9253 6.07507C24.6563 6.07488 26.3485 6.56697 27.7878 7.48909C29.2272 8.41121 30.3491 9.72195 31.0116 11.2555C31.6741 12.7891 31.8475 14.4767 31.5099 16.1048C31.1722 17.7329 30.3387 19.2284 29.1147 20.4022C27.8907 21.576 26.3312 22.3753 24.6334 22.6991C22.9356 23.0229 21.1759 22.8566 19.5767 22.2213C17.9775 21.586 16.6106 20.5101 15.6491 19.1298C14.6875 17.7495 14.1744 16.1267 14.1746 14.4667C14.1751 12.2413 15.0972 10.1071 16.7382 8.5335C18.3791 6.95986 20.6046 6.07558 22.9253 6.07507Z" fill="#FFED00"/>
<path fill-rule="evenodd" clip-rule="evenodd" d="M21.7087 11.0277C30.3206 11.0277 38.3261 12.4062 44.984 14.7637V29.5526H0.86084V13.9696C6.99933 12.0987 14.1188 11.0277 21.7087 11.0277Z" fill="#E30613"/>
<path fill-rule="evenodd" clip-rule="evenodd" d="M21.7087 15.2666C30.3206 15.2666 38.3261 16.6451 44.984 19.0026V29.5526H0.86084V18.2085C6.99933 16.3376 14.1188 15.2666 21.7087 15.2666Z" fill="#FFED00"/>
<path d="M10.127 24.394L13.5233 19.8687H14.784L18.4032 24.394H17.0706L16.0387 23.0232H12.3426L11.3716 24.394H10.127ZM12.6782 22.5318H15.6751L14.754 21.2864C14.5253 20.9859 14.3158 20.6724 14.1267 20.3476C14.0053 20.6526 13.8453 20.9422 13.6502 21.2098L12.6782 22.5318Z" fill="#312783"/>
<path d="M23.3979 24.3941V23.9151C22.8991 24.2849 22.2215 24.4701 21.3651 24.4707C21.0089 24.4729 20.6535 24.4356 20.3062 24.3596C20.0467 24.312 19.7991 24.2171 19.577 24.0799C19.4254 23.9771 19.3087 23.8338 19.2414 23.668C19.189 23.4997 19.1667 23.3241 19.1754 23.1487V21.1179H20.2613V22.938C20.249 23.1356 20.2713 23.3337 20.3272 23.5243C20.4192 23.6895 20.5753 23.8134 20.7617 23.8691C21.0247 23.9589 21.3028 24.0011 21.5819 23.9937C21.8926 23.9962 22.2019 23.9529 22.4989 23.8653C22.7846 23.7804 22.9867 23.6641 23.1053 23.5166C23.2238 23.3691 23.2831 23.1554 23.2831 22.8757V21.116H24.3689V24.3941H23.3979Z" fill="#312783"/>
<path d="M26.0579 24.394V21.1159H27.0328V21.6131C27.2282 21.416 27.4634 21.2592 27.7241 21.1523C27.9485 21.076 28.1853 21.0384 28.4234 21.0412C28.8029 21.0436 29.1795 21.104 29.5392 21.2203L29.1656 21.7357C28.9071 21.6569 28.6376 21.6165 28.3664 21.6159C28.148 21.6126 27.9309 21.6496 27.7271 21.7251C27.5607 21.7808 27.4183 21.8879 27.3225 22.0298C27.2021 22.2259 27.1396 22.4497 27.1417 22.6773V24.394H26.0579Z" fill="#312783"/>
<path d="M34.3639 23.9897C33.9929 24.1552 33.6035 24.2796 33.2031 24.3604C32.8083 24.4346 32.4067 24.4709 32.0044 24.4687C31.3011 24.4687 30.7604 24.3806 30.3821 24.2043C30.0038 24.028 29.8147 23.8045 29.8147 23.5337C29.8166 23.4501 29.8367 23.3678 29.8737 23.2921C29.9107 23.2164 29.9637 23.1489 30.0295 23.094C30.1905 22.9505 30.3815 22.8414 30.5899 22.7741C30.8433 22.6886 31.105 22.6276 31.3711 22.5921C31.5848 22.5633 31.9065 22.5355 32.336 22.5087C32.9848 22.4785 33.6314 22.4146 34.273 22.3171C34.273 22.2414 34.279 22.1926 34.279 22.1725C34.2854 22.072 34.2593 21.972 34.2042 21.8863C34.1492 21.8005 34.0678 21.7332 33.9713 21.6935C33.6936 21.5658 33.2814 21.5019 32.7346 21.5019C32.2245 21.5019 31.8475 21.5476 31.6038 21.6389C31.3645 21.727 31.1706 21.9013 31.0634 22.1246L30.0025 22.0508C30.0966 21.8202 30.2631 21.6234 30.479 21.4875C30.7732 21.3185 31.0989 21.2063 31.438 21.157C31.9176 21.0749 32.4042 21.0361 32.8914 21.0411C33.3381 21.0326 33.7846 21.0647 34.225 21.1369C34.4895 21.1766 34.7445 21.261 34.9782 21.386C35.1303 21.4764 35.2489 21.6105 35.3169 21.7692C35.3618 21.9364 35.38 22.1092 35.3708 22.2817V23.0222C35.3708 23.5385 35.3938 23.8661 35.4397 24.0022C35.4959 24.1532 35.5903 24.2884 35.7144 24.3959H34.5806C34.4696 24.283 34.3944 24.1421 34.3639 23.9897ZM34.274 22.7492C33.6881 22.8546 33.0959 22.9247 32.5008 22.959C32.1826 22.9758 31.8659 23.0129 31.5529 23.0701C31.398 23.0984 31.2518 23.1599 31.1253 23.2502C31.0807 23.2802 31.0439 23.3197 31.0178 23.3655C30.9916 23.4114 30.9768 23.4624 30.9745 23.5146C30.9745 23.6621 31.0834 23.7857 31.3031 23.8843C31.5229 23.983 31.8425 24.0328 32.2651 24.0328C32.6421 24.038 33.0179 23.9909 33.3809 23.893C33.652 23.8297 33.9002 23.6973 34.0992 23.5098C34.2164 23.382 34.2746 23.1968 34.274 22.9542V22.7492Z" fill="#312783"/>
</g>
<defs>
<clipPath id="clip0_7865_3339">
<rect x="0.86084" y="1.55261" width="42.2019" height="28" rx="3" fill="white"/>
</clipPath>
</defs>
</svg>
