<svg width="25" height="25" viewBox="0 0 25 25" fill="none" xmlns="http://www.w3.org/2000/svg">
<rect x="0.5" y="0.552612" width="24" height="24" rx="6" fill="#E2211D"/>
<g clip-path="url(#clip0_8055_667)">
<path d="M9.88125 11.6398C9.425 11.5491 9 11.9179 9 12.3835V13.9585C9 14.2773 9.22187 14.5335 9.52187 14.646C10.0906 14.8585 10.5 15.4085 10.5 16.0523C10.5 16.8804 9.82812 17.5523 9 17.5523C8.17188 17.5523 7.5 16.8804 7.5 16.0523V8.30227C7.5 7.88665 7.16563 7.55227 6.75 7.55227H5.25C4.83437 7.55227 4.5 7.88665 4.5 8.30227V16.0523C4.5 18.8491 7.06562 21.0585 9.96875 20.4491C11.6687 20.0929 13.0406 18.7179 13.3969 17.021C13.9406 14.4304 12.2406 12.1085 9.88125 11.6398ZM11.0312 4.55227C10.7438 4.53665 10.5 4.76477 10.5 5.05227V6.03977C10.5 6.3054 10.7063 6.52415 10.9688 6.53665C15.0125 6.7554 18.2625 10.0366 18.4969 14.0835C18.5125 14.346 18.7312 14.5523 18.9937 14.5523H19.9969C20.2844 14.5523 20.5125 14.3085 20.4969 14.021C20.2312 8.92102 16.1313 4.82102 11.0312 4.55227ZM11.0406 7.55227C10.75 7.5304 10.5 7.76165 10.5 8.0554V9.05852C10.5 9.32102 10.7031 9.53665 10.9625 9.5554C13.3625 9.75227 15.275 11.6866 15.4906 14.0929C15.5156 14.3523 15.7281 14.5523 15.9875 14.5523H16.9937C17.2844 14.5523 17.5188 14.3023 17.4969 14.0116C17.2344 10.571 14.4812 7.8179 11.0406 7.55227Z" fill="white"/>
</g>
<defs>
<clipPath id="clip0_8055_667">
<rect width="16" height="16" fill="white" transform="translate(4.5 4.55261)"/>
</clipPath>
</defs>
</svg>
