<svg width="45" height="31" viewBox="0 0 45 31" fill="none" xmlns="http://www.w3.org/2000/svg">
<rect x="0.923096" y="1.05261" width="42.8462" height="29" rx="3.5" fill="white" stroke="#F3F3F3"/>
<path d="M11.8598 9.021H10.5232V22.3231H11.8598V9.021Z" fill="black"/>
<path d="M13.7694 9.021H13.1011V22.3231H13.7694V9.021Z" fill="black"/>
<path d="M17.0153 9.021H14.7766V22.3231H17.0153V9.021Z" fill="black"/>
<path d="M20.0057 9.021H17.8445V22.3231H20.0057V9.021Z" fill="black"/>
<path d="M21.5025 9.021H20.8342V22.3231H21.5025V9.021Z" fill="black"/>
<path d="M24.1122 9.021H22.7756V22.3231H24.1122V9.021Z" fill="black"/>
<path d="M26.385 9.021H25.658V22.3231H26.385V9.021Z" fill="black"/>
<path d="M29.7739 9.021H27.4248V22.3231H29.7739V9.021Z" fill="black"/>
<path d="M32.8447 9.021H30.7827V22.3231H32.8447V9.021Z" fill="black"/>
<path d="M34.7057 9.021H34.0764V22.3231H34.7057V9.021Z" fill="black"/>
<path d="M8.86343 9.73236H7.73071V5.88713C7.73071 5.45202 8.08641 5.09802 8.52362 5.09802H12.3874V6.22532H8.86343V9.73236Z" fill="black"/>
<path d="M37.4984 9.73236H36.3657V6.22532H32.8418V5.09802H36.7055C37.1427 5.09802 37.4984 5.45202 37.4984 5.88713V9.73236Z" fill="black"/>
<path d="M12.3874 26.2462H8.52362C8.08641 26.2462 7.73071 25.8922 7.73071 25.457V21.6118H8.86343V25.1189H12.3874V26.2462Z" fill="black"/>
<path d="M36.7055 26.2462H32.8418V25.1189H36.3657V21.6118H37.4984V25.457C37.4984 25.8922 37.1427 26.2462 36.7055 26.2462Z" fill="black"/>
</svg>
