<svg width="45" height="31" viewBox="0 0 45 31" fill="none" xmlns="http://www.w3.org/2000/svg">
<rect x="1.23071" y="1.05261" width="42.8462" height="29" rx="3.5" fill="white" stroke="#F3F3F3"/>
<path d="M8.60854 11.8572C9.05002 11.7107 9.52229 11.6312 10.0137 11.6312C12.1583 11.6312 13.9472 13.1436 14.3576 15.1526L17.3966 14.5374C16.6993 11.1229 13.6592 8.55261 10.0137 8.55261C9.17906 8.55261 8.37568 8.6876 7.62573 8.93625L8.60854 11.8572Z" fill="#FFF200"/>
<path d="M4.9918 21.7526L6.81144 19.3749C5.9992 18.5435 5.48655 17.3297 5.48655 15.9767C5.48655 14.6247 5.99872 13.4109 6.81072 12.5801L4.99013 10.2026C3.60997 11.6152 2.74023 13.6785 2.74023 15.9767C2.74023 18.276 3.61124 20.3401 4.9918 21.7526Z" fill="#00A4E0"/>
<path d="M14.3585 16.8026C13.9467 18.8113 12.159 20.3218 10.0163 20.3218C9.52465 20.3218 9.05145 20.2421 8.60994 20.0951L7.62573 23.0176C8.37684 23.2675 9.18048 23.4026 10.0163 23.4026C13.6584 23.4026 16.6965 20.8341 17.3966 17.4209L14.3585 16.8026Z" fill="#EF4123"/>
<path fill-rule="evenodd" clip-rule="evenodd" d="M32.0184 10.2026V18.6527L33.5168 19.2605L32.8079 20.9272L31.3261 20.3244C30.993 20.183 30.7675 19.9676 30.5962 19.7243C30.4317 19.4753 30.3097 19.1351 30.3097 18.6759V10.2026H32.0184ZM20.6541 16.483C20.6913 14.0665 22.7248 12.1376 25.1923 12.1746C27.2865 12.2067 29.0218 13.6422 29.4775 15.5515L21.3776 18.9394C20.9071 18.2354 20.6397 17.3886 20.6541 16.483ZM22.5074 16.8217C22.4963 16.7204 22.4885 16.6164 22.4915 16.5115C22.5147 15.0878 23.7119 13.9518 25.1656 13.9754C25.9569 13.9857 26.6596 14.3403 27.1345 14.8891L22.5074 16.8217ZM26.9639 18.3906C26.4758 18.8553 25.8138 19.1384 25.0828 19.1282C24.5818 19.12 24.1176 18.9732 23.7229 18.7287L22.7444 20.2544C23.4145 20.669 24.2047 20.9142 25.0565 20.9271C26.2965 20.9452 27.4267 20.4685 28.2485 19.6814L26.9639 18.3906ZM38.2545 13.9753C37.9627 13.9753 37.6822 14.0215 37.4201 14.1076L36.837 12.3978C37.2821 12.2524 37.7586 12.1734 38.2545 12.1734C40.4187 12.1734 42.2241 13.6778 42.6381 15.6763L40.8332 16.0363C40.59 14.8602 39.5279 13.9753 38.2545 13.9753ZM35.2912 19.829L36.5107 18.4794C35.9661 18.0075 35.6231 17.3183 35.6231 16.5501C35.6231 15.7827 35.9661 15.0939 36.5102 14.6223L35.2898 13.2727C34.3646 14.0746 33.7816 15.2463 33.7816 16.5501C33.7816 17.8556 34.365 19.0269 35.2912 19.829ZM38.2545 19.1259C39.5267 19.1259 40.5886 18.2418 40.8332 17.0674L42.6376 17.429C42.2215 19.4253 40.4167 20.9276 38.2545 20.9276C37.7582 20.9276 37.281 20.8484 36.8348 20.7023L37.4192 18.9931C37.6817 19.079 37.9624 19.1259 38.2545 19.1259Z" fill="black"/>
</svg>
