<svg width="45" height="31" viewBox="0 0 45 31" fill="none" xmlns="http://www.w3.org/2000/svg">
<rect x="1.38452" y="1.05261" width="42.8462" height="29" rx="3.5" fill="white" stroke="#F9F9F9"/>
<path fill-rule="evenodd" clip-rule="evenodd" d="M14.2728 8.05599H10.637C9.03054 8.13106 7.71739 8.76609 7.33866 10.0767C7.14104 10.7598 7.03224 11.5105 6.87731 12.2192C6.09162 15.8211 5.39477 19.5231 4.64282 23.0526H32.944C35.1323 23.0526 36.6342 22.5981 37.0404 20.8926C37.2291 20.1006 37.4095 19.2018 37.5913 18.3321C38.295 14.9385 38.9995 11.5443 39.7197 8.05261L14.2728 8.05599Z" fill="#9A1915"/>
<path fill-rule="evenodd" clip-rule="evenodd" d="M13.3717 13.8523C13.5223 13.758 13.7174 13.3281 13.4949 13.1494C13.4265 13.0929 13.3067 13.0762 13.1423 13.1016C13.0842 13.1056 13.0276 13.1204 12.976 13.1451C12.9244 13.1697 12.879 13.2037 12.8425 13.2449C12.7466 13.3634 12.659 13.7202 12.8069 13.8523C12.9548 13.9845 13.2765 13.9125 13.3717 13.8523ZM11.222 13.1494C11.1131 13.7859 10.9912 14.4107 10.8687 15.0348C10.0834 15.0423 9.28173 15.0702 8.52385 15.0187C8.66694 14.4082 8.76963 13.7611 8.91203 13.1494H8.06584C7.76255 14.7072 7.48664 16.2893 7.14844 17.8149H8.01244C8.14936 17.0325 8.27465 16.2415 8.45334 15.4983C9.18999 15.4815 10.0732 15.453 10.7811 15.5144C10.6332 16.2899 10.4586 17.0344 10.3224 17.8149H11.1864C11.4636 16.2347 11.7567 14.6675 12.1031 13.1494H11.222ZM23.4405 14.4907C22.7682 14.2426 22.2397 14.6607 21.9946 15.0491C22.0507 14.8754 22.0733 14.6725 22.1185 14.4907H21.4503C21.2867 15.6422 21.045 16.7242 20.8156 17.8143H21.5735C21.6803 17.1665 21.7262 16.293 21.9617 15.6732C22.15 15.1769 22.6429 14.7563 23.3542 14.9864C23.3624 14.804 23.42 14.6644 23.4405 14.4907ZM23.8636 17.0344C23.7951 16.8712 23.776 16.6001 23.7951 16.3954C23.8348 15.9338 24.0204 15.3717 24.3065 15.1173C24.7023 14.7662 25.4827 14.8239 26.1051 15.0212C26.1242 14.8313 26.1667 14.6613 26.1934 14.4783C25.1719 14.3269 24.2032 14.4212 23.6897 14.9095C23.1865 15.3878 22.8572 16.4866 23.09 17.1783C23.3638 17.9849 24.5859 18.0314 25.5765 17.7218C25.6203 17.5586 25.645 17.3775 25.682 17.21C25.139 17.4625 24.1046 17.5928 23.8636 17.0344ZM32.3803 14.51C31.7101 14.2066 31.1521 14.7159 30.9344 15.0212C30.996 14.8648 31.0029 14.6545 31.0576 14.4938H30.3874C30.2076 15.6354 29.9901 16.7432 29.7349 17.8174H30.5113C30.5161 17.3769 30.6113 17.0511 30.6873 16.6193C30.8495 15.6968 31.0878 14.6849 32.2742 14.9895C32.3139 14.8307 32.3304 14.6539 32.3803 14.5075V14.51ZM12.5946 14.4938C12.5741 14.4969 12.5755 14.5193 12.5775 14.5422C12.4105 15.6738 12.1839 16.7527 11.9422 17.8174H12.7008C12.8829 16.6777 13.0917 15.5622 13.3532 14.4938H12.5946ZM19.2595 14.4287C18.7118 14.4671 18.249 14.6098 17.9197 14.925C17.5164 15.3103 17.1892 16.1621 17.285 16.9382C17.4219 18.045 18.9425 18.0053 20.1604 17.7367C20.181 17.5425 20.233 17.3769 20.2659 17.1938C19.7654 17.3638 18.8966 17.6008 18.3797 17.3055C17.9902 17.0828 17.9881 16.5182 18.1148 16.0275C18.9329 16.0039 19.7825 16.0082 20.6013 16.0275C20.6534 15.6794 20.8019 15.3004 20.6698 14.9566C20.5007 14.5013 19.8866 14.384 19.2595 14.4287ZM19.9824 15.6434H18.2024C18.2417 15.4253 18.3634 15.2263 18.5467 15.0805C18.7301 14.9347 18.9637 14.8513 19.2074 14.8444C19.7551 14.8239 20.1495 15.0249 19.9845 15.6422L19.9824 15.6434ZM16.3882 14.4907C15.746 14.2723 14.9641 14.5335 14.6252 14.7811C14.6252 14.7922 14.617 14.7935 14.6068 14.7947L14.6252 14.7811C14.6307 14.6744 14.6725 14.5999 14.678 14.4932H14.0255C13.7517 16.1323 13.4313 17.7255 13.091 19.3026H13.8509C13.9605 18.6884 14.033 18.0407 14.1857 17.4656C14.3589 18.0705 15.4899 17.9545 15.9657 17.7212C16.9489 17.2367 17.7081 14.9411 16.3882 14.4907ZM15.7884 17.1914C15.3824 17.5804 14.3856 17.5748 14.3069 16.9196C14.2733 16.6349 14.3904 16.3358 14.4486 16.0411C14.5068 15.7464 14.5492 15.4561 14.6068 15.1936C15.0066 14.7519 16.1814 14.6973 16.2998 15.4337C16.4032 16.0728 16.1246 16.8694 15.7884 17.192V17.1914ZM35.201 13.0526C35.1325 13.5694 35.049 14.0657 34.9367 14.5416C33.0773 14.008 31.9367 15.2476 31.9566 16.7751C31.9607 17.071 32.0168 17.3645 32.2215 17.5742C32.5734 17.9346 33.5812 18.0215 34.0905 17.7181C34.1909 17.6499 34.2799 17.5691 34.3548 17.478C34.4041 17.4222 34.4821 17.2764 34.4958 17.3185C34.4604 17.4824 34.4375 17.6482 34.4274 17.8149H35.1154C35.2476 16.092 35.6577 14.621 35.9616 13.0532L35.201 13.0526ZM33.5086 17.447C32.9979 17.4569 32.7446 17.1703 32.7329 16.6957C32.7124 15.8649 33.1149 14.9411 33.9317 14.8586C34.3124 14.8202 34.5876 14.9002 34.8662 14.9864C34.6102 15.9208 34.7026 17.424 33.5086 17.4476V17.447ZM26.967 14.4907C26.93 14.6806 26.8725 14.8524 26.826 15.0342C27.2737 14.9325 28.6662 14.621 28.8011 15.162C28.8456 15.3419 28.7683 15.5342 28.7128 15.6732C27.4531 15.5653 26.4261 15.7551 26.1557 16.5679C25.975 17.1126 26.1763 17.6486 26.5617 17.7987C27.3038 18.0866 28.2048 17.7566 28.5184 17.3024C28.4778 17.4702 28.4601 17.6419 28.4656 17.8136H29.1181C29.1249 17.2478 29.216 16.7893 29.3118 16.28C29.394 15.8457 29.548 15.4164 29.5234 15.0336C29.4679 14.1576 27.8645 14.4678 26.967 14.4907ZM28.1993 17.1752C27.8084 17.522 26.7116 17.6201 26.8239 16.7918C26.917 16.1038 27.7441 15.9574 28.6402 16.0566C28.5752 16.4338 28.5019 16.9103 28.2014 17.1759L28.1993 17.1752Z" fill="white"/>
</svg>
