<svg width="30" height="31" viewBox="0 0 30 31" fill="none" xmlns="http://www.w3.org/2000/svg">
<rect y="0.777832" width="30" height="30" rx="15" fill="#E2211D"/>
<path fill-rule="evenodd" clip-rule="evenodd" d="M15.0007 7.44434C12.7378 7.44434 12.4533 7.45426 11.5633 7.49396C10.6767 7.53366 10.0713 7.67592 9.54193 7.88103C8.99274 8.09277 8.52958 8.38059 8.06641 8.84376C7.60325 9.30692 7.31873 9.7734 7.10369 10.3193C6.89857 10.8486 6.75632 11.454 6.71662 12.344C6.67692 13.2306 6.66699 13.5151 6.66699 15.778C6.66699 18.0409 6.67692 18.3254 6.71662 19.2153C6.75632 20.102 6.89857 20.7074 7.10369 21.24C7.31542 21.7892 7.60325 22.2524 8.06641 22.7156C8.52958 23.1787 8.99605 23.4632 9.54193 23.6783C10.0713 23.8834 10.6767 24.0256 11.5666 24.0653C12.4566 24.105 12.7378 24.115 15.004 24.115C17.2702 24.115 17.5514 24.105 18.4413 24.0653C19.328 24.0256 19.9334 23.8834 20.466 23.6783C21.0152 23.4665 21.4784 23.1787 21.9415 22.7156C22.4047 22.2524 22.6892 21.7859 22.9042 21.24C23.1094 20.7107 23.2516 20.1053 23.2913 19.2153C23.331 18.3254 23.3409 18.0442 23.3409 15.778C23.3409 13.5118 23.331 13.2306 23.2913 12.3407C23.2516 11.454 23.1094 10.8486 22.9042 10.316C22.6925 9.76678 22.4047 9.30361 21.9415 8.84045C21.4784 8.37728 21.0119 8.09277 20.466 7.87773C19.9367 7.67261 19.3313 7.53035 18.4413 7.49065C17.5481 7.45426 17.2636 7.44434 15.0007 7.44434ZM15.0009 11.5003C12.6387 11.5003 10.7199 13.4158 10.7199 15.7813C10.7199 18.1467 12.6354 20.0622 15.0009 20.0622C17.3663 20.0622 19.2818 18.1467 19.2818 15.7813C19.2818 13.4158 17.3663 11.5003 15.0009 11.5003ZM15.0009 18.5569C13.4658 18.5569 12.2219 17.313 12.2219 15.7779C12.2219 14.2429 13.4658 12.999 15.0009 12.999C16.5359 12.999 17.7798 14.2429 17.7798 15.7779C17.7798 17.313 16.5359 18.5569 15.0009 18.5569ZM20.4495 11.3283C20.4495 11.8801 20.0022 12.3274 19.4504 12.3274C18.8986 12.3274 18.4513 11.8801 18.4513 11.3283C18.4513 10.7765 18.8986 10.3292 19.4504 10.3292C20.0022 10.3292 20.4495 10.7765 20.4495 11.3283Z" fill="white"/>
</svg>
