<svg width="25" height="25" viewBox="0 0 25 25" fill="none" xmlns="http://www.w3.org/2000/svg">
<rect x="0.5" y="0.552612" width="24" height="24" rx="6" fill="#E2211D"/>
<path fill-rule="evenodd" clip-rule="evenodd" d="M12.4968 4.24487C10.2418 4.24487 9.95832 4.25476 9.0715 4.29432C8.18799 4.33388 7.58469 4.47564 7.05722 4.68004C6.50997 4.89103 6.04843 5.17784 5.58689 5.63938C5.12535 6.10092 4.84183 6.56575 4.62755 7.10971C4.42315 7.63718 4.28139 8.24047 4.24183 9.12729C4.20227 10.0108 4.19238 10.2943 4.19238 12.5493C4.19238 14.8042 4.20227 15.0877 4.24183 15.9745C4.28139 16.8581 4.42315 17.4613 4.62755 17.9921C4.83854 18.5394 5.12535 19.0009 5.58689 19.4624C6.04843 19.924 6.51326 20.2075 7.05722 20.4218C7.58469 20.6262 8.18799 20.7679 9.0748 20.8075C9.96161 20.8471 10.2418 20.8569 12.5001 20.8569C14.7583 20.8569 15.0385 20.8471 15.9254 20.8075C16.8089 20.7679 17.4122 20.6262 17.9429 20.4218C18.4902 20.2108 18.9517 19.924 19.4133 19.4624C19.8748 19.0009 20.1583 18.5361 20.3726 17.9921C20.577 17.4646 20.7188 16.8613 20.7583 15.9745C20.7979 15.0877 20.8078 14.8075 20.8078 12.5493C20.8078 10.291 20.7979 10.0108 20.7583 9.12399C20.7188 8.24047 20.577 7.63718 20.3726 7.10641C20.1616 6.55916 19.8748 6.09762 19.4133 5.63608C18.9517 5.17454 18.4869 4.89103 17.9429 4.67674C17.4155 4.47235 16.8122 4.33059 15.9254 4.29103C15.0352 4.25476 14.7517 4.24487 12.4968 4.24487ZM12.4969 8.28663C10.143 8.28663 8.23094 10.1954 8.23094 12.5526C8.23094 14.9097 10.1397 16.8185 12.4969 16.8185C14.854 16.8185 16.7628 14.9097 16.7628 12.5526C16.7628 10.1954 14.854 8.28663 12.4969 8.28663ZM12.4969 15.3185C10.9672 15.3185 9.72764 14.0789 9.72764 12.5493C9.72764 11.0196 10.9672 9.78004 12.4969 9.78004C14.0265 9.78004 15.2661 11.0196 15.2661 12.5493C15.2661 14.0789 14.0265 15.3185 12.4969 15.3185ZM17.9267 8.11518C17.9267 8.66503 17.4809 9.11078 16.9311 9.11078C16.3812 9.11078 15.9355 8.66503 15.9355 8.11518C15.9355 7.56532 16.3812 7.11957 16.9311 7.11957C17.4809 7.11957 17.9267 7.56532 17.9267 8.11518Z" fill="white"/>
</svg>
