<svg width="25" height="25" viewBox="0 0 25 25" fill="none" xmlns="http://www.w3.org/2000/svg">
<rect x="0.5" y="0.552612" width="24" height="24" rx="6" fill="#E2211D"/>
<path fill-rule="evenodd" clip-rule="evenodd" d="M10.3642 10.0346H13.4496V11.5715C13.8941 10.6876 15.0339 9.89339 16.7461 9.89339C20.0285 9.89339 20.8078 11.653 20.8078 14.8813V20.8604H17.4847V15.6166C17.4847 13.7781 17.0402 12.7413 15.9087 12.7413C14.3394 12.7413 13.6872 13.8587 13.6872 15.6157V20.8604H10.3642V10.0346ZM4.66592 20.7191H7.989V9.89339H4.66592V20.7191ZM8.46503 6.36346C8.46515 6.64199 8.40991 6.91777 8.30252 7.17478C8.19513 7.43178 8.03772 7.66487 7.83946 7.8605C7.4377 8.25979 6.89389 8.48329 6.32746 8.48192C5.76203 8.48154 5.21947 8.25861 4.81712 7.86133C4.61957 7.66503 4.4627 7.43168 4.3555 7.17465C4.24829 6.91761 4.19286 6.64195 4.19238 6.36346C4.19238 5.80103 4.41669 5.26269 4.81795 4.86558C5.21995 4.46777 5.76274 4.24475 6.32829 4.245C6.89488 4.245 7.4382 4.46847 7.83946 4.86558C8.23989 5.26269 8.46503 5.80103 8.46503 6.36346Z" fill="white"/>
</svg>
