<svg width="45" height="31" viewBox="0 0 45 31" fill="none" xmlns="http://www.w3.org/2000/svg">
<rect x="1" y="1.05261" width="42.8462" height="29" rx="3.5" fill="white" stroke="#F0F0F0"/>
<path d="M26.7441 23.3826H18.1365V7.68799H26.7441V23.3826Z" fill="#FF5F00"/>
<path d="M18.6882 15.5341C18.6882 12.3503 20.1574 9.51436 22.4454 7.68675C20.7723 6.3503 18.6606 5.55263 16.3658 5.55263C10.9328 5.55263 6.52881 10.0214 6.52881 15.5341C6.52881 21.0467 10.9328 25.5155 16.3658 25.5155C18.6606 25.5155 20.7723 24.7178 22.4454 23.3814C20.1574 21.5538 18.6882 18.7178 18.6882 15.5341Z" fill="#EB001B"/>
<path d="M38.3533 15.5341C38.3533 21.0467 33.9493 25.5155 28.5163 25.5155C26.2214 25.5155 24.1098 24.7178 22.436 23.3814C24.7247 21.5538 26.1939 18.7178 26.1939 15.5341C26.1939 12.3503 24.7247 9.51436 22.436 7.68675C24.1098 6.3503 26.2214 5.55263 28.5163 5.55263C33.9493 5.55263 38.3533 10.0214 38.3533 15.5341Z" fill="#F79E1B"/>
</svg>
