<svg width="19" height="19" viewBox="0 0 19 19" fill="none" xmlns="http://www.w3.org/2000/svg">
<path d="M17.8334 13.6527V16.1527C17.8344 16.3847 17.7868 16.6145 17.6939 16.8271C17.6009 17.0398 17.4645 17.2306 17.2935 17.3875C17.1225 17.5444 16.9206 17.6639 16.7007 17.7382C16.4809 17.8126 16.2479 17.8402 16.0168 17.8193C13.4525 17.5407 10.9893 16.6644 8.82511 15.261C6.81163 13.9815 5.10455 12.2745 3.82511 10.261C2.41676 8.08699 1.54031 5.61181 1.26677 3.03599C1.24595 2.80554 1.27334 2.57329 1.34719 2.35401C1.42105 2.13473 1.53975 1.93323 1.69575 1.76234C1.85174 1.59145 2.04161 1.45491 2.25327 1.36142C2.46492 1.26793 2.69372 1.21954 2.92511 1.21932H5.42511C5.82953 1.21534 6.2216 1.35855 6.52824 1.62226C6.83488 1.88597 7.03517 2.25219 7.09177 2.65265C7.19729 3.45271 7.39298 4.23826 7.67511 4.99432C7.78723 5.29259 7.81149 5.61675 7.74503 5.92839C7.67857 6.24002 7.52416 6.52608 7.30011 6.75265L6.24177 7.81099C7.42807 9.89727 9.15549 11.6247 11.2418 12.811L12.3001 11.7527C12.5267 11.5286 12.8127 11.3742 13.1244 11.3077C13.436 11.2413 13.7602 11.2655 14.0584 11.3777C14.8145 11.6598 15.6001 11.8555 16.4001 11.961C16.8049 12.0181 17.1746 12.222 17.4389 12.5339C17.7032 12.8458 17.8436 13.244 17.8334 13.6527Z" stroke="#E2211D" stroke-width="2" stroke-linecap="round" stroke-linejoin="round"/>
</svg>
