<svg width="45" height="31" viewBox="0 0 45 31" fill="none" xmlns="http://www.w3.org/2000/svg">
<rect x="1.0769" y="1.05261" width="42.8462" height="29" rx="3.5" fill="white" stroke="#F3F3F3"/>
<path d="M19.3555 21.5269V14.2277C19.3555 13.5828 19.6177 12.9644 20.0844 12.5084C20.5512 12.0524 21.1842 11.7963 21.8443 11.7963L24.0501 11.7993C24.7085 11.8006 25.3394 12.057 25.8045 12.5123C26.2695 12.9676 26.5306 13.5845 26.5305 14.2277V15.781C26.5305 16.4259 26.2683 17.0444 25.8016 17.5004C25.3348 17.9565 24.7018 18.2127 24.0417 18.2128H20.9239" stroke="#898B8F" stroke-width="0.8" stroke-linecap="round" stroke-linejoin="round"/>
<path d="M27.147 11.7959H28.1039C28.3748 11.7959 28.6347 11.901 28.8262 12.0882C29.0178 12.2754 29.1254 12.5292 29.1254 12.7939V18.2459" stroke="#898B8F" stroke-width="0.8" stroke-linecap="round" stroke-linejoin="round"/>
<path d="M30.9624 11.791H31.9113C32.3993 11.7908 32.8675 11.98 33.2128 12.3171L35.4324 14.4855C35.5008 14.5523 35.5819 14.6053 35.6712 14.6415C35.7606 14.6777 35.8563 14.6963 35.953 14.6963C36.0497 14.6963 36.1455 14.6777 36.2348 14.6415C36.3241 14.6053 36.4053 14.5523 36.4736 14.4855L38.6852 12.3253C38.856 12.1584 39.0589 12.0261 39.2821 11.9358C39.5054 11.8455 39.7447 11.7992 39.9863 11.7993H40.7579" stroke="#898B8F" stroke-width="0.8" stroke-linecap="round" stroke-linejoin="round"/>
<path d="M30.9624 18.1978H31.9113C32.3993 18.198 32.8675 18.0088 33.2128 17.6718L35.4324 15.5034C35.5705 15.3686 35.7578 15.2928 35.953 15.2928C36.1482 15.2928 36.3355 15.3686 36.4736 15.5034L38.6852 17.6639C39.0303 18.0009 39.4984 18.1901 39.9863 18.1899H40.7579" stroke="#898B8F" stroke-width="0.8" stroke-linecap="round" stroke-linejoin="round"/>
<path d="M13.6982 19.5831C13.464 19.5839 13.2321 19.5394 13.0157 19.4522C12.7993 19.3649 12.6027 19.2366 12.4374 19.0747L10.6162 17.2944C10.5518 17.2343 10.4661 17.2007 10.377 17.2007C10.2879 17.2007 10.2022 17.2343 10.1378 17.2944L8.31043 19.0796C8.14518 19.2417 7.94868 19.3703 7.73228 19.4578C7.51587 19.5453 7.28387 19.5901 7.04966 19.5895H6.69312L9.00082 21.8439C9.34693 22.1813 9.81591 22.3708 10.3049 22.3708C10.7938 22.3708 11.2628 22.1813 11.6089 21.8439L13.9212 19.5846L13.6982 19.5831Z" fill="#32BCAD"/>
<path d="M7.05004 13.2916C7.28425 13.291 7.51627 13.3358 7.73267 13.4233C7.94908 13.5108 8.14558 13.6394 8.31082 13.8015L10.1381 15.5871C10.2017 15.6489 10.2877 15.6837 10.3774 15.6837C10.4671 15.6837 10.5531 15.6489 10.6166 15.5871L12.4374 13.8083C12.6025 13.6459 12.799 13.5172 13.0154 13.4296C13.2318 13.342 13.4639 13.2973 13.6982 13.298H13.9174L11.6051 11.0391C11.4338 10.8717 11.2305 10.739 11.0068 10.6484C10.783 10.5578 10.5432 10.5112 10.301 10.5112C10.0588 10.5112 9.819 10.5578 9.59525 10.6484C9.3715 10.739 9.1682 10.8717 8.99698 11.0391L6.69312 13.2916H7.05004Z" fill="#32BCAD"/>
<path d="M15.8301 15.1669L14.4328 13.8018C14.4013 13.8144 14.3676 13.821 14.3336 13.8213H13.6982C13.3676 13.8221 13.0506 13.9504 12.8163 14.1783L10.9955 15.9559C10.8315 16.1158 10.6093 16.2056 10.3776 16.2056C10.1459 16.2056 9.92368 16.1158 9.7597 15.9559L7.932 14.1715C7.69772 13.9435 7.38076 13.8151 7.05007 13.8142H6.27006C6.23792 13.8135 6.20615 13.8072 6.17622 13.7958L4.77005 15.1669C4.42468 15.505 4.23071 15.9631 4.23071 16.4408C4.23071 16.9185 4.42468 17.3767 4.77005 17.7148L6.17314 19.0855C6.20301 19.0738 6.23482 19.0676 6.26699 19.0671H7.05007C7.38075 19.0661 7.69769 18.9377 7.932 18.7097L9.75932 16.9246C10.0897 16.6022 10.6655 16.6022 10.9955 16.9246L12.8163 18.703C13.0506 18.9308 13.3676 19.0591 13.6982 19.0599H14.3336C14.3676 19.0602 14.4013 19.0668 14.4328 19.0795L15.8301 17.7144C16.0014 17.5471 16.1373 17.3485 16.23 17.1299C16.3227 16.9113 16.3704 16.6771 16.3704 16.4404C16.3704 16.2038 16.3227 15.9695 16.23 15.751C16.1373 15.5324 16.0014 15.3338 15.8301 15.1665" fill="#32BCAD"/>
<path d="M28.9201 10.9512L28.4863 10.527C28.4607 10.502 28.4404 10.4723 28.4265 10.4397C28.4126 10.407 28.4055 10.372 28.4055 10.3366C28.4055 10.3013 28.4126 10.2663 28.4265 10.2336C28.4404 10.201 28.4607 10.1713 28.4863 10.1463L28.9201 9.7225C28.9719 9.67195 29.0421 9.64355 29.1153 9.64355C29.1885 9.64355 29.2587 9.67195 29.3105 9.7225L29.744 10.1463C29.7696 10.1713 29.7899 10.201 29.8037 10.2336C29.8176 10.2663 29.8247 10.3013 29.8247 10.3366C29.8247 10.372 29.8176 10.407 29.8037 10.4397C29.7899 10.4723 29.7696 10.502 29.744 10.527L29.3086 10.9512C29.283 10.9762 29.2526 10.996 29.2191 11.0096C29.1856 11.0231 29.1498 11.0301 29.1136 11.0301C29.0774 11.0301 29.0415 11.0231 29.008 11.0096C28.9746 10.996 28.9442 10.9762 28.9186 10.9512" fill="#32BCAD"/>
<path d="M21.2523 20.9066C21.1368 20.9115 21.0222 20.9286 20.9104 20.9573V21.4022C20.9959 21.4315 21.086 21.4462 21.1766 21.4458C21.405 21.4458 21.5131 21.3706 21.5131 21.1741C21.5131 20.9893 21.4247 20.9066 21.2523 20.9066ZM20.8335 21.7332V20.8529H20.8962L20.9027 20.8904C21.0192 20.8602 21.1385 20.8414 21.2589 20.8345C21.3423 20.8287 21.425 20.8522 21.4923 20.9006C21.5693 20.963 21.5954 21.0637 21.5954 21.1734C21.5954 21.2831 21.557 21.3966 21.4493 21.4563C21.3671 21.4964 21.2761 21.5161 21.1843 21.5138C21.0914 21.5132 20.9992 21.4994 20.9104 21.4729V21.7317L20.8335 21.7332Z" fill="#898B8F"/>
<path d="M22.1687 20.9038C21.9406 20.9038 21.8387 20.9737 21.8387 21.1702C21.8387 21.36 21.939 21.4457 22.1687 21.4457C22.3983 21.4457 22.4975 21.3765 22.4975 21.1804C22.4975 20.9906 22.3971 20.9038 22.1687 20.9038ZM22.4625 21.4457C22.3856 21.499 22.2848 21.5144 22.1687 21.5144C22.0525 21.5144 21.9483 21.4979 21.874 21.4457C21.7906 21.3882 21.7563 21.2954 21.7563 21.1755C21.7563 21.0556 21.7906 20.9625 21.874 20.9038C21.9483 20.8516 22.0502 20.8351 22.1687 20.8351C22.2871 20.8351 22.3867 20.8516 22.4625 20.9038C22.5471 20.9625 22.5798 21.0579 22.5798 21.174C22.5798 21.2901 22.546 21.3882 22.4625 21.4457Z" fill="#898B8F"/>
<path d="M23.5431 21.4963L23.2885 20.9624H23.2835L23.0327 21.4963H22.9623L22.6931 20.8527H22.7777L23.0035 21.393H23.0089L23.2543 20.8527H23.3247L23.5762 21.393H23.5816L23.802 20.8527H23.8854L23.6139 21.4963H23.5431Z" fill="#898B8F"/>
<path d="M24.3757 20.9024C24.1642 20.9024 24.0926 20.9945 24.0796 21.1279H24.6719C24.6653 20.9813 24.5884 20.9024 24.3757 20.9024ZM24.373 21.5145C24.2465 21.5145 24.1642 21.4965 24.0988 21.4431C24.0219 21.3781 23.9961 21.2838 23.9961 21.1756C23.9961 21.0674 24.0311 20.9625 24.1188 20.9002C24.1955 20.8531 24.2852 20.8303 24.3757 20.8352C24.4679 20.8297 24.5597 20.8515 24.6392 20.8975C24.7342 20.9599 24.7526 21.0696 24.7526 21.1944H24.0776C24.0803 21.327 24.1246 21.4443 24.3803 21.4443C24.4947 21.4413 24.6086 21.4287 24.7207 21.4067V21.4743C24.6067 21.4972 24.4909 21.5104 24.3746 21.5138" fill="#898B8F"/>
<path d="M24.9739 21.4964V20.8528H25.0362L25.0427 20.8903C25.1823 20.8558 25.2477 20.8344 25.3704 20.8344H25.3796V20.9057H25.3612C25.2581 20.9057 25.1954 20.9196 25.0508 20.9565V21.4957L24.9739 21.4964Z" fill="#898B8F"/>
<path d="M25.8266 20.9024C25.6155 20.9024 25.5436 20.9945 25.5305 21.1279H26.1228C26.1163 20.9813 26.0393 20.9024 25.8266 20.9024ZM25.8239 21.5145C25.6974 21.5145 25.6155 21.4965 25.5501 21.4431C25.4732 21.3781 25.447 21.2838 25.447 21.1756C25.447 21.0674 25.4824 20.9625 25.5697 20.9002C25.6464 20.8531 25.7362 20.8304 25.8266 20.8352C25.9189 20.8297 26.0107 20.8515 26.0901 20.8975C26.1855 20.9599 26.2055 21.0696 26.2055 21.1944H25.5278C25.5305 21.327 25.5747 21.4443 25.8305 21.4443C25.945 21.4413 26.059 21.4288 26.1713 21.4067V21.4743C26.0572 21.4972 25.9414 21.5104 25.8251 21.5138" fill="#898B8F"/>
<path d="M27.0471 20.947C26.9615 20.9179 26.8715 20.9032 26.7809 20.9038C26.5524 20.9038 26.4444 20.979 26.4444 21.1755C26.4444 21.3615 26.5332 21.443 26.7051 21.443C26.8206 21.4378 26.9351 21.421 27.0471 21.393V20.947ZM27.0617 21.4964L27.0548 21.4588C26.9383 21.4894 26.819 21.5082 26.6986 21.5151C26.6151 21.5213 26.5322 21.4977 26.4651 21.4486C26.3882 21.3863 26.3621 21.2856 26.3621 21.1762C26.3621 21.0612 26.4005 20.953 26.5082 20.8944C26.5905 20.8534 26.682 20.8333 26.7744 20.8358C26.8667 20.837 26.9585 20.8507 27.0471 20.8764V20.5814H27.124V21.4964H27.0617Z" fill="#898B8F"/>
<path d="M28.2528 20.9064C28.1373 20.9114 28.0227 20.9284 27.9109 20.9572V21.4009C27.9962 21.431 28.0863 21.4462 28.1771 21.4456C28.4055 21.4456 28.5136 21.3705 28.5136 21.174C28.5136 20.9891 28.4251 20.9064 28.2528 20.9064ZM28.4498 21.4569C28.3677 21.4969 28.2768 21.5167 28.1851 21.5144C28.0848 21.5138 27.9852 21.4974 27.8901 21.4659L27.8863 21.4964H27.834V20.5814H27.9109V20.8884C28.0251 20.8599 28.1417 20.842 28.2594 20.835C28.3428 20.8293 28.4255 20.8528 28.4928 20.9012C28.5698 20.9636 28.5959 21.0642 28.5959 21.174C28.5959 21.2837 28.5575 21.3972 28.4498 21.4569Z" fill="#898B8F"/>
<path d="M28.6982 21.7427V21.6728C28.7367 21.6766 28.7713 21.6792 28.7959 21.6792C28.8913 21.6792 28.9498 21.6521 29.0021 21.5466L29.0271 21.4955L28.6809 20.8518H28.7701L29.0651 21.4075H29.0701L29.3505 20.8518H29.4382L29.0674 21.5747C28.9998 21.7059 28.9267 21.7491 28.7921 21.7491C28.7603 21.7489 28.7286 21.7468 28.6971 21.7427" fill="#898B8F"/>
<path d="M30.5008 21.1294H30.2454V21.3549H30.5008C30.677 21.3549 30.7435 21.3357 30.7435 21.2421C30.7435 21.1414 30.652 21.1294 30.4993 21.1294H30.5008ZM30.4531 20.7657H30.2447V20.9949H30.4547C30.6281 20.9949 30.6974 20.9746 30.6974 20.8792C30.6974 20.777 30.6097 20.7664 30.4531 20.7664V20.7657ZM30.8501 21.4383C30.7558 21.4969 30.6424 21.4991 30.4351 21.4991H30.0447V20.6237H30.4258C30.6047 20.6237 30.7143 20.6259 30.8055 20.6796C30.8357 20.6973 30.8604 20.7229 30.8766 20.7535C30.8927 20.7841 30.8998 20.8185 30.897 20.8529C30.897 20.9445 30.8585 21.0058 30.7558 21.0467V21.0516C30.8712 21.0772 30.9451 21.1347 30.9451 21.2583C30.948 21.2936 30.9406 21.329 30.9238 21.3604C30.907 21.3917 30.8814 21.4178 30.8501 21.4356" fill="#898B8F"/>
<path d="M31.7255 21.2263C31.6486 21.2199 31.5717 21.2162 31.4882 21.2162C31.354 21.2162 31.3067 21.2429 31.3067 21.303C31.3067 21.3631 31.3451 21.3894 31.449 21.3894C31.5422 21.3864 31.6349 21.3738 31.7255 21.3518V21.2263ZM31.764 21.4965L31.759 21.4589C31.6423 21.491 31.5223 21.5099 31.4013 21.5153C31.3313 21.5199 31.2617 21.5034 31.2017 21.4679C31.1759 21.4468 31.1559 21.4197 31.1434 21.3892C31.1309 21.3586 31.1264 21.3256 31.1302 21.2929C31.134 21.2602 31.1461 21.229 31.1652 21.202C31.1844 21.1749 31.2101 21.153 31.2401 21.138C31.3094 21.1061 31.402 21.1035 31.487 21.1035C31.5559 21.1035 31.6486 21.1072 31.7255 21.1125V21.1008C31.7255 21.0001 31.6578 20.9671 31.4724 20.9671C31.4009 20.9671 31.3132 20.9708 31.2297 20.9783V20.8483C31.3224 20.8408 31.427 20.8359 31.5132 20.8359C31.6286 20.8359 31.7467 20.8446 31.8209 20.8957C31.8951 20.9468 31.9109 21.0208 31.9109 21.1162V21.4972L31.764 21.4965Z" fill="#898B8F"/>
<path d="M32.7703 21.4964V21.1413C32.7703 21.0241 32.7092 20.982 32.5996 20.982C32.5086 20.986 32.4183 20.9996 32.3303 21.0226V21.4968H32.1465V20.8528H32.2965L32.303 20.8937C32.4177 20.8608 32.5359 20.8411 32.6553 20.8351C32.7364 20.8288 32.817 20.8524 32.8811 20.9012C32.933 20.9471 32.9526 21.011 32.9526 21.1026V21.4964H32.7703Z" fill="#898B8F"/>
<path d="M33.4724 21.5144C33.3874 21.5144 33.2947 21.5028 33.227 21.4468C33.1463 21.3829 33.1228 21.2826 33.1228 21.174C33.1228 21.0722 33.1566 20.961 33.257 20.8986C33.3393 20.8464 33.4409 20.8351 33.5467 20.8351C33.6236 20.8351 33.6967 20.84 33.7774 20.8475V20.9854C33.7109 20.979 33.6313 20.9741 33.5674 20.9741C33.3924 20.9741 33.3101 21.0275 33.3101 21.1755C33.3101 21.3142 33.3717 21.3743 33.5151 21.3743C33.6081 21.3713 33.7007 21.3602 33.7917 21.3412V21.4735C33.6864 21.4974 33.5789 21.5111 33.4709 21.5144" fill="#898B8F"/>
<path d="M34.3369 20.97C34.1619 20.97 34.085 21.0237 34.085 21.1702C34.085 21.3168 34.1619 21.3792 34.3369 21.3792C34.5119 21.3792 34.5861 21.3269 34.5861 21.1804C34.5861 21.0339 34.5119 20.97 34.3369 20.97ZM34.6527 21.4468C34.5719 21.5001 34.4661 21.5144 34.3369 21.5144C34.2077 21.5144 34.0996 21.499 34.02 21.4468C33.9284 21.3882 33.8958 21.2912 33.8958 21.1755C33.8958 21.0598 33.9284 20.961 34.02 20.9023C34.0996 20.8501 34.205 20.8351 34.3369 20.8351C34.4688 20.8351 34.5719 20.8501 34.6527 20.9023C34.7438 20.961 34.7754 21.0594 34.7754 21.174C34.7754 21.2886 34.7427 21.3882 34.6527 21.4468Z" fill="#898B8F"/>
<path d="M35.8371 21.5144C35.7263 21.5144 35.6063 21.4964 35.5163 21.4238C35.4094 21.337 35.3767 21.2033 35.3767 21.0594C35.3767 20.9305 35.4186 20.7776 35.5579 20.6885C35.6663 20.6197 35.8006 20.6055 35.9363 20.6055C36.0356 20.6055 36.1375 20.6119 36.2483 20.6209V20.7776C36.1533 20.77 36.0356 20.7637 35.9444 20.7637C35.6898 20.7637 35.5817 20.858 35.5817 21.0594C35.5817 21.2608 35.6821 21.3562 35.8698 21.3562C36.0039 21.3517 36.1373 21.3342 36.2679 21.304V21.4595C36.1265 21.4915 35.9822 21.5098 35.8371 21.5144Z" fill="#898B8F"/>
<path d="M36.8087 20.9495C36.6548 20.9495 36.5972 21.0032 36.5852 21.0998H37.0291C37.0237 20.9953 36.961 20.9495 36.8087 20.9495ZM36.781 21.5131C36.6729 21.5131 36.5748 21.5003 36.5018 21.4417C36.4287 21.3831 36.396 21.2824 36.396 21.1727C36.396 21.0746 36.4287 20.9649 36.5202 20.901C36.601 20.845 36.7041 20.8337 36.8087 20.8337C36.9025 20.8337 37.0133 20.8439 37.0941 20.8987C37.1998 20.9713 37.2095 21.0836 37.2095 21.2159H36.5841C36.5879 21.3143 36.6414 21.3778 36.8268 21.3778C36.9445 21.3753 37.0619 21.3643 37.1779 21.3448V21.471C37.047 21.4953 36.9142 21.5094 36.781 21.5131Z" fill="#898B8F"/>
<path d="M38.0286 21.4964V21.1413C38.0286 21.0241 37.9675 20.982 37.8579 20.982C37.7669 20.986 37.6766 20.9996 37.5886 21.0226V21.4968H37.4048V20.8528H37.5548L37.5613 20.8937C37.676 20.8608 37.7942 20.8411 37.9136 20.8351C37.9947 20.8288 38.0753 20.8524 38.1394 20.9012C38.1913 20.9471 38.2109 21.011 38.2109 21.1026V21.4964H38.0286Z" fill="#898B8F"/>
<path d="M38.735 21.5145C38.6461 21.5145 38.5654 21.4901 38.5211 21.4225C38.4849 21.364 38.468 21.296 38.4727 21.2278V20.9866H38.3396V20.8528H38.4727L38.4923 20.6578H38.6546V20.8528H38.9142V20.9866H38.6546V21.1933C38.6521 21.2349 38.6583 21.2765 38.6727 21.3158C38.6923 21.359 38.7354 21.3755 38.7931 21.3755C38.8372 21.3747 38.8812 21.3704 38.9246 21.3627V21.4916C38.862 21.5049 38.7983 21.5125 38.7342 21.5145" fill="#898B8F"/>
<path d="M39.0947 21.4965V20.8528H39.2447L39.2513 20.8938C39.3565 20.8589 39.4664 20.8391 39.5774 20.8352C39.5852 20.8347 39.5931 20.8347 39.6009 20.8352V20.9911C39.5801 20.9911 39.5551 20.9911 39.537 20.9911C39.4498 20.9915 39.363 21.0026 39.2786 21.0242V21.4995L39.0947 21.4965Z" fill="#898B8F"/>
<path d="M40.2705 21.2263C40.1935 21.2199 40.1166 21.2162 40.0328 21.2162C39.8985 21.2162 39.8516 21.2429 39.8516 21.303C39.8516 21.3631 39.8901 21.3894 39.9935 21.3894C40.0869 21.3864 40.1798 21.3738 40.2705 21.3518V21.2263ZM40.3089 21.4965L40.3035 21.4589C40.1869 21.491 40.0669 21.5099 39.9458 21.5153C39.8759 21.5199 39.8062 21.5034 39.7462 21.4679C39.722 21.4498 39.7027 21.4261 39.6899 21.399C39.6772 21.3719 39.6714 21.3422 39.6731 21.3124C39.6714 21.2757 39.6811 21.2394 39.7009 21.2083C39.7208 21.1771 39.7499 21.1526 39.7843 21.138C39.8535 21.1061 39.9458 21.1035 40.0308 21.1035C40.1001 21.1035 40.1928 21.1072 40.2697 21.1125V21.1008C40.2697 21.0001 40.2016 20.9671 40.0166 20.9671C39.9447 20.9671 39.8574 20.9708 39.7739 20.9783V20.8483C39.8666 20.8408 39.9708 20.8359 40.057 20.8359C40.1724 20.8359 40.2905 20.8446 40.3647 20.8957C40.4389 20.9468 40.4547 21.0208 40.4547 21.1162V21.4972L40.3089 21.4965Z" fill="#898B8F"/>
<path d="M40.6902 20.5814H40.8744V21.4964H40.6902V20.5814Z" fill="#898B8F"/>
</svg>
