<svg width="25" height="25" viewBox="0 0 25 25" fill="none" xmlns="http://www.w3.org/2000/svg">
<rect x="0.5" y="0.552612" width="24" height="24" rx="6" fill="#E2211D"/>
<path d="M15.5402 5.16797H12.9904V15.2282C12.9904 16.4268 12.0098 17.4115 10.7894 17.4115C9.56899 17.4115 8.58832 16.4268 8.58832 15.2282C8.58832 14.0509 9.5472 13.0877 10.724 13.0449V10.5191C8.13067 10.5619 6.03857 12.6382 6.03857 15.2282C6.03857 17.8396 8.17426 19.9372 10.8112 19.9372C13.4481 19.9372 15.5838 17.8181 15.5838 15.2282V10.0696C16.5427 10.7546 17.7195 11.1613 18.9617 11.1827V8.65693C17.0439 8.59272 15.5402 7.05158 15.5402 5.16797Z" fill="white"/>
</svg>
