<svg width="25" height="25" viewBox="0 0 25 25" fill="none" xmlns="http://www.w3.org/2000/svg">
<rect x="0.5" y="0.552612" width="24" height="24" rx="6" fill="#E2211D"/>
<path d="M19.8337 8.84547C19.8412 9.00793 19.8412 9.16301 19.8412 9.32547C19.8487 14.251 16.0394 19.9372 9.0732 19.9372C7.01858 19.9372 5.00146 19.3538 3.26929 18.2609C3.56923 18.2978 3.86917 18.3126 4.16912 18.3126C5.8713 18.3126 7.52849 17.7513 8.87074 16.7101C7.25104 16.6806 5.82631 15.6393 5.3314 14.1181C5.90129 14.2289 6.48618 14.2067 7.04108 14.0516C5.27891 13.7119 4.01165 12.1833 4.00415 10.4036C4.00415 10.3889 4.00415 10.3741 4.00415 10.3593C4.52905 10.6473 5.12144 10.8098 5.72133 10.8246C4.06414 9.73163 3.54674 7.55316 4.55155 5.84731C6.47869 8.18085 9.31315 9.59132 12.3576 9.7464C12.0501 8.45409 12.4701 7.09531 13.4524 6.17962C14.9746 4.76915 17.3741 4.843 18.8139 6.34208C19.6612 6.17962 20.4786 5.86946 21.2209 5.43377C20.936 6.29777 20.3436 7.02885 19.5562 7.49408C20.3061 7.40547 21.041 7.20608 21.7308 6.9107C21.2209 7.66393 20.576 8.31378 19.8337 8.84547Z" fill="white"/>
</svg>
