<svg width="45" height="31" viewBox="0 0 45 31" fill="none" xmlns="http://www.w3.org/2000/svg">
<rect x="0.846191" y="1.05261" width="42.8462" height="29" rx="3.5" fill="white" stroke="#F3F3F3"/>
<path d="M20.1798 21.3125H17.0356L19.0022 9.76196H22.1462L20.1798 21.3125Z" fill="#15195A"/>
<path d="M31.5777 10.0444C30.9575 9.81066 29.9739 9.55261 28.7576 9.55261C25.6526 9.55261 23.4661 11.1254 23.4527 13.374C23.4269 15.033 25.0182 15.9544 26.2083 16.5076C27.4247 17.0728 27.8383 17.4417 27.8383 17.9456C27.8259 18.7194 26.8553 19.0761 25.9501 19.0761C24.6948 19.0761 24.0222 18.8922 23 18.4617L22.586 18.2771L22.146 20.87C22.8834 21.1891 24.2421 21.4723 25.6526 21.4847C28.9517 21.4847 31.0995 19.9363 31.125 17.5401C31.1375 16.2252 30.2973 15.2177 28.4858 14.3944C27.3861 13.8659 26.7126 13.5095 26.7126 12.9688C26.7255 12.4772 27.2822 11.9737 28.5236 11.9737C29.5457 11.949 30.2968 12.1824 30.8657 12.4159L31.1501 12.5386L31.5777 10.0444Z" fill="#15195A"/>
<path fill-rule="evenodd" clip-rule="evenodd" d="M37.2057 9.76196H39.6377L42.1743 21.3124H39.2631C39.2631 21.3124 38.9782 19.9853 38.8879 19.5797H34.8511C34.7343 19.8868 34.1912 21.3124 34.1912 21.3124H30.8921L35.5624 10.7203C35.8859 9.97068 36.4557 9.76196 37.2057 9.76196ZM37.012 13.9888C37.012 13.9888 36.0156 16.557 35.7567 17.2206H38.3701C38.2408 16.6431 37.6454 13.8783 37.6454 13.8783L37.4256 12.883C37.3331 13.1393 37.1993 13.4916 37.109 13.7293C37.0478 13.8904 37.0067 13.9988 37.012 13.9888Z" fill="#15195A"/>
<path fill-rule="evenodd" clip-rule="evenodd" d="M3.41235 9.76196H8.47102C9.1567 9.7863 9.71308 9.99518 9.89413 10.7329L10.9935 16.0398C10.9936 16.0402 10.9937 16.0406 10.9938 16.0409L11.3303 17.6384L14.4095 9.76196H17.7342L12.7921 21.3003H9.46723L6.66482 11.2639C5.69791 10.7269 4.59439 10.295 3.3606 9.99535L3.41235 9.76196Z" fill="#15195A"/>
</svg>
