<svg width="64" height="24" viewBox="0 0 64 24" fill="none" xmlns="http://www.w3.org/2000/svg">
<path d="M25.2181 0.571533H5.18815C3.63503 0.571533 2.64049 2.2174 3.36724 3.58567L5.37078 7.36748H1.7386C1.50858 7.36755 1.28248 7.42683 1.08219 7.53958C0.881899 7.65233 0.714217 7.81474 0.595381 8.01105C0.476545 8.20737 0.410584 8.43095 0.403887 8.66014C0.39719 8.88934 0.449983 9.11637 0.557154 9.31925L7.00156 21.4777C7.11517 21.6916 7.28509 21.8705 7.49307 21.9953C7.70104 22.1201 7.93919 22.186 8.18194 22.186C8.42469 22.186 8.66285 22.1201 8.87082 21.9953C9.07879 21.8705 9.24871 21.6916 9.36232 21.4777L11.1125 18.1935L13.3083 22.3372C14.0811 23.7947 16.1747 23.7973 16.9502 22.3415L26.9898 3.50933C27.6994 2.17736 26.7311 0.571533 25.2181 0.571533ZM16.2207 8.61776L11.8918 16.7398C11.8161 16.882 11.703 17.001 11.5647 17.084C11.4263 17.1669 11.2679 17.2108 11.1064 17.2108C10.9449 17.2108 10.7865 17.1669 10.6481 17.084C10.5097 17.001 10.3966 16.882 10.321 16.7398L6.0338 8.65193C5.96215 8.51708 5.92664 8.36607 5.93071 8.21353C5.93479 8.06099 5.97831 7.91208 6.05707 7.78122C6.13582 7.65037 6.24714 7.542 6.38024 7.46662C6.51334 7.39123 6.66371 7.35138 6.81679 7.35093H15.457C15.6063 7.35094 15.753 7.38944 15.8829 7.46271C16.0128 7.53597 16.1215 7.64149 16.1983 7.76902C16.2752 7.89654 16.3177 8.04173 16.3216 8.19045C16.3255 8.33918 16.2908 8.48639 16.2207 8.61776ZM46.5228 9.30804H44.3318V16.7932C44.3316 16.8614 44.3044 16.9268 44.256 16.975C44.2076 17.0232 44.1421 17.0504 44.0737 17.0505H42.384C42.3155 17.0504 42.25 17.0232 42.2016 16.975C42.1532 16.9268 42.126 16.8614 42.1258 16.7932V9.30804H39.922C39.8888 9.3094 39.8557 9.3041 39.8246 9.29245C39.7935 9.28081 39.7651 9.26306 39.741 9.24025C39.7169 9.21745 39.6977 9.19005 39.6844 9.1597C39.6712 9.12934 39.6642 9.09664 39.6638 9.06353V7.73958C39.6642 7.70647 39.6712 7.67377 39.6844 7.64341C39.6977 7.61305 39.7169 7.58566 39.741 7.56285C39.7651 7.54005 39.7935 7.5223 39.8246 7.51065C39.8557 7.49901 39.8888 7.49371 39.922 7.49507H46.5222C46.5906 7.49187 46.6575 7.51579 46.7083 7.56161C46.7591 7.60742 46.7896 7.6714 46.7932 7.73958V9.06406C46.7895 9.13205 46.759 9.19581 46.7083 9.2415C46.6577 9.28718 46.591 9.31109 46.5228 9.30804ZM53.5563 16.9966C53.1048 17.0606 52.3454 17.1637 50.9524 17.1637C49.2884 17.1637 47.8183 16.7393 47.8183 14.3994V10.1286C47.8183 7.78869 49.3018 7.37709 50.9653 7.37709C52.3577 7.37709 53.1048 7.48012 53.5563 7.54419C53.7368 7.56981 53.8144 7.63441 53.8144 7.8015V8.99893C53.8143 9.06714 53.7871 9.1325 53.7387 9.18073C53.6903 9.22896 53.6247 9.25611 53.5563 9.25625H50.8367C50.2305 9.25625 50.0114 9.46179 50.0114 10.1307V11.3009H53.4535C53.5219 11.301 53.5875 11.3282 53.6358 11.3764C53.6842 11.4247 53.7115 11.49 53.7116 11.5582V12.7797C53.7115 12.8479 53.6842 12.9132 53.6358 12.9615C53.5875 13.0097 53.5219 13.0369 53.4535 13.037H50.0114V14.3999C50.0114 15.0683 50.2305 15.2744 50.8367 15.2744H53.5563C53.6247 15.2745 53.6903 15.3017 53.7387 15.3499C53.7871 15.3981 53.8143 15.4635 53.8144 15.5317V16.7275C53.8144 16.8936 53.7368 16.971 53.5563 16.9966ZM63.288 17.0478H61.2373C61.0697 17.0478 60.992 16.9944 60.9021 16.8551L59.124 14.0412L57.513 16.7932C57.4225 16.9475 57.3325 17.0505 57.1917 17.0505H55.283C55.1539 17.0505 55.0896 16.9731 55.0896 16.8834C55.0921 16.8519 55.1008 16.8213 55.1153 16.7932L57.9093 12.1487L55.0864 7.73851C55.0721 7.71497 55.0633 7.6885 55.0607 7.6611C55.0653 7.61386 55.0879 7.57019 55.1239 7.5391C55.1599 7.50801 55.2065 7.49186 55.254 7.494H57.3304C57.4723 7.494 57.5757 7.62266 57.6517 7.73851L59.3018 10.3357L60.8988 7.73851C60.9631 7.62266 61.0793 7.494 61.2202 7.494H63.1289C63.1765 7.49186 63.2231 7.50801 63.259 7.5391C63.295 7.57019 63.3176 7.61386 63.3223 7.6611C63.3197 7.6885 63.3109 7.71497 63.2966 7.73851L60.4875 12.1759L63.4171 16.7932C63.4399 16.8324 63.4531 16.8765 63.4556 16.9218C63.4562 16.9966 63.3914 17.0478 63.288 17.0478ZM36.5726 7.5207C36.5265 7.52082 36.4819 7.53684 36.4464 7.56604C36.4108 7.59524 36.3866 7.63581 36.3776 7.68085L34.5053 14.5884C34.4796 14.7298 34.441 14.7811 34.3248 14.7811C34.2086 14.7811 34.1701 14.7277 34.1443 14.5884L32.2699 7.67925C32.261 7.63421 32.2367 7.59363 32.2011 7.56444C32.1656 7.53524 32.121 7.51921 32.0749 7.51909H30.2321C30.2021 7.51913 30.1725 7.5259 30.1455 7.5389C30.1186 7.55191 30.0949 7.57081 30.0762 7.59421C30.0576 7.61761 30.0445 7.64489 30.0379 7.67404C30.0313 7.70318 30.0314 7.73343 30.0382 7.76253C30.0382 7.76253 32.325 15.6844 32.3502 15.7623C32.6555 16.7062 33.3962 17.1573 34.3388 17.1573C35.2364 17.1573 36.0199 16.6848 36.3262 15.765C36.3626 15.6582 38.5986 7.762 38.5986 7.762C38.6053 7.73293 38.6053 7.70274 38.5987 7.67367C38.592 7.64459 38.5789 7.61738 38.5603 7.59404C38.5417 7.57071 38.518 7.55186 38.4911 7.53888C38.4642 7.52591 38.4346 7.51914 38.4047 7.51909L36.5726 7.5207Z" fill="#F71963"/>
<path d="M25.2181 0.571533H5.18815C3.63502 0.571533 2.64049 2.2174 3.36724 3.58567L5.37078 7.36748H1.7386C1.50858 7.36755 1.28248 7.42683 1.08219 7.53958C0.881899 7.65233 0.714217 7.81474 0.595381 8.01105C0.476545 8.20737 0.410584 8.43095 0.403887 8.66014C0.39719 8.88934 0.449983 9.11637 0.557154 9.31925L7.00156 21.4777C7.11517 21.6916 7.28509 21.8705 7.49306 21.9953C7.70104 22.1201 7.93919 22.186 8.18194 22.186C8.42469 22.186 8.66284 22.1201 8.87082 21.9953C9.07879 21.8705 9.24871 21.6916 9.36232 21.4777L11.1125 18.1935L13.3083 22.3372C14.0811 23.7947 16.1747 23.7973 16.9501 22.3415L26.9898 3.50933C27.6994 2.17736 26.7311 0.571533 25.2181 0.571533ZM16.2207 8.61776L11.8918 16.7398C11.8161 16.882 11.703 17.001 11.5647 17.084C11.4263 17.1669 11.2679 17.2108 11.1064 17.2108C10.9449 17.2108 10.7865 17.1669 10.6481 17.084C10.5097 17.001 10.3966 16.882 10.321 16.7398L6.0338 8.65193C5.96215 8.51708 5.92664 8.36607 5.93071 8.21353C5.93479 8.06099 5.97831 7.91208 6.05707 7.78122C6.13582 7.65037 6.24713 7.542 6.38024 7.46662C6.51334 7.39123 6.66371 7.35138 6.81679 7.35093H15.457C15.6063 7.35094 15.753 7.38944 15.8829 7.46271C16.0128 7.53597 16.1215 7.64149 16.1983 7.76902C16.2752 7.89654 16.3177 8.04173 16.3216 8.19045C16.3255 8.33918 16.2908 8.48639 16.2207 8.61776Z" fill="#F71963"/>
</svg>
