<svg width="21" height="21" viewBox="0 0 21 21" fill="none" xmlns="http://www.w3.org/2000/svg">
<path d="M1.61108 19.4415L2.86758 14.8787C2.09076 13.5395 1.68325 12.0228 1.68749 10.4723C1.68749 5.61384 5.66075 1.6637 10.5382 1.6637C12.9068 1.6637 15.1312 2.58047 16.7994 4.24502C18.4719 5.90958 19.3931 8.12335 19.3888 10.4765C19.3888 15.335 15.4156 19.2852 10.5339 19.2852H10.5297C9.0482 19.2852 7.59219 18.9134 6.29749 18.2121L1.61108 19.4415ZM6.52247 16.6193L6.7899 16.7799C7.91905 17.4474 9.21375 17.798 10.5339 17.8023H10.5382C14.5921 17.8023 17.8946 14.5196 17.8946 10.4808C17.8946 8.5247 17.1305 6.68693 15.7425 5.30121C14.3544 3.91549 12.5036 3.15504 10.5382 3.15504C6.48426 3.15081 3.18171 6.43345 3.18171 10.4723C3.18171 11.8538 3.568 13.2015 4.30661 14.3675L4.48066 14.6464L3.73779 17.346L6.52247 16.6193Z" fill="#E2211D"/>
<path d="M8.40638 6.48153L8.40633 6.4814C8.32042 6.27488 8.22587 6.15306 8.11844 6.08565C8.0108 6.01811 7.90428 6.01501 7.82687 6.01275L7.82612 6.01273C7.69847 6.00815 7.55021 6.00815 7.40432 6.00815H7.40311C7.23064 6.00815 6.96643 6.0771 6.74369 6.33714C6.73174 6.35109 6.71847 6.36628 6.70408 6.38274C6.47372 6.64637 5.95566 7.23924 5.95566 8.37C5.95566 8.96997 6.15849 9.55537 6.37134 10.0067C6.57921 10.4474 6.8002 10.7676 6.86273 10.8582C6.86441 10.8606 6.86598 10.8629 6.86743 10.865C6.87443 10.8752 6.88812 10.8971 6.90826 10.9294C7.03103 11.1261 7.39393 11.7076 7.94992 12.3581C8.59736 13.1157 9.516 13.9791 10.6465 14.4604C11.5733 14.8554 12.1387 15.0164 12.5263 15.0719C12.8443 15.1174 13.0432 15.0913 13.2093 15.0694C13.2474 15.0644 13.2837 15.0596 13.3194 15.056C13.5435 15.0331 13.8835 14.8795 14.1854 14.6693C14.4871 14.4593 14.7788 14.1734 14.8816 13.8664L14.8818 13.8657C14.9746 13.5821 15.0212 13.3187 15.0376 13.1119C15.0457 13.0086 15.0465 12.918 15.0412 12.8452C15.0362 12.7775 15.0253 12.7101 15.0004 12.6647C14.9594 12.5899 14.8886 12.5389 14.8151 12.4955C14.7703 12.469 14.7153 12.4404 14.6555 12.4094C14.6185 12.3901 14.5797 12.37 14.5404 12.3488C14.4308 12.2897 14.1071 12.1176 13.7857 11.95C13.4672 11.784 13.1425 11.6181 13.036 11.5751L13.036 11.575L13.0342 11.5743C12.9374 11.5374 12.8272 11.4972 12.719 11.5102C12.5986 11.5248 12.5032 11.5998 12.4223 11.7329C12.2789 11.9624 11.8643 12.4853 11.7366 12.646C11.6827 12.7137 11.6398 12.7368 11.5997 12.7419C11.5551 12.7476 11.4906 12.7343 11.3879 12.679C11.3501 12.6586 11.2996 12.635 11.2379 12.6061C10.9283 12.4612 10.337 12.1846 9.65109 11.5234L9.65092 11.5232C9.01166 10.9099 8.57682 10.1473 8.45253 9.91514C8.40021 9.8174 8.40349 9.75595 8.41899 9.7112C8.43726 9.65844 8.47742 9.61206 8.53422 9.55085C8.59881 9.48124 8.67681 9.37925 8.75156 9.28152C8.79158 9.2292 8.83067 9.1781 8.86626 9.13384C8.97102 9.00357 9.01679 8.90062 9.07402 8.77188C9.08168 8.75466 9.08954 8.73698 9.09778 8.7187C9.18577 8.52346 9.14151 8.35528 9.08053 8.22387L9.08054 8.22386L9.07988 8.2225C9.057 8.17507 8.95446 7.90441 8.82878 7.57267C8.81845 7.54542 8.80797 7.51775 8.79737 7.48976C8.65959 7.1262 8.50365 6.71625 8.40638 6.48153Z" fill="#E2211D" stroke="#E2211D" stroke-width="0.2"/>
</svg>
