<svg width="25" height="25" viewBox="0 0 25 25" fill="none" xmlns="http://www.w3.org/2000/svg">
<rect x="0.5" y="0.552612" width="24" height="24" rx="6" fill="#E2211D"/>
<path fill-rule="evenodd" clip-rule="evenodd" d="M18.1784 7.35298C18.8505 7.53543 19.3805 8.06973 19.5615 8.74737C19.8975 9.98538 19.8846 12.5657 19.8846 12.5657C19.8846 12.5657 19.8846 15.1329 19.5615 16.3709C19.3805 17.0486 18.8505 17.5828 18.1784 17.7653C16.9504 18.0911 12.0385 18.0911 12.0385 18.0911C12.0385 18.0911 7.13952 18.0911 5.89862 17.7523C5.22647 17.5698 4.6965 17.0355 4.51553 16.3579C4.19238 15.1329 4.19238 12.5526 4.19238 12.5526C4.19238 12.5526 4.19238 9.98538 4.51553 8.74737C4.6965 8.06973 5.23939 7.5224 5.89862 7.33995C7.1266 7.01416 12.0385 7.01416 12.0385 7.01416C12.0385 7.01416 16.9504 7.01416 18.1784 7.35298ZM14.5594 12.5526L10.4745 14.9245V10.1807L14.5594 12.5526Z" fill="white"/>
</svg>
