<svg width="30" height="31" viewBox="0 0 30 31" fill="none" xmlns="http://www.w3.org/2000/svg">
<rect y="0.777832" width="30" height="30" rx="15" fill="#E2211D"/>
<path fill-rule="evenodd" clip-rule="evenodd" d="M21.5213 10.3013C22.2353 10.4935 22.7982 11.0564 22.9904 11.7704C23.3473 13.0747 23.3336 15.7931 23.3336 15.7931C23.3336 15.7931 23.3336 18.4978 22.9904 19.8021C22.7982 20.516 22.2353 21.079 21.5213 21.2712C20.217 21.6144 14.9998 21.6144 14.9998 21.6144C14.9998 21.6144 9.79634 21.6144 8.47831 21.2574C7.76437 21.0652 7.20147 20.5023 7.00925 19.7884C6.66602 18.4978 6.66602 15.7794 6.66602 15.7794C6.66602 15.7794 6.66602 13.0747 7.00925 11.7704C7.20147 11.0564 7.7781 10.4798 8.47831 10.2876C9.78261 9.94434 14.9998 9.94434 14.9998 9.94434C14.9998 9.94434 20.217 9.94434 21.5213 10.3013ZM17.6768 15.7794L13.3382 18.2782V13.2806L17.6768 15.7794Z" fill="white"/>
</svg>
