<svg width="47" height="17" viewBox="0 0 47 17" fill="none" xmlns="http://www.w3.org/2000/svg">
<path d="M42.9266 16.1542L43.5068 15.2693H43.2138L42.7977 15.9198L42.3875 15.2693H42.0827L42.6688 16.1601V16.7402H42.9266V16.1542ZM42.0886 16.5351V15.9198H41.4615V16.1425H41.8366V16.4179C41.7897 16.4531 41.737 16.4824 41.6784 16.5C41.6139 16.5234 41.5494 16.5293 41.485 16.5293C41.4146 16.5293 41.3443 16.5175 41.2799 16.4882C41.2213 16.4648 41.1685 16.4238 41.1216 16.3769C41.0747 16.33 41.0396 16.2714 41.022 16.2069C40.9986 16.1425 40.9868 16.0663 40.9868 15.996C40.9868 15.9256 40.9986 15.8612 41.022 15.7967C41.0454 15.7381 41.0806 15.6795 41.1216 15.6326C41.1627 15.5857 41.2154 15.5447 41.274 15.5213C41.3326 15.492 41.3971 15.4803 41.4615 15.4803C41.5025 15.4803 41.5436 15.4861 41.5905 15.492C41.6256 15.4978 41.6608 15.5096 41.6959 15.5213C41.7252 15.533 41.7604 15.5506 41.7897 15.5682C41.819 15.5857 41.8483 15.6092 41.8776 15.6326L42.0417 15.4392C42.0065 15.4099 41.9655 15.3806 41.9245 15.3513C41.8835 15.3279 41.8424 15.3045 41.7956 15.2869C41.7487 15.2693 41.7018 15.2576 41.6491 15.2459C41.5905 15.2341 41.5319 15.2341 41.4732 15.2341C41.3678 15.2341 41.2623 15.2517 41.1685 15.2927C40.9868 15.3689 40.8462 15.5154 40.77 15.6971C40.7349 15.7909 40.7114 15.8905 40.7114 15.9901C40.7114 16.0956 40.729 16.1952 40.7642 16.289C40.8345 16.4707 40.9751 16.6172 41.1568 16.6875C41.2564 16.7285 41.3619 16.7461 41.4674 16.7461C41.5319 16.7461 41.5905 16.7402 41.6549 16.7285C41.7663 16.7051 41.8659 16.664 41.9597 16.6054C42.0065 16.5996 42.0476 16.5703 42.0886 16.5351ZM40.3246 16.0077C40.3246 16.078 40.3129 16.1425 40.2895 16.2128C40.266 16.2714 40.2309 16.33 40.1898 16.3769C40.143 16.4238 40.0902 16.4648 40.0316 16.4882C39.8382 16.5703 39.6155 16.5234 39.4749 16.371C39.428 16.3241 39.3987 16.2655 39.3753 16.2069C39.3284 16.078 39.3284 15.9315 39.3753 15.8026C39.3987 15.744 39.4339 15.6854 39.4749 15.6385C39.5218 15.5916 39.5745 15.5506 39.6331 15.5271C39.762 15.4744 39.9086 15.4744 40.0316 15.5271C40.0902 15.5564 40.143 15.5916 40.1898 15.6385C40.2367 15.6854 40.2719 15.744 40.2953 15.8026C40.3129 15.867 40.3246 15.9374 40.3246 16.0077ZM40.5942 16.0077C40.5942 15.9081 40.5766 15.8084 40.5356 15.7147C40.4653 15.533 40.3188 15.3865 40.1371 15.3103C40.0375 15.2693 39.932 15.2517 39.8265 15.2517C39.6214 15.2459 39.4163 15.3279 39.2698 15.4803C39.1995 15.5506 39.1467 15.6326 39.1116 15.7205C39.0354 15.9081 39.0354 16.119 39.1116 16.3066C39.1819 16.4882 39.3284 16.6347 39.5101 16.7109C39.6097 16.7519 39.7152 16.7695 39.8206 16.7695C40.0258 16.7754 40.2309 16.6933 40.3774 16.541C40.4477 16.4707 40.5004 16.3886 40.5356 16.3007C40.5766 16.2069 40.5942 16.1073 40.5942 16.0077ZM38.045 16.7402H39.0705V16.5058H38.297V15.2693H38.0391V16.7402H38.045ZM37.5879 16.0077C37.5879 16.078 37.5762 16.1425 37.5527 16.2128C37.5293 16.2714 37.4941 16.33 37.4531 16.3769C37.4062 16.4238 37.3535 16.4648 37.2949 16.4882C37.1015 16.5703 36.8788 16.5234 36.7381 16.371C36.6912 16.3241 36.6561 16.2655 36.6326 16.2069C36.5858 16.078 36.5858 15.9315 36.6326 15.8026C36.6561 15.744 36.6913 15.6854 36.7323 15.6385C36.7792 15.5916 36.8319 15.5506 36.8905 15.5271C37.0194 15.4744 37.1659 15.4744 37.289 15.5271C37.3476 15.5564 37.4003 15.5916 37.4472 15.6385C37.4941 15.6854 37.5293 15.744 37.5527 15.8026C37.5762 15.867 37.5879 15.9374 37.5879 16.0077ZM37.8574 16.0018C37.8574 15.9022 37.8399 15.8026 37.7988 15.7088C37.7285 15.5271 37.582 15.3806 37.4003 15.3045C37.3007 15.2634 37.1952 15.2459 37.0898 15.2459C36.8846 15.24 36.6795 15.322 36.533 15.4744C36.4627 15.5447 36.41 15.6268 36.3748 15.7147C36.2986 15.9022 36.2986 16.1132 36.3748 16.3007C36.4451 16.4824 36.5916 16.6289 36.7733 16.7051C36.8729 16.7461 36.9784 16.7637 37.0839 16.7637C37.289 16.7695 37.4941 16.6875 37.6406 16.5351C37.7109 16.4648 37.7637 16.3827 37.7988 16.2948C37.8399 16.2069 37.8574 16.1073 37.8574 16.0018ZM35.8825 16.289L35.0973 15.2752H34.857V16.7402H35.1148V15.6971L35.9235 16.7402H36.1404V15.2752H35.8825V16.289ZM34.3589 16.119V16.7344H34.6167V15.2693H34.3589V15.8788H33.6556V15.2693H33.3978V16.7344H33.6556V16.119H34.3589ZM33.2571 16.5058L33.093 16.3359C33.0344 16.3886 32.97 16.4355 32.8996 16.4765C32.8293 16.5117 32.7473 16.5293 32.6711 16.5293C32.6066 16.5293 32.5363 16.5175 32.4777 16.4882C32.4191 16.4589 32.3664 16.4238 32.3253 16.3769C32.2785 16.33 32.2491 16.2714 32.2257 16.2128C32.2023 16.1483 32.1905 16.078 32.1905 16.0077C32.1905 15.9374 32.2023 15.867 32.2257 15.8026C32.2491 15.744 32.2843 15.6854 32.3253 15.6385C32.3664 15.5916 32.4191 15.5564 32.4777 15.5271C32.5363 15.4978 32.6066 15.4861 32.6711 15.4861C32.7473 15.4861 32.8235 15.5037 32.8938 15.5389C32.9641 15.574 33.0227 15.6209 33.0813 15.6737L33.2454 15.4803C33.2102 15.4451 33.1751 15.4158 33.1341 15.3924C33.093 15.3631 33.052 15.3396 33.0051 15.322C32.9582 15.2986 32.9055 15.2869 32.8528 15.2752C32.7942 15.2634 32.7297 15.2576 32.6711 15.2576C32.5656 15.2576 32.4601 15.2752 32.3664 15.3162C32.1847 15.3924 32.044 15.5389 31.9737 15.7205C31.8975 15.9139 31.8975 16.1249 31.9737 16.3124C32.0089 16.4003 32.0616 16.4824 32.1319 16.5527C32.1964 16.623 32.2785 16.6758 32.3664 16.7109C32.4601 16.7519 32.5597 16.7695 32.6652 16.7695C32.7297 16.7695 32.7883 16.7637 32.8528 16.7519C32.9055 16.7402 32.9582 16.7226 33.011 16.6992C33.0579 16.6758 33.1048 16.6465 33.1458 16.6172C33.1809 16.582 33.2161 16.5468 33.2571 16.5058ZM31.792 15.2752H30.7079V16.7402H31.8038V16.5058H30.9599V16.1132H31.6983V15.8788H30.9599V15.5037H31.7862L31.792 15.2752ZM30.0926 15.5154H30.5555V15.2752H29.3659V15.5154H29.8288V16.7461H30.0867L30.0926 15.5154ZM28.188 16.4179C28.1469 16.4589 28.1059 16.4882 28.0532 16.5117C28.0063 16.5351 27.9594 16.5468 27.9067 16.5468C27.8422 16.5527 27.7777 16.5293 27.7309 16.4882C27.684 16.4472 27.6605 16.3945 27.6605 16.3359C27.6605 16.289 27.6781 16.2362 27.7074 16.2011C27.7484 16.1542 27.7953 16.1132 27.8539 16.0956L28.188 16.4179ZM28.1821 15.6209C28.1821 15.6737 28.1645 15.7205 28.1235 15.7557C28.0708 15.7967 28.0122 15.8319 27.9536 15.8495C27.9184 15.8143 27.8891 15.7733 27.8657 15.7323C27.8481 15.6971 27.8422 15.6619 27.8422 15.6268C27.8422 15.5799 27.8598 15.533 27.8891 15.4978C27.9594 15.4334 28.0649 15.4334 28.1352 15.492C28.1645 15.5271 28.1821 15.574 28.1821 15.6209ZM28.7213 16.6347L28.4927 16.4003C28.5337 16.3476 28.5689 16.2948 28.5982 16.2362C28.6333 16.1776 28.6627 16.119 28.692 16.0604L28.4986 15.9549C28.4751 16.0077 28.4517 16.0546 28.4224 16.1015C28.3931 16.1483 28.3696 16.1952 28.3403 16.2362L28.0883 15.9784C28.1762 15.9491 28.2583 15.8963 28.3228 15.8319C28.3814 15.7674 28.4165 15.6795 28.4107 15.5916C28.4107 15.5447 28.3989 15.4978 28.3814 15.451C28.3638 15.4099 28.3345 15.3689 28.2993 15.3396C28.2641 15.3045 28.2231 15.281 28.1762 15.2634C28.1235 15.2459 28.0708 15.2341 28.018 15.2341C27.9594 15.2341 27.9008 15.2459 27.8422 15.2634C27.7953 15.281 27.7484 15.3103 27.7074 15.3455C27.6723 15.3806 27.643 15.4158 27.6254 15.4627C27.6078 15.5096 27.5961 15.5564 27.5961 15.6033C27.5961 15.6561 27.6078 15.7088 27.6254 15.7557C27.6488 15.8084 27.6781 15.8612 27.7191 15.9081C27.6312 15.9432 27.5492 16.0018 27.4847 16.0722C27.432 16.1425 27.4027 16.2304 27.4027 16.3183C27.4027 16.4355 27.4496 16.5468 27.5375 16.623C27.5844 16.6582 27.6312 16.6875 27.6898 16.7109C27.7484 16.7285 27.8129 16.7402 27.8774 16.7402C27.9594 16.7402 28.0473 16.7226 28.1235 16.6875C28.1997 16.6523 28.27 16.6054 28.3286 16.5468L28.522 16.7461L28.7213 16.6347ZM26.676 16.541V15.9198H26.049V16.1425H26.424V16.4179C26.3771 16.4531 26.3244 16.4824 26.2658 16.5C26.2013 16.5234 26.1369 16.5293 26.0665 16.5293C25.9962 16.5293 25.9259 16.5175 25.8614 16.4882C25.8028 16.4648 25.7501 16.4238 25.7032 16.3769C25.6563 16.33 25.6212 16.2714 25.6036 16.2069C25.5801 16.1425 25.5684 16.0663 25.5684 15.996C25.5684 15.9256 25.5801 15.8612 25.6036 15.7967C25.627 15.7381 25.6622 15.6795 25.7032 15.6326C25.7442 15.5857 25.797 15.5447 25.8556 15.5213C25.9142 15.492 25.9786 15.4803 26.0431 15.4803C26.0841 15.4803 26.1251 15.4861 26.172 15.492C26.2072 15.4978 26.2423 15.5096 26.2775 15.5213C26.3068 15.533 26.342 15.5506 26.3713 15.5682C26.4006 15.5857 26.4299 15.6092 26.4592 15.6326L26.6233 15.4392C26.5881 15.4099 26.5471 15.3806 26.5061 15.3513C26.465 15.3279 26.424 15.3045 26.3771 15.2869C26.3303 15.2693 26.2834 15.2576 26.2306 15.2459C26.172 15.2341 26.1134 15.2341 26.0548 15.2341C25.9493 15.2341 25.8438 15.2517 25.7501 15.2927C25.5684 15.3689 25.4278 15.5154 25.3516 15.6971C25.3164 15.7909 25.293 15.8905 25.293 15.9901C25.293 16.0956 25.3106 16.1952 25.3457 16.289C25.416 16.4707 25.5567 16.6172 25.7384 16.6875C25.838 16.7285 25.9435 16.7461 26.049 16.7461C26.1134 16.7461 26.172 16.7402 26.2306 16.7285C26.342 16.7051 26.4416 16.664 26.5354 16.6054C26.5998 16.5996 26.6408 16.5703 26.676 16.541ZM24.8652 16.289L24.0799 15.2752H23.8396V16.7402H24.0975V15.6971L24.9062 16.7402H25.123V15.2752H24.8652V16.289ZM23.3181 15.2752V16.7402H23.5759V15.2752H23.3181ZM22.6969 15.5154H23.1598V15.2752H21.9702V15.5154H22.4332V16.7461H22.691V15.5154H22.6969ZM21.1146 16.7461H22.1401V16.5117H21.3724V15.2752H21.1146V16.7461ZM20.886 15.281H20.6282V16.1249C20.634 16.2362 20.5989 16.3417 20.5286 16.4238C20.4582 16.4941 20.3586 16.5293 20.259 16.5293C20.1535 16.5351 20.0539 16.4941 19.9836 16.4238C19.9132 16.3359 19.8781 16.2245 19.8839 16.1132V15.281H19.6261V16.1249C19.6261 16.2187 19.6378 16.3124 19.673 16.4062C19.7023 16.4824 19.7433 16.5527 19.796 16.6113C19.8488 16.664 19.9191 16.7109 19.9953 16.7344C20.0773 16.7637 20.1652 16.7754 20.2531 16.7754C20.341 16.7754 20.4289 16.7637 20.5168 16.7344C20.593 16.7109 20.6575 16.664 20.7161 16.6113C20.7747 16.5527 20.8157 16.4824 20.845 16.4062C20.8743 16.3124 20.8919 16.2187 20.8919 16.119V15.281H20.886ZM18.6591 15.6561C18.6591 15.6092 18.6826 15.5623 18.7236 15.533C18.7763 15.4978 18.8349 15.4803 18.8994 15.4803C18.9697 15.4803 19.0342 15.492 19.0987 15.5213C19.169 15.5506 19.2393 15.5857 19.2979 15.6326L19.4385 15.4392C19.3682 15.3806 19.2862 15.3338 19.1983 15.3045C19.1045 15.2693 19.0049 15.2576 18.9053 15.2576C18.8349 15.2576 18.7705 15.2693 18.706 15.2869C18.6474 15.3045 18.5947 15.3338 18.5478 15.3748C18.5068 15.4099 18.4716 15.4568 18.4423 15.5096C18.4189 15.5623 18.4013 15.6268 18.4071 15.6854C18.4071 15.744 18.4189 15.8084 18.4364 15.8612C18.4599 15.9081 18.4892 15.9491 18.5302 15.9842C18.5771 16.0194 18.6298 16.0487 18.6826 16.0663C18.7529 16.0897 18.8232 16.1073 18.8935 16.1249C18.9521 16.1366 19.0049 16.1542 19.0635 16.1718C19.0987 16.1835 19.1338 16.2011 19.1631 16.2187C19.1866 16.2304 19.2041 16.2538 19.2159 16.2773C19.2276 16.3007 19.2276 16.3241 19.2276 16.3476C19.2276 16.4003 19.2041 16.4531 19.1573 16.4824C19.0987 16.5175 19.0342 16.5351 18.9697 16.5351C18.8818 16.5351 18.7998 16.5175 18.7236 16.4882C18.6474 16.4531 18.5712 16.4062 18.5068 16.3476L18.3544 16.5293C18.4364 16.6054 18.5361 16.664 18.6415 16.7051C18.747 16.7461 18.8584 16.7637 18.9639 16.7637C19.0342 16.7637 19.1045 16.7519 19.1748 16.7344C19.2334 16.7168 19.292 16.6875 19.3389 16.6465C19.3858 16.6113 19.421 16.5644 19.4444 16.5058C19.4737 16.4472 19.4854 16.3827 19.4854 16.3183C19.4854 16.2655 19.4737 16.2069 19.4561 16.1601C19.4327 16.1132 19.4034 16.0722 19.3682 16.0429C19.3213 16.0077 19.2745 15.9784 19.2217 15.9549C19.1573 15.9315 19.0869 15.9081 19.0166 15.8905C18.9463 15.8729 18.8877 15.8553 18.8408 15.8436C18.8056 15.8319 18.7646 15.8143 18.7353 15.7909C18.7119 15.7791 18.6943 15.7557 18.6826 15.7323C18.6591 15.7088 18.6533 15.6854 18.6591 15.6561ZM17.9383 16.289L17.153 15.2752H16.9128V16.7402H17.1706V15.6971L17.9793 16.7402H18.1962V15.2752H17.9383V16.289ZM16.4615 16.0077C16.4615 16.078 16.4498 16.1425 16.4264 16.2128C16.4029 16.2714 16.3678 16.33 16.3267 16.3769C16.2799 16.4238 16.2271 16.4648 16.1685 16.4882C15.9751 16.5703 15.7524 16.5234 15.6118 16.371C15.5649 16.3241 15.5297 16.2655 15.5063 16.2069C15.4594 16.078 15.4594 15.9315 15.5063 15.8026C15.5297 15.744 15.5649 15.6854 15.6059 15.6385C15.6528 15.5916 15.7055 15.5506 15.7641 15.5271C15.8931 15.4744 16.0396 15.4744 16.1685 15.5271C16.2271 15.5564 16.2799 15.5916 16.3267 15.6385C16.3736 15.6854 16.4088 15.744 16.4322 15.8026C16.4498 15.867 16.4615 15.9374 16.4615 16.0077ZM16.7311 16.0018C16.7311 15.9022 16.7135 15.8026 16.6725 15.7088C16.6022 15.5271 16.4557 15.3806 16.274 15.3045C16.1744 15.2634 16.0689 15.2459 15.9634 15.2459C15.7583 15.24 15.5532 15.322 15.4067 15.4744C15.3363 15.5447 15.2836 15.6268 15.2484 15.7147C15.1723 15.9022 15.1723 16.1132 15.2484 16.3007C15.3188 16.4824 15.4653 16.6289 15.6469 16.7051C15.7466 16.7461 15.852 16.7637 15.9575 16.7637C16.1626 16.7695 16.3678 16.6875 16.5143 16.5351C16.5846 16.4648 16.6373 16.3827 16.6725 16.2948C16.7135 16.2069 16.7311 16.1073 16.7311 16.0018ZM15.1605 16.5058L14.9964 16.3359C14.9378 16.3886 14.8734 16.4355 14.8031 16.4765C14.7327 16.5117 14.6507 16.5293 14.5745 16.5293C14.51 16.5293 14.4397 16.5175 14.3811 16.4882C14.3225 16.4589 14.2698 16.4238 14.2287 16.3769C14.1877 16.33 14.1526 16.2714 14.1291 16.2069C14.1057 16.1425 14.094 16.0722 14.094 16.0018C14.094 15.9315 14.1057 15.8612 14.1291 15.7967C14.1526 15.7381 14.1877 15.6795 14.2287 15.6326C14.2698 15.5857 14.3225 15.5506 14.3811 15.5213C14.4397 15.492 14.51 15.4803 14.5745 15.4803C14.6507 15.4803 14.7269 15.4978 14.7972 15.533C14.8675 15.5682 14.9261 15.615 14.9847 15.6678L15.1488 15.4744C15.1137 15.4392 15.0785 15.4099 15.0375 15.3806C14.9964 15.3513 14.9554 15.3279 14.9085 15.3103C14.8617 15.2869 14.8089 15.2752 14.7562 15.2634C14.6976 15.2517 14.6331 15.2459 14.5745 15.2459C14.469 15.2459 14.3635 15.2634 14.2698 15.3045C14.0881 15.3806 13.9475 15.5271 13.8771 15.7088C13.8009 15.9022 13.8009 16.1132 13.8771 16.3007C13.9123 16.3886 13.965 16.4707 14.0354 16.541C14.0998 16.6113 14.1819 16.664 14.2698 16.6992C14.3635 16.7402 14.4632 16.7578 14.5686 16.7578C14.6331 16.7578 14.6917 16.7519 14.7562 16.7402C14.8089 16.7285 14.8617 16.7109 14.9144 16.6875C14.9613 16.664 15.0082 16.6347 15.0492 16.6054C15.0902 16.5761 15.1254 16.541 15.1605 16.5058ZM12.623 16.1601H12.119L12.371 15.574L12.623 16.1601ZM12.4941 15.2634H12.2538L11.6092 16.7402H11.8729L12.0253 16.3886H12.7168L12.8633 16.7402H13.1329L12.4941 15.2634ZM10.5661 16.7402H11.5916V16.5058H10.8181V15.2752H10.5602L10.5661 16.7402ZM10.3375 15.2752H10.0797V16.119C10.0855 16.2304 10.0504 16.3417 9.98004 16.4238C9.90971 16.4941 9.81009 16.5293 9.71046 16.5293C9.60498 16.5351 9.50535 16.4941 9.43503 16.4238C9.36471 16.3359 9.32954 16.2245 9.3354 16.1132V15.2752H9.07755V16.119C9.07755 16.2128 9.08927 16.3066 9.12443 16.4003C9.15373 16.4765 9.19476 16.5468 9.2475 16.6054C9.30024 16.6582 9.37057 16.7051 9.44675 16.7285C9.52879 16.7578 9.6167 16.7695 9.7046 16.7695C9.79251 16.7695 9.88041 16.7578 9.96246 16.7285C10.0386 16.7051 10.1031 16.6582 10.1617 16.6054C10.2203 16.5468 10.2613 16.4765 10.2906 16.4003C10.3199 16.3066 10.3375 16.2128 10.3375 16.1132V15.2752ZM8.70835 15.7733C8.70835 15.8495 8.67905 15.9198 8.62045 15.9667C8.55598 16.0194 8.46808 16.0429 8.38604 16.037H8.08716V15.5037H8.38604C8.46808 15.4978 8.55012 15.5213 8.61459 15.5682C8.67905 15.6209 8.71421 15.6912 8.70835 15.7733ZM8.97206 15.7674C8.97206 15.6971 8.96034 15.6268 8.93104 15.5623C8.9076 15.5037 8.86658 15.451 8.8197 15.4099C8.76696 15.3631 8.70835 15.3338 8.64389 15.3103C8.56771 15.2869 8.49152 15.2752 8.40948 15.2752H7.82931V16.7402H8.08716V16.2714H8.38018C8.45636 16.2714 8.53254 16.2597 8.60873 16.2421C8.67905 16.2245 8.73765 16.1894 8.79626 16.1483C8.849 16.1073 8.89002 16.0546 8.91932 15.9901C8.95448 15.9139 8.97206 15.8377 8.97206 15.7674ZM7.60662 15.2752H7.34876V16.119C7.35462 16.2304 7.31946 16.3417 7.24914 16.4238C7.17882 16.4941 7.07919 16.5293 6.97957 16.5293C6.87408 16.5351 6.77446 16.4941 6.70413 16.4238C6.63381 16.3359 6.59865 16.2245 6.60451 16.1132V15.2752H6.35251V16.119C6.35251 16.2128 6.36424 16.3066 6.3994 16.4003C6.4287 16.4765 6.46972 16.5468 6.52246 16.6054C6.57521 16.6582 6.64553 16.7051 6.72171 16.7285C6.80376 16.7578 6.89166 16.7695 6.97957 16.7695C7.06747 16.7695 7.15537 16.7578 7.23742 16.7285C7.3136 16.7051 7.37807 16.6582 7.43667 16.6054C7.49527 16.5468 7.53629 16.4765 7.56559 16.4003C7.5949 16.3066 7.61248 16.2128 7.61248 16.1132L7.60662 15.2752ZM6.23531 16.5058L6.07122 16.3359C6.01262 16.3886 5.94815 16.4355 5.87783 16.4765C5.80751 16.5117 5.72546 16.5293 5.64928 16.5293C5.58482 16.5293 5.51449 16.5175 5.45589 16.4882C5.39729 16.4589 5.34454 16.4238 5.30352 16.3769C5.25664 16.33 5.22734 16.2714 5.2039 16.2128C5.18046 16.1483 5.16874 16.078 5.16874 16.0077C5.16874 15.9374 5.18046 15.867 5.2039 15.8026C5.22734 15.744 5.2625 15.6854 5.30352 15.6385C5.34454 15.5916 5.39729 15.5564 5.45589 15.5271C5.51449 15.4978 5.58482 15.4861 5.64928 15.4861C5.72546 15.4861 5.80165 15.5037 5.87197 15.5389C5.94229 15.574 6.0009 15.6209 6.0595 15.6737L6.22359 15.4803C6.18843 15.4451 6.15326 15.4158 6.11224 15.3865C6.07122 15.3572 6.0302 15.3338 5.98332 15.3162C5.93643 15.2927 5.88369 15.281 5.83095 15.2693C5.77235 15.2576 5.70788 15.2517 5.64928 15.2517C5.54379 15.2517 5.43831 15.2693 5.34454 15.3103C5.16288 15.3865 5.02223 15.533 4.9519 15.7147C4.87572 15.9081 4.87572 16.119 4.9519 16.3066C4.98707 16.3945 5.03981 16.4765 5.11013 16.5468C5.1746 16.6172 5.25664 16.6699 5.34454 16.7051C5.43831 16.7461 5.53793 16.7637 5.64342 16.7637C5.70788 16.7637 5.76648 16.7578 5.83095 16.7461C5.88369 16.7344 5.93643 16.7168 5.98918 16.6933C6.03606 16.6699 6.08294 16.6406 6.12396 16.6113C6.15913 16.582 6.20015 16.5468 6.23531 16.5058ZM4.4069 16.1601H3.89705L4.14904 15.574L4.4069 16.1601ZM4.27797 15.2634H4.0377L3.39307 16.7402H3.65678L3.80915 16.3886H4.50066L4.64717 16.7402H4.9226L4.27797 15.2634Z" fill="#070308"/>
<path d="M42.6921 2.734H46.6009V0.694615H36.6033V2.73986H40.5121V13.2474H42.698L42.6921 2.734ZM36.1989 11.2373L34.81 9.80151C34.3295 10.2703 33.7903 10.6688 33.2102 10.997C32.671 11.29 32.0264 11.4365 31.2763 11.4365C30.7137 11.4424 30.157 11.3193 29.6471 11.0849C29.1549 10.8564 28.7153 10.5282 28.352 10.1238C27.9828 9.70775 27.6956 9.22134 27.5081 8.69977C27.303 8.13719 27.2034 7.5453 27.2092 6.95341C27.2034 6.36152 27.303 5.76963 27.5081 5.2129C27.6956 4.69133 27.9828 4.21665 28.352 3.80643C28.7153 3.40793 29.1549 3.08561 29.6471 2.85706C30.157 2.62265 30.7137 2.49959 31.2763 2.50545C31.9795 2.50545 32.6066 2.64609 33.1574 2.93325C33.7259 3.23798 34.2533 3.6189 34.7221 4.06428L36.111 2.42926C35.818 2.14211 35.5074 1.87839 35.1792 1.63812C34.8452 1.39785 34.4819 1.18688 34.1068 1.01693C33.6966 0.835262 33.2688 0.700475 32.8293 0.612571C32.3194 0.512946 31.8037 0.466064 31.288 0.471924C30.3503 0.471924 29.4947 0.641872 28.7153 0.981769C27.9593 1.30995 27.2796 1.78463 26.7111 2.38238C26.1427 2.98013 25.6973 3.68922 25.4043 4.45692C24.7772 6.09195 24.7831 7.89692 25.4101 9.53194C25.709 10.2938 26.1544 10.9912 26.7228 11.583C27.8949 12.7961 29.5123 13.4759 31.2001 13.4583C31.7275 13.4642 32.2549 13.4115 32.7765 13.306C33.2278 13.2122 33.6731 13.0598 34.0892 12.8606C34.4819 12.6672 34.8569 12.4328 35.2027 12.1632C35.5602 11.8819 35.8942 11.5713 36.1989 11.2373ZM25.375 11.2373L23.9861 9.80151C23.5055 10.2703 22.9664 10.6688 22.3862 10.997C21.8471 11.29 21.2024 11.4365 20.4523 11.4365C19.8897 11.4424 19.333 11.3193 18.8232 11.0849C18.3309 10.8564 17.8914 10.5282 17.528 10.1238C17.1588 9.70775 16.8717 9.22134 16.6841 8.69977C16.479 8.13719 16.3794 7.5453 16.3853 6.95341C16.3794 6.36152 16.479 5.76963 16.6841 5.2129C16.8717 4.69133 17.1588 4.21665 17.528 3.80643C17.8914 3.40793 18.3309 3.08561 18.8232 2.85706C19.333 2.62265 19.8897 2.49959 20.4523 2.50545C21.1556 2.50545 21.7826 2.64609 22.3335 2.93325C22.9078 3.23798 23.4352 3.61304 23.8982 4.06428L25.2871 2.42926C24.994 2.14211 24.6834 1.87839 24.3553 1.63812C24.0212 1.39785 23.6579 1.18688 23.2828 1.01693C22.8726 0.835262 22.4448 0.700475 22.0053 0.612571C21.4954 0.512946 20.9797 0.466064 20.464 0.471924C19.5264 0.471924 18.6708 0.641872 17.8914 0.981769C17.1354 1.30995 16.4556 1.78463 15.8871 2.38238C15.3187 2.98013 14.8733 3.68336 14.5744 4.45106C14.551 4.50967 14.5276 4.56827 14.51 4.62687C14.7561 4.63273 15.0022 4.63859 15.2484 4.65031L16.7427 4.7265L14.1759 5.9806C14.1291 6.31464 14.1056 6.64867 14.1056 6.98271C14.0998 7.85589 14.258 8.71736 14.5803 9.52608C14.8792 10.2879 15.3246 10.9853 15.893 11.5772C17.0651 12.7903 18.6825 13.4701 20.3703 13.4525C20.8977 13.4583 21.4251 13.4056 21.9467 13.3001C22.3979 13.2063 22.8433 13.054 23.2594 12.8547C23.652 12.6613 24.0271 12.4269 24.3729 12.1632C24.7362 11.8819 25.0702 11.5713 25.375 11.2373ZM10.2671 7.05889L10.777 8.26025L11.5681 10.2176L12.8164 13.2474H15.1019L12.3651 6.8655L12.242 6.92411H12.16C11.5271 6.93583 10.8942 6.98271 10.2671 7.05889ZM3.91457 9.37371L2.2561 13.2474H4.47129L5.73712 10.2176L6.52826 8.26025L6.63374 8.00826C6.22352 8.17235 5.81916 8.35402 5.42066 8.55327C4.91082 8.80526 4.41269 9.08069 3.91457 9.37371ZM9.6811 0.60085H7.67688L4.72329 7.49256C5.30346 7.12336 5.90121 6.7776 6.51654 6.46114C6.83885 6.29706 7.16117 6.14469 7.48349 6.00404L8.64968 3.23212L9.51701 5.2715C10.1734 5.08397 10.8356 4.93747 11.5095 4.83198L9.6811 0.60085Z" fill="#070308"/>
<path fill-rule="evenodd" clip-rule="evenodd" d="M12.1542 6.54321C8.20441 6.6194 5.05157 7.74457 0 11.5948C4.57103 7.74457 8.49743 4.70894 15.2309 5.04298L12.1542 6.54321Z" fill="#FFC200"/>
</svg>
