<svg width="66" height="22" viewBox="0 0 66 22" fill="none" xmlns="http://www.w3.org/2000/svg">
<path d="M63.0827 0H2.91725C1.3061 0 0 1.3061 0 2.91725V18.6724C0 20.2836 1.3061 21.5897 2.91725 21.5897H63.0827C64.6939 21.5897 66 20.2836 66 18.6724V2.91725C66 1.3061 64.6939 0 63.0827 0Z" fill="black"/>
<path d="M17.2113 14.27C16.9477 14.9013 16.624 15.5058 16.2448 16.0753C15.6123 17.0304 14.7267 18.2259 13.6362 18.2259C12.6621 18.2347 12.4116 17.5933 11.0896 17.5933C9.76764 17.5933 9.49185 18.2259 8.51775 18.2259C7.42093 18.2233 6.57839 17.148 5.95598 16.1929C4.20006 13.5211 4.01663 10.385 5.09953 8.71761C5.86869 7.5335 7.08442 6.84024 8.22299 6.84024C9.38559 6.84024 10.1206 7.47278 11.0757 7.47278C12.0081 7.47278 12.5761 6.84024 13.9196 6.84024C14.9317 6.84024 16.0095 7.39308 16.7774 8.34947C14.265 9.7246 14.6748 13.3111 17.2113 14.27Z" fill="white"/>
<path d="M12.9038 5.77125C13.3921 5.14504 13.7627 4.26076 13.6286 3.35623C12.8266 3.41569 11.8917 3.92172 11.3502 4.57955C10.8556 5.18679 10.4482 6.07234 10.6064 6.93512C11.4768 6.95789 12.3775 6.443 12.9038 5.77125Z" fill="white"/>
<path d="M22.5587 8.67712L20.0437 16.0791H21.1949L21.9464 13.8019H24.3804L25.1521 16.0791H26.3362L23.806 8.67712H22.5587ZM23.1507 9.89412C23.2355 10.2256 23.3278 10.5684 23.4455 10.9391L24.1261 12.9037H22.1981L22.8661 10.929C22.9685 10.6064 23.0647 10.2597 23.1507 9.89412Z" fill="white"/>
<path d="M29.5887 10.5962C28.8296 10.5962 28.2161 10.891 27.8087 11.4501L27.7645 10.7139H26.7397V10.8088C26.7701 11.2667 26.7828 11.7715 26.7828 12.4964V18.2006H27.9023V15.5439C28.0937 15.759 28.33 15.9295 28.5945 16.0431C28.859 16.1568 29.1453 16.211 29.4331 16.2018C29.7502 16.2044 30.0645 16.1418 30.3564 16.0178C30.6482 15.8937 30.9114 15.7109 31.1295 15.4807C31.6204 14.962 31.8797 14.2156 31.8797 13.33C31.8797 12.5432 31.6545 11.8638 31.2282 11.3641C31.0282 11.1234 30.7776 10.9298 30.4942 10.7971C30.2108 10.6644 29.9016 10.5958 29.5887 10.5962V10.5962ZM29.3104 11.5235C30.3085 11.5235 30.7551 12.4483 30.7551 13.3642C30.7551 14.5458 30.1845 15.2808 29.2674 15.2808C28.9628 15.2807 28.6671 15.178 28.428 14.9894C28.1888 14.8007 28.0202 14.5371 27.9492 14.2409C27.9199 14.1226 27.9063 14.0009 27.9087 13.8791V12.9784C27.9132 12.8856 27.9251 12.7934 27.9441 12.7026C27.9504 12.6709 27.9555 12.6406 27.9605 12.6115C28.0333 12.3063 28.2053 12.0339 28.4496 11.837C28.6939 11.6401 28.9967 11.5298 29.3104 11.5235V11.5235Z" fill="white"/>
<path d="M35.3548 10.5962C34.5958 10.5962 33.9822 10.891 33.5749 11.4501L33.5306 10.7139H32.5122L32.5185 10.8087C32.5489 11.268 32.5615 11.7715 32.5615 12.4964V18.2006H33.6811V15.5439C33.8725 15.759 34.1088 15.9294 34.3733 16.0431C34.6378 16.1568 34.9241 16.211 35.2119 16.2017C35.5292 16.2043 35.8436 16.1416 36.1356 16.0176C36.4277 15.8935 36.6911 15.7108 36.9096 15.4807C37.3992 14.962 37.6585 14.2156 37.6585 13.33C37.6585 12.5432 37.4333 11.8638 37.007 11.3641C36.8056 11.1218 36.553 10.9272 36.2673 10.7944C35.9815 10.6616 35.6699 10.5939 35.3548 10.5962V10.5962ZM35.0765 11.5235C36.0746 11.5235 36.5212 12.4483 36.5212 13.3642C36.5212 14.5458 35.9507 15.2808 35.0335 15.2808C34.7289 15.2806 34.4332 15.178 34.1941 14.9894C33.955 14.8007 33.7863 14.5371 33.7153 14.2409C33.686 14.1226 33.6724 14.0009 33.6748 13.8791V12.9783C33.6792 12.8851 33.6915 12.7924 33.7115 12.7013L33.7267 12.6115C33.7995 12.3063 33.9715 12.0338 34.2158 11.8369C34.4601 11.64 34.7628 11.5298 35.0765 11.5235V11.5235Z" fill="white"/>
<path d="M42.5799 11.8132C41.5349 11.4084 41.1997 11.0909 41.1997 10.5026C41.1997 10.008 41.5931 9.50828 42.4723 9.50828C42.9323 9.49722 43.3866 9.61134 43.7867 9.83846L43.8816 9.89666L44.1979 8.96177L44.1346 8.92508C43.9474 8.81629 43.4135 8.55948 42.504 8.55948C41.077 8.55948 40.0788 9.40328 40.0788 10.6102C40.0788 11.583 40.7038 12.2623 42.0447 12.7507C42.9948 13.1061 43.349 13.4692 43.349 14.0929C43.349 14.7988 42.8025 15.2315 41.9258 15.2315C41.3556 15.2319 40.7966 15.0733 40.3116 14.7735L40.2142 14.7115L39.9131 15.6666L39.9687 15.7033C40.3913 15.9867 41.187 16.1904 41.8664 16.1904C43.7905 16.1904 44.4737 15.0164 44.4737 14.0119C44.4686 12.9822 43.9208 12.3433 42.5799 11.8132Z" fill="white"/>
<path d="M46.4837 9.43869L45.3856 9.78405V10.7139H44.5811V11.6096H45.3856V14.351C45.3856 15.0126 45.5121 15.4781 45.7728 15.7716C45.9138 15.9143 46.0831 16.0258 46.2698 16.099C46.4565 16.1722 46.6565 16.2055 46.8569 16.1967C47.1508 16.2009 47.4434 16.1555 47.7222 16.0626L47.7855 16.0411L47.7311 15.1442L47.6236 15.1771C47.4544 15.2241 47.279 15.2446 47.1036 15.2378C46.6697 15.2378 46.4837 14.9633 46.4837 14.3181V11.6096H47.8348V10.7139H46.4837V9.43869Z" fill="white"/>
<path d="M50.609 10.5962C49.0429 10.5962 47.9524 11.7652 47.9524 13.4389C47.9524 15.0632 49.0113 16.1967 50.5281 16.1967H50.5382C51.8197 16.1967 53.1948 15.3036 53.1948 13.3427C53.1948 12.5457 52.9482 11.8613 52.4813 11.3629C52.2403 11.1112 51.949 10.913 51.6265 10.7809C51.304 10.6489 50.9574 10.5859 50.609 10.5962V10.5962ZM50.5774 11.4818C51.5895 11.4818 52.0436 12.4635 52.0436 13.3794C52.0436 14.5015 51.4174 15.3162 50.5559 15.3162H50.5445C49.6957 15.3074 49.0846 14.5116 49.0846 13.4098C49.0846 12.4483 49.5426 11.4805 50.5774 11.4805V11.4818Z" fill="white"/>
<path d="M56.6246 10.6481L56.5575 10.6316C56.4668 10.6074 56.3732 10.5955 56.2792 10.5962C55.9848 10.6027 55.6979 10.6903 55.4501 10.8495C55.2023 11.0087 55.0033 11.2331 54.875 11.4982L54.8421 10.7139H53.8376L53.844 10.8088C53.8743 11.2515 53.8857 11.7487 53.8857 12.4205L53.8756 16.079H54.9952V13.225C54.9948 13.0798 55.0053 12.9348 55.0268 12.7911C55.1533 12.1055 55.6151 11.6627 56.2046 11.6627C56.3052 11.6634 56.4058 11.6697 56.5057 11.6817L56.6246 11.693V10.6481Z" fill="white"/>
<path d="M59.142 10.5861C57.6517 10.5861 56.6118 11.7766 56.6118 13.4819C56.6118 15.1265 57.6479 16.1866 59.2508 16.1866C59.8585 16.1996 60.4622 16.0836 61.0219 15.8463L61.0902 15.8159L60.8751 14.981L60.7815 15.0189C60.3364 15.1994 59.8586 15.2855 59.3785 15.2719C58.8915 15.2719 57.7694 15.1113 57.701 13.6489L61.3153 13.659L61.3305 13.5881C61.3561 13.4335 61.3671 13.2768 61.3634 13.1201C61.3634 11.9499 60.7815 10.5861 59.142 10.5861ZM59.0673 11.4375C59.2186 11.4307 59.3696 11.4551 59.511 11.509C59.6525 11.563 59.7813 11.6454 59.8896 11.7513C60.2122 12.0789 60.2691 12.5622 60.2691 12.7937H57.7213C57.8263 12.1447 58.2298 11.4375 59.0673 11.4375V11.4375Z" fill="white"/>
<path d="M20.0437 3.62188C20.3997 3.57414 20.7585 3.55005 21.1177 3.54977C21.8401 3.54977 22.3537 3.69526 22.694 3.98116C23.0343 4.26707 23.2494 4.67695 23.2494 5.24623C23.259 5.50004 23.214 5.75296 23.1173 5.98783C23.0206 6.22269 22.8745 6.43401 22.689 6.60745C22.3196 6.9351 21.7187 7.11348 20.9621 7.11348C20.6554 7.1172 20.3488 7.10326 20.0437 7.07173V3.62188ZM20.5497 6.7251C20.7177 6.74336 20.8868 6.75012 21.0558 6.74534C22.1298 6.74534 22.713 6.20516 22.713 5.25888C22.713 4.42267 22.1981 3.90779 21.1355 3.90779C20.9384 3.90534 20.7414 3.921 20.5472 3.9546L20.5497 6.7251Z" fill="white"/>
<path d="M25.0484 7.135C24.2983 7.135 23.7087 6.63656 23.7087 5.84083C23.7087 4.99956 24.3274 4.50491 25.1003 4.50491C25.9024 4.50491 26.4451 5.02992 26.4451 5.79402C26.4451 6.73017 25.724 7.135 25.0598 7.135H25.0484ZM25.0662 6.79216C25.5507 6.79216 25.915 6.38101 25.915 5.8092C25.915 5.38414 25.6785 4.84901 25.0775 4.84901C24.4766 4.84901 24.2224 5.34745 24.2224 5.82565C24.2224 6.37595 24.569 6.79216 25.0598 6.79216H25.0662Z" fill="white"/>
<path d="M27.2458 4.56312L27.6253 5.83578C27.6999 6.11663 27.7746 6.38103 27.8264 6.64163H27.8442C27.9074 6.38862 27.9998 6.11663 28.0972 5.84084L28.5539 4.56312H28.9701L29.4053 5.81934C29.509 6.11536 29.59 6.38609 29.6583 6.64037H29.676C29.731 6.36437 29.8023 6.09189 29.8898 5.8244L30.2883 4.55933H30.7943L29.8847 7.08441H29.423L28.9954 5.88385C28.8963 5.6115 28.8119 5.33405 28.7424 5.0527H28.731C28.6637 5.33631 28.5792 5.61557 28.478 5.88892L28.0314 7.08441H27.5696L26.7258 4.56945L27.2458 4.56312Z" fill="white"/>
<path d="M31.294 5.24372C31.294 4.97805 31.2877 4.77058 31.2712 4.56311H31.7216L31.7507 4.97299H31.7621C31.863 4.82236 32.0009 4.70019 32.1626 4.61822C32.3244 4.53625 32.5044 4.49724 32.6856 4.50492C33.0727 4.50492 33.6736 4.71365 33.6736 5.57643V7.0844H33.1676V5.6283C33.1676 5.22221 33.0006 4.87938 32.5211 4.87938C32.3734 4.87892 32.229 4.92346 32.1072 5.00708C31.9854 5.09069 31.8919 5.20942 31.8393 5.34745C31.8156 5.41578 31.8041 5.4877 31.8051 5.55999V7.0844H31.2991L31.294 5.24372Z" fill="white"/>
<path d="M34.4985 3.38785H35.0046V7.08438H34.4985V3.38785Z" fill="white"/>
<path d="M36.9881 7.135C36.238 7.135 35.6484 6.63656 35.6484 5.84083C35.6484 4.99956 36.2658 4.50491 37.04 4.50491C37.8421 4.50491 38.3848 5.02992 38.3848 5.79402C38.3848 6.73017 37.6624 7.135 36.9995 7.135H36.9881ZM37.0059 6.79216C37.4904 6.79216 37.8547 6.38101 37.8547 5.8092C37.8547 5.38414 37.6169 4.84901 37.0172 4.84901C36.4176 4.84901 36.1621 5.34745 36.1621 5.82565C36.1621 6.37595 36.5087 6.79216 36.9995 6.79216H37.0059Z" fill="white"/>
<path d="M40.9884 6.47462C40.9858 6.67652 40.9993 6.87831 41.0289 7.07806H40.5722L40.5254 6.76053H40.5089C40.4041 6.88405 40.2728 6.98233 40.1247 7.04804C39.9766 7.11376 39.8156 7.1452 39.6537 7.14005C39.0882 7.14005 38.7998 6.78203 38.7998 6.41769C38.7998 5.80919 39.3994 5.47648 40.4798 5.4828V5.43094C40.4798 5.2222 40.4166 4.84268 39.8473 4.849C39.5906 4.8457 39.3376 4.90983 39.1135 5.03497L38.9984 4.72882C39.2837 4.5813 39.6008 4.50614 39.9219 4.50997C40.7822 4.50997 40.9909 5.03497 40.9909 5.53973L40.9884 6.47462ZM40.4912 5.79401C39.9371 5.78389 39.3071 5.87245 39.3071 6.36076C39.3071 6.66185 39.5272 6.79721 39.7815 6.79721C39.9253 6.80565 40.0683 6.76979 40.1911 6.69446C40.3139 6.61914 40.4107 6.50797 40.4684 6.37594C40.4846 6.32919 40.4923 6.27992 40.4912 6.23046V5.79401Z" fill="white"/>
<path d="M44.218 3.38785V6.42402C44.218 6.64793 44.2243 6.90221 44.242 7.07426H43.7853L43.7625 6.63781H43.7512C43.5943 6.91866 43.2603 7.13119 42.8036 7.13119C42.1281 7.13119 41.6018 6.61757 41.6018 5.85221C41.6018 5.01093 42.1799 4.50111 42.8555 4.50111C43.2894 4.50111 43.5778 4.68328 43.6993 4.88063H43.7107V3.38785H44.218ZM43.7119 5.58654C43.7126 5.51999 43.7045 5.45363 43.6879 5.38919C43.6416 5.23268 43.5444 5.09607 43.4118 5.00098C43.2791 4.9059 43.1185 4.85776 42.9554 4.86419C42.4292 4.86419 42.118 5.28039 42.118 5.8307C42.118 6.34558 42.4013 6.76559 42.944 6.76559C43.1107 6.76899 43.2738 6.71744 43.4083 6.6189C43.5427 6.52035 43.641 6.38029 43.6879 6.22034C43.7052 6.15603 43.7133 6.08958 43.7119 6.02299V5.58654Z" fill="white"/>
<path d="M47.4237 7.135C46.6735 7.135 46.084 6.63656 46.084 5.84083C46.084 4.99956 46.7026 4.50491 47.4756 4.50491C48.2789 4.50491 48.8216 5.02992 48.8216 5.79402C48.8216 6.73017 48.0992 7.135 47.4363 7.135H47.4237ZM47.4414 6.79216C47.9259 6.79216 48.2903 6.38101 48.2903 5.8092C48.2903 5.38414 48.0537 4.84901 47.4528 4.84901C46.8519 4.84901 46.5976 5.34745 46.5976 5.82565C46.5976 6.37595 46.9442 6.79216 47.4351 6.79216H47.4414Z" fill="white"/>
<path d="M49.4566 5.24372C49.4566 4.97805 49.4503 4.77058 49.4338 4.56311H49.8842L49.9133 4.97299H49.9247C50.0256 4.82236 50.1635 4.70019 50.3252 4.61822C50.487 4.53625 50.667 4.49724 50.8482 4.50492C51.2353 4.50492 51.8362 4.71365 51.8362 5.57643V7.0844H51.3302V5.6283C51.3302 5.22221 51.1632 4.87938 50.6837 4.87938C50.536 4.87892 50.3916 4.92346 50.2698 5.00708C50.148 5.09069 50.0545 5.20942 50.0019 5.34745C49.9784 5.41794 49.9676 5.49206 49.9702 5.56631V7.0844H49.4642L49.4566 5.24372Z" fill="white"/>
<path d="M54.498 3.95966V4.56309H55.2254V4.91099H54.498V6.26714C54.498 6.57835 54.5967 6.75546 54.8776 6.75546C54.9763 6.75896 55.0751 6.74874 55.171 6.7251L55.1951 7.07299C55.0488 7.11554 54.8971 7.13643 54.7447 7.13498C54.5435 7.14565 54.3462 7.07655 54.1957 6.94269C54.0565 6.80227 53.9996 6.57835 53.9996 6.28233V4.91099H53.5657V4.56309H53.9996V4.10008L54.498 3.95966Z" fill="white"/>
<path d="M55.7971 3.38785H56.3031V4.9578H56.3145C56.4027 4.81768 56.5291 4.70573 56.6789 4.63521C56.8389 4.55031 57.0177 4.50682 57.1988 4.5087C57.5783 4.5087 58.1742 4.71744 58.1742 5.58528V7.08438H57.6682V5.63335C57.6682 5.2222 57.5012 4.88443 57.0217 4.88443C56.8753 4.88387 56.7321 4.9272 56.6105 5.00883C56.489 5.09046 56.3947 5.20664 56.3398 5.34238C56.3129 5.4116 56.3012 5.48583 56.3057 5.55997V7.08438H55.7996L55.7971 3.38785Z" fill="white"/>
<path d="M59.2914 5.89777C59.3028 6.51639 59.7367 6.77193 60.244 6.77193C60.5077 6.77817 60.7702 6.73527 61.0182 6.64542L61.1106 6.96802C60.812 7.08057 60.4947 7.1351 60.1757 7.12868C59.3205 7.12868 58.8005 6.6138 58.8005 5.86361C58.8005 5.11342 59.3066 4.50113 60.1175 4.50113C61.0296 4.50113 61.2662 5.22348 61.2662 5.6865C61.268 5.75982 61.2625 5.83314 61.2497 5.90536L59.2914 5.89777ZM60.7766 5.56632C60.7766 5.28041 60.6425 4.82246 60.077 4.82246C59.5571 4.82246 59.3382 5.24879 59.2977 5.56632H60.7766Z" fill="white"/>
</svg>
