<svg xmlns="http://www.w3.org/2000/svg" width="25.027" height="14.558" viewBox="0 0 25.027 14.558">
  <g id="Grupo_24" data-name="Grupo 24" transform="translate(-8.7 -30.2)">
    <path id="Caminho_185" data-name="Caminho 185" d="M32.33,82.628c0,.171-.049.2-.2.2-.635,0-.635,0-.635-.635V80.773c0-.146.024-.2.171-.2.635-.024.635-.024.635.61V81.7C32.306,82.018,32.306,82.311,32.33,82.628Z" transform="translate(-17.234 -38.073)" fill="#e2211d"/>
    <path id="Caminho_186" data-name="Caminho 186" d="M45.53,82.553c0,.122-.024.171-.171.171-.659.024-.659.024-.659-.635v-1.44c0-.122.024-.146.146-.171.684-.024.684-.024.684.635C45.53,81.625,45.53,82.089,45.53,82.553Z" transform="translate(-27.211 -37.998)" fill="#e2211d"/>
    <path id="Caminho_187" data-name="Caminho 187" d="M58.83,82.7c0,.171-.049.22-.22.22-.61,0-.61,0-.61-.61v-1.44c0-.146.049-.171.2-.171.635,0,.635-.024.635.635C58.83,81.774,58.806,82.238,58.83,82.7Z" transform="translate(-37.264 -38.171)" fill="#e2211d"/>
    <path id="Caminho_188" data-name="Caminho 188" d="M72.33,82.751c0,.122-.049.171-.171.171-.659.024-.659.024-.659-.61V80.92c0-.146.024-.22.2-.22.61,0,.61,0,.61.61V81.8C72.33,82.116,72.33,82.433,72.33,82.751Z" transform="translate(-47.468 -38.171)" fill="#e2211d"/>
    <path id="Caminho_189" data-name="Caminho 189" d="M86.03,82.726c0,.171-.049.2-.2.2-.635,0-.635,0-.635-.61V80.9c0-.171.049-.2.2-.2.635,0,.635,0,.635.61V81.8A5.881,5.881,0,0,0,86.03,82.726Z" transform="translate(-57.824 -38.171)" fill="#e2211d"/>
    <path id="Caminho_190" data-name="Caminho 190" d="M33.138,30.2H9.286c-.464,0-.586.122-.586.586v9.057a1.185,1.185,0,0,0,1.318,1.318H32.406a1.185,1.185,0,0,0,1.318-1.318V30.81C33.748,30.322,33.626,30.2,33.138,30.2ZM14.266,40.112c0,.171-.073.2-.22.2H10.018c-.366,0-.464-.122-.464-.488V38.427c0-.2.073-.244.244-.244h4.248c.146,0,.22.024.22.2C14.242,38.989,14.242,39.55,14.266,40.112Zm12.866.22H15.365c-.244,0-.293-.073-.269-.293.024-.537,0-1.074,0-1.611,0-.146.024-.2.2-.2H27.206c.171,0,.2.049.2.2,0,.537-.024,1.1,0,1.636C27.376,40.258,27.328,40.332,27.132,40.332Zm5.786-.439c0,.317-.122.439-.439.439h-4.1c-.146,0-.2-.024-.2-.171V38.427c0-.171.049-.2.2-.2h4.346c.146,0,.2.049.2.2Zm-.293-2.49H9.8c-.22,0-.293-.049-.269-.269v-5.81c0-.269.073-.293.317-.293H32.625c.244,0,.293.049.293.293v5.786C32.918,37.329,32.869,37.4,32.625,37.4Zm-1.44-4.932a10.178,10.178,0,0,0-1.221,0H29.11c-.659,0-.635,0-.635.635,0,.146.049.2.2.2h2.515c.22,0,.2-.146.171-.244C31.258,32.861,31.551,32.519,31.185,32.47Z" fill="#e2211d"/>
    <path id="Caminho_191" data-name="Caminho 191" d="M33.138,30.2H9.286c-.464,0-.586.122-.586.586v9.057a1.185,1.185,0,0,0,1.318,1.318H32.406a1.185,1.185,0,0,0,1.318-1.318V30.81C33.748,30.322,33.626,30.2,33.138,30.2ZM14.266,40.112c0,.171-.073.2-.22.2H10.018c-.366,0-.464-.122-.464-.488V38.427c0-.2.073-.244.244-.244h4.248c.146,0,.22.024.22.2C14.242,38.989,14.242,39.55,14.266,40.112Zm12.866.22H15.365c-.244,0-.293-.073-.269-.293.024-.537,0-1.074,0-1.611,0-.146.024-.2.2-.2H27.206c.171,0,.2.049.2.2,0,.537-.024,1.1,0,1.636C27.376,40.258,27.328,40.332,27.132,40.332Zm5.786-.439c0,.317-.122.439-.439.439h-4.1c-.146,0-.2-.024-.2-.171V38.427c0-.171.049-.2.2-.2h4.346c.146,0,.2.049.2.2Zm-.293-2.49H9.8c-.22,0-.293-.049-.269-.269v-5.81c0-.269.073-.293.317-.293H32.625c.244,0,.293.049.293.293v5.786C32.918,37.329,32.869,37.4,32.625,37.4Zm-1.44-4.932a10.178,10.178,0,0,0-1.221,0H29.11c-.659,0-.635,0-.635.635,0,.146.049.2.2.2h2.515c.22,0,.2-.146.171-.244C31.258,32.861,31.551,32.519,31.185,32.47Z" fill="#e2211d"/>
    <path id="Caminho_192" data-name="Caminho 192" d="M32.33,82.628c0,.171-.049.2-.2.2-.635,0-.635,0-.635-.635V80.773c0-.146.024-.2.171-.2.635-.024.635-.024.635.61V81.7C32.306,82.018,32.306,82.311,32.33,82.628Z" transform="translate(-17.234 -38.073)" fill="#e2211d"/>
    <path id="Caminho_193" data-name="Caminho 193" d="M45.53,82.553c0,.122-.024.171-.171.171-.659.024-.659.024-.659-.635v-1.44c0-.122.024-.146.146-.171.684-.024.684-.024.684.635C45.53,81.625,45.53,82.089,45.53,82.553Z" transform="translate(-27.211 -37.998)" fill="#e2211d"/>
    <path id="Caminho_194" data-name="Caminho 194" d="M58.83,82.7c0,.171-.049.22-.22.22-.61,0-.61,0-.61-.61v-1.44c0-.146.049-.171.2-.171.635,0,.635-.024.635.635C58.83,81.774,58.806,82.238,58.83,82.7Z" transform="translate(-37.264 -38.171)" fill="#e2211d"/>
    <path id="Caminho_195" data-name="Caminho 195" d="M86.03,82.726c0,.171-.049.2-.2.2-.635,0-.635,0-.635-.61V80.9c0-.171.049-.2.2-.2.635,0,.635,0,.635.61V81.8A5.881,5.881,0,0,0,86.03,82.726Z" transform="translate(-57.824 -38.171)" fill="#e2211d"/>
    <path id="Caminho_196" data-name="Caminho 196" d="M72.33,82.751c0,.122-.049.171-.171.171-.659.024-.659.024-.659-.61V80.92c0-.146.024-.22.2-.22.61,0,.61,0,.61.61V81.8C72.33,82.116,72.33,82.433,72.33,82.751Z" transform="translate(-47.468 -38.171)" fill="#e2211d"/>
    <path id="Caminho_197" data-name="Caminho 197" d="M92.48,40.019c.049.1.049.244-.171.244-.83-.024-1.685,0-2.515,0-.146,0-.2-.049-.2-.2,0-.635-.024-.635.635-.635h.854a10.178,10.178,0,0,1,1.221,0C92.7,39.482,92.407,39.823,92.48,40.019Z" transform="translate(-61.149 -6.962)" fill="#e2211d"/>
    <path id="Caminho_198" data-name="Caminho 198" d="M92.48,40.019c.049.1.049.244-.171.244-.83-.024-1.685,0-2.515,0-.146,0-.2-.049-.2-.2,0-.635-.024-.635.635-.635h.854a10.178,10.178,0,0,1,1.221,0C92.7,39.482,92.407,39.823,92.48,40.019Z" transform="translate(-61.149 -6.962)" fill="#e2211d"/>
  </g>
</svg>
