<svg xmlns="http://www.w3.org/2000/svg" width="24.868" height="26.499" viewBox="0 0 24.868 26.499">
  <g id="Grupo_21" data-name="Grupo 21" transform="translate(394.25 -90.05)">
    <path id="Caminho_144" data-name="Caminho 144" d="M-391.79,108.117a.389.389,0,0,1-.466.4c-.56-.117-1.142-.256-1.7-.4a.335.335,0,0,1-.28-.443.352.352,0,0,1,.443-.3c.583.117,1.166.233,1.725.373A.378.378,0,0,1-391.79,108.117Z" transform="translate(0 -13.275)" fill="#e2211d"/>
    <path id="Caminho_145" data-name="Caminho 145" d="M-387.1,100.1c-.117.21-.326.256-.606.117-.443-.256-.909-.513-1.352-.793a.4.4,0,0,1-.187-.466.352.352,0,0,1,.373-.256.684.684,0,0,1,.233.07c.443.256.886.513,1.306.769C-387.055,99.7-386.985,99.912-387.1,100.1Z" transform="translate(-3.826 -6.633)" fill="#e2211d"/>
    <path id="Caminho_146" data-name="Caminho 146" d="M-384.172,90.668a.351.351,0,0,1,.07-.513.338.338,0,0,1,.49,0c.42.443.816.909,1.236,1.352a.376.376,0,0,1,.07.21.362.362,0,0,1-.21.35.314.314,0,0,1-.4-.047C-383.356,91.577-383.776,91.134-384.172,90.668Z" transform="translate(-7.664 0)" fill="#e2211d"/>
    <path id="Caminho_147" data-name="Caminho 147" d="M-335.552,188.515a.4.4,0,0,1,.163.28.37.37,0,0,1-.536.35c-.513-.28-1.026-.56-1.516-.863a.35.35,0,0,1-.093-.513c.117-.163.28-.257.466-.14C-336.555,187.932-336.042,188.212-335.552,188.515Z" transform="translate(-43.437 -74.787)" fill="#e2211d"/>
    <path id="Caminho_148" data-name="Caminho 148" d="M-329.634,174a1.155,1.155,0,0,0-1.166,1.166,1.154,1.154,0,0,0,1.166,1.166,1.169,1.169,0,0,0,1.166-1.166A1.2,1.2,0,0,0-329.634,174Zm-.047,1.562a.368.368,0,0,1-.35-.4.361.361,0,0,1,.4-.373.4.4,0,0,1,.373.4A.4.4,0,0,1-329.681,175.562Z" transform="translate(-48.656 -64.376)" fill="#e2211d"/>
    <path id="Caminho_149" data-name="Caminho 149" d="M-312.624,148.5a.4.4,0,0,1-.583.093l-1.329-.769a.366.366,0,0,1-.21-.443.387.387,0,0,1,.4-.28.528.528,0,0,1,.21.093c.42.256.863.49,1.282.746C-312.578,148.079-312.508,148.312-312.624,148.5Z" transform="translate(-60.956 -43.748)" fill="#e2211d"/>
    <path id="Caminho_150" data-name="Caminho 150" d="M-309.241,142.766a.371.371,0,0,1-.35.28.571.571,0,0,1-.28-.093c-.42-.233-.839-.49-1.259-.723-.256-.163-.35-.35-.233-.56s.326-.257.606-.093l1.329.769A.339.339,0,0,1-309.241,142.766Z" transform="translate(-63.523 -39.438)" fill="#e2211d"/>
    <path id="Caminho_151" data-name="Caminho 151" d="M-317.91,135.3a2.842,2.842,0,0,0-2.891,2.868,2.891,2.891,0,0,0,2.891,2.891,2.861,2.861,0,0,0,2.868-2.845A2.847,2.847,0,0,0-317.91,135.3Zm0,4.966a2.09,2.09,0,0,1-2.1-2.1,2.1,2.1,0,0,1,2.122-2.1,2.076,2.076,0,0,1,2.075,2.122A2.085,2.085,0,0,1-317.91,140.266Z" transform="translate(-56.323 -34.699)" fill="#e2211d"/>
    <path id="Caminho_152" data-name="Caminho 152" d="M-357.87,109.73a5.292,5.292,0,0,1-4.337,5.013,5.211,5.211,0,0,1-4.477-1.189c-.047-.047-.093-.07-.14-.117h-.023c-.07.023-.093.093-.117.163-1.049,1.842-2.122,3.661-3.171,5.5a1.928,1.928,0,0,0,1.1,2.891,1.928,1.928,0,0,0,2.238-.909c.653-1.119,1.306-2.262,1.959-3.4l1.049-1.819c.163-.28.373-.35.583-.233s.233.35.07.63c-1,1.725-1.982,3.451-2.984,5.153a2.607,2.607,0,0,1-1.982,1.376c-.023.023-.023.023,0,.047,0-.023-.023-.023,0-.047h0a.023.023,0,0,1,.023-.023,3.382,3.382,0,0,0,1.212-.56,3.292,3.292,0,0,0,.769-.933c.933-1.632,1.865-3.241,2.8-4.85a.963.963,0,0,0,.163-.35.3.3,0,0,0-.14-.4.3.3,0,0,0-.4.117c-.21.3-.373.606-.56.933-.839,1.446-1.679,2.915-2.518,4.36a2,2,0,0,1-3.031.583,2,2,0,0,1-.466-2.518c1.026-1.8,2.075-3.591,3.1-5.386.023-.023.023-.047.047-.07.21-.326.257-.35.56-.093a4.919,4.919,0,0,0,2.588,1.143,5.212,5.212,0,0,0,4.174-1.189,5.091,5.091,0,0,0,1.842-3.474,5.079,5.079,0,0,0-1.212-3.94,5.157,5.157,0,0,0-2.821-1.749c-2.472-.63-4.92-1.236-7.391-1.865l-2.238-.56a1.235,1.235,0,0,1-.63-.373c-.816-.956-1.679-1.889-2.518-2.845a.9.9,0,0,0-1.352-.117,8.781,8.781,0,0,0-1.912,2.238,8.092,8.092,0,0,0-1.049,2.821,1,1,0,0,0,.3,1.049,1.469,1.469,0,0,0,.56.21c.956.187,1.889.42,2.845.56a2.788,2.788,0,0,1,1.959,1.049c.117.14.256.28.373.42a.778.778,0,0,0,.3.256.286.286,0,0,0,.373-.07.282.282,0,0,0,.023-.35.88.88,0,0,0-.233-.28c-.3-.3-.583-.606-.886-.886a.315.315,0,0,1-.07-.466c.466-.793.933-1.586,1.376-2.378a.389.389,0,0,1,.49-.21c3.264.839,6.529,1.632,9.77,2.472a4.647,4.647,0,0,1,3.334,4.337,4.623,4.623,0,0,1-1.329,3.381,4.437,4.437,0,0,1-2.915,1.352,4.972,4.972,0,0,1-4.29-1.959c-.07-.07-.117-.14-.186-.21-.909-.863-1.725-1.8-2.635-2.681-.42-.4-.769-.839-1.189-1.236a.913.913,0,0,0-.233-.187.316.316,0,0,0-.373.07.284.284,0,0,0,0,.373,6.641,6.641,0,0,0,.536.606c.816.793,1.586,1.632,2.378,2.448.233.233.233.3-.093.42a2.043,2.043,0,0,0-1.469,1.935,1.969,1.969,0,0,0,.956,1.819c.35.233.35.233.14.606-.49.839-.956,1.7-1.469,2.518a2.623,2.623,0,0,0,.187,3.194,2.381,2.381,0,0,0,1.329.839c.093.023.233,0,.256.163-.256-.117-.56-.163-.816-.3a2.676,2.676,0,0,1-1.166-3.661c.536-.979,1.1-1.935,1.679-2.915.093-.163.093-.233-.093-.35a2.13,2.13,0,0,1-1.073-2.238,2.059,2.059,0,0,1,1.586-1.749,1.484,1.484,0,0,1,.163-.047,1.781,1.781,0,0,0-.21-.21l-2.8-2.868a1.168,1.168,0,0,1-.163-.187.356.356,0,0,1,.047-.466.333.333,0,0,1,.466-.047,1.51,1.51,0,0,1,.21.187c1.516,1.562,3.031,3.124,4.547,4.663a4.534,4.534,0,0,0,5.9.63,4.372,4.372,0,0,0,1.912-4.617,4.371,4.371,0,0,0-3.4-3.614c-3.194-.839-6.389-1.632-9.606-2.425-.163-.047-.257-.047-.35.14-.466.816-.933,1.632-1.4,2.425a.236.236,0,0,0,.047.35c.35.35.7.723,1.049,1.073.233.233.256.466.07.63s-.4.14-.63-.093c-.4-.4-.793-.793-1.166-1.212a.577.577,0,0,0-.326-.187c-1.306-.256-2.611-.536-3.917-.816a.944.944,0,0,1-.793-1.189,8.714,8.714,0,0,1,1.679-3.824,9.271,9.271,0,0,1,1.329-1.376.94.94,0,0,1,1.446.117c.886.979,1.749,1.982,2.611,2.961a.55.55,0,0,0,.373.21c3.264.816,6.552,1.655,9.816,2.472A5.322,5.322,0,0,1-357.87,109.73Z" transform="translate(-11.537 -6.308)" fill="#e2211d"/>
    <path id="Caminho_153" data-name="Caminho 153" d="M-361.827,104.32c-3.264-.839-6.552-1.655-9.816-2.472a.856.856,0,0,1-.373-.21c-.863-.979-1.749-1.982-2.611-2.961a.94.94,0,0,0-1.446-.117,9.276,9.276,0,0,0-1.329,1.376,8.683,8.683,0,0,0-1.679,3.824.935.935,0,0,0,.793,1.189c1.306.28,2.611.536,3.917.816a.578.578,0,0,1,.326.187c.4.4.769.816,1.166,1.212.233.233.443.28.63.093.187-.163.163-.4-.07-.63-.35-.35-.7-.723-1.049-1.073a.236.236,0,0,1-.047-.35c.466-.816.956-1.609,1.4-2.425.093-.163.187-.163.35-.14,3.194.816,6.412,1.609,9.606,2.425a4.371,4.371,0,0,1,3.4,3.614,4.372,4.372,0,0,1-1.912,4.617,4.564,4.564,0,0,1-5.9-.63c-1.516-1.562-3.031-3.124-4.547-4.663a1.508,1.508,0,0,0-.21-.187.356.356,0,0,0-.466.047.333.333,0,0,0-.047.466,1.333,1.333,0,0,0,.163.187l2.8,2.868.21.21a1.486,1.486,0,0,0-.163.047,2.06,2.06,0,0,0-1.586,1.749,2.1,2.1,0,0,0,1.073,2.238c.187.117.187.187.093.35-.56.956-1.143,1.935-1.679,2.915a2.675,2.675,0,0,0,1.166,3.661,8.423,8.423,0,0,0,.816.3h.513c.093-.07.21,0,.3-.047h.023a2.607,2.607,0,0,0,1.982-1.376c1-1.725,1.982-3.451,2.985-5.153.163-.28.14-.513-.07-.63s-.42-.047-.583.233l-1.049,1.819c-.653,1.143-1.306,2.262-1.959,3.4a1.928,1.928,0,0,1-2.238.909,1.928,1.928,0,0,1-1.1-2.891c1.049-1.842,2.122-3.661,3.171-5.5.023-.047.047-.14.117-.163h.023c.047.047.093.07.14.117a5.23,5.23,0,0,0,4.477,1.189,5.312,5.312,0,0,0,4.337-5.013A5.378,5.378,0,0,0-361.827,104.32Zm-12.544.653-3.707-.769c-.14-.023-.3-.07-.256-.28a8.064,8.064,0,0,1,.769-2.332,7.971,7.971,0,0,1,1.959-2.448c.163-.14.28-.14.42.023.839.956,1.679,1.912,2.542,2.868.093.117.093.187.023.28-.49.839-.979,1.679-1.446,2.518C-374.161,104.973-374.231,105.02-374.371,104.973Zm4.827,8.441a1.422,1.422,0,0,1,1.422-1.049c.3-.047.49.21.7.443.07.07,0,.117-.023.163-.373.653-.769,1.329-1.143,1.982-.047.093-.093.117-.21.07A1.488,1.488,0,0,1-369.545,113.414Z" transform="translate(-11.613 -6.308)" fill="#e2211d"/>
    <path id="Caminho_154" data-name="Caminho 154" d="M-332.7,203.5h-.3a.345.345,0,0,1,.3-.047h.023C-332.7,203.454-332.7,203.477-332.7,203.5Z" transform="translate(-46.969 -86.952)" fill="#e2211d"/>
    <path id="Caminho_155" data-name="Caminho 155" d="M-312.624,148.5a.4.4,0,0,1-.583.093l-1.329-.769a.366.366,0,0,1-.21-.443.387.387,0,0,1,.4-.28.528.528,0,0,1,.21.093c.42.256.863.49,1.282.746C-312.578,148.079-312.508,148.312-312.624,148.5Z" transform="translate(-60.956 -43.748)" fill="#e2211d"/>
    <path id="Caminho_156" data-name="Caminho 156" d="M-309.241,142.766a.371.371,0,0,1-.35.28.571.571,0,0,1-.28-.093c-.42-.233-.839-.49-1.259-.723-.256-.163-.35-.35-.233-.56s.326-.257.606-.093l1.329.769A.339.339,0,0,1-309.241,142.766Z" transform="translate(-63.523 -39.438)" fill="#e2211d"/>
    <path id="Caminho_157" data-name="Caminho 157" d="M-317.91,135.3a2.842,2.842,0,0,0-2.891,2.868,2.891,2.891,0,0,0,2.891,2.891,2.861,2.861,0,0,0,2.868-2.845A2.847,2.847,0,0,0-317.91,135.3Zm0,4.966a2.09,2.09,0,0,1-2.1-2.1,2.1,2.1,0,0,1,2.122-2.1,2.076,2.076,0,0,1,2.075,2.122A2.085,2.085,0,0,1-317.91,140.266Z" transform="translate(-56.323 -34.699)" fill="#e2211d"/>
    <path id="Caminho_158" data-name="Caminho 158" d="M-329.634,174a1.155,1.155,0,0,0-1.166,1.166,1.154,1.154,0,0,0,1.166,1.166,1.169,1.169,0,0,0,1.166-1.166A1.2,1.2,0,0,0-329.634,174Zm-.047,1.562a.368.368,0,0,1-.35-.4.361.361,0,0,1,.4-.373.4.4,0,0,1,.373.4A.4.4,0,0,1-329.681,175.562Z" transform="translate(-48.656 -64.376)" fill="#e2211d"/>
    <path id="Caminho_159" data-name="Caminho 159" d="M-382.23,91.74a.362.362,0,0,1-.21.35.314.314,0,0,1-.4-.047c-.42-.443-.839-.909-1.236-1.376a.351.351,0,0,1,.07-.513.338.338,0,0,1,.49,0c.42.443.816.909,1.236,1.352C-382.254,91.577-382.254,91.647-382.23,91.74Z" transform="translate(-7.741 0)" fill="#e2211d"/>
    <path id="Caminho_160" data-name="Caminho 160" d="M-391.79,108.117a.389.389,0,0,1-.466.4c-.56-.117-1.142-.256-1.7-.4a.335.335,0,0,1-.28-.443.352.352,0,0,1,.443-.3c.583.117,1.166.233,1.725.373A.378.378,0,0,1-391.79,108.117Z" transform="translate(0 -13.275)" fill="#e2211d"/>
    <path id="Caminho_161" data-name="Caminho 161" d="M-387.1,100.1c-.117.21-.326.256-.606.117-.443-.256-.909-.513-1.352-.793a.4.4,0,0,1-.187-.466.352.352,0,0,1,.373-.256.684.684,0,0,1,.233.07c.443.256.886.513,1.306.769C-387.055,99.7-386.985,99.912-387.1,100.1Z" transform="translate(-3.826 -6.633)" fill="#e2211d"/>
    <path id="Caminho_162" data-name="Caminho 162" d="M-335.389,188.895a.37.37,0,0,1-.536.35c-.513-.28-1.026-.56-1.516-.863a.35.35,0,0,1-.093-.513c.117-.163.28-.256.466-.14.513.28,1.026.583,1.516.863A.34.34,0,0,1-335.389,188.895Z" transform="translate(-43.437 -74.864)" fill="#e2211d"/>
    <path id="Caminho_163" data-name="Caminho 163" d="M-312.624,148.5a.4.4,0,0,1-.583.093l-1.329-.769a.366.366,0,0,1-.21-.443.387.387,0,0,1,.4-.28.528.528,0,0,1,.21.093c.42.256.863.49,1.282.746C-312.578,148.079-312.508,148.312-312.624,148.5Z" transform="translate(-60.956 -43.748)" fill="#e2211d"/>
    <path id="Caminho_164" data-name="Caminho 164" d="M-309.241,142.766a.371.371,0,0,1-.35.28.571.571,0,0,1-.28-.093c-.42-.233-.839-.49-1.259-.723-.256-.163-.35-.35-.233-.56s.326-.257.606-.093l1.329.769A.339.339,0,0,1-309.241,142.766Z" transform="translate(-63.523 -39.438)" fill="#e2211d"/>
    <path id="Caminho_165" data-name="Caminho 165" d="M-309.241,142.766a.371.371,0,0,1-.35.28.571.571,0,0,1-.28-.093c-.42-.233-.839-.49-1.259-.723-.256-.163-.35-.35-.233-.56s.326-.257.606-.093l1.329.769A.339.339,0,0,1-309.241,142.766Z" transform="translate(-63.523 -39.438)" fill="#e2211d"/>
    <path id="Caminho_166" data-name="Caminho 166" d="M-312.624,148.5a.4.4,0,0,1-.583.093l-1.329-.769a.366.366,0,0,1-.21-.443.387.387,0,0,1,.4-.28.528.528,0,0,1,.21.093c.42.256.863.49,1.282.746C-312.578,148.079-312.508,148.312-312.624,148.5Z" transform="translate(-60.956 -43.748)" fill="#e2211d"/>
  </g>
</svg>
