<svg xmlns="http://www.w3.org/2000/svg" width="22.736" height="22" viewBox="0 0 22.736 22">
  <g id="Grupo_45" data-name="Grupo 45" transform="translate(-9.755 -11.487)">
    <path id="Caminho_477" data-name="Caminho 477" d="M15.252,16.977a.378.378,0,0,0-.363.385.363.363,0,1,0,.725-.045A.354.354,0,0,0,15.252,16.977Zm4.421,0a.354.354,0,0,0-.363.34.378.378,0,0,0,.363.385.358.358,0,0,0,.363-.363A.373.373,0,0,0,19.672,16.977Zm.385,2.018a.374.374,0,0,0-.385.34.5.5,0,0,1-.023.181,1.96,1.96,0,0,1-1.723,1.451c-.113,0-.091-.068-.091-.136v-.884a.284.284,0,0,1,.136-.249,6.42,6.42,0,0,0,.635-.453.917.917,0,0,0,.295-1.02.868.868,0,0,0-.839-.567H16.884a.794.794,0,0,0-.771.5.893.893,0,0,0,.34,1.134,2.327,2.327,0,0,1,.635.476c.136.2.023.521.045.793,0,.408,0,.408-.385.295-.771-.249-1.406-.657-1.451-1.587a.341.341,0,0,0-.385-.317.347.347,0,0,0-.34.385,2.034,2.034,0,0,0,.385,1.179,3.017,3.017,0,0,0,2.2,1.179,3.131,3.131,0,0,0,2.879-1.134,1.948,1.948,0,0,0,.431-1.2A.477.477,0,0,0,20.058,18.994Zm-2.7.136c-.181-.136-.363-.249-.544-.385a.183.183,0,0,1-.091-.2c.023-.091.113-.091.181-.091h1.088a.145.145,0,0,1,.091.272,5.614,5.614,0,0,0-.589.431C17.473,19.2,17.428,19.176,17.36,19.13Zm2.7-.136a.374.374,0,0,0-.385.34.5.5,0,0,1-.023.181,1.96,1.96,0,0,1-1.723,1.451c-.113,0-.091-.068-.091-.136v-.884a.284.284,0,0,1,.136-.249,6.42,6.42,0,0,0,.635-.453.917.917,0,0,0,.295-1.02.868.868,0,0,0-.839-.567H16.884a.794.794,0,0,0-.771.5.893.893,0,0,0,.34,1.134,2.327,2.327,0,0,1,.635.476c.136.2.023.521.045.793,0,.408,0,.408-.385.295-.771-.249-1.406-.657-1.451-1.587a.341.341,0,0,0-.385-.317.347.347,0,0,0-.34.385,2.034,2.034,0,0,0,.385,1.179,3.017,3.017,0,0,0,2.2,1.179,3.131,3.131,0,0,0,2.879-1.134,1.948,1.948,0,0,0,.431-1.2A.477.477,0,0,0,20.058,18.994Zm-2.7.136c-.181-.136-.363-.249-.544-.385a.183.183,0,0,1-.091-.2c.023-.091.113-.091.181-.091h1.088a.145.145,0,0,1,.091.272,5.614,5.614,0,0,0-.589.431C17.473,19.2,17.428,19.176,17.36,19.13Zm2.312-2.154a.354.354,0,0,0-.363.34.378.378,0,0,0,.363.385.358.358,0,0,0,.363-.363A.373.373,0,0,0,19.672,16.977Zm-4.421,0a.378.378,0,0,0-.363.385.363.363,0,1,0,.725-.045A.354.354,0,0,0,15.252,16.977Zm0,0a.378.378,0,0,0-.363.385.363.363,0,1,0,.725-.045A.354.354,0,0,0,15.252,16.977Zm4.421,0a.354.354,0,0,0-.363.34.378.378,0,0,0,.363.385.358.358,0,0,0,.363-.363A.373.373,0,0,0,19.672,16.977Zm.385,2.018a.374.374,0,0,0-.385.34.5.5,0,0,1-.023.181,1.96,1.96,0,0,1-1.723,1.451c-.113,0-.091-.068-.091-.136v-.884a.284.284,0,0,1,.136-.249,6.42,6.42,0,0,0,.635-.453.917.917,0,0,0,.295-1.02.868.868,0,0,0-.839-.567H16.884a.794.794,0,0,0-.771.5.893.893,0,0,0,.34,1.134,2.327,2.327,0,0,1,.635.476c.136.2.023.521.045.793,0,.408,0,.408-.385.295-.771-.249-1.406-.657-1.451-1.587a.341.341,0,0,0-.385-.317.347.347,0,0,0-.34.385,2.034,2.034,0,0,0,.385,1.179,3.017,3.017,0,0,0,2.2,1.179,3.131,3.131,0,0,0,2.879-1.134,1.948,1.948,0,0,0,.431-1.2A.477.477,0,0,0,20.058,18.994Zm-2.7.136c-.181-.136-.363-.249-.544-.385a.183.183,0,0,1-.091-.2c.023-.091.113-.091.181-.091h1.088a.145.145,0,0,1,.091.272,5.614,5.614,0,0,0-.589.431C17.473,19.2,17.428,19.176,17.36,19.13Zm2.7-.136a.374.374,0,0,0-.385.34.5.5,0,0,1-.023.181,1.96,1.96,0,0,1-1.723,1.451c-.113,0-.091-.068-.091-.136v-.884a.284.284,0,0,1,.136-.249,6.42,6.42,0,0,0,.635-.453.917.917,0,0,0,.295-1.02.868.868,0,0,0-.839-.567H16.884a.794.794,0,0,0-.771.5.893.893,0,0,0,.34,1.134,2.327,2.327,0,0,1,.635.476c.136.2.023.521.045.793,0,.408,0,.408-.385.295-.771-.249-1.406-.657-1.451-1.587a.341.341,0,0,0-.385-.317.347.347,0,0,0-.34.385,2.034,2.034,0,0,0,.385,1.179,3.017,3.017,0,0,0,2.2,1.179,3.131,3.131,0,0,0,2.879-1.134,1.948,1.948,0,0,0,.431-1.2A.477.477,0,0,0,20.058,18.994Zm-2.7.136c-.181-.136-.363-.249-.544-.385a.183.183,0,0,1-.091-.2c.023-.091.113-.091.181-.091h1.088a.145.145,0,0,1,.091.272,5.614,5.614,0,0,0-.589.431C17.473,19.2,17.428,19.176,17.36,19.13Zm2.312-2.154a.354.354,0,0,0-.363.34.378.378,0,0,0,.363.385.358.358,0,0,0,.363-.363A.373.373,0,0,0,19.672,16.977Zm-4.421,0a.378.378,0,0,0-.363.385.363.363,0,1,0,.725-.045A.354.354,0,0,0,15.252,16.977Zm0,0a.378.378,0,0,0-.363.385.363.363,0,1,0,.725-.045A.354.354,0,0,0,15.252,16.977Zm4.421,0a.354.354,0,0,0-.363.34.378.378,0,0,0,.363.385.358.358,0,0,0,.363-.363A.373.373,0,0,0,19.672,16.977Zm.385,2.018a.374.374,0,0,0-.385.34.5.5,0,0,1-.023.181,1.96,1.96,0,0,1-1.723,1.451c-.113,0-.091-.068-.091-.136v-.884a.284.284,0,0,1,.136-.249,6.42,6.42,0,0,0,.635-.453.917.917,0,0,0,.295-1.02.868.868,0,0,0-.839-.567H16.884a.794.794,0,0,0-.771.5.893.893,0,0,0,.34,1.134,2.327,2.327,0,0,1,.635.476c.136.2.023.521.045.793,0,.408,0,.408-.385.295-.771-.249-1.406-.657-1.451-1.587a.341.341,0,0,0-.385-.317.347.347,0,0,0-.34.385,2.034,2.034,0,0,0,.385,1.179,3.017,3.017,0,0,0,2.2,1.179,3.131,3.131,0,0,0,2.879-1.134,1.948,1.948,0,0,0,.431-1.2A.477.477,0,0,0,20.058,18.994Zm-2.7.136c-.181-.136-.363-.249-.544-.385a.183.183,0,0,1-.091-.2c.023-.091.113-.091.181-.091h1.088a.145.145,0,0,1,.091.272,5.614,5.614,0,0,0-.589.431C17.473,19.2,17.428,19.176,17.36,19.13Zm2.7-.136a.374.374,0,0,0-.385.34.5.5,0,0,1-.023.181,1.96,1.96,0,0,1-1.723,1.451c-.113,0-.091-.068-.091-.136v-.884a.284.284,0,0,1,.136-.249,6.42,6.42,0,0,0,.635-.453.917.917,0,0,0,.295-1.02.868.868,0,0,0-.839-.567H16.884a.794.794,0,0,0-.771.5.893.893,0,0,0,.34,1.134,2.327,2.327,0,0,1,.635.476c.136.2.023.521.045.793,0,.408,0,.408-.385.295-.771-.249-1.406-.657-1.451-1.587a.341.341,0,0,0-.385-.317.347.347,0,0,0-.34.385,2.034,2.034,0,0,0,.385,1.179,3.017,3.017,0,0,0,2.2,1.179,3.131,3.131,0,0,0,2.879-1.134,1.948,1.948,0,0,0,.431-1.2A.477.477,0,0,0,20.058,18.994Zm-2.7.136c-.181-.136-.363-.249-.544-.385a.183.183,0,0,1-.091-.2c.023-.091.113-.091.181-.091h1.088a.145.145,0,0,1,.091.272,5.614,5.614,0,0,0-.589.431C17.473,19.2,17.428,19.176,17.36,19.13Zm2.312-2.154a.354.354,0,0,0-.363.34.378.378,0,0,0,.363.385.358.358,0,0,0,.363-.363A.373.373,0,0,0,19.672,16.977Zm-4.421,0a.378.378,0,0,0-.363.385.363.363,0,1,0,.725-.045A.354.354,0,0,0,15.252,16.977Zm0,0a.378.378,0,0,0-.363.385.363.363,0,1,0,.725-.045A.354.354,0,0,0,15.252,16.977Zm4.421,0a.354.354,0,0,0-.363.34.378.378,0,0,0,.363.385.358.358,0,0,0,.363-.363A.373.373,0,0,0,19.672,16.977Zm.385,2.018a.374.374,0,0,0-.385.34.5.5,0,0,1-.023.181,1.96,1.96,0,0,1-1.723,1.451c-.113,0-.091-.068-.091-.136v-.884a.284.284,0,0,1,.136-.249,6.42,6.42,0,0,0,.635-.453.917.917,0,0,0,.295-1.02.868.868,0,0,0-.839-.567H16.884a.794.794,0,0,0-.771.5.893.893,0,0,0,.34,1.134,2.327,2.327,0,0,1,.635.476c.136.2.023.521.045.793,0,.408,0,.408-.385.295-.771-.249-1.406-.657-1.451-1.587a.341.341,0,0,0-.385-.317.347.347,0,0,0-.34.385,2.034,2.034,0,0,0,.385,1.179,3.017,3.017,0,0,0,2.2,1.179,3.131,3.131,0,0,0,2.879-1.134,1.948,1.948,0,0,0,.431-1.2A.477.477,0,0,0,20.058,18.994Zm-2.7.136c-.181-.136-.363-.249-.544-.385a.183.183,0,0,1-.091-.2c.023-.091.113-.091.181-.091h1.088a.145.145,0,0,1,.091.272,5.614,5.614,0,0,0-.589.431C17.473,19.2,17.428,19.176,17.36,19.13Zm9.658,2.993A1.471,1.471,0,0,0,25.544,23.6a1.451,1.451,0,0,0,1.474,1.451,1.466,1.466,0,0,0,1.451-1.474A1.432,1.432,0,0,0,27.018,22.123Zm0,2.2a.721.721,0,0,1-.725-.748.737.737,0,0,1,1.474,0A.755.755,0,0,1,27.018,24.322Zm0-2.2A1.471,1.471,0,0,0,25.544,23.6a1.451,1.451,0,0,0,1.474,1.451,1.466,1.466,0,0,0,1.451-1.474A1.432,1.432,0,0,0,27.018,22.123Zm0,2.2a.721.721,0,0,1-.725-.748.737.737,0,0,1,1.474,0A.755.755,0,0,1,27.018,24.322Zm-6.96-5.328a.374.374,0,0,0-.385.34.5.5,0,0,1-.023.181,1.96,1.96,0,0,1-1.723,1.451c-.113,0-.091-.068-.091-.136v-.884a.284.284,0,0,1,.136-.249,6.42,6.42,0,0,0,.635-.453.917.917,0,0,0,.295-1.02.868.868,0,0,0-.839-.567H16.884a.794.794,0,0,0-.771.5.893.893,0,0,0,.34,1.134,2.327,2.327,0,0,1,.635.476c.136.2.023.521.045.793,0,.408,0,.408-.385.295-.771-.249-1.406-.657-1.451-1.587a.341.341,0,0,0-.385-.317.347.347,0,0,0-.34.385,2.034,2.034,0,0,0,.385,1.179,3.017,3.017,0,0,0,2.2,1.179,3.131,3.131,0,0,0,2.879-1.134,1.948,1.948,0,0,0,.431-1.2A.477.477,0,0,0,20.058,18.994Zm-2.7.136c-.181-.136-.363-.249-.544-.385a.183.183,0,0,1-.091-.2c.023-.091.113-.091.181-.091h1.088a.145.145,0,0,1,.091.272,5.614,5.614,0,0,0-.589.431C17.473,19.2,17.428,19.176,17.36,19.13Zm2.312-2.154a.354.354,0,0,0-.363.34.378.378,0,0,0,.363.385.358.358,0,0,0,.363-.363A.373.373,0,0,0,19.672,16.977Zm-4.421,0a.378.378,0,0,0-.363.385.363.363,0,1,0,.725-.045A.354.354,0,0,0,15.252,16.977Zm0,0a.378.378,0,0,0-.363.385.363.363,0,1,0,.725-.045A.354.354,0,0,0,15.252,16.977Zm4.421,0a.354.354,0,0,0-.363.34.378.378,0,0,0,.363.385.358.358,0,0,0,.363-.363A.373.373,0,0,0,19.672,16.977Zm.385,2.018a.374.374,0,0,0-.385.34.5.5,0,0,1-.023.181,1.96,1.96,0,0,1-1.723,1.451c-.113,0-.091-.068-.091-.136v-.884a.284.284,0,0,1,.136-.249,6.42,6.42,0,0,0,.635-.453.917.917,0,0,0,.295-1.02.868.868,0,0,0-.839-.567H16.884a.794.794,0,0,0-.771.5.893.893,0,0,0,.34,1.134,2.327,2.327,0,0,1,.635.476c.136.2.023.521.045.793,0,.408,0,.408-.385.295-.771-.249-1.406-.657-1.451-1.587a.341.341,0,0,0-.385-.317.347.347,0,0,0-.34.385,2.034,2.034,0,0,0,.385,1.179,3.017,3.017,0,0,0,2.2,1.179,3.131,3.131,0,0,0,2.879-1.134,1.948,1.948,0,0,0,.431-1.2A.477.477,0,0,0,20.058,18.994Zm-2.7.136c-.181-.136-.363-.249-.544-.385a.183.183,0,0,1-.091-.2c.023-.091.113-.091.181-.091h1.088a.145.145,0,0,1,.091.272,5.614,5.614,0,0,0-.589.431C17.473,19.2,17.428,19.176,17.36,19.13Zm9.658,2.993A1.471,1.471,0,0,0,25.544,23.6a1.451,1.451,0,0,0,1.474,1.451,1.466,1.466,0,0,0,1.451-1.474A1.432,1.432,0,0,0,27.018,22.123Zm0,2.2a.721.721,0,0,1-.725-.748.737.737,0,0,1,1.474,0A.755.755,0,0,1,27.018,24.322Zm0-2.2A1.471,1.471,0,0,0,25.544,23.6a1.451,1.451,0,0,0,1.474,1.451,1.466,1.466,0,0,0,1.451-1.474A1.432,1.432,0,0,0,27.018,22.123Zm0,2.2a.721.721,0,0,1-.725-.748.737.737,0,0,1,1.474,0A.755.755,0,0,1,27.018,24.322Zm-6.96-5.328a.374.374,0,0,0-.385.34.5.5,0,0,1-.023.181,1.96,1.96,0,0,1-1.723,1.451c-.113,0-.091-.068-.091-.136v-.884a.284.284,0,0,1,.136-.249,6.42,6.42,0,0,0,.635-.453.917.917,0,0,0,.295-1.02.868.868,0,0,0-.839-.567H16.884a.794.794,0,0,0-.771.5.893.893,0,0,0,.34,1.134,2.327,2.327,0,0,1,.635.476c.136.2.023.521.045.793,0,.408,0,.408-.385.295-.771-.249-1.406-.657-1.451-1.587a.341.341,0,0,0-.385-.317.347.347,0,0,0-.34.385,2.034,2.034,0,0,0,.385,1.179,3.017,3.017,0,0,0,2.2,1.179,3.131,3.131,0,0,0,2.879-1.134,1.948,1.948,0,0,0,.431-1.2A.477.477,0,0,0,20.058,18.994Zm-2.7.136c-.181-.136-.363-.249-.544-.385a.183.183,0,0,1-.091-.2c.023-.091.113-.091.181-.091h1.088a.145.145,0,0,1,.091.272,5.614,5.614,0,0,0-.589.431C17.473,19.2,17.428,19.176,17.36,19.13Zm2.312-2.154a.354.354,0,0,0-.363.34.378.378,0,0,0,.363.385.358.358,0,0,0,.363-.363A.373.373,0,0,0,19.672,16.977Zm-4.421,0a.378.378,0,0,0-.363.385.363.363,0,1,0,.725-.045A.354.354,0,0,0,15.252,16.977Zm0,0a.378.378,0,0,0-.363.385.363.363,0,1,0,.725-.045A.354.354,0,0,0,15.252,16.977Zm4.421,0a.354.354,0,0,0-.363.34.378.378,0,0,0,.363.385.358.358,0,0,0,.363-.363A.373.373,0,0,0,19.672,16.977Zm.385,2.018a.374.374,0,0,0-.385.34.5.5,0,0,1-.023.181,1.96,1.96,0,0,1-1.723,1.451c-.113,0-.091-.068-.091-.136v-.884a.284.284,0,0,1,.136-.249,6.42,6.42,0,0,0,.635-.453.917.917,0,0,0,.295-1.02.868.868,0,0,0-.839-.567H16.884a.794.794,0,0,0-.771.5.893.893,0,0,0,.34,1.134,2.327,2.327,0,0,1,.635.476c.136.2.023.521.045.793,0,.408,0,.408-.385.295-.771-.249-1.406-.657-1.451-1.587a.341.341,0,0,0-.385-.317.347.347,0,0,0-.34.385,2.034,2.034,0,0,0,.385,1.179,3.017,3.017,0,0,0,2.2,1.179,3.131,3.131,0,0,0,2.879-1.134,1.948,1.948,0,0,0,.431-1.2A.477.477,0,0,0,20.058,18.994Zm-2.7.136c-.181-.136-.363-.249-.544-.385a.183.183,0,0,1-.091-.2c.023-.091.113-.091.181-.091h1.088a.145.145,0,0,1,.091.272,5.614,5.614,0,0,0-.589.431C17.473,19.2,17.428,19.176,17.36,19.13Zm9.658,2.993A1.471,1.471,0,0,0,25.544,23.6a1.451,1.451,0,0,0,1.474,1.451,1.466,1.466,0,0,0,1.451-1.474A1.432,1.432,0,0,0,27.018,22.123Zm0,2.2a.721.721,0,0,1-.725-.748.737.737,0,0,1,1.474,0A.755.755,0,0,1,27.018,24.322Zm3.99,5.3c-.34-.7-.7-1.406-1.043-2.108a.368.368,0,0,0-.363-.249.389.389,0,0,0-.363.249c-.34.7-.7,1.406-1.043,2.108-.159.317,0,.567.363.589h2.086C30.985,30.194,31.166,29.944,31.008,29.627Zm-1.9-.181.5-1c.045.068.068.091.068.136.136.295.295.567.431.861Zm1.9.181c-.34-.7-.7-1.406-1.043-2.108a.368.368,0,0,0-.363-.249.389.389,0,0,0-.363.249c-.34.7-.7,1.406-1.043,2.108-.159.317,0,.567.363.589h2.086C30.985,30.194,31.166,29.944,31.008,29.627Zm-1.9-.181.5-1c.045.068.068.091.068.136.136.295.295.567.431.861Zm-2.086-7.323A1.471,1.471,0,0,0,25.544,23.6a1.451,1.451,0,0,0,1.474,1.451,1.466,1.466,0,0,0,1.451-1.474A1.432,1.432,0,0,0,27.018,22.123Zm0,2.2a.721.721,0,0,1-.725-.748.737.737,0,0,1,1.474,0A.755.755,0,0,1,27.018,24.322Zm-6.96-5.328a.374.374,0,0,0-.385.34.5.5,0,0,1-.023.181,1.96,1.96,0,0,1-1.723,1.451c-.113,0-.091-.068-.091-.136v-.884a.284.284,0,0,1,.136-.249,6.42,6.42,0,0,0,.635-.453.917.917,0,0,0,.295-1.02.868.868,0,0,0-.839-.567H16.884a.794.794,0,0,0-.771.5.893.893,0,0,0,.34,1.134,2.327,2.327,0,0,1,.635.476c.136.2.023.521.045.793,0,.408,0,.408-.385.295-.771-.249-1.406-.657-1.451-1.587a.341.341,0,0,0-.385-.317.347.347,0,0,0-.34.385,2.034,2.034,0,0,0,.385,1.179,3.017,3.017,0,0,0,2.2,1.179,3.131,3.131,0,0,0,2.879-1.134,1.948,1.948,0,0,0,.431-1.2A.477.477,0,0,0,20.058,18.994Zm-2.7.136c-.181-.136-.363-.249-.544-.385a.183.183,0,0,1-.091-.2c.023-.091.113-.091.181-.091h1.088a.145.145,0,0,1,.091.272,5.614,5.614,0,0,0-.589.431C17.473,19.2,17.428,19.176,17.36,19.13ZM19.672,17.7a.363.363,0,1,0,0-.725.363.363,0,1,0,0,.725Zm-4.4,0a.346.346,0,0,0,.34-.385.373.373,0,0,0-.363-.363.378.378,0,0,0-.363.385A.362.362,0,0,0,15.274,17.7Zm16.8,8.093h-1.9c-.181,0-.2-.045-.2-.2V21.148a.848.848,0,0,0-.113-.408c-.816-1.179-1.632-2.335-2.471-3.514-.227-.317-.5-.317-.7,0-.816,1.179-1.655,2.358-2.471,3.537a.685.685,0,0,0-.113.363v2c0,.045.045.113-.045.159a6.083,6.083,0,0,0-1.95-1.61c.023-.023.023-.045.045-.068a5.549,5.549,0,0,0,1-5.078c-.045-.136-.023-.2.113-.295a2.427,2.427,0,0,0,1.2-2.086A2.574,2.574,0,0,0,19.7,12.714c-.091.136-.159.181-.317.136a7.237,7.237,0,0,0-3.809,0c-.159.045-.227.023-.317-.136a2.517,2.517,0,0,0-2.675-1.179,2.629,2.629,0,0,0-2.04,2,2.6,2.6,0,0,0,1.156,2.7c.136.091.159.136.113.295a5.839,5.839,0,0,0,.023,3.242,5.174,5.174,0,0,0,1.02,1.9c-.045.023-.068.045-.113.068a5.482,5.482,0,0,0-2.97,4.534,2.224,2.224,0,0,0,1.315,2.267c.136.045.113.091.068.2a3.528,3.528,0,0,0-.091,2.675,2.776,2.776,0,0,0,4.829,1.043c.091-.113.159-.045.227-.023a2.978,2.978,0,0,0,2.63,0,.2.2,0,0,1,.295.068,2.6,2.6,0,0,0,2,.952,2.812,2.812,0,0,0,2.607-1.632c.091-.136.159-.2.317-.2h8.048c.34,0,.476-.136.476-.453V26.2C32.527,25.931,32.413,25.8,32.073,25.8ZM26.9,18.133c.091-.136.136-.136.2,0,.567.839,1.156,1.655,1.723,2.471-.159.045-3.265.068-3.7.023C25.771,19.788,26.338,18.949,26.9,18.133Zm-4.829-5.917a1.835,1.835,0,0,1,1.587,1.428,1.9,1.9,0,0,1-.725,1.9c-.091.068-.136.068-.2-.045a5.1,5.1,0,0,0-2.448-2.335A1.769,1.769,0,0,1,22.075,12.216Zm-10.088,3.31a1.877,1.877,0,0,1-.725-1.927,1.82,1.82,0,0,1,3.333-.544.083.083,0,0,1,.023.068,5.149,5.149,0,0,0-2.108,1.768,2.891,2.891,0,0,0-.34.567C12.146,15.594,12.1,15.616,11.987,15.526Zm.363,3.038a4.456,4.456,0,0,1,2.244-4.557,5.482,5.482,0,0,1,2.879-.7,5.31,5.31,0,0,1,3.015.816,4.491,4.491,0,0,1,2.086,4.353,4.6,4.6,0,0,1-4.4,4.353,6.3,6.3,0,0,1-2.9-.34A4.4,4.4,0,0,1,12.35,18.564Zm-.907,9.34a1.483,1.483,0,0,1-.952-1.428,4.808,4.808,0,0,1,2.72-4.194.243.243,0,0,1,.317.023,5.362,5.362,0,0,0,1.134.725c.068.023.159.045.068.159a6.305,6.305,0,0,0-1.292,3.537c-.023.159-.068.2-.227.249a2.647,2.647,0,0,0-1.474.861C11.647,27.949,11.579,27.949,11.443,27.9Zm3.718,4.307a1.951,1.951,0,0,1-2.788-.045,2.842,2.842,0,0,1-.113-3.786,2.012,2.012,0,0,1,3.378.431A2.9,2.9,0,0,1,16,30.33,2.648,2.648,0,0,1,15.161,32.211Zm3.083-2.584a3.545,3.545,0,0,0,.249,2c.068.136.023.181-.091.227a2.358,2.358,0,0,1-1.814,0c-.159-.068-.159-.113-.113-.272a3.545,3.545,0,0,0-.589-3.718,2.8,2.8,0,0,0-1.542-.929c-.091-.023-.159-.023-.159-.159a5.729,5.729,0,0,1,1.2-3.219.367.367,0,0,1,.431-.159A7.091,7.091,0,0,0,19.2,23.37c.136-.045.2.045.295.113a5.315,5.315,0,0,1,1.179,2.652,1.428,1.428,0,0,1,.068.68c-.068.227-.385.159-.589.249A3.337,3.337,0,0,0,18.244,29.627Zm4.126,2.7a1.957,1.957,0,0,1-2.766-.272,2.877,2.877,0,0,1,.023-3.7,2.012,2.012,0,0,1,3.355.431,2.959,2.959,0,0,1,.363,1.474A2.606,2.606,0,0,1,22.37,32.325Zm1.043-4.375c-.091.023-.136-.023-.181-.091a2.768,2.768,0,0,0-1.564-.907c-.159-.023-.136-.113-.136-.2A6.562,6.562,0,0,0,20.761,24a5.979,5.979,0,0,0-.521-.793c-.068-.091-.113-.136.045-.2a4.323,4.323,0,0,0,1.179-.748.172.172,0,0,1,.227-.023,4.827,4.827,0,0,1,2.766,4.013c0,.113.023.2.023.317A1.6,1.6,0,0,1,23.413,27.949Zm.567,1.406a2.774,2.774,0,0,0-.2-.612c-.045-.091-.045-.136.068-.159a1.983,1.983,0,0,0,.725-.5,1.749,1.749,0,0,1,.589-.068c.045.023.023.091.045.113v1.179c0,.113,0,.159-.136.159-.295-.023-.612,0-.907,0C24.025,29.468,24,29.445,23.98,29.355Zm2.675,1.451c0,.113-.023.136-.136.136H24.025a5.582,5.582,0,0,0,.045-.589c0-.136.045-.136.159-.136h1.247c.317,0,.431-.136.453-.453v-2.04c0-.317-.136-.453-.453-.453h-.408a3.329,3.329,0,0,0,.113-.657c0-.113.068-.068.136-.068h1.224c.113,0,.136.045.136.136C26.655,28.04,26.655,29.423,26.655,30.806ZM25.272,25.8c-.159,0-.181-.068-.227-.2a10.108,10.108,0,0,1-.227-3.2v-.839c0-.136.045-.159.159-.159h4.058c.159,0,.181.045.181.181v4.035c0,.159-.023.181-.181.181ZM31.8,30.76c0,.159-.045.181-.181.181H27.584c-.159,0-.181-.045-.181-.181V26.725c0-.159.045-.181.181-.181H31.62c.159,0,.181.045.181.181Zm-1.859-3.242a.368.368,0,0,0-.363-.249.389.389,0,0,0-.363.249c-.34.7-.7,1.406-1.043,2.108-.159.317,0,.567.363.589h2.086c.363,0,.544-.249.363-.589C30.645,28.924,30.3,28.221,29.942,27.518ZM29.1,29.445l.5-1c.045.068.068.091.068.136.136.295.295.567.431.861Zm-2.086-7.323A1.471,1.471,0,0,0,25.544,23.6a1.451,1.451,0,0,0,1.474,1.451,1.466,1.466,0,0,0,1.451-1.474A1.432,1.432,0,0,0,27.018,22.123Zm0,2.2a.721.721,0,0,1-.725-.748.737.737,0,0,1,1.474,0A.755.755,0,0,1,27.018,24.322Zm-9.907-2.584A3.131,3.131,0,0,0,19.99,20.6a1.948,1.948,0,0,0,.431-1.2.363.363,0,0,0-.725-.045.5.5,0,0,1-.023.181,1.96,1.96,0,0,1-1.723,1.451c-.113,0-.091-.068-.091-.136v-.884a.284.284,0,0,1,.136-.249,6.42,6.42,0,0,0,.635-.453.917.917,0,0,0,.295-1.02.868.868,0,0,0-.839-.567H16.907a.794.794,0,0,0-.771.5.893.893,0,0,0,.34,1.134,2.327,2.327,0,0,1,.635.476c.136.2.023.521.045.793,0,.408,0,.408-.385.295-.771-.249-1.406-.657-1.451-1.587a.341.341,0,0,0-.385-.317.347.347,0,0,0-.34.385,2.034,2.034,0,0,0,.385,1.179A2.725,2.725,0,0,0,17.111,21.737Zm-.272-2.993a.183.183,0,0,1-.091-.2c.023-.091.113-.091.181-.091h1.088a.145.145,0,0,1,.091.272,5.614,5.614,0,0,0-.589.431.109.109,0,0,1-.159-.023C17.2,18.994,17.02,18.881,16.839,18.745ZM19.672,17.7a.363.363,0,1,0,0-.725.363.363,0,1,0,0,.725Zm-4.4,0a.346.346,0,0,0,.34-.385.373.373,0,0,0-.363-.363.378.378,0,0,0-.363.385A.362.362,0,0,0,15.274,17.7Zm-.023-.725a.378.378,0,0,0-.363.385.363.363,0,1,0,.725-.045A.354.354,0,0,0,15.252,16.977Zm4.421,0a.354.354,0,0,0-.363.34.378.378,0,0,0,.363.385.358.358,0,0,0,.363-.363A.373.373,0,0,0,19.672,16.977Zm.385,2.018a.374.374,0,0,0-.385.34.5.5,0,0,1-.023.181,1.96,1.96,0,0,1-1.723,1.451c-.113,0-.091-.068-.091-.136v-.884a.284.284,0,0,1,.136-.249,6.42,6.42,0,0,0,.635-.453.917.917,0,0,0,.295-1.02.868.868,0,0,0-.839-.567H16.884a.794.794,0,0,0-.771.5.893.893,0,0,0,.34,1.134,2.327,2.327,0,0,1,.635.476c.136.2.023.521.045.793,0,.408,0,.408-.385.295-.771-.249-1.406-.657-1.451-1.587a.341.341,0,0,0-.385-.317.347.347,0,0,0-.34.385,2.034,2.034,0,0,0,.385,1.179,3.017,3.017,0,0,0,2.2,1.179,3.131,3.131,0,0,0,2.879-1.134,1.948,1.948,0,0,0,.431-1.2A.477.477,0,0,0,20.058,18.994Zm-2.7.136c-.181-.136-.363-.249-.544-.385a.183.183,0,0,1-.091-.2c.023-.091.113-.091.181-.091h1.088a.145.145,0,0,1,.091.272,5.614,5.614,0,0,0-.589.431C17.473,19.2,17.428,19.176,17.36,19.13Zm9.658,2.993A1.471,1.471,0,0,0,25.544,23.6a1.451,1.451,0,0,0,1.474,1.451,1.466,1.466,0,0,0,1.451-1.474A1.432,1.432,0,0,0,27.018,22.123Zm0,2.2a.721.721,0,0,1-.725-.748.737.737,0,0,1,1.474,0A.755.755,0,0,1,27.018,24.322Zm0-2.2A1.471,1.471,0,0,0,25.544,23.6a1.451,1.451,0,0,0,1.474,1.451,1.466,1.466,0,0,0,1.451-1.474A1.432,1.432,0,0,0,27.018,22.123Zm0,2.2a.721.721,0,0,1-.725-.748.737.737,0,0,1,1.474,0A.755.755,0,0,1,27.018,24.322Zm-6.96-5.328a.374.374,0,0,0-.385.34.5.5,0,0,1-.023.181,1.96,1.96,0,0,1-1.723,1.451c-.113,0-.091-.068-.091-.136v-.884a.284.284,0,0,1,.136-.249,6.42,6.42,0,0,0,.635-.453.917.917,0,0,0,.295-1.02.868.868,0,0,0-.839-.567H16.884a.794.794,0,0,0-.771.5.893.893,0,0,0,.34,1.134,2.327,2.327,0,0,1,.635.476c.136.2.023.521.045.793,0,.408,0,.408-.385.295-.771-.249-1.406-.657-1.451-1.587a.341.341,0,0,0-.385-.317.347.347,0,0,0-.34.385,2.034,2.034,0,0,0,.385,1.179,3.017,3.017,0,0,0,2.2,1.179,3.131,3.131,0,0,0,2.879-1.134,1.948,1.948,0,0,0,.431-1.2A.477.477,0,0,0,20.058,18.994Zm-2.7.136c-.181-.136-.363-.249-.544-.385a.183.183,0,0,1-.091-.2c.023-.091.113-.091.181-.091h1.088a.145.145,0,0,1,.091.272,5.614,5.614,0,0,0-.589.431C17.473,19.2,17.428,19.176,17.36,19.13Zm2.312-2.154a.354.354,0,0,0-.363.34.378.378,0,0,0,.363.385.358.358,0,0,0,.363-.363A.373.373,0,0,0,19.672,16.977Zm-4.421,0a.378.378,0,0,0-.363.385.363.363,0,1,0,.725-.045A.354.354,0,0,0,15.252,16.977Zm0,0a.378.378,0,0,0-.363.385.363.363,0,1,0,.725-.045A.354.354,0,0,0,15.252,16.977Zm4.421,0a.354.354,0,0,0-.363.34.378.378,0,0,0,.363.385.358.358,0,0,0,.363-.363A.373.373,0,0,0,19.672,16.977Zm.385,2.018a.374.374,0,0,0-.385.34.5.5,0,0,1-.023.181,1.96,1.96,0,0,1-1.723,1.451c-.113,0-.091-.068-.091-.136v-.884a.284.284,0,0,1,.136-.249,6.42,6.42,0,0,0,.635-.453.917.917,0,0,0,.295-1.02.868.868,0,0,0-.839-.567H16.884a.794.794,0,0,0-.771.5.893.893,0,0,0,.34,1.134,2.327,2.327,0,0,1,.635.476c.136.2.023.521.045.793,0,.408,0,.408-.385.295-.771-.249-1.406-.657-1.451-1.587a.341.341,0,0,0-.385-.317.347.347,0,0,0-.34.385,2.034,2.034,0,0,0,.385,1.179,3.017,3.017,0,0,0,2.2,1.179,3.131,3.131,0,0,0,2.879-1.134,1.948,1.948,0,0,0,.431-1.2A.477.477,0,0,0,20.058,18.994Zm-2.7.136c-.181-.136-.363-.249-.544-.385a.183.183,0,0,1-.091-.2c.023-.091.113-.091.181-.091h1.088a.145.145,0,0,1,.091.272,5.614,5.614,0,0,0-.589.431C17.473,19.2,17.428,19.176,17.36,19.13Zm9.658,2.993A1.471,1.471,0,0,0,25.544,23.6a1.451,1.451,0,0,0,1.474,1.451,1.466,1.466,0,0,0,1.451-1.474A1.432,1.432,0,0,0,27.018,22.123Zm0,2.2a.721.721,0,0,1-.725-.748.737.737,0,0,1,1.474,0A.755.755,0,0,1,27.018,24.322Zm0-2.2A1.471,1.471,0,0,0,25.544,23.6a1.451,1.451,0,0,0,1.474,1.451,1.466,1.466,0,0,0,1.451-1.474A1.432,1.432,0,0,0,27.018,22.123Zm0,2.2a.721.721,0,0,1-.725-.748.737.737,0,0,1,1.474,0A.755.755,0,0,1,27.018,24.322Zm-6.96-5.328a.374.374,0,0,0-.385.34.5.5,0,0,1-.023.181,1.96,1.96,0,0,1-1.723,1.451c-.113,0-.091-.068-.091-.136v-.884a.284.284,0,0,1,.136-.249,6.42,6.42,0,0,0,.635-.453.917.917,0,0,0,.295-1.02.868.868,0,0,0-.839-.567H16.884a.794.794,0,0,0-.771.5.893.893,0,0,0,.34,1.134,2.327,2.327,0,0,1,.635.476c.136.2.023.521.045.793,0,.408,0,.408-.385.295-.771-.249-1.406-.657-1.451-1.587a.341.341,0,0,0-.385-.317.347.347,0,0,0-.34.385,2.034,2.034,0,0,0,.385,1.179,3.017,3.017,0,0,0,2.2,1.179,3.131,3.131,0,0,0,2.879-1.134,1.948,1.948,0,0,0,.431-1.2A.477.477,0,0,0,20.058,18.994Zm-2.7.136c-.181-.136-.363-.249-.544-.385a.183.183,0,0,1-.091-.2c.023-.091.113-.091.181-.091h1.088a.145.145,0,0,1,.091.272,5.614,5.614,0,0,0-.589.431C17.473,19.2,17.428,19.176,17.36,19.13Zm2.312-2.154a.354.354,0,0,0-.363.34.378.378,0,0,0,.363.385.358.358,0,0,0,.363-.363A.373.373,0,0,0,19.672,16.977Zm-4.421,0a.378.378,0,0,0-.363.385.363.363,0,1,0,.725-.045A.354.354,0,0,0,15.252,16.977Zm0,0a.378.378,0,0,0-.363.385.363.363,0,1,0,.725-.045A.354.354,0,0,0,15.252,16.977Zm4.421,0a.354.354,0,0,0-.363.34.378.378,0,0,0,.363.385.358.358,0,0,0,.363-.363A.373.373,0,0,0,19.672,16.977Zm.385,2.018a.374.374,0,0,0-.385.34.5.5,0,0,1-.023.181,1.96,1.96,0,0,1-1.723,1.451c-.113,0-.091-.068-.091-.136v-.884a.284.284,0,0,1,.136-.249,6.42,6.42,0,0,0,.635-.453.917.917,0,0,0,.295-1.02.868.868,0,0,0-.839-.567H16.884a.794.794,0,0,0-.771.5.893.893,0,0,0,.34,1.134,2.327,2.327,0,0,1,.635.476c.136.2.023.521.045.793,0,.408,0,.408-.385.295-.771-.249-1.406-.657-1.451-1.587a.341.341,0,0,0-.385-.317.347.347,0,0,0-.34.385,2.034,2.034,0,0,0,.385,1.179,3.017,3.017,0,0,0,2.2,1.179,3.131,3.131,0,0,0,2.879-1.134,1.948,1.948,0,0,0,.431-1.2A.477.477,0,0,0,20.058,18.994Zm-2.7.136c-.181-.136-.363-.249-.544-.385a.183.183,0,0,1-.091-.2c.023-.091.113-.091.181-.091h1.088a.145.145,0,0,1,.091.272,5.614,5.614,0,0,0-.589.431C17.473,19.2,17.428,19.176,17.36,19.13Zm2.7-.136a.374.374,0,0,0-.385.34.5.5,0,0,1-.023.181,1.96,1.96,0,0,1-1.723,1.451c-.113,0-.091-.068-.091-.136v-.884a.284.284,0,0,1,.136-.249,6.42,6.42,0,0,0,.635-.453.917.917,0,0,0,.295-1.02.868.868,0,0,0-.839-.567H16.884a.794.794,0,0,0-.771.5.893.893,0,0,0,.34,1.134,2.327,2.327,0,0,1,.635.476c.136.2.023.521.045.793,0,.408,0,.408-.385.295-.771-.249-1.406-.657-1.451-1.587a.341.341,0,0,0-.385-.317.347.347,0,0,0-.34.385,2.034,2.034,0,0,0,.385,1.179,3.017,3.017,0,0,0,2.2,1.179,3.131,3.131,0,0,0,2.879-1.134,1.948,1.948,0,0,0,.431-1.2A.477.477,0,0,0,20.058,18.994Zm-2.7.136c-.181-.136-.363-.249-.544-.385a.183.183,0,0,1-.091-.2c.023-.091.113-.091.181-.091h1.088a.145.145,0,0,1,.091.272,5.614,5.614,0,0,0-.589.431C17.473,19.2,17.428,19.176,17.36,19.13Zm2.312-2.154a.354.354,0,0,0-.363.34.378.378,0,0,0,.363.385.358.358,0,0,0,.363-.363A.373.373,0,0,0,19.672,16.977Zm-4.421,0a.378.378,0,0,0-.363.385.363.363,0,1,0,.725-.045A.354.354,0,0,0,15.252,16.977Zm0,0a.378.378,0,0,0-.363.385.363.363,0,1,0,.725-.045A.354.354,0,0,0,15.252,16.977Zm4.421,0a.354.354,0,0,0-.363.34.378.378,0,0,0,.363.385.358.358,0,0,0,.363-.363A.373.373,0,0,0,19.672,16.977Zm.385,2.018a.374.374,0,0,0-.385.34.5.5,0,0,1-.023.181,1.96,1.96,0,0,1-1.723,1.451c-.113,0-.091-.068-.091-.136v-.884a.284.284,0,0,1,.136-.249,6.42,6.42,0,0,0,.635-.453.917.917,0,0,0,.295-1.02.868.868,0,0,0-.839-.567H16.884a.794.794,0,0,0-.771.5.893.893,0,0,0,.34,1.134,2.327,2.327,0,0,1,.635.476c.136.2.023.521.045.793,0,.408,0,.408-.385.295-.771-.249-1.406-.657-1.451-1.587a.341.341,0,0,0-.385-.317.347.347,0,0,0-.34.385,2.034,2.034,0,0,0,.385,1.179,3.017,3.017,0,0,0,2.2,1.179,3.131,3.131,0,0,0,2.879-1.134,1.948,1.948,0,0,0,.431-1.2A.477.477,0,0,0,20.058,18.994Zm-2.7.136c-.181-.136-.363-.249-.544-.385a.183.183,0,0,1-.091-.2c.023-.091.113-.091.181-.091h1.088a.145.145,0,0,1,.091.272,5.614,5.614,0,0,0-.589.431C17.473,19.2,17.428,19.176,17.36,19.13Zm2.7-.136a.374.374,0,0,0-.385.34.5.5,0,0,1-.023.181,1.96,1.96,0,0,1-1.723,1.451c-.113,0-.091-.068-.091-.136v-.884a.284.284,0,0,1,.136-.249,6.42,6.42,0,0,0,.635-.453.917.917,0,0,0,.295-1.02.868.868,0,0,0-.839-.567H16.884a.794.794,0,0,0-.771.5.893.893,0,0,0,.34,1.134,2.327,2.327,0,0,1,.635.476c.136.2.023.521.045.793,0,.408,0,.408-.385.295-.771-.249-1.406-.657-1.451-1.587a.341.341,0,0,0-.385-.317.347.347,0,0,0-.34.385,2.034,2.034,0,0,0,.385,1.179,3.017,3.017,0,0,0,2.2,1.179,3.131,3.131,0,0,0,2.879-1.134,1.948,1.948,0,0,0,.431-1.2A.477.477,0,0,0,20.058,18.994Zm-2.7.136c-.181-.136-.363-.249-.544-.385a.183.183,0,0,1-.091-.2c.023-.091.113-.091.181-.091h1.088a.145.145,0,0,1,.091.272,5.614,5.614,0,0,0-.589.431C17.473,19.2,17.428,19.176,17.36,19.13Zm2.312-2.154a.354.354,0,0,0-.363.34.378.378,0,0,0,.363.385.358.358,0,0,0,.363-.363A.373.373,0,0,0,19.672,16.977Zm-4.421,0a.378.378,0,0,0-.363.385.363.363,0,1,0,.725-.045A.354.354,0,0,0,15.252,16.977Zm0,0a.378.378,0,0,0-.363.385.363.363,0,1,0,.725-.045A.354.354,0,0,0,15.252,16.977Zm4.421,0a.354.354,0,0,0-.363.34.378.378,0,0,0,.363.385.358.358,0,0,0,.363-.363A.373.373,0,0,0,19.672,16.977Zm.385,2.018a.374.374,0,0,0-.385.34.5.5,0,0,1-.023.181,1.96,1.96,0,0,1-1.723,1.451c-.113,0-.091-.068-.091-.136v-.884a.284.284,0,0,1,.136-.249,6.42,6.42,0,0,0,.635-.453.917.917,0,0,0,.295-1.02.868.868,0,0,0-.839-.567H16.884a.794.794,0,0,0-.771.5.893.893,0,0,0,.34,1.134,2.327,2.327,0,0,1,.635.476c.136.2.023.521.045.793,0,.408,0,.408-.385.295-.771-.249-1.406-.657-1.451-1.587a.341.341,0,0,0-.385-.317.347.347,0,0,0-.34.385,2.034,2.034,0,0,0,.385,1.179,3.017,3.017,0,0,0,2.2,1.179,3.131,3.131,0,0,0,2.879-1.134,1.948,1.948,0,0,0,.431-1.2A.477.477,0,0,0,20.058,18.994Zm-2.7.136c-.181-.136-.363-.249-.544-.385a.183.183,0,0,1-.091-.2c.023-.091.113-.091.181-.091h1.088a.145.145,0,0,1,.091.272,5.614,5.614,0,0,0-.589.431C17.473,19.2,17.428,19.176,17.36,19.13Zm2.7-.136a.374.374,0,0,0-.385.34.5.5,0,0,1-.023.181,1.96,1.96,0,0,1-1.723,1.451c-.113,0-.091-.068-.091-.136v-.884a.284.284,0,0,1,.136-.249,6.42,6.42,0,0,0,.635-.453.917.917,0,0,0,.295-1.02.868.868,0,0,0-.839-.567H16.884a.794.794,0,0,0-.771.5.893.893,0,0,0,.34,1.134,2.327,2.327,0,0,1,.635.476c.136.2.023.521.045.793,0,.408,0,.408-.385.295-.771-.249-1.406-.657-1.451-1.587a.341.341,0,0,0-.385-.317.347.347,0,0,0-.34.385,2.034,2.034,0,0,0,.385,1.179,3.017,3.017,0,0,0,2.2,1.179,3.131,3.131,0,0,0,2.879-1.134,1.948,1.948,0,0,0,.431-1.2A.477.477,0,0,0,20.058,18.994Zm-2.7.136c-.181-.136-.363-.249-.544-.385a.183.183,0,0,1-.091-.2c.023-.091.113-.091.181-.091h1.088a.145.145,0,0,1,.091.272,5.614,5.614,0,0,0-.589.431C17.473,19.2,17.428,19.176,17.36,19.13Zm2.312-2.154a.354.354,0,0,0-.363.34.378.378,0,0,0,.363.385.358.358,0,0,0,.363-.363A.373.373,0,0,0,19.672,16.977Zm-4.421,0a.378.378,0,0,0-.363.385.363.363,0,1,0,.725-.045A.354.354,0,0,0,15.252,16.977Zm0,0a.378.378,0,0,0-.363.385.363.363,0,1,0,.725-.045A.354.354,0,0,0,15.252,16.977Zm4.421,0a.354.354,0,0,0-.363.34.378.378,0,0,0,.363.385.358.358,0,0,0,.363-.363A.373.373,0,0,0,19.672,16.977Zm.385,2.018a.374.374,0,0,0-.385.34.5.5,0,0,1-.023.181,1.96,1.96,0,0,1-1.723,1.451c-.113,0-.091-.068-.091-.136v-.884a.284.284,0,0,1,.136-.249,6.42,6.42,0,0,0,.635-.453.917.917,0,0,0,.295-1.02.868.868,0,0,0-.839-.567H16.884a.794.794,0,0,0-.771.5.893.893,0,0,0,.34,1.134,2.327,2.327,0,0,1,.635.476c.136.2.023.521.045.793,0,.408,0,.408-.385.295-.771-.249-1.406-.657-1.451-1.587a.341.341,0,0,0-.385-.317.347.347,0,0,0-.34.385,2.034,2.034,0,0,0,.385,1.179,3.017,3.017,0,0,0,2.2,1.179,3.131,3.131,0,0,0,2.879-1.134,1.948,1.948,0,0,0,.431-1.2A.477.477,0,0,0,20.058,18.994Zm-2.7.136c-.181-.136-.363-.249-.544-.385a.183.183,0,0,1-.091-.2c.023-.091.113-.091.181-.091h1.088a.145.145,0,0,1,.091.272,5.614,5.614,0,0,0-.589.431C17.473,19.2,17.428,19.176,17.36,19.13Zm2.7-.136a.374.374,0,0,0-.385.34.5.5,0,0,1-.023.181,1.96,1.96,0,0,1-1.723,1.451c-.113,0-.091-.068-.091-.136v-.884a.284.284,0,0,1,.136-.249,6.42,6.42,0,0,0,.635-.453.917.917,0,0,0,.295-1.02.868.868,0,0,0-.839-.567H16.884a.794.794,0,0,0-.771.5.893.893,0,0,0,.34,1.134,2.327,2.327,0,0,1,.635.476c.136.2.023.521.045.793,0,.408,0,.408-.385.295-.771-.249-1.406-.657-1.451-1.587a.341.341,0,0,0-.385-.317.347.347,0,0,0-.34.385,2.034,2.034,0,0,0,.385,1.179,3.017,3.017,0,0,0,2.2,1.179,3.131,3.131,0,0,0,2.879-1.134,1.948,1.948,0,0,0,.431-1.2A.477.477,0,0,0,20.058,18.994Zm-2.7.136c-.181-.136-.363-.249-.544-.385a.183.183,0,0,1-.091-.2c.023-.091.113-.091.181-.091h1.088a.145.145,0,0,1,.091.272,5.614,5.614,0,0,0-.589.431C17.473,19.2,17.428,19.176,17.36,19.13Zm2.312-2.154a.354.354,0,0,0-.363.34.378.378,0,0,0,.363.385.358.358,0,0,0,.363-.363A.373.373,0,0,0,19.672,16.977Zm-4.421,0a.378.378,0,0,0-.363.385.363.363,0,1,0,.725-.045A.354.354,0,0,0,15.252,16.977Z" fill="#e2211d"/>
    <path id="Caminho_478" data-name="Caminho 478" d="M15.252,16.977a.378.378,0,0,0-.363.385.363.363,0,1,0,.725-.045A.354.354,0,0,0,15.252,16.977Zm4.421,0a.354.354,0,0,0-.363.34.378.378,0,0,0,.363.385.358.358,0,0,0,.363-.363A.373.373,0,0,0,19.672,16.977Zm.385,2.018a.374.374,0,0,0-.385.34.5.5,0,0,1-.023.181,1.96,1.96,0,0,1-1.723,1.451c-.113,0-.091-.068-.091-.136v-.884a.284.284,0,0,1,.136-.249,6.42,6.42,0,0,0,.635-.453.917.917,0,0,0,.295-1.02.868.868,0,0,0-.839-.567H16.884a.794.794,0,0,0-.771.5.893.893,0,0,0,.34,1.134,2.327,2.327,0,0,1,.635.476c.136.2.023.521.045.793,0,.408,0,.408-.385.295-.771-.249-1.406-.657-1.451-1.587a.341.341,0,0,0-.385-.317.347.347,0,0,0-.34.385,2.034,2.034,0,0,0,.385,1.179,3.017,3.017,0,0,0,2.2,1.179,3.131,3.131,0,0,0,2.879-1.134,1.948,1.948,0,0,0,.431-1.2A.477.477,0,0,0,20.058,18.994Zm-2.7.136c-.181-.136-.363-.249-.544-.385a.183.183,0,0,1-.091-.2c.023-.091.113-.091.181-.091h1.088a.145.145,0,0,1,.091.272,5.614,5.614,0,0,0-.589.431C17.473,19.2,17.428,19.176,17.36,19.13Zm2.7-.136a.374.374,0,0,0-.385.34.5.5,0,0,1-.023.181,1.96,1.96,0,0,1-1.723,1.451c-.113,0-.091-.068-.091-.136v-.884a.284.284,0,0,1,.136-.249,6.42,6.42,0,0,0,.635-.453.917.917,0,0,0,.295-1.02.868.868,0,0,0-.839-.567H16.884a.794.794,0,0,0-.771.5.893.893,0,0,0,.34,1.134,2.327,2.327,0,0,1,.635.476c.136.2.023.521.045.793,0,.408,0,.408-.385.295-.771-.249-1.406-.657-1.451-1.587a.341.341,0,0,0-.385-.317.347.347,0,0,0-.34.385,2.034,2.034,0,0,0,.385,1.179,3.017,3.017,0,0,0,2.2,1.179,3.131,3.131,0,0,0,2.879-1.134,1.948,1.948,0,0,0,.431-1.2A.477.477,0,0,0,20.058,18.994Zm-2.7.136c-.181-.136-.363-.249-.544-.385a.183.183,0,0,1-.091-.2c.023-.091.113-.091.181-.091h1.088a.145.145,0,0,1,.091.272,5.614,5.614,0,0,0-.589.431C17.473,19.2,17.428,19.176,17.36,19.13Zm2.312-2.154a.354.354,0,0,0-.363.34.378.378,0,0,0,.363.385.358.358,0,0,0,.363-.363A.373.373,0,0,0,19.672,16.977Zm-4.421,0a.378.378,0,0,0-.363.385.363.363,0,1,0,.725-.045A.354.354,0,0,0,15.252,16.977Zm0,0a.378.378,0,0,0-.363.385.363.363,0,1,0,.725-.045A.354.354,0,0,0,15.252,16.977Zm4.421,0a.354.354,0,0,0-.363.34.378.378,0,0,0,.363.385.358.358,0,0,0,.363-.363A.373.373,0,0,0,19.672,16.977Zm.385,2.018a.374.374,0,0,0-.385.34.5.5,0,0,1-.023.181,1.96,1.96,0,0,1-1.723,1.451c-.113,0-.091-.068-.091-.136v-.884a.284.284,0,0,1,.136-.249,6.42,6.42,0,0,0,.635-.453.917.917,0,0,0,.295-1.02.868.868,0,0,0-.839-.567H16.884a.794.794,0,0,0-.771.5.893.893,0,0,0,.34,1.134,2.327,2.327,0,0,1,.635.476c.136.2.023.521.045.793,0,.408,0,.408-.385.295-.771-.249-1.406-.657-1.451-1.587a.341.341,0,0,0-.385-.317.347.347,0,0,0-.34.385,2.034,2.034,0,0,0,.385,1.179,3.017,3.017,0,0,0,2.2,1.179,3.131,3.131,0,0,0,2.879-1.134,1.948,1.948,0,0,0,.431-1.2A.477.477,0,0,0,20.058,18.994Zm-2.7.136c-.181-.136-.363-.249-.544-.385a.183.183,0,0,1-.091-.2c.023-.091.113-.091.181-.091h1.088a.145.145,0,0,1,.091.272,5.614,5.614,0,0,0-.589.431C17.473,19.2,17.428,19.176,17.36,19.13Zm2.7-.136a.374.374,0,0,0-.385.34.5.5,0,0,1-.023.181,1.96,1.96,0,0,1-1.723,1.451c-.113,0-.091-.068-.091-.136v-.884a.284.284,0,0,1,.136-.249,6.42,6.42,0,0,0,.635-.453.917.917,0,0,0,.295-1.02.868.868,0,0,0-.839-.567H16.884a.794.794,0,0,0-.771.5.893.893,0,0,0,.34,1.134,2.327,2.327,0,0,1,.635.476c.136.2.023.521.045.793,0,.408,0,.408-.385.295-.771-.249-1.406-.657-1.451-1.587a.341.341,0,0,0-.385-.317.347.347,0,0,0-.34.385,2.034,2.034,0,0,0,.385,1.179,3.017,3.017,0,0,0,2.2,1.179,3.131,3.131,0,0,0,2.879-1.134,1.948,1.948,0,0,0,.431-1.2A.477.477,0,0,0,20.058,18.994Zm-2.7.136c-.181-.136-.363-.249-.544-.385a.183.183,0,0,1-.091-.2c.023-.091.113-.091.181-.091h1.088a.145.145,0,0,1,.091.272,5.614,5.614,0,0,0-.589.431C17.473,19.2,17.428,19.176,17.36,19.13Zm2.312-2.154a.354.354,0,0,0-.363.34.378.378,0,0,0,.363.385.358.358,0,0,0,.363-.363A.373.373,0,0,0,19.672,16.977Zm-4.421,0a.378.378,0,0,0-.363.385.363.363,0,1,0,.725-.045A.354.354,0,0,0,15.252,16.977Zm0,0a.378.378,0,0,0-.363.385.363.363,0,1,0,.725-.045A.354.354,0,0,0,15.252,16.977Zm4.421,0a.354.354,0,0,0-.363.34.378.378,0,0,0,.363.385.358.358,0,0,0,.363-.363A.373.373,0,0,0,19.672,16.977Zm.385,2.018a.374.374,0,0,0-.385.34.5.5,0,0,1-.023.181,1.96,1.96,0,0,1-1.723,1.451c-.113,0-.091-.068-.091-.136v-.884a.284.284,0,0,1,.136-.249,6.42,6.42,0,0,0,.635-.453.917.917,0,0,0,.295-1.02.868.868,0,0,0-.839-.567H16.884a.794.794,0,0,0-.771.5.893.893,0,0,0,.34,1.134,2.327,2.327,0,0,1,.635.476c.136.2.023.521.045.793,0,.408,0,.408-.385.295-.771-.249-1.406-.657-1.451-1.587a.341.341,0,0,0-.385-.317.347.347,0,0,0-.34.385,2.034,2.034,0,0,0,.385,1.179,3.017,3.017,0,0,0,2.2,1.179,3.131,3.131,0,0,0,2.879-1.134,1.948,1.948,0,0,0,.431-1.2A.477.477,0,0,0,20.058,18.994Zm-2.7.136c-.181-.136-.363-.249-.544-.385a.183.183,0,0,1-.091-.2c.023-.091.113-.091.181-.091h1.088a.145.145,0,0,1,.091.272,5.614,5.614,0,0,0-.589.431C17.473,19.2,17.428,19.176,17.36,19.13Zm2.7-.136a.374.374,0,0,0-.385.34.5.5,0,0,1-.023.181,1.96,1.96,0,0,1-1.723,1.451c-.113,0-.091-.068-.091-.136v-.884a.284.284,0,0,1,.136-.249,6.42,6.42,0,0,0,.635-.453.917.917,0,0,0,.295-1.02.868.868,0,0,0-.839-.567H16.884a.794.794,0,0,0-.771.5.893.893,0,0,0,.34,1.134,2.327,2.327,0,0,1,.635.476c.136.2.023.521.045.793,0,.408,0,.408-.385.295-.771-.249-1.406-.657-1.451-1.587a.341.341,0,0,0-.385-.317.347.347,0,0,0-.34.385,2.034,2.034,0,0,0,.385,1.179,3.017,3.017,0,0,0,2.2,1.179,3.131,3.131,0,0,0,2.879-1.134,1.948,1.948,0,0,0,.431-1.2A.477.477,0,0,0,20.058,18.994Zm-2.7.136c-.181-.136-.363-.249-.544-.385a.183.183,0,0,1-.091-.2c.023-.091.113-.091.181-.091h1.088a.145.145,0,0,1,.091.272,5.614,5.614,0,0,0-.589.431C17.473,19.2,17.428,19.176,17.36,19.13Zm2.312-2.154a.354.354,0,0,0-.363.34.378.378,0,0,0,.363.385.358.358,0,0,0,.363-.363A.373.373,0,0,0,19.672,16.977Zm-4.421,0a.378.378,0,0,0-.363.385.363.363,0,1,0,.725-.045A.354.354,0,0,0,15.252,16.977Zm0,0a.378.378,0,0,0-.363.385.363.363,0,1,0,.725-.045A.354.354,0,0,0,15.252,16.977Zm4.421,0a.354.354,0,0,0-.363.34.378.378,0,0,0,.363.385.358.358,0,0,0,.363-.363A.373.373,0,0,0,19.672,16.977Zm.385,2.018a.374.374,0,0,0-.385.34.5.5,0,0,1-.023.181,1.96,1.96,0,0,1-1.723,1.451c-.113,0-.091-.068-.091-.136v-.884a.284.284,0,0,1,.136-.249,6.42,6.42,0,0,0,.635-.453.917.917,0,0,0,.295-1.02.868.868,0,0,0-.839-.567H16.884a.794.794,0,0,0-.771.5.893.893,0,0,0,.34,1.134,2.327,2.327,0,0,1,.635.476c.136.2.023.521.045.793,0,.408,0,.408-.385.295-.771-.249-1.406-.657-1.451-1.587a.341.341,0,0,0-.385-.317.347.347,0,0,0-.34.385,2.034,2.034,0,0,0,.385,1.179,3.017,3.017,0,0,0,2.2,1.179,3.131,3.131,0,0,0,2.879-1.134,1.948,1.948,0,0,0,.431-1.2A.477.477,0,0,0,20.058,18.994Zm-2.7.136c-.181-.136-.363-.249-.544-.385a.183.183,0,0,1-.091-.2c.023-.091.113-.091.181-.091h1.088a.145.145,0,0,1,.091.272,5.614,5.614,0,0,0-.589.431C17.473,19.2,17.428,19.176,17.36,19.13Zm9.658,2.993A1.471,1.471,0,0,0,25.544,23.6a1.451,1.451,0,0,0,1.474,1.451,1.466,1.466,0,0,0,1.451-1.474A1.432,1.432,0,0,0,27.018,22.123Zm0,2.2a.721.721,0,0,1-.725-.748.737.737,0,0,1,1.474,0A.755.755,0,0,1,27.018,24.322Zm0-2.2A1.471,1.471,0,0,0,25.544,23.6a1.451,1.451,0,0,0,1.474,1.451,1.466,1.466,0,0,0,1.451-1.474A1.432,1.432,0,0,0,27.018,22.123Zm0,2.2a.721.721,0,0,1-.725-.748.737.737,0,0,1,1.474,0A.755.755,0,0,1,27.018,24.322Zm-6.96-5.328a.374.374,0,0,0-.385.34.5.5,0,0,1-.023.181,1.96,1.96,0,0,1-1.723,1.451c-.113,0-.091-.068-.091-.136v-.884a.284.284,0,0,1,.136-.249,6.42,6.42,0,0,0,.635-.453.917.917,0,0,0,.295-1.02.868.868,0,0,0-.839-.567H16.884a.794.794,0,0,0-.771.5.893.893,0,0,0,.34,1.134,2.327,2.327,0,0,1,.635.476c.136.2.023.521.045.793,0,.408,0,.408-.385.295-.771-.249-1.406-.657-1.451-1.587a.341.341,0,0,0-.385-.317.347.347,0,0,0-.34.385,2.034,2.034,0,0,0,.385,1.179,3.017,3.017,0,0,0,2.2,1.179,3.131,3.131,0,0,0,2.879-1.134,1.948,1.948,0,0,0,.431-1.2A.477.477,0,0,0,20.058,18.994Zm-2.7.136c-.181-.136-.363-.249-.544-.385a.183.183,0,0,1-.091-.2c.023-.091.113-.091.181-.091h1.088a.145.145,0,0,1,.091.272,5.614,5.614,0,0,0-.589.431C17.473,19.2,17.428,19.176,17.36,19.13Zm2.312-2.154a.354.354,0,0,0-.363.34.378.378,0,0,0,.363.385.358.358,0,0,0,.363-.363A.373.373,0,0,0,19.672,16.977Zm-4.421,0a.378.378,0,0,0-.363.385.363.363,0,1,0,.725-.045A.354.354,0,0,0,15.252,16.977Zm0,0a.378.378,0,0,0-.363.385.363.363,0,1,0,.725-.045A.354.354,0,0,0,15.252,16.977Zm4.421,0a.354.354,0,0,0-.363.34.378.378,0,0,0,.363.385.358.358,0,0,0,.363-.363A.373.373,0,0,0,19.672,16.977Zm.385,2.018a.374.374,0,0,0-.385.34.5.5,0,0,1-.023.181,1.96,1.96,0,0,1-1.723,1.451c-.113,0-.091-.068-.091-.136v-.884a.284.284,0,0,1,.136-.249,6.42,6.42,0,0,0,.635-.453.917.917,0,0,0,.295-1.02.868.868,0,0,0-.839-.567H16.884a.794.794,0,0,0-.771.5.893.893,0,0,0,.34,1.134,2.327,2.327,0,0,1,.635.476c.136.2.023.521.045.793,0,.408,0,.408-.385.295-.771-.249-1.406-.657-1.451-1.587a.341.341,0,0,0-.385-.317.347.347,0,0,0-.34.385,2.034,2.034,0,0,0,.385,1.179,3.017,3.017,0,0,0,2.2,1.179,3.131,3.131,0,0,0,2.879-1.134,1.948,1.948,0,0,0,.431-1.2A.477.477,0,0,0,20.058,18.994Zm-2.7.136c-.181-.136-.363-.249-.544-.385a.183.183,0,0,1-.091-.2c.023-.091.113-.091.181-.091h1.088a.145.145,0,0,1,.091.272,5.614,5.614,0,0,0-.589.431C17.473,19.2,17.428,19.176,17.36,19.13Zm9.658,2.993A1.471,1.471,0,0,0,25.544,23.6a1.451,1.451,0,0,0,1.474,1.451,1.466,1.466,0,0,0,1.451-1.474A1.432,1.432,0,0,0,27.018,22.123Zm0,2.2a.721.721,0,0,1-.725-.748.737.737,0,0,1,1.474,0A.755.755,0,0,1,27.018,24.322Zm0-2.2A1.471,1.471,0,0,0,25.544,23.6a1.451,1.451,0,0,0,1.474,1.451,1.466,1.466,0,0,0,1.451-1.474A1.432,1.432,0,0,0,27.018,22.123Zm0,2.2a.721.721,0,0,1-.725-.748.737.737,0,0,1,1.474,0A.755.755,0,0,1,27.018,24.322Zm-6.96-5.328a.374.374,0,0,0-.385.34.5.5,0,0,1-.023.181,1.96,1.96,0,0,1-1.723,1.451c-.113,0-.091-.068-.091-.136v-.884a.284.284,0,0,1,.136-.249,6.42,6.42,0,0,0,.635-.453.917.917,0,0,0,.295-1.02.868.868,0,0,0-.839-.567H16.884a.794.794,0,0,0-.771.5.893.893,0,0,0,.34,1.134,2.327,2.327,0,0,1,.635.476c.136.2.023.521.045.793,0,.408,0,.408-.385.295-.771-.249-1.406-.657-1.451-1.587a.341.341,0,0,0-.385-.317.347.347,0,0,0-.34.385,2.034,2.034,0,0,0,.385,1.179,3.017,3.017,0,0,0,2.2,1.179,3.131,3.131,0,0,0,2.879-1.134,1.948,1.948,0,0,0,.431-1.2A.477.477,0,0,0,20.058,18.994Zm-2.7.136c-.181-.136-.363-.249-.544-.385a.183.183,0,0,1-.091-.2c.023-.091.113-.091.181-.091h1.088a.145.145,0,0,1,.091.272,5.614,5.614,0,0,0-.589.431C17.473,19.2,17.428,19.176,17.36,19.13Zm2.312-2.154a.354.354,0,0,0-.363.34.378.378,0,0,0,.363.385.358.358,0,0,0,.363-.363A.373.373,0,0,0,19.672,16.977Zm-4.421,0a.378.378,0,0,0-.363.385.363.363,0,1,0,.725-.045A.354.354,0,0,0,15.252,16.977Zm0,0a.378.378,0,0,0-.363.385.363.363,0,1,0,.725-.045A.354.354,0,0,0,15.252,16.977Zm4.421,0a.354.354,0,0,0-.363.34.378.378,0,0,0,.363.385.358.358,0,0,0,.363-.363A.373.373,0,0,0,19.672,16.977Zm.385,2.018a.374.374,0,0,0-.385.34.5.5,0,0,1-.023.181,1.96,1.96,0,0,1-1.723,1.451c-.113,0-.091-.068-.091-.136v-.884a.284.284,0,0,1,.136-.249,6.42,6.42,0,0,0,.635-.453.917.917,0,0,0,.295-1.02.868.868,0,0,0-.839-.567H16.884a.794.794,0,0,0-.771.5.893.893,0,0,0,.34,1.134,2.327,2.327,0,0,1,.635.476c.136.2.023.521.045.793,0,.408,0,.408-.385.295-.771-.249-1.406-.657-1.451-1.587a.341.341,0,0,0-.385-.317.347.347,0,0,0-.34.385,2.034,2.034,0,0,0,.385,1.179,3.017,3.017,0,0,0,2.2,1.179,3.131,3.131,0,0,0,2.879-1.134,1.948,1.948,0,0,0,.431-1.2A.477.477,0,0,0,20.058,18.994Zm-2.7.136c-.181-.136-.363-.249-.544-.385a.183.183,0,0,1-.091-.2c.023-.091.113-.091.181-.091h1.088a.145.145,0,0,1,.091.272,5.614,5.614,0,0,0-.589.431C17.473,19.2,17.428,19.176,17.36,19.13Zm9.658,2.993A1.471,1.471,0,0,0,25.544,23.6a1.451,1.451,0,0,0,1.474,1.451,1.466,1.466,0,0,0,1.451-1.474A1.432,1.432,0,0,0,27.018,22.123Zm0,2.2a.721.721,0,0,1-.725-.748.737.737,0,0,1,1.474,0A.755.755,0,0,1,27.018,24.322Zm3.99,5.3c-.34-.7-.7-1.406-1.043-2.108a.368.368,0,0,0-.363-.249.389.389,0,0,0-.363.249c-.34.7-.7,1.406-1.043,2.108-.159.317,0,.567.363.589h2.086C30.985,30.194,31.166,29.944,31.008,29.627Zm-1.9-.181.5-1c.045.068.068.091.068.136.136.295.295.567.431.861Zm1.9.181c-.34-.7-.7-1.406-1.043-2.108a.368.368,0,0,0-.363-.249.389.389,0,0,0-.363.249c-.34.7-.7,1.406-1.043,2.108-.159.317,0,.567.363.589h2.086C30.985,30.194,31.166,29.944,31.008,29.627Zm-1.9-.181.5-1c.045.068.068.091.068.136.136.295.295.567.431.861Zm-2.086-7.323A1.471,1.471,0,0,0,25.544,23.6a1.451,1.451,0,0,0,1.474,1.451,1.466,1.466,0,0,0,1.451-1.474A1.432,1.432,0,0,0,27.018,22.123Zm0,2.2a.721.721,0,0,1-.725-.748.737.737,0,0,1,1.474,0A.755.755,0,0,1,27.018,24.322Zm-6.96-5.328a.374.374,0,0,0-.385.34.5.5,0,0,1-.023.181,1.96,1.96,0,0,1-1.723,1.451c-.113,0-.091-.068-.091-.136v-.884a.284.284,0,0,1,.136-.249,6.42,6.42,0,0,0,.635-.453.917.917,0,0,0,.295-1.02.868.868,0,0,0-.839-.567H16.884a.794.794,0,0,0-.771.5.893.893,0,0,0,.34,1.134,2.327,2.327,0,0,1,.635.476c.136.2.023.521.045.793,0,.408,0,.408-.385.295-.771-.249-1.406-.657-1.451-1.587a.341.341,0,0,0-.385-.317.347.347,0,0,0-.34.385,2.034,2.034,0,0,0,.385,1.179,3.017,3.017,0,0,0,2.2,1.179,3.131,3.131,0,0,0,2.879-1.134,1.948,1.948,0,0,0,.431-1.2A.477.477,0,0,0,20.058,18.994Zm-2.7.136c-.181-.136-.363-.249-.544-.385a.183.183,0,0,1-.091-.2c.023-.091.113-.091.181-.091h1.088a.145.145,0,0,1,.091.272,5.614,5.614,0,0,0-.589.431C17.473,19.2,17.428,19.176,17.36,19.13ZM19.672,17.7a.363.363,0,1,0,0-.725.363.363,0,1,0,0,.725Zm-4.4,0a.346.346,0,0,0,.34-.385.373.373,0,0,0-.363-.363.378.378,0,0,0-.363.385A.362.362,0,0,0,15.274,17.7Zm16.8,8.093h-1.9c-.181,0-.2-.045-.2-.2V21.148a.848.848,0,0,0-.113-.408c-.816-1.179-1.632-2.335-2.471-3.514-.227-.317-.5-.317-.7,0-.816,1.179-1.655,2.358-2.471,3.537a.685.685,0,0,0-.113.363v2c0,.045.045.113-.045.159a6.083,6.083,0,0,0-1.95-1.61c.023-.023.023-.045.045-.068a5.549,5.549,0,0,0,1-5.078c-.045-.136-.023-.2.113-.295a2.427,2.427,0,0,0,1.2-2.086A2.574,2.574,0,0,0,19.7,12.714c-.091.136-.159.181-.317.136a7.237,7.237,0,0,0-3.809,0c-.159.045-.227.023-.317-.136a2.517,2.517,0,0,0-2.675-1.179,2.629,2.629,0,0,0-2.04,2,2.6,2.6,0,0,0,1.156,2.7c.136.091.159.136.113.295a5.839,5.839,0,0,0,.023,3.242,5.174,5.174,0,0,0,1.02,1.9c-.045.023-.068.045-.113.068a5.482,5.482,0,0,0-2.97,4.534,2.224,2.224,0,0,0,1.315,2.267c.136.045.113.091.068.2a3.528,3.528,0,0,0-.091,2.675,2.776,2.776,0,0,0,4.829,1.043c.091-.113.159-.045.227-.023a2.978,2.978,0,0,0,2.63,0,.2.2,0,0,1,.295.068,2.6,2.6,0,0,0,2,.952,2.812,2.812,0,0,0,2.607-1.632c.091-.136.159-.2.317-.2h8.048c.34,0,.476-.136.476-.453V26.2C32.527,25.931,32.413,25.8,32.073,25.8ZM26.9,18.133c.091-.136.136-.136.2,0,.567.839,1.156,1.655,1.723,2.471-.159.045-3.265.068-3.7.023C25.771,19.788,26.338,18.949,26.9,18.133Zm-4.829-5.917a1.835,1.835,0,0,1,1.587,1.428,1.9,1.9,0,0,1-.725,1.9c-.091.068-.136.068-.2-.045a5.1,5.1,0,0,0-2.448-2.335A1.769,1.769,0,0,1,22.075,12.216Zm-10.088,3.31a1.877,1.877,0,0,1-.725-1.927,1.82,1.82,0,0,1,3.333-.544.083.083,0,0,1,.023.068,5.149,5.149,0,0,0-2.108,1.768,2.891,2.891,0,0,0-.34.567C12.146,15.594,12.1,15.616,11.987,15.526Zm.363,3.038a4.456,4.456,0,0,1,2.244-4.557,5.482,5.482,0,0,1,2.879-.7,5.31,5.31,0,0,1,3.015.816,4.491,4.491,0,0,1,2.086,4.353,4.6,4.6,0,0,1-4.4,4.353,6.3,6.3,0,0,1-2.9-.34A4.4,4.4,0,0,1,12.35,18.564Zm-.907,9.34a1.483,1.483,0,0,1-.952-1.428,4.808,4.808,0,0,1,2.72-4.194.243.243,0,0,1,.317.023,5.362,5.362,0,0,0,1.134.725c.068.023.159.045.068.159a6.305,6.305,0,0,0-1.292,3.537c-.023.159-.068.2-.227.249a2.647,2.647,0,0,0-1.474.861C11.647,27.949,11.579,27.949,11.443,27.9Zm3.718,4.307a1.951,1.951,0,0,1-2.788-.045,2.842,2.842,0,0,1-.113-3.786,2.012,2.012,0,0,1,3.378.431A2.9,2.9,0,0,1,16,30.33,2.648,2.648,0,0,1,15.161,32.211Zm3.083-2.584a3.545,3.545,0,0,0,.249,2c.068.136.023.181-.091.227a2.358,2.358,0,0,1-1.814,0c-.159-.068-.159-.113-.113-.272a3.545,3.545,0,0,0-.589-3.718,2.8,2.8,0,0,0-1.542-.929c-.091-.023-.159-.023-.159-.159a5.729,5.729,0,0,1,1.2-3.219.367.367,0,0,1,.431-.159A7.091,7.091,0,0,0,19.2,23.37c.136-.045.2.045.295.113a5.315,5.315,0,0,1,1.179,2.652,1.428,1.428,0,0,1,.068.68c-.068.227-.385.159-.589.249A3.337,3.337,0,0,0,18.244,29.627Zm4.126,2.7a1.957,1.957,0,0,1-2.766-.272,2.877,2.877,0,0,1,.023-3.7,2.012,2.012,0,0,1,3.355.431,2.959,2.959,0,0,1,.363,1.474A2.606,2.606,0,0,1,22.37,32.325Zm1.043-4.375c-.091.023-.136-.023-.181-.091a2.768,2.768,0,0,0-1.564-.907c-.159-.023-.136-.113-.136-.2A6.562,6.562,0,0,0,20.761,24a5.979,5.979,0,0,0-.521-.793c-.068-.091-.113-.136.045-.2a4.323,4.323,0,0,0,1.179-.748.172.172,0,0,1,.227-.023,4.827,4.827,0,0,1,2.766,4.013c0,.113.023.2.023.317A1.6,1.6,0,0,1,23.413,27.949Zm.567,1.406a2.774,2.774,0,0,0-.2-.612c-.045-.091-.045-.136.068-.159a1.983,1.983,0,0,0,.725-.5,1.749,1.749,0,0,1,.589-.068c.045.023.023.091.045.113v1.179c0,.113,0,.159-.136.159-.295-.023-.612,0-.907,0C24.025,29.468,24,29.445,23.98,29.355Zm2.675,1.451c0,.113-.023.136-.136.136H24.025a5.582,5.582,0,0,0,.045-.589c0-.136.045-.136.159-.136h1.247c.317,0,.431-.136.453-.453v-2.04c0-.317-.136-.453-.453-.453h-.408a3.329,3.329,0,0,0,.113-.657c0-.113.068-.068.136-.068h1.224c.113,0,.136.045.136.136C26.655,28.04,26.655,29.423,26.655,30.806ZM25.272,25.8c-.159,0-.181-.068-.227-.2a10.108,10.108,0,0,1-.227-3.2v-.839c0-.136.045-.159.159-.159h4.058c.159,0,.181.045.181.181v4.035c0,.159-.023.181-.181.181ZM31.8,30.76c0,.159-.045.181-.181.181H27.584c-.159,0-.181-.045-.181-.181V26.725c0-.159.045-.181.181-.181H31.62c.159,0,.181.045.181.181Zm-1.859-3.242a.368.368,0,0,0-.363-.249.389.389,0,0,0-.363.249c-.34.7-.7,1.406-1.043,2.108-.159.317,0,.567.363.589h2.086c.363,0,.544-.249.363-.589C30.645,28.924,30.3,28.221,29.942,27.518ZM29.1,29.445l.5-1c.045.068.068.091.068.136.136.295.295.567.431.861Zm-2.086-7.323A1.471,1.471,0,0,0,25.544,23.6a1.451,1.451,0,0,0,1.474,1.451,1.466,1.466,0,0,0,1.451-1.474A1.432,1.432,0,0,0,27.018,22.123Zm0,2.2a.721.721,0,0,1-.725-.748.737.737,0,0,1,1.474,0A.755.755,0,0,1,27.018,24.322Zm-9.907-2.584A3.131,3.131,0,0,0,19.99,20.6a1.948,1.948,0,0,0,.431-1.2.363.363,0,0,0-.725-.045.5.5,0,0,1-.023.181,1.96,1.96,0,0,1-1.723,1.451c-.113,0-.091-.068-.091-.136v-.884a.284.284,0,0,1,.136-.249,6.42,6.42,0,0,0,.635-.453.917.917,0,0,0,.295-1.02.868.868,0,0,0-.839-.567H16.907a.794.794,0,0,0-.771.5.893.893,0,0,0,.34,1.134,2.327,2.327,0,0,1,.635.476c.136.2.023.521.045.793,0,.408,0,.408-.385.295-.771-.249-1.406-.657-1.451-1.587a.341.341,0,0,0-.385-.317.347.347,0,0,0-.34.385,2.034,2.034,0,0,0,.385,1.179A2.725,2.725,0,0,0,17.111,21.737Zm-.272-2.993a.183.183,0,0,1-.091-.2c.023-.091.113-.091.181-.091h1.088a.145.145,0,0,1,.091.272,5.614,5.614,0,0,0-.589.431.109.109,0,0,1-.159-.023C17.2,18.994,17.02,18.881,16.839,18.745ZM19.672,17.7a.363.363,0,1,0,0-.725.363.363,0,1,0,0,.725Zm-4.4,0a.346.346,0,0,0,.34-.385.373.373,0,0,0-.363-.363.378.378,0,0,0-.363.385A.362.362,0,0,0,15.274,17.7Zm-.023-.725a.378.378,0,0,0-.363.385.363.363,0,1,0,.725-.045A.354.354,0,0,0,15.252,16.977Zm4.421,0a.354.354,0,0,0-.363.34.378.378,0,0,0,.363.385.358.358,0,0,0,.363-.363A.373.373,0,0,0,19.672,16.977Zm.385,2.018a.374.374,0,0,0-.385.34.5.5,0,0,1-.023.181,1.96,1.96,0,0,1-1.723,1.451c-.113,0-.091-.068-.091-.136v-.884a.284.284,0,0,1,.136-.249,6.42,6.42,0,0,0,.635-.453.917.917,0,0,0,.295-1.02.868.868,0,0,0-.839-.567H16.884a.794.794,0,0,0-.771.5.893.893,0,0,0,.34,1.134,2.327,2.327,0,0,1,.635.476c.136.2.023.521.045.793,0,.408,0,.408-.385.295-.771-.249-1.406-.657-1.451-1.587a.341.341,0,0,0-.385-.317.347.347,0,0,0-.34.385,2.034,2.034,0,0,0,.385,1.179,3.017,3.017,0,0,0,2.2,1.179,3.131,3.131,0,0,0,2.879-1.134,1.948,1.948,0,0,0,.431-1.2A.477.477,0,0,0,20.058,18.994Zm-2.7.136c-.181-.136-.363-.249-.544-.385a.183.183,0,0,1-.091-.2c.023-.091.113-.091.181-.091h1.088a.145.145,0,0,1,.091.272,5.614,5.614,0,0,0-.589.431C17.473,19.2,17.428,19.176,17.36,19.13Zm9.658,2.993A1.471,1.471,0,0,0,25.544,23.6a1.451,1.451,0,0,0,1.474,1.451,1.466,1.466,0,0,0,1.451-1.474A1.432,1.432,0,0,0,27.018,22.123Zm0,2.2a.721.721,0,0,1-.725-.748.737.737,0,0,1,1.474,0A.755.755,0,0,1,27.018,24.322Zm0-2.2A1.471,1.471,0,0,0,25.544,23.6a1.451,1.451,0,0,0,1.474,1.451,1.466,1.466,0,0,0,1.451-1.474A1.432,1.432,0,0,0,27.018,22.123Zm0,2.2a.721.721,0,0,1-.725-.748.737.737,0,0,1,1.474,0A.755.755,0,0,1,27.018,24.322Zm-6.96-5.328a.374.374,0,0,0-.385.34.5.5,0,0,1-.023.181,1.96,1.96,0,0,1-1.723,1.451c-.113,0-.091-.068-.091-.136v-.884a.284.284,0,0,1,.136-.249,6.42,6.42,0,0,0,.635-.453.917.917,0,0,0,.295-1.02.868.868,0,0,0-.839-.567H16.884a.794.794,0,0,0-.771.5.893.893,0,0,0,.34,1.134,2.327,2.327,0,0,1,.635.476c.136.2.023.521.045.793,0,.408,0,.408-.385.295-.771-.249-1.406-.657-1.451-1.587a.341.341,0,0,0-.385-.317.347.347,0,0,0-.34.385,2.034,2.034,0,0,0,.385,1.179,3.017,3.017,0,0,0,2.2,1.179,3.131,3.131,0,0,0,2.879-1.134,1.948,1.948,0,0,0,.431-1.2A.477.477,0,0,0,20.058,18.994Zm-2.7.136c-.181-.136-.363-.249-.544-.385a.183.183,0,0,1-.091-.2c.023-.091.113-.091.181-.091h1.088a.145.145,0,0,1,.091.272,5.614,5.614,0,0,0-.589.431C17.473,19.2,17.428,19.176,17.36,19.13Zm2.312-2.154a.354.354,0,0,0-.363.34.378.378,0,0,0,.363.385.358.358,0,0,0,.363-.363A.373.373,0,0,0,19.672,16.977Zm-4.421,0a.378.378,0,0,0-.363.385.363.363,0,1,0,.725-.045A.354.354,0,0,0,15.252,16.977Zm0,0a.378.378,0,0,0-.363.385.363.363,0,1,0,.725-.045A.354.354,0,0,0,15.252,16.977Zm4.421,0a.354.354,0,0,0-.363.34.378.378,0,0,0,.363.385.358.358,0,0,0,.363-.363A.373.373,0,0,0,19.672,16.977Zm.385,2.018a.374.374,0,0,0-.385.34.5.5,0,0,1-.023.181,1.96,1.96,0,0,1-1.723,1.451c-.113,0-.091-.068-.091-.136v-.884a.284.284,0,0,1,.136-.249,6.42,6.42,0,0,0,.635-.453.917.917,0,0,0,.295-1.02.868.868,0,0,0-.839-.567H16.884a.794.794,0,0,0-.771.5.893.893,0,0,0,.34,1.134,2.327,2.327,0,0,1,.635.476c.136.2.023.521.045.793,0,.408,0,.408-.385.295-.771-.249-1.406-.657-1.451-1.587a.341.341,0,0,0-.385-.317.347.347,0,0,0-.34.385,2.034,2.034,0,0,0,.385,1.179,3.017,3.017,0,0,0,2.2,1.179,3.131,3.131,0,0,0,2.879-1.134,1.948,1.948,0,0,0,.431-1.2A.477.477,0,0,0,20.058,18.994Zm-2.7.136c-.181-.136-.363-.249-.544-.385a.183.183,0,0,1-.091-.2c.023-.091.113-.091.181-.091h1.088a.145.145,0,0,1,.091.272,5.614,5.614,0,0,0-.589.431C17.473,19.2,17.428,19.176,17.36,19.13Zm9.658,2.993A1.471,1.471,0,0,0,25.544,23.6a1.451,1.451,0,0,0,1.474,1.451,1.466,1.466,0,0,0,1.451-1.474A1.432,1.432,0,0,0,27.018,22.123Zm0,2.2a.721.721,0,0,1-.725-.748.737.737,0,0,1,1.474,0A.755.755,0,0,1,27.018,24.322Zm0-2.2A1.471,1.471,0,0,0,25.544,23.6a1.451,1.451,0,0,0,1.474,1.451,1.466,1.466,0,0,0,1.451-1.474A1.432,1.432,0,0,0,27.018,22.123Zm0,2.2a.721.721,0,0,1-.725-.748.737.737,0,0,1,1.474,0A.755.755,0,0,1,27.018,24.322Zm-6.96-5.328a.374.374,0,0,0-.385.34.5.5,0,0,1-.023.181,1.96,1.96,0,0,1-1.723,1.451c-.113,0-.091-.068-.091-.136v-.884a.284.284,0,0,1,.136-.249,6.42,6.42,0,0,0,.635-.453.917.917,0,0,0,.295-1.02.868.868,0,0,0-.839-.567H16.884a.794.794,0,0,0-.771.5.893.893,0,0,0,.34,1.134,2.327,2.327,0,0,1,.635.476c.136.2.023.521.045.793,0,.408,0,.408-.385.295-.771-.249-1.406-.657-1.451-1.587a.341.341,0,0,0-.385-.317.347.347,0,0,0-.34.385,2.034,2.034,0,0,0,.385,1.179,3.017,3.017,0,0,0,2.2,1.179,3.131,3.131,0,0,0,2.879-1.134,1.948,1.948,0,0,0,.431-1.2A.477.477,0,0,0,20.058,18.994Zm-2.7.136c-.181-.136-.363-.249-.544-.385a.183.183,0,0,1-.091-.2c.023-.091.113-.091.181-.091h1.088a.145.145,0,0,1,.091.272,5.614,5.614,0,0,0-.589.431C17.473,19.2,17.428,19.176,17.36,19.13Zm2.312-2.154a.354.354,0,0,0-.363.34.378.378,0,0,0,.363.385.358.358,0,0,0,.363-.363A.373.373,0,0,0,19.672,16.977Zm-4.421,0a.378.378,0,0,0-.363.385.363.363,0,1,0,.725-.045A.354.354,0,0,0,15.252,16.977Zm0,0a.378.378,0,0,0-.363.385.363.363,0,1,0,.725-.045A.354.354,0,0,0,15.252,16.977Zm4.421,0a.354.354,0,0,0-.363.34.378.378,0,0,0,.363.385.358.358,0,0,0,.363-.363A.373.373,0,0,0,19.672,16.977Zm.385,2.018a.374.374,0,0,0-.385.34.5.5,0,0,1-.023.181,1.96,1.96,0,0,1-1.723,1.451c-.113,0-.091-.068-.091-.136v-.884a.284.284,0,0,1,.136-.249,6.42,6.42,0,0,0,.635-.453.917.917,0,0,0,.295-1.02.868.868,0,0,0-.839-.567H16.884a.794.794,0,0,0-.771.5.893.893,0,0,0,.34,1.134,2.327,2.327,0,0,1,.635.476c.136.2.023.521.045.793,0,.408,0,.408-.385.295-.771-.249-1.406-.657-1.451-1.587a.341.341,0,0,0-.385-.317.347.347,0,0,0-.34.385,2.034,2.034,0,0,0,.385,1.179,3.017,3.017,0,0,0,2.2,1.179,3.131,3.131,0,0,0,2.879-1.134,1.948,1.948,0,0,0,.431-1.2A.477.477,0,0,0,20.058,18.994Zm-2.7.136c-.181-.136-.363-.249-.544-.385a.183.183,0,0,1-.091-.2c.023-.091.113-.091.181-.091h1.088a.145.145,0,0,1,.091.272,5.614,5.614,0,0,0-.589.431C17.473,19.2,17.428,19.176,17.36,19.13Zm2.7-.136a.374.374,0,0,0-.385.34.5.5,0,0,1-.023.181,1.96,1.96,0,0,1-1.723,1.451c-.113,0-.091-.068-.091-.136v-.884a.284.284,0,0,1,.136-.249,6.42,6.42,0,0,0,.635-.453.917.917,0,0,0,.295-1.02.868.868,0,0,0-.839-.567H16.884a.794.794,0,0,0-.771.5.893.893,0,0,0,.34,1.134,2.327,2.327,0,0,1,.635.476c.136.2.023.521.045.793,0,.408,0,.408-.385.295-.771-.249-1.406-.657-1.451-1.587a.341.341,0,0,0-.385-.317.347.347,0,0,0-.34.385,2.034,2.034,0,0,0,.385,1.179,3.017,3.017,0,0,0,2.2,1.179,3.131,3.131,0,0,0,2.879-1.134,1.948,1.948,0,0,0,.431-1.2A.477.477,0,0,0,20.058,18.994Zm-2.7.136c-.181-.136-.363-.249-.544-.385a.183.183,0,0,1-.091-.2c.023-.091.113-.091.181-.091h1.088a.145.145,0,0,1,.091.272,5.614,5.614,0,0,0-.589.431C17.473,19.2,17.428,19.176,17.36,19.13Zm2.312-2.154a.354.354,0,0,0-.363.34.378.378,0,0,0,.363.385.358.358,0,0,0,.363-.363A.373.373,0,0,0,19.672,16.977Zm-4.421,0a.378.378,0,0,0-.363.385.363.363,0,1,0,.725-.045A.354.354,0,0,0,15.252,16.977Zm0,0a.378.378,0,0,0-.363.385.363.363,0,1,0,.725-.045A.354.354,0,0,0,15.252,16.977Zm4.421,0a.354.354,0,0,0-.363.34.378.378,0,0,0,.363.385.358.358,0,0,0,.363-.363A.373.373,0,0,0,19.672,16.977Zm.385,2.018a.374.374,0,0,0-.385.34.5.5,0,0,1-.023.181,1.96,1.96,0,0,1-1.723,1.451c-.113,0-.091-.068-.091-.136v-.884a.284.284,0,0,1,.136-.249,6.42,6.42,0,0,0,.635-.453.917.917,0,0,0,.295-1.02.868.868,0,0,0-.839-.567H16.884a.794.794,0,0,0-.771.5.893.893,0,0,0,.34,1.134,2.327,2.327,0,0,1,.635.476c.136.2.023.521.045.793,0,.408,0,.408-.385.295-.771-.249-1.406-.657-1.451-1.587a.341.341,0,0,0-.385-.317.347.347,0,0,0-.34.385,2.034,2.034,0,0,0,.385,1.179,3.017,3.017,0,0,0,2.2,1.179,3.131,3.131,0,0,0,2.879-1.134,1.948,1.948,0,0,0,.431-1.2A.477.477,0,0,0,20.058,18.994Zm-2.7.136c-.181-.136-.363-.249-.544-.385a.183.183,0,0,1-.091-.2c.023-.091.113-.091.181-.091h1.088a.145.145,0,0,1,.091.272,5.614,5.614,0,0,0-.589.431C17.473,19.2,17.428,19.176,17.36,19.13Zm2.7-.136a.374.374,0,0,0-.385.34.5.5,0,0,1-.023.181,1.96,1.96,0,0,1-1.723,1.451c-.113,0-.091-.068-.091-.136v-.884a.284.284,0,0,1,.136-.249,6.42,6.42,0,0,0,.635-.453.917.917,0,0,0,.295-1.02.868.868,0,0,0-.839-.567H16.884a.794.794,0,0,0-.771.5.893.893,0,0,0,.34,1.134,2.327,2.327,0,0,1,.635.476c.136.2.023.521.045.793,0,.408,0,.408-.385.295-.771-.249-1.406-.657-1.451-1.587a.341.341,0,0,0-.385-.317.347.347,0,0,0-.34.385,2.034,2.034,0,0,0,.385,1.179,3.017,3.017,0,0,0,2.2,1.179,3.131,3.131,0,0,0,2.879-1.134,1.948,1.948,0,0,0,.431-1.2A.477.477,0,0,0,20.058,18.994Zm-2.7.136c-.181-.136-.363-.249-.544-.385a.183.183,0,0,1-.091-.2c.023-.091.113-.091.181-.091h1.088a.145.145,0,0,1,.091.272,5.614,5.614,0,0,0-.589.431C17.473,19.2,17.428,19.176,17.36,19.13Zm2.312-2.154a.354.354,0,0,0-.363.34.378.378,0,0,0,.363.385.358.358,0,0,0,.363-.363A.373.373,0,0,0,19.672,16.977Zm-4.421,0a.378.378,0,0,0-.363.385.363.363,0,1,0,.725-.045A.354.354,0,0,0,15.252,16.977Zm0,0a.378.378,0,0,0-.363.385.363.363,0,1,0,.725-.045A.354.354,0,0,0,15.252,16.977Zm4.421,0a.354.354,0,0,0-.363.34.378.378,0,0,0,.363.385.358.358,0,0,0,.363-.363A.373.373,0,0,0,19.672,16.977Zm.385,2.018a.374.374,0,0,0-.385.34.5.5,0,0,1-.023.181,1.96,1.96,0,0,1-1.723,1.451c-.113,0-.091-.068-.091-.136v-.884a.284.284,0,0,1,.136-.249,6.42,6.42,0,0,0,.635-.453.917.917,0,0,0,.295-1.02.868.868,0,0,0-.839-.567H16.884a.794.794,0,0,0-.771.5.893.893,0,0,0,.34,1.134,2.327,2.327,0,0,1,.635.476c.136.2.023.521.045.793,0,.408,0,.408-.385.295-.771-.249-1.406-.657-1.451-1.587a.341.341,0,0,0-.385-.317.347.347,0,0,0-.34.385,2.034,2.034,0,0,0,.385,1.179,3.017,3.017,0,0,0,2.2,1.179,3.131,3.131,0,0,0,2.879-1.134,1.948,1.948,0,0,0,.431-1.2A.477.477,0,0,0,20.058,18.994Zm-2.7.136c-.181-.136-.363-.249-.544-.385a.183.183,0,0,1-.091-.2c.023-.091.113-.091.181-.091h1.088a.145.145,0,0,1,.091.272,5.614,5.614,0,0,0-.589.431C17.473,19.2,17.428,19.176,17.36,19.13Zm2.7-.136a.374.374,0,0,0-.385.34.5.5,0,0,1-.023.181,1.96,1.96,0,0,1-1.723,1.451c-.113,0-.091-.068-.091-.136v-.884a.284.284,0,0,1,.136-.249,6.42,6.42,0,0,0,.635-.453.917.917,0,0,0,.295-1.02.868.868,0,0,0-.839-.567H16.884a.794.794,0,0,0-.771.5.893.893,0,0,0,.34,1.134,2.327,2.327,0,0,1,.635.476c.136.2.023.521.045.793,0,.408,0,.408-.385.295-.771-.249-1.406-.657-1.451-1.587a.341.341,0,0,0-.385-.317.347.347,0,0,0-.34.385,2.034,2.034,0,0,0,.385,1.179,3.017,3.017,0,0,0,2.2,1.179,3.131,3.131,0,0,0,2.879-1.134,1.948,1.948,0,0,0,.431-1.2A.477.477,0,0,0,20.058,18.994Zm-2.7.136c-.181-.136-.363-.249-.544-.385a.183.183,0,0,1-.091-.2c.023-.091.113-.091.181-.091h1.088a.145.145,0,0,1,.091.272,5.614,5.614,0,0,0-.589.431C17.473,19.2,17.428,19.176,17.36,19.13Zm2.312-2.154a.354.354,0,0,0-.363.34.378.378,0,0,0,.363.385.358.358,0,0,0,.363-.363A.373.373,0,0,0,19.672,16.977Zm-4.421,0a.378.378,0,0,0-.363.385.363.363,0,1,0,.725-.045A.354.354,0,0,0,15.252,16.977Zm0,0a.378.378,0,0,0-.363.385.363.363,0,1,0,.725-.045A.354.354,0,0,0,15.252,16.977Zm4.421,0a.354.354,0,0,0-.363.34.378.378,0,0,0,.363.385.358.358,0,0,0,.363-.363A.373.373,0,0,0,19.672,16.977Zm.385,2.018a.374.374,0,0,0-.385.34.5.5,0,0,1-.023.181,1.96,1.96,0,0,1-1.723,1.451c-.113,0-.091-.068-.091-.136v-.884a.284.284,0,0,1,.136-.249,6.42,6.42,0,0,0,.635-.453.917.917,0,0,0,.295-1.02.868.868,0,0,0-.839-.567H16.884a.794.794,0,0,0-.771.5.893.893,0,0,0,.34,1.134,2.327,2.327,0,0,1,.635.476c.136.2.023.521.045.793,0,.408,0,.408-.385.295-.771-.249-1.406-.657-1.451-1.587a.341.341,0,0,0-.385-.317.347.347,0,0,0-.34.385,2.034,2.034,0,0,0,.385,1.179,3.017,3.017,0,0,0,2.2,1.179,3.131,3.131,0,0,0,2.879-1.134,1.948,1.948,0,0,0,.431-1.2A.477.477,0,0,0,20.058,18.994Zm-2.7.136c-.181-.136-.363-.249-.544-.385a.183.183,0,0,1-.091-.2c.023-.091.113-.091.181-.091h1.088a.145.145,0,0,1,.091.272,5.614,5.614,0,0,0-.589.431C17.473,19.2,17.428,19.176,17.36,19.13Zm2.7-.136a.374.374,0,0,0-.385.34.5.5,0,0,1-.023.181,1.96,1.96,0,0,1-1.723,1.451c-.113,0-.091-.068-.091-.136v-.884a.284.284,0,0,1,.136-.249,6.42,6.42,0,0,0,.635-.453.917.917,0,0,0,.295-1.02.868.868,0,0,0-.839-.567H16.884a.794.794,0,0,0-.771.5.893.893,0,0,0,.34,1.134,2.327,2.327,0,0,1,.635.476c.136.2.023.521.045.793,0,.408,0,.408-.385.295-.771-.249-1.406-.657-1.451-1.587a.341.341,0,0,0-.385-.317.347.347,0,0,0-.34.385,2.034,2.034,0,0,0,.385,1.179,3.017,3.017,0,0,0,2.2,1.179,3.131,3.131,0,0,0,2.879-1.134,1.948,1.948,0,0,0,.431-1.2A.477.477,0,0,0,20.058,18.994Zm-2.7.136c-.181-.136-.363-.249-.544-.385a.183.183,0,0,1-.091-.2c.023-.091.113-.091.181-.091h1.088a.145.145,0,0,1,.091.272,5.614,5.614,0,0,0-.589.431C17.473,19.2,17.428,19.176,17.36,19.13Zm2.312-2.154a.354.354,0,0,0-.363.34.378.378,0,0,0,.363.385.358.358,0,0,0,.363-.363A.373.373,0,0,0,19.672,16.977Zm-4.421,0a.378.378,0,0,0-.363.385.363.363,0,1,0,.725-.045A.354.354,0,0,0,15.252,16.977Z" fill="#e2211d"/>
    <path id="Caminho_479" data-name="Caminho 479" d="M32.393,36.085a.363.363,0,0,1,.363-.385.358.358,0,0,1,.363.363.363.363,0,1,1-.725.023Z" transform="translate(-17.505 -18.723)" fill="#e2211d"/>
    <path id="Caminho_480" data-name="Caminho 480" d="M51.893,36.133a.339.339,0,0,1,.363-.34.363.363,0,1,1,0,.725A.377.377,0,0,1,51.893,36.133Z" transform="translate(-32.584 -18.793)" fill="#e2211d"/>
    <path id="Caminho_481" data-name="Caminho 481" d="M36.486,40.038a.374.374,0,0,0-.385.34.5.5,0,0,1-.023.181,1.96,1.96,0,0,1-1.723,1.451c-.113,0-.091-.068-.091-.136V40.99a.284.284,0,0,1,.136-.249,6.419,6.419,0,0,0,.635-.453.917.917,0,0,0,.295-1.02.868.868,0,0,0-.839-.567H33.312a.794.794,0,0,0-.771.5.893.893,0,0,0,.34,1.134,2.327,2.327,0,0,1,.635.476c.136.2.023.521.045.793,0,.408,0,.408-.385.295-.771-.249-1.406-.657-1.451-1.587a.341.341,0,0,0-.385-.317.347.347,0,0,0-.34.385,2.034,2.034,0,0,0,.385,1.179,3.017,3.017,0,0,0,2.2,1.179A3.131,3.131,0,0,0,36.464,41.6a1.948,1.948,0,0,0,.431-1.2A.477.477,0,0,0,36.486,40.038Zm-2.7.136c-.181-.136-.363-.249-.544-.385a.183.183,0,0,1-.091-.2c.023-.091.113-.091.181-.091h1.088a.145.145,0,0,1,.091.272,5.613,5.613,0,0,0-.589.431C33.9,40.242,33.856,40.219,33.788,40.174Z" transform="translate(-16.429 -21.043)" fill="#e2211d"/>
    <path id="Caminho_482" data-name="Caminho 482" d="M93.7,83.458c-.34-.7-.7-1.406-1.043-2.108A.368.368,0,0,0,92.3,81.1a.389.389,0,0,0-.363.249c-.34.7-.7,1.406-1.043,2.108-.159.317,0,.567.363.589h2.086C93.679,84.025,93.86,83.775,93.7,83.458Zm-1.9-.181.5-1c.045.068.068.091.068.136.136.295.295.567.431.861Z" transform="translate(-62.694 -53.831)" fill="#e2211d"/>
    <path id="Caminho_483" data-name="Caminho 483" d="M80.874,58.4A1.471,1.471,0,0,0,79.4,59.874a1.451,1.451,0,0,0,1.474,1.451,1.466,1.466,0,0,0,1.451-1.474A1.432,1.432,0,0,0,80.874,58.4Zm0,2.2a.721.721,0,0,1-.725-.748.737.737,0,0,1,1.474,0A.755.755,0,0,1,80.874,60.6Z" transform="translate(-53.856 -36.277)" fill="#e2211d"/>
    <path id="Caminho_484" data-name="Caminho 484" d="M36.486,40.038a.374.374,0,0,0-.385.34.5.5,0,0,1-.023.181,1.96,1.96,0,0,1-1.723,1.451c-.113,0-.091-.068-.091-.136V40.99a.284.284,0,0,1,.136-.249,6.419,6.419,0,0,0,.635-.453.917.917,0,0,0,.295-1.02.868.868,0,0,0-.839-.567H33.312a.794.794,0,0,0-.771.5.893.893,0,0,0,.34,1.134,2.327,2.327,0,0,1,.635.476c.136.2.023.521.045.793,0,.408,0,.408-.385.295-.771-.249-1.406-.657-1.451-1.587a.341.341,0,0,0-.385-.317.347.347,0,0,0-.34.385,2.034,2.034,0,0,0,.385,1.179,3.017,3.017,0,0,0,2.2,1.179A3.131,3.131,0,0,0,36.464,41.6a1.948,1.948,0,0,0,.431-1.2A.477.477,0,0,0,36.486,40.038Zm-2.7.136c-.181-.136-.363-.249-.544-.385a.183.183,0,0,1-.091-.2c.023-.091.113-.091.181-.091h1.088a.145.145,0,0,1,.091.272,5.613,5.613,0,0,0-.589.431C33.9,40.242,33.856,40.219,33.788,40.174Z" transform="translate(-16.429 -21.043)" fill="#e2211d"/>
    <path id="Caminho_485" data-name="Caminho 485" d="M33.219,36.133a.392.392,0,0,1-.34.385.374.374,0,0,1-.385-.34.363.363,0,0,1,.363-.385A.351.351,0,0,1,33.219,36.133Z" transform="translate(-17.582 -18.793)" fill="#e2211d"/>
    <path id="Caminho_486" data-name="Caminho 486" d="M52.619,36.055a.373.373,0,0,1-.363.363.363.363,0,0,1-.363-.385.339.339,0,0,1,.363-.34A.373.373,0,0,1,52.619,36.055Z" transform="translate(-32.584 -18.716)" fill="#e2211d"/>
    <path id="Caminho_487" data-name="Caminho 487" d="M93.7,83.458c-.34-.7-.7-1.406-1.043-2.108A.368.368,0,0,0,92.3,81.1a.389.389,0,0,0-.363.249c-.34.7-.7,1.406-1.043,2.108-.159.317,0,.567.363.589h2.086C93.679,84.025,93.86,83.775,93.7,83.458Zm-1.9-.181.5-1c.045.068.068.091.068.136.136.295.295.567.431.861Z" transform="translate(-62.694 -53.831)" fill="#e2211d"/>
    <path id="Caminho_488" data-name="Caminho 488" d="M80.874,58.4A1.471,1.471,0,0,0,79.4,59.874a1.451,1.451,0,0,0,1.474,1.451,1.466,1.466,0,0,0,1.451-1.474A1.432,1.432,0,0,0,80.874,58.4Zm0,2.2a.721.721,0,0,1-.725-.748.737.737,0,0,1,1.474,0A.755.755,0,0,1,80.874,60.6Z" transform="translate(-53.856 -36.277)" fill="#e2211d"/>
  </g>
</svg>
