<svg width="66" height="66" viewBox="0 0 66 66" fill="none" xmlns="http://www.w3.org/2000/svg">
<circle cx="33" cy="33" r="33" fill="#E31F1A"/>
<path d="M34.1842 20.1389C34.1032 20.2199 34.0453 20.382 34.0453 20.5209C34.0453 21.007 34.2189 21.0418 36.4182 21.0418H38.5133L39.0689 21.609L39.6361 22.1761L39.393 22.5234C39.2541 22.7086 39.0689 22.9285 38.9648 23.0096C38.7101 23.2179 38.7448 23.4726 39.1963 24.6417C39.4162 25.2204 39.6014 25.7529 39.6014 25.8339C39.6014 25.9381 37.8304 26.1927 33.5823 26.7252L27.5632 27.4776V26.4011V25.3246H28.987C30.0866 25.3246 30.4686 25.2783 30.6654 25.1394C30.9779 24.931 30.9895 24.6185 30.7117 24.3639C30.5265 24.1902 30.156 24.1671 27.8642 24.1671C26.2668 24.1671 25.144 24.2134 25.0051 24.2828C24.8662 24.3639 24.7852 24.5259 24.7852 24.7458C24.7852 25.1741 25.0514 25.3246 25.8153 25.3246H26.4057V26.6673V28.0216L25.7459 29.1444L25.0977 30.2672L24.3916 29.9547C22.6553 29.1676 20.4445 29.0518 18.5924 29.6537C15.4093 30.6723 13.1868 33.5661 13.0132 36.9114C12.6659 43.2661 19.2406 47.4679 24.9356 44.5163C26.3247 43.7986 27.5748 42.5253 28.2809 41.1016C28.5818 40.5228 28.8828 39.7473 28.9638 39.4L29.1027 38.7518H29.8898C30.6769 38.7518 30.6769 38.7518 30.8737 39.1569C31.2788 40.0251 32.309 40.5807 33.2119 40.4186C34.0222 40.2682 34.5199 39.8862 34.9134 39.1106C35.1797 38.5666 35.1102 37.4901 34.763 37.0271L34.5199 36.6914L37.379 32.2234C38.9532 29.7695 40.2728 27.767 40.3075 27.7554C40.458 27.7554 41.2566 30.001 41.1293 30.0473C40.8515 30.1399 39.6014 30.9964 39.1384 31.4131C38.0735 32.3855 37.0896 34.1102 36.7539 35.6034C36.4645 36.9229 36.5687 38.7518 37.0201 40.0367C38.3629 43.9143 42.4026 46.1599 46.4771 45.2918C49.1972 44.713 51.5123 42.5948 52.4151 39.8515C52.6814 39.0528 52.7277 38.7287 52.7277 37.4207C52.7392 36.159 52.6929 35.777 52.473 35.0478C51.2113 31.008 47.1368 28.5656 43.074 29.4222C42.6572 29.5148 42.31 29.5727 42.2868 29.5495C42.2637 29.538 41.7312 28.1721 41.1062 26.5284L39.9487 23.542L40.4695 23.0096C41.2219 22.2456 41.1872 22.0835 40.0181 20.9492L39.0458 20H36.6845C35.006 20 34.2884 20.0347 34.1842 20.1389ZM39.2426 27.2577C39.2426 27.3155 37.9809 29.3065 36.4414 31.6909L33.6402 36.0201L32.9457 36.0085H32.2512L30.0866 32.316C28.9059 30.2788 27.9568 28.6004 27.9799 28.5772C28.0494 28.5078 38.2355 27.2113 38.8259 27.1882C39.0574 27.1882 39.2541 27.2113 39.2426 27.2577ZM29.1722 32.9295C30.92 35.939 31.2788 36.622 31.1631 36.7725C31.0936 36.8766 30.9547 37.1313 30.8506 37.3396C30.6769 37.7216 30.6769 37.7216 29.9593 37.6869L29.2416 37.6522L29.1722 36.7262C29.0911 35.6728 28.8365 34.6773 28.4082 33.8324C27.9683 32.9642 27.1696 31.8877 26.5677 31.3553C26.2784 31.1006 26.0584 30.846 26.0816 30.7997C26.2089 30.4756 26.9381 29.2602 26.9844 29.2602C27.0192 29.2602 28.0031 30.9154 29.1722 32.9295ZM23.1299 30.6608C23.5582 30.7997 24.0559 30.9733 24.2295 31.0659L24.5421 31.2279L22.528 34.6773C20.6181 37.93 20.4445 38.312 20.6644 38.6592C20.6644 38.6708 22.3312 38.7171 24.3453 38.7518L28.0146 38.8097L27.76 39.5737C27.0423 41.6919 25.2597 43.4282 23.1068 44.1111C22.1692 44.4005 20.2361 44.4584 19.3448 44.2037C18.3146 43.9143 17.1571 43.2661 16.3931 42.56C15.4324 41.6572 14.8652 40.789 14.4369 39.5621C13.754 37.6174 14.0434 35.3487 15.2009 33.5661C16.2658 31.9225 18.2105 30.6839 20.213 30.3714C20.8612 30.2788 22.3428 30.4177 23.1299 30.6608ZM46.8706 30.7186C48.5722 31.2858 50.0422 32.5128 50.8525 34.0754C51.4891 35.2793 51.6859 36.0779 51.6743 37.4207C51.6743 38.393 51.6164 38.7287 51.3271 39.5621C50.5631 41.7729 48.9541 43.3472 46.7201 44.0995C45.6089 44.47 43.8379 44.47 42.6688 44.0995C39.2194 43.0231 37.0664 39.4347 37.7957 35.9738C38.0966 34.5616 38.6754 33.5198 39.7635 32.4433C40.7242 31.4942 41.4997 30.9849 41.6734 31.1816C41.7197 31.2395 42.2984 32.6864 42.9582 34.4111C43.6064 36.1242 44.2199 37.629 44.3241 37.7332C44.5672 38.0226 44.8913 37.9879 45.0996 37.6637C45.2732 37.4091 45.2154 37.2239 44 34.0639C43.2939 32.2234 42.7614 30.6839 42.8077 30.6376C42.9929 30.4524 44.1852 30.3135 45.0996 30.3714C45.6205 30.4061 46.396 30.5566 46.8706 30.7186ZM26.2668 32.6748C27.378 33.8555 28.223 35.9506 28.1188 37.2355L28.0841 37.6522L25.0861 37.6869C22.2733 37.71 22.0997 37.6985 22.1692 37.5133C22.3196 37.1197 25.3986 31.9225 25.4797 31.9225C25.526 31.9225 25.8848 32.2581 26.2668 32.6748ZM33.6402 37.4091C34.4041 38.1731 33.8948 39.3421 32.8068 39.3306C32.1701 39.319 31.6608 38.6476 31.7766 37.9879C31.9386 37.1776 33.0614 36.8303 33.6402 37.4091Z" fill="white"/>
</svg>
