<svg width="163" height="128" viewBox="0 0 163 128" fill="none" xmlns="http://www.w3.org/2000/svg">
<path d="M7.09315 115.932C7.04815 116.007 6.99814 116.065 6.94314 116.105C6.89314 116.14 6.83064 116.157 6.75564 116.157C6.67064 116.157 6.57064 116.115 6.45564 116.03C6.34064 115.945 6.19564 115.852 6.02064 115.752C5.85064 115.647 5.64314 115.552 5.39814 115.467C5.15814 115.382 4.86564 115.34 4.52064 115.34C4.19564 115.34 3.90814 115.385 3.65814 115.475C3.41314 115.56 3.20564 115.677 3.03564 115.827C2.87064 115.977 2.74564 116.155 2.66064 116.36C2.57564 116.56 2.53314 116.777 2.53314 117.012C2.53314 117.312 2.60564 117.562 2.75064 117.762C2.90064 117.957 3.09564 118.125 3.33564 118.265C3.58064 118.405 3.85564 118.527 4.16064 118.632C4.47064 118.732 4.78564 118.837 5.10564 118.947C5.43064 119.057 5.74564 119.182 6.05064 119.322C6.36064 119.457 6.63564 119.63 6.87564 119.84C7.12064 120.05 7.31564 120.307 7.46064 120.612C7.61064 120.917 7.68565 121.292 7.68565 121.737C7.68565 122.207 7.60565 122.65 7.44564 123.065C7.28564 123.475 7.05064 123.832 6.74064 124.137C6.43564 124.442 6.05814 124.682 5.60814 124.857C5.16314 125.033 4.65564 125.12 4.08564 125.12C3.38564 125.12 2.75064 124.995 2.18064 124.745C1.61064 124.49 1.12314 124.147 0.718145 123.717L1.13814 123.027C1.17814 122.972 1.22564 122.927 1.28064 122.892C1.34064 122.852 1.40564 122.832 1.47564 122.832C1.54064 122.832 1.61314 122.86 1.69314 122.915C1.77814 122.965 1.87314 123.03 1.97814 123.11C2.08314 123.19 2.20314 123.277 2.33814 123.372C2.47314 123.467 2.62564 123.555 2.79564 123.635C2.97064 123.715 3.16814 123.782 3.38814 123.837C3.60814 123.887 3.85564 123.912 4.13064 123.912C4.47564 123.912 4.78314 123.865 5.05314 123.77C5.32314 123.675 5.55064 123.542 5.73564 123.372C5.92564 123.197 6.07064 122.99 6.17064 122.75C6.27064 122.51 6.32064 122.242 6.32064 121.947C6.32064 121.622 6.24564 121.357 6.09564 121.152C5.95064 120.942 5.75814 120.767 5.51814 120.627C5.27814 120.487 5.00314 120.37 4.69314 120.275C4.38314 120.175 4.06814 120.075 3.74814 119.975C3.42814 119.87 3.11314 119.75 2.80314 119.615C2.49314 119.48 2.21814 119.305 1.97814 119.09C1.73814 118.875 1.54314 118.607 1.39314 118.287C1.24814 117.962 1.17564 117.562 1.17564 117.087C1.17564 116.707 1.24814 116.34 1.39314 115.985C1.54314 115.63 1.75814 115.315 2.03814 115.04C2.32314 114.765 2.67064 114.545 3.08064 114.38C3.49564 114.215 3.97064 114.132 4.50564 114.132C5.10564 114.132 5.65064 114.227 6.14064 114.417C6.63564 114.607 7.07065 114.882 7.44564 115.242L7.09315 115.932ZM9.26404 125V117.402H10.0665C10.2565 117.402 10.374 117.495 10.419 117.68L10.5165 118.46C10.7965 118.115 11.1115 117.832 11.4615 117.612C11.8115 117.392 12.2165 117.282 12.6765 117.282C13.1865 117.282 13.599 117.425 13.914 117.71C14.234 117.995 14.464 118.38 14.604 118.865C14.714 118.59 14.854 118.352 15.024 118.152C15.199 117.952 15.394 117.787 15.609 117.657C15.824 117.527 16.0515 117.432 16.2915 117.372C16.5365 117.312 16.784 117.282 17.034 117.282C17.434 117.282 17.789 117.347 18.099 117.477C18.414 117.602 18.679 117.787 18.894 118.032C19.114 118.277 19.2815 118.58 19.3965 118.94C19.5115 119.295 19.569 119.702 19.569 120.162V125H18.2265V120.162C18.2265 119.567 18.0965 119.117 17.8365 118.812C17.5765 118.502 17.2015 118.347 16.7115 118.347C16.4915 118.347 16.2815 118.387 16.0815 118.467C15.8865 118.542 15.714 118.655 15.564 118.805C15.414 118.955 15.294 119.145 15.204 119.375C15.119 119.6 15.0765 119.862 15.0765 120.162V125H13.734V120.162C13.734 119.552 13.6115 119.097 13.3665 118.797C13.1215 118.497 12.764 118.347 12.294 118.347C11.964 118.347 11.659 118.437 11.379 118.617C11.099 118.792 10.8415 119.032 10.6065 119.337V125H9.26404ZM25.7155 121.58C25.1005 121.6 24.5755 121.65 24.1405 121.73C23.7105 121.805 23.358 121.905 23.083 122.03C22.813 122.155 22.6155 122.302 22.4905 122.472C22.3705 122.642 22.3105 122.832 22.3105 123.042C22.3105 123.242 22.343 123.415 22.408 123.56C22.473 123.705 22.5605 123.825 22.6705 123.92C22.7855 124.01 22.918 124.077 23.068 124.122C23.223 124.162 23.388 124.182 23.563 124.182C23.798 124.182 24.013 124.16 24.208 124.115C24.403 124.065 24.5855 123.995 24.7555 123.905C24.9305 123.815 25.0955 123.707 25.2505 123.582C25.4105 123.457 25.5655 123.315 25.7155 123.155V121.58ZM21.403 118.475C21.823 118.07 22.2755 117.767 22.7605 117.567C23.2455 117.367 23.783 117.267 24.373 117.267C24.798 117.267 25.1755 117.337 25.5055 117.477C25.8355 117.617 26.113 117.812 26.338 118.062C26.563 118.312 26.733 118.615 26.848 118.97C26.963 119.325 27.0205 119.715 27.0205 120.14V125H26.428C26.298 125 26.198 124.98 26.128 124.94C26.058 124.895 26.003 124.81 25.963 124.685L25.813 123.965C25.613 124.15 25.418 124.315 25.228 124.46C25.038 124.6 24.838 124.72 24.628 124.82C24.418 124.915 24.193 124.987 23.953 125.038C23.718 125.093 23.4555 125.12 23.1655 125.12C22.8705 125.12 22.593 125.08 22.333 125C22.073 124.915 21.8455 124.79 21.6505 124.625C21.4605 124.46 21.308 124.252 21.193 124.002C21.083 123.747 21.028 123.447 21.028 123.102C21.028 122.802 21.1105 122.515 21.2755 122.24C21.4405 121.96 21.708 121.712 22.078 121.497C22.448 121.282 22.9305 121.107 23.5255 120.972C24.1205 120.833 24.8505 120.752 25.7155 120.732V120.14C25.7155 119.55 25.588 119.105 25.333 118.805C25.078 118.5 24.7055 118.347 24.2155 118.347C23.8855 118.347 23.608 118.39 23.383 118.475C23.163 118.555 22.9705 118.647 22.8055 118.752C22.6455 118.852 22.5055 118.945 22.3855 119.03C22.2705 119.11 22.1555 119.15 22.0405 119.15C21.9505 119.15 21.873 119.127 21.808 119.082C21.743 119.032 21.688 118.972 21.643 118.902L21.403 118.475ZM30.3216 118.925C30.5616 118.405 30.8566 118 31.2066 117.71C31.5566 117.415 31.9841 117.267 32.4891 117.267C32.6491 117.267 32.8016 117.285 32.9466 117.32C33.0966 117.355 33.2291 117.41 33.3441 117.485L33.2466 118.482C33.2166 118.607 33.1416 118.67 33.0216 118.67C32.9516 118.67 32.8491 118.655 32.7141 118.625C32.5791 118.595 32.4266 118.58 32.2566 118.58C32.0166 118.58 31.8016 118.615 31.6116 118.685C31.4266 118.755 31.2591 118.86 31.1091 119C30.9641 119.135 30.8316 119.305 30.7116 119.51C30.5966 119.71 30.4916 119.94 30.3966 120.2V125H29.0541V117.402H29.8191C29.9641 117.402 30.0641 117.43 30.1191 117.485C30.1741 117.54 30.2116 117.635 30.2316 117.77L30.3216 118.925ZM36.8504 125.12C36.2504 125.12 35.7879 124.952 35.4629 124.617C35.1429 124.282 34.9829 123.8 34.9829 123.17V118.52H34.0679C33.9879 118.52 33.9204 118.497 33.8654 118.452C33.8104 118.402 33.7829 118.327 33.7829 118.227V117.695L35.0279 117.537L35.3354 115.19C35.3504 115.115 35.3829 115.055 35.4329 115.01C35.4879 114.96 35.5579 114.935 35.6429 114.935H36.3179V117.552H38.5154V118.52H36.3179V123.08C36.3179 123.4 36.3954 123.637 36.5504 123.792C36.7054 123.947 36.9054 124.025 37.1504 124.025C37.2904 124.025 37.4104 124.007 37.5104 123.972C37.6154 123.932 37.7054 123.89 37.7804 123.845C37.8554 123.8 37.9179 123.76 37.9679 123.725C38.0229 123.685 38.0704 123.665 38.1104 123.665C38.1804 123.665 38.2429 123.707 38.2979 123.792L38.6879 124.43C38.4579 124.645 38.1804 124.815 37.8554 124.94C37.5304 125.06 37.1954 125.12 36.8504 125.12ZM41.2364 123.17C41.4814 123.5 41.7489 123.732 42.0389 123.867C42.3289 124.002 42.6539 124.07 43.0139 124.07C43.7239 124.07 44.2689 123.817 44.6489 123.312C45.0289 122.807 45.2189 122.087 45.2189 121.152C45.2189 120.657 45.1739 120.232 45.0839 119.877C44.9989 119.522 44.8739 119.232 44.7089 119.007C44.5439 118.777 44.3414 118.61 44.1014 118.505C43.8614 118.4 43.5889 118.347 43.2839 118.347C42.8489 118.347 42.4664 118.447 42.1364 118.647C41.8114 118.847 41.5114 119.13 41.2364 119.495V123.17ZM41.1689 118.58C41.4889 118.185 41.8589 117.867 42.2789 117.627C42.6989 117.387 43.1789 117.267 43.7189 117.267C44.1589 117.267 44.5564 117.352 44.9114 117.522C45.2664 117.687 45.5689 117.935 45.8189 118.265C46.0689 118.59 46.2614 118.995 46.3964 119.48C46.5314 119.965 46.5989 120.522 46.5989 121.152C46.5989 121.712 46.5239 122.235 46.3739 122.72C46.2239 123.2 46.0064 123.617 45.7214 123.972C45.4414 124.322 45.0964 124.6 44.6864 124.805C44.2814 125.005 43.8239 125.105 43.3139 125.105C42.8489 125.105 42.4489 125.027 42.1139 124.872C41.7839 124.712 41.4914 124.492 41.2364 124.212V127.573H39.8939V117.402H40.6964C40.8864 117.402 41.0039 117.495 41.0489 117.68L41.1689 118.58ZM49.6446 118.415C49.9696 118.07 50.3296 117.795 50.7246 117.59C51.1196 117.385 51.5746 117.282 52.0896 117.282C52.5046 117.282 52.8696 117.352 53.1846 117.492C53.5046 117.627 53.7696 117.822 53.9796 118.077C54.1946 118.327 54.3571 118.63 54.4671 118.985C54.5771 119.34 54.6321 119.732 54.6321 120.162V125H53.2896V120.162C53.2896 119.587 53.1571 119.142 52.8921 118.827C52.6321 118.507 52.2346 118.347 51.6996 118.347C51.3046 118.347 50.9346 118.442 50.5896 118.632C50.2496 118.822 49.9346 119.08 49.6446 119.405V125H48.3021V113.952H49.6446V118.415ZM59.8689 117.282C60.4239 117.282 60.9239 117.375 61.3689 117.56C61.8139 117.745 62.1939 118.007 62.5089 118.347C62.8239 118.687 63.0639 119.1 63.2289 119.585C63.3989 120.065 63.4839 120.602 63.4839 121.197C63.4839 121.797 63.3989 122.337 63.2289 122.817C63.0639 123.297 62.8239 123.707 62.5089 124.047C62.1939 124.387 61.8139 124.65 61.3689 124.835C60.9239 125.015 60.4239 125.105 59.8689 125.105C59.3089 125.105 58.8039 125.015 58.3539 124.835C57.9089 124.65 57.5289 124.387 57.2139 124.047C56.8989 123.707 56.6564 123.297 56.4864 122.817C56.3214 122.337 56.2389 121.797 56.2389 121.197C56.2389 120.602 56.3214 120.065 56.4864 119.585C56.6564 119.1 56.8989 118.687 57.2139 118.347C57.5289 118.007 57.9089 117.745 58.3539 117.56C58.8039 117.375 59.3089 117.282 59.8689 117.282ZM59.8689 124.062C60.6189 124.062 61.1789 123.812 61.5489 123.312C61.9189 122.807 62.1039 122.105 62.1039 121.205C62.1039 120.3 61.9189 119.595 61.5489 119.09C61.1789 118.585 60.6189 118.332 59.8689 118.332C59.4889 118.332 59.1564 118.397 58.8714 118.527C58.5914 118.657 58.3564 118.845 58.1664 119.09C57.9814 119.335 57.8414 119.637 57.7464 119.997C57.6564 120.352 57.6114 120.755 57.6114 121.205C57.6114 122.105 57.7964 122.807 58.1664 123.312C58.5414 123.812 59.1089 124.062 59.8689 124.062ZM66.4371 118.505C66.6021 118.32 66.7771 118.152 66.9621 118.002C67.1471 117.852 67.3421 117.725 67.5471 117.62C67.7571 117.51 67.9771 117.427 68.2071 117.372C68.4421 117.312 68.6946 117.282 68.9646 117.282C69.3796 117.282 69.7446 117.352 70.0596 117.492C70.3796 117.627 70.6446 117.822 70.8546 118.077C71.0696 118.327 71.2321 118.63 71.3421 118.985C71.4521 119.34 71.5071 119.732 71.5071 120.162V125H70.1646V120.162C70.1646 119.587 70.0321 119.142 69.7671 118.827C69.5071 118.507 69.1096 118.347 68.5746 118.347C68.1796 118.347 67.8096 118.442 67.4646 118.632C67.1246 118.822 66.8096 119.08 66.5196 119.405V125H65.1771V117.402H65.9796C66.1696 117.402 66.2871 117.495 66.3321 117.68L66.4371 118.505ZM78.6264 120.372C78.6264 120.062 78.5814 119.78 78.4914 119.525C78.4064 119.265 78.2789 119.042 78.1089 118.857C77.9439 118.667 77.7414 118.522 77.5014 118.422C77.2614 118.317 76.9889 118.265 76.6839 118.265C76.0439 118.265 75.5364 118.452 75.1614 118.827C74.7914 119.197 74.5614 119.712 74.4714 120.372H78.6264ZM79.7064 123.935C79.5414 124.135 79.3439 124.31 79.1139 124.46C78.8839 124.605 78.6364 124.725 78.3714 124.82C78.1114 124.915 77.8414 124.985 77.5614 125.03C77.2814 125.08 77.0039 125.105 76.7289 125.105C76.2039 125.105 75.7189 125.017 75.2739 124.842C74.8339 124.662 74.4514 124.402 74.1264 124.062C73.8064 123.717 73.5564 123.292 73.3764 122.787C73.1964 122.282 73.1064 121.702 73.1064 121.047C73.1064 120.517 73.1864 120.022 73.3464 119.562C73.5114 119.102 73.7464 118.705 74.0514 118.37C74.3564 118.03 74.7289 117.765 75.1689 117.575C75.6089 117.38 76.1039 117.282 76.6539 117.282C77.1089 117.282 77.5289 117.36 77.9139 117.515C78.3039 117.665 78.6389 117.885 78.9189 118.175C79.2039 118.46 79.4264 118.815 79.5864 119.24C79.7464 119.66 79.8264 120.14 79.8264 120.68C79.8264 120.89 79.8039 121.03 79.7589 121.1C79.7139 121.17 79.6289 121.205 79.5039 121.205H74.4264C74.4414 121.685 74.5064 122.102 74.6214 122.457C74.7414 122.812 74.9064 123.11 75.1164 123.35C75.3264 123.585 75.5764 123.762 75.8664 123.882C76.1564 123.997 76.4814 124.055 76.8414 124.055C77.1764 124.055 77.4639 124.017 77.7039 123.942C77.9489 123.862 78.1589 123.777 78.3339 123.687C78.5089 123.597 78.6539 123.515 78.7689 123.44C78.8889 123.36 78.9914 123.32 79.0764 123.32C79.1864 123.32 79.2714 123.362 79.3314 123.447L79.7064 123.935ZM85.8912 118.655C85.8312 118.765 85.7387 118.82 85.6137 118.82C85.5387 118.82 85.4537 118.792 85.3587 118.737C85.2637 118.682 85.1462 118.622 85.0062 118.557C84.8712 118.487 84.7087 118.425 84.5187 118.37C84.3287 118.31 84.1037 118.28 83.8437 118.28C83.6187 118.28 83.4162 118.31 83.2362 118.37C83.0562 118.425 82.9012 118.502 82.7712 118.602C82.6462 118.702 82.5487 118.82 82.4787 118.955C82.4137 119.085 82.3812 119.227 82.3812 119.382C82.3812 119.577 82.4362 119.74 82.5462 119.87C82.6612 120 82.8112 120.112 82.9962 120.207C83.1812 120.302 83.3912 120.387 83.6262 120.462C83.8612 120.532 84.1012 120.61 84.3462 120.695C84.5962 120.775 84.8387 120.865 85.0737 120.965C85.3087 121.065 85.5187 121.19 85.7037 121.34C85.8887 121.49 86.0362 121.675 86.1462 121.895C86.2612 122.11 86.3187 122.37 86.3187 122.675C86.3187 123.025 86.2562 123.35 86.1312 123.65C86.0062 123.945 85.8212 124.202 85.5762 124.422C85.3312 124.637 85.0312 124.807 84.6762 124.932C84.3212 125.058 83.9112 125.12 83.4462 125.12C82.9162 125.12 82.4362 125.035 82.0062 124.865C81.5762 124.69 81.2112 124.467 80.9112 124.197L81.2262 123.687C81.2662 123.622 81.3137 123.572 81.3687 123.537C81.4237 123.502 81.4937 123.485 81.5787 123.485C81.6687 123.485 81.7637 123.52 81.8637 123.59C81.9637 123.66 82.0837 123.737 82.2237 123.822C82.3687 123.907 82.5437 123.985 82.7487 124.055C82.9537 124.125 83.2087 124.16 83.5137 124.16C83.7737 124.16 84.0012 124.127 84.1962 124.062C84.3912 123.992 84.5537 123.9 84.6837 123.785C84.8137 123.67 84.9087 123.537 84.9687 123.387C85.0337 123.237 85.0662 123.077 85.0662 122.907C85.0662 122.697 85.0087 122.525 84.8937 122.39C84.7837 122.25 84.6362 122.132 84.4512 122.037C84.2662 121.937 84.0537 121.852 83.8137 121.782C83.5787 121.707 83.3362 121.63 83.0862 121.55C82.8412 121.47 82.5987 121.38 82.3587 121.28C82.1237 121.175 81.9137 121.045 81.7287 120.89C81.5437 120.735 81.3937 120.545 81.2787 120.32C81.1687 120.09 81.1137 119.812 81.1137 119.487C81.1137 119.197 81.1737 118.92 81.2937 118.655C81.4137 118.385 81.5887 118.15 81.8187 117.95C82.0487 117.745 82.3312 117.582 82.6662 117.463C83.0012 117.342 83.3837 117.282 83.8137 117.282C84.3137 117.282 84.7612 117.362 85.1562 117.522C85.5562 117.677 85.9012 117.892 86.1912 118.167L85.8912 118.655ZM96.8783 120.372C96.8783 120.062 96.8333 119.78 96.7433 119.525C96.6583 119.265 96.5308 119.042 96.3608 118.857C96.1958 118.667 95.9933 118.522 95.7533 118.422C95.5133 118.317 95.2408 118.265 94.9358 118.265C94.2958 118.265 93.7883 118.452 93.4133 118.827C93.0433 119.197 92.8133 119.712 92.7233 120.372H96.8783ZM97.9583 123.935C97.7933 124.135 97.5958 124.31 97.3658 124.46C97.1358 124.605 96.8883 124.725 96.6233 124.82C96.3633 124.915 96.0933 124.985 95.8133 125.03C95.5333 125.08 95.2558 125.105 94.9808 125.105C94.4558 125.105 93.9708 125.017 93.5258 124.842C93.0858 124.662 92.7033 124.402 92.3783 124.062C92.0583 123.717 91.8083 123.292 91.6283 122.787C91.4483 122.282 91.3583 121.702 91.3583 121.047C91.3583 120.517 91.4383 120.022 91.5983 119.562C91.7633 119.102 91.9983 118.705 92.3033 118.37C92.6083 118.03 92.9808 117.765 93.4208 117.575C93.8608 117.38 94.3558 117.282 94.9058 117.282C95.3608 117.282 95.7808 117.36 96.1658 117.515C96.5558 117.665 96.8908 117.885 97.1708 118.175C97.4558 118.46 97.6783 118.815 97.8383 119.24C97.9983 119.66 98.0783 120.14 98.0783 120.68C98.0783 120.89 98.0558 121.03 98.0108 121.1C97.9658 121.17 97.8808 121.205 97.7558 121.205H92.6783C92.6933 121.685 92.7583 122.102 92.8733 122.457C92.9933 122.812 93.1583 123.11 93.3683 123.35C93.5783 123.585 93.8283 123.762 94.1183 123.882C94.4083 123.997 94.7333 124.055 95.0933 124.055C95.4283 124.055 95.7158 124.017 95.9558 123.942C96.2008 123.862 96.4108 123.777 96.5858 123.687C96.7608 123.597 96.9058 123.515 97.0208 123.44C97.1408 123.36 97.2433 123.32 97.3283 123.32C97.4383 123.32 97.5233 123.362 97.5833 123.447L97.9583 123.935ZM111.416 122.78C111.496 122.78 111.566 122.812 111.626 122.877L112.204 123.5C111.764 124.01 111.229 124.407 110.599 124.692C109.974 124.978 109.216 125.12 108.326 125.12C107.556 125.12 106.856 124.988 106.226 124.722C105.596 124.452 105.059 124.077 104.614 123.597C104.169 123.112 103.824 122.532 103.579 121.857C103.334 121.182 103.211 120.44 103.211 119.63C103.211 118.82 103.339 118.077 103.594 117.402C103.849 116.727 104.206 116.147 104.666 115.662C105.131 115.177 105.686 114.802 106.331 114.537C106.976 114.267 107.689 114.132 108.469 114.132C109.234 114.132 109.909 114.255 110.494 114.5C111.079 114.745 111.594 115.077 112.039 115.497L111.559 116.165C111.529 116.215 111.489 116.257 111.439 116.292C111.394 116.322 111.331 116.337 111.251 116.337C111.161 116.337 111.051 116.29 110.921 116.195C110.791 116.095 110.621 115.985 110.411 115.865C110.201 115.745 109.939 115.637 109.624 115.542C109.309 115.442 108.921 115.392 108.461 115.392C107.906 115.392 107.399 115.49 106.939 115.685C106.479 115.875 106.081 116.152 105.746 116.517C105.416 116.882 105.159 117.327 104.974 117.852C104.789 118.377 104.696 118.97 104.696 119.63C104.696 120.3 104.791 120.897 104.981 121.422C105.176 121.947 105.439 122.392 105.769 122.757C106.104 123.117 106.496 123.392 106.946 123.582C107.401 123.772 107.891 123.867 108.416 123.867C108.736 123.867 109.024 123.85 109.279 123.815C109.539 123.775 109.776 123.715 109.991 123.635C110.211 123.555 110.414 123.455 110.599 123.335C110.789 123.21 110.976 123.062 111.161 122.892C111.246 122.817 111.331 122.78 111.416 122.78ZM118.514 120.372C118.514 120.062 118.469 119.78 118.379 119.525C118.294 119.265 118.167 119.042 117.997 118.857C117.832 118.667 117.629 118.522 117.389 118.422C117.149 118.317 116.877 118.265 116.572 118.265C115.932 118.265 115.424 118.452 115.049 118.827C114.679 119.197 114.449 119.712 114.359 120.372H118.514ZM119.594 123.935C119.429 124.135 119.232 124.31 119.002 124.46C118.772 124.605 118.524 124.725 118.259 124.82C117.999 124.915 117.729 124.985 117.449 125.03C117.169 125.08 116.892 125.105 116.617 125.105C116.092 125.105 115.607 125.017 115.162 124.842C114.722 124.662 114.339 124.402 114.014 124.062C113.694 123.717 113.444 123.292 113.264 122.787C113.084 122.282 112.994 121.702 112.994 121.047C112.994 120.517 113.074 120.022 113.234 119.562C113.399 119.102 113.634 118.705 113.939 118.37C114.244 118.03 114.617 117.765 115.057 117.575C115.497 117.38 115.992 117.282 116.542 117.282C116.997 117.282 117.417 117.36 117.802 117.515C118.192 117.665 118.527 117.885 118.807 118.175C119.092 118.46 119.314 118.815 119.474 119.24C119.634 119.66 119.714 120.14 119.714 120.68C119.714 120.89 119.692 121.03 119.647 121.1C119.602 121.17 119.517 121.205 119.392 121.205H114.314C114.329 121.685 114.394 122.102 114.509 122.457C114.629 122.812 114.794 123.11 115.004 123.35C115.214 123.585 115.464 123.762 115.754 123.882C116.044 123.997 116.369 124.055 116.729 124.055C117.064 124.055 117.352 124.017 117.592 123.942C117.837 123.862 118.047 123.777 118.222 123.687C118.397 123.597 118.542 123.515 118.657 123.44C118.777 123.36 118.879 123.32 118.964 123.32C119.074 123.32 119.159 123.362 119.219 123.447L119.594 123.935ZM122.734 113.952V125H121.399V113.952H122.734ZM131.146 117.402V125H130.351C130.161 125 130.041 124.907 129.991 124.722L129.886 123.905C129.556 124.27 129.186 124.565 128.776 124.79C128.366 125.01 127.896 125.12 127.366 125.12C126.951 125.12 126.584 125.053 126.264 124.917C125.949 124.777 125.684 124.582 125.469 124.332C125.254 124.082 125.091 123.78 124.981 123.425C124.876 123.07 124.824 122.677 124.824 122.247V117.402H126.159V122.247C126.159 122.822 126.289 123.267 126.549 123.582C126.814 123.897 127.216 124.055 127.756 124.055C128.151 124.055 128.519 123.962 128.859 123.777C129.204 123.587 129.521 123.327 129.811 122.997V117.402H131.146ZM134.643 113.952V125H133.308V113.952H134.643ZM140.925 121.58C140.31 121.6 139.785 121.65 139.35 121.73C138.92 121.805 138.568 121.905 138.293 122.03C138.023 122.155 137.825 122.302 137.7 122.472C137.58 122.642 137.52 122.832 137.52 123.042C137.52 123.242 137.553 123.415 137.618 123.56C137.683 123.705 137.77 123.825 137.88 123.92C137.995 124.01 138.128 124.077 138.278 124.122C138.433 124.162 138.598 124.182 138.773 124.182C139.008 124.182 139.223 124.16 139.418 124.115C139.613 124.065 139.795 123.995 139.965 123.905C140.14 123.815 140.305 123.707 140.46 123.582C140.62 123.457 140.775 123.315 140.925 123.155V121.58ZM136.613 118.475C137.033 118.07 137.485 117.767 137.97 117.567C138.455 117.367 138.993 117.267 139.583 117.267C140.008 117.267 140.385 117.337 140.715 117.477C141.045 117.617 141.323 117.812 141.548 118.062C141.773 118.312 141.943 118.615 142.058 118.97C142.173 119.325 142.23 119.715 142.23 120.14V125H141.638C141.508 125 141.408 124.98 141.338 124.94C141.268 124.895 141.213 124.81 141.173 124.685L141.023 123.965C140.823 124.15 140.628 124.315 140.438 124.46C140.248 124.6 140.048 124.72 139.838 124.82C139.628 124.915 139.403 124.987 139.163 125.038C138.928 125.093 138.665 125.12 138.375 125.12C138.08 125.12 137.803 125.08 137.543 125C137.283 124.915 137.055 124.79 136.86 124.625C136.67 124.46 136.518 124.252 136.403 124.002C136.293 123.747 136.238 123.447 136.238 123.102C136.238 122.802 136.32 122.515 136.485 122.24C136.65 121.96 136.918 121.712 137.288 121.497C137.658 121.282 138.14 121.107 138.735 120.972C139.33 120.833 140.06 120.752 140.925 120.732V120.14C140.925 119.55 140.798 119.105 140.543 118.805C140.288 118.5 139.915 118.347 139.425 118.347C139.095 118.347 138.818 118.39 138.593 118.475C138.373 118.555 138.18 118.647 138.015 118.752C137.855 118.852 137.715 118.945 137.595 119.03C137.48 119.11 137.365 119.15 137.25 119.15C137.16 119.15 137.083 119.127 137.018 119.082C136.953 119.032 136.898 118.972 136.853 118.902L136.613 118.475ZM145.532 118.925C145.772 118.405 146.067 118 146.417 117.71C146.767 117.415 147.194 117.267 147.699 117.267C147.859 117.267 148.012 117.285 148.157 117.32C148.307 117.355 148.439 117.41 148.554 117.485L148.457 118.482C148.427 118.607 148.352 118.67 148.232 118.67C148.162 118.67 148.059 118.655 147.924 118.625C147.789 118.595 147.637 118.58 147.467 118.58C147.227 118.58 147.012 118.615 146.822 118.685C146.637 118.755 146.469 118.86 146.319 119C146.174 119.135 146.042 119.305 145.922 119.51C145.807 119.71 145.702 119.94 145.607 120.2V125H144.264V117.402H145.029C145.174 117.402 145.274 117.43 145.329 117.485C145.384 117.54 145.422 117.635 145.442 117.77L145.532 118.925ZM154.505 120.372C154.505 120.062 154.46 119.78 154.37 119.525C154.285 119.265 154.158 119.042 153.988 118.857C153.823 118.667 153.62 118.522 153.38 118.422C153.14 118.317 152.868 118.265 152.563 118.265C151.923 118.265 151.415 118.452 151.04 118.827C150.67 119.197 150.44 119.712 150.35 120.372H154.505ZM155.585 123.935C155.42 124.135 155.223 124.31 154.993 124.46C154.763 124.605 154.515 124.725 154.25 124.82C153.99 124.915 153.72 124.985 153.44 125.03C153.16 125.08 152.883 125.105 152.608 125.105C152.083 125.105 151.598 125.017 151.153 124.842C150.713 124.662 150.33 124.402 150.005 124.062C149.685 123.717 149.435 123.292 149.255 122.787C149.075 122.282 148.985 121.702 148.985 121.047C148.985 120.517 149.065 120.022 149.225 119.562C149.39 119.102 149.625 118.705 149.93 118.37C150.235 118.03 150.608 117.765 151.048 117.575C151.488 117.38 151.983 117.282 152.533 117.282C152.988 117.282 153.408 117.36 153.793 117.515C154.183 117.665 154.518 117.885 154.798 118.175C155.083 118.46 155.305 118.815 155.465 119.24C155.625 119.66 155.705 120.14 155.705 120.68C155.705 120.89 155.683 121.03 155.638 121.1C155.593 121.17 155.508 121.205 155.383 121.205H150.305C150.32 121.685 150.385 122.102 150.5 122.457C150.62 122.812 150.785 123.11 150.995 123.35C151.205 123.585 151.455 123.762 151.745 123.882C152.035 123.997 152.36 124.055 152.72 124.055C153.055 124.055 153.343 124.017 153.583 123.942C153.828 123.862 154.038 123.777 154.213 123.687C154.388 123.597 154.533 123.515 154.648 123.44C154.768 123.36 154.87 123.32 154.955 123.32C155.065 123.32 155.15 123.362 155.21 123.447L155.585 123.935ZM161.77 118.655C161.71 118.765 161.618 118.82 161.493 118.82C161.418 118.82 161.333 118.792 161.238 118.737C161.143 118.682 161.025 118.622 160.885 118.557C160.75 118.487 160.588 118.425 160.398 118.37C160.208 118.31 159.983 118.28 159.723 118.28C159.498 118.28 159.295 118.31 159.115 118.37C158.935 118.425 158.78 118.502 158.65 118.602C158.525 118.702 158.428 118.82 158.358 118.955C158.293 119.085 158.26 119.227 158.26 119.382C158.26 119.577 158.315 119.74 158.425 119.87C158.54 120 158.69 120.112 158.875 120.207C159.06 120.302 159.27 120.387 159.505 120.462C159.74 120.532 159.98 120.61 160.225 120.695C160.475 120.775 160.718 120.865 160.953 120.965C161.188 121.065 161.398 121.19 161.583 121.34C161.768 121.49 161.915 121.675 162.025 121.895C162.14 122.11 162.198 122.37 162.198 122.675C162.198 123.025 162.135 123.35 162.01 123.65C161.885 123.945 161.7 124.202 161.455 124.422C161.21 124.637 160.91 124.807 160.555 124.932C160.2 125.058 159.79 125.12 159.325 125.12C158.795 125.12 158.315 125.035 157.885 124.865C157.455 124.69 157.09 124.467 156.79 124.197L157.105 123.687C157.145 123.622 157.193 123.572 157.248 123.537C157.303 123.502 157.373 123.485 157.458 123.485C157.548 123.485 157.643 123.52 157.743 123.59C157.843 123.66 157.963 123.737 158.103 123.822C158.248 123.907 158.423 123.985 158.628 124.055C158.833 124.125 159.088 124.16 159.393 124.16C159.653 124.16 159.88 124.127 160.075 124.062C160.27 123.992 160.433 123.9 160.563 123.785C160.693 123.67 160.788 123.537 160.848 123.387C160.913 123.237 160.945 123.077 160.945 122.907C160.945 122.697 160.888 122.525 160.773 122.39C160.663 122.25 160.515 122.132 160.33 122.037C160.145 121.937 159.933 121.852 159.693 121.782C159.458 121.707 159.215 121.63 158.965 121.55C158.72 121.47 158.478 121.38 158.238 121.28C158.003 121.175 157.793 121.045 157.608 120.89C157.423 120.735 157.273 120.545 157.158 120.32C157.048 120.09 156.993 119.812 156.993 119.487C156.993 119.197 157.053 118.92 157.173 118.655C157.293 118.385 157.468 118.15 157.698 117.95C157.928 117.745 158.21 117.582 158.545 117.463C158.88 117.342 159.263 117.282 159.693 117.282C160.193 117.282 160.64 117.362 161.035 117.522C161.435 117.677 161.78 117.892 162.07 118.167L161.77 118.655Z" fill="white"/>
<circle cx="78" cy="51" r="51" fill="white"/>
<path d="M91.7 64.3H92V64V29.875C92 28.8084 91.1217 27.95 90.05 27.95H66.95C65.8782 27.95 65 28.8084 65 29.875V64V64.3H65.3H91.7ZM65.3 66.95H65V67.25V72.125C65 73.1916 65.8782 74.05 66.95 74.05H90.05C91.1217 74.05 92 73.1916 92 72.125V67.25V66.95H91.7H65.3ZM66.95 25.3H90.05C92.6182 25.3 94.7 27.3567 94.7 29.875V72.125C94.7 74.6433 92.6182 76.7 90.05 76.7H66.95C64.3818 76.7 62.3 74.6433 62.3 72.125V29.875C62.3 27.3567 64.3818 25.3 66.95 25.3ZM79.4562 69.5647C79.9813 70.0818 79.9813 70.9183 79.4562 71.4354C78.9286 71.955 78.0713 71.955 77.5437 71.4354C77.0186 70.9183 77.0186 70.0818 77.5437 69.5647C78.0713 69.0451 78.9286 69.0451 79.4562 69.5647Z" fill="#E2211D" stroke="white" stroke-width="0.6"/>
</svg>
