<svg width="66" height="66" viewBox="0 0 66 66" fill="none" xmlns="http://www.w3.org/2000/svg">
<circle cx="33" cy="33" r="33" fill="#E31F1A"/>
<path d="M41.9 41.35H42.05V41.2V19.15C42.05 18.4878 41.5122 17.95 40.85 17.95H26.15C25.4878 17.95 24.95 18.4878 24.95 19.15V41.2V41.35H25.1H41.9ZM25.1 43.15H24.95V43.3V46.45C24.95 47.1122 25.4878 47.65 26.15 47.65H40.85C41.5122 47.65 42.05 47.1122 42.05 46.45V43.3V43.15H41.9H25.1ZM26.15 16.15H40.85C42.5042 16.15 43.85 17.4958 43.85 19.15V46.45C43.85 48.1042 42.5042 49.45 40.85 49.45H26.15C24.4958 49.45 23.15 48.1042 23.15 46.45V19.15C23.15 17.4958 24.4958 16.15 26.15 16.15ZM34.1364 44.7636C34.4879 45.1151 34.4879 45.685 34.1364 46.0364C33.7849 46.3879 33.2151 46.3879 32.8636 46.0364C32.5121 45.685 32.5121 45.1151 32.8636 44.7636C33.2151 44.4121 33.7849 44.4121 34.1364 44.7636Z" fill="white" stroke="#E31F1A" stroke-width="0.3"/>
</svg>
