<svg width="66" height="66" viewBox="0 0 66 66" fill="none" xmlns="http://www.w3.org/2000/svg">
<circle cx="33" cy="33" r="33" fill="#E31F1A"/>
<path d="M12.85 42.6192L12.85 42.6186L12.85 31.9765C12.85 30.3575 14.1161 29.0285 15.7208 28.8883V24.5461C15.7208 23.0571 16.9515 21.85 18.4593 21.85H30.4416H30.4418V22C30.8551 21.9992 31.2628 22.097 31.6308 22.2853C31.9522 22.4497 32.2354 22.6791 32.4626 22.9582L12.85 42.6192ZM12.85 42.6192C12.8509 42.841 12.9397 43.0533 13.097 43.2097C13.2543 43.366 13.4672 43.4536 13.689 43.4531M12.85 42.6192L13.6887 43.3031M51.5531 43.4529C51.7749 43.4533 51.9878 43.3657 52.1451 43.2094C52.3023 43.0531 52.3912 42.8407 52.3921 42.619V42.6183V31.9767C52.3925 30.2896 51.0174 28.9168 49.3169 28.8767V24.5461C49.3169 23.0571 48.0862 21.85 46.5784 21.85H34.664C34.2277 21.8475 33.7973 21.9503 33.4094 22.1498C33.0808 22.3187 32.7909 22.5527 32.5569 22.8368L46.9274 43.3029M51.5531 43.4529L51.5534 43.3029V43.4529H51.5531ZM51.5531 43.4529H46.9277M46.9277 43.4529L46.9274 43.3029M46.9277 43.4529H46.9274V43.3029M46.9277 43.4529C46.706 43.4533 46.4931 43.3658 46.3358 43.2094C46.1785 43.0531 46.0896 42.8407 46.0887 42.6189L46.0887 42.6183V39.7008L19.1534 39.6929V42.6186V42.6192C19.1525 42.841 19.0636 43.0533 18.9063 43.2097C18.749 43.366 18.5361 43.4536 18.3144 43.4531M46.9274 43.3029L13.6887 43.3031M18.3144 43.4531L18.3147 43.3031V43.4531H18.3144ZM18.3144 43.4531H13.689M13.689 43.4531L13.6887 43.3031M13.689 43.4531H13.6887V43.3031M33.1831 32.2517L33.1847 24.6121L33.1846 24.6099C33.1817 24.411 33.2184 24.2135 33.2925 24.0289C33.3666 23.8444 33.4766 23.6765 33.6162 23.535C33.7534 23.3976 33.9165 23.2889 34.0961 23.2151C34.2758 23.1413 34.4685 23.104 34.6628 23.1053H34.6638H46.5784C47.3999 23.1053 48.0617 23.7556 48.0617 24.5462V29.1002C47.5007 29.3205 47.015 29.6994 46.6647 30.1916C46.2937 30.7129 46.0926 31.336 46.0887 31.9758V31.9767V32.2553L33.1831 32.2517ZM31.925 24.5464V24.5464L31.928 32.2514L19.1534 32.2478L19.1534 31.9767L19.1534 31.9757C19.1486 31.2976 18.9226 30.6396 18.5097 30.1018C18.1201 29.5943 17.5844 29.2199 16.976 29.0282V24.5462C16.976 23.7556 17.6378 23.1053 18.4593 23.1053H30.4418C31.2632 23.1053 31.925 23.7555 31.925 24.5464ZM14.1052 42.1979V31.9767C14.1052 30.9626 14.9526 30.131 16.0017 30.131C17.0509 30.131 17.8982 30.9626 17.8982 31.9767V32.7678C17.8857 32.8389 17.8857 32.9116 17.8982 32.9827V42.1979H14.1052ZM19.1534 38.4377V33.503L46.0887 33.5105V38.4459L19.1534 38.4377ZM51.1373 42.1979H47.3439V31.9767C47.3439 30.9626 48.1912 30.131 49.2404 30.131C50.2895 30.131 51.1369 30.9626 51.1369 31.9767L51.1373 42.1979Z" fill="white" stroke="white" stroke-width="0.3"/>
</svg>
