<svg width="102" height="126" viewBox="0 0 102 126" fill="none" xmlns="http://www.w3.org/2000/svg">
<circle cx="51" cy="51" r="51" fill="white"/>
<path d="M19.85 65.9723L19.85 65.9717L19.85 49.986C19.85 47.5656 21.8279 45.5888 24.3125 45.4162V38.8246C24.3125 36.6258 26.192 34.8501 28.4862 34.8501H47.1122H47.1124V35.0001C47.755 34.9988 48.3886 35.1457 48.9607 35.4285C49.4854 35.688 49.9445 36.0549 50.3063 36.503L19.85 65.9723ZM19.85 65.9723C19.8513 66.2872 19.9819 66.5876 20.2113 66.808C20.4405 67.0282 20.7497 67.1506 21.0708 67.15M19.85 65.9723L21.0706 67M79.9292 67.1496C80.2503 67.1502 80.5594 67.0277 80.7887 66.8076C81.0181 66.5872 81.1486 66.2868 81.15 65.972V65.9713V49.9863C81.1506 47.4636 79.0018 45.4221 76.3698 45.4038V38.8246C76.3698 36.6258 74.4903 34.8501 72.196 34.8501H53.6753C53.0114 34.8463 52.3562 34.9974 51.7653 35.291C51.2339 35.555 50.7685 35.9272 50.4008 36.3816L72.7386 66.9996M79.9292 67.1496L79.9294 66.9996V67.1496H79.9292ZM79.9292 67.1496H72.7389M72.7389 67.1496L72.7386 66.9996M72.7389 67.1496H72.7386V66.9996M72.7389 67.1496C72.4178 67.1503 72.1086 67.0278 71.8794 66.8076C71.6499 66.5873 71.5194 66.2868 71.5181 65.972L71.518 65.9713V61.5136L29.482 61.5017V65.9717V65.9723C29.4806 66.2872 29.3501 66.5876 29.1206 66.808C28.8914 67.0282 28.5822 67.1506 28.2611 67.15M72.7386 66.9996L21.0706 67M28.2611 67.15L28.2614 67V67.15H28.2611ZM28.2611 67.15H21.0708M21.0708 67.15L21.0706 67M21.0708 67.15H21.0706V67M51.2905 50.4746L51.2929 38.9237L51.2929 38.9214C51.2883 38.6133 51.347 38.3074 51.4659 38.0212C51.5848 37.7353 51.7614 37.4746 51.9858 37.2546C52.2067 37.0408 52.4697 36.8713 52.7596 36.7563C53.0496 36.6412 53.3606 36.5829 53.6744 36.585H53.6754H72.196C73.5218 36.585 74.5849 37.5984 74.5849 38.8247V45.7158C73.7069 46.0377 72.9458 46.6046 72.3994 47.3466C71.8319 48.1171 71.5239 49.0386 71.518 49.9854V49.9863V50.48L51.2905 50.4746ZM49.5012 38.825V38.825L49.5058 50.4742L29.482 50.4688L29.482 49.9863L29.4819 49.9852C29.4746 48.9818 29.1285 48.0087 28.497 47.2138C27.8893 46.4487 27.0493 45.8891 26.0973 45.6117V38.8247C26.0973 37.5984 27.1604 36.585 28.4862 36.585H47.1124C48.4381 36.585 49.5012 37.5983 49.5012 38.825ZM21.6348 65.415V49.9863C21.6348 48.4244 22.9863 47.1385 24.666 47.1385C26.3458 47.1385 27.6971 48.4244 27.6971 49.9863V51.1807C27.6778 51.2834 27.6778 51.3886 27.6971 51.4912V65.415H21.6348ZM29.482 59.7669V52.2036L71.518 52.2149V59.7791L29.482 59.7669ZM79.3658 65.415H73.3029V49.9863C73.3029 48.4244 74.6542 47.1385 76.334 47.1385C78.0137 47.1385 79.3652 48.4244 79.3652 49.9863L79.3658 65.415Z" fill="#E2211D" stroke="white" stroke-width="0.3"/>
<path d="M30.9355 113.047L34.1895 121.168L37.4434 113.047H39.1455V123H37.833V119.124L37.9561 114.94L34.6885 123H33.6836L30.4229 114.961L30.5527 119.124V123H29.2402V113.047H30.9355ZM40.9297 119.233C40.9297 118.509 41.071 117.857 41.3535 117.278C41.6406 116.7 42.0371 116.253 42.543 115.938C43.0534 115.624 43.6344 115.467 44.2861 115.467C45.2933 115.467 46.1068 115.815 46.7266 116.513C47.3509 117.21 47.6631 118.137 47.6631 119.295V119.384C47.6631 120.104 47.5241 120.751 47.2461 121.325C46.9727 121.895 46.5785 122.339 46.0635 122.658C45.5531 122.977 44.9652 123.137 44.2998 123.137C43.2972 123.137 42.4837 122.788 41.8594 122.091C41.2396 121.394 40.9297 120.471 40.9297 119.322V119.233ZM42.2012 119.384C42.2012 120.204 42.3903 120.863 42.7686 121.359C43.1514 121.856 43.6618 122.104 44.2998 122.104C44.9424 122.104 45.4528 121.854 45.8311 121.353C46.2093 120.847 46.3984 120.14 46.3984 119.233C46.3984 118.422 46.2048 117.766 45.8174 117.265C45.4346 116.759 44.9242 116.506 44.2861 116.506C43.6618 116.506 43.1582 116.754 42.7754 117.251C42.3926 117.748 42.2012 118.459 42.2012 119.384ZM44.8604 112.5H46.3916L44.5596 114.51H43.541L44.8604 112.5ZM51.5801 121.284L53.4121 115.604H54.7041L52.0518 123H51.0879L48.4082 115.604H49.7002L51.5801 121.284ZM58.8945 123.137C57.8919 123.137 57.0762 122.809 56.4473 122.152C55.8184 121.492 55.5039 120.61 55.5039 119.507V119.274C55.5039 118.541 55.6429 117.887 55.9209 117.312C56.2035 116.734 56.5954 116.283 57.0967 115.959C57.6025 115.631 58.1494 115.467 58.7373 115.467C59.6989 115.467 60.4463 115.784 60.9795 116.417C61.5127 117.05 61.7793 117.957 61.7793 119.138V119.664H56.7686C56.7868 120.393 56.9987 120.983 57.4043 121.435C57.8145 121.881 58.334 122.104 58.9629 122.104C59.4095 122.104 59.7878 122.013 60.0977 121.831C60.4076 121.649 60.6787 121.407 60.9111 121.106L61.6836 121.708C61.0638 122.66 60.1341 123.137 58.8945 123.137ZM58.7373 116.506C58.2269 116.506 57.7985 116.693 57.4521 117.066C57.1058 117.436 56.8916 117.955 56.8096 118.625H60.5146V118.529C60.4782 117.887 60.305 117.39 59.9951 117.039C59.6852 116.684 59.266 116.506 58.7373 116.506ZM64.623 123H63.3584V115.604H64.623V123ZM63.2559 113.642C63.2559 113.437 63.3174 113.263 63.4404 113.122C63.568 112.981 63.7549 112.91 64.001 112.91C64.2471 112.91 64.4339 112.981 64.5615 113.122C64.6891 113.263 64.7529 113.437 64.7529 113.642C64.7529 113.847 64.6891 114.018 64.5615 114.154C64.4339 114.291 64.2471 114.359 64.001 114.359C63.7549 114.359 63.568 114.291 63.4404 114.154C63.3174 114.018 63.2559 113.847 63.2559 113.642ZM70.96 121.038C70.96 120.696 70.8301 120.432 70.5703 120.245C70.3151 120.054 69.8662 119.89 69.2236 119.753C68.5856 119.616 68.0775 119.452 67.6992 119.261C67.3255 119.069 67.0475 118.841 66.8652 118.577C66.6875 118.313 66.5986 117.998 66.5986 117.634C66.5986 117.028 66.8538 116.515 67.3643 116.096C67.8792 115.676 68.5355 115.467 69.333 115.467C70.1715 115.467 70.8506 115.683 71.3701 116.116C71.8942 116.549 72.1562 117.103 72.1562 117.777H70.8848C70.8848 117.431 70.7367 117.132 70.4404 116.882C70.1488 116.631 69.7796 116.506 69.333 116.506C68.8727 116.506 68.5127 116.606 68.2529 116.807C67.9932 117.007 67.8633 117.269 67.8633 117.593C67.8633 117.898 67.984 118.128 68.2256 118.283C68.4671 118.438 68.9023 118.586 69.5312 118.728C70.1647 118.869 70.6774 119.037 71.0693 119.233C71.4613 119.429 71.7507 119.666 71.9375 119.944C72.1289 120.218 72.2246 120.553 72.2246 120.949C72.2246 121.61 71.9603 122.141 71.4316 122.542C70.903 122.938 70.2171 123.137 69.374 123.137C68.7816 123.137 68.2575 123.032 67.8018 122.822C67.346 122.613 66.9883 122.321 66.7285 121.947C66.4733 121.569 66.3457 121.161 66.3457 120.724H67.6104C67.6331 121.147 67.8018 121.485 68.1162 121.735C68.4352 121.981 68.8545 122.104 69.374 122.104C69.8525 122.104 70.2354 122.009 70.5225 121.817C70.8141 121.621 70.96 121.362 70.96 121.038Z" fill="white"/>
</svg>
