<svg width="102" height="128" viewBox="0 0 102 128" fill="none" xmlns="http://www.w3.org/2000/svg">
<path d="M9.2525 123.815L9.245 125H2.6225V114.252H9.245V115.437H4.0775V119.007H8.2625V120.147H4.0775V123.815H9.2525ZM12.2715 113.952V125H10.9365V113.952H12.2715ZM19.5214 120.372C19.5214 120.062 19.4764 119.78 19.3864 119.525C19.3014 119.265 19.1739 119.042 19.0039 118.857C18.8389 118.667 18.6364 118.522 18.3964 118.422C18.1564 118.317 17.8839 118.265 17.5789 118.265C16.9389 118.265 16.4314 118.452 16.0564 118.827C15.6864 119.197 15.4564 119.712 15.3664 120.372H19.5214ZM20.6014 123.935C20.4364 124.135 20.2389 124.31 20.0089 124.46C19.7789 124.605 19.5314 124.725 19.2664 124.82C19.0064 124.915 18.7364 124.985 18.4564 125.03C18.1764 125.08 17.8989 125.105 17.6239 125.105C17.0989 125.105 16.6139 125.017 16.1689 124.842C15.7289 124.662 15.3464 124.402 15.0214 124.062C14.7014 123.717 14.4514 123.292 14.2714 122.787C14.0914 122.282 14.0014 121.702 14.0014 121.047C14.0014 120.517 14.0814 120.022 14.2414 119.562C14.4064 119.102 14.6414 118.705 14.9464 118.37C15.2514 118.03 15.6239 117.765 16.0639 117.575C16.5039 117.38 16.9989 117.282 17.5489 117.282C18.0039 117.282 18.4239 117.36 18.8089 117.515C19.1989 117.665 19.5339 117.885 19.8139 118.175C20.0989 118.46 20.3214 118.815 20.4814 119.24C20.6414 119.66 20.7214 120.14 20.7214 120.68C20.7214 120.89 20.6989 121.03 20.6539 121.1C20.6089 121.17 20.5239 121.205 20.3989 121.205H15.3214C15.3364 121.685 15.4014 122.102 15.5164 122.457C15.6364 122.812 15.8014 123.11 16.0114 123.35C16.2214 123.585 16.4714 123.762 16.7614 123.882C17.0514 123.997 17.3764 124.055 17.7364 124.055C18.0714 124.055 18.3589 124.017 18.5989 123.942C18.8439 123.862 19.0539 123.777 19.2289 123.687C19.4039 123.597 19.5489 123.515 19.6639 123.44C19.7839 123.36 19.8864 123.32 19.9714 123.32C20.0814 123.32 20.1664 123.362 20.2264 123.447L20.6014 123.935ZM24.6351 125.12C24.0351 125.12 23.5726 124.952 23.2476 124.617C22.9276 124.282 22.7676 123.8 22.7676 123.17V118.52H21.8526C21.7726 118.52 21.7051 118.497 21.6501 118.452C21.5951 118.402 21.5676 118.327 21.5676 118.227V117.695L22.8126 117.537L23.1201 115.19C23.1351 115.115 23.1676 115.055 23.2176 115.01C23.2726 114.96 23.3426 114.935 23.4276 114.935H24.1026V117.552H26.3001V118.52H24.1026V123.08C24.1026 123.4 24.1801 123.637 24.3351 123.792C24.4901 123.947 24.6901 124.025 24.9351 124.025C25.0751 124.025 25.1951 124.007 25.2951 123.972C25.4001 123.932 25.4901 123.89 25.5651 123.845C25.6401 123.8 25.7026 123.76 25.7526 123.725C25.8076 123.685 25.8551 123.665 25.8951 123.665C25.9651 123.665 26.0276 123.707 26.0826 123.792L26.4726 124.43C26.2426 124.645 25.9651 124.815 25.6401 124.94C25.3151 125.06 24.9801 125.12 24.6351 125.12ZM28.9461 118.925C29.1861 118.405 29.4811 118 29.8311 117.71C30.1811 117.415 30.6086 117.267 31.1136 117.267C31.2736 117.267 31.4261 117.285 31.5711 117.32C31.7211 117.355 31.8536 117.41 31.9686 117.485L31.8711 118.482C31.8411 118.607 31.7661 118.67 31.6461 118.67C31.5761 118.67 31.4736 118.655 31.3386 118.625C31.2036 118.595 31.0511 118.58 30.8811 118.58C30.6411 118.58 30.4261 118.615 30.2361 118.685C30.0511 118.755 29.8836 118.86 29.7336 119C29.5886 119.135 29.4561 119.305 29.3361 119.51C29.2211 119.71 29.1161 119.94 29.0211 120.2V125H27.6786V117.402H28.4436C28.5886 117.402 28.6886 117.43 28.7436 117.485C28.7986 117.54 28.8361 117.635 28.8561 117.77L28.9461 118.925ZM36.0373 117.282C36.5923 117.282 37.0923 117.375 37.5373 117.56C37.9823 117.745 38.3623 118.007 38.6773 118.347C38.9923 118.687 39.2323 119.1 39.3973 119.585C39.5673 120.065 39.6523 120.602 39.6523 121.197C39.6523 121.797 39.5673 122.337 39.3973 122.817C39.2323 123.297 38.9923 123.707 38.6773 124.047C38.3623 124.387 37.9823 124.65 37.5373 124.835C37.0923 125.015 36.5923 125.105 36.0373 125.105C35.4773 125.105 34.9723 125.015 34.5223 124.835C34.0773 124.65 33.6973 124.387 33.3823 124.047C33.0673 123.707 32.8248 123.297 32.6548 122.817C32.4898 122.337 32.4073 121.797 32.4073 121.197C32.4073 120.602 32.4898 120.065 32.6548 119.585C32.8248 119.1 33.0673 118.687 33.3823 118.347C33.6973 118.007 34.0773 117.745 34.5223 117.56C34.9723 117.375 35.4773 117.282 36.0373 117.282ZM36.0373 124.062C36.7873 124.062 37.3473 123.812 37.7173 123.312C38.0873 122.807 38.2723 122.105 38.2723 121.205C38.2723 120.3 38.0873 119.595 37.7173 119.09C37.3473 118.585 36.7873 118.332 36.0373 118.332C35.6573 118.332 35.3248 118.397 35.0398 118.527C34.7598 118.657 34.5248 118.845 34.3348 119.09C34.1498 119.335 34.0098 119.637 33.9148 119.997C33.8248 120.352 33.7798 120.755 33.7798 121.205C33.7798 122.105 33.9648 122.807 34.3348 123.312C34.7098 123.812 35.2773 124.062 36.0373 124.062ZM42.6881 123.17C42.9331 123.5 43.2006 123.732 43.4906 123.867C43.7806 124.002 44.1056 124.07 44.4656 124.07C45.1756 124.07 45.7206 123.817 46.1006 123.312C46.4806 122.807 46.6706 122.087 46.6706 121.152C46.6706 120.657 46.6256 120.232 46.5356 119.877C46.4506 119.522 46.3256 119.232 46.1606 119.007C45.9956 118.777 45.7931 118.61 45.5531 118.505C45.3131 118.4 45.0406 118.347 44.7356 118.347C44.3006 118.347 43.9181 118.447 43.5881 118.647C43.2631 118.847 42.9631 119.13 42.6881 119.495V123.17ZM42.6206 118.58C42.9406 118.185 43.3106 117.867 43.7306 117.627C44.1506 117.387 44.6306 117.267 45.1706 117.267C45.6106 117.267 46.0081 117.352 46.3631 117.522C46.7181 117.687 47.0206 117.935 47.2706 118.265C47.5206 118.59 47.7131 118.995 47.8481 119.48C47.9831 119.965 48.0506 120.522 48.0506 121.152C48.0506 121.712 47.9756 122.235 47.8256 122.72C47.6756 123.2 47.4581 123.617 47.1731 123.972C46.8931 124.322 46.5481 124.6 46.1381 124.805C45.7331 125.005 45.2756 125.105 44.7656 125.105C44.3006 125.105 43.9006 125.027 43.5656 124.872C43.2356 124.712 42.9431 124.492 42.6881 124.212V127.573H41.3456V117.402H42.1481C42.3381 117.402 42.4556 117.495 42.5006 117.68L42.6206 118.58ZM52.9563 117.282C53.5113 117.282 54.0113 117.375 54.4563 117.56C54.9013 117.745 55.2813 118.007 55.5963 118.347C55.9113 118.687 56.1513 119.1 56.3163 119.585C56.4863 120.065 56.5713 120.602 56.5713 121.197C56.5713 121.797 56.4863 122.337 56.3163 122.817C56.1513 123.297 55.9113 123.707 55.5963 124.047C55.2813 124.387 54.9013 124.65 54.4563 124.835C54.0113 125.015 53.5113 125.105 52.9563 125.105C52.3963 125.105 51.8913 125.015 51.4413 124.835C50.9963 124.65 50.6163 124.387 50.3013 124.047C49.9863 123.707 49.7438 123.297 49.5738 122.817C49.4088 122.337 49.3263 121.797 49.3263 121.197C49.3263 120.602 49.4088 120.065 49.5738 119.585C49.7438 119.1 49.9863 118.687 50.3013 118.347C50.6163 118.007 50.9963 117.745 51.4413 117.56C51.8913 117.375 52.3963 117.282 52.9563 117.282ZM52.9563 124.062C53.7063 124.062 54.2663 123.812 54.6363 123.312C55.0063 122.807 55.1913 122.105 55.1913 121.205C55.1913 120.3 55.0063 119.595 54.6363 119.09C54.2663 118.585 53.7063 118.332 52.9563 118.332C52.5763 118.332 52.2438 118.397 51.9588 118.527C51.6788 118.657 51.4438 118.845 51.2538 119.09C51.0688 119.335 50.9288 119.637 50.8338 119.997C50.7438 120.352 50.6988 120.755 50.6988 121.205C50.6988 122.105 50.8838 122.807 51.2538 123.312C51.6288 123.812 52.1963 124.062 52.9563 124.062ZM59.532 118.925C59.772 118.405 60.067 118 60.417 117.71C60.767 117.415 61.1945 117.267 61.6995 117.267C61.8595 117.267 62.012 117.285 62.157 117.32C62.307 117.355 62.4395 117.41 62.5545 117.485L62.457 118.482C62.427 118.607 62.352 118.67 62.232 118.67C62.162 118.67 62.0595 118.655 61.9245 118.625C61.7895 118.595 61.637 118.58 61.467 118.58C61.227 118.58 61.012 118.615 60.822 118.685C60.637 118.755 60.4695 118.86 60.3195 119C60.1745 119.135 60.042 119.305 59.922 119.51C59.807 119.71 59.702 119.94 59.607 120.2V125H58.2645V117.402H59.0295C59.1745 117.402 59.2745 117.43 59.3295 117.485C59.3845 117.54 59.422 117.635 59.442 117.77L59.532 118.925ZM66.0609 125.12C65.4609 125.12 64.9984 124.952 64.6734 124.617C64.3534 124.282 64.1934 123.8 64.1934 123.17V118.52H63.2784C63.1984 118.52 63.1309 118.497 63.0759 118.452C63.0209 118.402 62.9934 118.327 62.9934 118.227V117.695L64.2384 117.537L64.5459 115.19C64.5609 115.115 64.5934 115.055 64.6434 115.01C64.6984 114.96 64.7684 114.935 64.8534 114.935H65.5284V117.552H67.7259V118.52H65.5284V123.08C65.5284 123.4 65.6059 123.637 65.7609 123.792C65.9159 123.947 66.1159 124.025 66.3609 124.025C66.5009 124.025 66.6209 124.007 66.7209 123.972C66.8259 123.932 66.9159 123.89 66.9909 123.845C67.0659 123.8 67.1284 123.76 67.1784 123.725C67.2334 123.685 67.2809 123.665 67.3209 123.665C67.3909 123.665 67.4534 123.707 67.5084 123.792L67.8984 124.43C67.6684 124.645 67.3909 124.815 67.0659 124.94C66.7409 125.06 66.4059 125.12 66.0609 125.12ZM73.2219 121.58C72.6069 121.6 72.0819 121.65 71.6469 121.73C71.2169 121.805 70.8644 121.905 70.5894 122.03C70.3194 122.155 70.1219 122.302 69.9969 122.472C69.8769 122.642 69.8169 122.832 69.8169 123.042C69.8169 123.242 69.8494 123.415 69.9144 123.56C69.9794 123.705 70.0669 123.825 70.1769 123.92C70.2919 124.01 70.4244 124.077 70.5744 124.122C70.7294 124.162 70.8944 124.182 71.0694 124.182C71.3044 124.182 71.5194 124.16 71.7144 124.115C71.9094 124.065 72.0919 123.995 72.2619 123.905C72.4369 123.815 72.6019 123.707 72.7569 123.582C72.9169 123.457 73.0719 123.315 73.2219 123.155V121.58ZM68.9094 118.475C69.3294 118.07 69.7819 117.767 70.2669 117.567C70.7519 117.367 71.2894 117.267 71.8794 117.267C72.3044 117.267 72.6819 117.337 73.0119 117.477C73.3419 117.617 73.6194 117.812 73.8444 118.062C74.0694 118.312 74.2394 118.615 74.3544 118.97C74.4694 119.325 74.5269 119.715 74.5269 120.14V125H73.9344C73.8044 125 73.7044 124.98 73.6344 124.94C73.5644 124.895 73.5094 124.81 73.4694 124.685L73.3194 123.965C73.1194 124.15 72.9244 124.315 72.7344 124.46C72.5444 124.6 72.3444 124.72 72.1344 124.82C71.9244 124.915 71.6994 124.987 71.4594 125.038C71.2244 125.093 70.9619 125.12 70.6719 125.12C70.3769 125.12 70.0994 125.08 69.8394 125C69.5794 124.915 69.3519 124.79 69.1569 124.625C68.9669 124.46 68.8144 124.252 68.6994 124.002C68.5894 123.747 68.5344 123.447 68.5344 123.102C68.5344 122.802 68.6169 122.515 68.7819 122.24C68.9469 121.96 69.2144 121.712 69.5844 121.497C69.9544 121.282 70.4369 121.107 71.0319 120.972C71.6269 120.833 72.3569 120.752 73.2219 120.732V120.14C73.2219 119.55 73.0944 119.105 72.8394 118.805C72.5844 118.5 72.2119 118.347 71.7219 118.347C71.3919 118.347 71.1144 118.39 70.8894 118.475C70.6694 118.555 70.4769 118.647 70.3119 118.752C70.1519 118.852 70.0119 118.945 69.8919 119.03C69.7769 119.11 69.6619 119.15 69.5469 119.15C69.4569 119.15 69.3794 119.127 69.3144 119.082C69.2494 119.032 69.1944 118.972 69.1494 118.902L68.9094 118.475ZM73.8969 114.132L72.1494 116.067C72.0794 116.142 72.0094 116.197 71.9394 116.232C71.8744 116.262 71.7894 116.277 71.6844 116.277H70.8894L71.9994 114.462C72.0694 114.347 72.1444 114.265 72.2244 114.215C72.3094 114.16 72.4319 114.132 72.5919 114.132H73.8969ZM78.7904 125.12C78.1904 125.12 77.7279 124.952 77.4029 124.617C77.0829 124.282 76.9229 123.8 76.9229 123.17V118.52H76.0079C75.9279 118.52 75.8604 118.497 75.8054 118.452C75.7504 118.402 75.7229 118.327 75.7229 118.227V117.695L76.9679 117.537L77.2754 115.19C77.2904 115.115 77.3229 115.055 77.3729 115.01C77.4279 114.96 77.4979 114.935 77.5829 114.935H78.2579V117.552H80.4554V118.52H78.2579V123.08C78.2579 123.4 78.3354 123.637 78.4904 123.792C78.6454 123.947 78.8454 124.025 79.0904 124.025C79.2304 124.025 79.3504 124.007 79.4504 123.972C79.5554 123.932 79.6454 123.89 79.7204 123.845C79.7954 123.8 79.8579 123.76 79.9079 123.725C79.9629 123.685 80.0104 123.665 80.0504 123.665C80.1204 123.665 80.1829 123.707 80.2379 123.792L80.6279 124.43C80.3979 124.645 80.1204 124.815 79.7954 124.94C79.4704 125.06 79.1354 125.12 78.7904 125.12ZM86.8749 120.372C86.8749 120.062 86.8299 119.78 86.7399 119.525C86.6549 119.265 86.5274 119.042 86.3574 118.857C86.1924 118.667 85.9899 118.522 85.7499 118.422C85.5099 118.317 85.2374 118.265 84.9324 118.265C84.2924 118.265 83.7849 118.452 83.4099 118.827C83.0399 119.197 82.8099 119.712 82.7199 120.372H86.8749ZM87.9549 123.935C87.7899 124.135 87.5924 124.31 87.3624 124.46C87.1324 124.605 86.8849 124.725 86.6199 124.82C86.3599 124.915 86.0899 124.985 85.8099 125.03C85.5299 125.08 85.2524 125.105 84.9774 125.105C84.4524 125.105 83.9674 125.017 83.5224 124.842C83.0824 124.662 82.6999 124.402 82.3749 124.062C82.0549 123.717 81.8049 123.292 81.6249 122.787C81.4449 122.282 81.3549 121.702 81.3549 121.047C81.3549 120.517 81.4349 120.022 81.5949 119.562C81.7599 119.102 81.9949 118.705 82.2999 118.37C82.6049 118.03 82.9774 117.765 83.4174 117.575C83.8574 117.38 84.3524 117.282 84.9024 117.282C85.3574 117.282 85.7774 117.36 86.1624 117.515C86.5524 117.665 86.8874 117.885 87.1674 118.175C87.4524 118.46 87.6749 118.815 87.8349 119.24C87.9949 119.66 88.0749 120.14 88.0749 120.68C88.0749 120.89 88.0524 121.03 88.0074 121.1C87.9624 121.17 87.8774 121.205 87.7524 121.205H82.6749C82.6899 121.685 82.7549 122.102 82.8699 122.457C82.9899 122.812 83.1549 123.11 83.3649 123.35C83.5749 123.585 83.8249 123.762 84.1149 123.882C84.4049 123.997 84.7299 124.055 85.0899 124.055C85.4249 124.055 85.7124 124.017 85.9524 123.942C86.1974 123.862 86.4074 123.777 86.5824 123.687C86.7574 123.597 86.9024 123.515 87.0174 123.44C87.1374 123.36 87.2399 123.32 87.3249 123.32C87.4349 123.32 87.5199 123.362 87.5799 123.447L87.9549 123.935ZM91.1247 117.402V125H89.7897V117.402H91.1247ZM91.4097 115.017C91.4097 115.147 91.3822 115.27 91.3272 115.385C91.2772 115.495 91.2072 115.595 91.1172 115.685C91.0322 115.77 90.9297 115.837 90.8097 115.887C90.6947 115.937 90.5722 115.962 90.4422 115.962C90.3122 115.962 90.1897 115.937 90.0747 115.887C89.9647 115.837 89.8672 115.77 89.7822 115.685C89.6972 115.595 89.6297 115.495 89.5797 115.385C89.5297 115.27 89.5047 115.147 89.5047 115.017C89.5047 114.887 89.5297 114.765 89.5797 114.65C89.6297 114.53 89.6972 114.427 89.7822 114.342C89.8672 114.252 89.9647 114.182 90.0747 114.132C90.1897 114.082 90.3122 114.057 90.4422 114.057C90.5722 114.057 90.6947 114.082 90.8097 114.132C90.9297 114.182 91.0322 114.252 91.1172 114.342C91.2072 114.427 91.2772 114.53 91.3272 114.65C91.3822 114.765 91.4097 114.887 91.4097 115.017ZM97.7432 118.655C97.6832 118.765 97.5907 118.82 97.4657 118.82C97.3907 118.82 97.3057 118.792 97.2107 118.737C97.1157 118.682 96.9982 118.622 96.8582 118.557C96.7232 118.487 96.5607 118.425 96.3707 118.37C96.1807 118.31 95.9557 118.28 95.6957 118.28C95.4707 118.28 95.2682 118.31 95.0882 118.37C94.9082 118.425 94.7532 118.502 94.6232 118.602C94.4982 118.702 94.4007 118.82 94.3307 118.955C94.2657 119.085 94.2332 119.227 94.2332 119.382C94.2332 119.577 94.2882 119.74 94.3982 119.87C94.5132 120 94.6632 120.112 94.8482 120.207C95.0332 120.302 95.2432 120.387 95.4782 120.462C95.7132 120.532 95.9532 120.61 96.1982 120.695C96.4482 120.775 96.6907 120.865 96.9257 120.965C97.1607 121.065 97.3707 121.19 97.5557 121.34C97.7407 121.49 97.8882 121.675 97.9982 121.895C98.1132 122.11 98.1707 122.37 98.1707 122.675C98.1707 123.025 98.1082 123.35 97.9832 123.65C97.8582 123.945 97.6732 124.202 97.4282 124.422C97.1832 124.637 96.8832 124.807 96.5282 124.932C96.1732 125.058 95.7632 125.12 95.2982 125.12C94.7682 125.12 94.2882 125.035 93.8582 124.865C93.4282 124.69 93.0632 124.467 92.7632 124.197L93.0782 123.687C93.1182 123.622 93.1657 123.572 93.2207 123.537C93.2757 123.502 93.3457 123.485 93.4307 123.485C93.5207 123.485 93.6157 123.52 93.7157 123.59C93.8157 123.66 93.9357 123.737 94.0757 123.822C94.2207 123.907 94.3957 123.985 94.6007 124.055C94.8057 124.125 95.0607 124.16 95.3657 124.16C95.6257 124.16 95.8532 124.127 96.0482 124.062C96.2432 123.992 96.4057 123.9 96.5357 123.785C96.6657 123.67 96.7607 123.537 96.8207 123.387C96.8857 123.237 96.9182 123.077 96.9182 122.907C96.9182 122.697 96.8607 122.525 96.7457 122.39C96.6357 122.25 96.4882 122.132 96.3032 122.037C96.1182 121.937 95.9057 121.852 95.6657 121.782C95.4307 121.707 95.1882 121.63 94.9382 121.55C94.6932 121.47 94.4507 121.38 94.2107 121.28C93.9757 121.175 93.7657 121.045 93.5807 120.89C93.3957 120.735 93.2457 120.545 93.1307 120.32C93.0207 120.09 92.9657 119.812 92.9657 119.487C92.9657 119.197 93.0257 118.92 93.1457 118.655C93.2657 118.385 93.4407 118.15 93.6707 117.95C93.9007 117.745 94.1832 117.582 94.5182 117.463C94.8532 117.342 95.2357 117.282 95.6657 117.282C96.1657 117.282 96.6132 117.362 97.0082 117.522C97.4082 117.677 97.7532 117.892 98.0432 118.167L97.7432 118.655Z" fill="white"/>
<circle cx="51" cy="51" r="51" fill="white"/>
<path d="M76.15 48.95H65.1V47.25H67.65C68.1194 47.25 68.5 46.8694 68.5 46.4V43.85H69.35C69.8194 43.85 70.2 43.4694 70.2 43V34.5C70.195 29.8076 66.3924 26.005 61.7 26H36.2C31.5076 26.005 27.705 29.8076 27.7 34.5V39.6C27.6892 41.9969 29.2635 44.1127 31.5624 44.7909L36.2 46.1825V62.55C36.1963 65.8346 33.5346 68.4963 30.25 68.5C27.903 68.5 26 70.403 26 72.75C26 75.097 27.903 77 30.25 77H74.025C75.6681 77 77 75.6681 77 74.025C77 72.3819 75.6681 71.05 74.025 71.05H68.5V68.053C73.6681 65.7155 76.9917 60.5719 77 54.9V49.8C77 49.3306 76.6194 48.95 76.15 48.95ZM75.3 52.35H49.8V50.65H75.3V52.35ZM48.1 49.8V54.9C48.1083 60.5719 51.4319 65.7155 56.6 68.053V69.8999C50.4508 67.4583 46.4104 61.5161 46.4 54.9V45.9248C47.8435 44.5884 49.7386 43.8475 51.7059 43.85H56.6V46.4C56.6 46.8694 56.9806 47.25 57.45 47.25H60V48.95H48.95C48.4806 48.95 48.1 49.3306 48.1 49.8ZM63.4 48.95H61.7V47.25H63.4V48.95ZM66.8 45.55H58.3V43.85H66.8V45.55ZM29.4 35.35H68.5V38.75H29.4V35.35ZM36.2 27.7H61.7C65.1253 27.7042 68.014 30.2521 68.4465 33.65H29.4527C29.8856 30.2521 32.7747 27.7046 36.2 27.7ZM29.5004 40.45H68.5V42.15H51.7059C49.2953 42.1442 46.9728 43.056 45.2101 44.7H37.1741L32.0504 43.1623C30.7796 42.7742 29.8092 41.7424 29.5004 40.45ZM75.3 74.025C75.3 74.7293 74.7293 75.3 74.025 75.3H30.25C28.8418 75.3 27.7 74.1582 27.7 72.75C27.7 71.3418 28.8418 70.2 30.25 70.2C34.473 70.1954 37.8954 66.773 37.9 62.55V46.4H44.7V54.9C44.7112 64.7534 52.6966 72.7388 62.55 72.75H74.025C74.7293 72.75 75.3 73.3207 75.3 74.025ZM66.8 71.05H62.55C61.1136 71.0454 59.6842 70.8483 58.3 70.4636V68.71C61.0691 69.5633 64.0309 69.5633 66.8 68.71V71.05ZM62.55 67.65C55.5118 67.6421 49.8079 61.9382 49.8 54.9V54.05H75.3V54.9C75.2921 61.9382 69.5882 67.6421 62.55 67.65Z" fill="#E2211D"/>
</svg>
