<svg width="102" height="128" viewBox="0 0 102 128" fill="none" xmlns="http://www.w3.org/2000/svg">
<circle cx="51" cy="51" r="51" fill="white"/>
<path d="M76.334 45.5536C76.2957 45.5536 76.2579 45.5554 76.2198 45.5564V38.8246C76.2198 36.7158 74.4147 35.0001 72.196 35.0001H53.6749C53.0341 34.9963 52.4019 35.1422 51.832 35.4254C51.2621 35.7085 50.7715 36.1205 50.4018 36.6262C50.0268 36.1219 49.5328 35.7114 48.9607 35.4285C48.3886 35.1457 47.755 34.9988 47.1124 35.0001H28.4862C26.2675 35.0001 24.4625 36.7158 24.4625 38.8246V45.5582C21.9838 45.6598 20 47.6066 20 49.986V65.9717C20.0011 66.2452 20.1145 66.507 20.3152 66.6998C20.5159 66.8926 20.7876 67.0005 21.0706 67H28.2614C28.5444 67.0005 28.816 66.8926 29.0167 66.6998C29.2174 66.507 29.3308 66.2452 29.332 65.9717V61.3516L71.668 61.3636V65.9713C71.6692 66.2448 71.7826 66.5066 71.9833 66.6994C72.184 66.8922 72.4556 67.0002 72.7386 66.9996H79.9294C80.2124 67.0001 80.4841 66.8922 80.6847 66.6994C80.8854 66.5066 80.9988 66.2448 81 65.9713V49.9863C81.0006 47.5422 78.9068 45.5536 76.334 45.5536ZM51.8813 37.1471C52.1165 36.9193 52.3963 36.7391 52.7043 36.6169C53.0123 36.4946 53.3424 36.4328 53.6754 36.435H72.196C73.596 36.435 74.7349 37.5071 74.7349 38.8247V45.8218C73.8424 46.1267 73.069 46.6902 72.5201 47.4355C71.9713 48.1808 71.6737 49.0716 71.668 49.9863V50.6301L51.1405 50.6246L51.1429 38.9236C51.138 38.595 51.2007 38.2687 51.3274 37.9637C51.4542 37.6587 51.6424 37.3811 51.8813 37.1471ZM28.4862 36.435H47.1124C48.5123 36.435 49.6512 37.5071 49.6512 38.825L49.6559 50.6242L29.332 50.6187V49.9863C29.3249 49.0168 28.9905 48.0761 28.3796 47.3071C27.7687 46.538 26.9146 45.9827 25.9473 45.7256V38.8247C25.9473 37.5071 27.0863 36.435 28.4862 36.435ZM21.4848 65.565V49.9863C21.4848 48.3333 22.912 46.9885 24.666 46.9885C26.4201 46.9885 27.8471 48.3333 27.8471 49.9863V51.1954C27.8278 51.2882 27.8278 51.3837 27.8471 51.4765V65.565H21.4848ZM29.332 59.9168V52.0536L71.668 52.0649V59.9291L29.332 59.9168ZM79.5158 65.565H73.1529V49.9863C73.1529 48.3333 74.5799 46.9885 76.334 46.9885C78.088 46.9885 79.5152 48.3333 79.5152 49.9863L79.5158 65.565Z" fill="#E2211D"/>
<path d="M38.7806 114.252V125H37.5056V117.102C37.5056 116.997 37.5081 116.885 37.5131 116.765C37.5231 116.645 37.5331 116.522 37.5431 116.397L33.8531 123.117C33.7381 123.342 33.5631 123.455 33.3281 123.455H33.1181C32.8831 123.455 32.7081 123.342 32.5931 123.117L28.8281 116.367C28.8581 116.632 28.8731 116.877 28.8731 117.102V125H27.5981V114.252H28.6706C28.8006 114.252 28.9006 114.265 28.9706 114.29C29.0406 114.315 29.1081 114.385 29.1731 114.5L32.8856 121.115C32.9456 121.235 33.0031 121.36 33.0581 121.49C33.1181 121.62 33.1731 121.752 33.2231 121.887C33.2731 121.752 33.3256 121.62 33.3806 121.49C33.4356 121.355 33.4956 121.227 33.5606 121.107L37.2056 114.5C37.2656 114.385 37.3306 114.315 37.4006 114.29C37.4756 114.265 37.5781 114.252 37.7081 114.252H38.7806ZM44.1819 117.282C44.7369 117.282 45.2369 117.375 45.6819 117.56C46.1269 117.745 46.5069 118.007 46.8219 118.347C47.1369 118.687 47.3769 119.1 47.5419 119.585C47.7119 120.065 47.7969 120.602 47.7969 121.197C47.7969 121.797 47.7119 122.337 47.5419 122.817C47.3769 123.297 47.1369 123.707 46.8219 124.047C46.5069 124.387 46.1269 124.65 45.6819 124.835C45.2369 125.015 44.7369 125.105 44.1819 125.105C43.6219 125.105 43.1169 125.015 42.6669 124.835C42.2219 124.65 41.8419 124.387 41.5269 124.047C41.2119 123.707 40.9694 123.297 40.7994 122.817C40.6344 122.337 40.5519 121.797 40.5519 121.197C40.5519 120.602 40.6344 120.065 40.7994 119.585C40.9694 119.1 41.2119 118.687 41.5269 118.347C41.8419 118.007 42.2219 117.745 42.6669 117.56C43.1169 117.375 43.6219 117.282 44.1819 117.282ZM44.1819 124.062C44.9319 124.062 45.4919 123.812 45.8619 123.312C46.2319 122.807 46.4169 122.105 46.4169 121.205C46.4169 120.3 46.2319 119.595 45.8619 119.09C45.4919 118.585 44.9319 118.332 44.1819 118.332C43.8019 118.332 43.4694 118.397 43.1844 118.527C42.9044 118.657 42.6694 118.845 42.4794 119.09C42.2944 119.335 42.1544 119.637 42.0594 119.997C41.9694 120.352 41.9244 120.755 41.9244 121.205C41.9244 122.105 42.1094 122.807 42.4794 123.312C42.8544 123.812 43.4219 124.062 44.1819 124.062ZM46.3719 114.132L44.6244 116.067C44.5544 116.142 44.4844 116.197 44.4144 116.232C44.3494 116.262 44.2644 116.277 44.1594 116.277H43.3644L44.4744 114.462C44.5444 114.347 44.6194 114.265 44.6994 114.215C44.7844 114.16 44.9069 114.132 45.0669 114.132H46.3719ZM55.795 117.402L52.6975 125H51.4975L48.4 117.402H49.4875C49.5975 117.402 49.6875 117.43 49.7575 117.485C49.8275 117.54 49.875 117.605 49.9 117.68L51.8275 122.57C51.8875 122.755 51.94 122.935 51.985 123.11C52.03 123.285 52.0725 123.46 52.1125 123.635C52.1525 123.46 52.195 123.285 52.24 123.11C52.285 122.935 52.34 122.755 52.405 122.57L54.355 117.68C54.385 117.6 54.435 117.535 54.505 117.485C54.575 117.43 54.6575 117.402 54.7525 117.402H55.795ZM61.8993 120.372C61.8993 120.062 61.8543 119.78 61.7643 119.525C61.6793 119.265 61.5518 119.042 61.3818 118.857C61.2168 118.667 61.0143 118.522 60.7743 118.422C60.5343 118.317 60.2618 118.265 59.9568 118.265C59.3168 118.265 58.8093 118.452 58.4343 118.827C58.0643 119.197 57.8343 119.712 57.7443 120.372H61.8993ZM62.9793 123.935C62.8143 124.135 62.6168 124.31 62.3868 124.46C62.1568 124.605 61.9093 124.725 61.6443 124.82C61.3843 124.915 61.1143 124.985 60.8343 125.03C60.5543 125.08 60.2768 125.105 60.0018 125.105C59.4768 125.105 58.9918 125.017 58.5468 124.842C58.1068 124.662 57.7243 124.402 57.3993 124.062C57.0793 123.717 56.8293 123.292 56.6493 122.787C56.4693 122.282 56.3793 121.702 56.3793 121.047C56.3793 120.517 56.4593 120.022 56.6193 119.562C56.7843 119.102 57.0193 118.705 57.3243 118.37C57.6293 118.03 58.0018 117.765 58.4418 117.575C58.8818 117.38 59.3768 117.282 59.9268 117.282C60.3818 117.282 60.8018 117.36 61.1868 117.515C61.5768 117.665 61.9118 117.885 62.1918 118.175C62.4768 118.46 62.6993 118.815 62.8593 119.24C63.0193 119.66 63.0993 120.14 63.0993 120.68C63.0993 120.89 63.0768 121.03 63.0318 121.1C62.9868 121.17 62.9018 121.205 62.7768 121.205H57.6993C57.7143 121.685 57.7793 122.102 57.8943 122.457C58.0143 122.812 58.1793 123.11 58.3893 123.35C58.5993 123.585 58.8493 123.762 59.1393 123.882C59.4293 123.997 59.7543 124.055 60.1143 124.055C60.4493 124.055 60.7368 124.017 60.9768 123.942C61.2218 123.862 61.4318 123.777 61.6068 123.687C61.7818 123.597 61.9268 123.515 62.0418 123.44C62.1618 123.36 62.2643 123.32 62.3493 123.32C62.4593 123.32 62.5443 123.362 62.6043 123.447L62.9793 123.935ZM66.1491 117.402V125H64.8141V117.402H66.1491ZM66.4341 115.017C66.4341 115.147 66.4066 115.27 66.3516 115.385C66.3016 115.495 66.2316 115.595 66.1416 115.685C66.0566 115.77 65.9541 115.837 65.8341 115.887C65.7191 115.937 65.5966 115.962 65.4666 115.962C65.3366 115.962 65.2141 115.937 65.0991 115.887C64.9891 115.837 64.8916 115.77 64.8066 115.685C64.7216 115.595 64.6541 115.495 64.6041 115.385C64.5541 115.27 64.5291 115.147 64.5291 115.017C64.5291 114.887 64.5541 114.765 64.6041 114.65C64.6541 114.53 64.7216 114.427 64.8066 114.342C64.8916 114.252 64.9891 114.182 65.0991 114.132C65.2141 114.082 65.3366 114.057 65.4666 114.057C65.5966 114.057 65.7191 114.082 65.8341 114.132C65.9541 114.182 66.0566 114.252 66.1416 114.342C66.2316 114.427 66.3016 114.53 66.3516 114.65C66.4066 114.765 66.4341 114.887 66.4341 115.017ZM72.7677 118.655C72.7077 118.765 72.6152 118.82 72.4902 118.82C72.4152 118.82 72.3302 118.792 72.2352 118.737C72.1402 118.682 72.0227 118.622 71.8827 118.557C71.7477 118.487 71.5852 118.425 71.3952 118.37C71.2052 118.31 70.9802 118.28 70.7202 118.28C70.4952 118.28 70.2927 118.31 70.1127 118.37C69.9327 118.425 69.7777 118.502 69.6477 118.602C69.5227 118.702 69.4252 118.82 69.3552 118.955C69.2902 119.085 69.2577 119.227 69.2577 119.382C69.2577 119.577 69.3127 119.74 69.4227 119.87C69.5377 120 69.6877 120.112 69.8727 120.207C70.0577 120.302 70.2677 120.387 70.5027 120.462C70.7377 120.532 70.9777 120.61 71.2227 120.695C71.4727 120.775 71.7152 120.865 71.9502 120.965C72.1852 121.065 72.3952 121.19 72.5802 121.34C72.7652 121.49 72.9127 121.675 73.0227 121.895C73.1377 122.11 73.1952 122.37 73.1952 122.675C73.1952 123.025 73.1327 123.35 73.0077 123.65C72.8827 123.945 72.6977 124.202 72.4527 124.422C72.2077 124.637 71.9077 124.807 71.5527 124.932C71.1977 125.058 70.7877 125.12 70.3227 125.12C69.7927 125.12 69.3127 125.035 68.8827 124.865C68.4527 124.69 68.0877 124.467 67.7877 124.197L68.1027 123.687C68.1427 123.622 68.1902 123.572 68.2452 123.537C68.3002 123.502 68.3702 123.485 68.4552 123.485C68.5452 123.485 68.6402 123.52 68.7402 123.59C68.8402 123.66 68.9602 123.737 69.1002 123.822C69.2452 123.907 69.4202 123.985 69.6252 124.055C69.8302 124.125 70.0852 124.16 70.3902 124.16C70.6502 124.16 70.8777 124.127 71.0727 124.062C71.2677 123.992 71.4302 123.9 71.5602 123.785C71.6902 123.67 71.7852 123.537 71.8452 123.387C71.9102 123.237 71.9427 123.077 71.9427 122.907C71.9427 122.697 71.8852 122.525 71.7702 122.39C71.6602 122.25 71.5127 122.132 71.3277 122.037C71.1427 121.937 70.9302 121.852 70.6902 121.782C70.4552 121.707 70.2127 121.63 69.9627 121.55C69.7177 121.47 69.4752 121.38 69.2352 121.28C69.0002 121.175 68.7902 121.045 68.6052 120.89C68.4202 120.735 68.2702 120.545 68.1552 120.32C68.0452 120.09 67.9902 119.812 67.9902 119.487C67.9902 119.197 68.0502 118.92 68.1702 118.655C68.2902 118.385 68.4652 118.15 68.6952 117.95C68.9252 117.745 69.2077 117.582 69.5427 117.463C69.8777 117.342 70.2602 117.282 70.6902 117.282C71.1902 117.282 71.6377 117.362 72.0327 117.522C72.4327 117.677 72.7777 117.892 73.0677 118.167L72.7677 118.655Z" fill="white"/>
</svg>
