<svg width="110" height="126" viewBox="0 0 110 126" fill="none" xmlns="http://www.w3.org/2000/svg">
<path d="M7.1416 118.399H2.82812V121.927H7.83887V123H1.51562V113.047H7.77051V114.127H2.82812V117.326H7.1416V118.399ZM10.6484 123H9.38379V112.5H10.6484V123ZM15.748 123.137C14.7454 123.137 13.9297 122.809 13.3008 122.152C12.6719 121.492 12.3574 120.61 12.3574 119.507V119.274C12.3574 118.541 12.4964 117.887 12.7744 117.312C13.057 116.734 13.4489 116.283 13.9502 115.959C14.4561 115.631 15.0029 115.467 15.5908 115.467C16.5524 115.467 17.2998 115.784 17.833 116.417C18.3662 117.05 18.6328 117.957 18.6328 119.138V119.664H13.6221C13.6403 120.393 13.8522 120.983 14.2578 121.435C14.668 121.881 15.1875 122.104 15.8164 122.104C16.263 122.104 16.6413 122.013 16.9512 121.831C17.2611 121.649 17.5322 121.407 17.7646 121.106L18.5371 121.708C17.9173 122.66 16.9876 123.137 15.748 123.137ZM15.5908 116.506C15.0804 116.506 14.652 116.693 14.3057 117.066C13.9593 117.436 13.7451 117.955 13.6631 118.625H17.3682V118.529C17.3317 117.887 17.1585 117.39 16.8486 117.039C16.5387 116.684 16.1195 116.506 15.5908 116.506ZM16.2061 112.5H17.7373L15.9053 114.51H14.8867L16.2061 112.5ZM21.8184 113.812V115.604H23.1992V116.581H21.8184V121.168C21.8184 121.464 21.8799 121.688 22.0029 121.838C22.126 121.984 22.3356 122.057 22.6318 122.057C22.7777 122.057 22.9782 122.029 23.2334 121.975V123C22.9007 123.091 22.5771 123.137 22.2627 123.137C21.6976 123.137 21.2715 122.966 20.9844 122.624C20.6973 122.282 20.5537 121.797 20.5537 121.168V116.581H19.207V115.604H20.5537V113.812H21.8184ZM28.2578 116.738C28.0664 116.706 27.859 116.69 27.6357 116.69C26.8063 116.69 26.2435 117.044 25.9473 117.75V123H24.6826V115.604H25.9131L25.9336 116.458C26.3483 115.797 26.9362 115.467 27.6973 115.467C27.9434 115.467 28.1302 115.499 28.2578 115.562V116.738ZM28.9551 119.233C28.9551 118.509 29.0964 117.857 29.3789 117.278C29.666 116.7 30.0625 116.253 30.5684 115.938C31.0788 115.624 31.6598 115.467 32.3115 115.467C33.3187 115.467 34.1322 115.815 34.752 116.513C35.3763 117.21 35.6885 118.137 35.6885 119.295V119.384C35.6885 120.104 35.5495 120.751 35.2715 121.325C34.998 121.895 34.6038 122.339 34.0889 122.658C33.5785 122.977 32.9906 123.137 32.3252 123.137C31.3226 123.137 30.5091 122.788 29.8848 122.091C29.265 121.394 28.9551 120.471 28.9551 119.322V119.233ZM30.2266 119.384C30.2266 120.204 30.4157 120.863 30.7939 121.359C31.1768 121.856 31.6872 122.104 32.3252 122.104C32.9678 122.104 33.4782 121.854 33.8564 121.353C34.2347 120.847 34.4238 120.14 34.4238 119.233C34.4238 118.422 34.2301 117.766 33.8428 117.265C33.46 116.759 32.9495 116.506 32.3115 116.506C31.6872 116.506 31.1836 116.754 30.8008 117.251C30.418 117.748 30.2266 118.459 30.2266 119.384ZM36.9668 119.24C36.9668 118.105 37.2357 117.194 37.7734 116.506C38.3112 115.813 39.0153 115.467 39.8857 115.467C40.7516 115.467 41.4375 115.763 41.9434 116.355V112.5H43.208V123H42.0459L41.9844 122.207C41.4785 122.827 40.7744 123.137 39.8721 123.137C39.0153 123.137 38.3158 122.786 37.7734 122.084C37.2357 121.382 36.9668 120.466 36.9668 119.336V119.24ZM38.2314 119.384C38.2314 120.222 38.4046 120.879 38.751 121.353C39.0973 121.826 39.5758 122.063 40.1865 122.063C40.9886 122.063 41.5742 121.703 41.9434 120.983V117.586C41.5651 116.889 40.984 116.54 40.2002 116.54C39.5804 116.54 39.0973 116.779 38.751 117.258C38.4046 117.736 38.2314 118.445 38.2314 119.384ZM44.8418 119.233C44.8418 118.509 44.9831 117.857 45.2656 117.278C45.5527 116.7 45.9492 116.253 46.4551 115.938C46.9655 115.624 47.5465 115.467 48.1982 115.467C49.2054 115.467 50.0189 115.815 50.6387 116.513C51.263 117.21 51.5752 118.137 51.5752 119.295V119.384C51.5752 120.104 51.4362 120.751 51.1582 121.325C50.8848 121.895 50.4906 122.339 49.9756 122.658C49.4652 122.977 48.8773 123.137 48.2119 123.137C47.2093 123.137 46.3958 122.788 45.7715 122.091C45.1517 121.394 44.8418 120.471 44.8418 119.322V119.233ZM46.1133 119.384C46.1133 120.204 46.3024 120.863 46.6807 121.359C47.0635 121.856 47.5739 122.104 48.2119 122.104C48.8545 122.104 49.3649 121.854 49.7432 121.353C50.1214 120.847 50.3105 120.14 50.3105 119.233C50.3105 118.422 50.1169 117.766 49.7295 117.265C49.3467 116.759 48.8363 116.506 48.1982 116.506C47.5739 116.506 47.0703 116.754 46.6875 117.251C46.3047 117.748 46.1133 118.459 46.1133 119.384ZM54.3506 115.604L54.3848 116.424C54.9271 115.786 55.6585 115.467 56.5791 115.467C57.6136 115.467 58.3177 115.863 58.6914 116.656C58.9375 116.301 59.2565 116.014 59.6484 115.795C60.0449 115.576 60.512 115.467 61.0498 115.467C62.6722 115.467 63.4971 116.326 63.5244 118.044V123H62.2598V118.119C62.2598 117.59 62.139 117.196 61.8975 116.937C61.6559 116.672 61.2503 116.54 60.6807 116.54C60.2113 116.54 59.8216 116.681 59.5117 116.964C59.2018 117.242 59.0218 117.618 58.9717 118.092V123H57.7002V118.153C57.7002 117.078 57.1738 116.54 56.1211 116.54C55.2917 116.54 54.7243 116.893 54.4189 117.6V123H53.1543V115.604H54.3506ZM68.5078 123.137C67.5052 123.137 66.6895 122.809 66.0605 122.152C65.4316 121.492 65.1172 120.61 65.1172 119.507V119.274C65.1172 118.541 65.2562 117.887 65.5342 117.312C65.8167 116.734 66.2087 116.283 66.71 115.959C67.2158 115.631 67.7627 115.467 68.3506 115.467C69.3122 115.467 70.0596 115.784 70.5928 116.417C71.126 117.05 71.3926 117.957 71.3926 119.138V119.664H66.3818C66.4001 120.393 66.612 120.983 67.0176 121.435C67.4277 121.881 67.9473 122.104 68.5762 122.104C69.0228 122.104 69.401 122.013 69.7109 121.831C70.0208 121.649 70.292 121.407 70.5244 121.106L71.2969 121.708C70.6771 122.66 69.7474 123.137 68.5078 123.137ZM68.3506 116.506C67.8402 116.506 67.4118 116.693 67.0654 117.066C66.7191 117.436 66.5049 117.955 66.4229 118.625H70.1279V118.529C70.0915 117.887 69.9183 117.39 69.6084 117.039C69.2985 116.684 68.8792 116.506 68.3506 116.506ZM68.9658 112.5H70.4971L68.665 114.51H67.6465L68.9658 112.5ZM77.1689 121.038C77.1689 120.696 77.0391 120.432 76.7793 120.245C76.5241 120.054 76.0752 119.89 75.4326 119.753C74.7946 119.616 74.2865 119.452 73.9082 119.261C73.5345 119.069 73.2565 118.841 73.0742 118.577C72.8965 118.313 72.8076 117.998 72.8076 117.634C72.8076 117.028 73.0628 116.515 73.5732 116.096C74.0882 115.676 74.7445 115.467 75.542 115.467C76.3805 115.467 77.0596 115.683 77.5791 116.116C78.1032 116.549 78.3652 117.103 78.3652 117.777H77.0938C77.0938 117.431 76.9456 117.132 76.6494 116.882C76.3577 116.631 75.9886 116.506 75.542 116.506C75.0817 116.506 74.7217 116.606 74.4619 116.807C74.2021 117.007 74.0723 117.269 74.0723 117.593C74.0723 117.898 74.193 118.128 74.4346 118.283C74.6761 118.438 75.1113 118.586 75.7402 118.728C76.3737 118.869 76.8864 119.037 77.2783 119.233C77.6702 119.429 77.9596 119.666 78.1465 119.944C78.3379 120.218 78.4336 120.553 78.4336 120.949C78.4336 121.61 78.1693 122.141 77.6406 122.542C77.112 122.938 76.4261 123.137 75.583 123.137C74.9906 123.137 74.4665 123.032 74.0107 122.822C73.555 122.613 73.1973 122.321 72.9375 121.947C72.6823 121.569 72.5547 121.161 72.5547 120.724H73.8193C73.8421 121.147 74.0107 121.485 74.3252 121.735C74.6442 121.981 75.0635 122.104 75.583 122.104C76.0615 122.104 76.4443 122.009 76.7314 121.817C77.0231 121.621 77.1689 121.362 77.1689 121.038ZM81.7969 113.812V115.604H83.1777V116.581H81.7969V121.168C81.7969 121.464 81.8584 121.688 81.9814 121.838C82.1045 121.984 82.3141 122.057 82.6104 122.057C82.7562 122.057 82.9567 122.029 83.2119 121.975V123C82.8792 123.091 82.5557 123.137 82.2412 123.137C81.6761 123.137 81.25 122.966 80.9629 122.624C80.6758 122.282 80.5322 121.797 80.5322 121.168V116.581H79.1855V115.604H80.5322V113.812H81.7969ZM86.0352 123H84.7705V115.604H86.0352V123ZM84.668 113.642C84.668 113.437 84.7295 113.263 84.8525 113.122C84.9801 112.981 85.167 112.91 85.4131 112.91C85.6592 112.91 85.846 112.981 85.9736 113.122C86.1012 113.263 86.165 113.437 86.165 113.642C86.165 113.847 86.1012 114.018 85.9736 114.154C85.846 114.291 85.6592 114.359 85.4131 114.359C85.167 114.359 84.9801 114.291 84.8525 114.154C84.7295 114.018 84.668 113.847 84.668 113.642ZM91.0322 122.104C91.4834 122.104 91.8776 121.968 92.2148 121.694C92.5521 121.421 92.7389 121.079 92.7754 120.669H93.9717C93.9489 121.093 93.8031 121.496 93.5342 121.879C93.2653 122.262 92.9053 122.567 92.4541 122.795C92.0075 123.023 91.5335 123.137 91.0322 123.137C90.0251 123.137 89.223 122.802 88.626 122.132C88.0335 121.457 87.7373 120.537 87.7373 119.37V119.158C87.7373 118.438 87.8695 117.798 88.1338 117.237C88.3981 116.677 88.7764 116.242 89.2686 115.932C89.7653 115.622 90.3509 115.467 91.0254 115.467C91.8548 115.467 92.543 115.715 93.0898 116.212C93.6413 116.709 93.9352 117.354 93.9717 118.146H92.7754C92.7389 117.668 92.5566 117.276 92.2285 116.971C91.9049 116.661 91.5039 116.506 91.0254 116.506C90.3828 116.506 89.8838 116.738 89.5283 117.203C89.1774 117.663 89.002 118.331 89.002 119.206V119.445C89.002 120.298 89.1774 120.954 89.5283 121.414C89.8792 121.874 90.3805 122.104 91.0322 122.104ZM95.0586 119.233C95.0586 118.509 95.1999 117.857 95.4824 117.278C95.7695 116.7 96.166 116.253 96.6719 115.938C97.1823 115.624 97.7633 115.467 98.415 115.467C99.4222 115.467 100.236 115.815 100.855 116.513C101.48 117.21 101.792 118.137 101.792 119.295V119.384C101.792 120.104 101.653 120.751 101.375 121.325C101.102 121.895 100.707 122.339 100.192 122.658C99.682 122.977 99.0941 123.137 98.4287 123.137C97.4261 123.137 96.6126 122.788 95.9883 122.091C95.3685 121.394 95.0586 120.471 95.0586 119.322V119.233ZM96.3301 119.384C96.3301 120.204 96.5192 120.863 96.8975 121.359C97.2803 121.856 97.7907 122.104 98.4287 122.104C99.0713 122.104 99.5817 121.854 99.96 121.353C100.338 120.847 100.527 120.14 100.527 119.233C100.527 118.422 100.334 117.766 99.9463 117.265C99.5635 116.759 99.0531 116.506 98.415 116.506C97.7907 116.506 97.2871 116.754 96.9043 117.251C96.5215 117.748 96.3301 118.459 96.3301 119.384ZM107.685 121.038C107.685 120.696 107.555 120.432 107.295 120.245C107.04 120.054 106.591 119.89 105.948 119.753C105.31 119.616 104.802 119.452 104.424 119.261C104.05 119.069 103.772 118.841 103.59 118.577C103.412 118.313 103.323 117.998 103.323 117.634C103.323 117.028 103.578 116.515 104.089 116.096C104.604 115.676 105.26 115.467 106.058 115.467C106.896 115.467 107.575 115.683 108.095 116.116C108.619 116.549 108.881 117.103 108.881 117.777H107.609C107.609 117.431 107.461 117.132 107.165 116.882C106.873 116.631 106.504 116.506 106.058 116.506C105.597 116.506 105.237 116.606 104.978 116.807C104.718 117.007 104.588 117.269 104.588 117.593C104.588 117.898 104.709 118.128 104.95 118.283C105.192 118.438 105.627 118.586 106.256 118.728C106.889 118.869 107.402 119.037 107.794 119.233C108.186 119.429 108.475 119.666 108.662 119.944C108.854 120.218 108.949 120.553 108.949 120.949C108.949 121.61 108.685 122.141 108.156 122.542C107.628 122.938 106.942 123.137 106.099 123.137C105.506 123.137 104.982 123.032 104.526 122.822C104.071 122.613 103.713 122.321 103.453 121.947C103.198 121.569 103.07 121.161 103.07 120.724H104.335C104.358 121.147 104.526 121.485 104.841 121.735C105.16 121.981 105.579 122.104 106.099 122.104C106.577 122.104 106.96 122.009 107.247 121.817C107.539 121.621 107.685 121.362 107.685 121.038Z" fill="white"/>
<circle cx="55" cy="51" r="51" fill="white"/>
<path d="M34 25.9H33.9V26V77V77.1H34H77H77.1V77V26V25.9H77H34ZM35.7645 75.6736V38.9633H75.18V75.6736H35.7645ZM75.18 37.0633H35.7645V27.8567H75.18V37.0633ZM55.4723 66.8433C61.9659 66.8433 67.2239 61.4696 67.2239 54.7867C67.2239 48.1601 61.9656 42.7867 55.4723 42.7867C48.9789 42.7867 43.7206 48.1601 43.7206 54.7867C43.7206 61.4696 48.9786 66.8433 55.4723 66.8433ZM55.4723 44.7433C60.908 44.7433 65.3594 49.2866 65.3594 54.8433C65.3594 60.4001 60.908 64.9433 55.4723 64.9433C50.0366 64.9433 45.5852 60.4001 45.5852 54.8433C45.5852 49.2866 50.0366 44.7433 55.4723 44.7433ZM55.4723 62.99C59.8572 62.99 63.451 59.3166 63.451 54.8433C63.451 50.3701 59.8572 46.6967 55.4723 46.6967C51.0873 46.6967 47.4935 50.3701 47.4935 54.8433C47.4935 59.3166 51.0873 62.99 55.4723 62.99ZM55.4723 48.6533C58.7996 48.6533 61.531 51.4399 61.531 54.8433C61.531 58.2468 58.7996 61.0333 55.4723 61.0333C52.1449 61.0333 49.4135 58.2468 49.4135 54.8433C49.4135 51.4399 52.1449 48.6533 55.4723 48.6533ZM68.3445 35.2233C69.5355 35.2233 70.4974 34.2379 70.4974 33.0267C70.4974 31.8155 69.5355 30.83 68.3445 30.83C67.1535 30.83 66.1916 31.8155 66.1916 33.0267C66.1916 34.2379 67.1535 35.2233 68.3445 35.2233ZM63.4619 34.2033C64.1014 34.2033 64.6161 33.6745 64.6161 33.0267C64.6161 32.3788 64.1014 31.85 63.4619 31.85C62.8225 31.85 62.3077 32.3788 62.3077 33.0267C62.3077 33.6745 62.8225 34.2033 63.4619 34.2033ZM60.0774 34.2033C60.7168 34.2033 61.2316 33.6745 61.2316 33.0267C61.2316 32.3788 60.7168 31.85 60.0774 31.85C59.438 31.85 58.9232 32.3788 58.9232 33.0267C58.9232 33.6745 59.438 34.2033 60.0774 34.2033ZM43.3768 34.6H52.3097C52.9772 34.6 53.5194 34.0432 53.5194 33.3667C53.5194 32.6901 52.9772 32.1333 52.3097 32.1333H43.3768C42.7092 32.1333 42.1671 32.6901 42.1671 33.3667C42.1671 34.0432 42.7092 34.6 43.3768 34.6Z" fill="#E2211D" stroke="white" stroke-width="0.2"/>
</svg>
