<svg width="140" height="126" viewBox="0 0 140 126" fill="none" xmlns="http://www.w3.org/2000/svg">
<circle cx="71" cy="51" r="51" fill="white"/>
<path d="M8.37402 113.047V119.814C8.36947 120.753 8.07324 121.521 7.48535 122.118C6.90202 122.715 6.10905 123.05 5.10645 123.123L4.75781 123.137C3.66862 123.137 2.80046 122.843 2.15332 122.255C1.50618 121.667 1.17806 120.858 1.16895 119.828V113.047H2.46777V119.787C2.46777 120.507 2.66602 121.068 3.0625 121.469C3.45898 121.865 4.02409 122.063 4.75781 122.063C5.50065 122.063 6.06803 121.865 6.45996 121.469C6.85645 121.072 7.05469 120.514 7.05469 119.794V113.047H8.37402ZM11.9629 113.812V115.604H13.3438V116.581H11.9629V121.168C11.9629 121.464 12.0244 121.688 12.1475 121.838C12.2705 121.984 12.4801 122.057 12.7764 122.057C12.9222 122.057 13.1227 122.029 13.3779 121.975V123C13.0452 123.091 12.7217 123.137 12.4072 123.137C11.8421 123.137 11.416 122.966 11.1289 122.624C10.8418 122.282 10.6982 121.797 10.6982 121.168V116.581H9.35156V115.604H10.6982V113.812H11.9629ZM17.8965 123.137C16.8939 123.137 16.0781 122.809 15.4492 122.152C14.8203 121.492 14.5059 120.61 14.5059 119.507V119.274C14.5059 118.541 14.6449 117.887 14.9229 117.312C15.2054 116.734 15.5973 116.283 16.0986 115.959C16.6045 115.631 17.1514 115.467 17.7393 115.467C18.7008 115.467 19.4482 115.784 19.9814 116.417C20.5146 117.05 20.7812 117.957 20.7812 119.138V119.664H15.7705C15.7887 120.393 16.0007 120.983 16.4062 121.435C16.8164 121.881 17.3359 122.104 17.9648 122.104C18.4115 122.104 18.7897 122.013 19.0996 121.831C19.4095 121.649 19.6807 121.407 19.9131 121.106L20.6855 121.708C20.0658 122.66 19.1361 123.137 17.8965 123.137ZM17.7393 116.506C17.2288 116.506 16.8005 116.693 16.4541 117.066C16.1077 117.436 15.8936 117.955 15.8115 118.625H19.5166V118.529C19.4801 117.887 19.307 117.39 18.9971 117.039C18.6872 116.684 18.2679 116.506 17.7393 116.506ZM23.4473 115.604L23.4883 116.533C24.0534 115.822 24.7917 115.467 25.7031 115.467C27.2663 115.467 28.0547 116.349 28.0684 118.112V123H26.8037V118.105C26.7992 117.572 26.6761 117.178 26.4346 116.923C26.1976 116.668 25.8262 116.54 25.3203 116.54C24.9102 116.54 24.5501 116.649 24.2402 116.868C23.9303 117.087 23.6888 117.374 23.5156 117.729V123H22.251V115.604H23.4473ZM34.2822 121.038C34.2822 120.696 34.1523 120.432 33.8926 120.245C33.6374 120.054 33.1885 119.89 32.5459 119.753C31.9079 119.616 31.3997 119.452 31.0215 119.261C30.6478 119.069 30.3698 118.841 30.1875 118.577C30.0098 118.313 29.9209 117.998 29.9209 117.634C29.9209 117.028 30.1761 116.515 30.6865 116.096C31.2015 115.676 31.8577 115.467 32.6553 115.467C33.4938 115.467 34.1729 115.683 34.6924 116.116C35.2165 116.549 35.4785 117.103 35.4785 117.777H34.207C34.207 117.431 34.0589 117.132 33.7627 116.882C33.471 116.631 33.1019 116.506 32.6553 116.506C32.195 116.506 31.835 116.606 31.5752 116.807C31.3154 117.007 31.1855 117.269 31.1855 117.593C31.1855 117.898 31.3063 118.128 31.5479 118.283C31.7894 118.438 32.2246 118.586 32.8535 118.728C33.487 118.869 33.9997 119.037 34.3916 119.233C34.7835 119.429 35.0729 119.666 35.2598 119.944C35.4512 120.218 35.5469 120.553 35.5469 120.949C35.5469 121.61 35.2826 122.141 34.7539 122.542C34.2253 122.938 33.5394 123.137 32.6963 123.137C32.1038 123.137 31.5798 123.032 31.124 122.822C30.6683 122.613 30.3105 122.321 30.0508 121.947C29.7956 121.569 29.668 121.161 29.668 120.724H30.9326C30.9554 121.147 31.124 121.485 31.4385 121.735C31.7575 121.981 32.1768 122.104 32.6963 122.104C33.1748 122.104 33.5576 122.009 33.8447 121.817C34.1364 121.621 34.2822 121.362 34.2822 121.038ZM38.5684 123H37.2969V115.604H38.5684V123ZM38.582 112.507H40.1133L38.2812 114.517H37.2627L38.582 112.507ZM42.0273 123H40.7627V112.5H42.0273V123ZM45.4316 123H44.167V115.604H45.4316V123ZM44.0645 113.642C44.0645 113.437 44.126 113.263 44.249 113.122C44.3766 112.981 44.5635 112.91 44.8096 112.91C45.0557 112.91 45.2425 112.981 45.3701 113.122C45.4977 113.263 45.5615 113.437 45.5615 113.642C45.5615 113.847 45.4977 114.018 45.3701 114.154C45.2425 114.291 45.0557 114.359 44.8096 114.359C44.5635 114.359 44.3766 114.291 44.249 114.154C44.126 114.018 44.0645 113.847 44.0645 113.642ZM47.127 119.233C47.127 118.509 47.2682 117.857 47.5508 117.278C47.8379 116.7 48.2344 116.253 48.7402 115.938C49.2507 115.624 49.8317 115.467 50.4834 115.467C51.4906 115.467 52.304 115.815 52.9238 116.513C53.5482 117.21 53.8604 118.137 53.8604 119.295V119.384C53.8604 120.104 53.7214 120.751 53.4434 121.325C53.1699 121.895 52.7757 122.339 52.2607 122.658C51.7503 122.977 51.1624 123.137 50.4971 123.137C49.4945 123.137 48.681 122.788 48.0566 122.091C47.4368 121.394 47.127 120.471 47.127 119.322V119.233ZM48.3984 119.384C48.3984 120.204 48.5876 120.863 48.9658 121.359C49.3486 121.856 49.859 122.104 50.4971 122.104C51.1396 122.104 51.6501 121.854 52.0283 121.353C52.4066 120.847 52.5957 120.14 52.5957 119.233C52.5957 118.422 52.402 117.766 52.0146 117.265C51.6318 116.759 51.1214 116.506 50.4834 116.506C49.859 116.506 49.3555 116.754 48.9727 117.251C48.5898 117.748 48.3984 118.459 48.3984 119.384ZM59.7529 121.038C59.7529 120.696 59.623 120.432 59.3633 120.245C59.1081 120.054 58.6592 119.89 58.0166 119.753C57.3786 119.616 56.8704 119.452 56.4922 119.261C56.1185 119.069 55.8405 118.841 55.6582 118.577C55.4805 118.313 55.3916 117.998 55.3916 117.634C55.3916 117.028 55.6468 116.515 56.1572 116.096C56.6722 115.676 57.3285 115.467 58.126 115.467C58.9645 115.467 59.6436 115.683 60.1631 116.116C60.6872 116.549 60.9492 117.103 60.9492 117.777H59.6777C59.6777 117.431 59.5296 117.132 59.2334 116.882C58.9417 116.631 58.5726 116.506 58.126 116.506C57.6657 116.506 57.3057 116.606 57.0459 116.807C56.7861 117.007 56.6562 117.269 56.6562 117.593C56.6562 117.898 56.777 118.128 57.0186 118.283C57.2601 118.438 57.6953 118.586 58.3242 118.728C58.9577 118.869 59.4704 119.037 59.8623 119.233C60.2542 119.429 60.5436 119.666 60.7305 119.944C60.9219 120.218 61.0176 120.553 61.0176 120.949C61.0176 121.61 60.7533 122.141 60.2246 122.542C59.696 122.938 59.0101 123.137 58.167 123.137C57.5745 123.137 57.0505 123.032 56.5947 122.822C56.139 122.613 55.7812 122.321 55.5215 121.947C55.2663 121.569 55.1387 121.161 55.1387 120.724H56.4033C56.4261 121.147 56.5947 121.485 56.9092 121.735C57.2282 121.981 57.6475 122.104 58.167 122.104C58.6455 122.104 59.0283 122.009 59.3154 121.817C59.6071 121.621 59.7529 121.362 59.7529 121.038ZM66.3359 123V113.047H69.1455C70.0114 113.047 70.777 113.238 71.4424 113.621C72.1077 114.004 72.6204 114.549 72.9805 115.255C73.3451 115.961 73.5296 116.772 73.5342 117.688V118.324C73.5342 119.263 73.3519 120.086 72.9873 120.792C72.6273 121.498 72.11 122.041 71.4355 122.419C70.7656 122.797 69.984 122.991 69.0908 123H66.3359ZM67.6484 114.127V121.927H69.0293C70.041 121.927 70.8271 121.612 71.3877 120.983C71.9528 120.354 72.2354 119.459 72.2354 118.297V117.716C72.2354 116.586 71.9688 115.708 71.4355 115.084C70.9069 114.455 70.1549 114.136 69.1797 114.127H67.6484ZM74.9902 119.233C74.9902 118.509 75.1315 117.857 75.4141 117.278C75.7012 116.7 76.0977 116.253 76.6035 115.938C77.1139 115.624 77.695 115.467 78.3467 115.467C79.3538 115.467 80.1673 115.815 80.7871 116.513C81.4115 117.21 81.7236 118.137 81.7236 119.295V119.384C81.7236 120.104 81.5846 120.751 81.3066 121.325C81.0332 121.895 80.639 122.339 80.124 122.658C79.6136 122.977 79.0257 123.137 78.3604 123.137C77.3577 123.137 76.5443 122.788 75.9199 122.091C75.3001 121.394 74.9902 120.471 74.9902 119.322V119.233ZM76.2617 119.384C76.2617 120.204 76.4508 120.863 76.8291 121.359C77.2119 121.856 77.7223 122.104 78.3604 122.104C79.0029 122.104 79.5133 121.854 79.8916 121.353C80.2699 120.847 80.459 120.14 80.459 119.233C80.459 118.422 80.2653 117.766 79.8779 117.265C79.4951 116.759 78.9847 116.506 78.3467 116.506C77.7223 116.506 77.2188 116.754 76.8359 117.251C76.4531 117.748 76.2617 118.459 76.2617 119.384ZM84.499 115.604L84.5332 116.424C85.0755 115.786 85.807 115.467 86.7275 115.467C87.762 115.467 88.4661 115.863 88.8398 116.656C89.0859 116.301 89.4049 116.014 89.7969 115.795C90.1934 115.576 90.6605 115.467 91.1982 115.467C92.8206 115.467 93.6455 116.326 93.6729 118.044V123H92.4082V118.119C92.4082 117.59 92.2874 117.196 92.0459 116.937C91.8044 116.672 91.3988 116.54 90.8291 116.54C90.3597 116.54 89.9701 116.681 89.6602 116.964C89.3503 117.242 89.1702 117.618 89.1201 118.092V123H87.8486V118.153C87.8486 117.078 87.3223 116.54 86.2695 116.54C85.4401 116.54 84.8727 116.893 84.5674 117.6V123H83.3027V115.604H84.499ZM98.6562 123.137C97.6536 123.137 96.8379 122.809 96.209 122.152C95.5801 121.492 95.2656 120.61 95.2656 119.507V119.274C95.2656 118.541 95.4046 117.887 95.6826 117.312C95.9652 116.734 96.3571 116.283 96.8584 115.959C97.3643 115.631 97.9111 115.467 98.499 115.467C99.4606 115.467 100.208 115.784 100.741 116.417C101.274 117.05 101.541 117.957 101.541 119.138V119.664H96.5303C96.5485 120.393 96.7604 120.983 97.166 121.435C97.5762 121.881 98.0957 122.104 98.7246 122.104C99.1712 122.104 99.5495 122.013 99.8594 121.831C100.169 121.649 100.44 121.407 100.673 121.106L101.445 121.708C100.826 122.66 99.8958 123.137 98.6562 123.137ZM98.499 116.506C97.9886 116.506 97.5602 116.693 97.2139 117.066C96.8675 117.436 96.6533 117.955 96.5713 118.625H100.276V118.529C100.24 117.887 100.067 117.39 99.7568 117.039C99.4469 116.684 99.0277 116.506 98.499 116.506ZM99.1143 112.5H100.646L98.8135 114.51H97.7949L99.1143 112.5ZM107.317 121.038C107.317 120.696 107.188 120.432 106.928 120.245C106.673 120.054 106.224 119.89 105.581 119.753C104.943 119.616 104.435 119.452 104.057 119.261C103.683 119.069 103.405 118.841 103.223 118.577C103.045 118.313 102.956 117.998 102.956 117.634C102.956 117.028 103.211 116.515 103.722 116.096C104.237 115.676 104.893 115.467 105.69 115.467C106.529 115.467 107.208 115.683 107.728 116.116C108.252 116.549 108.514 117.103 108.514 117.777H107.242C107.242 117.431 107.094 117.132 106.798 116.882C106.506 116.631 106.137 116.506 105.69 116.506C105.23 116.506 104.87 116.606 104.61 116.807C104.351 117.007 104.221 117.269 104.221 117.593C104.221 117.898 104.341 118.128 104.583 118.283C104.825 118.438 105.26 118.586 105.889 118.728C106.522 118.869 107.035 119.037 107.427 119.233C107.819 119.429 108.108 119.666 108.295 119.944C108.486 120.218 108.582 120.553 108.582 120.949C108.582 121.61 108.318 122.141 107.789 122.542C107.26 122.938 106.575 123.137 105.731 123.137C105.139 123.137 104.615 123.032 104.159 122.822C103.703 122.613 103.346 122.321 103.086 121.947C102.831 121.569 102.703 121.161 102.703 120.724H103.968C103.991 121.147 104.159 121.485 104.474 121.735C104.793 121.981 105.212 122.104 105.731 122.104C106.21 122.104 106.593 122.009 106.88 121.817C107.172 121.621 107.317 121.362 107.317 121.038ZM111.945 113.812V115.604H113.326V116.581H111.945V121.168C111.945 121.464 112.007 121.688 112.13 121.838C112.253 121.984 112.463 122.057 112.759 122.057C112.905 122.057 113.105 122.029 113.36 121.975V123C113.028 123.091 112.704 123.137 112.39 123.137C111.825 123.137 111.398 122.966 111.111 122.624C110.824 122.282 110.681 121.797 110.681 121.168V116.581H109.334V115.604H110.681V113.812H111.945ZM116.184 123H114.919V115.604H116.184V123ZM114.816 113.642C114.816 113.437 114.878 113.263 115.001 113.122C115.129 112.981 115.315 112.91 115.562 112.91C115.808 112.91 115.994 112.981 116.122 113.122C116.25 113.263 116.313 113.437 116.313 113.642C116.313 113.847 116.25 114.018 116.122 114.154C115.994 114.291 115.808 114.359 115.562 114.359C115.315 114.359 115.129 114.291 115.001 114.154C114.878 114.018 114.816 113.847 114.816 113.642ZM121.181 122.104C121.632 122.104 122.026 121.968 122.363 121.694C122.701 121.421 122.887 121.079 122.924 120.669H124.12C124.097 121.093 123.951 121.496 123.683 121.879C123.414 122.262 123.054 122.567 122.603 122.795C122.156 123.023 121.682 123.137 121.181 123.137C120.174 123.137 119.371 122.802 118.774 122.132C118.182 121.457 117.886 120.537 117.886 119.37V119.158C117.886 118.438 118.018 117.798 118.282 117.237C118.547 116.677 118.925 116.242 119.417 115.932C119.914 115.622 120.499 115.467 121.174 115.467C122.003 115.467 122.691 115.715 123.238 116.212C123.79 116.709 124.084 117.354 124.12 118.146H122.924C122.887 117.668 122.705 117.276 122.377 116.971C122.053 116.661 121.652 116.506 121.174 116.506C120.531 116.506 120.032 116.738 119.677 117.203C119.326 117.663 119.15 118.331 119.15 119.206V119.445C119.15 120.298 119.326 120.954 119.677 121.414C120.028 121.874 120.529 122.104 121.181 122.104ZM125.207 119.233C125.207 118.509 125.348 117.857 125.631 117.278C125.918 116.7 126.314 116.253 126.82 115.938C127.331 115.624 127.912 115.467 128.563 115.467C129.571 115.467 130.384 115.815 131.004 116.513C131.628 117.21 131.94 118.137 131.94 119.295V119.384C131.94 120.104 131.801 120.751 131.523 121.325C131.25 121.895 130.856 122.339 130.341 122.658C129.83 122.977 129.243 123.137 128.577 123.137C127.575 123.137 126.761 122.788 126.137 122.091C125.517 121.394 125.207 120.471 125.207 119.322V119.233ZM126.479 119.384C126.479 120.204 126.668 120.863 127.046 121.359C127.429 121.856 127.939 122.104 128.577 122.104C129.22 122.104 129.73 121.854 130.108 121.353C130.487 120.847 130.676 120.14 130.676 119.233C130.676 118.422 130.482 117.766 130.095 117.265C129.712 116.759 129.201 116.506 128.563 116.506C127.939 116.506 127.436 116.754 127.053 117.251C126.67 117.748 126.479 118.459 126.479 119.384ZM137.833 121.038C137.833 120.696 137.703 120.432 137.443 120.245C137.188 120.054 136.739 119.89 136.097 119.753C135.459 119.616 134.951 119.452 134.572 119.261C134.199 119.069 133.921 118.841 133.738 118.577C133.561 118.313 133.472 117.998 133.472 117.634C133.472 117.028 133.727 116.515 134.237 116.096C134.752 115.676 135.409 115.467 136.206 115.467C137.045 115.467 137.724 115.683 138.243 116.116C138.767 116.549 139.029 117.103 139.029 117.777H137.758C137.758 117.431 137.61 117.132 137.313 116.882C137.022 116.631 136.653 116.506 136.206 116.506C135.746 116.506 135.386 116.606 135.126 116.807C134.866 117.007 134.736 117.269 134.736 117.593C134.736 117.898 134.857 118.128 135.099 118.283C135.34 118.438 135.775 118.586 136.404 118.728C137.038 118.869 137.55 119.037 137.942 119.233C138.334 119.429 138.624 119.666 138.811 119.944C139.002 120.218 139.098 120.553 139.098 120.949C139.098 121.61 138.833 122.141 138.305 122.542C137.776 122.938 137.09 123.137 136.247 123.137C135.655 123.137 135.131 123.032 134.675 122.822C134.219 122.613 133.861 122.321 133.602 121.947C133.346 121.569 133.219 121.161 133.219 120.724H134.483C134.506 121.147 134.675 121.485 134.989 121.735C135.308 121.981 135.728 122.104 136.247 122.104C136.726 122.104 137.108 122.009 137.396 121.817C137.687 121.621 137.833 121.362 137.833 121.038Z" fill="white"/>
<path d="M90.1349 25.2142C89.7674 25.5817 89.8899 26.3692 90.3624 26.6842C90.9924 27.1042 91.6749 26.7892 91.6749 26.0892C91.6749 25.2317 90.6774 24.6717 90.1349 25.2142Z" fill="#E2211D"/>
<path d="M85.83 32.8967C85.3575 33.2817 85.235 33.8942 85.585 34.2442C85.935 34.5942 86.5475 34.4892 86.9325 33.9992C87.3 33.5267 87.265 33.1067 86.81 32.7392C86.4425 32.4592 86.3725 32.4592 85.83 32.8967Z" fill="#E2211D"/>
<path d="M69.5725 36.5542C67.9275 36.9742 67.2975 37.3767 66.8075 38.3567C66.4925 38.9517 66.4575 39.2667 66.5275 40.2117C66.58 40.8592 66.6675 41.5242 66.7375 41.7167C66.8425 42.0492 66.51 42.1367 61.715 43.2742C51.5825 45.6367 52.125 45.4967 51.845 45.9342C51.46 46.4942 51.775 47.0542 52.475 47.0542C53.1575 47.0542 89.5925 38.4967 89.89 38.2692C90.2225 37.9892 90.1525 37.1142 89.7675 36.9217C89.5225 36.7817 87.7375 37.1317 82.3825 38.4092C78.4975 39.3192 75.1725 40.0892 74.98 40.1067C74.7175 40.1417 74.595 39.9142 74.35 39.0392C73.9125 37.4642 72.9675 36.5367 71.55 36.3092C71.2 36.2567 70.3425 36.3617 69.5725 36.5542ZM71.9 38.2167C72.4075 38.4792 72.705 39.1267 72.81 40.1242L72.8625 40.6317L70.85 41.1217C69.7475 41.3842 68.75 41.6117 68.645 41.6292C68.3475 41.6292 67.9975 39.8442 68.2075 39.3367C68.435 38.7242 68.6975 38.5492 69.8 38.2517C71.06 37.9017 71.2875 37.9017 71.9 38.2167Z" fill="#E2211D"/>
<path d="M88.2624 41.8742C87.5274 42.1892 86.6524 43.2392 86.4249 44.0617C86.0224 45.5667 86.9499 47.3692 88.4024 47.9117C89.5574 48.3492 91.2724 47.9817 92.0599 47.1067C92.5149 46.6167 92.8999 45.5667 92.8999 44.8667C92.8999 44.1667 92.5149 43.1167 92.0599 42.6267C91.2374 41.7167 89.4349 41.3667 88.2624 41.8742ZM90.7649 43.8517C91.4824 44.6392 91.1499 45.9867 90.1524 46.3717C89.2249 46.7217 87.9999 45.8642 87.9999 44.8842C87.9999 44.3417 88.4549 43.6767 88.9624 43.4492C89.6274 43.1692 90.2574 43.2917 90.7649 43.8517Z" fill="#E2211D"/>
<path d="M77.9025 45.1292C76.73 45.8117 76.03 46.9317 76.0125 48.1567C76.0125 49.1367 76.2925 49.4517 77.0275 49.2592C77.3425 49.1892 77.5175 48.9967 77.5875 48.7167C77.64 48.4717 77.7275 48.0692 77.78 47.8067C77.9025 47.1942 78.795 46.3892 79.5125 46.2492C80.685 46.0392 82.225 47.2817 82.225 48.4367C82.225 49.0142 82.5225 49.3292 83.03 49.3292C83.7125 49.3292 84.01 48.8567 83.87 48.0342C83.3975 45.1642 80.405 43.6942 77.9025 45.1292Z" fill="#E2211D"/>
<path d="M50.9 51.9367C50.8125 52.1292 50.725 53.2667 50.725 54.4567V56.6442L49.36 56.6967C48.17 56.7667 47.89 56.8367 47.33 57.2742C46.385 57.9917 46 58.9192 46 60.5817C46 63.2942 47.12 64.5542 49.57 64.5542H50.69L50.76 68.8767C50.8125 72.8492 50.8475 73.2867 51.18 74.0217C51.7225 75.1767 52.545 76.0167 53.665 76.5767L54.6625 77.0667H70.5H86.3375L87.265 76.6467C88.4025 76.1392 89.61 74.8267 89.995 73.7067C90.2225 73.0592 90.275 72.0792 90.275 68.7192V64.5542H91.395C92.725 64.5542 93.32 64.3617 94.02 63.7142C94.7725 62.9967 95 62.2967 95 60.6167C95 58.9367 94.7725 58.2367 94.02 57.5192C93.32 56.8717 92.725 56.6792 91.395 56.6792H90.275V54.3517C90.275 52.7767 90.205 51.9542 90.065 51.8142C89.9075 51.6567 85.3225 51.6042 70.465 51.6042C51.4775 51.6042 51.075 51.6042 50.9 51.9367ZM88.525 62.9617C88.525 69.4542 88.455 72.9192 88.3325 73.2517C88.07 73.9517 87.335 74.6867 86.5125 75.0717C85.8475 75.3867 85.025 75.4042 70.535 75.4042C57.1475 75.4042 55.1875 75.3692 54.61 75.1417C53.7525 74.7742 53.1925 74.2317 52.8075 73.3917C52.51 72.7442 52.475 72.0442 52.475 62.9267V53.1792H70.5H88.525V62.9617ZM50.4275 58.6042C50.6725 58.9017 50.725 59.3217 50.725 60.9842V63.0142L49.64 62.9442C48.7475 62.8742 48.5025 62.7867 48.1525 62.3842C47.82 61.9817 47.75 61.7192 47.75 60.6517C47.75 59.2867 47.995 58.7092 48.695 58.4292C49.36 58.1667 50.1125 58.2367 50.4275 58.6042ZM92.865 58.8492C93.285 59.2692 93.3375 59.4442 93.3375 60.6167C93.3375 61.8067 93.3025 61.9642 92.865 62.4017C92.445 62.8217 92.235 62.8917 91.3775 62.8917H90.3625L90.31 60.8092C90.2925 59.6542 90.31 58.6042 90.3625 58.4642C90.4325 58.2717 90.695 58.2367 91.43 58.2892C92.1825 58.3592 92.4975 58.4817 92.865 58.8492Z" fill="#E2211D"/>
</svg>
