<svg width="102" height="128" viewBox="0 0 102 128" fill="none" xmlns="http://www.w3.org/2000/svg">
<circle cx="51" cy="51" r="51" fill="white"/>
<path d="M17.5425 123.845C17.9575 123.845 18.315 123.797 18.615 123.702C18.915 123.607 19.16 123.475 19.35 123.305C19.545 123.13 19.6875 122.925 19.7775 122.69C19.8675 122.45 19.9125 122.187 19.9125 121.902C19.9125 121.347 19.715 120.91 19.32 120.59C18.925 120.265 18.3325 120.102 17.5425 120.102H15.2175V123.845H17.5425ZM15.2175 115.4V119.067H17.1375C17.5475 119.067 17.9025 119.022 18.2025 118.932C18.5075 118.842 18.7575 118.717 18.9525 118.557C19.1525 118.397 19.3 118.205 19.395 117.98C19.49 117.75 19.5375 117.5 19.5375 117.23C19.5375 116.595 19.3475 116.132 18.9675 115.842C18.5875 115.547 17.9975 115.4 17.1975 115.4H15.2175ZM17.1975 114.252C17.8575 114.252 18.425 114.317 18.9 114.447C19.38 114.577 19.7725 114.762 20.0775 115.002C20.3875 115.242 20.615 115.537 20.76 115.887C20.905 116.232 20.9775 116.622 20.9775 117.057C20.9775 117.322 20.935 117.577 20.85 117.822C20.77 118.062 20.6475 118.287 20.4825 118.497C20.3175 118.707 20.1075 118.897 19.8525 119.067C19.6025 119.232 19.3075 119.367 18.9675 119.472C19.7575 119.622 20.35 119.905 20.745 120.32C21.145 120.73 21.345 121.27 21.345 121.94C21.345 122.395 21.26 122.81 21.09 123.185C20.925 123.56 20.68 123.882 20.355 124.152C20.035 124.422 19.64 124.632 19.17 124.782C18.7 124.927 18.165 125 17.565 125H13.77V114.252H17.1975ZM24.4197 118.925C24.6597 118.405 24.9547 118 25.3047 117.71C25.6547 117.415 26.0822 117.267 26.5872 117.267C26.7472 117.267 26.8997 117.285 27.0447 117.32C27.1947 117.355 27.3272 117.41 27.4422 117.485L27.3447 118.482C27.3147 118.607 27.2397 118.67 27.1197 118.67C27.0497 118.67 26.9472 118.655 26.8122 118.625C26.6772 118.595 26.5247 118.58 26.3547 118.58C26.1147 118.58 25.8997 118.615 25.7097 118.685C25.5247 118.755 25.3572 118.86 25.2072 119C25.0622 119.135 24.9297 119.305 24.8097 119.51C24.6947 119.71 24.5897 119.94 24.4947 120.2V125H23.1522V117.402H23.9172C24.0622 117.402 24.1622 117.43 24.2172 117.485C24.2722 117.54 24.3097 117.635 24.3297 117.77L24.4197 118.925ZM30.0261 117.402V125H28.6911V117.402H30.0261ZM30.3111 115.017C30.3111 115.147 30.2836 115.27 30.2286 115.385C30.1786 115.495 30.1086 115.595 30.0186 115.685C29.9336 115.77 29.8311 115.837 29.7111 115.887C29.5961 115.937 29.4736 115.962 29.3436 115.962C29.2136 115.962 29.0911 115.937 28.9761 115.887C28.8661 115.837 28.7686 115.77 28.6836 115.685C28.5986 115.595 28.5311 115.495 28.4811 115.385C28.4311 115.27 28.4061 115.147 28.4061 115.017C28.4061 114.887 28.4311 114.765 28.4811 114.65C28.5311 114.53 28.5986 114.427 28.6836 114.342C28.7686 114.252 28.8661 114.182 28.9761 114.132C29.0911 114.082 29.2136 114.057 29.3436 114.057C29.4736 114.057 29.5961 114.082 29.7111 114.132C29.8311 114.182 29.9336 114.252 30.0186 114.342C30.1086 114.427 30.1786 114.53 30.2286 114.65C30.2836 114.765 30.3111 114.887 30.3111 115.017ZM33.4796 118.505C33.6446 118.32 33.8196 118.152 34.0046 118.002C34.1896 117.852 34.3846 117.725 34.5896 117.62C34.7996 117.51 35.0196 117.427 35.2496 117.372C35.4846 117.312 35.7371 117.282 36.0071 117.282C36.4221 117.282 36.7871 117.352 37.1021 117.492C37.4221 117.627 37.6871 117.822 37.8971 118.077C38.1121 118.327 38.2746 118.63 38.3846 118.985C38.4946 119.34 38.5496 119.732 38.5496 120.162V125H37.2071V120.162C37.2071 119.587 37.0746 119.142 36.8096 118.827C36.5496 118.507 36.1521 118.347 35.6171 118.347C35.2221 118.347 34.8521 118.442 34.5071 118.632C34.1671 118.822 33.8521 119.08 33.5621 119.405V125H32.2196V117.402H33.0221C33.2121 117.402 33.3296 117.495 33.3746 117.68L33.4796 118.505ZM45.5339 119.202C45.2939 118.882 45.0264 118.655 44.7314 118.52C44.4364 118.38 44.1089 118.31 43.7489 118.31C43.0439 118.31 42.5014 118.562 42.1214 119.067C41.7414 119.572 41.5514 120.292 41.5514 121.227C41.5514 121.722 41.5939 122.147 41.6789 122.502C41.7639 122.852 41.8889 123.142 42.0539 123.372C42.2189 123.597 42.4214 123.762 42.6614 123.867C42.9014 123.972 43.1739 124.025 43.4789 124.025C43.9189 124.025 44.3014 123.925 44.6264 123.725C44.9564 123.525 45.2589 123.242 45.5339 122.877V119.202ZM46.8689 117.402V127.573H45.5339V123.867C45.2189 124.237 44.8564 124.537 44.4464 124.767C44.0364 124.992 43.5689 125.105 43.0439 125.105C42.6089 125.105 42.2139 125.022 41.8589 124.857C41.5039 124.687 41.2014 124.44 40.9514 124.115C40.7014 123.79 40.5089 123.385 40.3739 122.9C40.2389 122.415 40.1714 121.857 40.1714 121.227C40.1714 120.667 40.2464 120.147 40.3964 119.667C40.5464 119.182 40.7614 118.762 41.0414 118.407C41.3214 118.052 41.6639 117.775 42.0689 117.575C42.4789 117.37 42.9389 117.267 43.4489 117.267C43.9439 117.267 44.3639 117.355 44.7089 117.53C45.0539 117.705 45.3589 117.95 45.6239 118.265L45.7139 117.68C45.7639 117.495 45.8839 117.402 46.0739 117.402H46.8689ZM55.2249 117.402V125H54.4299C54.2399 125 54.1199 124.907 54.0699 124.722L53.9649 123.905C53.6349 124.27 53.2649 124.565 52.8549 124.79C52.4449 125.01 51.9749 125.12 51.4449 125.12C51.0299 125.12 50.6624 125.053 50.3424 124.917C50.0274 124.777 49.7624 124.582 49.5474 124.332C49.3324 124.082 49.1699 123.78 49.0599 123.425C48.9549 123.07 48.9024 122.677 48.9024 122.247V117.402H50.2374V122.247C50.2374 122.822 50.3674 123.267 50.6274 123.582C50.8924 123.897 51.2949 124.055 51.8349 124.055C52.2299 124.055 52.5974 123.962 52.9374 123.777C53.2824 123.587 53.5999 123.327 53.8899 122.997V117.402H55.2249ZM62.4267 120.372C62.4267 120.062 62.3817 119.78 62.2917 119.525C62.2067 119.265 62.0792 119.042 61.9092 118.857C61.7442 118.667 61.5417 118.522 61.3017 118.422C61.0617 118.317 60.7892 118.265 60.4842 118.265C59.8442 118.265 59.3367 118.452 58.9617 118.827C58.5917 119.197 58.3617 119.712 58.2717 120.372H62.4267ZM63.5067 123.935C63.3417 124.135 63.1442 124.31 62.9142 124.46C62.6842 124.605 62.4367 124.725 62.1717 124.82C61.9117 124.915 61.6417 124.985 61.3617 125.03C61.0817 125.08 60.8042 125.105 60.5292 125.105C60.0042 125.105 59.5192 125.017 59.0742 124.842C58.6342 124.662 58.2517 124.402 57.9267 124.062C57.6067 123.717 57.3567 123.292 57.1767 122.787C56.9967 122.282 56.9067 121.702 56.9067 121.047C56.9067 120.517 56.9867 120.022 57.1467 119.562C57.3117 119.102 57.5467 118.705 57.8517 118.37C58.1567 118.03 58.5292 117.765 58.9692 117.575C59.4092 117.38 59.9042 117.282 60.4542 117.282C60.9092 117.282 61.3292 117.36 61.7142 117.515C62.1042 117.665 62.4392 117.885 62.7192 118.175C63.0042 118.46 63.2267 118.815 63.3867 119.24C63.5467 119.66 63.6267 120.14 63.6267 120.68C63.6267 120.89 63.6042 121.03 63.5592 121.1C63.5142 121.17 63.4292 121.205 63.3042 121.205H58.2267C58.2417 121.685 58.3067 122.102 58.4217 122.457C58.5417 122.812 58.7067 123.11 58.9167 123.35C59.1267 123.585 59.3767 123.762 59.6667 123.882C59.9567 123.997 60.2817 124.055 60.6417 124.055C60.9767 124.055 61.2642 124.017 61.5042 123.942C61.7492 123.862 61.9592 123.777 62.1342 123.687C62.3092 123.597 62.4542 123.515 62.5692 123.44C62.6892 123.36 62.7917 123.32 62.8767 123.32C62.9867 123.32 63.0717 123.362 63.1317 123.447L63.5067 123.935ZM70.2165 119.21C69.9665 118.875 69.6965 118.642 69.4065 118.512C69.1165 118.377 68.7915 118.31 68.4315 118.31C67.7265 118.31 67.184 118.562 66.804 119.067C66.424 119.572 66.234 120.292 66.234 121.227C66.234 121.722 66.2765 122.147 66.3615 122.502C66.4465 122.852 66.5715 123.142 66.7365 123.372C66.9015 123.597 67.104 123.762 67.344 123.867C67.584 123.972 67.8565 124.025 68.1615 124.025C68.6015 124.025 68.984 123.925 69.309 123.725C69.639 123.525 69.9415 123.242 70.2165 122.877V119.21ZM71.5515 113.952V125H70.7565C70.5665 125 70.4465 124.907 70.3965 124.722L70.2765 123.8C69.9515 124.19 69.5815 124.505 69.1665 124.745C68.7515 124.985 68.2715 125.105 67.7265 125.105C67.2915 125.105 66.8965 125.022 66.5415 124.857C66.1865 124.687 65.884 124.44 65.634 124.115C65.384 123.79 65.1915 123.385 65.0565 122.9C64.9215 122.415 64.854 121.857 64.854 121.227C64.854 120.667 64.929 120.147 65.079 119.667C65.229 119.182 65.444 118.762 65.724 118.407C66.004 118.052 66.3465 117.775 66.7515 117.575C67.1615 117.37 67.6215 117.267 68.1315 117.267C68.5965 117.267 68.994 117.347 69.324 117.507C69.659 117.662 69.9565 117.88 70.2165 118.16V113.952H71.5515ZM76.8625 117.282C77.4175 117.282 77.9175 117.375 78.3625 117.56C78.8075 117.745 79.1875 118.007 79.5025 118.347C79.8175 118.687 80.0575 119.1 80.2225 119.585C80.3925 120.065 80.4775 120.602 80.4775 121.197C80.4775 121.797 80.3925 122.337 80.2225 122.817C80.0575 123.297 79.8175 123.707 79.5025 124.047C79.1875 124.387 78.8075 124.65 78.3625 124.835C77.9175 125.015 77.4175 125.105 76.8625 125.105C76.3025 125.105 75.7975 125.015 75.3475 124.835C74.9025 124.65 74.5225 124.387 74.2075 124.047C73.8925 123.707 73.65 123.297 73.48 122.817C73.315 122.337 73.2325 121.797 73.2325 121.197C73.2325 120.602 73.315 120.065 73.48 119.585C73.65 119.1 73.8925 118.687 74.2075 118.347C74.5225 118.007 74.9025 117.745 75.3475 117.56C75.7975 117.375 76.3025 117.282 76.8625 117.282ZM76.8625 124.062C77.6125 124.062 78.1725 123.812 78.5425 123.312C78.9125 122.807 79.0975 122.105 79.0975 121.205C79.0975 120.3 78.9125 119.595 78.5425 119.09C78.1725 118.585 77.6125 118.332 76.8625 118.332C76.4825 118.332 76.15 118.397 75.865 118.527C75.585 118.657 75.35 118.845 75.16 119.09C74.975 119.335 74.835 119.637 74.74 119.997C74.65 120.352 74.605 120.755 74.605 121.205C74.605 122.105 74.79 122.807 75.16 123.312C75.535 123.812 76.1025 124.062 76.8625 124.062ZM86.5958 118.655C86.5358 118.765 86.4433 118.82 86.3183 118.82C86.2433 118.82 86.1583 118.792 86.0633 118.737C85.9683 118.682 85.8508 118.622 85.7108 118.557C85.5758 118.487 85.4133 118.425 85.2233 118.37C85.0333 118.31 84.8083 118.28 84.5483 118.28C84.3233 118.28 84.1208 118.31 83.9408 118.37C83.7608 118.425 83.6058 118.502 83.4758 118.602C83.3508 118.702 83.2533 118.82 83.1833 118.955C83.1183 119.085 83.0858 119.227 83.0858 119.382C83.0858 119.577 83.1408 119.74 83.2508 119.87C83.3658 120 83.5158 120.112 83.7008 120.207C83.8858 120.302 84.0958 120.387 84.3308 120.462C84.5658 120.532 84.8058 120.61 85.0508 120.695C85.3008 120.775 85.5433 120.865 85.7783 120.965C86.0133 121.065 86.2233 121.19 86.4083 121.34C86.5933 121.49 86.7408 121.675 86.8508 121.895C86.9658 122.11 87.0233 122.37 87.0233 122.675C87.0233 123.025 86.9608 123.35 86.8358 123.65C86.7108 123.945 86.5258 124.202 86.2808 124.422C86.0358 124.637 85.7358 124.807 85.3808 124.932C85.0258 125.058 84.6158 125.12 84.1508 125.12C83.6208 125.12 83.1408 125.035 82.7108 124.865C82.2808 124.69 81.9158 124.467 81.6158 124.197L81.9308 123.687C81.9708 123.622 82.0183 123.572 82.0733 123.537C82.1283 123.502 82.1983 123.485 82.2833 123.485C82.3733 123.485 82.4683 123.52 82.5683 123.59C82.6683 123.66 82.7883 123.737 82.9283 123.822C83.0733 123.907 83.2483 123.985 83.4533 124.055C83.6583 124.125 83.9133 124.16 84.2183 124.16C84.4783 124.16 84.7058 124.127 84.9008 124.062C85.0958 123.992 85.2583 123.9 85.3883 123.785C85.5183 123.67 85.6133 123.537 85.6733 123.387C85.7383 123.237 85.7708 123.077 85.7708 122.907C85.7708 122.697 85.7133 122.525 85.5983 122.39C85.4883 122.25 85.3408 122.132 85.1558 122.037C84.9708 121.937 84.7583 121.852 84.5183 121.782C84.2833 121.707 84.0408 121.63 83.7908 121.55C83.5458 121.47 83.3033 121.38 83.0633 121.28C82.8283 121.175 82.6183 121.045 82.4333 120.89C82.2483 120.735 82.0983 120.545 81.9833 120.32C81.8733 120.09 81.8183 119.812 81.8183 119.487C81.8183 119.197 81.8783 118.92 81.9983 118.655C82.1183 118.385 82.2933 118.15 82.5233 117.95C82.7533 117.745 83.0358 117.582 83.3708 117.463C83.7058 117.342 84.0883 117.282 84.5183 117.282C85.0183 117.282 85.4658 117.362 85.8608 117.522C86.2608 117.677 86.6058 117.892 86.8958 118.167L86.5958 118.655Z" fill="white"/>
<path d="M52.9928 32.2098C52.8705 32.3321 52.7831 32.5769 52.7831 32.7867C52.7831 33.5209 53.0453 33.5733 56.3667 33.5733H59.5308L60.3699 34.4299L61.2264 35.2865L60.8593 35.8109C60.6495 36.0906 60.3699 36.4227 60.2125 36.5451C59.8279 36.8597 59.8804 37.2443 60.5621 39.0099C60.8943 39.884 61.174 40.6881 61.174 40.8105C61.174 40.9678 58.4994 41.3524 52.0838 42.1565L42.9936 43.2928V41.667V40.0413H45.1438C46.8045 40.0413 47.3814 39.9714 47.6786 39.7616C48.1506 39.447 48.1681 38.975 47.7485 38.5904C47.4688 38.3282 46.9094 38.2932 43.4482 38.2932C41.0358 38.2932 39.3401 38.3631 39.1303 38.468C38.9206 38.5904 38.7982 38.8351 38.7982 39.1673C38.7982 39.8141 39.2003 40.0413 40.354 40.0413H41.2455V42.0691V44.1144L40.2491 45.8101L39.2702 47.5057L38.2038 47.0337C35.5817 45.845 32.2428 45.6702 29.4458 46.5792C24.6385 48.1176 21.2821 52.4878 21.0199 57.5399C20.4955 67.137 30.4247 73.4826 39.0254 69.0249C41.1232 67.9411 43.0111 66.0182 44.0775 63.868C44.532 62.994 44.9865 61.8227 45.1089 61.2983L45.3186 60.3194H46.5073C47.6961 60.3194 47.6961 60.3194 47.9932 60.9312C48.6051 62.2423 50.1609 63.0814 51.5244 62.8366C52.7481 62.6094 53.4998 62.0325 54.0941 60.8613C54.4962 60.0397 54.3913 58.4139 53.8669 57.7147L53.4998 57.2077L57.8176 50.46C60.195 46.754 62.1879 43.7298 62.2403 43.7123C62.4676 43.7123 63.6738 47.1037 63.4815 47.1736C63.0619 47.3134 61.174 48.607 60.4747 49.2364C58.8665 50.7048 57.3806 53.3095 56.8736 55.5645C56.4366 57.5574 56.5939 60.3194 57.2757 62.2598C59.3035 68.1159 65.4044 71.5073 71.5577 70.1962C75.6658 69.3221 79.162 66.1231 80.5255 61.9801C80.9276 60.7739 80.9975 60.2844 80.9975 58.309C81.015 56.4036 80.9451 55.8267 80.6129 54.7254C78.7075 48.6245 72.5542 44.936 66.4183 46.2296C65.789 46.3695 65.2646 46.4569 65.2296 46.4219C65.1946 46.4044 64.3905 44.3417 63.4465 41.8593L61.6984 37.3492L62.4851 36.5451C63.6213 35.3913 63.5689 35.1466 61.8033 33.4335L60.3349 32H56.7687C54.234 32 53.1502 32.0525 52.9928 32.2098ZM60.6321 42.9606C60.6321 43.0481 58.7266 46.0548 56.4016 49.6559L52.1712 56.1938L51.1224 56.1764H50.0735L46.8045 50.5999C45.0215 47.5232 43.588 44.9885 43.623 44.9535C43.7279 44.8486 59.1112 42.8907 60.0027 42.8558C60.3524 42.8558 60.6495 42.8907 60.6321 42.9606ZM45.4235 51.5264C48.0632 56.0715 48.6051 57.1028 48.4303 57.3301C48.3254 57.4874 48.1156 57.872 47.9583 58.1867C47.6961 58.7636 47.6961 58.7636 46.6122 58.7111L45.5284 58.6587L45.4235 57.2602C45.3012 55.6694 44.9166 54.166 44.2698 52.8899C43.6055 51.5788 42.3993 49.9531 41.4903 49.149C41.0532 48.7644 40.7211 48.3798 40.7561 48.3099C40.9484 47.8204 42.0497 45.9849 42.1196 45.9849C42.172 45.9849 43.6579 48.4847 45.4235 51.5264ZM36.2984 48.1001C36.9452 48.3099 37.6969 48.5721 37.9591 48.7119L38.4311 48.9567L35.3894 54.166C32.505 59.0782 32.2428 59.6551 32.5749 60.1795C32.5749 60.197 35.0922 60.2669 38.1339 60.3194L43.6754 60.4068L43.2908 61.5605C42.207 64.7596 39.5149 67.3817 36.2634 68.4131C34.8475 68.8501 31.9281 68.9375 30.5821 68.553C29.0263 68.1159 27.2782 67.137 26.1244 66.0706C24.6735 64.7071 23.8169 63.396 23.1701 61.543C22.1387 58.6062 22.5757 55.1799 24.3238 52.4878C25.9321 50.0055 28.8689 48.135 31.8932 47.6631C32.8721 47.5232 35.1097 47.733 36.2984 48.1001ZM72.1521 48.1875C74.7218 49.0441 76.9419 50.8971 78.1656 53.257C79.1271 55.075 79.4242 56.2812 79.4068 58.309C79.4068 59.7775 79.3193 60.2844 78.8823 61.543C77.7286 64.8819 75.2987 67.2594 71.9248 68.3956C70.2467 68.955 67.5721 68.955 65.8065 68.3956C60.5971 66.7699 57.3456 61.3508 58.4469 56.1239C58.9014 53.9912 59.7755 52.4179 61.4187 50.7922C62.8696 49.3587 64.0409 48.5896 64.3031 48.8867C64.373 48.9741 65.2471 51.1593 66.2435 53.764C67.2224 56.3512 68.1489 58.6237 68.3063 58.781C68.6734 59.2181 69.1628 59.1656 69.4775 58.6761C69.7397 58.2916 69.6523 58.0119 67.8168 53.2395C66.7504 50.46 65.9463 48.135 66.0162 48.0651C66.2959 47.7854 68.0965 47.5757 69.4775 47.6631C70.2641 47.7155 71.4354 47.9428 72.1521 48.1875ZM41.0358 51.1418C42.714 52.9249 43.9901 56.0889 43.8327 58.0293L43.7803 58.6587L39.2527 58.7111C35.0048 58.7461 34.7426 58.7286 34.8475 58.4489C35.0747 57.8545 39.7247 50.0055 39.8471 50.0055C39.917 50.0055 40.4589 50.5125 41.0358 51.1418ZM52.1712 58.2916C53.325 59.4453 52.5558 61.2109 50.9126 61.1934C49.9511 61.1759 49.182 60.162 49.3568 59.1656C49.6015 57.9419 51.2972 57.4175 52.1712 58.2916Z" fill="#E2211D"/>
</svg>
