<svg width="102" height="126" viewBox="0 0 102 126" fill="none" xmlns="http://www.w3.org/2000/svg">
<path d="M10.9258 118.399H6.6123V121.927H11.623V123H5.2998V113.047H11.5547V114.127H6.6123V117.326H10.9258V118.399ZM14.4326 123H13.168V112.5H14.4326V123ZM19.5322 123.137C18.5296 123.137 17.7139 122.809 17.085 122.152C16.4561 121.492 16.1416 120.61 16.1416 119.507V119.274C16.1416 118.541 16.2806 117.887 16.5586 117.312C16.8411 116.734 17.2331 116.283 17.7344 115.959C18.2402 115.631 18.7871 115.467 19.375 115.467C20.3366 115.467 21.084 115.784 21.6172 116.417C22.1504 117.05 22.417 117.957 22.417 119.138V119.664H17.4062C17.4245 120.393 17.6364 120.983 18.042 121.435C18.4521 121.881 18.9717 122.104 19.6006 122.104C20.0472 122.104 20.4255 122.013 20.7354 121.831C21.0452 121.649 21.3164 121.407 21.5488 121.106L22.3213 121.708C21.7015 122.66 20.7718 123.137 19.5322 123.137ZM19.375 116.506C18.8646 116.506 18.4362 116.693 18.0898 117.066C17.7435 117.436 17.5293 117.955 17.4473 118.625H21.1523V118.529C21.1159 117.887 20.9427 117.39 20.6328 117.039C20.3229 116.684 19.9036 116.506 19.375 116.506ZM25.6025 113.812V115.604H26.9834V116.581H25.6025V121.168C25.6025 121.464 25.6641 121.688 25.7871 121.838C25.9102 121.984 26.1198 122.057 26.416 122.057C26.5618 122.057 26.7624 122.029 27.0176 121.975V123C26.6849 123.091 26.3613 123.137 26.0469 123.137C25.4818 123.137 25.0557 122.966 24.7686 122.624C24.4814 122.282 24.3379 121.797 24.3379 121.168V116.581H22.9912V115.604H24.3379V113.812H25.6025ZM32.042 116.738C31.8506 116.706 31.6432 116.69 31.4199 116.69C30.5905 116.69 30.0277 117.044 29.7314 117.75V123H28.4668V115.604H29.6973L29.7178 116.458C30.1325 115.797 30.7204 115.467 31.4814 115.467C31.7275 115.467 31.9144 115.499 32.042 115.562V116.738ZM32.7393 119.233C32.7393 118.509 32.8805 117.857 33.1631 117.278C33.4502 116.7 33.8467 116.253 34.3525 115.938C34.863 115.624 35.444 115.467 36.0957 115.467C37.1029 115.467 37.9163 115.815 38.5361 116.513C39.1605 117.21 39.4727 118.137 39.4727 119.295V119.384C39.4727 120.104 39.3337 120.751 39.0557 121.325C38.7822 121.895 38.388 122.339 37.873 122.658C37.3626 122.977 36.7747 123.137 36.1094 123.137C35.1068 123.137 34.2933 122.788 33.6689 122.091C33.0492 121.394 32.7393 120.471 32.7393 119.322V119.233ZM34.0107 119.384C34.0107 120.204 34.1999 120.863 34.5781 121.359C34.9609 121.856 35.4714 122.104 36.1094 122.104C36.752 122.104 37.2624 121.854 37.6406 121.353C38.0189 120.847 38.208 120.14 38.208 119.233C38.208 118.422 38.0143 117.766 37.627 117.265C37.2441 116.759 36.7337 116.506 36.0957 116.506C35.4714 116.506 34.9678 116.754 34.585 117.251C34.2021 117.748 34.0107 118.459 34.0107 119.384ZM47.3066 119.384C47.3066 120.509 47.0492 121.416 46.5342 122.104C46.0192 122.793 45.3219 123.137 44.4424 123.137C43.5446 123.137 42.8382 122.852 42.3232 122.282V125.844H41.0586V115.604H42.2139L42.2754 116.424C42.7904 115.786 43.5059 115.467 44.4219 115.467C45.3105 115.467 46.0124 115.802 46.5273 116.472C47.0469 117.142 47.3066 118.074 47.3066 119.268V119.384ZM46.042 119.24C46.042 118.406 45.8643 117.748 45.5088 117.265C45.1533 116.782 44.6657 116.54 44.0459 116.54C43.2803 116.54 42.7061 116.88 42.3232 117.559V121.093C42.7015 121.767 43.2803 122.104 44.0596 122.104C44.6657 122.104 45.1465 121.865 45.502 121.387C45.862 120.904 46.042 120.188 46.042 119.24ZM48.585 119.233C48.585 118.509 48.7262 117.857 49.0088 117.278C49.2959 116.7 49.6924 116.253 50.1982 115.938C50.7087 115.624 51.2897 115.467 51.9414 115.467C52.9486 115.467 53.762 115.815 54.3818 116.513C55.0062 117.21 55.3184 118.137 55.3184 119.295V119.384C55.3184 120.104 55.1794 120.751 54.9014 121.325C54.6279 121.895 54.2337 122.339 53.7188 122.658C53.2083 122.977 52.6204 123.137 51.9551 123.137C50.9525 123.137 50.139 122.788 49.5146 122.091C48.8949 121.394 48.585 120.471 48.585 119.322V119.233ZM49.8564 119.384C49.8564 120.204 50.0456 120.863 50.4238 121.359C50.8066 121.856 51.3171 122.104 51.9551 122.104C52.5977 122.104 53.1081 121.854 53.4863 121.353C53.8646 120.847 54.0537 120.14 54.0537 119.233C54.0537 118.422 53.86 117.766 53.4727 117.265C53.0898 116.759 52.5794 116.506 51.9414 116.506C51.3171 116.506 50.8135 116.754 50.4307 117.251C50.0479 117.748 49.8564 118.459 49.8564 119.384ZM60.4795 116.738C60.2881 116.706 60.0807 116.69 59.8574 116.69C59.028 116.69 58.4652 117.044 58.1689 117.75V123H56.9043V115.604H58.1348L58.1553 116.458C58.57 115.797 59.1579 115.467 59.9189 115.467C60.165 115.467 60.3519 115.499 60.4795 115.562V116.738ZM63.7061 113.812V115.604H65.0869V116.581H63.7061V121.168C63.7061 121.464 63.7676 121.688 63.8906 121.838C64.0137 121.984 64.2233 122.057 64.5195 122.057C64.6654 122.057 64.8659 122.029 65.1211 121.975V123C64.7884 123.091 64.4648 123.137 64.1504 123.137C63.5853 123.137 63.1592 122.966 62.8721 122.624C62.585 122.282 62.4414 121.797 62.4414 121.168V116.581H61.0947V115.604H62.4414V113.812H63.7061ZM71.1367 123C71.0638 122.854 71.0046 122.594 70.959 122.221C70.3711 122.831 69.6693 123.137 68.8535 123.137C68.1243 123.137 67.5251 122.932 67.0557 122.521C66.5908 122.107 66.3584 121.583 66.3584 120.949C66.3584 120.179 66.6501 119.582 67.2334 119.158C67.8213 118.73 68.6462 118.516 69.708 118.516H70.9385V117.935C70.9385 117.493 70.8063 117.142 70.542 116.882C70.2777 116.618 69.888 116.485 69.373 116.485C68.9219 116.485 68.5436 116.599 68.2383 116.827C67.9329 117.055 67.7803 117.331 67.7803 117.654H66.5088C66.5088 117.285 66.6387 116.93 66.8984 116.588C67.1628 116.242 67.5182 115.968 67.9648 115.768C68.416 115.567 68.9105 115.467 69.4482 115.467C70.3005 115.467 70.9681 115.681 71.4512 116.109C71.9342 116.533 72.1849 117.119 72.2031 117.866V121.271C72.2031 121.95 72.2897 122.49 72.4629 122.891V123H71.1367ZM69.0381 122.036C69.4346 122.036 69.8105 121.934 70.166 121.729C70.5215 121.523 70.779 121.257 70.9385 120.929V119.411H69.9473C68.3978 119.411 67.623 119.865 67.623 120.771C67.623 121.168 67.7552 121.478 68.0195 121.701C68.2839 121.924 68.6234 122.036 69.0381 122.036ZM70.207 112.5H71.7383L69.9062 114.51H68.8877L70.207 112.5ZM75.9014 113.812V115.604H77.2822V116.581H75.9014V121.168C75.9014 121.464 75.9629 121.688 76.0859 121.838C76.209 121.984 76.4186 122.057 76.7148 122.057C76.8607 122.057 77.0612 122.029 77.3164 121.975V123C76.9837 123.091 76.6602 123.137 76.3457 123.137C75.7806 123.137 75.3545 122.966 75.0674 122.624C74.7803 122.282 74.6367 121.797 74.6367 121.168V116.581H73.29V115.604H74.6367V113.812H75.9014ZM81.835 123.137C80.8324 123.137 80.0166 122.809 79.3877 122.152C78.7588 121.492 78.4443 120.61 78.4443 119.507V119.274C78.4443 118.541 78.5833 117.887 78.8613 117.312C79.1439 116.734 79.5358 116.283 80.0371 115.959C80.543 115.631 81.0898 115.467 81.6777 115.467C82.6393 115.467 83.3867 115.784 83.9199 116.417C84.4531 117.05 84.7197 117.957 84.7197 119.138V119.664H79.709C79.7272 120.393 79.9391 120.983 80.3447 121.435C80.7549 121.881 81.2744 122.104 81.9033 122.104C82.3499 122.104 82.7282 122.013 83.0381 121.831C83.348 121.649 83.6191 121.407 83.8516 121.106L84.624 121.708C84.0042 122.66 83.0745 123.137 81.835 123.137ZM81.6777 116.506C81.1673 116.506 80.7389 116.693 80.3926 117.066C80.0462 117.436 79.832 117.955 79.75 118.625H83.4551V118.529C83.4186 117.887 83.2454 117.39 82.9355 117.039C82.6257 116.684 82.2064 116.506 81.6777 116.506ZM87.5635 123H86.2988V115.604H87.5635V123ZM86.1963 113.642C86.1963 113.437 86.2578 113.263 86.3809 113.122C86.5085 112.981 86.6953 112.91 86.9414 112.91C87.1875 112.91 87.3743 112.981 87.502 113.122C87.6296 113.263 87.6934 113.437 87.6934 113.642C87.6934 113.847 87.6296 114.018 87.502 114.154C87.3743 114.291 87.1875 114.359 86.9414 114.359C86.6953 114.359 86.5085 114.291 86.3809 114.154C86.2578 114.018 86.1963 113.847 86.1963 113.642ZM93.9004 121.038C93.9004 120.696 93.7705 120.432 93.5107 120.245C93.2555 120.054 92.8066 119.89 92.1641 119.753C91.526 119.616 91.0179 119.452 90.6396 119.261C90.266 119.069 89.988 118.841 89.8057 118.577C89.6279 118.313 89.5391 117.998 89.5391 117.634C89.5391 117.028 89.7943 116.515 90.3047 116.096C90.8197 115.676 91.4759 115.467 92.2734 115.467C93.112 115.467 93.791 115.683 94.3105 116.116C94.8346 116.549 95.0967 117.103 95.0967 117.777H93.8252C93.8252 117.431 93.6771 117.132 93.3809 116.882C93.0892 116.631 92.7201 116.506 92.2734 116.506C91.8132 116.506 91.4531 116.606 91.1934 116.807C90.9336 117.007 90.8037 117.269 90.8037 117.593C90.8037 117.898 90.9245 118.128 91.166 118.283C91.4076 118.438 91.8428 118.586 92.4717 118.728C93.1051 118.869 93.6178 119.037 94.0098 119.233C94.4017 119.429 94.6911 119.666 94.8779 119.944C95.0693 120.218 95.165 120.553 95.165 120.949C95.165 121.61 94.9007 122.141 94.3721 122.542C93.8434 122.938 93.1576 123.137 92.3145 123.137C91.722 123.137 91.1979 123.032 90.7422 122.822C90.2865 122.613 89.9287 122.321 89.6689 121.947C89.4137 121.569 89.2861 121.161 89.2861 120.724H90.5508C90.5736 121.147 90.7422 121.485 91.0566 121.735C91.3757 121.981 91.7949 122.104 92.3145 122.104C92.793 122.104 93.1758 122.009 93.4629 121.817C93.7546 121.621 93.9004 121.362 93.9004 121.038Z" fill="white"/>
<circle cx="51" cy="51" r="51" fill="white"/>
<path d="M76.15 48.95H65.1V47.25H67.65C68.1194 47.25 68.5 46.8694 68.5 46.4V43.85H69.35C69.8194 43.85 70.2 43.4694 70.2 43V34.5C70.195 29.8076 66.3924 26.005 61.7 26H36.2C31.5076 26.005 27.705 29.8076 27.7 34.5V39.6C27.6892 41.9969 29.2635 44.1127 31.5624 44.7909L36.2 46.1825V62.55C36.1963 65.8346 33.5346 68.4963 30.25 68.5C27.903 68.5 26 70.403 26 72.75C26 75.097 27.903 77 30.25 77H74.025C75.6681 77 77 75.6681 77 74.025C77 72.3819 75.6681 71.05 74.025 71.05H68.5V68.053C73.6681 65.7155 76.9917 60.5719 77 54.9V49.8C77 49.3306 76.6194 48.95 76.15 48.95ZM75.3 52.35H49.8V50.65H75.3V52.35ZM48.1 49.8V54.9C48.1083 60.5719 51.4319 65.7155 56.6 68.053V69.8999C50.4508 67.4583 46.4104 61.5161 46.4 54.9V45.9248C47.8435 44.5884 49.7386 43.8475 51.7059 43.85H56.6V46.4C56.6 46.8694 56.9806 47.25 57.45 47.25H60V48.95H48.95C48.4806 48.95 48.1 49.3306 48.1 49.8ZM63.4 48.95H61.7V47.25H63.4V48.95ZM66.8 45.55H58.3V43.85H66.8V45.55ZM29.4 35.35H68.5V38.75H29.4V35.35ZM36.2 27.7H61.7C65.1253 27.7042 68.014 30.2521 68.4465 33.65H29.4527C29.8856 30.2521 32.7747 27.7046 36.2 27.7ZM29.5004 40.45H68.5V42.15H51.7059C49.2953 42.1442 46.9728 43.056 45.2101 44.7H37.1741L32.0504 43.1623C30.7796 42.7742 29.8092 41.7424 29.5004 40.45ZM75.3 74.025C75.3 74.7293 74.7293 75.3 74.025 75.3H30.25C28.8418 75.3 27.7 74.1582 27.7 72.75C27.7 71.3418 28.8418 70.2 30.25 70.2C34.473 70.1954 37.8954 66.773 37.9 62.55V46.4H44.7V54.9C44.7112 64.7534 52.6966 72.7388 62.55 72.75H74.025C74.7293 72.75 75.3 73.3207 75.3 74.025ZM66.8 71.05H62.55C61.1136 71.0454 59.6842 70.8483 58.3 70.4636V68.71C61.0691 69.5633 64.0309 69.5633 66.8 68.71V71.05ZM62.55 67.65C55.5118 67.6421 49.8079 61.9382 49.8 54.9V54.05H75.3V54.9C75.2921 61.9382 69.5882 67.6421 62.55 67.65Z" fill="#E2211D"/>
</svg>
