<svg width="102" height="127" viewBox="0 0 102 127" fill="none" xmlns="http://www.w3.org/2000/svg">
<path d="M19.1865 123V113.047H21.9961C22.862 113.047 23.6276 113.238 24.293 113.621C24.9583 114.004 25.471 114.549 25.8311 115.255C26.1956 115.961 26.3802 116.772 26.3848 117.688V118.324C26.3848 119.263 26.2025 120.086 25.8379 120.792C25.4779 121.498 24.9606 122.041 24.2861 122.419C23.6162 122.797 22.8346 122.991 21.9414 123H19.1865ZM20.499 114.127V121.927H21.8799C22.8916 121.927 23.6777 121.612 24.2383 120.983C24.8034 120.354 25.0859 119.459 25.0859 118.297V117.716C25.0859 116.586 24.8193 115.708 24.2861 115.084C23.7575 114.455 23.0055 114.136 22.0303 114.127H20.499ZM31.2451 123.137C30.2425 123.137 29.4268 122.809 28.7979 122.152C28.1689 121.492 27.8545 120.61 27.8545 119.507V119.274C27.8545 118.541 27.9935 117.887 28.2715 117.312C28.554 116.734 28.946 116.283 29.4473 115.959C29.9531 115.631 30.5 115.467 31.0879 115.467C32.0495 115.467 32.7969 115.784 33.3301 116.417C33.8633 117.05 34.1299 117.957 34.1299 119.138V119.664H29.1191C29.1374 120.393 29.3493 120.983 29.7549 121.435C30.165 121.881 30.6846 122.104 31.3135 122.104C31.7601 122.104 32.1383 122.013 32.4482 121.831C32.7581 121.649 33.0293 121.407 33.2617 121.106L34.0342 121.708C33.4144 122.66 32.4847 123.137 31.2451 123.137ZM31.0879 116.506C30.5775 116.506 30.1491 116.693 29.8027 117.066C29.4564 117.436 29.2422 117.955 29.1602 118.625H32.8652V118.529C32.8288 117.887 32.6556 117.39 32.3457 117.039C32.0358 116.684 31.6165 116.506 31.0879 116.506ZM38.5664 122.104C39.0176 122.104 39.4118 121.968 39.749 121.694C40.0863 121.421 40.2731 121.079 40.3096 120.669H41.5059C41.4831 121.093 41.3372 121.496 41.0684 121.879C40.7995 122.262 40.4395 122.567 39.9883 122.795C39.5417 123.023 39.0677 123.137 38.5664 123.137C37.5592 123.137 36.7572 122.802 36.1602 122.132C35.5677 121.457 35.2715 120.537 35.2715 119.37V119.158C35.2715 118.438 35.4036 117.798 35.668 117.237C35.9323 116.677 36.3105 116.242 36.8027 115.932C37.2995 115.622 37.8851 115.467 38.5596 115.467C39.389 115.467 40.0771 115.715 40.624 116.212C41.1755 116.709 41.4694 117.354 41.5059 118.146H40.3096C40.2731 117.668 40.0908 117.276 39.7627 116.971C39.4391 116.661 39.0381 116.506 38.5596 116.506C37.917 116.506 37.418 116.738 37.0625 117.203C36.7116 117.663 36.5361 118.331 36.5361 119.206V119.445C36.5361 120.298 36.7116 120.954 37.0625 121.414C37.4134 121.874 37.9147 122.104 38.5664 122.104ZM42.5928 119.233C42.5928 118.509 42.734 117.857 43.0166 117.278C43.3037 116.7 43.7002 116.253 44.2061 115.938C44.7165 115.624 45.2975 115.467 45.9492 115.467C46.9564 115.467 47.7699 115.815 48.3896 116.513C49.014 117.21 49.3262 118.137 49.3262 119.295V119.384C49.3262 120.104 49.1872 120.751 48.9092 121.325C48.6357 121.895 48.2415 122.339 47.7266 122.658C47.2161 122.977 46.6283 123.137 45.9629 123.137C44.9603 123.137 44.1468 122.788 43.5225 122.091C42.9027 121.394 42.5928 120.471 42.5928 119.322V119.233ZM43.8643 119.384C43.8643 120.204 44.0534 120.863 44.4316 121.359C44.8145 121.856 45.3249 122.104 45.9629 122.104C46.6055 122.104 47.1159 121.854 47.4941 121.353C47.8724 120.847 48.0615 120.14 48.0615 119.233C48.0615 118.422 47.8678 117.766 47.4805 117.265C47.0977 116.759 46.5872 116.506 45.9492 116.506C45.3249 116.506 44.8213 116.754 44.4385 117.251C44.0557 117.748 43.8643 118.459 43.8643 119.384ZM54.4873 116.738C54.2959 116.706 54.0885 116.69 53.8652 116.69C53.0358 116.69 52.473 117.044 52.1768 117.75V123H50.9121V115.604H52.1426L52.1631 116.458C52.5778 115.797 53.1657 115.467 53.9268 115.467C54.1729 115.467 54.3597 115.499 54.4873 115.562V116.738ZM59.9492 123C59.8763 122.854 59.8171 122.594 59.7715 122.221C59.1836 122.831 58.4818 123.137 57.666 123.137C56.9368 123.137 56.3376 122.932 55.8682 122.521C55.4033 122.107 55.1709 121.583 55.1709 120.949C55.1709 120.179 55.4626 119.582 56.0459 119.158C56.6338 118.73 57.4587 118.516 58.5205 118.516H59.751V117.935C59.751 117.493 59.6188 117.142 59.3545 116.882C59.0902 116.618 58.7005 116.485 58.1855 116.485C57.7344 116.485 57.3561 116.599 57.0508 116.827C56.7454 117.055 56.5928 117.331 56.5928 117.654H55.3213C55.3213 117.285 55.4512 116.93 55.7109 116.588C55.9753 116.242 56.3307 115.968 56.7773 115.768C57.2285 115.567 57.723 115.467 58.2607 115.467C59.113 115.467 59.7806 115.681 60.2637 116.109C60.7467 116.533 60.9974 117.119 61.0156 117.866V121.271C61.0156 121.95 61.1022 122.49 61.2754 122.891V123H59.9492ZM57.8506 122.036C58.2471 122.036 58.623 121.934 58.9785 121.729C59.334 121.523 59.5915 121.257 59.751 120.929V119.411H58.7598C57.2103 119.411 56.4355 119.865 56.4355 120.771C56.4355 121.168 56.5677 121.478 56.832 121.701C57.0964 121.924 57.4359 122.036 57.8506 122.036ZM65.9648 122.104C66.416 122.104 66.8102 121.968 67.1475 121.694C67.4847 121.421 67.6715 121.079 67.708 120.669H68.9043C68.8815 121.093 68.7357 121.496 68.4668 121.879C68.1979 122.262 67.8379 122.567 67.3867 122.795C66.9401 123.023 66.4661 123.137 65.9648 123.137C64.9577 123.137 64.1556 122.802 63.5586 122.132C62.9661 121.457 62.6699 120.537 62.6699 119.37V119.158C62.6699 118.438 62.8021 117.798 63.0664 117.237C63.3307 116.677 63.709 116.242 64.2012 115.932C64.6979 115.622 65.2835 115.467 65.958 115.467C66.7874 115.467 67.4756 115.715 68.0225 116.212C68.5739 116.709 68.8678 117.354 68.9043 118.146H67.708C67.6715 117.668 67.4893 117.276 67.1611 116.971C66.8376 116.661 66.4365 116.506 65.958 116.506C65.3154 116.506 64.8164 116.738 64.4609 117.203C64.11 117.663 63.9346 118.331 63.9346 119.206V119.445C63.9346 120.298 64.11 120.954 64.4609 121.414C64.8118 121.874 65.3132 122.104 65.9648 122.104ZM66.1699 123.062L66.0879 123.417C66.7852 123.54 67.1338 123.934 67.1338 124.6C67.1338 125.042 66.9515 125.39 66.5869 125.646C66.2223 125.905 65.7142 126.035 65.0625 126.035L65.0146 125.304C65.3747 125.304 65.6527 125.244 65.8486 125.126C66.0492 125.007 66.1494 124.841 66.1494 124.627C66.1494 124.426 66.0765 124.278 65.9307 124.183C65.7848 124.087 65.4886 124.019 65.042 123.978L65.2607 123.062H66.1699ZM74.8926 123C74.8197 122.854 74.7604 122.594 74.7148 122.221C74.127 122.831 73.4251 123.137 72.6094 123.137C71.8802 123.137 71.2809 122.932 70.8115 122.521C70.3467 122.107 70.1143 121.583 70.1143 120.949C70.1143 120.179 70.4059 119.582 70.9893 119.158C71.5771 118.73 72.402 118.516 73.4639 118.516H74.6943V117.935C74.6943 117.493 74.5622 117.142 74.2979 116.882C74.0335 116.618 73.6439 116.485 73.1289 116.485C72.6777 116.485 72.2995 116.599 71.9941 116.827C71.6888 117.055 71.5361 117.331 71.5361 117.654H70.2646C70.2646 117.285 70.3945 116.93 70.6543 116.588C70.9186 116.242 71.2741 115.968 71.7207 115.768C72.1719 115.567 72.6663 115.467 73.2041 115.467C74.0563 115.467 74.724 115.681 75.207 116.109C75.6901 116.533 75.9408 117.119 75.959 117.866V121.271C75.959 121.95 76.0456 122.49 76.2188 122.891V123H74.8926ZM72.7939 122.036C73.1904 122.036 73.5664 121.934 73.9219 121.729C74.2773 121.523 74.5348 121.257 74.6943 120.929V119.411H73.7031C72.1536 119.411 71.3789 119.865 71.3789 120.771C71.3789 121.168 71.5111 121.478 71.7754 121.701C72.0397 121.924 72.3792 122.036 72.7939 122.036ZM75.7676 112.719C75.7676 113.211 75.6263 113.61 75.3438 113.915C75.0658 114.22 74.7171 114.373 74.2979 114.373C74.111 114.373 73.9492 114.35 73.8125 114.305C73.6758 114.259 73.4958 114.166 73.2725 114.024C73.0537 113.883 72.8942 113.799 72.7939 113.771C72.6982 113.74 72.5866 113.724 72.459 113.724C72.2721 113.724 72.1126 113.797 71.9805 113.942C71.8483 114.084 71.7822 114.266 71.7822 114.489L70.9346 114.441C70.9346 113.954 71.0713 113.55 71.3447 113.231C71.6227 112.912 71.9736 112.753 72.3975 112.753C72.557 112.753 72.7005 112.776 72.8281 112.821C72.9557 112.867 73.1289 112.956 73.3477 113.088C73.5664 113.22 73.7327 113.307 73.8467 113.348C73.9652 113.389 74.0951 113.409 74.2363 113.409C74.4323 113.409 74.5941 113.332 74.7217 113.177C74.8538 113.022 74.9199 112.842 74.9199 112.637L75.7676 112.719ZM77.6064 119.233C77.6064 118.509 77.7477 117.857 78.0303 117.278C78.3174 116.7 78.7139 116.253 79.2197 115.938C79.7301 115.624 80.3112 115.467 80.9629 115.467C81.9701 115.467 82.7835 115.815 83.4033 116.513C84.0277 117.21 84.3398 118.137 84.3398 119.295V119.384C84.3398 120.104 84.2008 120.751 83.9229 121.325C83.6494 121.895 83.2552 122.339 82.7402 122.658C82.2298 122.977 81.6419 123.137 80.9766 123.137C79.974 123.137 79.1605 122.788 78.5361 122.091C77.9163 121.394 77.6064 120.471 77.6064 119.322V119.233ZM78.8779 119.384C78.8779 120.204 79.0671 120.863 79.4453 121.359C79.8281 121.856 80.3385 122.104 80.9766 122.104C81.6191 122.104 82.1296 121.854 82.5078 121.353C82.8861 120.847 83.0752 120.14 83.0752 119.233C83.0752 118.422 82.8815 117.766 82.4941 117.265C82.1113 116.759 81.6009 116.506 80.9629 116.506C80.3385 116.506 79.835 116.754 79.4521 117.251C79.0693 117.748 78.8779 118.459 78.8779 119.384Z" fill="white"/>
<circle cx="51" cy="51" r="51" fill="white"/>
<path d="M22.4857 59.2059L21.0197 66.1771C20.9601 66.4612 21.0374 66.7555 21.23 66.9794C21.4232 67.2038 21.7117 67.3334 22.0161 67.3339H40.3678C40.8909 72.8081 45.7185 77 51.4998 77C57.2815 77 62.1086 72.8081 62.6317 67.3339H80.9839C81.2883 67.3334 81.5768 67.2038 81.77 66.9794C81.9626 66.7555 82.0399 66.4612 81.9803 66.1771L80.5138 59.2059C80.0866 57.2031 78.588 55.5591 76.563 54.8733L64.6413 50.873C63.0883 50.3522 61.7121 49.4424 60.6575 48.2401L58.7335 46.0443C59.2427 45.9934 59.6299 45.5868 59.6336 45.1C59.6336 44.5664 59.1784 44.1336 58.6167 44.1336H57.6003V38.3336C57.5975 36.264 56.4354 34.3528 54.55 33.3182V24.6628C56.3409 24.2247 57.5947 22.6918 57.6003 20.9333V19.9669C57.6003 19.4328 57.1451 19 56.5834 19H46.4166C45.8549 19 45.3997 19.4328 45.3997 19.9669V20.9333C45.4053 22.6918 46.6591 24.2247 48.45 24.6628V33.3182C46.5646 34.3528 45.4025 36.264 45.3997 38.3336V44.1336H44.3833C43.8216 44.1336 43.3664 44.5664 43.3664 45.1C43.3701 45.5868 43.7573 45.993 44.266 46.0443L42.3425 48.2387C41.2879 49.4419 39.9113 50.3517 38.3578 50.8725L26.4365 54.8733C24.412 55.5587 22.9125 57.2026 22.4857 59.2059ZM51.4998 75.0671C46.843 75.0609 42.9317 71.7337 42.4095 67.3339H44.4587C44.7915 70.7491 47.8971 73.3077 51.4998 73.1338C52.0615 73.1338 52.5167 72.701 52.5167 72.1669C52.5167 71.6333 52.0615 71.2005 51.4998 71.2005C49.0229 71.3779 46.8341 69.6774 46.5242 67.3339H60.59C60.0683 71.7337 56.157 75.0609 51.4998 75.0671ZM47.4331 40.2669H55.5669V44.1336H47.4331V40.2669ZM47.4331 20.9333H55.5669C55.5655 22.0006 54.6557 22.8653 53.5331 22.8666H49.4664C48.3439 22.8653 47.4345 22.0006 47.4331 20.9333ZM50.4833 24.8H52.5167V32.6204C51.8442 32.504 51.1554 32.504 50.4833 32.6204V24.8ZM51.4998 34.467C53.7449 34.4692 55.5641 36.199 55.5669 38.3336H47.4331C47.4354 36.199 49.2551 34.4692 51.4998 34.467ZM27.1141 56.6973L39.0344 52.6966C40.9333 52.0598 42.6157 50.9473 43.9044 49.4764L46.8928 46.0669H56.1072L59.0965 49.4778C60.3852 50.9478 62.0672 52.0598 63.9656 52.6966L75.8864 56.6973C77.2365 57.1539 78.2366 58.2496 78.521 59.5851L79.7436 65.4005H23.2564L24.4795 59.5851C24.7643 58.25 25.764 57.1539 27.1141 56.6973Z" fill="#E2211D"/>
</svg>
