<svg width="147" height="128" viewBox="0 0 147 128" fill="none" xmlns="http://www.w3.org/2000/svg">
<circle cx="74" cy="51" r="51" fill="white"/>
<path d="M5.55076 123.845C5.99576 123.845 6.39326 123.77 6.74326 123.62C7.09326 123.47 7.38826 123.26 7.62826 122.99C7.87326 122.72 8.05826 122.397 8.18326 122.022C8.31326 121.647 8.37826 121.235 8.37826 120.785V114.252H9.82576V120.785C9.82576 121.405 9.72576 121.98 9.52576 122.51C9.33076 123.04 9.04826 123.5 8.67826 123.89C8.31326 124.275 7.86576 124.577 7.33576 124.797C6.80576 125.018 6.21076 125.128 5.55076 125.128C4.89076 125.128 4.29576 125.018 3.76576 124.797C3.23576 124.577 2.78576 124.275 2.41576 123.89C2.04576 123.5 1.76076 123.04 1.56076 122.51C1.36576 121.98 1.26826 121.405 1.26826 120.785V114.252H2.71576V120.777C2.71576 121.227 2.77826 121.64 2.90326 122.015C3.03326 122.39 3.21826 122.712 3.45826 122.982C3.70326 123.252 4.00076 123.465 4.35076 123.62C4.70576 123.77 5.10576 123.845 5.55076 123.845ZM14.451 125.12C13.851 125.12 13.3885 124.952 13.0635 124.617C12.7435 124.282 12.5835 123.8 12.5835 123.17V118.52H11.6685C11.5885 118.52 11.521 118.497 11.466 118.452C11.411 118.402 11.3835 118.327 11.3835 118.227V117.695L12.6285 117.537L12.936 115.19C12.951 115.115 12.9835 115.055 13.0335 115.01C13.0885 114.96 13.1585 114.935 13.2435 114.935H13.9185V117.552H16.116V118.52H13.9185V123.08C13.9185 123.4 13.996 123.637 14.151 123.792C14.306 123.947 14.506 124.025 14.751 124.025C14.891 124.025 15.011 124.007 15.111 123.972C15.216 123.932 15.306 123.89 15.381 123.845C15.456 123.8 15.5185 123.76 15.5685 123.725C15.6235 123.685 15.671 123.665 15.711 123.665C15.781 123.665 15.8435 123.707 15.8985 123.792L16.2885 124.43C16.0585 124.645 15.781 124.815 15.456 124.94C15.131 125.06 14.796 125.12 14.451 125.12ZM22.5356 120.372C22.5356 120.062 22.4906 119.78 22.4006 119.525C22.3156 119.265 22.1881 119.042 22.0181 118.857C21.8531 118.667 21.6506 118.522 21.4106 118.422C21.1706 118.317 20.8981 118.265 20.5931 118.265C19.9531 118.265 19.4456 118.452 19.0706 118.827C18.7006 119.197 18.4706 119.712 18.3806 120.372H22.5356ZM23.6156 123.935C23.4506 124.135 23.2531 124.31 23.0231 124.46C22.7931 124.605 22.5456 124.725 22.2806 124.82C22.0206 124.915 21.7506 124.985 21.4706 125.03C21.1906 125.08 20.9131 125.105 20.6381 125.105C20.1131 125.105 19.6281 125.017 19.1831 124.842C18.7431 124.662 18.3606 124.402 18.0356 124.062C17.7156 123.717 17.4656 123.292 17.2856 122.787C17.1056 122.282 17.0156 121.702 17.0156 121.047C17.0156 120.517 17.0956 120.022 17.2556 119.562C17.4206 119.102 17.6556 118.705 17.9606 118.37C18.2656 118.03 18.6381 117.765 19.0781 117.575C19.5181 117.38 20.0131 117.282 20.5631 117.282C21.0181 117.282 21.4381 117.36 21.8231 117.515C22.2131 117.665 22.5481 117.885 22.8281 118.175C23.1131 118.46 23.3356 118.815 23.4956 119.24C23.6556 119.66 23.7356 120.14 23.7356 120.68C23.7356 120.89 23.7131 121.03 23.6681 121.1C23.6231 121.17 23.5381 121.205 23.4131 121.205H18.3356C18.3506 121.685 18.4156 122.102 18.5306 122.457C18.6506 122.812 18.8156 123.11 19.0256 123.35C19.2356 123.585 19.4856 123.762 19.7756 123.882C20.0656 123.997 20.3906 124.055 20.7506 124.055C21.0856 124.055 21.3731 124.017 21.6131 123.942C21.8581 123.862 22.0681 123.777 22.2431 123.687C22.4181 123.597 22.5631 123.515 22.6781 123.44C22.7981 123.36 22.9006 123.32 22.9856 123.32C23.0956 123.32 23.1806 123.362 23.2406 123.447L23.6156 123.935ZM26.6354 118.505C26.8004 118.32 26.9754 118.152 27.1604 118.002C27.3454 117.852 27.5404 117.725 27.7454 117.62C27.9554 117.51 28.1754 117.427 28.4054 117.372C28.6404 117.312 28.8929 117.282 29.1629 117.282C29.5779 117.282 29.9429 117.352 30.2579 117.492C30.5779 117.627 30.8429 117.822 31.0529 118.077C31.2679 118.327 31.4304 118.63 31.5404 118.985C31.6504 119.34 31.7054 119.732 31.7054 120.162V125H30.3629V120.162C30.3629 119.587 30.2304 119.142 29.9654 118.827C29.7054 118.507 29.3079 118.347 28.7729 118.347C28.3779 118.347 28.0079 118.442 27.6629 118.632C27.3229 118.822 27.0079 119.08 26.7179 119.405V125H25.3754V117.402H26.1779C26.3679 117.402 26.4854 117.495 26.5304 117.68L26.6354 118.505ZM38.1646 118.655C38.1046 118.765 38.0121 118.82 37.8871 118.82C37.8121 118.82 37.7271 118.792 37.6321 118.737C37.5371 118.682 37.4196 118.622 37.2796 118.557C37.1446 118.487 36.9821 118.425 36.7921 118.37C36.6021 118.31 36.3771 118.28 36.1171 118.28C35.8921 118.28 35.6896 118.31 35.5096 118.37C35.3296 118.425 35.1746 118.502 35.0446 118.602C34.9196 118.702 34.8221 118.82 34.7521 118.955C34.6871 119.085 34.6546 119.227 34.6546 119.382C34.6546 119.577 34.7096 119.74 34.8196 119.87C34.9346 120 35.0846 120.112 35.2696 120.207C35.4546 120.302 35.6646 120.387 35.8996 120.462C36.1346 120.532 36.3746 120.61 36.6196 120.695C36.8696 120.775 37.1121 120.865 37.3471 120.965C37.5821 121.065 37.7921 121.19 37.9771 121.34C38.1621 121.49 38.3096 121.675 38.4196 121.895C38.5346 122.11 38.5921 122.37 38.5921 122.675C38.5921 123.025 38.5296 123.35 38.4046 123.65C38.2796 123.945 38.0946 124.202 37.8496 124.422C37.6046 124.637 37.3046 124.807 36.9496 124.932C36.5946 125.058 36.1846 125.12 35.7196 125.12C35.1896 125.12 34.7096 125.035 34.2796 124.865C33.8496 124.69 33.4846 124.467 33.1846 124.197L33.4996 123.687C33.5396 123.622 33.5871 123.572 33.6421 123.537C33.6971 123.502 33.7671 123.485 33.8521 123.485C33.9421 123.485 34.0371 123.52 34.1371 123.59C34.2371 123.66 34.3571 123.737 34.4971 123.822C34.6421 123.907 34.8171 123.985 35.0221 124.055C35.2271 124.125 35.4821 124.16 35.7871 124.16C36.0471 124.16 36.2746 124.127 36.4696 124.062C36.6646 123.992 36.8271 123.9 36.9571 123.785C37.0871 123.67 37.1821 123.537 37.2421 123.387C37.3071 123.237 37.3396 123.077 37.3396 122.907C37.3396 122.697 37.2821 122.525 37.1671 122.39C37.0571 122.25 36.9096 122.132 36.7246 122.037C36.5396 121.937 36.3271 121.852 36.0871 121.782C35.8521 121.707 35.6096 121.63 35.3596 121.55C35.1146 121.47 34.8721 121.38 34.6321 121.28C34.3971 121.175 34.1871 121.045 34.0021 120.89C33.8171 120.735 33.6671 120.545 33.5521 120.32C33.4421 120.09 33.3871 119.812 33.3871 119.487C33.3871 119.197 33.4471 118.92 33.5671 118.655C33.6871 118.385 33.8621 118.15 34.0921 117.95C34.3221 117.745 34.6046 117.582 34.9396 117.463C35.2746 117.342 35.6571 117.282 36.0871 117.282C36.5871 117.282 37.0346 117.362 37.4296 117.522C37.8296 117.677 38.1746 117.892 38.4646 118.167L38.1646 118.655ZM41.6464 117.402V125H40.3039V117.402H41.6464ZM43.1914 114.132L41.4439 116.067C41.3739 116.142 41.3039 116.197 41.2339 116.232C41.1689 116.262 41.0839 116.277 40.9789 116.277H40.1839L41.2939 114.462C41.3639 114.347 41.4389 114.265 41.5189 114.215C41.6039 114.16 41.7264 114.132 41.8864 114.132H43.1914ZM45.4761 113.952V125H44.1411V113.952H45.4761ZM49.051 117.402V125H47.716V117.402H49.051ZM49.336 115.017C49.336 115.147 49.3085 115.27 49.2535 115.385C49.2035 115.495 49.1335 115.595 49.0435 115.685C48.9585 115.77 48.856 115.837 48.736 115.887C48.621 115.937 48.4985 115.962 48.3685 115.962C48.2385 115.962 48.116 115.937 48.001 115.887C47.891 115.837 47.7935 115.77 47.7085 115.685C47.6235 115.595 47.556 115.495 47.506 115.385C47.456 115.27 47.431 115.147 47.431 115.017C47.431 114.887 47.456 114.765 47.506 114.65C47.556 114.53 47.6235 114.427 47.7085 114.342C47.7935 114.252 47.891 114.182 48.001 114.132C48.116 114.082 48.2385 114.057 48.3685 114.057C48.4985 114.057 48.621 114.082 48.736 114.132C48.856 114.182 48.9585 114.252 49.0435 114.342C49.1335 114.427 49.2035 114.53 49.2535 114.65C49.3085 114.765 49.336 114.887 49.336 115.017ZM54.447 117.282C55.002 117.282 55.502 117.375 55.947 117.56C56.392 117.745 56.772 118.007 57.087 118.347C57.402 118.687 57.642 119.1 57.807 119.585C57.977 120.065 58.062 120.602 58.062 121.197C58.062 121.797 57.977 122.337 57.807 122.817C57.642 123.297 57.402 123.707 57.087 124.047C56.772 124.387 56.392 124.65 55.947 124.835C55.502 125.015 55.002 125.105 54.447 125.105C53.887 125.105 53.382 125.015 52.932 124.835C52.487 124.65 52.107 124.387 51.792 124.047C51.477 123.707 51.2345 123.297 51.0645 122.817C50.8995 122.337 50.817 121.797 50.817 121.197C50.817 120.602 50.8995 120.065 51.0645 119.585C51.2345 119.1 51.477 118.687 51.792 118.347C52.107 118.007 52.487 117.745 52.932 117.56C53.382 117.375 53.887 117.282 54.447 117.282ZM54.447 124.062C55.197 124.062 55.757 123.812 56.127 123.312C56.497 122.807 56.682 122.105 56.682 121.205C56.682 120.3 56.497 119.595 56.127 119.09C55.757 118.585 55.197 118.332 54.447 118.332C54.067 118.332 53.7345 118.397 53.4495 118.527C53.1695 118.657 52.9345 118.845 52.7445 119.09C52.5595 119.335 52.4195 119.637 52.3245 119.997C52.2345 120.352 52.1895 120.755 52.1895 121.205C52.1895 122.105 52.3745 122.807 52.7445 123.312C53.1195 123.812 53.687 124.062 54.447 124.062ZM64.1803 118.655C64.1203 118.765 64.0278 118.82 63.9028 118.82C63.8278 118.82 63.7428 118.792 63.6478 118.737C63.5528 118.682 63.4353 118.622 63.2953 118.557C63.1603 118.487 62.9978 118.425 62.8078 118.37C62.6178 118.31 62.3928 118.28 62.1328 118.28C61.9078 118.28 61.7053 118.31 61.5253 118.37C61.3453 118.425 61.1903 118.502 61.0603 118.602C60.9353 118.702 60.8378 118.82 60.7678 118.955C60.7028 119.085 60.6703 119.227 60.6703 119.382C60.6703 119.577 60.7253 119.74 60.8353 119.87C60.9503 120 61.1003 120.112 61.2853 120.207C61.4703 120.302 61.6803 120.387 61.9153 120.462C62.1503 120.532 62.3903 120.61 62.6353 120.695C62.8853 120.775 63.1278 120.865 63.3628 120.965C63.5978 121.065 63.8078 121.19 63.9928 121.34C64.1778 121.49 64.3253 121.675 64.4353 121.895C64.5503 122.11 64.6078 122.37 64.6078 122.675C64.6078 123.025 64.5453 123.35 64.4203 123.65C64.2953 123.945 64.1103 124.202 63.8653 124.422C63.6203 124.637 63.3203 124.807 62.9653 124.932C62.6103 125.058 62.2003 125.12 61.7353 125.12C61.2053 125.12 60.7253 125.035 60.2953 124.865C59.8653 124.69 59.5003 124.467 59.2003 124.197L59.5153 123.687C59.5553 123.622 59.6028 123.572 59.6578 123.537C59.7128 123.502 59.7828 123.485 59.8678 123.485C59.9578 123.485 60.0528 123.52 60.1528 123.59C60.2528 123.66 60.3728 123.737 60.5128 123.822C60.6578 123.907 60.8328 123.985 61.0378 124.055C61.2428 124.125 61.4978 124.16 61.8028 124.16C62.0628 124.16 62.2903 124.127 62.4853 124.062C62.6803 123.992 62.8428 123.9 62.9728 123.785C63.1028 123.67 63.1978 123.537 63.2578 123.387C63.3228 123.237 63.3553 123.077 63.3553 122.907C63.3553 122.697 63.2978 122.525 63.1828 122.39C63.0728 122.25 62.9253 122.132 62.7403 122.037C62.5553 121.937 62.3428 121.852 62.1028 121.782C61.8678 121.707 61.6253 121.63 61.3753 121.55C61.1303 121.47 60.8878 121.38 60.6478 121.28C60.4128 121.175 60.2028 121.045 60.0178 120.89C59.8328 120.735 59.6828 120.545 59.5678 120.32C59.4578 120.09 59.4028 119.812 59.4028 119.487C59.4028 119.197 59.4628 118.92 59.5828 118.655C59.7028 118.385 59.8778 118.15 60.1078 117.95C60.3378 117.745 60.6203 117.582 60.9553 117.463C61.2903 117.342 61.6728 117.282 62.1028 117.282C62.6028 117.282 63.0503 117.362 63.4453 117.522C63.8453 117.677 64.1903 117.892 64.4803 118.167L64.1803 118.655ZM79.7124 119.63C79.7124 120.435 79.5849 121.167 79.3299 121.827C79.0749 122.487 78.7149 123.052 78.2499 123.522C77.7849 123.992 77.2249 124.357 76.5699 124.617C75.9199 124.872 75.1999 125 74.4099 125H70.3974V114.252H74.4099C75.1999 114.252 75.9199 114.382 76.5699 114.642C77.2249 114.897 77.7849 115.262 78.2499 115.737C78.7149 116.207 79.0749 116.772 79.3299 117.432C79.5849 118.092 79.7124 118.825 79.7124 119.63ZM78.2199 119.63C78.2199 118.97 78.1299 118.38 77.9499 117.86C77.7699 117.34 77.5149 116.9 77.1849 116.54C76.8549 116.18 76.4549 115.905 75.9849 115.715C75.5149 115.525 74.9899 115.43 74.4099 115.43H71.8524V123.822H74.4099C74.9899 123.822 75.5149 123.727 75.9849 123.537C76.4549 123.347 76.8549 123.075 77.1849 122.72C77.5149 122.36 77.7699 121.92 77.9499 121.4C78.1299 120.88 78.2199 120.29 78.2199 119.63ZM84.696 117.282C85.251 117.282 85.751 117.375 86.196 117.56C86.641 117.745 87.021 118.007 87.336 118.347C87.651 118.687 87.891 119.1 88.056 119.585C88.226 120.065 88.311 120.602 88.311 121.197C88.311 121.797 88.226 122.337 88.056 122.817C87.891 123.297 87.651 123.707 87.336 124.047C87.021 124.387 86.641 124.65 86.196 124.835C85.751 125.015 85.251 125.105 84.696 125.105C84.136 125.105 83.631 125.015 83.181 124.835C82.736 124.65 82.356 124.387 82.041 124.047C81.726 123.707 81.4835 123.297 81.3135 122.817C81.1485 122.337 81.066 121.797 81.066 121.197C81.066 120.602 81.1485 120.065 81.3135 119.585C81.4835 119.1 81.726 118.687 82.041 118.347C82.356 118.007 82.736 117.745 83.181 117.56C83.631 117.375 84.136 117.282 84.696 117.282ZM84.696 124.062C85.446 124.062 86.006 123.812 86.376 123.312C86.746 122.807 86.931 122.105 86.931 121.205C86.931 120.3 86.746 119.595 86.376 119.09C86.006 118.585 85.446 118.332 84.696 118.332C84.316 118.332 83.9835 118.397 83.6985 118.527C83.4185 118.657 83.1835 118.845 82.9935 119.09C82.8085 119.335 82.6685 119.637 82.5735 119.997C82.4835 120.352 82.4385 120.755 82.4385 121.205C82.4385 122.105 82.6235 122.807 82.9935 123.312C83.3685 123.812 83.936 124.062 84.696 124.062ZM90.0043 125V117.402H90.8068C90.9968 117.402 91.1143 117.495 91.1593 117.68L91.2568 118.46C91.5368 118.115 91.8518 117.832 92.2018 117.612C92.5518 117.392 92.9568 117.282 93.4168 117.282C93.9268 117.282 94.3393 117.425 94.6543 117.71C94.9743 117.995 95.2043 118.38 95.3443 118.865C95.4543 118.59 95.5943 118.352 95.7643 118.152C95.9393 117.952 96.1343 117.787 96.3493 117.657C96.5643 117.527 96.7918 117.432 97.0318 117.372C97.2768 117.312 97.5243 117.282 97.7743 117.282C98.1743 117.282 98.5293 117.347 98.8393 117.477C99.1543 117.602 99.4193 117.787 99.6343 118.032C99.8543 118.277 100.022 118.58 100.137 118.94C100.252 119.295 100.309 119.702 100.309 120.162V125H98.9668V120.162C98.9668 119.567 98.8368 119.117 98.5768 118.812C98.3168 118.502 97.9418 118.347 97.4518 118.347C97.2318 118.347 97.0218 118.387 96.8218 118.467C96.6268 118.542 96.4543 118.655 96.3043 118.805C96.1543 118.955 96.0343 119.145 95.9443 119.375C95.8593 119.6 95.8168 119.862 95.8168 120.162V125H94.4743V120.162C94.4743 119.552 94.3518 119.097 94.1068 118.797C93.8618 118.497 93.5043 118.347 93.0343 118.347C92.7043 118.347 92.3993 118.437 92.1193 118.617C91.8393 118.792 91.5818 119.032 91.3468 119.337V125H90.0043ZM107.423 120.372C107.423 120.062 107.378 119.78 107.288 119.525C107.203 119.265 107.076 119.042 106.906 118.857C106.741 118.667 106.538 118.522 106.298 118.422C106.058 118.317 105.786 118.265 105.481 118.265C104.841 118.265 104.333 118.452 103.958 118.827C103.588 119.197 103.358 119.712 103.268 120.372H107.423ZM108.503 123.935C108.338 124.135 108.141 124.31 107.911 124.46C107.681 124.605 107.433 124.725 107.168 124.82C106.908 124.915 106.638 124.985 106.358 125.03C106.078 125.08 105.801 125.105 105.526 125.105C105.001 125.105 104.516 125.017 104.071 124.842C103.631 124.662 103.248 124.402 102.923 124.062C102.603 123.717 102.353 123.292 102.173 122.787C101.993 122.282 101.903 121.702 101.903 121.047C101.903 120.517 101.983 120.022 102.143 119.562C102.308 119.102 102.543 118.705 102.848 118.37C103.153 118.03 103.526 117.765 103.966 117.575C104.406 117.38 104.901 117.282 105.451 117.282C105.906 117.282 106.326 117.36 106.711 117.515C107.101 117.665 107.436 117.885 107.716 118.175C108.001 118.46 108.223 118.815 108.383 119.24C108.543 119.66 108.623 120.14 108.623 120.68C108.623 120.89 108.601 121.03 108.556 121.1C108.511 121.17 108.426 121.205 108.301 121.205H103.223C103.238 121.685 103.303 122.102 103.418 122.457C103.538 122.812 103.703 123.11 103.913 123.35C104.123 123.585 104.373 123.762 104.663 123.882C104.953 123.997 105.278 124.055 105.638 124.055C105.973 124.055 106.261 124.017 106.501 123.942C106.746 123.862 106.956 123.777 107.131 123.687C107.306 123.597 107.451 123.515 107.566 123.44C107.686 123.36 107.788 123.32 107.873 123.32C107.983 123.32 108.068 123.362 108.128 123.447L108.503 123.935ZM107.663 114.132L105.916 116.067C105.846 116.142 105.776 116.197 105.706 116.232C105.641 116.262 105.556 116.277 105.451 116.277H104.656L105.766 114.462C105.836 114.347 105.911 114.265 105.991 114.215C106.076 114.16 106.198 114.132 106.358 114.132H107.663ZM114.688 118.655C114.628 118.765 114.536 118.82 114.411 118.82C114.336 118.82 114.251 118.792 114.156 118.737C114.061 118.682 113.943 118.622 113.803 118.557C113.668 118.487 113.506 118.425 113.316 118.37C113.126 118.31 112.901 118.28 112.641 118.28C112.416 118.28 112.213 118.31 112.033 118.37C111.853 118.425 111.698 118.502 111.568 118.602C111.443 118.702 111.346 118.82 111.276 118.955C111.211 119.085 111.178 119.227 111.178 119.382C111.178 119.577 111.233 119.74 111.343 119.87C111.458 120 111.608 120.112 111.793 120.207C111.978 120.302 112.188 120.387 112.423 120.462C112.658 120.532 112.898 120.61 113.143 120.695C113.393 120.775 113.636 120.865 113.871 120.965C114.106 121.065 114.316 121.19 114.501 121.34C114.686 121.49 114.833 121.675 114.943 121.895C115.058 122.11 115.116 122.37 115.116 122.675C115.116 123.025 115.053 123.35 114.928 123.65C114.803 123.945 114.618 124.202 114.373 124.422C114.128 124.637 113.828 124.807 113.473 124.932C113.118 125.058 112.708 125.12 112.243 125.12C111.713 125.12 111.233 125.035 110.803 124.865C110.373 124.69 110.008 124.467 109.708 124.197L110.023 123.687C110.063 123.622 110.111 123.572 110.166 123.537C110.221 123.502 110.291 123.485 110.376 123.485C110.466 123.485 110.561 123.52 110.661 123.59C110.761 123.66 110.881 123.737 111.021 123.822C111.166 123.907 111.341 123.985 111.546 124.055C111.751 124.125 112.006 124.16 112.311 124.16C112.571 124.16 112.798 124.127 112.993 124.062C113.188 123.992 113.351 123.9 113.481 123.785C113.611 123.67 113.706 123.537 113.766 123.387C113.831 123.237 113.863 123.077 113.863 122.907C113.863 122.697 113.806 122.525 113.691 122.39C113.581 122.25 113.433 122.132 113.248 122.037C113.063 121.937 112.851 121.852 112.611 121.782C112.376 121.707 112.133 121.63 111.883 121.55C111.638 121.47 111.396 121.38 111.156 121.28C110.921 121.175 110.711 121.045 110.526 120.89C110.341 120.735 110.191 120.545 110.076 120.32C109.966 120.09 109.911 119.812 109.911 119.487C109.911 119.197 109.971 118.92 110.091 118.655C110.211 118.385 110.386 118.15 110.616 117.95C110.846 117.745 111.128 117.582 111.463 117.463C111.798 117.342 112.181 117.282 112.611 117.282C113.111 117.282 113.558 117.362 113.953 117.522C114.353 117.677 114.698 117.892 114.988 118.167L114.688 118.655ZM123.802 125H122.467V118.52H118.552V123.08C118.552 123.4 118.63 123.637 118.785 123.792C118.94 123.947 119.14 124.025 119.385 124.025C119.525 124.025 119.645 124.007 119.745 123.972C119.85 123.932 119.94 123.89 120.015 123.845C120.09 123.8 120.152 123.76 120.202 123.725C120.257 123.685 120.305 123.665 120.345 123.665C120.415 123.665 120.477 123.707 120.532 123.792L120.922 124.43C120.692 124.645 120.415 124.815 120.09 124.94C119.765 125.06 119.43 125.12 119.085 125.12C118.485 125.12 118.022 124.952 117.697 124.617C117.377 124.282 117.217 123.8 117.217 123.17V118.52H116.302C116.222 118.52 116.155 118.497 116.1 118.452C116.045 118.402 116.017 118.327 116.017 118.227V117.695L117.262 117.53L117.57 115.19C117.585 115.115 117.617 115.055 117.667 115.01C117.722 114.96 117.792 114.935 117.877 114.935H118.552V117.552H123.802V125ZM124.132 114.965C124.132 115.095 124.105 115.217 124.05 115.332C124 115.442 123.93 115.54 123.84 115.625C123.755 115.71 123.655 115.777 123.54 115.827C123.425 115.877 123.302 115.902 123.172 115.902C123.042 115.902 122.92 115.877 122.805 115.827C122.695 115.777 122.597 115.71 122.512 115.625C122.427 115.54 122.36 115.442 122.31 115.332C122.26 115.217 122.235 115.095 122.235 114.965C122.235 114.835 122.26 114.712 122.31 114.597C122.36 114.477 122.427 114.375 122.512 114.29C122.597 114.2 122.695 114.13 122.805 114.08C122.92 114.03 123.042 114.005 123.172 114.005C123.302 114.005 123.425 114.03 123.54 114.08C123.655 114.13 123.755 114.2 123.84 114.29C123.93 114.375 124 114.477 124.05 114.597C124.105 114.712 124.132 114.835 124.132 114.965ZM131.283 118.752C131.243 118.807 131.203 118.85 131.163 118.88C131.123 118.91 131.068 118.925 130.998 118.925C130.923 118.925 130.84 118.895 130.75 118.835C130.66 118.77 130.548 118.7 130.413 118.625C130.283 118.55 130.12 118.482 129.925 118.422C129.735 118.357 129.5 118.325 129.22 118.325C128.845 118.325 128.515 118.392 128.23 118.527C127.945 118.657 127.705 118.847 127.51 119.097C127.32 119.347 127.175 119.65 127.075 120.005C126.98 120.36 126.933 120.757 126.933 121.197C126.933 121.657 126.985 122.067 127.09 122.427C127.195 122.782 127.343 123.082 127.533 123.327C127.728 123.567 127.96 123.752 128.23 123.882C128.505 124.007 128.813 124.07 129.153 124.07C129.478 124.07 129.745 124.032 129.955 123.957C130.165 123.877 130.338 123.79 130.473 123.695C130.613 123.6 130.728 123.515 130.818 123.44C130.913 123.36 131.005 123.32 131.095 123.32C131.205 123.32 131.29 123.362 131.35 123.447L131.725 123.935C131.56 124.14 131.373 124.315 131.163 124.46C130.953 124.605 130.725 124.727 130.48 124.827C130.24 124.922 129.988 124.992 129.723 125.038C129.458 125.083 129.188 125.105 128.913 125.105C128.438 125.105 127.995 125.017 127.585 124.842C127.18 124.667 126.828 124.415 126.528 124.085C126.228 123.75 125.993 123.34 125.823 122.855C125.653 122.37 125.568 121.817 125.568 121.197C125.568 120.632 125.645 120.11 125.8 119.63C125.96 119.15 126.19 118.737 126.49 118.392C126.795 118.042 127.168 117.77 127.608 117.575C128.053 117.38 128.563 117.282 129.138 117.282C129.673 117.282 130.143 117.37 130.548 117.545C130.958 117.715 131.32 117.957 131.635 118.272L131.283 118.752ZM136.229 117.282C136.784 117.282 137.284 117.375 137.729 117.56C138.174 117.745 138.554 118.007 138.869 118.347C139.184 118.687 139.424 119.1 139.589 119.585C139.759 120.065 139.844 120.602 139.844 121.197C139.844 121.797 139.759 122.337 139.589 122.817C139.424 123.297 139.184 123.707 138.869 124.047C138.554 124.387 138.174 124.65 137.729 124.835C137.284 125.015 136.784 125.105 136.229 125.105C135.669 125.105 135.164 125.015 134.714 124.835C134.269 124.65 133.889 124.387 133.574 124.047C133.259 123.707 133.017 123.297 132.847 122.817C132.682 122.337 132.599 121.797 132.599 121.197C132.599 120.602 132.682 120.065 132.847 119.585C133.017 119.1 133.259 118.687 133.574 118.347C133.889 118.007 134.269 117.745 134.714 117.56C135.164 117.375 135.669 117.282 136.229 117.282ZM136.229 124.062C136.979 124.062 137.539 123.812 137.909 123.312C138.279 122.807 138.464 122.105 138.464 121.205C138.464 120.3 138.279 119.595 137.909 119.09C137.539 118.585 136.979 118.332 136.229 118.332C135.849 118.332 135.517 118.397 135.232 118.527C134.952 118.657 134.717 118.845 134.527 119.09C134.342 119.335 134.202 119.637 134.107 119.997C134.017 120.352 133.972 120.755 133.972 121.205C133.972 122.105 134.157 122.807 134.527 123.312C134.902 123.812 135.469 124.062 136.229 124.062ZM145.962 118.655C145.902 118.765 145.81 118.82 145.685 118.82C145.61 118.82 145.525 118.792 145.43 118.737C145.335 118.682 145.217 118.622 145.077 118.557C144.942 118.487 144.78 118.425 144.59 118.37C144.4 118.31 144.175 118.28 143.915 118.28C143.69 118.28 143.487 118.31 143.307 118.37C143.127 118.425 142.972 118.502 142.842 118.602C142.717 118.702 142.62 118.82 142.55 118.955C142.485 119.085 142.452 119.227 142.452 119.382C142.452 119.577 142.507 119.74 142.617 119.87C142.732 120 142.882 120.112 143.067 120.207C143.252 120.302 143.462 120.387 143.697 120.462C143.932 120.532 144.172 120.61 144.417 120.695C144.667 120.775 144.91 120.865 145.145 120.965C145.38 121.065 145.59 121.19 145.775 121.34C145.96 121.49 146.107 121.675 146.217 121.895C146.332 122.11 146.39 122.37 146.39 122.675C146.39 123.025 146.327 123.35 146.202 123.65C146.077 123.945 145.892 124.202 145.647 124.422C145.402 124.637 145.102 124.807 144.747 124.932C144.392 125.058 143.982 125.12 143.517 125.12C142.987 125.12 142.507 125.035 142.077 124.865C141.647 124.69 141.282 124.467 140.982 124.197L141.297 123.687C141.337 123.622 141.385 123.572 141.44 123.537C141.495 123.502 141.565 123.485 141.65 123.485C141.74 123.485 141.835 123.52 141.935 123.59C142.035 123.66 142.155 123.737 142.295 123.822C142.44 123.907 142.615 123.985 142.82 124.055C143.025 124.125 143.28 124.16 143.585 124.16C143.845 124.16 144.072 124.127 144.267 124.062C144.462 123.992 144.625 123.9 144.755 123.785C144.885 123.67 144.98 123.537 145.04 123.387C145.105 123.237 145.137 123.077 145.137 122.907C145.137 122.697 145.08 122.525 144.965 122.39C144.855 122.25 144.707 122.132 144.522 122.037C144.337 121.937 144.125 121.852 143.885 121.782C143.65 121.707 143.407 121.63 143.157 121.55C142.912 121.47 142.67 121.38 142.43 121.28C142.195 121.175 141.985 121.045 141.8 120.89C141.615 120.735 141.465 120.545 141.35 120.32C141.24 120.09 141.185 119.812 141.185 119.487C141.185 119.197 141.245 118.92 141.365 118.655C141.485 118.385 141.66 118.15 141.89 117.95C142.12 117.745 142.402 117.582 142.737 117.463C143.072 117.342 143.455 117.282 143.885 117.282C144.385 117.282 144.832 117.362 145.227 117.522C145.627 117.677 145.972 117.892 146.262 118.167L145.962 118.655Z" fill="white"/>
<path d="M93.1349 25.2142C92.7674 25.5817 92.8899 26.3692 93.3624 26.6842C93.9924 27.1042 94.6749 26.7892 94.6749 26.0892C94.6749 25.2317 93.6774 24.6717 93.1349 25.2142Z" fill="#E2211D"/>
<path d="M88.83 32.8967C88.3575 33.2817 88.235 33.8942 88.585 34.2442C88.935 34.5942 89.5475 34.4892 89.9325 33.9992C90.3 33.5267 90.265 33.1067 89.81 32.7392C89.4425 32.4592 89.3725 32.4592 88.83 32.8967Z" fill="#E2211D"/>
<path d="M72.5725 36.5542C70.9275 36.9742 70.2975 37.3767 69.8075 38.3567C69.4925 38.9517 69.4575 39.2667 69.5275 40.2117C69.58 40.8592 69.6675 41.5242 69.7375 41.7167C69.8425 42.0492 69.51 42.1367 64.715 43.2742C54.5825 45.6367 55.125 45.4967 54.845 45.9342C54.46 46.4942 54.775 47.0542 55.475 47.0542C56.1575 47.0542 92.5925 38.4967 92.89 38.2692C93.2225 37.9892 93.1525 37.1142 92.7675 36.9217C92.5225 36.7817 90.7375 37.1317 85.3825 38.4092C81.4975 39.3192 78.1725 40.0892 77.98 40.1067C77.7175 40.1417 77.595 39.9142 77.35 39.0392C76.9125 37.4642 75.9675 36.5367 74.55 36.3092C74.2 36.2567 73.3425 36.3617 72.5725 36.5542ZM74.9 38.2167C75.4075 38.4792 75.705 39.1267 75.81 40.1242L75.8625 40.6317L73.85 41.1217C72.7475 41.3842 71.75 41.6117 71.645 41.6292C71.3475 41.6292 70.9975 39.8442 71.2075 39.3367C71.435 38.7242 71.6975 38.5492 72.8 38.2517C74.06 37.9017 74.2875 37.9017 74.9 38.2167Z" fill="#E2211D"/>
<path d="M91.2624 41.8742C90.5274 42.1892 89.6524 43.2392 89.4249 44.0617C89.0224 45.5667 89.9499 47.3692 91.4024 47.9117C92.5574 48.3492 94.2724 47.9817 95.0599 47.1067C95.5149 46.6167 95.8999 45.5667 95.8999 44.8667C95.8999 44.1667 95.5149 43.1167 95.0599 42.6267C94.2374 41.7167 92.4349 41.3667 91.2624 41.8742ZM93.7649 43.8517C94.4824 44.6392 94.1499 45.9867 93.1524 46.3717C92.2249 46.7217 90.9999 45.8642 90.9999 44.8842C90.9999 44.3417 91.4549 43.6767 91.9624 43.4492C92.6274 43.1692 93.2574 43.2917 93.7649 43.8517Z" fill="#E2211D"/>
<path d="M80.9025 45.1292C79.73 45.8117 79.03 46.9317 79.0125 48.1567C79.0125 49.1367 79.2925 49.4517 80.0275 49.2592C80.3425 49.1892 80.5175 48.9967 80.5875 48.7167C80.64 48.4717 80.7275 48.0692 80.78 47.8067C80.9025 47.1942 81.795 46.3892 82.5125 46.2492C83.685 46.0392 85.225 47.2817 85.225 48.4367C85.225 49.0142 85.5225 49.3292 86.03 49.3292C86.7125 49.3292 87.01 48.8567 86.87 48.0342C86.3975 45.1642 83.405 43.6942 80.9025 45.1292Z" fill="#E2211D"/>
<path d="M53.9 51.9367C53.8125 52.1292 53.725 53.2667 53.725 54.4567V56.6442L52.36 56.6967C51.17 56.7667 50.89 56.8367 50.33 57.2742C49.385 57.9917 49 58.9192 49 60.5817C49 63.2942 50.12 64.5542 52.57 64.5542H53.69L53.76 68.8767C53.8125 72.8492 53.8475 73.2867 54.18 74.0217C54.7225 75.1767 55.545 76.0167 56.665 76.5767L57.6625 77.0667H73.5H89.3375L90.265 76.6467C91.4025 76.1392 92.61 74.8267 92.995 73.7067C93.2225 73.0592 93.275 72.0792 93.275 68.7192V64.5542H94.395C95.725 64.5542 96.32 64.3617 97.02 63.7142C97.7725 62.9967 98 62.2967 98 60.6167C98 58.9367 97.7725 58.2367 97.02 57.5192C96.32 56.8717 95.725 56.6792 94.395 56.6792H93.275V54.3517C93.275 52.7767 93.205 51.9542 93.065 51.8142C92.9075 51.6567 88.3225 51.6042 73.465 51.6042C54.4775 51.6042 54.075 51.6042 53.9 51.9367ZM91.525 62.9617C91.525 69.4542 91.455 72.9192 91.3325 73.2517C91.07 73.9517 90.335 74.6867 89.5125 75.0717C88.8475 75.3867 88.025 75.4042 73.535 75.4042C60.1475 75.4042 58.1875 75.3692 57.61 75.1417C56.7525 74.7742 56.1925 74.2317 55.8075 73.3917C55.51 72.7442 55.475 72.0442 55.475 62.9267V53.1792H73.5H91.525V62.9617ZM53.4275 58.6042C53.6725 58.9017 53.725 59.3217 53.725 60.9842V63.0142L52.64 62.9442C51.7475 62.8742 51.5025 62.7867 51.1525 62.3842C50.82 61.9817 50.75 61.7192 50.75 60.6517C50.75 59.2867 50.995 58.7092 51.695 58.4292C52.36 58.1667 53.1125 58.2367 53.4275 58.6042ZM95.865 58.8492C96.285 59.2692 96.3375 59.4442 96.3375 60.6167C96.3375 61.8067 96.3025 61.9642 95.865 62.4017C95.445 62.8217 95.235 62.8917 94.3775 62.8917H93.3625L93.31 60.8092C93.2925 59.6542 93.31 58.6042 93.3625 58.4642C93.4325 58.2717 93.695 58.2367 94.43 58.2892C95.1825 58.3592 95.4975 58.4817 95.865 58.8492Z" fill="#E2211D"/>
</svg>
