<svg width="157" height="126" viewBox="0 0 157 126" fill="none" xmlns="http://www.w3.org/2000/svg">
<path d="M4.53516 118.563C3.40951 118.24 2.58919 117.843 2.07422 117.374C1.5638 116.9 1.30859 116.317 1.30859 115.624C1.30859 114.84 1.62077 114.193 2.24512 113.683C2.87402 113.168 3.68978 112.91 4.69238 112.91C5.37598 112.91 5.98438 113.042 6.51758 113.307C7.05534 113.571 7.47005 113.936 7.76172 114.4C8.05794 114.865 8.20605 115.373 8.20605 115.925H6.88672C6.88672 115.323 6.69531 114.852 6.3125 114.51C5.92969 114.163 5.38965 113.99 4.69238 113.99C4.04525 113.99 3.53939 114.134 3.1748 114.421C2.81478 114.703 2.63477 115.098 2.63477 115.604C2.63477 116.009 2.80566 116.353 3.14746 116.636C3.49382 116.914 4.07943 117.169 4.9043 117.401C5.73372 117.634 6.38086 117.891 6.8457 118.174C7.3151 118.452 7.66146 118.778 7.88477 119.151C8.11263 119.525 8.22656 119.965 8.22656 120.471C8.22656 121.277 7.91211 121.924 7.2832 122.412C6.6543 122.895 5.81348 123.137 4.76074 123.137C4.07715 123.137 3.43913 123.007 2.84668 122.747C2.25423 122.483 1.79622 122.123 1.47266 121.667C1.15365 121.211 0.994141 120.694 0.994141 120.115H2.31348C2.31348 120.717 2.53451 121.193 2.97656 121.544C3.42318 121.89 4.0179 122.063 4.76074 122.063C5.45345 122.063 5.98438 121.922 6.35352 121.64C6.72266 121.357 6.90723 120.972 6.90723 120.484C6.90723 119.997 6.73633 119.621 6.39453 119.356C6.05273 119.088 5.43294 118.823 4.53516 118.563ZM10.9062 115.604L10.9404 116.424C11.4827 115.786 12.2142 115.467 13.1348 115.467C14.1693 115.467 14.8734 115.863 15.2471 116.656C15.4932 116.301 15.8122 116.014 16.2041 115.795C16.6006 115.576 17.0677 115.467 17.6055 115.467C19.2279 115.467 20.0527 116.326 20.0801 118.044V123H18.8154V118.119C18.8154 117.59 18.6947 117.196 18.4531 116.937C18.2116 116.672 17.806 116.54 17.2363 116.54C16.7669 116.54 16.3773 116.681 16.0674 116.964C15.7575 117.242 15.5775 117.618 15.5273 118.092V123H14.2559V118.153C14.2559 117.078 13.7295 116.54 12.6768 116.54C11.8473 116.54 11.2799 116.893 10.9746 117.6V123H9.70996V115.604H10.9062ZM26.5605 123C26.4876 122.854 26.4284 122.594 26.3828 122.221C25.7949 122.831 25.0931 123.137 24.2773 123.137C23.5482 123.137 22.9489 122.932 22.4795 122.521C22.0146 122.107 21.7822 121.583 21.7822 120.949C21.7822 120.179 22.0739 119.582 22.6572 119.158C23.2451 118.73 24.07 118.516 25.1318 118.516H26.3623V117.935C26.3623 117.493 26.2301 117.142 25.9658 116.882C25.7015 116.618 25.3118 116.485 24.7969 116.485C24.3457 116.485 23.9674 116.599 23.6621 116.827C23.3568 117.055 23.2041 117.331 23.2041 117.654H21.9326C21.9326 117.285 22.0625 116.93 22.3223 116.588C22.5866 116.242 22.9421 115.968 23.3887 115.768C23.8398 115.567 24.3343 115.467 24.8721 115.467C25.7243 115.467 26.3919 115.681 26.875 116.109C27.3581 116.533 27.6087 117.119 27.627 117.866V121.271C27.627 121.95 27.7135 122.49 27.8867 122.891V123H26.5605ZM24.4619 122.036C24.8584 122.036 25.2344 121.934 25.5898 121.729C25.9453 121.523 26.2028 121.257 26.3623 120.929V119.411H25.3711C23.8216 119.411 23.0469 119.865 23.0469 120.771C23.0469 121.168 23.179 121.478 23.4434 121.701C23.7077 121.924 24.0472 122.036 24.4619 122.036ZM33.1846 116.738C32.9932 116.706 32.7858 116.69 32.5625 116.69C31.7331 116.69 31.1702 117.044 30.874 117.75V123H29.6094V115.604H30.8398L30.8604 116.458C31.2751 115.797 31.863 115.467 32.624 115.467C32.8701 115.467 33.057 115.499 33.1846 115.562V116.738ZM36.4111 113.812V115.604H37.792V116.581H36.4111V121.168C36.4111 121.464 36.4727 121.688 36.5957 121.838C36.7188 121.984 36.9284 122.057 37.2246 122.057C37.3704 122.057 37.571 122.029 37.8262 121.975V123C37.4935 123.091 37.1699 123.137 36.8555 123.137C36.2904 123.137 35.8643 122.966 35.5771 122.624C35.29 122.282 35.1465 121.797 35.1465 121.168V116.581H33.7998V115.604H35.1465V113.812H36.4111ZM45.5234 119.384C45.5234 120.509 45.266 121.416 44.751 122.104C44.236 122.793 43.5387 123.137 42.6592 123.137C41.7614 123.137 41.055 122.852 40.54 122.282V125.844H39.2754V115.604H40.4307L40.4922 116.424C41.0072 115.786 41.7227 115.467 42.6387 115.467C43.5273 115.467 44.2292 115.802 44.7441 116.472C45.2637 117.142 45.5234 118.074 45.5234 119.268V119.384ZM44.2588 119.24C44.2588 118.406 44.0811 117.748 43.7256 117.265C43.3701 116.782 42.8825 116.54 42.2627 116.54C41.4971 116.54 40.9229 116.88 40.54 117.559V121.093C40.9183 121.767 41.4971 122.104 42.2764 122.104C42.8825 122.104 43.3633 121.865 43.7188 121.387C44.0788 120.904 44.2588 120.188 44.2588 119.24ZM48.4014 116.499C48.9619 115.811 49.6911 115.467 50.5889 115.467C52.152 115.467 52.9404 116.349 52.9541 118.112V123H51.6895V118.105C51.6849 117.572 51.5618 117.178 51.3203 116.923C51.0833 116.668 50.7119 116.54 50.2061 116.54C49.7959 116.54 49.4359 116.649 49.126 116.868C48.8161 117.087 48.5745 117.374 48.4014 117.729V123H47.1367V112.5H48.4014V116.499ZM54.5127 119.233C54.5127 118.509 54.654 117.857 54.9365 117.278C55.2236 116.7 55.6201 116.253 56.126 115.938C56.6364 115.624 57.2174 115.467 57.8691 115.467C58.8763 115.467 59.6898 115.815 60.3096 116.513C60.9339 117.21 61.2461 118.137 61.2461 119.295V119.384C61.2461 120.104 61.1071 120.751 60.8291 121.325C60.5557 121.895 60.1615 122.339 59.6465 122.658C59.1361 122.977 58.5482 123.137 57.8828 123.137C56.8802 123.137 56.0667 122.788 55.4424 122.091C54.8226 121.394 54.5127 120.471 54.5127 119.322V119.233ZM55.7842 119.384C55.7842 120.204 55.9733 120.863 56.3516 121.359C56.7344 121.856 57.2448 122.104 57.8828 122.104C58.5254 122.104 59.0358 121.854 59.4141 121.353C59.7923 120.847 59.9814 120.14 59.9814 119.233C59.9814 118.422 59.7878 117.766 59.4004 117.265C59.0176 116.759 58.5072 116.506 57.8691 116.506C57.2448 116.506 56.7412 116.754 56.3584 117.251C55.9756 117.748 55.7842 118.459 55.7842 119.384ZM64.0283 115.604L64.0693 116.533C64.6344 115.822 65.3727 115.467 66.2842 115.467C67.8473 115.467 68.6357 116.349 68.6494 118.112V123H67.3848V118.105C67.3802 117.572 67.2572 117.178 67.0156 116.923C66.7786 116.668 66.4072 116.54 65.9014 116.54C65.4912 116.54 65.1312 116.649 64.8213 116.868C64.5114 117.087 64.2699 117.374 64.0967 117.729V123H62.832V115.604H64.0283ZM73.626 123.137C72.6234 123.137 71.8076 122.809 71.1787 122.152C70.5498 121.492 70.2354 120.61 70.2354 119.507V119.274C70.2354 118.541 70.3743 117.887 70.6523 117.312C70.9349 116.734 71.3268 116.283 71.8281 115.959C72.334 115.631 72.8809 115.467 73.4688 115.467C74.4303 115.467 75.1777 115.784 75.7109 116.417C76.2441 117.05 76.5107 117.957 76.5107 119.138V119.664H71.5C71.5182 120.393 71.7301 120.983 72.1357 121.435C72.5459 121.881 73.0654 122.104 73.6943 122.104C74.141 122.104 74.5192 122.013 74.8291 121.831C75.139 121.649 75.4102 121.407 75.6426 121.106L76.415 121.708C75.7952 122.66 74.8656 123.137 73.626 123.137ZM73.4688 116.506C72.9583 116.506 72.5299 116.693 72.1836 117.066C71.8372 117.436 71.623 117.955 71.541 118.625H75.2461V118.529C75.2096 117.887 75.0365 117.39 74.7266 117.039C74.4167 116.684 73.9974 116.506 73.4688 116.506ZM82.2871 121.038C82.2871 120.696 82.1572 120.432 81.8975 120.245C81.6423 120.054 81.1934 119.89 80.5508 119.753C79.9128 119.616 79.4046 119.452 79.0264 119.261C78.6527 119.069 78.3747 118.841 78.1924 118.577C78.0146 118.313 77.9258 117.998 77.9258 117.634C77.9258 117.028 78.181 116.515 78.6914 116.096C79.2064 115.676 79.8626 115.467 80.6602 115.467C81.4987 115.467 82.1777 115.683 82.6973 116.116C83.2214 116.549 83.4834 117.103 83.4834 117.777H82.2119C82.2119 117.431 82.0638 117.132 81.7676 116.882C81.4759 116.631 81.1068 116.506 80.6602 116.506C80.1999 116.506 79.8398 116.606 79.5801 116.807C79.3203 117.007 79.1904 117.269 79.1904 117.593C79.1904 117.898 79.3112 118.128 79.5527 118.283C79.7943 118.438 80.2295 118.586 80.8584 118.728C81.4919 118.869 82.0046 119.037 82.3965 119.233C82.7884 119.429 83.0778 119.666 83.2646 119.944C83.4561 120.218 83.5518 120.553 83.5518 120.949C83.5518 121.61 83.2874 122.141 82.7588 122.542C82.2301 122.938 81.5443 123.137 80.7012 123.137C80.1087 123.137 79.5846 123.032 79.1289 122.822C78.6732 122.613 78.3154 122.321 78.0557 121.947C77.8005 121.569 77.6729 121.161 77.6729 120.724H78.9375C78.9603 121.147 79.1289 121.485 79.4434 121.735C79.7624 121.981 80.1816 122.104 80.7012 122.104C81.1797 122.104 81.5625 122.009 81.8496 121.817C82.1413 121.621 82.2871 121.362 82.2871 121.038ZM91.7412 123.137C90.7386 123.137 89.9229 122.809 89.2939 122.152C88.665 121.492 88.3506 120.61 88.3506 119.507V119.274C88.3506 118.541 88.4896 117.887 88.7676 117.312C89.0501 116.734 89.4421 116.283 89.9434 115.959C90.4492 115.631 90.9961 115.467 91.584 115.467C92.5456 115.467 93.293 115.784 93.8262 116.417C94.3594 117.05 94.626 117.957 94.626 119.138V119.664H89.6152C89.6335 120.393 89.8454 120.983 90.251 121.435C90.6611 121.881 91.1807 122.104 91.8096 122.104C92.2562 122.104 92.6344 122.013 92.9443 121.831C93.2542 121.649 93.5254 121.407 93.7578 121.106L94.5303 121.708C93.9105 122.66 92.9808 123.137 91.7412 123.137ZM91.584 116.506C91.0736 116.506 90.6452 116.693 90.2988 117.066C89.9525 117.436 89.7383 117.955 89.6562 118.625H93.3613V118.529C93.3249 117.887 93.1517 117.39 92.8418 117.039C92.5319 116.684 92.1126 116.506 91.584 116.506ZM107.088 119.842C106.965 120.895 106.575 121.708 105.919 122.282C105.267 122.852 104.399 123.137 103.314 123.137C102.139 123.137 101.195 122.715 100.484 121.872C99.778 121.029 99.4248 119.901 99.4248 118.488V117.531C99.4248 116.606 99.5889 115.793 99.917 115.091C100.25 114.389 100.719 113.851 101.325 113.478C101.931 113.099 102.633 112.91 103.431 112.91C104.488 112.91 105.336 113.206 105.974 113.799C106.612 114.387 106.983 115.202 107.088 116.246H105.769C105.655 115.453 105.406 114.879 105.023 114.523C104.645 114.168 104.114 113.99 103.431 113.99C102.592 113.99 101.934 114.3 101.455 114.92C100.981 115.54 100.744 116.422 100.744 117.565V118.529C100.744 119.609 100.97 120.468 101.421 121.106C101.872 121.744 102.503 122.063 103.314 122.063C104.044 122.063 104.602 121.899 104.989 121.571C105.381 121.239 105.641 120.662 105.769 119.842H107.088ZM111.757 123.137C110.754 123.137 109.938 122.809 109.31 122.152C108.681 121.492 108.366 120.61 108.366 119.507V119.274C108.366 118.541 108.505 117.887 108.783 117.312C109.066 116.734 109.458 116.283 109.959 115.959C110.465 115.631 111.012 115.467 111.6 115.467C112.561 115.467 113.309 115.784 113.842 116.417C114.375 117.05 114.642 117.957 114.642 119.138V119.664H109.631C109.649 120.393 109.861 120.983 110.267 121.435C110.677 121.881 111.196 122.104 111.825 122.104C112.272 122.104 112.65 122.013 112.96 121.831C113.27 121.649 113.541 121.407 113.773 121.106L114.546 121.708C113.926 122.66 112.996 123.137 111.757 123.137ZM111.6 116.506C111.089 116.506 110.661 116.693 110.314 117.066C109.968 117.436 109.754 117.955 109.672 118.625H113.377V118.529C113.34 117.887 113.167 117.39 112.857 117.039C112.548 116.684 112.128 116.506 111.6 116.506ZM117.485 123H116.221V112.5H117.485V123ZM124.082 122.269C123.59 122.847 122.868 123.137 121.915 123.137C121.127 123.137 120.525 122.909 120.11 122.453C119.7 121.993 119.493 121.314 119.488 120.416V115.604H120.753V120.382C120.753 121.503 121.209 122.063 122.12 122.063C123.086 122.063 123.729 121.703 124.048 120.983V115.604H125.312V123H124.109L124.082 122.269ZM128.614 123H127.35V112.5H128.614V123ZM135.211 123C135.138 122.854 135.079 122.594 135.033 122.221C134.445 122.831 133.743 123.137 132.928 123.137C132.199 123.137 131.599 122.932 131.13 122.521C130.665 122.107 130.433 121.583 130.433 120.949C130.433 120.179 130.724 119.582 131.308 119.158C131.896 118.73 132.72 118.516 133.782 118.516H135.013V117.935C135.013 117.493 134.881 117.142 134.616 116.882C134.352 116.618 133.962 116.485 133.447 116.485C132.996 116.485 132.618 116.599 132.312 116.827C132.007 117.055 131.854 117.331 131.854 117.654H130.583C130.583 117.285 130.713 116.93 130.973 116.588C131.237 116.242 131.592 115.968 132.039 115.768C132.49 115.567 132.985 115.467 133.522 115.467C134.375 115.467 135.042 115.681 135.525 116.109C136.008 116.533 136.259 117.119 136.277 117.866V121.271C136.277 121.95 136.364 122.49 136.537 122.891V123H135.211ZM133.112 122.036C133.509 122.036 133.885 121.934 134.24 121.729C134.596 121.523 134.853 121.257 135.013 120.929V119.411H134.021C132.472 119.411 131.697 119.865 131.697 120.771C131.697 121.168 131.829 121.478 132.094 121.701C132.358 121.924 132.698 122.036 133.112 122.036ZM141.835 116.738C141.644 116.706 141.436 116.69 141.213 116.69C140.383 116.69 139.821 117.044 139.524 117.75V123H138.26V115.604H139.49L139.511 116.458C139.925 115.797 140.513 115.467 141.274 115.467C141.521 115.467 141.707 115.499 141.835 115.562V116.738ZM145.937 123.137C144.934 123.137 144.118 122.809 143.489 122.152C142.86 121.492 142.546 120.61 142.546 119.507V119.274C142.546 118.541 142.685 117.887 142.963 117.312C143.245 116.734 143.637 116.283 144.139 115.959C144.645 115.631 145.191 115.467 145.779 115.467C146.741 115.467 147.488 115.784 148.021 116.417C148.555 117.05 148.821 117.957 148.821 119.138V119.664H143.811C143.829 120.393 144.041 120.983 144.446 121.435C144.856 121.881 145.376 122.104 146.005 122.104C146.451 122.104 146.83 122.013 147.14 121.831C147.45 121.649 147.721 121.407 147.953 121.106L148.726 121.708C148.106 122.66 147.176 123.137 145.937 123.137ZM145.779 116.506C145.269 116.506 144.84 116.693 144.494 117.066C144.148 117.436 143.934 117.955 143.852 118.625H147.557V118.529C147.52 117.887 147.347 117.39 147.037 117.039C146.727 116.684 146.308 116.506 145.779 116.506ZM154.598 121.038C154.598 120.696 154.468 120.432 154.208 120.245C153.953 120.054 153.504 119.89 152.861 119.753C152.223 119.616 151.715 119.452 151.337 119.261C150.963 119.069 150.685 118.841 150.503 118.577C150.325 118.313 150.236 117.998 150.236 117.634C150.236 117.028 150.492 116.515 151.002 116.096C151.517 115.676 152.173 115.467 152.971 115.467C153.809 115.467 154.488 115.683 155.008 116.116C155.532 116.549 155.794 117.103 155.794 117.777H154.522C154.522 117.431 154.374 117.132 154.078 116.882C153.786 116.631 153.417 116.506 152.971 116.506C152.51 116.506 152.15 116.606 151.891 116.807C151.631 117.007 151.501 117.269 151.501 117.593C151.501 117.898 151.622 118.128 151.863 118.283C152.105 118.438 152.54 118.586 153.169 118.728C153.802 118.869 154.315 119.037 154.707 119.233C155.099 119.429 155.388 119.666 155.575 119.944C155.767 120.218 155.862 120.553 155.862 120.949C155.862 121.61 155.598 122.141 155.069 122.542C154.541 122.938 153.855 123.137 153.012 123.137C152.419 123.137 151.895 123.032 151.439 122.822C150.984 122.613 150.626 122.321 150.366 121.947C150.111 121.569 149.983 121.161 149.983 120.724H151.248C151.271 121.147 151.439 121.485 151.754 121.735C152.073 121.981 152.492 122.104 153.012 122.104C153.49 122.104 153.873 122.009 154.16 121.817C154.452 121.621 154.598 121.362 154.598 121.038Z" fill="white"/>
<circle cx="75" cy="51" r="51" fill="white"/>
<path d="M88.7 64.3H89V64V29.875C89 28.8084 88.1217 27.95 87.05 27.95H63.95C62.8782 27.95 62 28.8084 62 29.875V64V64.3H62.3H88.7ZM62.3 66.95H62V67.25V72.125C62 73.1916 62.8782 74.05 63.95 74.05H87.05C88.1217 74.05 89 73.1916 89 72.125V67.25V66.95H88.7H62.3ZM63.95 25.3H87.05C89.6182 25.3 91.7 27.3567 91.7 29.875V72.125C91.7 74.6433 89.6182 76.7 87.05 76.7H63.95C61.3818 76.7 59.3 74.6433 59.3 72.125V29.875C59.3 27.3567 61.3818 25.3 63.95 25.3ZM76.4562 69.5647C76.9813 70.0818 76.9813 70.9183 76.4562 71.4354C75.9286 71.955 75.0713 71.955 74.5437 71.4354C74.0186 70.9183 74.0186 70.0818 74.5437 69.5647C75.0713 69.0451 75.9286 69.0451 76.4562 69.5647Z" fill="#E2211D" stroke="white" stroke-width="0.6"/>
</svg>
