<svg xmlns="http://www.w3.org/2000/svg" width="21.841" height="18.641" viewBox="0 0 21.841 18.641">
  <g id="Grupo_34" data-name="Grupo 34" transform="translate(-7.4 -15.3)">
    <path id="Caminho_304" data-name="Caminho 304" d="M18.668,25.33c.062-.083.125-.146.208-.25a.7.7,0,0,0-.874.437.683.683,0,0,0,.354.832.67.67,0,0,0,.894-.291c.146-.208.312-.27.478-.166s.187.291.062.5a1.352,1.352,0,0,1-1.872.437,1.326,1.326,0,1,1,1.56-2.142c.25.187.25.354.042.6-.208.229-.4.458-.6.686-.166.166-.333.208-.478.083a.338.338,0,0,1,0-.5A1.187,1.187,0,0,0,18.668,25.33Z" transform="translate(-7.856 -7.201)" fill="#e2211d"/>
    <path id="Caminho_305" data-name="Caminho 305" d="M16.2,42.4H18.65c.25,0,.4.125.374.333,0,.187-.146.312-.374.312H16.2c-.25,0-.4-.125-.4-.312C15.8,42.525,15.946,42.4,16.2,42.4Z" transform="translate(-6.653 -21.463)" fill="#e2211d"/>
    <path id="Caminho_306" data-name="Caminho 306" d="M15.8,48.512c0-.187.146-.312.374-.312H18.65c.229,0,.374.125.374.312a.34.34,0,0,1-.374.333H16.174C15.946,48.824,15.8,48.7,15.8,48.512Z" transform="translate(-6.653 -26.057)" fill="#e2211d"/>
    <path id="Caminho_307" data-name="Caminho 307" d="M15.8,54.212c0-.187.146-.312.374-.312H18.65c.25,0,.4.146.374.333,0,.187-.146.312-.374.312H16.174A.329.329,0,0,1,15.8,54.212Z" transform="translate(-6.653 -30.571)" fill="#e2211d"/>
    <path id="Caminho_308" data-name="Caminho 308" d="M48.086,22.441a.269.269,0,0,1,.25.312.289.289,0,0,1-.291.312,3.061,3.061,0,0,1-.437,0h-.416c-.187-.021-.291-.1-.291-.291a.292.292,0,0,1,.27-.333A6.718,6.718,0,0,1,48.086,22.441Z" transform="translate(-31.284 -5.643)" fill="#e2211d"/>
    <path id="Caminho_309" data-name="Caminho 309" d="M51.289,28.712a.329.329,0,0,1-.374.333h-3.64c-.25,0-.374-.125-.374-.333,0-.187.125-.312.374-.312h3.64Q51.258,28.431,51.289,28.712Z" transform="translate(-31.284 -10.375)" fill="#e2211d"/>
    <path id="Caminho_310" data-name="Caminho 310" d="M47.2,33.924c-.25,0-.4-.1-.4-.312s.146-.312.4-.312h3.619c.25,0,.4.125.4.333,0,.187-.146.312-.4.312H49C48.4,33.924,47.8,33.924,47.2,33.924Z" transform="translate(-31.205 -14.256)" fill="#e2211d"/>
    <path id="Caminho_311" data-name="Caminho 311" d="M61.577,57.562c.042-.146-.042-.125-.125-.125H60.371a.313.313,0,0,1-.25-.541.363.363,0,0,1,.25-.083h1.144c.083,0,.125-.021.083-.1a.282.282,0,0,1,.146-.374.3.3,0,0,1,.4.083c.166.166.333.312.478.478a.316.316,0,0,1,0,.478c-.166.166-.333.354-.52.52a.313.313,0,0,1-.374.062A.391.391,0,0,1,61.577,57.562Z" transform="translate(-41.676 -32.465)" fill="#e2211d"/>
    <path id="Caminho_312" data-name="Caminho 312" d="M52.171,42.711a.764.764,0,0,0-.811-.811H47.47a.743.743,0,0,0-.77.77v1.019a.754.754,0,0,0,.811.811h3.848a.759.759,0,0,0,.811-.79C52.191,43.4,52.171,43.044,52.171,42.711Zm-.853,1.165H47.574c-.166,0-.25-.042-.229-.229.021-.291,0-.6,0-.894,0-.146.042-.208.208-.208h3.807c.146,0,.187.062.187.208v.894C51.547,43.814,51.484,43.876,51.318,43.876Z" transform="translate(-31.125 -21.067)" fill="#e2211d"/>
    <path id="Caminho_313" data-name="Caminho 313" d="M89.02,26.8a.3.3,0,0,1,0,.437c-.229.25-.478.5-.728.728a.267.267,0,0,1-.208.083.363.363,0,0,1-.25-.083,3.841,3.841,0,0,1-.291-.291.3.3,0,0,1,0-.437.3.3,0,0,1,.416-.042c.1.1.146.062.229-.021.125-.125.25-.27.4-.4A.3.3,0,0,1,89.02,26.8Z" transform="translate(-63.399 -9.026)" fill="#e2211d"/>
    <path id="Caminho_314" data-name="Caminho 314" d="M84.351,21.1A1.862,1.862,0,1,0,86.2,22.95,1.829,1.829,0,0,0,84.351,21.1Zm0,3.079a1.243,1.243,0,0,1-1.227-1.227,1.225,1.225,0,0,1,1.227-1.206,1.217,1.217,0,0,1,0,2.434Z" transform="translate(-59.479 -4.592)" fill="#e2211d"/>
    <path id="Caminho_315" data-name="Caminho 315" d="M79.375,41.394c-.083-.166-.229-.187-.4-.187h-2.7c-.125,0-.146-.062-.146-.166s-.021-.187.146-.187c.333.021.686,0,1.019,0h.936a.759.759,0,0,0,.811-.624c.1-.437.187-.853.27-1.29a.539.539,0,0,0-.582-.707h-2.6c-.187,0-.416.062-.541-.042-.1-.083-.1-.312-.146-.5a.339.339,0,0,0-.354-.291H73.946c-.229,0-.374.125-.354.312,0,.187.146.312.374.312h.79c.1,0,.166.021.187.146.042.25.125.478.187.728a7.683,7.683,0,0,1,.416,2.371.125.125,0,0,0,.021.083.364.364,0,0,1-.042.354.789.789,0,0,0-.042.686.856.856,0,0,0,1,.562.9.9,0,0,0,.728-.978c0-.042-.062-.125.021-.146a.788.788,0,0,1,.312,0c.083.021.021.1,0,.146a.84.84,0,0,0,.437.853.813.813,0,0,0,.957-.042.88.88,0,0,0,.374-.874c0-.062-.062-.125.021-.166A.336.336,0,0,0,79.375,41.394Zm-3.536-2.538h2.829q-.125.624-.25,1.186c-.021.125-.083.166-.208.166H76.172c-.1,0-.125-.042-.146-.125-.083-.374-.187-.749-.27-1.1C75.735,38.9,75.735,38.856,75.839,38.856Zm.437,3.495a.25.25,0,0,1,0-.5.224.224,0,0,1,.25.229C76.5,42.247,76.421,42.351,76.276,42.351Zm2.1,0a.24.24,0,0,1-.25-.25.253.253,0,0,1,.25-.25.258.258,0,0,1,.25.27A.236.236,0,0,1,78.377,42.351Z" transform="translate(-52.422 -17.503)" fill="#e2211d"/>
    <path id="Caminho_316" data-name="Caminho 316" d="M29.558,28.134a2.819,2.819,0,0,1-.208.437,1.2,1.2,0,0,1-1.019.5H21.945c-.187,0-.229.042-.229.229.021.77,0,1.539,0,2.309,0,.146.021.208.187.187a5.058,5.058,0,0,1,.562,0,.752.752,0,0,1,.749.707,3.556,3.556,0,0,1,0,.666.723.723,0,0,1-.79.707H12.376a.614.614,0,0,1-.27-.042.337.337,0,0,1-.146-.354.314.314,0,0,1,.312-.25h.6c.083,0,.125-.021.125-.1l.25-3.058c.021-.125,0-.187-.146-.187a2.016,2.016,0,0,1-2-2.08V26.7c0-.27.125-.416.333-.416s.312.146.312.4V27.8a1.413,1.413,0,0,0,1.373,1.435c.146,0,.208-.021.229-.208.042-.686.1-1.394.166-2.08.042-.541.291-.77.853-.77h1.061c.083,0,.187.042.166-.1-.021-.125.083-.312-.146-.354H10.587c-.208,0-.291.042-.312.27-.166,2.267-.354,4.535-.52,6.8-.042.5-.062.416.4.416h.562a.317.317,0,0,1,.333.333c0,.187-.125.291-.333.312H9.88a.726.726,0,0,1-.77-.79c.042-.686.1-1.373.146-2.059.042-.6.083-1.206.146-1.81.021-.125-.021-.146-.146-.146a1.838,1.838,0,0,1-.582-.042,1.174,1.174,0,0,1-.874-1.1V23.62a.329.329,0,0,1,.333-.374c.187,0,.312.146.312.374v2.309c0,.208.062.229.229.229a5.282,5.282,0,0,1,.811,0c.125,0,.187-.021.187-.166a.576.576,0,0,1,.021-.187.773.773,0,0,1,.79-.77h3.224c.166,0,.229-.042.229-.208V16.111c0-.166-.042-.208-.208-.208H9.09c-.437,0-.624.187-.624.624v5.491a.313.313,0,0,1-.312.27A.289.289,0,0,1,7.842,22V16.61a1.166,1.166,0,0,1,1.29-1.269h7.405a.3.3,0,0,1,.27.333.316.316,0,0,1-.354.291H14.976c-.374,0-.374,0-.374.374v8.508c0,.208.062.27.25.25a5.831,5.831,0,0,1,.6,0,.761.761,0,0,1,.853.749c.042.354.042.354.416.354H28.767c.208,0,.25-.062.25-.25V16.631c0-.5-.187-.686-.666-.686H18.034a.322.322,0,0,1-.354-.333.318.318,0,0,1,.354-.312H28.143a1.208,1.208,0,0,1,1.394.978c-.1,0-.1-.1-.125-.166a1.1,1.1,0,0,0-1.082-.749H18.138c-.27,0-.374.062-.374.229s.125.27.374.27H28.393a.622.622,0,0,1,.562.562,1.176,1.176,0,0,1,0,.27v9.048c0,.478-.021.478-.5.478h-11.9c-.333,0-.354-.021-.4-.354-.062-.541-.291-.749-.832-.749h-.582c-.229,0-.27-.062-.291-.291V16.319c0-.458.021-.478.478-.478h1.248a.661.661,0,0,0,.291-.042.212.212,0,0,0,.125-.25.221.221,0,0,0-.187-.187.853.853,0,0,0-.229-.021H9.006a1.1,1.1,0,0,0-1.186,1.206v5.367c.021.187.1.291.25.291s.229-.1.25-.291V16.444a.644.644,0,0,1,.582-.582h4.68c.312,0,.354.042.354.354v8.653q-.031.25-.25.25H10.5a.712.712,0,0,0-.811.728c-.021.312-.083.374-.416.374H8.632c-.27,0-.312-.062-.312-.312v-2.1a1.186,1.186,0,0,0-.021-.27.23.23,0,0,0-.458,0v.312c0,1.31.021,2.642,0,3.952a1.158,1.158,0,0,0,1.206,1.206h.146c.229.021.291.083.27.312-.083.957-.146,1.934-.229,2.891-.021.291-.062.582-.062.894a.68.68,0,0,0,.666.707c.27.021.52,0,.79,0,.187,0,.291-.083.312-.229,0-.146-.1-.25-.291-.27a5.835,5.835,0,0,0-.6,0c-.312,0-.374-.083-.374-.374.021-.416.062-.853.1-1.269.062-.853.125-1.685.187-2.538L10.15,26.7c.021-.229.021-.458.062-.707.042-.229.083-.27.312-.291h4.867c.187.021.27.125.25.354,0,.187-.062.229-.27.25H14.352a.669.669,0,0,0-.77.686c-.042.541-.1,1.1-.146,1.643a2.561,2.561,0,0,1-.042.416.246.246,0,0,1-.27.25,1.445,1.445,0,0,1-1.435-1.186,7.8,7.8,0,0,1-.042-1.206,1.574,1.574,0,0,0-.021-.312.221.221,0,0,0-.187-.208.214.214,0,0,0-.25.146.576.576,0,0,0-.062.27,9.69,9.69,0,0,0,.042,1.352A1.987,1.987,0,0,0,12.917,29.8c.354.021.416.062.374.416-.083.915-.146,1.851-.25,2.767-.021.27-.062.291-.333.312h-.4c-.166.021-.291.125-.27.27.021.166.125.208.291.229h10.13a.666.666,0,0,0,.624-.562,1.817,1.817,0,0,0,0-.749.686.686,0,0,0-.707-.624,4,4,0,0,0-.5,0,.221.221,0,0,1-.25-.25v-2.35a.221.221,0,0,1,.25-.25h6.261a1.189,1.189,0,0,0,1.248-.77C29.454,28.2,29.474,28.134,29.558,28.134Z" transform="translate(-0.317)" fill="#e2211d"/>
    <path id="Caminho_317" data-name="Caminho 317" d="M44.048,88.387a1.235,1.235,0,0,1-1.227.645,1.291,1.291,0,0,1-1.082-.832,1.252,1.252,0,0,1,1.976-1.373c.229.187.25.354.062.562-.187.229-.4.458-.6.666-.146.166-.333.187-.458.042a.316.316,0,0,1,0-.478,3.378,3.378,0,0,1,.374-.416.576.576,0,0,0-.707.354.611.611,0,0,0,.25.77.63.63,0,0,0,.79-.1,1.161,1.161,0,0,0,.1-.166.3.3,0,0,1,.437-.1A.3.3,0,0,1,44.048,88.387Z" transform="translate(-27.142 -56.426)" fill="#e2211d"/>
    <path id="Caminho_318" data-name="Caminho 318" d="M41,73.745v-.312a.3.3,0,0,1,.312-.333.328.328,0,0,1,.333.333v.541a.711.711,0,0,0,.728.728.741.741,0,0,0,.749-.728v-.5a.334.334,0,0,1,.333-.354c.187,0,.312.125.312.354a3.53,3.53,0,0,1-.021.811,1.361,1.361,0,0,1-1.518,1.061,1.338,1.338,0,0,1-1.186-1.352A.571.571,0,0,1,41,73.745Z" transform="translate(-26.611 -45.777)" fill="#e2211d"/>
    <path id="Caminho_319" data-name="Caminho 319" d="M27.826,15.4H17.717c-.229,0-.354.125-.354.312a.322.322,0,0,0,.354.333H27.91c.5,0,.666.187.666.686V26.05c0,.187-.042.25-.25.25H16.282c-.374,0-.374,0-.416-.354a.761.761,0,0,0-.853-.749,5.836,5.836,0,0,0-.6,0c-.208.021-.25-.042-.25-.25V16.44c0-.374,0-.374.374-.374h1.477a.328.328,0,0,0,.354-.291.3.3,0,0,0-.27-.333.566.566,0,0,0-.187,0H8.731a1.176,1.176,0,0,0-1.29,1.269v5.429a.3.3,0,0,0,.312.291.313.313,0,0,0,.312-.27.565.565,0,0,0,0-.187v-5.3c0-.437.187-.624.624-.624h4.639c.166,0,.208.042.208.208v8.716c0,.187-.042.229-.229.208H10.083a.748.748,0,0,0-.79.77c0,.062-.021.125-.021.187,0,.125-.062.166-.187.166a5.281,5.281,0,0,0-.811,0c-.187,0-.25-.021-.229-.229.021-.77,0-1.539,0-2.309,0-.229-.125-.374-.312-.374a.34.34,0,0,0-.333.374v4.285a1.15,1.15,0,0,0,.874,1.1,1.838,1.838,0,0,0,.582.042c.125,0,.166.021.146.146-.062.6-.1,1.206-.146,1.81-.062.686-.1,1.373-.146,2.059a.716.716,0,0,0,.77.79h.832a.3.3,0,0,0,.333-.312.317.317,0,0,0-.333-.333H9.75c-.458,0-.437.083-.4-.416.166-2.267.354-4.535.52-6.8.021-.229.1-.27.312-.27h4.867c.229.042.125.229.146.354.042.146-.083.1-.166.1H13.973a.745.745,0,0,0-.853.77c-.062.686-.125,1.373-.166,2.08-.021.187-.083.208-.229.208a1.4,1.4,0,0,1-1.373-1.435V26.82c0-.27-.1-.4-.312-.4s-.333.146-.333.416v1.1a2.016,2.016,0,0,0,2,2.08c.166,0,.166.062.146.187l-.25,3.058c0,.1-.042.1-.125.1h-.6a.3.3,0,0,0-.312.25.308.308,0,0,0,.146.354c.083.062.166.042.27.042H22a.723.723,0,0,0,.79-.707,3.556,3.556,0,0,0,0-.666.752.752,0,0,0-.749-.707,5.059,5.059,0,0,0-.562,0c-.146.021-.187-.042-.187-.187,0-.77.021-1.539,0-2.309,0-.187.042-.229.229-.229H27.91a1.2,1.2,0,0,0,1.019-.5,2.819,2.819,0,0,0,.208-.437v-11.9C28.97,15.629,28.638,15.4,27.826,15.4ZM22.252,32.748c0,.582,0,.582-.562.582H19.007c-.146,0-.208-.021-.187-.187a3.4,3.4,0,0,0-.042-.458c-.021-.125.021-.166.166-.166h3.079C22.169,32.5,22.252,32.561,22.252,32.748Zm-8.924.354c.146-1.726.312-3.453.458-5.159l.062-.811c0-.146.042-.208.208-.208h3.411c.146,0,.187.042.208.187.166,1.976.333,3.931.5,5.907.021.291.021.291-.27.291H13.536C13.349,33.33,13.307,33.268,13.328,33.1Zm6.386-3.786c0-.1.021-.166.146-.166h.77c.125,0,.146.042.146.146v2.392c0,.125-.021.187-.166.187H18.882c-.146,0-.166-.042-.187-.187-.042-.312-.021-.5.333-.645a1.15,1.15,0,0,0,.686-1.1Q19.714,29.628,19.714,29.316Zm-.894,1.123c-.062.042-.125.125-.187.1s-.042-.125-.042-.187c-.042-.354-.062-.728-.1-1.082,0-.083.021-.125.1-.125.5-.042.5-.042.5.541A.873.873,0,0,1,18.82,30.439ZM18.57,28.5c-.125,0-.166-.042-.187-.166-.021-.416-.062-.832-.1-1.248-.021-.166.042-.187.187-.187h9.922c.166,0,.208.042.187.187-.021.27,0,.541,0,.811a.526.526,0,0,1-.582.582C24.873,28.5,21.732,28.5,18.57,28.5Zm-9.964,0a.528.528,0,0,1-.52-.52v-.478h0v-.458c0-.1.042-.125.125-.125h.915c.1,0,.125.021.1.125-.042.437-.083.894-.1,1.331,0,.125-.062.146-.166.125Z" transform="translate(0 -0.079)" fill="#e2211d"/>
    <path id="Caminho_320" data-name="Caminho 320" d="M79.375,41.394c-.083-.166-.229-.187-.4-.187h-2.7c-.125,0-.146-.062-.146-.166s-.021-.187.146-.187c.333.021.686,0,1.019,0h.936a.759.759,0,0,0,.811-.624c.1-.437.187-.853.27-1.29a.539.539,0,0,0-.582-.707h-2.6c-.187,0-.416.062-.541-.042-.1-.083-.1-.312-.146-.5a.339.339,0,0,0-.354-.291H73.946c-.229,0-.374.125-.354.312,0,.187.146.312.374.312h.79c.1,0,.166.021.187.146.042.25.125.478.187.728a7.683,7.683,0,0,1,.416,2.371.125.125,0,0,0,.021.083.364.364,0,0,1-.042.354.789.789,0,0,0-.042.686.856.856,0,0,0,1,.562.9.9,0,0,0,.728-.978c0-.042-.062-.125.021-.146a.788.788,0,0,1,.312,0c.083.021.021.1,0,.146a.84.84,0,0,0,.437.853.813.813,0,0,0,.957-.042.88.88,0,0,0,.374-.874c0-.062-.062-.125.021-.166A.336.336,0,0,0,79.375,41.394Zm-3.536-2.538h2.829q-.125.624-.25,1.186c-.021.125-.083.166-.208.166H76.172c-.1,0-.125-.042-.146-.125-.083-.374-.187-.749-.27-1.1C75.735,38.9,75.735,38.856,75.839,38.856Zm.437,3.495a.25.25,0,0,1,0-.5.224.224,0,0,1,.25.229C76.5,42.247,76.421,42.351,76.276,42.351Zm2.1,0a.24.24,0,0,1-.25-.25.253.253,0,0,1,.25-.25.258.258,0,0,1,.25.27A.236.236,0,0,1,78.377,42.351Z" transform="translate(-52.422 -17.503)" fill="#e2211d"/>
    <path id="Caminho_321" data-name="Caminho 321" d="M52.171,42.711a.764.764,0,0,0-.811-.811H47.47a.743.743,0,0,0-.77.77v1.019a.754.754,0,0,0,.811.811h3.848a.759.759,0,0,0,.811-.79C52.191,43.4,52.171,43.044,52.171,42.711Zm-.853,1.165H47.574c-.166,0-.25-.042-.229-.229.021-.291,0-.6,0-.894,0-.146.042-.208.208-.208h3.807c.146,0,.187.062.187.208v.894C51.547,43.814,51.484,43.876,51.318,43.876Z" transform="translate(-31.125 -21.067)" fill="#e2211d"/>
    <path id="Caminho_322" data-name="Caminho 322" d="M89.02,26.8a.3.3,0,0,1,0,.437c-.229.25-.478.5-.728.728a.267.267,0,0,1-.208.083.363.363,0,0,1-.25-.083,3.841,3.841,0,0,1-.291-.291.3.3,0,0,1,0-.437.3.3,0,0,1,.416-.042c.1.1.146.062.229-.021.125-.125.25-.27.4-.4A.3.3,0,0,1,89.02,26.8Z" transform="translate(-63.399 -9.026)" fill="#e2211d"/>
    <path id="Caminho_323" data-name="Caminho 323" d="M84.351,21.1A1.862,1.862,0,1,0,86.2,22.95,1.829,1.829,0,0,0,84.351,21.1Zm0,3.079a1.243,1.243,0,0,1-1.227-1.227,1.225,1.225,0,0,1,1.227-1.206,1.217,1.217,0,0,1,0,2.434Z" transform="translate(-59.479 -4.592)" fill="#e2211d"/>
    <path id="Caminho_324" data-name="Caminho 324" d="M19.891,26.591a1.352,1.352,0,0,1-1.872.437,1.326,1.326,0,1,1,1.56-2.142c.25.187.25.354.042.6-.208.229-.4.458-.6.686-.166.166-.333.208-.478.083a.338.338,0,0,1,0-.5c.062-.083.125-.146.187-.229s.125-.146.208-.25a.7.7,0,0,0-.874.437.683.683,0,0,0,.354.832.67.67,0,0,0,.894-.291c.146-.208.312-.27.478-.166C19.995,26.2,20.016,26.383,19.891,26.591Z" transform="translate(-7.935 -7.359)" fill="#e2211d"/>
    <path id="Caminho_325" data-name="Caminho 325" d="M51.21,33.6c0,.187-.146.312-.4.312H47.2c-.25,0-.4-.1-.4-.312s.146-.312.4-.312h3.619C51.064,33.271,51.21,33.4,51.21,33.6Z" transform="translate(-31.204 -14.247)" fill="#e2211d"/>
    <path id="Caminho_326" data-name="Caminho 326" d="M51.289,28.712a.329.329,0,0,1-.374.333h-3.64c-.25,0-.374-.125-.374-.333,0-.187.125-.312.374-.312h3.64Q51.258,28.431,51.289,28.712Z" transform="translate(-31.284 -10.375)" fill="#e2211d"/>
    <path id="Caminho_327" data-name="Caminho 327" d="M62.538,57.334c-.166.166-.333.354-.52.52a.313.313,0,0,1-.374.062.3.3,0,0,1-.166-.354c.042-.146-.042-.125-.125-.125H60.271a.313.313,0,0,1-.25-.541.363.363,0,0,1,.25-.083h1.144c.083,0,.125-.021.083-.1a.282.282,0,0,1,.146-.374.3.3,0,0,1,.4.083c.166.166.333.312.478.478A.263.263,0,0,1,62.538,57.334Z" transform="translate(-41.597 -32.465)" fill="#e2211d"/>
    <path id="Caminho_328" data-name="Caminho 328" d="M19.124,42.8c0,.187-.146.312-.374.312H16.3c-.25,0-.4-.125-.4-.312,0-.208.146-.312.4-.312H18.75A.306.306,0,0,1,19.124,42.8Z" transform="translate(-6.732 -21.534)" fill="#e2211d"/>
    <path id="Caminho_329" data-name="Caminho 329" d="M19.124,48.581a.34.34,0,0,1-.374.333H16.274c-.229,0-.374-.125-.374-.312s.146-.312.374-.312H18.75A.3.3,0,0,1,19.124,48.581Z" transform="translate(-6.732 -26.126)" fill="#e2211d"/>
    <path id="Caminho_330" data-name="Caminho 330" d="M19.124,54.3c0,.187-.146.312-.374.312H16.274c-.229,0-.374-.125-.374-.312s.146-.312.374-.312H18.75A.315.315,0,0,1,19.124,54.3Z" transform="translate(-6.732 -30.643)" fill="#e2211d"/>
    <path id="Caminho_331" data-name="Caminho 331" d="M48.335,22.753a.289.289,0,0,1-.291.312,3.061,3.061,0,0,1-.437,0h-.416c-.187-.021-.291-.1-.291-.291a.292.292,0,0,1,.27-.333,7.029,7.029,0,0,1,.936,0A.268.268,0,0,1,48.335,22.753Z" transform="translate(-31.284 -5.643)" fill="#e2211d"/>
    <path id="Caminho_332" data-name="Caminho 332" d="M44.048,88.387a1.235,1.235,0,0,1-1.227.645,1.291,1.291,0,0,1-1.082-.832,1.252,1.252,0,0,1,1.976-1.373c.229.187.25.354.062.562-.187.229-.4.458-.6.666-.146.166-.333.187-.458.042a.316.316,0,0,1,0-.478,3.378,3.378,0,0,1,.374-.416.576.576,0,0,0-.707.354.611.611,0,0,0,.25.77.63.63,0,0,0,.79-.1,1.161,1.161,0,0,0,.1-.166.3.3,0,0,1,.437-.1A.3.3,0,0,1,44.048,88.387Z" transform="translate(-27.142 -56.426)" fill="#e2211d"/>
    <path id="Caminho_333" data-name="Caminho 333" d="M43.7,74.244A1.361,1.361,0,0,1,42.186,75.3,1.338,1.338,0,0,1,41,73.953v-.52a.3.3,0,0,1,.312-.333.328.328,0,0,1,.333.333v.541a.711.711,0,0,0,.728.728.741.741,0,0,0,.749-.728v-.5a.334.334,0,0,1,.333-.354c.187,0,.312.125.312.354C43.725,73.724,43.766,73.994,43.7,74.244Z" transform="translate(-26.611 -45.777)" fill="#e2211d"/>
    <path id="Caminho_334" data-name="Caminho 334" d="M89.02,27.238c-.229.25-.478.5-.728.728a.267.267,0,0,1-.208.083.363.363,0,0,1-.25-.083,3.842,3.842,0,0,1-.291-.291.3.3,0,0,1,0-.437.3.3,0,0,1,.416-.042c.1.1.146.062.229-.021.125-.125.25-.27.4-.4a.3.3,0,0,1,.437.021A.321.321,0,0,1,89.02,27.238Z" transform="translate(-63.399 -9.026)" fill="#e2211d"/>
    <path id="Caminho_335" data-name="Caminho 335" d="M44.048,88.387a1.235,1.235,0,0,1-1.227.645,1.291,1.291,0,0,1-1.082-.832,1.252,1.252,0,0,1,1.976-1.373c.229.187.25.354.062.562-.187.229-.4.458-.6.666-.146.166-.333.187-.458.042a.316.316,0,0,1,0-.478,3.378,3.378,0,0,1,.374-.416.576.576,0,0,0-.707.354.611.611,0,0,0,.25.77.63.63,0,0,0,.79-.1,1.161,1.161,0,0,0,.1-.166.3.3,0,0,1,.437-.1A.3.3,0,0,1,44.048,88.387Z" transform="translate(-27.142 -56.426)" fill="#e2211d"/>
    <path id="Caminho_336" data-name="Caminho 336" d="M43.7,74.244A1.361,1.361,0,0,1,42.186,75.3,1.338,1.338,0,0,1,41,73.953v-.52a.3.3,0,0,1,.312-.333.328.328,0,0,1,.333.333v.541a.711.711,0,0,0,.728.728.741.741,0,0,0,.749-.728v-.5a.334.334,0,0,1,.333-.354c.187,0,.312.125.312.354C43.725,73.724,43.766,73.994,43.7,74.244Z" transform="translate(-26.611 -45.777)" fill="#e2211d"/>
    <path id="Caminho_337" data-name="Caminho 337" d="M89.02,27.238c-.229.25-.478.5-.728.728a.267.267,0,0,1-.208.083.363.363,0,0,1-.25-.083,3.842,3.842,0,0,1-.291-.291.3.3,0,0,1,0-.437.3.3,0,0,1,.416-.042c.1.1.146.062.229-.021.125-.125.25-.27.4-.4a.3.3,0,0,1,.437.021A.321.321,0,0,1,89.02,27.238Z" transform="translate(-63.399 -9.026)" fill="#e2211d"/>
  </g>
</svg>
