<svg width="102" height="126" viewBox="0 0 102 126" fill="none" xmlns="http://www.w3.org/2000/svg">
<circle cx="51" cy="51" r="51" fill="white"/>
<path d="M16.252 123V113.047H19.5059C20.5859 113.047 21.3971 113.27 21.9395 113.717C22.4863 114.163 22.7598 114.824 22.7598 115.699C22.7598 116.164 22.6276 116.576 22.3633 116.937C22.099 117.292 21.7389 117.568 21.2832 117.764C21.821 117.914 22.2448 118.201 22.5547 118.625C22.8691 119.044 23.0264 119.546 23.0264 120.129C23.0264 121.022 22.737 121.724 22.1582 122.234C21.5794 122.745 20.7614 123 19.7041 123H16.252ZM17.5645 118.345V121.927H19.7314C20.3421 121.927 20.8229 121.77 21.1738 121.455C21.5293 121.136 21.707 120.699 21.707 120.143C21.707 118.944 21.0553 118.345 19.752 118.345H17.5645ZM17.5645 117.292H19.5469C20.1211 117.292 20.5791 117.148 20.9209 116.861C21.2673 116.574 21.4404 116.185 21.4404 115.692C21.4404 115.146 21.2809 114.749 20.9619 114.503C20.6429 114.252 20.1576 114.127 19.5059 114.127H17.5645V117.292ZM28.3516 116.738C28.1602 116.706 27.9528 116.69 27.7295 116.69C26.9001 116.69 26.3372 117.044 26.041 117.75V123H24.7764V115.604H26.0068L26.0273 116.458C26.4421 115.797 27.0299 115.467 27.791 115.467C28.0371 115.467 28.224 115.499 28.3516 115.562V116.738ZM30.8945 123H29.6299V115.604H30.8945V123ZM29.5273 113.642C29.5273 113.437 29.5889 113.263 29.7119 113.122C29.8395 112.981 30.0264 112.91 30.2725 112.91C30.5186 112.91 30.7054 112.981 30.833 113.122C30.9606 113.263 31.0244 113.437 31.0244 113.642C31.0244 113.847 30.9606 114.018 30.833 114.154C30.7054 114.291 30.5186 114.359 30.2725 114.359C30.0264 114.359 29.8395 114.291 29.7119 114.154C29.5889 114.018 29.5273 113.847 29.5273 113.642ZM34.1211 115.604L34.1621 116.533C34.7272 115.822 35.4655 115.467 36.377 115.467C37.9401 115.467 38.7285 116.349 38.7422 118.112V123H37.4775V118.105C37.473 117.572 37.3499 117.178 37.1084 116.923C36.8714 116.668 36.5 116.54 35.9941 116.54C35.584 116.54 35.224 116.649 34.9141 116.868C34.6042 117.087 34.3626 117.374 34.1895 117.729V123H32.9248V115.604H34.1211ZM40.3418 119.24C40.3418 118.078 40.6084 117.16 41.1416 116.485C41.6748 115.806 42.3903 115.467 43.2881 115.467C44.1631 115.467 44.8535 115.761 45.3594 116.349L45.4141 115.604H46.5762V125.844H45.3115V122.316C44.8011 122.863 44.1221 123.137 43.2744 123.137C42.3812 123.137 41.668 122.79 41.1348 122.098C40.6061 121.4 40.3418 120.478 40.3418 119.329V119.24ZM41.6064 119.384C41.6064 120.231 41.7842 120.897 42.1396 121.38C42.4997 121.863 42.9827 122.104 43.5889 122.104C44.3408 122.104 44.915 121.772 45.3115 121.106V117.483C44.9105 116.832 44.3408 116.506 43.6025 116.506C42.9919 116.506 42.5065 116.75 42.1465 117.237C41.7865 117.72 41.6064 118.436 41.6064 119.384ZM53.1729 122.269C52.6807 122.847 51.9583 123.137 51.0059 123.137C50.2174 123.137 49.6159 122.909 49.2012 122.453C48.791 121.993 48.5837 121.314 48.5791 120.416V115.604H49.8438V120.382C49.8438 121.503 50.2995 122.063 51.2109 122.063C52.1771 122.063 52.8197 121.703 53.1387 120.983V115.604H54.4033V123H53.2002L53.1729 122.269ZM59.4004 123.137C58.3978 123.137 57.582 122.809 56.9531 122.152C56.3242 121.492 56.0098 120.61 56.0098 119.507V119.274C56.0098 118.541 56.1488 117.887 56.4268 117.312C56.7093 116.734 57.1012 116.283 57.6025 115.959C58.1084 115.631 58.6553 115.467 59.2432 115.467C60.2048 115.467 60.9521 115.784 61.4854 116.417C62.0186 117.05 62.2852 117.957 62.2852 119.138V119.664H57.2744C57.2926 120.393 57.5046 120.983 57.9102 121.435C58.3203 121.881 58.8398 122.104 59.4688 122.104C59.9154 122.104 60.2936 122.013 60.6035 121.831C60.9134 121.649 61.1846 121.407 61.417 121.106L62.1895 121.708C61.5697 122.66 60.64 123.137 59.4004 123.137ZM59.2432 116.506C58.7327 116.506 58.3044 116.693 57.958 117.066C57.6117 117.436 57.3975 117.955 57.3154 118.625H61.0205V118.529C60.984 117.887 60.8109 117.39 60.501 117.039C60.1911 116.684 59.7718 116.506 59.2432 116.506ZM63.4473 119.24C63.4473 118.105 63.7161 117.194 64.2539 116.506C64.7917 115.813 65.4958 115.467 66.3662 115.467C67.2321 115.467 67.918 115.763 68.4238 116.355V112.5H69.6885V123H68.5264L68.4648 122.207C67.959 122.827 67.2549 123.137 66.3525 123.137C65.4958 123.137 64.7962 122.786 64.2539 122.084C63.7161 121.382 63.4473 120.466 63.4473 119.336V119.24ZM64.7119 119.384C64.7119 120.222 64.8851 120.879 65.2314 121.353C65.5778 121.826 66.0563 122.063 66.667 122.063C67.4691 122.063 68.0547 121.703 68.4238 120.983V117.586C68.0456 116.889 67.4645 116.54 66.6807 116.54C66.0609 116.54 65.5778 116.779 65.2314 117.258C64.8851 117.736 64.7119 118.445 64.7119 119.384ZM71.3223 119.233C71.3223 118.509 71.4635 117.857 71.7461 117.278C72.0332 116.7 72.4297 116.253 72.9355 115.938C73.446 115.624 74.027 115.467 74.6787 115.467C75.6859 115.467 76.4993 115.815 77.1191 116.513C77.7435 117.21 78.0557 118.137 78.0557 119.295V119.384C78.0557 120.104 77.9167 120.751 77.6387 121.325C77.3652 121.895 76.971 122.339 76.4561 122.658C75.9456 122.977 75.3577 123.137 74.6924 123.137C73.6898 123.137 72.8763 122.788 72.252 122.091C71.6322 121.394 71.3223 120.471 71.3223 119.322V119.233ZM72.5938 119.384C72.5938 120.204 72.7829 120.863 73.1611 121.359C73.5439 121.856 74.0544 122.104 74.6924 122.104C75.335 122.104 75.8454 121.854 76.2236 121.353C76.6019 120.847 76.791 120.14 76.791 119.233C76.791 118.422 76.5973 117.766 76.21 117.265C75.8271 116.759 75.3167 116.506 74.6787 116.506C74.0544 116.506 73.5508 116.754 73.168 117.251C72.7852 117.748 72.5938 118.459 72.5938 119.384ZM83.9482 121.038C83.9482 120.696 83.8184 120.432 83.5586 120.245C83.3034 120.054 82.8545 119.89 82.2119 119.753C81.5739 119.616 81.0658 119.452 80.6875 119.261C80.3138 119.069 80.0358 118.841 79.8535 118.577C79.6758 118.313 79.5869 117.998 79.5869 117.634C79.5869 117.028 79.8421 116.515 80.3525 116.096C80.8675 115.676 81.5238 115.467 82.3213 115.467C83.1598 115.467 83.8389 115.683 84.3584 116.116C84.8825 116.549 85.1445 117.103 85.1445 117.777H83.873C83.873 117.431 83.7249 117.132 83.4287 116.882C83.137 116.631 82.7679 116.506 82.3213 116.506C81.861 116.506 81.501 116.606 81.2412 116.807C80.9814 117.007 80.8516 117.269 80.8516 117.593C80.8516 117.898 80.9723 118.128 81.2139 118.283C81.4554 118.438 81.8906 118.586 82.5195 118.728C83.153 118.869 83.6657 119.037 84.0576 119.233C84.4495 119.429 84.7389 119.666 84.9258 119.944C85.1172 120.218 85.2129 120.553 85.2129 120.949C85.2129 121.61 84.9486 122.141 84.4199 122.542C83.8913 122.938 83.2054 123.137 82.3623 123.137C81.7699 123.137 81.2458 123.032 80.79 122.822C80.3343 122.613 79.9766 122.321 79.7168 121.947C79.4616 121.569 79.334 121.161 79.334 120.724H80.5986C80.6214 121.147 80.79 121.485 81.1045 121.735C81.4235 121.981 81.8428 122.104 82.3623 122.104C82.8408 122.104 83.2236 122.009 83.5107 121.817C83.8024 121.621 83.9482 121.362 83.9482 121.038Z" fill="white"/>
<path d="M52.9928 32.2098C52.8705 32.3321 52.7831 32.5769 52.7831 32.7867C52.7831 33.5209 53.0453 33.5733 56.3667 33.5733H59.5308L60.3699 34.4299L61.2264 35.2865L60.8593 35.8109C60.6495 36.0906 60.3699 36.4227 60.2125 36.5451C59.8279 36.8597 59.8804 37.2443 60.5621 39.0099C60.8943 39.884 61.174 40.6881 61.174 40.8105C61.174 40.9678 58.4994 41.3524 52.0838 42.1565L42.9936 43.2928V41.667V40.0413H45.1438C46.8045 40.0413 47.3814 39.9714 47.6786 39.7616C48.1506 39.447 48.1681 38.975 47.7485 38.5904C47.4688 38.3282 46.9094 38.2932 43.4482 38.2932C41.0358 38.2932 39.3401 38.3631 39.1303 38.468C38.9206 38.5904 38.7982 38.8351 38.7982 39.1673C38.7982 39.8141 39.2003 40.0413 40.354 40.0413H41.2455V42.0691V44.1144L40.2491 45.8101L39.2702 47.5057L38.2038 47.0337C35.5817 45.845 32.2428 45.6702 29.4458 46.5792C24.6385 48.1176 21.2821 52.4878 21.0199 57.5399C20.4955 67.137 30.4247 73.4826 39.0254 69.0249C41.1232 67.9411 43.0111 66.0182 44.0775 63.868C44.532 62.994 44.9865 61.8227 45.1089 61.2983L45.3186 60.3194H46.5073C47.6961 60.3194 47.6961 60.3194 47.9932 60.9312C48.6051 62.2423 50.1609 63.0814 51.5244 62.8366C52.7481 62.6094 53.4998 62.0325 54.0941 60.8613C54.4962 60.0397 54.3913 58.4139 53.8669 57.7147L53.4998 57.2077L57.8176 50.46C60.195 46.754 62.1879 43.7298 62.2403 43.7123C62.4676 43.7123 63.6738 47.1037 63.4815 47.1736C63.0619 47.3134 61.174 48.607 60.4747 49.2364C58.8665 50.7048 57.3806 53.3095 56.8736 55.5645C56.4366 57.5574 56.5939 60.3194 57.2757 62.2598C59.3035 68.1159 65.4044 71.5073 71.5577 70.1962C75.6658 69.3221 79.162 66.1231 80.5255 61.9801C80.9276 60.7739 80.9975 60.2844 80.9975 58.309C81.015 56.4036 80.9451 55.8267 80.6129 54.7254C78.7075 48.6245 72.5542 44.936 66.4183 46.2296C65.789 46.3695 65.2646 46.4569 65.2296 46.4219C65.1946 46.4044 64.3905 44.3417 63.4465 41.8593L61.6984 37.3492L62.4851 36.5451C63.6213 35.3913 63.5689 35.1466 61.8033 33.4335L60.3349 32H56.7687C54.234 32 53.1502 32.0525 52.9928 32.2098ZM60.6321 42.9606C60.6321 43.0481 58.7266 46.0548 56.4016 49.6559L52.1712 56.1938L51.1224 56.1764H50.0735L46.8045 50.5999C45.0215 47.5232 43.588 44.9885 43.623 44.9535C43.7279 44.8486 59.1112 42.8907 60.0027 42.8558C60.3524 42.8558 60.6495 42.8907 60.6321 42.9606ZM45.4235 51.5264C48.0632 56.0715 48.6051 57.1028 48.4303 57.3301C48.3254 57.4874 48.1156 57.872 47.9583 58.1867C47.6961 58.7636 47.6961 58.7636 46.6122 58.7111L45.5284 58.6587L45.4235 57.2602C45.3012 55.6694 44.9166 54.166 44.2698 52.8899C43.6055 51.5788 42.3993 49.9531 41.4903 49.149C41.0532 48.7644 40.7211 48.3798 40.7561 48.3099C40.9484 47.8204 42.0497 45.9849 42.1196 45.9849C42.172 45.9849 43.6579 48.4847 45.4235 51.5264ZM36.2984 48.1001C36.9452 48.3099 37.6969 48.5721 37.9591 48.7119L38.4311 48.9567L35.3894 54.166C32.505 59.0782 32.2428 59.6551 32.5749 60.1795C32.5749 60.197 35.0922 60.2669 38.1339 60.3194L43.6754 60.4068L43.2908 61.5605C42.207 64.7596 39.5149 67.3817 36.2634 68.4131C34.8475 68.8501 31.9281 68.9375 30.5821 68.553C29.0263 68.1159 27.2782 67.137 26.1244 66.0706C24.6735 64.7071 23.8169 63.396 23.1701 61.543C22.1387 58.6062 22.5757 55.1799 24.3238 52.4878C25.9321 50.0055 28.8689 48.135 31.8932 47.6631C32.8721 47.5232 35.1097 47.733 36.2984 48.1001ZM72.1521 48.1875C74.7218 49.0441 76.9419 50.8971 78.1656 53.257C79.1271 55.075 79.4242 56.2812 79.4068 58.309C79.4068 59.7775 79.3193 60.2844 78.8823 61.543C77.7286 64.8819 75.2987 67.2594 71.9248 68.3956C70.2467 68.955 67.5721 68.955 65.8065 68.3956C60.5971 66.7699 57.3456 61.3508 58.4469 56.1239C58.9014 53.9912 59.7755 52.4179 61.4187 50.7922C62.8696 49.3587 64.0409 48.5896 64.3031 48.8867C64.373 48.9741 65.2471 51.1593 66.2435 53.764C67.2224 56.3512 68.1489 58.6237 68.3063 58.781C68.6734 59.2181 69.1628 59.1656 69.4775 58.6761C69.7397 58.2916 69.6523 58.0119 67.8168 53.2395C66.7504 50.46 65.9463 48.135 66.0162 48.0651C66.2959 47.7854 68.0965 47.5757 69.4775 47.6631C70.2641 47.7155 71.4354 47.9428 72.1521 48.1875ZM41.0358 51.1418C42.714 52.9249 43.9901 56.0889 43.8327 58.0293L43.7803 58.6587L39.2527 58.7111C35.0048 58.7461 34.7426 58.7286 34.8475 58.4489C35.0747 57.8545 39.7247 50.0055 39.8471 50.0055C39.917 50.0055 40.4589 50.5125 41.0358 51.1418ZM52.1712 58.2916C53.325 59.4453 52.5558 61.2109 50.9126 61.1934C49.9511 61.1759 49.182 60.162 49.3568 59.1656C49.6015 57.9419 51.2972 57.4175 52.1712 58.2916Z" fill="#E2211D"/>
</svg>
