<svg width="102" height="126" viewBox="0 0 102 126" fill="none" xmlns="http://www.w3.org/2000/svg">
<path d="M9.15625 114.127H5.95703V123H4.65137V114.127H1.45898V113.047H9.15625V114.127ZM12.3828 121.284L14.2148 115.604H15.5068L12.8545 123H11.8906L9.21094 115.604H10.5029L12.3828 121.284ZM15.9443 124.982L15.2266 124.49C15.6549 123.893 15.8783 123.278 15.8965 122.645V121.503H17.1338V122.494C17.1338 122.954 17.0199 123.415 16.792 123.875C16.5687 124.335 16.2861 124.704 15.9443 124.982ZM25.6992 121.257L28.543 113.047H29.9785L26.2871 123H25.125L21.4404 113.047H22.8691L25.6992 121.257ZM32.4941 123H31.2227V115.604H32.4941V123ZM32.5078 112.507H34.0391L32.207 114.517H31.1885L32.5078 112.507ZM34.2715 119.24C34.2715 118.105 34.5404 117.194 35.0781 116.506C35.6159 115.813 36.32 115.467 37.1904 115.467C38.0563 115.467 38.7422 115.763 39.248 116.355V112.5H40.5127V123H39.3506L39.2891 122.207C38.7832 122.827 38.0791 123.137 37.1768 123.137C36.32 123.137 35.6204 122.786 35.0781 122.084C34.5404 121.382 34.2715 120.466 34.2715 119.336V119.24ZM35.5361 119.384C35.5361 120.222 35.7093 120.879 36.0557 121.353C36.402 121.826 36.8805 122.063 37.4912 122.063C38.2933 122.063 38.8789 121.703 39.248 120.983V117.586C38.8698 116.889 38.2887 116.54 37.5049 116.54C36.8851 116.54 36.402 116.779 36.0557 117.258C35.7093 117.736 35.5361 118.445 35.5361 119.384ZM45.5508 123.137C44.5482 123.137 43.7324 122.809 43.1035 122.152C42.4746 121.492 42.1602 120.61 42.1602 119.507V119.274C42.1602 118.541 42.2992 117.887 42.5771 117.312C42.8597 116.734 43.2516 116.283 43.7529 115.959C44.2588 115.631 44.8057 115.467 45.3936 115.467C46.3551 115.467 47.1025 115.784 47.6357 116.417C48.1689 117.05 48.4355 117.957 48.4355 119.138V119.664H43.4248C43.443 120.393 43.6549 120.983 44.0605 121.435C44.4707 121.881 44.9902 122.104 45.6191 122.104C46.0658 122.104 46.444 122.013 46.7539 121.831C47.0638 121.649 47.335 121.407 47.5674 121.106L48.3398 121.708C47.7201 122.66 46.7904 123.137 45.5508 123.137ZM45.3936 116.506C44.8831 116.506 44.4548 116.693 44.1084 117.066C43.762 117.436 43.5479 117.955 43.4658 118.625H47.1709V118.529C47.1344 117.887 46.9613 117.39 46.6514 117.039C46.3415 116.684 45.9222 116.506 45.3936 116.506ZM49.5703 119.233C49.5703 118.509 49.7116 117.857 49.9941 117.278C50.2812 116.7 50.6777 116.253 51.1836 115.938C51.694 115.624 52.2751 115.467 52.9268 115.467C53.9339 115.467 54.7474 115.815 55.3672 116.513C55.9915 117.21 56.3037 118.137 56.3037 119.295V119.384C56.3037 120.104 56.1647 120.751 55.8867 121.325C55.6133 121.895 55.2191 122.339 54.7041 122.658C54.1937 122.977 53.6058 123.137 52.9404 123.137C51.9378 123.137 51.1243 122.788 50.5 122.091C49.8802 121.394 49.5703 120.471 49.5703 119.322V119.233ZM50.8418 119.384C50.8418 120.204 51.0309 120.863 51.4092 121.359C51.792 121.856 52.3024 122.104 52.9404 122.104C53.583 122.104 54.0934 121.854 54.4717 121.353C54.8499 120.847 55.0391 120.14 55.0391 119.233C55.0391 118.422 54.8454 117.766 54.458 117.265C54.0752 116.759 53.5648 116.506 52.9268 116.506C52.3024 116.506 51.7988 116.754 51.416 117.251C51.0332 117.748 50.8418 118.459 50.8418 119.384ZM64.4316 123.137C63.429 123.137 62.6133 122.809 61.9844 122.152C61.3555 121.492 61.041 120.61 61.041 119.507V119.274C61.041 118.541 61.18 117.887 61.458 117.312C61.7406 116.734 62.1325 116.283 62.6338 115.959C63.1396 115.631 63.6865 115.467 64.2744 115.467C65.236 115.467 65.9834 115.784 66.5166 116.417C67.0498 117.05 67.3164 117.957 67.3164 119.138V119.664H62.3057C62.3239 120.393 62.5358 120.983 62.9414 121.435C63.3516 121.881 63.8711 122.104 64.5 122.104C64.9466 122.104 65.3249 122.013 65.6348 121.831C65.9447 121.649 66.2158 121.407 66.4482 121.106L67.2207 121.708C66.6009 122.66 65.6712 123.137 64.4316 123.137ZM64.2744 116.506C63.764 116.506 63.3356 116.693 62.9893 117.066C62.6429 117.436 62.4287 117.955 62.3467 118.625H66.0518V118.529C66.0153 117.887 65.8421 117.39 65.5322 117.039C65.2223 116.684 64.8031 116.506 64.2744 116.506ZM75.3896 118.563C74.264 118.24 73.4437 117.843 72.9287 117.374C72.4183 116.9 72.1631 116.317 72.1631 115.624C72.1631 114.84 72.4753 114.193 73.0996 113.683C73.7285 113.168 74.5443 112.91 75.5469 112.91C76.2305 112.91 76.8389 113.042 77.3721 113.307C77.9098 113.571 78.3245 113.936 78.6162 114.4C78.9124 114.865 79.0605 115.373 79.0605 115.925H77.7412C77.7412 115.323 77.5498 114.852 77.167 114.51C76.7842 114.163 76.2441 113.99 75.5469 113.99C74.8997 113.99 74.3939 114.134 74.0293 114.421C73.6693 114.703 73.4893 115.098 73.4893 115.604C73.4893 116.009 73.6602 116.353 74.002 116.636C74.3483 116.914 74.9339 117.169 75.7588 117.401C76.5882 117.634 77.2354 117.891 77.7002 118.174C78.1696 118.452 78.516 118.778 78.7393 119.151C78.9671 119.525 79.0811 119.965 79.0811 120.471C79.0811 121.277 78.7666 121.924 78.1377 122.412C77.5088 122.895 76.668 123.137 75.6152 123.137C74.9316 123.137 74.2936 123.007 73.7012 122.747C73.1087 122.483 72.6507 122.123 72.3271 121.667C72.0081 121.211 71.8486 120.694 71.8486 120.115H73.168C73.168 120.717 73.389 121.193 73.8311 121.544C74.2777 121.89 74.8724 122.063 75.6152 122.063C76.3079 122.063 76.8389 121.922 77.208 121.64C77.5771 121.357 77.7617 120.972 77.7617 120.484C77.7617 119.997 77.5908 119.621 77.249 119.356C76.9072 119.088 76.2874 118.823 75.3896 118.563ZM80.2363 119.233C80.2363 118.509 80.3776 117.857 80.6602 117.278C80.9473 116.7 81.3438 116.253 81.8496 115.938C82.36 115.624 82.9411 115.467 83.5928 115.467C84.5999 115.467 85.4134 115.815 86.0332 116.513C86.6576 117.21 86.9697 118.137 86.9697 119.295V119.384C86.9697 120.104 86.8307 120.751 86.5527 121.325C86.2793 121.895 85.8851 122.339 85.3701 122.658C84.8597 122.977 84.2718 123.137 83.6064 123.137C82.6038 123.137 81.7904 122.788 81.166 122.091C80.5462 121.394 80.2363 120.471 80.2363 119.322V119.233ZM81.5078 119.384C81.5078 120.204 81.6969 120.863 82.0752 121.359C82.458 121.856 82.9684 122.104 83.6064 122.104C84.249 122.104 84.7594 121.854 85.1377 121.353C85.516 120.847 85.7051 120.14 85.7051 119.233C85.7051 118.422 85.5114 117.766 85.124 117.265C84.7412 116.759 84.2308 116.506 83.5928 116.506C82.9684 116.506 82.4648 116.754 82.082 117.251C81.6992 117.748 81.5078 118.459 81.5078 119.384ZM89.7451 115.604L89.7793 116.424C90.3216 115.786 91.0531 115.467 91.9736 115.467C93.0081 115.467 93.7122 115.863 94.0859 116.656C94.332 116.301 94.651 116.014 95.043 115.795C95.4395 115.576 95.9066 115.467 96.4443 115.467C98.0667 115.467 98.8916 116.326 98.9189 118.044V123H97.6543V118.119C97.6543 117.59 97.5335 117.196 97.292 116.937C97.0505 116.672 96.6449 116.54 96.0752 116.54C95.6058 116.54 95.2161 116.681 94.9062 116.964C94.5964 117.242 94.4163 117.618 94.3662 118.092V123H93.0947V118.153C93.0947 117.078 92.5684 116.54 91.5156 116.54C90.6862 116.54 90.1188 116.893 89.8135 117.6V123H88.5488V115.604H89.7451Z" fill="white"/>
<circle cx="51" cy="51" r="51" fill="white"/>
<path d="M77 65.8318H77.15V65.6818V32V31.85H77H22H21.85V32V65.6818V65.8318H22H42.9333V69.0773H36.6667H36.5167V69.2273V71V71.15H36.6667H64.1667H64.3167V71V69.2273V69.0773H64.1667H56.0667V65.8318H77ZM53.9333 69.0773H45.0667V65.8318H53.9333V69.0773ZM23.9833 63.7591V33.9227H75.0167V63.7591H23.9833Z" fill="#E2211D" stroke="white" stroke-width="0.3"/>
</svg>
