<svg xmlns="http://www.w3.org/2000/svg" width="110" height="126" viewBox="0 0 110 126" fill="none">
<circle cx="55" cy="51" r="51" fill="#E2211D"/>
<path d="M34 25.9H33.9V26V77V77.1H34H77H77.1V77V26V25.9H77H34ZM35.7645 75.6736V38.9633H75.18V75.6736H35.7645ZM75.18 37.0633H35.7645V27.8567H75.18V37.0633ZM55.4723 66.8433C61.9659 66.8433 67.2239 61.4696 67.2239 54.7867C67.2239 48.1601 61.9656 42.7867 55.4723 42.7867C48.9789 42.7867 43.7206 48.1601 43.7206 54.7867C43.7206 61.4696 48.9786 66.8433 55.4723 66.8433ZM55.4723 44.7433C60.908 44.7433 65.3594 49.2866 65.3594 54.8433C65.3594 60.4001 60.908 64.9433 55.4723 64.9433C50.0366 64.9433 45.5852 60.4001 45.5852 54.8433C45.5852 49.2866 50.0366 44.7433 55.4723 44.7433ZM55.4723 62.99C59.8572 62.99 63.451 59.3166 63.451 54.8433C63.451 50.3701 59.8572 46.6967 55.4723 46.6967C51.0873 46.6967 47.4935 50.3701 47.4935 54.8433C47.4935 59.3166 51.0873 62.99 55.4723 62.99ZM55.4723 48.6533C58.7996 48.6533 61.531 51.4399 61.531 54.8433C61.531 58.2468 58.7996 61.0333 55.4723 61.0333C52.1449 61.0333 49.4135 58.2468 49.4135 54.8433C49.4135 51.4399 52.1449 48.6533 55.4723 48.6533ZM68.3445 35.2233C69.5355 35.2233 70.4974 34.2379 70.4974 33.0267C70.4974 31.8155 69.5355 30.83 68.3445 30.83C67.1535 30.83 66.1916 31.8155 66.1916 33.0267C66.1916 34.2379 67.1535 35.2233 68.3445 35.2233ZM63.4619 34.2033C64.1014 34.2033 64.6161 33.6745 64.6161 33.0267C64.6161 32.3788 64.1014 31.85 63.4619 31.85C62.8225 31.85 62.3077 32.3788 62.3077 33.0267C62.3077 33.6745 62.8225 34.2033 63.4619 34.2033ZM60.0774 34.2033C60.7168 34.2033 61.2316 33.6745 61.2316 33.0267C61.2316 32.3788 60.7168 31.85 60.0774 31.85C59.438 31.85 58.9232 32.3788 58.9232 33.0267C58.9232 33.6745 59.438 34.2033 60.0774 34.2033ZM43.3768 34.6H52.3097C52.9772 34.6 53.5194 34.0432 53.5194 33.3667C53.5194 32.6901 52.9772 32.1333 52.3097 32.1333H43.3768C42.7092 32.1333 42.1671 32.6901 42.1671 33.3667C42.1671 34.0432 42.7092 34.6 43.3768 34.6Z" fill="white" stroke="white" stroke-width="0.2"/>
</svg>