<svg width="66" height="66" viewBox="0 0 66 66" fill="none" xmlns="http://www.w3.org/2000/svg">
<circle cx="33" cy="33" r="33" fill="#E31F1A"/>
<path d="M49.2404 29.0258C49.2158 29.0258 49.1914 29.027 49.1669 29.0276V24.5461C49.1669 23.1422 48.0057 22 46.5784 22H34.6635C34.2513 21.9976 33.8446 22.0947 33.478 22.2832C33.1113 22.4716 32.7957 22.7459 32.5579 23.0826C32.3166 22.7469 31.9988 22.4736 31.6308 22.2853C31.2628 22.097 30.8551 21.9992 30.4418 22H18.4593C17.032 22 15.8708 23.1422 15.8708 24.5461V29.0288C14.2762 29.0965 13 30.3925 13 31.9765V42.6186C13.0007 42.8006 13.0737 42.9749 13.2028 43.1033C13.3319 43.2316 13.5067 43.3035 13.6887 43.3031H18.3147C18.4967 43.3035 18.6715 43.2316 18.8006 43.1033C18.9297 42.9749 19.0026 42.8006 19.0034 42.6186V39.5429L46.2387 39.5509V42.6183C46.2395 42.8004 46.3124 42.9747 46.4415 43.103C46.5706 43.2314 46.7454 43.3033 46.9274 43.3029H51.5534C51.7355 43.3032 51.9102 43.2314 52.0393 43.103C52.1684 42.9747 52.2414 42.8004 52.2421 42.6183V31.9767C52.2425 30.3496 50.8955 29.0258 49.2404 29.0258ZM33.5096 23.4293C33.661 23.2777 33.841 23.1578 34.0391 23.0764C34.2373 22.995 34.4496 22.9539 34.6638 22.9553H46.5784C47.479 22.9553 48.2117 23.669 48.2117 24.5462V29.2043C47.6376 29.4073 47.14 29.7824 46.7869 30.2786C46.4338 30.7748 46.2424 31.3678 46.2387 31.9767V32.4053L33.0331 32.4016L33.0347 24.612C33.0315 24.3933 33.0718 24.176 33.1534 23.973C33.2349 23.7699 33.356 23.5851 33.5096 23.4293ZM18.4593 22.9553H30.4418C31.3424 22.9553 32.075 23.669 32.075 24.5464L32.078 32.4014L19.0034 32.3977V31.9767C18.9988 31.3313 18.7837 30.7051 18.3907 30.1931C17.9977 29.6811 17.4483 29.3115 16.826 29.1403V24.5462C16.826 23.669 17.5587 22.9553 18.4593 22.9553ZM13.9552 42.3479V31.9767C13.9552 30.8763 14.8733 29.981 16.0017 29.981C17.1301 29.981 18.0482 30.8763 18.0482 31.9767V32.7817C18.0357 32.8434 18.0357 32.907 18.0482 32.9688V42.3479H13.9552ZM19.0034 38.5877V33.3529L46.2387 33.3605V38.5959L19.0034 38.5877ZM51.2873 42.3479H47.1939V31.9767C47.1939 30.8763 48.112 29.981 49.2404 29.981C50.3688 29.981 51.2869 30.8763 51.2869 31.9767L51.2873 42.3479Z" fill="white"/>
</svg>
