<svg width="114" height="128" viewBox="0 0 114 128" fill="none" xmlns="http://www.w3.org/2000/svg">
<path d="M8.02008 123.815L8.01258 125H1.39008V114.252H8.01258V115.437H2.84508V119.007H7.03008V120.147H2.84508V123.815H8.02008ZM11.0391 113.952V125H9.70406V113.952H11.0391ZM18.289 120.372C18.289 120.062 18.244 119.78 18.154 119.525C18.069 119.265 17.9415 119.042 17.7715 118.857C17.6065 118.667 17.404 118.522 17.164 118.422C16.924 118.317 16.6515 118.265 16.3465 118.265C15.7065 118.265 15.199 118.452 14.824 118.827C14.454 119.197 14.224 119.712 14.134 120.372H18.289ZM19.369 123.935C19.204 124.135 19.0065 124.31 18.7765 124.46C18.5465 124.605 18.299 124.725 18.034 124.82C17.774 124.915 17.504 124.985 17.224 125.03C16.944 125.08 16.6665 125.105 16.3915 125.105C15.8665 125.105 15.3815 125.017 14.9365 124.842C14.4965 124.662 14.114 124.402 13.789 124.062C13.469 123.717 13.219 123.292 13.039 122.787C12.859 122.282 12.769 121.702 12.769 121.047C12.769 120.517 12.849 120.022 13.009 119.562C13.174 119.102 13.409 118.705 13.714 118.37C14.019 118.03 14.3915 117.765 14.8315 117.575C15.2715 117.38 15.7665 117.282 16.3165 117.282C16.7715 117.282 17.1915 117.36 17.5765 117.515C17.9665 117.665 18.3015 117.885 18.5815 118.175C18.8665 118.46 19.089 118.815 19.249 119.24C19.409 119.66 19.489 120.14 19.489 120.68C19.489 120.89 19.4665 121.03 19.4215 121.1C19.3765 121.17 19.2915 121.205 19.1665 121.205H14.089C14.104 121.685 14.169 122.102 14.284 122.457C14.404 122.812 14.569 123.11 14.779 123.35C14.989 123.585 15.239 123.762 15.529 123.882C15.819 123.997 16.144 124.055 16.504 124.055C16.839 124.055 17.1265 124.017 17.3665 123.942C17.6115 123.862 17.8215 123.777 17.9965 123.687C18.1715 123.597 18.3165 123.515 18.4315 123.44C18.5515 123.36 18.654 123.32 18.739 123.32C18.849 123.32 18.934 123.362 18.994 123.447L19.369 123.935ZM18.529 114.132L16.7815 116.067C16.7115 116.142 16.6415 116.197 16.5715 116.232C16.5065 116.262 16.4215 116.277 16.3165 116.277H15.5215L16.6315 114.462C16.7015 114.347 16.7765 114.265 16.8565 114.215C16.9415 114.16 17.064 114.132 17.224 114.132H18.529ZM23.4027 125.12C22.8027 125.12 22.3402 124.952 22.0152 124.617C21.6952 124.282 21.5352 123.8 21.5352 123.17V118.52H20.6202C20.5402 118.52 20.4727 118.497 20.4177 118.452C20.3627 118.402 20.3352 118.327 20.3352 118.227V117.695L21.5802 117.537L21.8877 115.19C21.9027 115.115 21.9352 115.055 21.9852 115.01C22.0402 114.96 22.1102 114.935 22.1952 114.935H22.8702V117.552H25.0677V118.52H22.8702V123.08C22.8702 123.4 22.9477 123.637 23.1027 123.792C23.2577 123.947 23.4577 124.025 23.7027 124.025C23.8427 124.025 23.9627 124.007 24.0627 123.972C24.1677 123.932 24.2577 123.89 24.3327 123.845C24.4077 123.8 24.4702 123.76 24.5202 123.725C24.5752 123.685 24.6227 123.665 24.6627 123.665C24.7327 123.665 24.7952 123.707 24.8502 123.792L25.2402 124.43C25.0102 124.645 24.7327 124.815 24.4077 124.94C24.0827 125.06 23.7477 125.12 23.4027 125.12ZM27.7137 118.925C27.9537 118.405 28.2487 118 28.5987 117.71C28.9487 117.415 29.3762 117.267 29.8812 117.267C30.0412 117.267 30.1937 117.285 30.3387 117.32C30.4887 117.355 30.6212 117.41 30.7362 117.485L30.6387 118.482C30.6087 118.607 30.5337 118.67 30.4137 118.67C30.3437 118.67 30.2412 118.655 30.1062 118.625C29.9712 118.595 29.8187 118.58 29.6487 118.58C29.4087 118.58 29.1937 118.615 29.0037 118.685C28.8187 118.755 28.6512 118.86 28.5012 119C28.3562 119.135 28.2237 119.305 28.1037 119.51C27.9887 119.71 27.8837 119.94 27.7887 120.2V125H26.4462V117.402H27.2112C27.3562 117.402 27.4562 117.43 27.5112 117.485C27.5662 117.54 27.6037 117.635 27.6237 117.77L27.7137 118.925ZM34.8049 117.282C35.3599 117.282 35.8599 117.375 36.3049 117.56C36.7499 117.745 37.1299 118.007 37.4449 118.347C37.7599 118.687 37.9999 119.1 38.1649 119.585C38.3349 120.065 38.4199 120.602 38.4199 121.197C38.4199 121.797 38.3349 122.337 38.1649 122.817C37.9999 123.297 37.7599 123.707 37.4449 124.047C37.1299 124.387 36.7499 124.65 36.3049 124.835C35.8599 125.015 35.3599 125.105 34.8049 125.105C34.2449 125.105 33.7399 125.015 33.2899 124.835C32.8449 124.65 32.4649 124.387 32.1499 124.047C31.8349 123.707 31.5924 123.297 31.4224 122.817C31.2574 122.337 31.1749 121.797 31.1749 121.197C31.1749 120.602 31.2574 120.065 31.4224 119.585C31.5924 119.1 31.8349 118.687 32.1499 118.347C32.4649 118.007 32.8449 117.745 33.2899 117.56C33.7399 117.375 34.2449 117.282 34.8049 117.282ZM34.8049 124.062C35.5549 124.062 36.1149 123.812 36.4849 123.312C36.8549 122.807 37.0399 122.105 37.0399 121.205C37.0399 120.3 36.8549 119.595 36.4849 119.09C36.1149 118.585 35.5549 118.332 34.8049 118.332C34.4249 118.332 34.0924 118.397 33.8074 118.527C33.5274 118.657 33.2924 118.845 33.1024 119.09C32.9174 119.335 32.7774 119.637 32.6824 119.997C32.5924 120.352 32.5474 120.755 32.5474 121.205C32.5474 122.105 32.7324 122.807 33.1024 123.312C33.4774 123.812 34.0449 124.062 34.8049 124.062ZM45.0632 119.21C44.8132 118.875 44.5432 118.642 44.2532 118.512C43.9632 118.377 43.6382 118.31 43.2782 118.31C42.5732 118.31 42.0307 118.562 41.6507 119.067C41.2707 119.572 41.0807 120.292 41.0807 121.227C41.0807 121.722 41.1232 122.147 41.2082 122.502C41.2932 122.852 41.4182 123.142 41.5832 123.372C41.7482 123.597 41.9507 123.762 42.1907 123.867C42.4307 123.972 42.7032 124.025 43.0082 124.025C43.4482 124.025 43.8307 123.925 44.1557 123.725C44.4857 123.525 44.7882 123.242 45.0632 122.877V119.21ZM46.3982 113.952V125H45.6032C45.4132 125 45.2932 124.907 45.2432 124.722L45.1232 123.8C44.7982 124.19 44.4282 124.505 44.0132 124.745C43.5982 124.985 43.1182 125.105 42.5732 125.105C42.1382 125.105 41.7432 125.022 41.3882 124.857C41.0332 124.687 40.7307 124.44 40.4807 124.115C40.2307 123.79 40.0382 123.385 39.9032 122.9C39.7682 122.415 39.7007 121.857 39.7007 121.227C39.7007 120.667 39.7757 120.147 39.9257 119.667C40.0757 119.182 40.2907 118.762 40.5707 118.407C40.8507 118.052 41.1932 117.775 41.5982 117.575C42.0082 117.37 42.4682 117.267 42.9782 117.267C43.4432 117.267 43.8407 117.347 44.1707 117.507C44.5057 117.662 44.8032 117.88 45.0632 118.16V113.952H46.3982ZM51.7092 117.282C52.2642 117.282 52.7642 117.375 53.2092 117.56C53.6542 117.745 54.0342 118.007 54.3492 118.347C54.6642 118.687 54.9042 119.1 55.0692 119.585C55.2392 120.065 55.3242 120.602 55.3242 121.197C55.3242 121.797 55.2392 122.337 55.0692 122.817C54.9042 123.297 54.6642 123.707 54.3492 124.047C54.0342 124.387 53.6542 124.65 53.2092 124.835C52.7642 125.015 52.2642 125.105 51.7092 125.105C51.1492 125.105 50.6442 125.015 50.1942 124.835C49.7492 124.65 49.3692 124.387 49.0542 124.047C48.7392 123.707 48.4967 123.297 48.3267 122.817C48.1617 122.337 48.0792 121.797 48.0792 121.197C48.0792 120.602 48.1617 120.065 48.3267 119.585C48.4967 119.1 48.7392 118.687 49.0542 118.347C49.3692 118.007 49.7492 117.745 50.1942 117.56C50.6442 117.375 51.1492 117.282 51.7092 117.282ZM51.7092 124.062C52.4592 124.062 53.0192 123.812 53.3892 123.312C53.7592 122.807 53.9442 122.105 53.9442 121.205C53.9442 120.3 53.7592 119.595 53.3892 119.09C53.0192 118.585 52.4592 118.332 51.7092 118.332C51.3292 118.332 50.9967 118.397 50.7117 118.527C50.4317 118.657 50.1967 118.845 50.0067 119.09C49.8217 119.335 49.6817 119.637 49.5867 119.997C49.4967 120.352 49.4517 120.755 49.4517 121.205C49.4517 122.105 49.6367 122.807 50.0067 123.312C50.3817 123.812 50.9492 124.062 51.7092 124.062ZM57.0175 125V117.402H57.82C58.01 117.402 58.1275 117.495 58.1725 117.68L58.27 118.46C58.55 118.115 58.865 117.832 59.215 117.612C59.565 117.392 59.97 117.282 60.43 117.282C60.94 117.282 61.3525 117.425 61.6675 117.71C61.9875 117.995 62.2175 118.38 62.3575 118.865C62.4675 118.59 62.6075 118.352 62.7775 118.152C62.9525 117.952 63.1475 117.787 63.3625 117.657C63.5775 117.527 63.805 117.432 64.045 117.372C64.29 117.312 64.5375 117.282 64.7875 117.282C65.1875 117.282 65.5425 117.347 65.8525 117.477C66.1675 117.602 66.4325 117.787 66.6475 118.032C66.8675 118.277 67.035 118.58 67.15 118.94C67.265 119.295 67.3225 119.702 67.3225 120.162V125H65.98V120.162C65.98 119.567 65.85 119.117 65.59 118.812C65.33 118.502 64.955 118.347 64.465 118.347C64.245 118.347 64.035 118.387 63.835 118.467C63.64 118.542 63.4675 118.655 63.3175 118.805C63.1675 118.955 63.0475 119.145 62.9575 119.375C62.8725 119.6 62.83 119.862 62.83 120.162V125H61.4875V120.162C61.4875 119.552 61.365 119.097 61.12 118.797C60.875 118.497 60.5175 118.347 60.0475 118.347C59.7175 118.347 59.4125 118.437 59.1325 118.617C58.8525 118.792 58.595 119.032 58.36 119.337V125H57.0175ZM74.4364 120.372C74.4364 120.062 74.3914 119.78 74.3014 119.525C74.2164 119.265 74.0889 119.042 73.9189 118.857C73.7539 118.667 73.5514 118.522 73.3114 118.422C73.0714 118.317 72.7989 118.265 72.4939 118.265C71.8539 118.265 71.3464 118.452 70.9714 118.827C70.6014 119.197 70.3714 119.712 70.2814 120.372H74.4364ZM75.5164 123.935C75.3514 124.135 75.1539 124.31 74.9239 124.46C74.6939 124.605 74.4464 124.725 74.1814 124.82C73.9214 124.915 73.6514 124.985 73.3714 125.03C73.0914 125.08 72.8139 125.105 72.5389 125.105C72.0139 125.105 71.5289 125.017 71.0839 124.842C70.6439 124.662 70.2614 124.402 69.9364 124.062C69.6164 123.717 69.3664 123.292 69.1864 122.787C69.0064 122.282 68.9164 121.702 68.9164 121.047C68.9164 120.517 68.9964 120.022 69.1564 119.562C69.3214 119.102 69.5564 118.705 69.8614 118.37C70.1664 118.03 70.5389 117.765 70.9789 117.575C71.4189 117.38 71.9139 117.282 72.4639 117.282C72.9189 117.282 73.3389 117.36 73.7239 117.515C74.1139 117.665 74.4489 117.885 74.7289 118.175C75.0139 118.46 75.2364 118.815 75.3964 119.24C75.5564 119.66 75.6364 120.14 75.6364 120.68C75.6364 120.89 75.6139 121.03 75.5689 121.1C75.5239 121.17 75.4389 121.205 75.3139 121.205H70.2364C70.2514 121.685 70.3164 122.102 70.4314 122.457C70.5514 122.812 70.7164 123.11 70.9264 123.35C71.1364 123.585 71.3864 123.762 71.6764 123.882C71.9664 123.997 72.2914 124.055 72.6514 124.055C72.9864 124.055 73.2739 124.017 73.5139 123.942C73.7589 123.862 73.9689 123.777 74.1439 123.687C74.3189 123.597 74.4639 123.515 74.5789 123.44C74.6989 123.36 74.8014 123.32 74.8864 123.32C74.9964 123.32 75.0814 123.362 75.1414 123.447L75.5164 123.935ZM74.6764 114.132L72.9289 116.067C72.8589 116.142 72.7889 116.197 72.7189 116.232C72.6539 116.262 72.5689 116.277 72.4639 116.277H71.6689L72.7789 114.462C72.8489 114.347 72.9239 114.265 73.0039 114.215C73.0889 114.16 73.2114 114.132 73.3714 114.132H74.6764ZM81.7013 118.655C81.6413 118.765 81.5488 118.82 81.4238 118.82C81.3488 118.82 81.2638 118.792 81.1688 118.737C81.0738 118.682 80.9563 118.622 80.8163 118.557C80.6813 118.487 80.5188 118.425 80.3288 118.37C80.1388 118.31 79.9138 118.28 79.6538 118.28C79.4288 118.28 79.2263 118.31 79.0463 118.37C78.8663 118.425 78.7113 118.502 78.5813 118.602C78.4563 118.702 78.3588 118.82 78.2888 118.955C78.2238 119.085 78.1913 119.227 78.1913 119.382C78.1913 119.577 78.2463 119.74 78.3563 119.87C78.4713 120 78.6213 120.112 78.8063 120.207C78.9913 120.302 79.2013 120.387 79.4363 120.462C79.6713 120.532 79.9113 120.61 80.1563 120.695C80.4063 120.775 80.6488 120.865 80.8838 120.965C81.1188 121.065 81.3288 121.19 81.5138 121.34C81.6988 121.49 81.8463 121.675 81.9563 121.895C82.0713 122.11 82.1288 122.37 82.1288 122.675C82.1288 123.025 82.0663 123.35 81.9413 123.65C81.8163 123.945 81.6313 124.202 81.3863 124.422C81.1413 124.637 80.8413 124.807 80.4863 124.932C80.1313 125.058 79.7213 125.12 79.2563 125.12C78.7263 125.12 78.2463 125.035 77.8163 124.865C77.3863 124.69 77.0213 124.467 76.7213 124.197L77.0363 123.687C77.0763 123.622 77.1238 123.572 77.1788 123.537C77.2338 123.502 77.3038 123.485 77.3888 123.485C77.4788 123.485 77.5738 123.52 77.6738 123.59C77.7738 123.66 77.8938 123.737 78.0338 123.822C78.1788 123.907 78.3538 123.985 78.5588 124.055C78.7638 124.125 79.0188 124.16 79.3238 124.16C79.5838 124.16 79.8113 124.127 80.0062 124.062C80.2013 123.992 80.3638 123.9 80.4938 123.785C80.6238 123.67 80.7188 123.537 80.7788 123.387C80.8438 123.237 80.8763 123.077 80.8763 122.907C80.8763 122.697 80.8188 122.525 80.7038 122.39C80.5938 122.25 80.4463 122.132 80.2613 122.037C80.0763 121.937 79.8638 121.852 79.6238 121.782C79.3888 121.707 79.1463 121.63 78.8963 121.55C78.6513 121.47 78.4088 121.38 78.1688 121.28C77.9338 121.175 77.7238 121.045 77.5388 120.89C77.3538 120.735 77.2038 120.545 77.0888 120.32C76.9788 120.09 76.9238 119.812 76.9238 119.487C76.9238 119.197 76.9838 118.92 77.1038 118.655C77.2238 118.385 77.3988 118.15 77.6288 117.95C77.8588 117.745 78.1413 117.582 78.4763 117.463C78.8113 117.342 79.1938 117.282 79.6238 117.282C80.1238 117.282 80.5713 117.362 80.9663 117.522C81.3663 117.677 81.7113 117.892 82.0013 118.167L81.7013 118.655ZM90.8155 125H89.4805V118.52H85.5655V123.08C85.5655 123.4 85.643 123.637 85.798 123.792C85.953 123.947 86.153 124.025 86.398 124.025C86.538 124.025 86.658 124.007 86.758 123.972C86.863 123.932 86.953 123.89 87.028 123.845C87.103 123.8 87.1655 123.76 87.2155 123.725C87.2705 123.685 87.318 123.665 87.358 123.665C87.428 123.665 87.4905 123.707 87.5455 123.792L87.9355 124.43C87.7055 124.645 87.428 124.815 87.103 124.94C86.778 125.06 86.443 125.12 86.098 125.12C85.498 125.12 85.0355 124.952 84.7105 124.617C84.3905 124.282 84.2305 123.8 84.2305 123.17V118.52H83.3155C83.2355 118.52 83.168 118.497 83.113 118.452C83.058 118.402 83.0305 118.327 83.0305 118.227V117.695L84.2755 117.53L84.583 115.19C84.598 115.115 84.6305 115.055 84.6805 115.01C84.7355 114.96 84.8055 114.935 84.8905 114.935H85.5655V117.552H90.8155V125ZM91.1455 114.965C91.1455 115.095 91.118 115.217 91.063 115.332C91.013 115.442 90.943 115.54 90.853 115.625C90.768 115.71 90.668 115.777 90.553 115.827C90.438 115.877 90.3155 115.902 90.1855 115.902C90.0555 115.902 89.933 115.877 89.818 115.827C89.708 115.777 89.6105 115.71 89.5255 115.625C89.4405 115.54 89.373 115.442 89.323 115.332C89.273 115.217 89.248 115.095 89.248 114.965C89.248 114.835 89.273 114.712 89.323 114.597C89.373 114.477 89.4405 114.375 89.5255 114.29C89.6105 114.2 89.708 114.13 89.818 114.08C89.933 114.03 90.0555 114.005 90.1855 114.005C90.3155 114.005 90.438 114.03 90.553 114.08C90.668 114.13 90.768 114.2 90.853 114.29C90.943 114.375 91.013 114.477 91.063 114.597C91.118 114.712 91.1455 114.835 91.1455 114.965ZM98.2962 118.752C98.2562 118.807 98.2162 118.85 98.1762 118.88C98.1362 118.91 98.0812 118.925 98.0112 118.925C97.9362 118.925 97.8537 118.895 97.7637 118.835C97.6737 118.77 97.5612 118.7 97.4262 118.625C97.2962 118.55 97.1337 118.482 96.9387 118.422C96.7487 118.357 96.5137 118.325 96.2337 118.325C95.8587 118.325 95.5287 118.392 95.2437 118.527C94.9587 118.657 94.7187 118.847 94.5237 119.097C94.3337 119.347 94.1887 119.65 94.0887 120.005C93.9937 120.36 93.9462 120.757 93.9462 121.197C93.9462 121.657 93.9987 122.067 94.1037 122.427C94.2087 122.782 94.3562 123.082 94.5462 123.327C94.7412 123.567 94.9737 123.752 95.2437 123.882C95.5187 124.007 95.8262 124.07 96.1662 124.07C96.4912 124.07 96.7587 124.032 96.9687 123.957C97.1787 123.877 97.3512 123.79 97.4862 123.695C97.6262 123.6 97.7412 123.515 97.8312 123.44C97.9262 123.36 98.0187 123.32 98.1087 123.32C98.2187 123.32 98.3037 123.362 98.3637 123.447L98.7387 123.935C98.5737 124.14 98.3862 124.315 98.1762 124.46C97.9662 124.605 97.7387 124.727 97.4937 124.827C97.2537 124.922 97.0012 124.992 96.7362 125.038C96.4712 125.083 96.2012 125.105 95.9262 125.105C95.4512 125.105 95.0087 125.017 94.5987 124.842C94.1937 124.667 93.8412 124.415 93.5412 124.085C93.2412 123.75 93.0062 123.34 92.8362 122.855C92.6662 122.37 92.5812 121.817 92.5812 121.197C92.5812 120.632 92.6587 120.11 92.8137 119.63C92.9737 119.15 93.2037 118.737 93.5037 118.392C93.8087 118.042 94.1812 117.77 94.6212 117.575C95.0662 117.38 95.5762 117.282 96.1512 117.282C96.6862 117.282 97.1562 117.37 97.5612 117.545C97.9712 117.715 98.3337 117.957 98.6487 118.272L98.2962 118.752ZM103.242 117.282C103.797 117.282 104.297 117.375 104.742 117.56C105.187 117.745 105.567 118.007 105.882 118.347C106.197 118.687 106.437 119.1 106.602 119.585C106.772 120.065 106.857 120.602 106.857 121.197C106.857 121.797 106.772 122.337 106.602 122.817C106.437 123.297 106.197 123.707 105.882 124.047C105.567 124.387 105.187 124.65 104.742 124.835C104.297 125.015 103.797 125.105 103.242 125.105C102.682 125.105 102.177 125.015 101.727 124.835C101.282 124.65 100.902 124.387 100.587 124.047C100.272 123.707 100.03 123.297 99.8599 122.817C99.6949 122.337 99.6124 121.797 99.6124 121.197C99.6124 120.602 99.6949 120.065 99.8599 119.585C100.03 119.1 100.272 118.687 100.587 118.347C100.902 118.007 101.282 117.745 101.727 117.56C102.177 117.375 102.682 117.282 103.242 117.282ZM103.242 124.062C103.992 124.062 104.552 123.812 104.922 123.312C105.292 122.807 105.477 122.105 105.477 121.205C105.477 120.3 105.292 119.595 104.922 119.09C104.552 118.585 103.992 118.332 103.242 118.332C102.862 118.332 102.53 118.397 102.245 118.527C101.965 118.657 101.73 118.845 101.54 119.09C101.355 119.335 101.215 119.637 101.12 119.997C101.03 120.352 100.985 120.755 100.985 121.205C100.985 122.105 101.17 122.807 101.54 123.312C101.915 123.812 102.482 124.062 103.242 124.062ZM112.976 118.655C112.916 118.765 112.823 118.82 112.698 118.82C112.623 118.82 112.538 118.792 112.443 118.737C112.348 118.682 112.231 118.622 112.091 118.557C111.956 118.487 111.793 118.425 111.603 118.37C111.413 118.31 111.188 118.28 110.928 118.28C110.703 118.28 110.501 118.31 110.321 118.37C110.141 118.425 109.986 118.502 109.856 118.602C109.731 118.702 109.633 118.82 109.563 118.955C109.498 119.085 109.466 119.227 109.466 119.382C109.466 119.577 109.521 119.74 109.631 119.87C109.746 120 109.896 120.112 110.081 120.207C110.266 120.302 110.476 120.387 110.711 120.462C110.946 120.532 111.186 120.61 111.431 120.695C111.681 120.775 111.923 120.865 112.158 120.965C112.393 121.065 112.603 121.19 112.788 121.34C112.973 121.49 113.121 121.675 113.231 121.895C113.346 122.11 113.403 122.37 113.403 122.675C113.403 123.025 113.341 123.35 113.216 123.65C113.091 123.945 112.906 124.202 112.661 124.422C112.416 124.637 112.116 124.807 111.761 124.932C111.406 125.058 110.996 125.12 110.531 125.12C110.001 125.12 109.521 125.035 109.091 124.865C108.661 124.69 108.296 124.467 107.996 124.197L108.311 123.687C108.351 123.622 108.398 123.572 108.453 123.537C108.508 123.502 108.578 123.485 108.663 123.485C108.753 123.485 108.848 123.52 108.948 123.59C109.048 123.66 109.168 123.737 109.308 123.822C109.453 123.907 109.628 123.985 109.833 124.055C110.038 124.125 110.293 124.16 110.598 124.16C110.858 124.16 111.086 124.127 111.281 124.062C111.476 123.992 111.638 123.9 111.768 123.785C111.898 123.67 111.993 123.537 112.053 123.387C112.118 123.237 112.151 123.077 112.151 122.907C112.151 122.697 112.093 122.525 111.978 122.39C111.868 122.25 111.721 122.132 111.536 122.037C111.351 121.937 111.138 121.852 110.898 121.782C110.663 121.707 110.421 121.63 110.171 121.55C109.926 121.47 109.683 121.38 109.443 121.28C109.208 121.175 108.998 121.045 108.813 120.89C108.628 120.735 108.478 120.545 108.363 120.32C108.253 120.09 108.198 119.812 108.198 119.487C108.198 119.197 108.258 118.92 108.378 118.655C108.498 118.385 108.673 118.15 108.903 117.95C109.133 117.745 109.416 117.582 109.751 117.463C110.086 117.342 110.468 117.282 110.898 117.282C111.398 117.282 111.846 117.362 112.241 117.522C112.641 117.677 112.986 117.892 113.276 118.167L112.976 118.655Z" fill="white"/>
<circle cx="57" cy="51" r="51" fill="white"/>
<path d="M36 25.9H35.9V26V77V77.1H36H79H79.1V77V26V25.9H79H36ZM37.7645 75.6736V38.9633H77.18V75.6736H37.7645ZM77.18 37.0633H37.7645V27.8567H77.18V37.0633ZM57.4723 66.8433C63.9659 66.8433 69.2239 61.4696 69.2239 54.7867C69.2239 48.1601 63.9656 42.7867 57.4723 42.7867C50.9789 42.7867 45.7206 48.1601 45.7206 54.7867C45.7206 61.4696 50.9786 66.8433 57.4723 66.8433ZM57.4723 44.7433C62.908 44.7433 67.3594 49.2866 67.3594 54.8433C67.3594 60.4001 62.908 64.9433 57.4723 64.9433C52.0366 64.9433 47.5852 60.4001 47.5852 54.8433C47.5852 49.2866 52.0366 44.7433 57.4723 44.7433ZM57.4723 62.99C61.8572 62.99 65.451 59.3166 65.451 54.8433C65.451 50.3701 61.8572 46.6967 57.4723 46.6967C53.0873 46.6967 49.4935 50.3701 49.4935 54.8433C49.4935 59.3166 53.0873 62.99 57.4723 62.99ZM57.4723 48.6533C60.7996 48.6533 63.531 51.4399 63.531 54.8433C63.531 58.2468 60.7996 61.0333 57.4723 61.0333C54.1449 61.0333 51.4135 58.2468 51.4135 54.8433C51.4135 51.4399 54.1449 48.6533 57.4723 48.6533ZM70.3445 35.2233C71.5355 35.2233 72.4974 34.2379 72.4974 33.0267C72.4974 31.8155 71.5355 30.83 70.3445 30.83C69.1535 30.83 68.1916 31.8155 68.1916 33.0267C68.1916 34.2379 69.1535 35.2233 70.3445 35.2233ZM65.4619 34.2033C66.1014 34.2033 66.6161 33.6745 66.6161 33.0267C66.6161 32.3788 66.1014 31.85 65.4619 31.85C64.8225 31.85 64.3077 32.3788 64.3077 33.0267C64.3077 33.6745 64.8225 34.2033 65.4619 34.2033ZM62.0774 34.2033C62.7168 34.2033 63.2316 33.6745 63.2316 33.0267C63.2316 32.3788 62.7168 31.85 62.0774 31.85C61.438 31.85 60.9232 32.3788 60.9232 33.0267C60.9232 33.6745 61.438 34.2033 62.0774 34.2033ZM45.3768 34.6H54.3097C54.9772 34.6 55.5194 34.0432 55.5194 33.3667C55.5194 32.6901 54.9772 32.1333 54.3097 32.1333H45.3768C44.7092 32.1333 44.1671 32.6901 44.1671 33.3667C44.1671 34.0432 44.7092 34.6 45.3768 34.6Z" fill="#E2211D" stroke="white" stroke-width="0.2"/>
</svg>
