<svg width="102" height="102" viewBox="0 0 102 102" fill="none" xmlns="http://www.w3.org/2000/svg">
<circle cx="51" cy="51" r="51" fill="white"/>
<path d="M52.9928 32.2098C52.8705 32.3321 52.7831 32.5769 52.7831 32.7867C52.7831 33.5209 53.0453 33.5733 56.3667 33.5733H59.5308L60.3699 34.4299L61.2264 35.2865L60.8593 35.8109C60.6495 36.0906 60.3699 36.4227 60.2125 36.5451C59.8279 36.8597 59.8804 37.2443 60.5621 39.0099C60.8943 39.884 61.174 40.6881 61.174 40.8105C61.174 40.9678 58.4994 41.3524 52.0838 42.1565L42.9936 43.2928V41.667V40.0413H45.1438C46.8045 40.0413 47.3814 39.9714 47.6786 39.7616C48.1506 39.447 48.1681 38.975 47.7485 38.5904C47.4688 38.3282 46.9094 38.2932 43.4482 38.2932C41.0358 38.2932 39.3401 38.3631 39.1303 38.468C38.9206 38.5904 38.7982 38.8351 38.7982 39.1673C38.7982 39.8141 39.2003 40.0413 40.354 40.0413H41.2455V42.0691V44.1144L40.2491 45.8101L39.2702 47.5057L38.2038 47.0337C35.5817 45.845 32.2428 45.6702 29.4458 46.5792C24.6385 48.1176 21.2821 52.4878 21.0199 57.5399C20.4955 67.137 30.4247 73.4826 39.0254 69.0249C41.1232 67.9411 43.0111 66.0182 44.0775 63.868C44.532 62.994 44.9865 61.8227 45.1089 61.2983L45.3186 60.3194H46.5073C47.6961 60.3194 47.6961 60.3194 47.9932 60.9312C48.6051 62.2423 50.1609 63.0814 51.5244 62.8366C52.7481 62.6094 53.4998 62.0325 54.0941 60.8613C54.4962 60.0397 54.3913 58.4139 53.8669 57.7147L53.4998 57.2077L57.8176 50.46C60.195 46.754 62.1879 43.7298 62.2403 43.7123C62.4676 43.7123 63.6738 47.1037 63.4815 47.1736C63.0619 47.3134 61.174 48.607 60.4747 49.2364C58.8665 50.7048 57.3806 53.3095 56.8736 55.5645C56.4366 57.5574 56.5939 60.3194 57.2757 62.2598C59.3035 68.1159 65.4044 71.5073 71.5577 70.1962C75.6658 69.3221 79.162 66.1231 80.5255 61.9801C80.9276 60.7739 80.9975 60.2844 80.9975 58.309C81.015 56.4036 80.9451 55.8267 80.6129 54.7254C78.7075 48.6245 72.5542 44.936 66.4183 46.2296C65.789 46.3695 65.2646 46.4569 65.2296 46.4219C65.1946 46.4044 64.3905 44.3417 63.4465 41.8593L61.6984 37.3492L62.4851 36.5451C63.6213 35.3913 63.5689 35.1466 61.8033 33.4335L60.3349 32H56.7687C54.234 32 53.1502 32.0525 52.9928 32.2098ZM60.6321 42.9606C60.6321 43.0481 58.7266 46.0548 56.4016 49.6559L52.1712 56.1938L51.1224 56.1764H50.0735L46.8045 50.5999C45.0215 47.5232 43.588 44.9885 43.623 44.9535C43.7279 44.8486 59.1112 42.8907 60.0027 42.8558C60.3524 42.8558 60.6495 42.8907 60.6321 42.9606ZM45.4235 51.5264C48.0632 56.0715 48.6051 57.1028 48.4303 57.3301C48.3254 57.4874 48.1156 57.872 47.9583 58.1867C47.6961 58.7636 47.6961 58.7636 46.6122 58.7111L45.5284 58.6587L45.4235 57.2602C45.3012 55.6694 44.9166 54.166 44.2698 52.8899C43.6055 51.5788 42.3993 49.9531 41.4903 49.149C41.0532 48.7644 40.7211 48.3798 40.7561 48.3099C40.9484 47.8204 42.0497 45.9849 42.1196 45.9849C42.172 45.9849 43.6579 48.4847 45.4235 51.5264ZM36.2984 48.1001C36.9452 48.3099 37.6969 48.5721 37.9591 48.7119L38.4311 48.9567L35.3894 54.166C32.505 59.0782 32.2428 59.6551 32.5749 60.1795C32.5749 60.197 35.0922 60.2669 38.1339 60.3194L43.6754 60.4068L43.2908 61.5605C42.207 64.7596 39.5149 67.3817 36.2634 68.4131C34.8475 68.8501 31.9281 68.9375 30.5821 68.553C29.0263 68.1159 27.2782 67.137 26.1244 66.0706C24.6735 64.7071 23.8169 63.396 23.1701 61.543C22.1387 58.6062 22.5757 55.1799 24.3238 52.4878C25.9321 50.0055 28.8689 48.135 31.8932 47.6631C32.8721 47.5232 35.1097 47.733 36.2984 48.1001ZM72.1521 48.1875C74.7218 49.0441 76.9419 50.8971 78.1656 53.257C79.1271 55.075 79.4242 56.2812 79.4068 58.309C79.4068 59.7775 79.3193 60.2844 78.8823 61.543C77.7286 64.8819 75.2987 67.2594 71.9248 68.3956C70.2467 68.955 67.5721 68.955 65.8065 68.3956C60.5971 66.7699 57.3456 61.3508 58.4469 56.1239C58.9014 53.9912 59.7755 52.4179 61.4187 50.7922C62.8696 49.3587 64.0409 48.5896 64.3031 48.8867C64.373 48.9741 65.2471 51.1593 66.2435 53.764C67.2224 56.3512 68.1489 58.6237 68.3063 58.781C68.6734 59.2181 69.1628 59.1656 69.4775 58.6761C69.7397 58.2916 69.6523 58.0119 67.8168 53.2395C66.7504 50.46 65.9463 48.135 66.0162 48.0651C66.2959 47.7854 68.0965 47.5757 69.4775 47.6631C70.2641 47.7155 71.4354 47.9428 72.1521 48.1875ZM41.0358 51.1418C42.714 52.9249 43.9901 56.0889 43.8327 58.0293L43.7803 58.6587L39.2527 58.7111C35.0048 58.7461 34.7426 58.7286 34.8475 58.4489C35.0747 57.8545 39.7247 50.0055 39.8471 50.0055C39.917 50.0055 40.4589 50.5125 41.0358 51.1418ZM52.1712 58.2916C53.325 59.4453 52.5558 61.2109 50.9126 61.1934C49.9511 61.1759 49.182 60.162 49.3568 59.1656C49.6015 57.9419 51.2972 57.4175 52.1712 58.2916Z" fill="#E2211D"/>
</svg>
