<svg width="102" height="102" viewBox="0 0 102 102" fill="none" xmlns="http://www.w3.org/2000/svg">
<circle cx="51" cy="51" r="51" fill="white"/>
<path d="M22.4857 59.2059L21.0197 66.1771C20.9601 66.4612 21.0374 66.7555 21.23 66.9794C21.4232 67.2038 21.7117 67.3334 22.0161 67.3339H40.3678C40.8909 72.8081 45.7185 77 51.4998 77C57.2815 77 62.1086 72.8081 62.6317 67.3339H80.9839C81.2883 67.3334 81.5768 67.2038 81.77 66.9794C81.9626 66.7555 82.0399 66.4612 81.9803 66.1771L80.5138 59.2059C80.0866 57.2031 78.588 55.5591 76.563 54.8733L64.6413 50.873C63.0883 50.3522 61.7121 49.4424 60.6575 48.2401L58.7335 46.0443C59.2427 45.9934 59.6299 45.5868 59.6336 45.1C59.6336 44.5664 59.1784 44.1336 58.6167 44.1336H57.6003V38.3336C57.5975 36.264 56.4354 34.3528 54.55 33.3182V24.6628C56.3409 24.2247 57.5947 22.6918 57.6003 20.9333V19.9669C57.6003 19.4328 57.1451 19 56.5834 19H46.4166C45.8549 19 45.3997 19.4328 45.3997 19.9669V20.9333C45.4053 22.6918 46.6591 24.2247 48.45 24.6628V33.3182C46.5646 34.3528 45.4025 36.264 45.3997 38.3336V44.1336H44.3833C43.8216 44.1336 43.3664 44.5664 43.3664 45.1C43.3701 45.5868 43.7573 45.993 44.266 46.0443L42.3425 48.2387C41.2879 49.4419 39.9113 50.3517 38.3578 50.8725L26.4365 54.8733C24.412 55.5587 22.9125 57.2026 22.4857 59.2059ZM51.4998 75.0671C46.843 75.0609 42.9317 71.7337 42.4095 67.3339H44.4587C44.7915 70.7491 47.8971 73.3077 51.4998 73.1338C52.0615 73.1338 52.5167 72.701 52.5167 72.1669C52.5167 71.6333 52.0615 71.2005 51.4998 71.2005C49.0229 71.3779 46.8341 69.6774 46.5242 67.3339H60.59C60.0683 71.7337 56.157 75.0609 51.4998 75.0671ZM47.4331 40.2669H55.5669V44.1336H47.4331V40.2669ZM47.4331 20.9333H55.5669C55.5655 22.0006 54.6557 22.8653 53.5331 22.8666H49.4664C48.3439 22.8653 47.4345 22.0006 47.4331 20.9333ZM50.4833 24.8H52.5167V32.6204C51.8442 32.504 51.1554 32.504 50.4833 32.6204V24.8ZM51.4998 34.467C53.7449 34.4692 55.5641 36.199 55.5669 38.3336H47.4331C47.4354 36.199 49.2551 34.4692 51.4998 34.467ZM27.1141 56.6973L39.0344 52.6966C40.9333 52.0598 42.6157 50.9473 43.9044 49.4764L46.8928 46.0669H56.1072L59.0965 49.4778C60.3852 50.9478 62.0672 52.0598 63.9656 52.6966L75.8864 56.6973C77.2365 57.1539 78.2366 58.2496 78.521 59.5851L79.7436 65.4005H23.2564L24.4795 59.5851C24.7643 58.25 25.764 57.1539 27.1141 56.6973Z" fill="#E2211D"/>
</svg>
