<svg width="66" height="66" viewBox="0 0 66 66" fill="none" xmlns="http://www.w3.org/2000/svg">
<circle cx="33" cy="33" r="33" fill="#E31F1A"/>
<path d="M19 16.9H18.9V17V49.5161V49.6161H19H47H47.1V49.5161V17V16.9H47H19ZM20.1839 48.6342V25.3013H45.78V48.6342H20.1839ZM45.78 24.0174H20.1839V18.22H45.78V24.0174ZM32.9819 43.0768C37.2284 43.0768 40.669 39.6356 40.669 35.3535C40.669 31.1074 37.2281 27.6665 32.9819 27.6665C28.7357 27.6665 25.2948 31.1074 25.2948 35.3535C25.2948 39.6356 28.7354 43.0768 32.9819 43.0768ZM32.9819 28.9865C36.5035 28.9865 39.3852 31.8681 39.3852 35.3897C39.3852 38.9112 36.5035 41.7929 32.9819 41.7929C29.4604 41.7929 26.5787 38.9112 26.5787 35.3897C26.5787 31.8681 29.4604 28.9865 32.9819 28.9865ZM32.9819 40.62C35.8552 40.62 38.2123 38.263 38.2123 35.3897C38.2123 32.5164 35.8552 30.1594 32.9819 30.1594C30.1086 30.1594 27.7516 32.5164 27.7516 35.3897C27.7516 38.263 30.1086 40.62 32.9819 40.62ZM32.9819 31.4794C35.1306 31.4794 36.8923 33.241 36.8923 35.3897C36.8923 37.5383 35.1306 39.3 32.9819 39.3C30.8333 39.3 29.0716 37.5383 29.0716 35.3897C29.0716 33.241 30.8333 31.4794 32.9819 31.4794ZM41.3639 22.9168C42.1574 22.9168 42.8006 22.2735 42.8006 21.48C42.8006 20.6865 42.1574 20.0432 41.3639 20.0432C40.5704 20.0432 39.9271 20.6865 39.9271 21.48C39.9271 22.2735 40.5704 22.9168 41.3639 22.9168ZM38.1845 22.2665C38.6189 22.2665 38.971 21.9143 38.971 21.48C38.971 21.0457 38.6189 20.6935 38.1845 20.6935C37.7502 20.6935 37.3981 21.0457 37.3981 21.48C37.3981 21.9143 37.7502 22.2665 38.1845 22.2665ZM35.9806 22.2665C36.415 22.2665 36.7671 21.9143 36.7671 21.48C36.7671 21.0457 36.415 20.6935 35.9806 20.6935C35.5463 20.6935 35.1942 21.0457 35.1942 21.48C35.1942 21.9143 35.5463 22.2665 35.9806 22.2665ZM25.1058 22.5194H30.9226C31.3752 22.5194 31.7452 22.1494 31.7452 21.6968C31.7452 21.2441 31.3752 20.8742 30.9226 20.8742H25.1058C24.6532 20.8742 24.2832 21.2441 24.2832 21.6968C24.2832 22.1494 24.6532 22.5194 25.1058 22.5194Z" fill="white" stroke="white" stroke-width="0.2"/>
</svg>
