<svg width="102" height="102" viewBox="0 0 102 102" fill="none" xmlns="http://www.w3.org/2000/svg">
<circle cx="51" cy="51" r="51" fill="white"/>
<path d="M30 25.9H29.9V26V77V77.1H30H73H73.1V77V26V25.9H73H30ZM31.7645 75.6736V38.9633H71.18V75.6736H31.7645ZM71.18 37.0633H31.7645V27.8567H71.18V37.0633ZM51.4723 66.8433C57.9659 66.8433 63.2239 61.4696 63.2239 54.7867C63.2239 48.1601 57.9656 42.7867 51.4723 42.7867C44.9789 42.7867 39.7206 48.1601 39.7206 54.7867C39.7206 61.4696 44.9786 66.8433 51.4723 66.8433ZM51.4723 44.7433C56.908 44.7433 61.3594 49.2866 61.3594 54.8433C61.3594 60.4001 56.908 64.9433 51.4723 64.9433C46.0366 64.9433 41.5852 60.4001 41.5852 54.8433C41.5852 49.2866 46.0366 44.7433 51.4723 44.7433ZM51.4723 62.99C55.8572 62.99 59.451 59.3166 59.451 54.8433C59.451 50.3701 55.8572 46.6967 51.4723 46.6967C47.0873 46.6967 43.4935 50.3701 43.4935 54.8433C43.4935 59.3166 47.0873 62.99 51.4723 62.99ZM51.4723 48.6533C54.7996 48.6533 57.531 51.4399 57.531 54.8433C57.531 58.2468 54.7996 61.0333 51.4723 61.0333C48.1449 61.0333 45.4135 58.2468 45.4135 54.8433C45.4135 51.4399 48.1449 48.6533 51.4723 48.6533ZM64.3445 35.2233C65.5355 35.2233 66.4974 34.2379 66.4974 33.0267C66.4974 31.8155 65.5355 30.83 64.3445 30.83C63.1535 30.83 62.1916 31.8155 62.1916 33.0267C62.1916 34.2379 63.1535 35.2233 64.3445 35.2233ZM59.4619 34.2033C60.1014 34.2033 60.6161 33.6745 60.6161 33.0267C60.6161 32.3788 60.1014 31.85 59.4619 31.85C58.8225 31.85 58.3077 32.3788 58.3077 33.0267C58.3077 33.6745 58.8225 34.2033 59.4619 34.2033ZM56.0774 34.2033C56.7168 34.2033 57.2316 33.6745 57.2316 33.0267C57.2316 32.3788 56.7168 31.85 56.0774 31.85C55.438 31.85 54.9232 32.3788 54.9232 33.0267C54.9232 33.6745 55.438 34.2033 56.0774 34.2033ZM39.3768 34.6H48.3097C48.9772 34.6 49.5194 34.0432 49.5194 33.3667C49.5194 32.6901 48.9772 32.1333 48.3097 32.1333H39.3768C38.7092 32.1333 38.1671 32.6901 38.1671 33.3667C38.1671 34.0432 38.7092 34.6 39.3768 34.6Z" fill="#E2211D" stroke="white" stroke-width="0.2"/>
</svg>
