<svg width="102" height="102" viewBox="0 0 102 102" fill="none" xmlns="http://www.w3.org/2000/svg">
<circle cx="51" cy="51" r="51" fill="white"/>
<path d="M76.15 48.95H65.1V47.25H67.65C68.1194 47.25 68.5 46.8694 68.5 46.4V43.85H69.35C69.8194 43.85 70.2 43.4694 70.2 43V34.5C70.195 29.8076 66.3924 26.005 61.7 26H36.2C31.5076 26.005 27.705 29.8076 27.7 34.5V39.6C27.6892 41.9969 29.2635 44.1127 31.5624 44.7909L36.2 46.1825V62.55C36.1963 65.8346 33.5346 68.4963 30.25 68.5C27.903 68.5 26 70.403 26 72.75C26 75.097 27.903 77 30.25 77H74.025C75.6681 77 77 75.6681 77 74.025C77 72.3819 75.6681 71.05 74.025 71.05H68.5V68.053C73.6681 65.7155 76.9917 60.5719 77 54.9V49.8C77 49.3306 76.6194 48.95 76.15 48.95ZM75.3 52.35H49.8V50.65H75.3V52.35ZM48.1 49.8V54.9C48.1083 60.5719 51.4319 65.7155 56.6 68.053V69.8999C50.4508 67.4583 46.4104 61.5161 46.4 54.9V45.9248C47.8435 44.5884 49.7386 43.8475 51.7059 43.85H56.6V46.4C56.6 46.8694 56.9806 47.25 57.45 47.25H60V48.95H48.95C48.4806 48.95 48.1 49.3306 48.1 49.8ZM63.4 48.95H61.7V47.25H63.4V48.95ZM66.8 45.55H58.3V43.85H66.8V45.55ZM29.4 35.35H68.5V38.75H29.4V35.35ZM36.2 27.7H61.7C65.1253 27.7042 68.014 30.2521 68.4465 33.65H29.4527C29.8856 30.2521 32.7747 27.7046 36.2 27.7ZM29.5004 40.45H68.5V42.15H51.7059C49.2953 42.1442 46.9728 43.056 45.2101 44.7H37.1741L32.0504 43.1623C30.7796 42.7742 29.8092 41.7424 29.5004 40.45ZM75.3 74.025C75.3 74.7293 74.7293 75.3 74.025 75.3H30.25C28.8418 75.3 27.7 74.1582 27.7 72.75C27.7 71.3418 28.8418 70.2 30.25 70.2C34.473 70.1954 37.8954 66.773 37.9 62.55V46.4H44.7V54.9C44.7112 64.7534 52.6966 72.7388 62.55 72.75H74.025C74.7293 72.75 75.3 73.3207 75.3 74.025ZM66.8 71.05H62.55C61.1136 71.0454 59.6842 70.8483 58.3 70.4636V68.71C61.0691 69.5633 64.0309 69.5633 66.8 68.71V71.05ZM62.55 67.65C55.5118 67.6421 49.8079 61.9382 49.8 54.9V54.05H75.3V54.9C75.2921 61.9382 69.5882 67.6421 62.55 67.65Z" fill="#E2211D"/>
</svg>
