<svg width="102" height="102" viewBox="0 0 102 102" fill="none" xmlns="http://www.w3.org/2000/svg">
<circle cx="51" cy="51" r="51" fill="white"/>
<path d="M76.334 45.5536C76.2957 45.5536 76.2579 45.5554 76.2198 45.5564V38.8246C76.2198 36.7158 74.4147 35.0001 72.196 35.0001H53.6749C53.0341 34.9963 52.4019 35.1422 51.832 35.4254C51.2621 35.7085 50.7715 36.1205 50.4018 36.6262C50.0268 36.1219 49.5328 35.7114 48.9607 35.4285C48.3886 35.1457 47.755 34.9988 47.1124 35.0001H28.4862C26.2675 35.0001 24.4625 36.7158 24.4625 38.8246V45.5582C21.9838 45.6598 20 47.6066 20 49.986V65.9717C20.0011 66.2452 20.1145 66.507 20.3152 66.6998C20.5159 66.8926 20.7876 67.0005 21.0706 67H28.2614C28.5444 67.0005 28.816 66.8926 29.0167 66.6998C29.2174 66.507 29.3308 66.2452 29.332 65.9717V61.3516L71.668 61.3636V65.9713C71.6692 66.2448 71.7826 66.5066 71.9833 66.6994C72.184 66.8922 72.4556 67.0002 72.7386 66.9996H79.9294C80.2124 67.0001 80.4841 66.8922 80.6847 66.6994C80.8854 66.5066 80.9988 66.2448 81 65.9713V49.9863C81.0006 47.5422 78.9068 45.5536 76.334 45.5536ZM51.8813 37.1471C52.1165 36.9193 52.3963 36.7391 52.7043 36.6169C53.0123 36.4946 53.3424 36.4328 53.6754 36.435H72.196C73.596 36.435 74.7349 37.5071 74.7349 38.8247V45.8218C73.8424 46.1267 73.069 46.6902 72.5201 47.4355C71.9713 48.1808 71.6737 49.0716 71.668 49.9863V50.6301L51.1405 50.6246L51.1429 38.9236C51.138 38.595 51.2007 38.2687 51.3274 37.9637C51.4542 37.6587 51.6424 37.3811 51.8813 37.1471ZM28.4862 36.435H47.1124C48.5123 36.435 49.6512 37.5071 49.6512 38.825L49.6559 50.6242L29.332 50.6187V49.9863C29.3249 49.0168 28.9905 48.0761 28.3796 47.3071C27.7687 46.538 26.9146 45.9827 25.9473 45.7256V38.8247C25.9473 37.5071 27.0863 36.435 28.4862 36.435ZM21.4848 65.565V49.9863C21.4848 48.3333 22.912 46.9885 24.666 46.9885C26.4201 46.9885 27.8471 48.3333 27.8471 49.9863V51.1954C27.8278 51.2882 27.8278 51.3837 27.8471 51.4765V65.565H21.4848ZM29.332 59.9168V52.0536L71.668 52.0649V59.9291L29.332 59.9168ZM79.5158 65.565H73.1529V49.9863C73.1529 48.3333 74.5799 46.9885 76.334 46.9885C78.088 46.9885 79.5152 48.3333 79.5152 49.9863L79.5158 65.565Z" fill="#E2211D"/>
</svg>
