<svg width="102" height="102" viewBox="0 0 102 102" fill="none" xmlns="http://www.w3.org/2000/svg">
<circle cx="51" cy="51" r="51" fill="white"/>
<path d="M64.7 64.3H65V64V29.875C65 28.8084 64.1217 27.95 63.05 27.95H39.95C38.8782 27.95 38 28.8084 38 29.875V64V64.3H38.3H64.7ZM38.3 66.95H38V67.25V72.125C38 73.1916 38.8782 74.05 39.95 74.05H63.05C64.1217 74.05 65 73.1916 65 72.125V67.25V66.95H64.7H38.3ZM39.95 25.3H63.05C65.6182 25.3 67.7 27.3567 67.7 29.875V72.125C67.7 74.6433 65.6182 76.7 63.05 76.7H39.95C37.3818 76.7 35.3 74.6433 35.3 72.125V29.875C35.3 27.3567 37.3818 25.3 39.95 25.3ZM52.4562 69.5647C52.9813 70.0818 52.9813 70.9183 52.4562 71.4354C51.9286 71.955 51.0713 71.955 50.5437 71.4354C50.0186 70.9183 50.0186 70.0818 50.5437 69.5647C51.0713 69.0451 51.9286 69.0451 52.4562 69.5647Z" fill="#E2211D" stroke="white" stroke-width="0.6"/>
</svg>
