<svg width="102" height="102" viewBox="0 0 102 102" fill="none" xmlns="http://www.w3.org/2000/svg">
<circle cx="51" cy="51" r="51" fill="white"/>
<path d="M70.135 25.2142C69.7675 25.5817 69.89 26.3692 70.3625 26.6842C70.9925 27.1042 71.675 26.7892 71.675 26.0892C71.675 25.2317 70.6775 24.6717 70.135 25.2142Z" fill="#E2211D"/>
<path d="M65.83 32.8967C65.3575 33.2817 65.235 33.8942 65.585 34.2442C65.935 34.5942 66.5475 34.4892 66.9325 33.9992C67.3 33.5267 67.265 33.1067 66.81 32.7392C66.4425 32.4592 66.3725 32.4592 65.83 32.8967Z" fill="#E2211D"/>
<path d="M49.5725 36.5542C47.9275 36.9742 47.2975 37.3767 46.8075 38.3567C46.4925 38.9517 46.4575 39.2667 46.5275 40.2117C46.58 40.8592 46.6675 41.5242 46.7375 41.7167C46.8425 42.0492 46.51 42.1367 41.715 43.2742C31.5825 45.6367 32.125 45.4967 31.845 45.9342C31.46 46.4942 31.775 47.0542 32.475 47.0542C33.1575 47.0542 69.5925 38.4967 69.89 38.2692C70.2225 37.9892 70.1525 37.1142 69.7675 36.9217C69.5225 36.7817 67.7375 37.1317 62.3825 38.4092C58.4975 39.3192 55.1725 40.0892 54.98 40.1067C54.7175 40.1417 54.595 39.9142 54.35 39.0392C53.9125 37.4642 52.9675 36.5367 51.55 36.3092C51.2 36.2567 50.3425 36.3617 49.5725 36.5542ZM51.9 38.2167C52.4075 38.4792 52.705 39.1267 52.81 40.1242L52.8625 40.6317L50.85 41.1217C49.7475 41.3842 48.75 41.6117 48.645 41.6292C48.3475 41.6292 47.9975 39.8442 48.2075 39.3367C48.435 38.7242 48.6975 38.5492 49.8 38.2517C51.06 37.9017 51.2875 37.9017 51.9 38.2167Z" fill="#E2211D"/>
<path d="M68.2625 41.8742C67.5275 42.1892 66.6525 43.2392 66.425 44.0617C66.0225 45.5667 66.95 47.3692 68.4025 47.9117C69.5575 48.3492 71.2725 47.9817 72.06 47.1067C72.515 46.6167 72.9 45.5667 72.9 44.8667C72.9 44.1667 72.515 43.1167 72.06 42.6267C71.2375 41.7167 69.435 41.3667 68.2625 41.8742ZM70.765 43.8517C71.4825 44.6392 71.15 45.9867 70.1525 46.3717C69.225 46.7217 68 45.8642 68 44.8842C68 44.3417 68.455 43.6767 68.9625 43.4492C69.6275 43.1692 70.2575 43.2917 70.765 43.8517Z" fill="#E2211D"/>
<path d="M57.9025 45.1292C56.73 45.8117 56.03 46.9317 56.0125 48.1567C56.0125 49.1367 56.2925 49.4517 57.0275 49.2592C57.3425 49.1892 57.5175 48.9967 57.5875 48.7167C57.64 48.4717 57.7275 48.0692 57.78 47.8067C57.9025 47.1942 58.795 46.3892 59.5125 46.2492C60.685 46.0392 62.225 47.2817 62.225 48.4367C62.225 49.0142 62.5225 49.3292 63.03 49.3292C63.7125 49.3292 64.01 48.8567 63.87 48.0342C63.3975 45.1642 60.405 43.6942 57.9025 45.1292Z" fill="#E2211D"/>
<path d="M30.9 51.9367C30.8125 52.1292 30.725 53.2667 30.725 54.4567V56.6442L29.36 56.6967C28.17 56.7667 27.89 56.8367 27.33 57.2742C26.385 57.9917 26 58.9192 26 60.5817C26 63.2942 27.12 64.5542 29.57 64.5542H30.69L30.76 68.8767C30.8125 72.8492 30.8475 73.2867 31.18 74.0217C31.7225 75.1767 32.545 76.0167 33.665 76.5767L34.6625 77.0667H66.3375L67.265 76.6467C68.4025 76.1392 69.61 74.8267 69.995 73.7067C70.2225 73.0592 70.275 72.0792 70.275 68.7192V64.5542H71.395C72.725 64.5542 73.32 64.3617 74.02 63.7142C74.7725 62.9967 75 62.2967 75 60.6167C75 58.9367 74.7725 58.2367 74.02 57.5192C73.32 56.8717 72.725 56.6792 71.395 56.6792H70.275V54.3517C70.275 52.7767 70.205 51.9542 70.065 51.8142C69.9075 51.6567 65.3225 51.6042 50.465 51.6042C31.4775 51.6042 31.075 51.6042 30.9 51.9367ZM68.525 62.9617C68.525 69.4542 68.455 72.9192 68.3325 73.2517C68.07 73.9517 67.335 74.6867 66.5125 75.0717C65.8475 75.3867 65.025 75.4042 50.535 75.4042C37.1475 75.4042 35.1875 75.3692 34.61 75.1417C33.7525 74.7742 33.1925 74.2317 32.8075 73.3917C32.51 72.7442 32.475 72.0442 32.475 62.9267V53.1792H68.525V62.9617ZM30.4275 58.6042C30.6725 58.9017 30.725 59.3217 30.725 60.9842V63.0142L29.64 62.9442C28.7475 62.8742 28.5025 62.7867 28.1525 62.3842C27.82 61.9817 27.75 61.7192 27.75 60.6517C27.75 59.2867 27.995 58.7092 28.695 58.4292C29.36 58.1667 30.1125 58.2367 30.4275 58.6042ZM72.865 58.8492C73.285 59.2692 73.3375 59.4442 73.3375 60.6167C73.3375 61.8067 73.3025 61.9642 72.865 62.4017C72.445 62.8217 72.235 62.8917 71.3775 62.8917H70.3625L70.31 60.8092C70.2925 59.6542 70.31 58.6042 70.3625 58.4642C70.4325 58.2717 70.695 58.2367 71.43 58.2892C72.1825 58.3592 72.4975 58.4817 72.865 58.8492Z" fill="#E2211D"/>
</svg>
