<svg id="Grupo_5" data-name="Grupo 5" xmlns="http://www.w3.org/2000/svg" width="46.679" height="64.872" viewBox="0 0 46.679 64.872">
  <path id="Caminho_46" data-name="Caminho 46" d="M-102.9,75.746a.892.892,0,0,1,.779-.89,1.225,1.225,0,0,1,.445-.056h16.135a.846.846,0,0,1,.779.835.811.811,0,0,1-.668.946,2.709,2.709,0,0,1-.668.056h-15.411a3.173,3.173,0,0,1-.723-.056A.755.755,0,0,1-102.9,75.746Z" transform="translate(107.963 -36.244)" fill="#fefefe"/>
  <path id="Caminho_47" data-name="Caminho 47" d="M-102.9,90.935V85.2a2.934,2.934,0,0,1,2.893-3,.986.986,0,0,1,1.057.779.905.905,0,0,1-.835,1.057c-1,.223-1.224.445-1.224,1.5v5.4c0,1,.389,1.391,1.391,1.391h11.572c1,0,1.391-.389,1.391-1.391V85.371c0-.946-.389-1.28-1.28-1.28h-7.455a2.939,2.939,0,0,1-.723-.056.847.847,0,0,1-.612-.946.846.846,0,0,1,.779-.835h8.012a2.982,2.982,0,0,1,3.227,3.227v5.564a2.972,2.972,0,0,1-3.283,3.227H-99.617A3.082,3.082,0,0,1-102.9,90.935Z" transform="translate(107.963 -39.527)" fill="#fefefe"/>
  <path id="Caminho_48" data-name="Caminho 48" d="M-86.129,52.9h-23.479c-1.669,0-2.392.723-2.392,2.392V89.008c0,1.669.723,2.392,2.392,2.392h23.479c1.725,0,2.448-.723,2.448-2.392V55.348C-83.737,53.623-84.46,52.9-86.129,52.9Zm-24.035,2.559c0-.5.111-.668.668-.668h23.2c.556,0,.668.167.668.668-.056,1.669,0,3.394,0,5.063,0,.445-.111.556-.556.556h-23.478c-.389,0-.556-.111-.556-.5C-110.108,58.853-110.108,57.184-110.164,55.459Zm0,8.123c0-.5.111-.612.612-.612H-86.3c.5,0,.612.167.612.612v19.25c0,.5-.111.556-.612.556h-23.367c-.5,0-.556-.111-.556-.612C-110.108,76.378-110.108,69.98-110.164,63.582Zm24.536,25.2c0,.5-.111.668-.668.668h-21.809c-.668,0-1.558.278-1.947-.111-.334-.334-.111-1.224-.111-1.892a14.547,14.547,0,0,0,0-1.558c-.056-.445.111-.612.556-.612h23.256c.612,0,.723.167.668.723C-85.684,86.894-85.684,87.84-85.628,88.785Zm-5.285-29.932a2.5,2.5,0,0,0,.612.056h.556c.556-.056.946-.389.89-.946a.878.878,0,0,0-.835-.946,5.362,5.362,0,0,0-1.335,0,.893.893,0,0,0-.723.89A.956.956,0,0,0-90.914,58.853Zm-5.063,0h1.113a.892.892,0,0,0,.89-.946.892.892,0,0,0-.89-.946h-1.224a.822.822,0,0,0-.779.89A.981.981,0,0,0-95.977,58.853Zm-4.451,0h.167c.835,0,1.224-.278,1.224-.946s-.389-.946-1.28-1h-.167c-.946,0-1.447.278-1.447.946C-101.874,58.575-101.429,58.853-100.428,58.853Zm-5.063,0h.556a.879.879,0,0,0,.89-.89.891.891,0,0,0-.835-1,2.244,2.244,0,0,0-.612,0c-.946,0-1.447.334-1.447.946C-106.937,58.575-106.492,58.853-105.491,58.853Z" transform="translate(112 -26.528)" fill="#fefefe"/>
  <path id="Caminho_49" data-name="Caminho 49" d="M-38.11,53.219c-.612,0-.89-.445-.89-1.168V41.368c0-.723.334-1.168.946-1.168.556,0,.946.445.946,1.168V52.051C-37.164,52.829-37.5,53.275-38.11,53.219Z" transform="translate(79.614 -20.894)" fill="#fefefe"/>
  <path id="Caminho_50" data-name="Caminho 50" d="M-38.154,82.852c-.556,0-.946-.445-.946-1.168V76.009c0-.723.334-1.168.946-1.113a.988.988,0,0,1,.946,1.113v5.675C-37.208,82.407-37.542,82.852-38.154,82.852Z" transform="translate(79.659 -36.285)" fill="#fefefe"/>
  <path id="Caminho_51" data-name="Caminho 51" d="M-54.042,8.894v59.03c0,1.613-.723,2.392-2.337,2.392H-69.231a.924.924,0,0,1-.89-.946.965.965,0,0,1,.89-.946h12.685c.445,0,.668-.056.668-.612V42.5c0-.5-.167-.612-.612-.612H-68.619a2.709,2.709,0,0,1-.668-.056.824.824,0,0,1-.723-.946.855.855,0,0,1,.779-.89,2.939,2.939,0,0,1,.723-.056h12.073c.5,0,.668-.111.668-.668V8.838c0-1.168-.334-1.5-1.5-1.5H-82.862c-1.168,0-1.5.334-1.5,1.5V28.7a.928.928,0,0,1-.89.946.924.924,0,0,1-.946-.89V9.061c0-2.059.612-2.893,2.5-3.561,0,.278-.278.334-.445.389a2.957,2.957,0,0,0-1.892,2.726V27.977a2.45,2.45,0,0,0,.111.89.734.734,0,0,0,.779.612.711.711,0,0,0,.612-.668,4.758,4.758,0,0,0,0-.89V9.005c.056-1.224.556-1.725,1.78-1.725h25.481c1.224,0,1.725.5,1.725,1.725V39.1c0,1-.167,1.168-1.224,1.168H-68.285a4.787,4.787,0,0,0-.89.056.592.592,0,0,0-.5.556.755.755,0,0,0,.389.723,3.106,3.106,0,0,0,1.224.167h11.072c1.335,0,1.391.056,1.391,1.391V67.2c0,1.391-.056,1.447-1.391,1.447H-68.285a4.786,4.786,0,0,0-.89.056.705.705,0,0,0-.556.668.719.719,0,0,0,.5.668,1.643,1.643,0,0,0,.723.111h12.24a1.924,1.924,0,0,0,2.17-2.114V8.5a2.906,2.906,0,0,0-1.669-2.559c-.167-.111-.445-.111-.5-.445A3.17,3.17,0,0,1-53.931,8,2.6,2.6,0,0,0-54.042,8.894Z" transform="translate(100.554 -5.5)" fill="#fefefe"/>
  <path id="Caminho_52" data-name="Caminho 52" d="M-54.042,8.894v59.03c0,1.613-.723,2.392-2.337,2.392H-69.231a.924.924,0,0,1-.89-.946.965.965,0,0,1,.89-.946h12.685c.445,0,.668-.056.668-.612V42.5c0-.5-.167-.612-.612-.612H-68.619a2.709,2.709,0,0,1-.668-.056.824.824,0,0,1-.723-.946.855.855,0,0,1,.779-.89,2.939,2.939,0,0,1,.723-.056h12.073c.5,0,.668-.111.668-.668V8.838c0-1.168-.334-1.5-1.5-1.5H-82.862c-1.168,0-1.5.334-1.5,1.5V28.7a.928.928,0,0,1-.89.946.924.924,0,0,1-.946-.89V9.061c0-2.059.612-2.893,2.5-3.561h27.484A3.17,3.17,0,0,1-53.875,8,1.8,1.8,0,0,0-54.042,8.894Z" transform="translate(100.554 -5.5)"/>
  <path id="Caminho_53" data-name="Caminho 53" d="M-102.9,75.746a.892.892,0,0,1,.779-.89,1.225,1.225,0,0,1,.445-.056h16.135a.846.846,0,0,1,.779.835.811.811,0,0,1-.668.946,2.709,2.709,0,0,1-.668.056h-15.411a3.173,3.173,0,0,1-.723-.056A.755.755,0,0,1-102.9,75.746Z" transform="translate(107.963 -36.244)"/>
  <path id="Caminho_54" data-name="Caminho 54" d="M-102.9,90.935V85.2a2.934,2.934,0,0,1,2.893-3,.986.986,0,0,1,1.057.779.905.905,0,0,1-.835,1.057c-1,.223-1.224.445-1.224,1.5v5.4c0,1,.389,1.391,1.391,1.391h11.572c1,0,1.391-.389,1.391-1.391V85.371c0-.946-.389-1.28-1.28-1.28h-7.455a2.939,2.939,0,0,1-.723-.056.847.847,0,0,1-.612-.946.846.846,0,0,1,.779-.835h8.012a2.982,2.982,0,0,1,3.227,3.227v5.564a2.972,2.972,0,0,1-3.283,3.227H-99.617A3.082,3.082,0,0,1-102.9,90.935Z" transform="translate(107.963 -39.527)"/>
  <path id="Caminho_55" data-name="Caminho 55" d="M-86.129,52.9h-23.479c-1.669,0-2.392.723-2.392,2.392V89.008c0,1.669.723,2.392,2.392,2.392h23.479c1.725,0,2.448-.723,2.448-2.392V55.348C-83.737,53.623-84.46,52.9-86.129,52.9Zm-24.035,2.559c0-.5.111-.668.668-.668h23.2c.556,0,.668.167.668.668-.056,1.669,0,3.394,0,5.063,0,.445-.111.556-.556.556h-23.478c-.389,0-.556-.111-.556-.5C-110.108,58.853-110.108,57.184-110.164,55.459Zm0,8.123c0-.5.111-.612.612-.612H-86.3c.5,0,.612.167.612.612v19.25c0,.5-.111.556-.612.556h-23.367c-.5,0-.556-.111-.556-.612C-110.108,76.378-110.108,69.98-110.164,63.582Zm24.536,25.2c0,.5-.111.668-.668.668h-21.809c-.668,0-1.558.278-1.947-.111-.334-.334-.111-1.224-.111-1.892a14.547,14.547,0,0,0,0-1.558c-.056-.445.111-.612.556-.612h23.256c.612,0,.723.167.668.723C-85.684,86.894-85.684,87.84-85.628,88.785Zm-5.285-29.932a2.5,2.5,0,0,0,.612.056h.556c.556-.056.946-.389.89-.946a.878.878,0,0,0-.835-.946,5.362,5.362,0,0,0-1.335,0,.893.893,0,0,0-.723.89A.956.956,0,0,0-90.914,58.853Zm-5.063,0h1.113a.892.892,0,0,0,.89-.946.892.892,0,0,0-.89-.946h-1.224a.822.822,0,0,0-.779.89A.981.981,0,0,0-95.977,58.853Zm-4.451,0h.167c.835,0,1.224-.278,1.224-.946s-.389-.946-1.28-1h-.167c-.946,0-1.447.278-1.447.946C-101.874,58.575-101.429,58.853-100.428,58.853Zm-5.063,0h.556a.879.879,0,0,0,.89-.89.891.891,0,0,0-.835-1,2.244,2.244,0,0,0-.612,0c-.946,0-1.447.334-1.447.946C-106.937,58.575-106.492,58.853-105.491,58.853Z" transform="translate(112 -26.528)"/>
  <path id="Caminho_56" data-name="Caminho 56" d="M-37.208,41.368V52.051c0,.779-.389,1.224-1,1.168-.612,0-.89-.445-.89-1.168V41.368c0-.723.334-1.168.946-1.168S-37.208,40.645-37.208,41.368Z" transform="translate(79.659 -20.894)"/>
  <path id="Caminho_57" data-name="Caminho 57" d="M-37.208,78.846v2.837c0,.723-.389,1.168-.946,1.168s-.946-.445-.946-1.168V76.009c0-.723.334-1.168.946-1.113a.988.988,0,0,1,.946,1.113C-37.153,76.955-37.208,77.9-37.208,78.846Z" transform="translate(79.659 -36.285)"/>
  <path id="Caminho_58" data-name="Caminho 58" d="M-102.9,75.746a.892.892,0,0,1,.779-.89,1.225,1.225,0,0,1,.445-.056h16.135a.846.846,0,0,1,.779.835.811.811,0,0,1-.668.946,2.709,2.709,0,0,1-.668.056h-15.411a3.173,3.173,0,0,1-.723-.056A.755.755,0,0,1-102.9,75.746Z" transform="translate(107.963 -36.244)" fill="#fefefe"/>
  <path id="Caminho_59" data-name="Caminho 59" d="M-84.807,85.427v5.564a2.972,2.972,0,0,1-3.283,3.227H-99.717A3.04,3.04,0,0,1-103,90.935V85.2a2.934,2.934,0,0,1,2.893-3,.986.986,0,0,1,1.057.779.905.905,0,0,1-.835,1.057c-1,.223-1.224.445-1.224,1.5v5.4c0,1,.389,1.391,1.391,1.391h11.572c1,0,1.391-.389,1.391-1.391V85.371c0-.946-.389-1.28-1.28-1.28h-7.455a2.939,2.939,0,0,1-.723-.056.847.847,0,0,1-.612-.946.846.846,0,0,1,.779-.835h8.012A2.913,2.913,0,0,1-84.807,85.427Z" transform="translate(108.007 -39.527)" fill="#fefefe"/>
  <path id="Caminho_60" data-name="Caminho 60" d="M-100.007,61.2a.915.915,0,0,1-.89.89h-.556c-.946,0-1.447-.278-1.447-.946,0-.612.5-.946,1.447-.946h.612A.921.921,0,0,1-100.007,61.2Z" transform="translate(107.963 -29.767)" fill="#fefefe"/>
  <path id="Caminho_61" data-name="Caminho 61" d="M-90.866,61.246c0,.612-.389.89-1.224.946h-.167c-1,0-1.5-.334-1.447-.946,0-.612.5-.946,1.447-.946h.167C-91.255,60.3-90.866,60.578-90.866,61.246Z" transform="translate(103.885 -29.811)" fill="#fefefe"/>
  <path id="Caminho_62" data-name="Caminho 62" d="M-81.763,61.257a.924.924,0,0,1-.89.946h-1.113a.878.878,0,0,1-.835-.946.822.822,0,0,1,.779-.89,4.5,4.5,0,0,1,1.224,0A.8.8,0,0,1-81.763,61.257Z" transform="translate(99.844 -29.822)" fill="#fefefe"/>
  <path id="Caminho_63" data-name="Caminho 63" d="M-72.663,61.139a.924.924,0,0,1-.89.946h-.556a2.086,2.086,0,0,1-.612-.056.855.855,0,0,1-.779-.89.844.844,0,0,1,.723-.89,3.592,3.592,0,0,1,1.335,0A.822.822,0,0,1-72.663,61.139Z" transform="translate(95.807 -29.76)" fill="#fefefe"/>
  <path id="Caminho_64" data-name="Caminho 64" d="M-84.807,85.427v5.564a2.972,2.972,0,0,1-3.283,3.227H-99.717A3.04,3.04,0,0,1-103,90.935V85.2a2.934,2.934,0,0,1,2.893-3,.986.986,0,0,1,1.057.779.905.905,0,0,1-.835,1.057c-1,.223-1.224.445-1.224,1.5v5.4c0,1,.389,1.391,1.391,1.391h11.572c1,0,1.391-.389,1.391-1.391V85.371c0-.946-.389-1.28-1.28-1.28h-7.455a2.939,2.939,0,0,1-.723-.056.847.847,0,0,1-.612-.946.846.846,0,0,1,.779-.835h8.012A2.913,2.913,0,0,1-84.807,85.427Z" transform="translate(108.007 -39.527)"/>
  <path id="Caminho_65" data-name="Caminho 65" d="M-84.825,75.69a.811.811,0,0,1-.668.946,2.708,2.708,0,0,1-.668.056h-15.411a3.172,3.172,0,0,1-.723-.056.788.788,0,0,1-.612-.89.892.892,0,0,1,.779-.89,1.225,1.225,0,0,1,.445-.056h16.135A.893.893,0,0,1-84.825,75.69Z" transform="translate(107.97 -36.244)" fill="#010101"/>
  <path id="Caminho_66" data-name="Caminho 66" d="M-90.866,61.246c0,.612-.389.89-1.224.946h-.167c-1,0-1.5-.334-1.447-.946,0-.612.5-.946,1.447-.946h.167C-91.255,60.3-90.866,60.578-90.866,61.246Z" transform="translate(103.885 -29.811)" fill="#020202"/>
  <path id="Caminho_67" data-name="Caminho 67" d="M-81.763,61.257a.924.924,0,0,1-.89.946h-1.113a.878.878,0,0,1-.835-.946.822.822,0,0,1,.779-.89,4.5,4.5,0,0,1,1.224,0A.8.8,0,0,1-81.763,61.257Z" transform="translate(99.844 -29.822)" fill="#020202"/>
  <path id="Caminho_68" data-name="Caminho 68" d="M-100.007,61.2a.915.915,0,0,1-.89.89h-.556c-.946,0-1.447-.278-1.447-.946,0-.612.5-.946,1.447-.946h.612A.921.921,0,0,1-100.007,61.2Z" transform="translate(107.963 -29.767)" fill="#020202"/>
  <path id="Caminho_69" data-name="Caminho 69" d="M-72.663,61.139a.924.924,0,0,1-.89.946h-.556a2.086,2.086,0,0,1-.612-.056.855.855,0,0,1-.779-.89.844.844,0,0,1,.723-.89,3.592,3.592,0,0,1,1.335,0A.822.822,0,0,1-72.663,61.139Z" transform="translate(95.807 -29.76)" fill="#020202"/>
</svg>
