<svg xmlns="http://www.w3.org/2000/svg" width="18.158" height="26.563" viewBox="0 0 18.158 26.563">
  <g id="Grupo_23" data-name="Grupo 23" transform="translate(241.43 -207.5)">
    <path id="Caminho_176" data-name="Caminho 176" d="M-223.045,214.756v6.936a1.379,1.379,0,0,1-1.205,1.525c-1.549.344-3.074.713-4.624,1.033-.2.049-.246.123-.3.32a5.552,5.552,0,0,0,.492,3.148,17.683,17.683,0,0,1,.984,2.46,8.983,8.983,0,0,1,.221,1.82v1.4a.692.692,0,0,1-.3.664,4.107,4.107,0,0,0,.221-2.238,6.688,6.688,0,0,0-.2-1.549,15.348,15.348,0,0,0-.984-2.484,5.565,5.565,0,0,1-.516-3.148c.049-.344.123-.418.467-.492,1.476-.32,2.976-.664,4.452-1.008a1.311,1.311,0,0,0,1.156-.984,2.166,2.166,0,0,0,.049-.418v-7.059a1.3,1.3,0,0,0-1.353-1.377h-3c-.172,0-.246-.1-.221-.271a6.231,6.231,0,0,1,.1-.713,2.581,2.581,0,0,0-2.558-3h-1.033c-.271,0-.32-.074-.32-.32v-.885c-.025-.394-.148-.541-.541-.541h-3.222c-.344,0-.492.148-.541.492-.025.271,0,.517,0,.787,0,.467-.025.492-.467.492a5.626,5.626,0,0,0-1.279.049,2.578,2.578,0,0,0-2.091,1.8c-.123.369-.148.394-.541.394h-.492a.373.373,0,0,0-.32.59,1.653,1.653,0,0,0,.172.271c.467.689.91,1.377,1.377,2.066a1.219,1.219,0,0,1,.2.492c.394,3.1.762,6.2,1.181,9.3a6.621,6.621,0,0,1-.713,4.181,7.314,7.314,0,0,0-.91,2.73,2.386,2.386,0,0,0-.025.418v1.279c0,.394-.074.812.246,1.131a.545.545,0,0,1-.32-.59,14.624,14.624,0,0,1,.172-2.927,8.442,8.442,0,0,1,.615-1.722,8.158,8.158,0,0,0,.91-2.484,7.1,7.1,0,0,0-.049-2.041l-.664-5.239-.516-4.206a.909.909,0,0,0-.123-.271c-.516-.762-1.008-1.525-1.525-2.287a.485.485,0,0,1-.1-.566.48.48,0,0,1,.541-.221.774.774,0,0,0,.984-.59,2.518,2.518,0,0,1,2.46-1.648h1.107c.123,0,.172-.025.172-.148v-1.058c0-.394.172-.541.566-.541h3.32c.394,0,.541.172.541.566v.984c0,.172.025.221.221.221a10.522,10.522,0,0,1,1.525.025A2.686,2.686,0,0,1-227.4,211.9a6.2,6.2,0,0,1-.148,1.156c-.025.172.025.2.172.2h2.927A1.358,1.358,0,0,1-223.045,214.756Z" transform="translate(-0.226)" fill="#e2211d"/>
    <path id="Caminho_177" data-name="Caminho 177" d="M-217.463,288.6a2.2,2.2,0,0,0-2.238,2.189A2.194,2.194,0,0,0-217.537,293a2.241,2.241,0,0,0,2.263-2.189A2.248,2.248,0,0,0-217.463,288.6Zm-.025,3.517a1.323,1.323,0,0,1-1.328-1.328,1.334,1.334,0,0,1,1.3-1.328,1.338,1.338,0,0,1,1.328,1.328A1.318,1.318,0,0,1-217.488,292.116Z" transform="translate(-16.384 -61.152)" fill="#e2211d"/>
    <path id="Caminho_178" data-name="Caminho 178" d="M-235.225,223.267c-.074-1.451-.148-2.927-.2-4.378-.074-1.451-.148-2.878-.221-4.329-.025-.344-.025-.344-.394-.344-.516.025-.516.025-.492.516.123,2.705.271,5.411.394,8.141,0,.2-.049.467.049.59.123.148.394,0,.615.025C-235.249,223.562-235.225,223.464-235.225,223.267Zm3.271-9.051c-.148,0-.172.049-.2.2-.074,1.476-.148,2.976-.246,5.067-.025.689-.1,2.017-.172,3.32-.049.713-.049.713.664.738.172,0,.2-.049.2-.2.123-2.8.271-5.583.394-8.387C-231.24,214.241-231.216,214.241-231.953,214.216Zm0,0c-.148,0-.172.049-.2.2-.074,1.476-.148,2.976-.246,5.067-.025.689-.1,2.017-.172,3.32-.049.713-.049.713.664.738.172,0,.2-.049.2-.2.123-2.8.271-5.583.394-8.387C-231.24,214.241-231.216,214.241-231.953,214.216Zm-3.271,9.051c-.074-1.451-.148-2.927-.2-4.378-.074-1.451-.148-2.878-.221-4.329-.025-.344-.025-.344-.394-.344-.516.025-.516.025-.492.516.123,2.705.271,5.411.394,8.141,0,.2-.049.467.049.59.123.148.394,0,.615.025C-235.249,223.562-235.225,223.464-235.225,223.267Zm0,0c-.074-1.451-.148-2.927-.2-4.378-.074-1.451-.148-2.878-.221-4.329-.025-.344-.025-.344-.394-.344-.516.025-.516.025-.492.516.123,2.705.271,5.411.394,8.141,0,.2-.049.467.049.59.123.148.394,0,.615.025C-235.249,223.562-235.225,223.464-235.225,223.267Zm3.271-9.051c-.148,0-.172.049-.2.2-.074,1.476-.148,2.976-.246,5.067-.025.689-.1,2.017-.172,3.32-.049.713-.049.713.664.738.172,0,.2-.049.2-.2.123-2.8.271-5.583.394-8.387C-231.24,214.241-231.216,214.241-231.953,214.216Zm0,0c-.148,0-.172.049-.2.2-.074,1.476-.148,2.976-.246,5.067-.025.689-.1,2.017-.172,3.32-.049.713-.049.713.664.738.172,0,.2-.049.2-.2.123-2.8.271-5.583.394-8.387C-231.24,214.241-231.216,214.241-231.953,214.216Zm-3.271,9.051c-.074-1.451-.148-2.927-.2-4.378-.074-1.451-.148-2.878-.221-4.329-.025-.344-.025-.344-.394-.344-.516.025-.516.025-.492.516.123,2.705.271,5.411.394,8.141,0,.2-.049.467.049.59.123.148.394,0,.615.025C-235.249,223.562-235.225,223.464-235.225,223.267Zm0,0c-.074-1.451-.148-2.927-.2-4.378-.074-1.451-.148-2.878-.221-4.329-.025-.344-.025-.344-.394-.344-.516.025-.516.025-.492.516.123,2.705.271,5.411.394,8.141,0,.2-.049.467.049.59.123.148.394,0,.615.025C-235.249,223.562-235.225,223.464-235.225,223.267Zm3.271-9.051c-.148,0-.172.049-.2.2-.074,1.476-.148,2.976-.246,5.067-.025.689-.1,2.017-.172,3.32-.049.713-.049.713.664.738.172,0,.2-.049.2-.2.123-2.8.271-5.583.394-8.387C-231.24,214.241-231.216,214.241-231.953,214.216Zm0,0c-.148,0-.172.049-.2.2-.074,1.476-.148,2.976-.246,5.067-.025.689-.1,2.017-.172,3.32-.049.713-.049.713.664.738.172,0,.2-.049.2-.2.123-2.8.271-5.583.394-8.387C-231.24,214.241-231.216,214.241-231.953,214.216Zm-3.492,4.7c-.074-1.451-.148-2.878-.221-4.329-.025-.344-.025-.344-.394-.344-.516.025-.516.025-.492.516.123,2.705.271,5.411.394,8.141,0,.2-.049.467.049.59.123.148.394,0,.615.025.2.025.246-.049.221-.246C-235.3,221.816-235.372,220.365-235.446,218.914Zm10.7-5.558h-2.927c-.148,0-.2-.025-.172-.2A6.2,6.2,0,0,0-227.7,212a2.706,2.706,0,0,0-2.238-2.607,10.526,10.526,0,0,0-1.525-.025c-.2,0-.221-.049-.221-.221.025-.32,0-.664,0-.984,0-.394-.172-.566-.541-.566h-3.32c-.394,0-.541.148-.566.541V209.2c0,.123-.049.172-.172.148h-1.107a2.456,2.456,0,0,0-2.46,1.648.774.774,0,0,1-.984.59.516.516,0,0,0-.541.221.485.485,0,0,0,.1.566c.516.762,1.008,1.525,1.525,2.287.049.1.123.172.123.271l.516,4.206.664,5.239a7.1,7.1,0,0,1,.049,2.041,8.158,8.158,0,0,1-.91,2.484,6.832,6.832,0,0,0-.615,1.722,14.518,14.518,0,0,0-.172,2.927.578.578,0,0,0,.32.59h11.781a.692.692,0,0,0,.3-.664v-1.4a8.985,8.985,0,0,0-.221-1.82,17.683,17.683,0,0,0-.984-2.46,5.552,5.552,0,0,1-.492-3.148c.025-.2.074-.271.3-.32,1.549-.344,3.074-.689,4.624-1.033a1.379,1.379,0,0,0,1.205-1.525v-6.936A1.346,1.346,0,0,0-224.747,213.355Zm-4.476,10.084a4.716,4.716,0,0,0,.074-.541c0-.271.123-.369.369-.418,1.058-.221,2.115-.467,3.148-.689.492-.1.59-.221.59-.713v-5.313c0-.516-.148-.639-.639-.639h-2.238c-.172,0-.2-.049-.172-.2.049-.221,0-.516.123-.639s.418-.049.639-.049h2.558c.443,0,.59.148.59.59v6.985c0,.344-.1.517-.418.59l-4.575,1.033C-229.15,223.464-229.174,223.439-229.223,223.439Zm-.861-.172c-.074.467-.123.935-.2,1.4-.025.148-.074.2-.2.2h-6.837c-.172,0-.172-.1-.2-.2-.123-1.008-.246-2.041-.369-3.05-.221-1.722-.418-3.443-.639-5.165-.074-.492-.123-.984-.172-1.5a1.459,1.459,0,0,0-.246-.713c-.394-.566-.762-1.131-1.156-1.746h11.215c.271,0,.271.1.246.3-.246,1.771-.467,3.517-.713,5.288C-229.617,219.775-229.838,221.521-230.084,223.267Zm-7.256-13.011h6.887a1.794,1.794,0,0,1,1.746,1.131c.049.123.074.2-.123.2h-10.305A1.783,1.783,0,0,1-237.34,210.256Zm2.8-1.771h1.771c.148,0,.221.025.2.2-.025.221.1.492-.049.639-.123.123-.418.025-.615.049h-1.82c-.123,0-.148-.025-.172-.148C-235.249,208.485-235.249,208.485-234.536,208.485Zm6.493,7.526h1.918c.172,0,.2.049.2.221v4.55c0,.172-.074.221-.221.246-.935.2-1.869.418-2.828.615.1-.713.172-1.4.271-2.115.148-1.107.3-2.214.443-3.345C-228.24,216.036-228.19,216.011-228.043,216.011Zm-.541,17.143c0,.172-.148.1-.221.1h-10.109c-.2,0-.271-.049-.246-.246a7.7,7.7,0,0,1,.32-2.8,11.876,11.876,0,0,1,.566-1.279,7.09,7.09,0,0,0,.861-2.927c0-.2.074-.271.271-.271h6.616c.172,0,.246.025.271.221a7.564,7.564,0,0,0,.639,2.287,13.622,13.622,0,0,1,.935,2.337A15.219,15.219,0,0,1-228.584,233.154Zm-3.37-18.938c-.148,0-.172.049-.2.2-.074,1.476-.148,2.976-.246,5.067-.025.689-.1,2.017-.172,3.32-.049.713-.049.713.664.738.172,0,.2-.049.2-.2.123-2.8.271-5.583.394-8.387C-231.24,214.241-231.216,214.241-231.953,214.216Zm-3.492,4.7c-.074-1.451-.148-2.878-.221-4.329-.025-.344-.025-.344-.394-.344-.516.025-.516.025-.492.516.123,2.705.271,5.411.394,8.141,0,.2-.049.467.049.59.123.148.394,0,.615.025.2.025.246-.049.221-.246C-235.3,221.816-235.372,220.365-235.446,218.914Zm.221,4.353c-.074-1.451-.148-2.927-.2-4.378-.074-1.451-.148-2.878-.221-4.329-.025-.344-.025-.344-.394-.344-.516.025-.516.025-.492.516.123,2.705.271,5.411.394,8.141,0,.2-.049.467.049.59.123.148.394,0,.615.025C-235.249,223.562-235.225,223.464-235.225,223.267Zm3.271-9.051c-.148,0-.172.049-.2.2-.074,1.476-.148,2.976-.246,5.067-.025.689-.1,2.017-.172,3.32-.049.713-.049.713.664.738.172,0,.2-.049.2-.2.123-2.8.271-5.583.394-8.387C-231.24,214.241-231.216,214.241-231.953,214.216Zm0,0c-.148,0-.172.049-.2.2-.074,1.476-.148,2.976-.246,5.067-.025.689-.1,2.017-.172,3.32-.049.713-.049.713.664.738.172,0,.2-.049.2-.2.123-2.8.271-5.583.394-8.387C-231.24,214.241-231.216,214.241-231.953,214.216Zm-3.271,9.051c-.074-1.451-.148-2.927-.2-4.378-.074-1.451-.148-2.878-.221-4.329-.025-.344-.025-.344-.394-.344-.516.025-.516.025-.492.516.123,2.705.271,5.411.394,8.141,0,.2-.049.467.049.59.123.148.394,0,.615.025C-235.249,223.562-235.225,223.464-235.225,223.267Zm0,0c-.074-1.451-.148-2.927-.2-4.378-.074-1.451-.148-2.878-.221-4.329-.025-.344-.025-.344-.394-.344-.516.025-.516.025-.492.516.123,2.705.271,5.411.394,8.141,0,.2-.049.467.049.59.123.148.394,0,.615.025C-235.249,223.562-235.225,223.464-235.225,223.267Zm3.271-9.051c-.148,0-.172.049-.2.2-.074,1.476-.148,2.976-.246,5.067-.025.689-.1,2.017-.172,3.32-.049.713-.049.713.664.738.172,0,.2-.049.2-.2.123-2.8.271-5.583.394-8.387C-231.24,214.241-231.216,214.241-231.953,214.216Zm0,0c-.148,0-.172.049-.2.2-.074,1.476-.148,2.976-.246,5.067-.025.689-.1,2.017-.172,3.32-.049.713-.049.713.664.738.172,0,.2-.049.2-.2.123-2.8.271-5.583.394-8.387C-231.24,214.241-231.216,214.241-231.953,214.216Zm-3.271,9.051c-.074-1.451-.148-2.927-.2-4.378-.074-1.451-.148-2.878-.221-4.329-.025-.344-.025-.344-.394-.344-.516.025-.516.025-.492.516.123,2.705.271,5.411.394,8.141,0,.2-.049.467.049.59.123.148.394,0,.615.025C-235.249,223.562-235.225,223.464-235.225,223.267Z" transform="translate(0 -0.075)" fill="#e2211d"/>
    <path id="Caminho_179" data-name="Caminho 179" d="M-220.146,243.626c0,.2-.025.271-.221.246-.221-.025-.492.123-.615-.025-.1-.123-.049-.394-.049-.59-.123-2.705-.271-5.411-.394-8.141-.025-.516-.025-.516.492-.516.369,0,.369,0,.394.344.074,1.451.148,2.878.221,4.329C-220.293,240.724-220.219,242.175-220.146,243.626Z" transform="translate(-15.079 -20.435)" fill="#e2211d"/>
    <path id="Caminho_180" data-name="Caminho 180" d="M-204,235.238c-.123,2.8-.271,5.583-.394,8.387,0,.148-.025.2-.2.2-.713-.025-.713-.025-.664-.738.074-1.3.123-2.632.172-3.32.1-2.091.172-3.591.246-5.067,0-.148.025-.2.2-.2C-203.953,234.525-203.977,234.525-204,235.238Z" transform="translate(-27.263 -20.359)" fill="#e2211d"/>
    <path id="Caminho_181" data-name="Caminho 181" d="M-217.463,288.6a2.2,2.2,0,0,0-2.238,2.189A2.194,2.194,0,0,0-217.537,293a2.241,2.241,0,0,0,2.263-2.189A2.248,2.248,0,0,0-217.463,288.6Zm-.025,3.517a1.323,1.323,0,0,1-1.328-1.328,1.334,1.334,0,0,1,1.3-1.328,1.338,1.338,0,0,1,1.328,1.328A1.318,1.318,0,0,1-217.488,292.116Z" transform="translate(-16.384 -61.152)" fill="#e2211d"/>
    <path id="Caminho_182" data-name="Caminho 182" d="M-220.367,243.972c-.221-.025-.492.123-.615-.025-.1-.123-.049-.394-.049-.59-.123-2.705-.271-5.411-.394-8.141-.025-.517-.025-.517.492-.517.369,0,.369,0,.394.344.074,1.451.148,2.878.221,4.329s.123,2.927.2,4.378C-220.146,243.9-220.17,244-220.367,243.972Z" transform="translate(-15.079 -20.51)" fill="#e2211d"/>
    <path id="Caminho_183" data-name="Caminho 183" d="M-204,235.238c-.123,2.8-.271,5.583-.394,8.387,0,.148-.025.2-.2.2-.713-.025-.713-.025-.664-.738.074-1.3.123-2.632.172-3.32.1-2.091.172-3.591.246-5.067,0-.148.025-.2.2-.2C-203.953,234.525-203.977,234.525-204,235.238Z" transform="translate(-27.263 -20.359)" fill="#e2211d"/>
    <path id="Caminho_184" data-name="Caminho 184" d="M-217.463,288.6a2.2,2.2,0,0,0-2.238,2.189A2.194,2.194,0,0,0-217.537,293a2.241,2.241,0,0,0,2.263-2.189A2.248,2.248,0,0,0-217.463,288.6Zm-.025,3.517a1.323,1.323,0,0,1-1.328-1.328,1.334,1.334,0,0,1,1.3-1.328,1.338,1.338,0,0,1,1.328,1.328A1.318,1.318,0,0,1-217.488,292.116Z" transform="translate(-16.384 -61.152)" fill="#e2211d"/>
  </g>
</svg>
