<svg id="Grupo_5" data-name="Grupo 5" xmlns="http://www.w3.org/2000/svg" width="15.83" height="22" viewBox="0 0 15.83 22">
  <path id="Caminho_46" data-name="Caminho 46" d="M-102.9,75.121a.3.3,0,0,1,.264-.3.415.415,0,0,1,.151-.019h5.472a.287.287,0,0,1,.264.283.275.275,0,0,1-.226.321.919.919,0,0,1-.226.019h-5.226a1.076,1.076,0,0,1-.245-.019A.256.256,0,0,1-102.9,75.121Z" transform="translate(104.617 -61.724)" fill="#e2211d"/>
  <path id="Caminho_47" data-name="Caminho 47" d="M-102.9,85.162V83.219a1,1,0,0,1,.981-1.019.334.334,0,0,1,.359.264.307.307,0,0,1-.283.358c-.34.075-.415.151-.415.509v1.83c0,.34.132.472.472.472h3.925c.34,0,.472-.132.472-.472V83.275c0-.321-.132-.434-.434-.434h-2.528a1,1,0,0,1-.245-.019.287.287,0,0,1-.208-.321.287.287,0,0,1,.264-.283h2.717a1.011,1.011,0,0,1,1.094,1.094V85.2a1.008,1.008,0,0,1-1.113,1.094h-3.943A1.045,1.045,0,0,1-102.9,85.162Z" transform="translate(104.617 -67.728)" fill="#e2211d"/>
  <path id="Caminho_48" data-name="Caminho 48" d="M-103.226,52.9h-7.962c-.566,0-.811.245-.811.811V65.145c0,.566.245.811.811.811h7.962c.585,0,.83-.245.83-.811V53.73C-102.415,53.145-102.66,52.9-103.226,52.9Zm-8.151.868c0-.17.038-.226.226-.226h7.868c.189,0,.226.057.226.226-.019.566,0,1.151,0,1.717,0,.151-.038.189-.189.189h-7.962c-.132,0-.189-.038-.189-.17C-111.358,54.919-111.358,54.353-111.377,53.768Zm0,2.755c0-.17.038-.208.208-.208h7.887c.17,0,.208.057.208.208v6.528c0,.17-.038.189-.208.189h-7.925c-.17,0-.189-.038-.189-.208C-111.358,60.862-111.358,58.692-111.377,56.523Zm8.321,8.547c0,.17-.038.226-.226.226h-7.4c-.226,0-.528.094-.66-.038-.113-.113-.038-.415-.038-.642a4.933,4.933,0,0,0,0-.528c-.019-.151.038-.208.189-.208h7.887c.208,0,.245.057.226.245C-103.075,64.428-103.075,64.749-103.057,65.07Zm-1.792-10.151a.846.846,0,0,0,.208.019h.189c.189-.019.321-.132.3-.321a.3.3,0,0,0-.283-.321,1.819,1.819,0,0,0-.453,0,.3.3,0,0,0-.245.3A.324.324,0,0,0-104.849,54.919Zm-1.717,0h.377a.3.3,0,0,0,.3-.321.3.3,0,0,0-.3-.321h-.415a.279.279,0,0,0-.264.3A.333.333,0,0,0-106.566,54.919Zm-1.509,0h.057c.283,0,.415-.094.415-.321s-.132-.321-.434-.34h-.057c-.321,0-.491.094-.491.321C-108.566,54.825-108.415,54.919-108.075,54.919Zm-1.717,0h.189a.3.3,0,0,0,.3-.3.3.3,0,0,0-.283-.34.761.761,0,0,0-.208,0c-.321,0-.491.113-.491.321C-110.283,54.825-110.132,54.919-109.792,54.919Z" transform="translate(112 -43.957)" fill="#e2211d"/>
  <path id="Caminho_49" data-name="Caminho 49" d="M-38.7,44.615c-.208,0-.3-.151-.3-.4V40.6c0-.245.113-.4.321-.4.189,0,.321.151.321.4v3.623C-38.377,44.483-38.491,44.634-38.7,44.615Z" transform="translate(52.774 -33.653)" fill="#e2211d"/>
  <path id="Caminho_50" data-name="Caminho 50" d="M-38.779,77.591c-.189,0-.321-.151-.321-.4V75.271c0-.245.113-.4.321-.377a.335.335,0,0,1,.321.377V77.2C-38.458,77.44-38.572,77.591-38.779,77.591Z" transform="translate(52.855 -61.799)" fill="#e2211d"/>
  <path id="Caminho_51" data-name="Caminho 51" d="M-75.294,6.651V26.67c0,.547-.245.811-.792.811h-4.359a.313.313,0,0,1-.3-.321.327.327,0,0,1,.3-.321h4.3c.151,0,.226-.019.226-.208V18.047c0-.17-.057-.208-.208-.208h-4.113a.919.919,0,0,1-.226-.019.279.279,0,0,1-.245-.321.29.29,0,0,1,.264-.3,1,1,0,0,1,.245-.019h4.094c.17,0,.226-.038.226-.226V6.632c0-.4-.113-.509-.509-.509h-8.679c-.4,0-.509.113-.509.509v6.736a.315.315,0,0,1-.3.321.313.313,0,0,1-.321-.3V6.708A1.062,1.062,0,0,1-85.351,5.5c0,.094-.094.113-.151.132a1,1,0,0,0-.642.925v6.566a.831.831,0,0,0,.038.3.249.249,0,0,0,.264.208.241.241,0,0,0,.208-.226,1.616,1.616,0,0,0,0-.3V6.689c.019-.415.189-.585.6-.585h8.642c.415,0,.585.17.585.585V16.9c0,.34-.057.4-.415.4h-3.906a1.623,1.623,0,0,0-.3.019.2.2,0,0,0-.17.189.256.256,0,0,0,.132.245,1.053,1.053,0,0,0,.415.057h3.755c.453,0,.472.019.472.472v8.151c0,.472-.019.491-.472.491h-3.83a1.623,1.623,0,0,0-.3.019.239.239,0,0,0-.189.226.244.244,0,0,0,.17.226.557.557,0,0,0,.245.038h4.151a.653.653,0,0,0,.736-.717V6.519a.986.986,0,0,0-.566-.868c-.057-.038-.151-.038-.17-.151a1.075,1.075,0,0,1,.792.849A.883.883,0,0,0-75.294,6.651Z" transform="translate(91.068 -5.5)" fill="#e2211d"/>
  <path id="Caminho_52" data-name="Caminho 52" d="M-75.294,6.651V26.67c0,.547-.245.811-.792.811h-4.359a.313.313,0,0,1-.3-.321.327.327,0,0,1,.3-.321h4.3c.151,0,.226-.019.226-.208V18.047c0-.17-.057-.208-.208-.208h-4.113a.919.919,0,0,1-.226-.019.279.279,0,0,1-.245-.321.29.29,0,0,1,.264-.3,1,1,0,0,1,.245-.019h4.094c.17,0,.226-.038.226-.226V6.632c0-.4-.113-.509-.509-.509h-8.679c-.4,0-.509.113-.509.509v6.736a.315.315,0,0,1-.3.321.313.313,0,0,1-.321-.3V6.708A1.062,1.062,0,0,1-85.351,5.5h9.321a1.075,1.075,0,0,1,.792.849A.61.61,0,0,0-75.294,6.651Z" transform="translate(91.068 -5.5)" fill="#e2211d"/>
  <path id="Caminho_53" data-name="Caminho 53" d="M-102.9,75.121a.3.3,0,0,1,.264-.3.415.415,0,0,1,.151-.019h5.472a.287.287,0,0,1,.264.283.275.275,0,0,1-.226.321.919.919,0,0,1-.226.019h-5.226a1.076,1.076,0,0,1-.245-.019A.256.256,0,0,1-102.9,75.121Z" transform="translate(104.617 -61.724)" fill="#e2211d"/>
  <path id="Caminho_54" data-name="Caminho 54" d="M-102.9,85.162V83.219a1,1,0,0,1,.981-1.019.334.334,0,0,1,.359.264.307.307,0,0,1-.283.358c-.34.075-.415.151-.415.509v1.83c0,.34.132.472.472.472h3.925c.34,0,.472-.132.472-.472V83.275c0-.321-.132-.434-.434-.434h-2.528a1,1,0,0,1-.245-.019.287.287,0,0,1-.208-.321.287.287,0,0,1,.264-.283h2.717a1.011,1.011,0,0,1,1.094,1.094V85.2a1.008,1.008,0,0,1-1.113,1.094h-3.943A1.045,1.045,0,0,1-102.9,85.162Z" transform="translate(104.617 -67.728)" fill="#e2211d"/>
  <path id="Caminho_55" data-name="Caminho 55" d="M-103.226,52.9h-7.962c-.566,0-.811.245-.811.811V65.145c0,.566.245.811.811.811h7.962c.585,0,.83-.245.83-.811V53.73C-102.415,53.145-102.66,52.9-103.226,52.9Zm-8.151.868c0-.17.038-.226.226-.226h7.868c.189,0,.226.057.226.226-.019.566,0,1.151,0,1.717,0,.151-.038.189-.189.189h-7.962c-.132,0-.189-.038-.189-.17C-111.358,54.919-111.358,54.353-111.377,53.768Zm0,2.755c0-.17.038-.208.208-.208h7.887c.17,0,.208.057.208.208v6.528c0,.17-.038.189-.208.189h-7.925c-.17,0-.189-.038-.189-.208C-111.358,60.862-111.358,58.692-111.377,56.523Zm8.321,8.547c0,.17-.038.226-.226.226h-7.4c-.226,0-.528.094-.66-.038-.113-.113-.038-.415-.038-.642a4.933,4.933,0,0,0,0-.528c-.019-.151.038-.208.189-.208h7.887c.208,0,.245.057.226.245C-103.075,64.428-103.075,64.749-103.057,65.07Zm-1.792-10.151a.846.846,0,0,0,.208.019h.189c.189-.019.321-.132.3-.321a.3.3,0,0,0-.283-.321,1.819,1.819,0,0,0-.453,0,.3.3,0,0,0-.245.3A.324.324,0,0,0-104.849,54.919Zm-1.717,0h.377a.3.3,0,0,0,.3-.321.3.3,0,0,0-.3-.321h-.415a.279.279,0,0,0-.264.3A.333.333,0,0,0-106.566,54.919Zm-1.509,0h.057c.283,0,.415-.094.415-.321s-.132-.321-.434-.34h-.057c-.321,0-.491.094-.491.321C-108.566,54.825-108.415,54.919-108.075,54.919Zm-1.717,0h.189a.3.3,0,0,0,.3-.3.3.3,0,0,0-.283-.34.761.761,0,0,0-.208,0c-.321,0-.491.113-.491.321C-110.283,54.825-110.132,54.919-109.792,54.919Z" transform="translate(112 -43.957)" fill="#e2211d"/>
  <path id="Caminho_56" data-name="Caminho 56" d="M-38.458,40.6v3.623c0,.264-.132.415-.34.4-.208,0-.3-.151-.3-.4V40.6c0-.245.113-.4.321-.4S-38.458,40.351-38.458,40.6Z" transform="translate(52.855 -33.653)" fill="#e2211d"/>
  <path id="Caminho_57" data-name="Caminho 57" d="M-38.458,76.233V77.2c0,.245-.132.4-.321.4s-.321-.151-.321-.4V75.271c0-.245.113-.4.321-.377a.335.335,0,0,1,.321.377C-38.44,75.591-38.458,75.912-38.458,76.233Z" transform="translate(52.855 -61.799)" fill="#e2211d"/>
  <path id="Caminho_58" data-name="Caminho 58" d="M-102.9,75.121a.3.3,0,0,1,.264-.3.415.415,0,0,1,.151-.019h5.472a.287.287,0,0,1,.264.283.275.275,0,0,1-.226.321.919.919,0,0,1-.226.019h-5.226a1.076,1.076,0,0,1-.245-.019A.256.256,0,0,1-102.9,75.121Z" transform="translate(104.617 -61.724)" fill="#e2211d"/>
  <path id="Caminho_59" data-name="Caminho 59" d="M-96.83,83.294v1.887a1.008,1.008,0,0,1-1.113,1.094h-3.943A1.031,1.031,0,0,1-103,85.162V83.219a1,1,0,0,1,.981-1.019.334.334,0,0,1,.359.264.307.307,0,0,1-.283.358c-.34.075-.415.151-.415.509v1.83c0,.34.132.472.472.472h3.925c.34,0,.472-.132.472-.472V83.275c0-.321-.132-.434-.434-.434h-2.528a1,1,0,0,1-.245-.019.287.287,0,0,1-.208-.321.287.287,0,0,1,.264-.283h2.717A.988.988,0,0,1-96.83,83.294Z" transform="translate(104.698 -67.728)" fill="#e2211d"/>
  <path id="Caminho_60" data-name="Caminho 60" d="M-101.919,60.54a.31.31,0,0,1-.3.3h-.189c-.321,0-.491-.094-.491-.321,0-.208.17-.321.491-.321h.208A.312.312,0,0,1-101.919,60.54Z" transform="translate(104.617 -49.879)" fill="#e2211d"/>
  <path id="Caminho_61" data-name="Caminho 61" d="M-92.744,60.621c0,.208-.132.3-.415.321h-.057c-.34,0-.509-.113-.491-.321,0-.208.17-.321.491-.321h.057C-92.876,60.3-92.744,60.394-92.744,60.621Z" transform="translate(97.159 -49.96)" fill="#e2211d"/>
  <path id="Caminho_62" data-name="Caminho 62" d="M-83.638,60.641a.313.313,0,0,1-.3.321h-.377a.3.3,0,0,1-.283-.321.279.279,0,0,1,.264-.3,1.526,1.526,0,0,1,.415,0A.273.273,0,0,1-83.638,60.641Z" transform="translate(89.77 -49.981)" fill="#e2211d"/>
  <path id="Caminho_63" data-name="Caminho 63" d="M-74.538,60.508a.313.313,0,0,1-.3.321h-.189a.707.707,0,0,1-.208-.019.29.29,0,0,1-.264-.3.286.286,0,0,1,.245-.3,1.218,1.218,0,0,1,.453,0A.279.279,0,0,1-74.538,60.508Z" transform="translate(82.387 -49.867)" fill="#e2211d"/>
  <path id="Caminho_64" data-name="Caminho 64" d="M-96.83,83.294v1.887a1.008,1.008,0,0,1-1.113,1.094h-3.943A1.031,1.031,0,0,1-103,85.162V83.219a1,1,0,0,1,.981-1.019.334.334,0,0,1,.359.264.307.307,0,0,1-.283.358c-.34.075-.415.151-.415.509v1.83c0,.34.132.472.472.472h3.925c.34,0,.472-.132.472-.472V83.275c0-.321-.132-.434-.434-.434h-2.528a1,1,0,0,1-.245-.019.287.287,0,0,1-.208-.321.287.287,0,0,1,.264-.283h2.717A.988.988,0,0,1-96.83,83.294Z" transform="translate(104.698 -67.728)" fill="#e2211d"/>
  <path id="Caminho_65" data-name="Caminho 65" d="M-96.78,75.1a.275.275,0,0,1-.226.321.918.918,0,0,1-.226.019h-5.226a1.075,1.075,0,0,1-.245-.019.267.267,0,0,1-.208-.3.3.3,0,0,1,.264-.3.415.415,0,0,1,.151-.019h5.472A.3.3,0,0,1-96.78,75.1Z" transform="translate(104.629 -61.724)" fill="#e2211d"/>
  <path id="Caminho_66" data-name="Caminho 66" d="M-92.744,60.621c0,.208-.132.3-.415.321h-.057c-.34,0-.509-.113-.491-.321,0-.208.17-.321.491-.321h.057C-92.876,60.3-92.744,60.394-92.744,60.621Z" transform="translate(97.159 -49.96)" fill="#e2211d"/>
  <path id="Caminho_67" data-name="Caminho 67" d="M-83.638,60.641a.313.313,0,0,1-.3.321h-.377a.3.3,0,0,1-.283-.321.279.279,0,0,1,.264-.3,1.526,1.526,0,0,1,.415,0A.273.273,0,0,1-83.638,60.641Z" transform="translate(89.77 -49.981)" fill="#e2211d"/>
  <path id="Caminho_68" data-name="Caminho 68" d="M-101.919,60.54a.31.31,0,0,1-.3.3h-.189c-.321,0-.491-.094-.491-.321,0-.208.17-.321.491-.321h.208A.312.312,0,0,1-101.919,60.54Z" transform="translate(104.617 -49.879)" fill="#e2211d"/>
  <path id="Caminho_69" data-name="Caminho 69" d="M-74.538,60.508a.313.313,0,0,1-.3.321h-.189a.707.707,0,0,1-.208-.019.29.29,0,0,1-.264-.3.286.286,0,0,1,.245-.3,1.218,1.218,0,0,1,.453,0A.279.279,0,0,1-74.538,60.508Z" transform="translate(82.387 -49.867)" fill="#e2211d"/>
</svg>
