<svg width="34" height="34" viewBox="0 0 34 34" fill="none" xmlns="http://www.w3.org/2000/svg">
<path d="M33.601 16.8C33.601 26.1 26.101 33.6 16.801 33.6C7.50099 33.6 0.0009885 26.1 0.0009885 16.8C-0.0990115 7.5 7.40098 0 16.701 0C26.001 0 33.601 7.5 33.601 16.8Z" fill="#878787"/>
<path d="M14.101 25.7V16.5H12.501V13.8H14.101V13.3C14.101 11.9 14.501 10.3 15.601 9.3C16.501 8.3 17.801 8 18.901 8C19.701 8 20.401 8.1 20.901 8.2L20.801 11.1C20.501 11 20.101 10.9 19.601 10.9C18.401 10.9 17.901 11.9 17.901 13V13.6H20.301V16.3H17.901V25.5H14.101V25.7Z" fill="white"/>
</svg>
