<svg width="35" height="35" viewBox="0 0 35 35" fill="none" xmlns="http://www.w3.org/2000/svg">
<path fill-rule="evenodd" clip-rule="evenodd" d="M16.2229 25.1111H29V23.2222H16.2229C15.8444 22.123 14.8256 21.3333 13.6305 21.3333C12.4355 21.3333 11.4166 22.123 11.0382 23.2222H6V25.1111H11.0382C11.4166 26.2104 12.4355 27 13.6305 27C14.8256 27 15.8445 26.2104 16.2229 25.1111ZM13.6305 25.1111C14.1368 25.1111 14.5472 24.6883 14.5472 24.1667C14.5472 23.6451 14.1368 23.2222 13.6305 23.2222C13.1243 23.2222 12.7139 23.6451 12.7139 24.1667C12.7139 24.6883 13.1243 25.1111 13.6305 25.1111Z" fill="#585958"/>
<path fill-rule="evenodd" clip-rule="evenodd" d="M26.0923 18.4444H29V16.5556H26.0923C25.7139 15.4563 24.695 14.6667 23.5 14.6667C22.305 14.6667 21.2861 15.4563 20.9077 16.5556H6V18.4444H20.9077C21.2861 19.5437 22.305 20.3333 23.5 20.3333C24.695 20.3333 25.7139 19.5437 26.0923 18.4444ZM23.5 18.4444C24.0063 18.4444 24.4167 18.0216 24.4167 17.5C24.4167 16.9784 24.0063 16.5556 23.5 16.5556C22.9937 16.5556 22.5833 16.9784 22.5833 17.5C22.5833 18.0216 22.9937 18.4444 23.5 18.4444Z" fill="#585958"/>
<path fill-rule="evenodd" clip-rule="evenodd" d="M14.0923 11.7778H29V9.88889H14.0923C13.7139 8.78962 12.695 8 11.5 8C10.305 8 9.28607 8.78962 8.90767 9.88889H6V11.7778H8.90767C9.28607 12.877 10.305 13.6667 11.5 13.6667C12.695 13.6667 13.7139 12.877 14.0923 11.7778ZM11.5 11.7778C12.0063 11.7778 12.4167 11.3549 12.4167 10.8333C12.4167 10.3117 12.0063 9.88889 11.5 9.88889C10.9937 9.88889 10.5833 10.3117 10.5833 10.8333C10.5833 11.3549 10.9937 11.7778 11.5 11.7778Z" fill="#585958"/>
</svg>
