<svg width="66" height="22" viewBox="0 0 66 22" fill="none" xmlns="http://www.w3.org/2000/svg">
<path d="M63.0825 0H2.91753C1.30622 0 0 1.30622 0 2.91753V18.6717C0 20.283 1.30622 21.5892 2.91753 21.5892H63.0825C64.6938 21.5892 66 20.283 66 18.6717V2.91753C66 1.30622 64.6938 0 63.0825 0Z" fill="black"/>
<path d="M4.95117 4.15628V11.4662V18.7762L12.3231 11.4662L4.95117 4.15628Z" fill="url(#paint0_linear)"/>
<path d="M14.3025 9.5036L11.3269 7.78483L4.95117 4.10339V4.1563L12.3231 11.4663L14.3025 9.5036Z" fill="url(#paint1_linear)"/>
<path d="M4.95117 18.7762V18.8304L11.3269 15.1477L14.3025 13.4302L12.3231 11.4663L4.95117 18.7762Z" fill="url(#paint2_linear)"/>
<path d="M14.3027 9.5036L12.3232 11.4663L14.3027 13.4302L17.7041 11.4663L14.3027 9.5036Z" fill="url(#paint3_linear)"/>
<path d="M51.3647 14.3231C51.1037 14.3269 50.8449 14.2745 50.6059 14.1696C50.3759 14.0662 50.1773 13.9037 50.0304 13.6986H49.9827C50.0138 13.9326 50.0297 14.1684 50.0304 14.4044V16.1554H49.3853V9.99521H49.9014L49.9917 10.5772H50.0227C50.1677 10.3611 50.3671 10.1871 50.6008 10.0726C50.8382 9.96554 51.0965 9.91265 51.3569 9.91779C51.9213 9.91779 52.3565 10.1105 52.6628 10.4959C52.969 10.8813 53.1222 11.4215 53.1222 12.1166C53.1222 12.816 52.9665 13.3588 52.6551 13.745C52.4997 13.9351 52.3022 14.0863 52.0782 14.1867C51.8542 14.287 51.6099 14.3338 51.3647 14.3231V14.3231ZM51.2718 10.4636C50.8374 10.4636 50.5229 10.5836 50.3285 10.8236C50.135 11.0649 50.0356 11.4469 50.0304 11.9721V12.1166C50.0304 12.7188 50.1298 13.1463 50.3285 13.3992C50.5285 13.6573 50.8447 13.7863 51.2873 13.7863C51.4571 13.7917 51.6256 13.7536 51.7767 13.6757C51.9277 13.5978 52.0564 13.4827 52.1505 13.3411C52.3587 13.0426 52.4628 12.6323 52.4628 12.1101C52.4628 11.5811 52.3583 11.1733 52.1505 10.8907C52.0506 10.7527 51.918 10.6416 51.7647 10.5673C51.6114 10.493 51.442 10.4579 51.2718 10.4649V10.4636Z" fill="#F9F9F9"/>
<path d="M54.6203 14.247H53.9751V8.21063H54.6203V14.247Z" fill="#F9F9F9"/>
<path d="M58.3249 14.247L58.1958 13.6418H58.1649C57.9995 13.8698 57.7824 14.0551 57.5313 14.1825C57.281 14.2849 57.0119 14.3332 56.7416 14.3244C56.3192 14.3244 55.9889 14.2161 55.7506 13.9993C55.5106 13.7812 55.3918 13.4728 55.3918 13.0715C55.3918 12.2112 56.08 11.7613 57.4564 11.7218L58.1778 11.6985V11.4405C58.1778 11.1075 58.1068 10.8611 57.9623 10.7024C57.8178 10.5437 57.5829 10.452 57.2681 10.452C56.8479 10.4689 56.4369 10.5801 56.0654 10.7772L55.8732 10.2895C56.0912 10.1729 56.3226 10.0832 56.5622 10.0223C56.8074 9.9584 57.0598 9.92588 57.3132 9.92557C57.8199 9.92557 58.1954 10.0378 58.4397 10.2624C58.6849 10.4882 58.8062 10.8482 58.8062 11.345V14.247H58.3249ZM56.8693 13.7928C57.2153 13.8127 57.5551 13.6943 57.8139 13.4638C57.9322 13.3421 58.0239 13.1971 58.083 13.038C58.1421 12.8789 58.1674 12.7093 58.1571 12.5399V12.1528L57.5119 12.1786C56.9958 12.1979 56.6306 12.2766 56.4048 12.4186C56.2939 12.4869 56.2038 12.5842 56.144 12.6999C56.0842 12.8156 56.057 12.9454 56.0654 13.0754C56.0586 13.1742 56.0741 13.2733 56.1107 13.3653C56.1473 13.4573 56.2042 13.5399 56.277 13.607C56.4449 13.7387 56.655 13.8048 56.868 13.7928H56.8693Z" fill="#F9F9F9"/>
<path d="M59.1738 9.99524H59.8642L60.7958 12.4198C60.9493 12.8104 61.076 13.2109 61.1752 13.6186H61.2062C61.241 13.4896 61.3107 13.2612 61.4178 12.9412C61.5249 12.6211 61.8772 11.6405 62.4707 9.99524H63.1624L61.3352 14.8393C61.1537 15.3176 60.9421 15.657 60.7003 15.8574C60.4494 16.0615 60.1333 16.1682 59.81 16.1581C59.6141 16.1581 59.4189 16.1361 59.228 16.0922V15.5761C59.3851 15.6085 59.5451 15.6241 59.7055 15.6226C60.1485 15.6226 60.4638 15.3744 60.6513 14.878L60.8887 14.2728L59.1738 9.99524Z" fill="#F9F9F9"/>
<path d="M39.4352 10.3901C39.6273 10.5268 39.7845 10.7067 39.8941 10.9155C40.0037 11.1242 40.0627 11.3557 40.0662 11.5914C40.0662 12.2482 39.6933 12.5605 39.3191 12.8534C39.203 12.9696 39.0701 13.0934 39.0701 13.2896C39.0746 13.3679 39.0979 13.444 39.1381 13.5114C39.1783 13.5788 39.2342 13.6355 39.301 13.6767L39.6223 13.9257C40.0094 14.2548 40.3682 14.558 40.3682 15.1709C40.3682 16.0071 39.5591 16.8484 38.03 16.8484C36.7396 16.8484 36.1177 16.2342 36.1177 15.5761C36.1177 15.2561 36.2777 14.8019 36.8029 14.4909C37.3539 14.1528 38.101 14.1038 38.501 14.0819C38.372 13.9219 38.2339 13.7528 38.2339 13.478C38.2372 13.3571 38.2676 13.2384 38.3229 13.1309C38.2249 13.1399 38.1281 13.1476 38.0378 13.1476C37.0958 13.1476 36.5629 12.4457 36.5629 11.7527C36.5674 11.525 36.6206 11.3008 36.7187 11.0952C36.8168 10.8896 36.9577 10.7073 37.1319 10.5604C37.639 10.1424 38.2429 10.0714 38.7242 10.0714H40.5553L39.9862 10.3914L39.4352 10.3901ZM38.8029 14.3386C38.7353 14.3307 38.6672 14.3277 38.5991 14.3296C38.2827 14.3354 37.9685 14.3836 37.6648 14.4728C37.47 14.5438 36.9009 14.7567 36.9009 15.389C36.9009 16.0213 37.5139 16.4742 38.4662 16.4742C39.3191 16.4742 39.7733 16.0639 39.7733 15.5129C39.7733 15.0587 39.4855 14.82 38.8029 14.3386V14.3386ZM39.061 12.6495C39.2165 12.4718 39.2962 12.2402 39.283 12.0044C39.283 11.3592 38.8959 10.3682 38.1629 10.3682C38.0442 10.3699 37.9273 10.397 37.82 10.4478C37.7127 10.4985 37.6176 10.5717 37.541 10.6624C37.4024 10.8529 37.3332 11.0851 37.3448 11.3205C37.3448 11.9166 37.6919 12.9037 38.4571 12.9037C38.6837 12.8965 38.8992 12.8044 39.061 12.6457V12.6495Z" fill="#F9F9F9"/>
<path d="M33.8362 14.1941C33.5551 14.2036 33.275 14.1565 33.0125 14.0554C32.75 13.9544 32.5105 13.8016 32.3083 13.606C32.1062 13.4105 31.9454 13.1762 31.8357 12.9172C31.726 12.6582 31.6695 12.3798 31.6697 12.0985C31.6697 10.9372 32.6194 9.94105 33.9704 9.94105C34.2487 9.93497 34.5254 9.98492 34.784 10.0879C35.0425 10.1909 35.2778 10.3449 35.4757 10.5406C35.6736 10.7363 35.8301 10.9699 35.936 11.2273C36.0418 11.4848 36.0948 11.7609 36.0918 12.0392C36.0918 13.087 35.284 14.1941 33.8362 14.1941ZM34.9459 13.4754C35.1394 13.1844 35.2332 12.8384 35.213 12.4895C35.213 11.7076 34.8401 10.2159 33.7381 10.2159C33.4443 10.2187 33.1611 10.3262 32.9394 10.5191C32.5936 10.8288 32.5304 11.2198 32.5304 11.6018C32.5304 12.4805 32.9665 13.9244 34.0414 13.9244C34.2164 13.9249 34.3891 13.8849 34.5461 13.8074C34.703 13.73 34.8399 13.6172 34.9459 13.478V13.4754Z" fill="#F9F9F9"/>
<path d="M29.0245 14.1941C27.6051 14.1941 26.8567 13.0934 26.8567 12.0986C26.8567 10.9372 27.8077 9.94105 29.1574 9.94105C29.4357 9.93497 29.7124 9.98492 29.971 10.0879C30.2296 10.1909 30.4648 10.3449 30.6627 10.5406C30.8606 10.7363 31.0171 10.9699 31.123 11.2273C31.2288 11.4848 31.2818 11.7609 31.2788 12.0392C31.2788 13.087 30.471 14.1941 29.0245 14.1941ZM30.1342 13.4754C30.3273 13.1843 30.4206 12.8383 30.4 12.4895C30.4 11.7076 30.0271 10.2159 28.9264 10.2159C28.6332 10.22 28.3509 10.3285 28.1303 10.5217C27.7832 10.8314 27.7212 11.2224 27.7212 11.6043C27.7212 12.4831 28.1561 13.927 29.231 13.927C29.4059 13.9267 29.5785 13.886 29.7351 13.8082C29.8918 13.7303 30.0284 13.6173 30.1342 13.478V13.4754Z" fill="#F9F9F9"/>
<path d="M26.179 14.0573L24.9016 14.3515C24.4156 14.4411 23.9233 14.492 23.4293 14.5038C20.9659 14.5038 20.0278 12.6908 20.0278 11.2714C20.0278 9.53973 21.3582 7.93451 23.6344 7.93451C24.0963 7.93531 24.5559 7.99824 25.0009 8.12161C25.4249 8.23049 25.8246 8.41829 26.179 8.67518L25.4371 9.37973L25.1248 9.4507L25.348 9.09326C25.0448 8.79906 24.4912 8.25452 23.4383 8.25452C22.0279 8.25452 20.9659 9.32682 20.9659 10.8882C20.9659 12.5657 22.1802 14.1464 24.1248 14.1464C24.5146 14.1559 24.9018 14.0797 25.259 13.9231V12.4869L23.9119 12.5579L24.6254 12.1708H26.5184L26.2861 12.394C26.2621 12.4101 26.2418 12.431 26.2265 12.4555C26.2111 12.48 26.2011 12.5074 26.1971 12.536C26.1868 12.6173 26.179 12.8766 26.179 12.9657V14.0573Z" fill="#F9F9F9"/>
<path d="M42.2557 13.807C41.9615 13.7799 41.8996 13.727 41.8996 13.3786V8.31904C41.8996 8.29968 41.8996 8.28032 41.8996 8.26226C41.9357 7.94999 42.0286 7.89579 42.3022 7.7345H41.0337L40.364 8.05709H41.0466V13.5683C41.0466 13.7463 41.0118 13.7734 40.8066 14.0405H42.386L42.7112 13.8457C42.5602 13.8263 42.408 13.8186 42.2557 13.807Z" fill="#F9F9F9"/>
<path d="M45.8883 13.8831C45.7915 13.936 45.6934 13.998 45.5967 14.0418C45.3252 14.1592 45.0317 14.2168 44.736 14.2109C44.3154 14.2298 43.9004 14.1081 43.5566 13.8651C42.9282 13.4212 42.6533 12.6586 42.6533 11.994C42.6533 10.6198 43.7708 9.94619 44.6831 9.94619C45.0048 9.94163 45.3213 10.0275 45.5967 10.1939C45.9068 10.3968 46.1282 10.71 46.216 11.0701L44.1308 11.914L43.4482 11.9682C43.6701 13.0934 44.4327 13.7489 45.2754 13.7489C45.656 13.7373 46.0276 13.6308 46.3567 13.4392L45.8883 13.8831ZM45.056 11.2404C45.2237 11.1785 45.3141 11.1256 45.3141 11.0017C45.3141 10.6469 44.9153 10.2391 44.4366 10.2391C44.0805 10.2391 43.4172 10.514 43.4172 11.4714C43.4172 11.6211 43.434 11.7811 43.443 11.9411L45.056 11.2404Z" fill="#F9F9F9"/>
<path d="M46.7451 10.0068V10.5926H46.6728V10.0068H46.4792V9.94617H46.9373V10.0068H46.7451Z" fill="#F9F9F9"/>
<path d="M47.5427 10.5927V10.0017L47.3569 10.5927H47.3014L47.1195 10.0017V10.5927H47.0549V9.94748H47.1646L47.3298 10.4636L47.4911 9.94748H47.6033V10.5927H47.5427Z" fill="#F9F9F9"/>
<path d="M21.8072 6.19379H21.3646C21.3371 6.01821 21.2939 5.84547 21.2355 5.67764H20.5903C20.5299 5.84488 20.4867 6.01781 20.4613 6.19379H20.0432C20.0432 6.15895 20.1516 5.86216 20.3671 5.3073C20.4962 5.00847 20.6044 4.70105 20.691 4.38727H21.2149C21.294 4.69404 21.3918 4.99569 21.5078 5.29053C21.6259 5.58522 21.7259 5.88687 21.8072 6.19379ZM21.162 5.41957C21.0045 4.94213 20.9245 4.68405 20.9245 4.64534H20.9039C20.8353 4.9074 20.7535 5.1658 20.6587 5.41957H21.162Z" fill="#FDFDFD"/>
<path d="M23.5892 6.1938H23.246C23.246 6.15681 23.1169 5.9568 22.8589 5.59378C22.5931 5.20666 22.4408 4.94859 22.4034 4.81052H22.3814C22.4034 4.99295 22.415 5.17647 22.4163 5.36022C22.4163 5.58904 22.4227 5.8669 22.4356 6.1938H22.095C22.1092 5.90734 22.1156 5.59378 22.1156 5.25054C22.1156 4.9073 22.1092 4.626 22.095 4.38986H22.5066C22.5066 4.43889 22.6206 4.63417 22.8485 4.97569C23.0185 5.20378 23.1594 5.45215 23.2679 5.71507H23.2886C23.2677 5.53083 23.2565 5.34562 23.255 5.16021C23.255 4.90988 23.2486 4.6518 23.2357 4.38599H23.5828C23.5699 4.61438 23.5634 4.90214 23.5634 5.24667C23.5634 5.59119 23.5763 5.91379 23.5892 6.1938Z" fill="#FDFDFD"/>
<path d="M25.5985 5.23118C25.5997 5.48432 25.5079 5.72909 25.3404 5.91895C25.252 6.01764 25.1426 6.09521 25.0202 6.14591C24.8978 6.19661 24.7656 6.21915 24.6333 6.21186C24.4965 6.21186 24.3081 6.21186 24.0681 6.19509C24.0793 5.91637 24.0853 5.60194 24.0862 5.25182C24.0862 4.91547 24.0802 4.62857 24.0681 4.39114H24.3107H24.4875H24.6423C24.9752 4.39114 25.2178 4.47502 25.3675 4.64148C25.5163 4.80175 25.5989 5.01247 25.5985 5.23118V5.23118ZM25.2191 5.29053C25.2238 5.12701 25.1687 4.9674 25.0643 4.84148C25.0039 4.77775 24.9301 4.72834 24.8481 4.69685C24.7662 4.66537 24.6782 4.65262 24.5907 4.65954C24.5359 4.66045 24.4811 4.66476 24.4268 4.67245C24.4359 4.85697 24.441 5.05052 24.441 5.25182C24.441 5.45312 24.441 5.69184 24.4539 5.90862C24.5134 5.92038 24.5739 5.92643 24.6346 5.92669C24.7175 5.93307 24.8007 5.91967 24.8775 5.88759C24.9542 5.85551 25.0222 5.80566 25.0759 5.74217C25.1735 5.61223 25.224 5.45297 25.2191 5.29053Z" fill="#FDFDFD"/>
<path d="M27.4503 6.19379H27.0399C26.9819 5.98304 26.8992 5.7799 26.7935 5.5886C26.7599 5.54848 26.7172 5.51709 26.6689 5.49709C26.6206 5.47709 26.5681 5.46908 26.516 5.47376H26.3625C26.3625 5.71118 26.3625 5.9512 26.3754 6.1925H25.9883C26.0003 5.91377 26.0063 5.59935 26.0063 5.24923C26.0063 4.91287 26.0003 4.62598 25.9883 4.38855H26.2283H26.4025C26.4902 4.38855 26.5715 4.38855 26.6464 4.38855C27.0713 4.38855 27.2834 4.53393 27.2825 4.8247C27.2844 4.93373 27.2498 5.04025 27.184 5.12726C27.1183 5.21427 27.0253 5.27675 26.9199 5.30472V5.32665C27.0273 5.36405 27.1154 5.44247 27.1651 5.54473C27.2762 5.75368 27.3715 5.97063 27.4503 6.19379V6.19379ZM26.9341 4.91889C26.9341 4.73566 26.8167 4.64275 26.5793 4.64275C26.5023 4.64195 26.4254 4.64843 26.3496 4.66211C26.3599 4.80534 26.3651 4.99245 26.3651 5.22213H26.4941C26.7832 5.22729 26.9303 5.12406 26.9303 4.92018L26.9341 4.91889Z" fill="#FDFDFD"/>
<path d="M29.4374 5.25956C29.4473 5.51957 29.3546 5.77305 29.1793 5.96539C29.0983 6.05572 28.9986 6.12749 28.8873 6.17582C28.776 6.22414 28.6555 6.24788 28.5341 6.24541C28.4196 6.24803 28.3057 6.22639 28.2001 6.18191C28.0945 6.13744 27.9994 6.07112 27.9212 5.98733C27.8387 5.90013 27.7744 5.79736 27.7321 5.68503C27.6898 5.5727 27.6703 5.45307 27.6748 5.33311C27.6651 5.07352 27.7578 4.82051 27.9328 4.62857C28.0138 4.53811 28.1134 4.46624 28.2248 4.41791C28.3361 4.36957 28.4566 4.34592 28.578 4.34856C28.6925 4.34634 28.8063 4.36816 28.9118 4.41261C29.0174 4.45707 29.1125 4.52316 29.1909 4.60663C29.2733 4.69368 29.3375 4.79624 29.3798 4.90833C29.4221 5.02043 29.4417 5.13982 29.4374 5.25956V5.25956ZM29.0503 5.30085C29.0584 5.13162 29.0068 4.96491 28.9045 4.82987C28.8622 4.77308 28.8074 4.72687 28.7442 4.69486C28.6811 4.66284 28.6114 4.64589 28.5406 4.64534C28.4731 4.64592 28.4068 4.66261 28.3471 4.69404C28.2874 4.72546 28.236 4.7707 28.1974 4.826C28.0994 4.95862 28.0493 5.12059 28.0554 5.28537C28.0482 5.45471 28.1012 5.62115 28.2051 5.75506C28.2478 5.81146 28.303 5.85714 28.3664 5.88849C28.4297 5.91985 28.4996 5.93602 28.5703 5.93572C28.6379 5.9351 28.7043 5.91826 28.7641 5.8866C28.8238 5.85493 28.8751 5.80938 28.9135 5.75377C29.01 5.62286 29.06 5.46343 29.0555 5.30085H29.0503Z" fill="#FDFDFD"/>
<path d="M30.2206 6.1938H29.8335C29.8464 5.90734 29.8516 5.59378 29.8516 5.25054C29.8516 4.9073 29.8516 4.626 29.8335 4.38986H30.2206C30.209 4.62213 30.2025 4.90601 30.2025 5.25054C30.2025 5.59507 30.209 5.91508 30.2206 6.1938Z" fill="#FDFDFD"/>
<path d="M32.2298 5.23118C32.2311 5.48432 32.1392 5.72909 31.9718 5.91895C31.8834 6.01764 31.774 6.09521 31.6516 6.14591C31.5292 6.19661 31.3969 6.21915 31.2646 6.21186C31.1279 6.21186 30.9395 6.21186 30.6995 6.19509C30.7115 5.91637 30.7175 5.60194 30.7175 5.25182C30.7175 4.91547 30.7115 4.62857 30.6995 4.39114H30.9421H31.1188H31.2737C31.6066 4.39114 31.8483 4.47459 31.9989 4.64148C32.1478 4.80168 32.2303 5.01245 32.2298 5.23118V5.23118ZM31.8518 5.29053C31.8564 5.12701 31.8013 4.9674 31.6969 4.84148C31.6369 4.77836 31.5637 4.7293 31.4825 4.69784C31.4013 4.66638 31.3141 4.6533 31.2272 4.65954C31.1728 4.66045 31.1185 4.66476 31.0646 4.67245C31.0737 4.85697 31.0775 5.05052 31.0775 5.25182C31.0775 5.45312 31.0775 5.69184 31.0917 5.90862C31.1512 5.92038 31.2117 5.92643 31.2724 5.92669C31.3553 5.93307 31.4385 5.91967 31.5153 5.88759C31.592 5.85551 31.66 5.80566 31.7137 5.74217C31.8095 5.61156 31.8581 5.45236 31.8518 5.29053V5.29053Z" fill="#FDFDFD"/>
<path d="M34.8955 6.1938H34.4529C34.4261 6.01809 34.3829 5.84529 34.3238 5.67765H33.6786C33.6189 5.84509 33.5757 6.01796 33.5496 6.1938H33.1328C33.1328 6.15896 33.2399 5.86218 33.4567 5.30732C33.5856 5.00944 33.6934 4.70287 33.7793 4.38986H34.3045C34.3829 4.69685 34.4807 4.99854 34.5974 5.29312C34.7143 5.58726 34.8138 5.888 34.8955 6.1938V6.1938ZM34.2503 5.41184C34.1576 5.1581 34.0784 4.89967 34.0128 4.63761H33.9909C33.9909 4.67374 33.9083 4.93182 33.7457 5.41184H34.2503Z" fill="#FDFDFD"/>
<path d="M36.5175 4.86342C36.5239 4.95951 36.5043 5.05555 36.461 5.14155C36.4176 5.22755 36.3521 5.30038 36.2711 5.35247C36.0899 5.46294 35.8805 5.5181 35.6685 5.51118H35.5756C35.5756 5.68409 35.5756 5.91378 35.5898 6.19766H35.2026C35.2147 5.93184 35.2203 5.61742 35.2194 5.2544C35.2194 4.92148 35.2138 4.63459 35.2026 4.39372H35.4426H35.6401C35.7369 4.39372 35.8207 4.39372 35.8982 4.39372C36.0552 4.38847 36.2102 4.43026 36.3433 4.51373C36.3998 4.55235 36.4454 4.60474 36.4759 4.66594C36.5063 4.72714 36.5207 4.79512 36.5175 4.86342V4.86342ZM36.1601 4.93955C36.1601 4.74212 36.0311 4.64276 35.7665 4.64276C35.6968 4.64356 35.6273 4.65047 35.5588 4.66341C35.5691 4.8389 35.573 5.03633 35.573 5.25698C35.6001 5.2584 35.6272 5.2584 35.6543 5.25698C35.9859 5.25956 36.1549 5.15375 36.1549 4.93955H36.1601Z" fill="#FDFDFD"/>
<path d="M38.1745 4.86343C38.1809 4.95941 38.1616 5.05536 38.1185 5.14135C38.0754 5.22734 38.0101 5.30023 37.9293 5.35249C37.7478 5.46313 37.5379 5.5183 37.3254 5.5112H37.2325C37.2325 5.68411 37.2325 5.9138 37.248 6.19768H36.8608C36.8729 5.93186 36.8789 5.61744 36.8789 5.25442C36.8789 4.9215 36.8729 4.63461 36.8608 4.39374H37.1021L37.2918 4.38729C37.3899 4.38729 37.4738 4.38729 37.5499 4.38729C37.7069 4.38219 37.8619 4.42397 37.9951 4.50729C38.0534 4.54588 38.1007 4.59904 38.1321 4.66151C38.1636 4.72398 38.1782 4.79359 38.1745 4.86343V4.86343ZM37.817 4.93957C37.817 4.74214 37.688 4.64278 37.4235 4.64278C37.3537 4.64363 37.2842 4.65054 37.2157 4.66343C37.226 4.83892 37.2312 5.03634 37.2312 5.257C37.2578 5.2584 37.2845 5.2584 37.3112 5.257C37.6493 5.25958 37.817 5.15377 37.817 4.93957Z" fill="#FDFDFD"/>
<path d="M40.8931 5.25955C40.903 5.51956 40.8103 5.77304 40.635 5.96538C40.5539 6.05564 40.4543 6.12737 40.343 6.17568C40.2316 6.224 40.1112 6.24778 39.9899 6.24539C39.8755 6.24799 39.7618 6.22634 39.6564 6.18186C39.551 6.13738 39.4562 6.07108 39.3782 5.98732C39.2955 5.90022 39.231 5.7975 39.1884 5.68517C39.1459 5.57283 39.1262 5.45314 39.1305 5.3331C39.1215 5.07361 39.2141 4.82086 39.3885 4.62855C39.4697 4.53836 39.5694 4.46668 39.6807 4.41837C39.792 4.37005 39.9124 4.34624 40.0337 4.34854C40.1483 4.34633 40.262 4.36815 40.3675 4.4126C40.4731 4.45705 40.5682 4.52315 40.6466 4.60662C40.729 4.69366 40.7932 4.79622 40.8355 4.90832C40.8778 5.02041 40.8974 5.13981 40.8931 5.25955V5.25955ZM40.506 5.30084C40.5141 5.1312 40.4614 4.96424 40.3576 4.82985C40.3163 4.77388 40.2628 4.72814 40.201 4.69615C40.1393 4.66416 40.071 4.64677 40.0015 4.64533C39.9338 4.6458 39.8672 4.66244 39.8073 4.69387C39.7474 4.72529 39.6958 4.77059 39.6569 4.82598C39.5564 4.95949 39.505 5.12352 39.5111 5.29052C39.5035 5.4597 39.5561 5.62612 39.6595 5.76021C39.7024 5.81638 39.7577 5.8619 39.821 5.89324C39.8843 5.92457 39.954 5.94087 40.0247 5.94086C40.0925 5.94035 40.1592 5.92356 40.2191 5.89189C40.2791 5.86023 40.3306 5.81463 40.3692 5.75892C40.4665 5.62648 40.516 5.46503 40.5099 5.30084H40.506Z" fill="#FDFDFD"/>
<path d="M42.772 6.19379H42.4301C42.4301 6.1568 42.301 5.95679 42.043 5.59377C41.7771 5.20665 41.6249 4.94858 41.5887 4.81051H41.5668C41.5888 4.99294 41.6004 5.17647 41.6016 5.36021C41.6016 5.58861 41.6016 5.86604 41.621 6.19379H41.2791C41.2932 5.90733 41.2997 5.59377 41.2997 5.25053C41.2997 4.90729 41.2932 4.62599 41.2791 4.38985H41.6907C41.6907 4.43888 41.8051 4.63416 42.0339 4.97568C42.2037 5.20436 42.3445 5.45313 42.4533 5.71635H42.4739C42.4531 5.53211 42.4419 5.3469 42.4404 5.16149C42.4404 4.91116 42.4339 4.65308 42.421 4.38727H42.7681C42.7552 4.61566 42.7488 4.90342 42.7488 5.24795C42.7488 5.59248 42.7591 5.91378 42.772 6.19379Z" fill="#FDFDFD"/>
<defs>
<linearGradient id="paint0_linear" x1="8.63648" y1="4.15628" x2="8.63648" y2="18.7762" gradientUnits="userSpaceOnUse">
<stop stop-color="#507AAB"/>
<stop offset="0.11" stop-color="#5B84AD"/>
<stop offset="0.71" stop-color="#92B7B9"/>
<stop offset="1" stop-color="#A8CBBD"/>
</linearGradient>
<linearGradient id="paint1_linear" x1="4.94988" y1="7.78483" x2="14.3025" y2="7.78483" gradientUnits="userSpaceOnUse">
<stop stop-color="#83B8A8"/>
<stop offset="1" stop-color="#E6E99D"/>
</linearGradient>
<linearGradient id="paint2_linear" x1="9.62619" y1="11.4663" x2="9.62619" y2="18.8304" gradientUnits="userSpaceOnUse">
<stop stop-color="#C44739"/>
<stop offset="0.12" stop-color="#BA4845"/>
<stop offset="0.71" stop-color="#8E4C7C"/>
<stop offset="1" stop-color="#7D4E92"/>
</linearGradient>
<linearGradient id="paint3_linear" x1="15.0137" y1="9.5036" x2="15.0137" y2="13.4302" gradientUnits="userSpaceOnUse">
<stop stop-color="#D68C7B"/>
<stop offset="0.62" stop-color="#E5B67A"/>
<stop offset="1" stop-color="#EDCC7A"/>
</linearGradient>
</defs>
</svg>
