<svg width="101" height="34" viewBox="0 0 101 34" fill="none" xmlns="http://www.w3.org/2000/svg">
<path d="M0 9.78373C0.0204216 7.19524 1.05776 4.71856 2.88816 2.88816C4.71856 1.05776 7.19524 0.0204216 9.78373 0H100.612V24.2163C100.614 25.5015 100.362 26.7744 99.8706 27.9621C99.3795 29.1497 98.6589 30.2289 97.7501 31.1376C96.8413 32.0464 95.7622 32.767 94.5745 33.2582C93.3868 33.7494 92.1139 34.0014 90.8287 34H0V9.78373Z" fill="#E2211D"/>
<path d="M16.5837 10.5464C16.5548 9.79786 16.2596 9.08419 15.7512 8.53401C15.4894 8.29559 15.1829 8.1115 14.8494 7.9924C14.516 7.87331 14.1622 7.82158 13.8086 7.84022C13.3783 7.83245 12.9534 7.93723 12.5761 8.14419C12.1988 8.35114 11.8821 8.65309 11.6574 9.02011C11.088 10.1114 10.8017 11.3282 10.8248 12.5589C10.7821 13.6568 10.996 14.7496 11.4497 15.7503C11.7132 16.1617 12.0872 16.4906 12.5289 16.6993C12.9706 16.9079 13.4622 16.988 13.9473 16.9302C14.297 16.9526 14.6473 16.8956 14.9718 16.7633C15.2963 16.6311 15.5866 16.4271 15.821 16.1665C16.2772 15.6111 16.5659 14.9373 16.6536 14.224H21.7186C21.5991 15.4881 21.1702 16.7035 20.4698 17.7627C19.8002 18.7379 18.8928 19.5261 17.8334 20.0527C16.6511 20.5651 15.3747 20.8252 14.0861 20.8163C12.8774 20.8359 11.6762 20.6238 10.5473 20.1914C9.5521 19.8131 8.6521 19.2209 7.91095 18.4565C7.14917 17.6988 6.57709 16.7718 6.24128 15.7512C5.8731 14.6315 5.68695 13.46 5.68993 12.2814C5.67656 11.0732 5.88846 9.87312 6.31479 8.7426C6.69147 7.72612 7.28327 6.803 8.04971 6.03638C8.74268 5.29526 9.59742 4.72418 10.5473 4.36763C11.54 3.97179 12.6034 3.78413 13.6717 3.81627C15.0962 3.79555 16.5108 4.05501 17.8353 4.5799C18.9514 5.04669 19.8964 5.84634 20.5415 6.86984C21.2181 7.95614 21.6006 9.19968 21.6515 10.4784L16.5837 10.5464Z" fill="white"/>
<path d="M27.2 14.2938L29.2124 21.5799L31.2938 14.3636H35.7386L31.9186 25.2574C31.6629 26.0925 31.338 26.9049 30.9473 27.6861C30.7116 28.1668 30.4077 28.6109 30.045 29.0048C29.6325 29.3798 29.1307 29.6427 28.5876 29.7684C27.7875 29.9223 26.9735 29.9922 26.1589 29.977C25.9503 29.977 25.2565 29.977 24.1464 29.9071V26.645C24.801 26.6833 25.4575 26.6129 26.089 26.4364C26.2335 26.3675 26.3557 26.2593 26.4416 26.1243C26.5276 25.9893 26.5738 25.8328 26.5751 25.6728C26.5625 25.436 26.5157 25.2024 26.4364 24.979L22.6899 14.3636L27.2 14.2938Z" fill="white"/>
<path d="M41.4938 4.44113V10.0612C41.9027 9.58248 42.4148 9.20262 42.9915 8.9502C43.5683 8.69777 44.1948 8.57935 44.824 8.60383C45.7463 8.60281 46.6452 8.8943 47.3914 9.43637C48.1874 9.99428 48.8121 10.7631 49.1953 11.6565C49.6286 12.64 49.8419 13.7063 49.8201 14.7808C49.9043 16.3902 49.4394 17.9804 48.5015 19.2909C48.0264 19.867 47.4188 20.3194 46.7306 20.6094C46.0424 20.8994 45.2943 21.0183 44.5501 20.9559C43.8104 20.9868 43.0737 20.8443 42.3989 20.5397C41.9422 20.3324 41.5387 20.0238 41.219 19.6373C41.0799 19.4429 40.9634 19.2332 40.8717 19.0124V20.6775H36.7751L36.9139 4.57989L41.4938 4.44113ZM43.1589 17.555C43.5542 17.5462 43.9391 17.4258 44.2689 17.2077C44.5817 16.9507 44.8211 16.6156 44.9627 16.2364C45.0996 15.8102 45.1699 15.3654 45.1713 14.9177C45.1753 14.4697 45.1048 14.024 44.9627 13.5991C44.8408 13.1905 44.5991 12.8278 44.2689 12.5579C43.9672 12.28 43.569 12.1307 43.1589 12.1417C42.8633 12.1353 42.5716 12.2095 42.3149 12.3561C42.0582 12.5027 41.8461 12.7164 41.7015 12.9742C41.3336 13.5547 41.142 14.2296 41.1501 14.9168C41.1185 15.5855 41.3127 16.2455 41.7015 16.7905C41.8722 17.0182 42.0917 17.2049 42.3438 17.3371C42.596 17.4692 42.8744 17.5433 43.1589 17.5541" fill="white"/>
<path d="M64.389 16.1267L55.5766 16.0569C55.585 16.4741 55.705 16.8815 55.924 17.2368C56.1539 17.5824 56.4634 17.8678 56.8263 18.0693C57.1699 18.257 57.5471 18.3751 57.9364 18.4167C58.3318 18.4079 58.7166 18.2874 59.0464 18.0693C59.3074 17.8915 59.5217 17.6535 59.6713 17.3755H64.0463C63.8718 17.996 63.5726 18.5744 63.167 19.0754C62.7614 19.5764 62.258 19.9895 61.6874 20.2894C60.4171 20.9204 59.0115 21.2302 57.5936 21.1918C56.426 21.1831 55.2713 20.9475 54.1936 20.498C53.2141 20.0601 52.3912 19.3341 51.8348 18.4167C51.2597 17.428 50.9714 16.2987 51.0022 15.1554C50.9705 13.9809 51.2843 12.823 51.9046 11.8252C52.4629 10.8501 53.3121 10.0738 54.3333 9.60514C55.3955 9.10022 56.5572 8.83931 57.7333 8.84152C59.0042 8.81438 60.2563 9.1514 61.3419 9.81281C62.3799 10.3977 63.2057 11.2966 63.7008 12.3803C64.1566 13.5772 64.3917 14.8468 64.3946 16.1276L64.389 16.1267ZM55.5766 13.7678H59.8101C59.8247 13.4933 59.776 13.219 59.6676 12.9663C59.5593 12.7135 59.3942 12.4891 59.1852 12.3104C58.7548 11.9568 58.2159 11.7621 57.6589 11.7591C57.1227 11.7625 56.6056 11.9581 56.2015 12.3104C55.9812 12.4795 55.8081 12.7023 55.6987 12.9575C55.5893 13.2127 55.5472 13.4917 55.5766 13.7678Z" fill="white"/>
<path d="M65.9876 4.5799L65.8488 20.6775H70.4287L70.5675 4.5799H65.9876Z" fill="white"/>
<path d="M85.4852 20.8163H80.6976L80.489 19.5675C80.1424 19.9059 79.7441 20.1869 79.3091 20.4C78.8163 20.6252 78.3058 20.8096 77.7828 20.9513C77.2618 21.0888 76.7254 21.1589 76.1866 21.1599C75.4726 21.1559 74.766 21.0146 74.1053 20.7437C73.495 20.5356 72.9785 20.1174 72.6479 19.5638C72.2799 18.9833 72.0884 18.3084 72.0965 17.6212C72.0554 17.1279 72.1425 16.6323 72.3492 16.1825C72.5559 15.7326 72.8753 15.3438 73.2764 15.0537C73.663 14.7908 74.083 14.5807 74.5252 14.4289C75.0113 14.2901 75.5664 14.1532 76.1214 14.0126C76.6727 13.9427 77.2314 13.804 77.7175 13.7369L79.0362 13.5283C79.9386 13.3896 80.4238 13.0422 80.4238 12.6259C80.4368 12.4631 80.3965 12.3004 80.3087 12.1626C80.221 12.0248 80.0907 11.9194 79.9377 11.8623C79.6072 11.7266 79.2537 11.6558 78.8965 11.6537C77.9252 11.6537 77.3702 12.07 77.2314 12.8336H72.8601C72.8332 12.0682 73.0522 11.3143 73.485 10.6824C74.002 10.0439 74.7056 9.58283 75.4974 9.36378C76.6746 9.05517 77.8895 8.91501 79.106 8.94751C80.18 8.93242 81.2518 9.04908 82.2974 9.29486C82.9471 9.47032 83.5432 9.80403 84.0324 10.2662C84.3989 10.6752 84.6398 11.1812 84.7261 11.7236C84.8489 12.3869 84.8954 13.0621 84.8649 13.736L84.7951 19.2173C84.7737 19.4968 84.7973 19.7779 84.8649 20.0499C84.9861 20.306 85.1772 20.5226 85.4163 20.6748L85.4852 20.8163ZM78.2689 18.5263C78.5435 18.541 78.8178 18.4922 79.0705 18.3839C79.3232 18.2755 79.5476 18.1104 79.7263 17.9015C80.1698 17.225 80.3646 16.4156 80.2777 15.6115C79.7736 15.8543 79.2353 16.0182 78.6815 16.0976C78.1496 16.1752 77.634 16.3394 77.1552 16.5837C76.9999 16.6759 76.8726 16.8086 76.787 16.9675C76.7014 17.1265 76.6606 17.3057 76.6691 17.4861C76.6582 17.6285 76.6822 17.7713 76.7389 17.9024C76.7934 18.0253 76.8917 18.1235 77.0146 18.178C77.3948 18.3975 77.8244 18.517 78.2634 18.5254" fill="white"/>
<path d="M86.9426 20.8852L87.0125 9.22778H91.1761V11.5866C91.428 10.7347 92 10.0134 92.7722 9.57421C93.5946 9.18327 94.4985 8.99425 95.4086 9.02286V13.6717C94.9225 13.6018 94.645 13.5329 94.5062 13.5329C93.9518 13.4914 93.3972 13.6121 92.9101 13.8803C92.4534 14.1088 92.1046 14.5073 91.9388 14.9903C91.6923 15.6319 91.5743 16.3157 91.5914 17.0027V21.0276L86.9426 20.8852Z" fill="white"/>
</svg>
