<svg width="24" height="24" viewBox="0 0 24 24" fill="none" xmlns="http://www.w3.org/2000/svg">
<path d="M15.3105 3H8.688L4.5 7.1895V22.5C4.5 23.328 5.1735 24 6 24H18C18.828 24 19.5 23.328 19.5 22.5V7.1895L15.3105 3Z" fill="#E2211D"/>
<path d="M12 9C13.2426 9 14.25 7.99264 14.25 6.75C14.25 5.50736 13.2426 4.5 12 4.5C10.7574 4.5 9.75 5.50736 9.75 6.75C9.75 7.99264 10.7574 9 12 9Z" fill="#FAFAFA"/>
<path d="M12 7.5C11.586 7.5 11.25 7.164 11.25 6.75V0.75C11.25 0.336 11.586 0 12 0C12.414 0 12.75 0.336 12.75 0.75V6.75C12.75 7.164 12.414 7.5 12 7.5Z" fill="#878787"/>
<path d="M9.75 15C8.5095 15 7.5 13.9905 7.5 12.75C7.5 11.5095 8.5095 10.5 9.75 10.5C10.9905 10.5 12 11.5095 12 12.75C12 13.9905 10.9905 15 9.75 15ZM9.75 12C9.336 12 9 12.336 9 12.75C9 13.164 9.336 13.5 9.75 13.5C10.164 13.5 10.5 13.164 10.5 12.75C10.5 12.336 10.164 12 9.75 12Z" fill="#FAFAFA"/>
<path d="M14.25 21C13.0095 21 12 19.9905 12 18.75C12 17.5095 13.0095 16.5 14.25 16.5C15.4905 16.5 16.5 17.5095 16.5 18.75C16.5 19.9905 15.4905 21 14.25 21ZM14.25 18C13.8375 18 13.5 18.3375 13.5 18.75C13.5 19.1625 13.8375 19.5 14.25 19.5C14.6625 19.5 15 19.1625 15 18.75C15 18.3375 14.6625 18 14.25 18Z" fill="#FAFAFA"/>
<path d="M8.24999 21.0002C8.08049 21.0002 7.91099 20.9432 7.76999 20.8262C7.45199 20.5607 7.40849 20.0882 7.67399 19.7702L15.174 10.7702C15.441 10.4522 15.9135 10.4117 16.23 10.6742C16.548 10.9397 16.59 11.4122 16.3245 11.7317L8.82449 20.7317C8.67749 20.9072 8.46449 21.0002 8.24999 21.0002Z" fill="#FAFAFA"/>
</svg>
