<svg width="22" height="22" viewBox="0 0 22 22" fill="none" xmlns="http://www.w3.org/2000/svg">
<path d="M8.67794 16.2559H12.9802M12.9802 16.2559V3.66699H1.8335V16.2559H4.76683M12.9802 16.2559V7.25218H17.6246L19.3245 8.8924C19.6694 9.2256 19.9429 9.62111 20.1294 10.0563C20.3159 10.4916 20.4117 10.958 20.4113 11.4289V16.2559H18.4557M12.9802 16.2559H14.5446" stroke="#E2211D" stroke-width="1.5" stroke-linecap="round" stroke-linejoin="round"/>
<path d="M6.72216 18.2109C7.80218 18.2109 8.67771 17.3354 8.67771 16.2554C8.67771 15.1753 7.80218 14.2998 6.72216 14.2998C5.64213 14.2998 4.7666 15.1753 4.7666 16.2554C4.7666 17.3354 5.64213 18.2109 6.72216 18.2109Z" stroke="#E2211D" stroke-width="1.5" stroke-linecap="round" stroke-linejoin="round"/>
<path d="M16.4995 18.2109C17.5795 18.2109 18.4551 17.3354 18.4551 16.2554C18.4551 15.1753 17.5795 14.2998 16.4995 14.2998C15.4195 14.2998 14.5439 15.1753 14.5439 16.2554C14.5439 17.3354 15.4195 18.2109 16.4995 18.2109Z" stroke="#E2211D" stroke-width="1.5" stroke-linecap="round" stroke-linejoin="round"/>
</svg>
