<svg width="30" height="30" viewBox="0 0 30 30" fill="none" xmlns="http://www.w3.org/2000/svg">
<path d="M12.5 27.5C13.1904 27.5 13.75 26.9404 13.75 26.25C13.75 25.5596 13.1904 25 12.5 25C11.8096 25 11.25 25.5596 11.25 26.25C11.25 26.9404 11.8096 27.5 12.5 27.5Z" stroke="black" stroke-width="2.5" stroke-linecap="round" stroke-linejoin="round"/>
<path d="M23.75 27.5C24.4404 27.5 25 26.9404 25 26.25C25 25.5596 24.4404 25 23.75 25C23.0596 25 22.5 25.5596 22.5 26.25C22.5 26.9404 23.0596 27.5 23.75 27.5Z" stroke="black" stroke-width="2.5" stroke-linecap="round" stroke-linejoin="round"/>
<path d="M2.5 3.75H7.04545L10.0909 18.2555C10.1948 18.7542 10.4794 19.2022 10.8949 19.5211C11.3104 19.84 11.8303 20.0093 12.3636 19.9996H23.4091C23.9424 20.0093 24.4623 19.84 24.8778 19.5211C25.2933 19.2022 25.5779 18.7542 25.6818 18.2555L27.5 9.16653H8.18182" stroke="black" stroke-width="2.5" stroke-linecap="round" stroke-linejoin="round"/>
</svg>
