<svg width="20" height="21" viewBox="0 0 20 21" fill="none" xmlns="http://www.w3.org/2000/svg">
<path d="M2.06726 5.5H3.83008H17.9326" stroke="#E2211D" stroke-width="2" stroke-linecap="round" stroke-linejoin="round"/>
<path d="M6.47443 5.49984V3.83317C6.47443 3.39114 6.66016 2.96722 6.99075 2.65466C7.32134 2.3421 7.76972 2.1665 8.23725 2.1665H11.7629C12.2304 2.1665 12.6788 2.3421 13.0094 2.65466C13.34 2.96722 13.5257 3.39114 13.5257 3.83317V5.49984M16.1699 5.49984V17.1665C16.1699 17.6085 15.9842 18.0325 15.6536 18.345C15.323 18.6576 14.8747 18.8332 14.4071 18.8332H5.59302C5.12549 18.8332 4.67711 18.6576 4.34652 18.345C4.01593 18.0325 3.8302 17.6085 3.8302 17.1665V5.49984H16.1699Z" stroke="#E2211D" stroke-width="2" stroke-linecap="round" stroke-linejoin="round"/>
<path d="M8.23706 9.6665V14.6665" stroke="#E2211D" stroke-width="2" stroke-linecap="round" stroke-linejoin="round"/>
<path d="M11.7629 9.6665V14.6665" stroke="#E2211D" stroke-width="2" stroke-linecap="round" stroke-linejoin="round"/>
</svg>
