<svg width="14" height="14" viewBox="0 0 14 14" fill="none" xmlns="http://www.w3.org/2000/svg">
<path d="M0.777832 13.2218L1.65738 10.0279C1.11361 9.0904 0.828347 8.02872 0.831318 6.94338C0.831318 3.54245 3.6126 0.777344 7.02679 0.777344C8.68486 0.777344 10.2419 1.41908 11.4097 2.58427C12.5804 3.74946 13.2252 5.2991 13.2223 6.94633C13.2223 10.3473 10.441 13.1124 7.02382 13.1124H7.02085C5.98381 13.1124 4.96461 12.8521 4.05831 12.3612L0.777832 13.2218ZM4.2158 11.2463L4.403 11.3587C5.19341 11.8259 6.0997 12.0714 7.02382 12.0743H7.02679C9.86453 12.0743 12.1763 9.7765 12.1763 6.94929C12.1763 5.58005 11.6415 4.29361 10.6698 3.3236C9.69813 2.3536 8.40257 1.82128 7.02679 1.82128C4.18906 1.81832 1.87727 4.11617 1.87727 6.94338C1.87727 7.91042 2.14767 8.85381 2.6647 9.67004L2.78653 9.86522L2.26653 11.755L4.2158 11.2463Z" fill="#E2211D"/>
<path d="M0.635346 13.3626L0.681421 13.1952L1.54989 10.0416C1.01093 9.09784 0.728361 8.03226 0.731318 6.94324M0.635346 13.3626L4.05831 12.3612C4.96461 12.8521 5.98381 13.1124 7.02085 13.1124H7.02382C10.441 13.1124 13.2223 10.3473 13.2223 6.94633L13.3223 6.94651C13.3223 6.94645 13.3223 6.94639 13.3223 6.94633C13.3252 5.27236 12.6697 3.69725 11.4802 2.51339C10.2936 1.32944 8.71114 0.677344 7.02679 0.677344C3.55789 0.677344 0.731392 3.48667 0.731318 6.94324M0.635346 13.3626L0.803207 13.3185L4.04562 12.4679L0.635346 13.3626ZM0.731318 6.94324C0.731318 6.94329 0.731318 6.94333 0.731318 6.94338H0.831318L0.731319 6.9431C0.731318 6.94315 0.731318 6.9432 0.731318 6.94324ZM4.26727 11.1606L4.23123 11.1389L4.19055 11.1495L2.40891 11.6145L2.88295 9.89175L2.89458 9.84947L2.87136 9.81227L2.74954 9.61708L2.74918 9.61652C2.24241 8.81651 1.97727 7.89171 1.97727 6.94338C1.97727 4.17186 4.2438 1.91838 7.02669 1.92128H7.02679C8.3763 1.92128 9.64637 2.44324 10.5991 3.39438C11.5521 4.3457 12.0763 5.60671 12.0763 6.94929C12.0763 9.72078 9.80979 11.9743 7.02679 11.9743L7.02414 11.9743C7.02404 11.9743 7.02394 11.9743 7.02385 11.9743C6.11739 11.9714 5.22883 11.7306 4.4542 11.2728C4.4541 11.2727 4.45399 11.2726 4.45389 11.2726L4.26727 11.1606Z" fill="#E2211D" stroke="#E2211D" stroke-width="0.2"/>
<path d="M5.56213 4.13855L5.56208 4.13842C5.50073 3.99094 5.43136 3.89931 5.34881 3.84751C5.26652 3.79587 5.18503 3.79351 5.13081 3.79194L5.12921 3.79189C5.03933 3.78867 4.93516 3.78867 4.83333 3.78867H4.83213C4.70373 3.78867 4.51004 3.83997 4.34775 4.02945C4.3394 4.03919 4.33012 4.04982 4.32004 4.06135C4.15774 4.24709 3.78892 4.66919 3.78892 5.47196C3.78892 5.89822 3.93287 6.31263 4.08276 6.63045C4.22931 6.94119 4.38511 7.16692 4.42914 7.23071C4.43033 7.23243 4.43143 7.23403 4.43245 7.23551C4.43707 7.2422 4.44626 7.25694 4.45987 7.27877C4.54458 7.4146 4.80061 7.82511 5.19209 8.28315C5.6467 8.81507 6.29333 9.42335 7.09075 9.76286C7.7405 10.0398 8.13902 10.1536 8.41413 10.193C8.64108 10.2255 8.78451 10.2066 8.90105 10.1912C8.92737 10.1878 8.95232 10.1845 8.97655 10.182C9.14091 10.1652 9.38386 10.0544 9.59687 9.90611C9.80967 9.75796 10.0205 9.55323 10.0955 9.32893L10.0957 9.32828C10.1614 9.12746 10.1945 8.94075 10.2062 8.79368C10.212 8.72023 10.2125 8.65526 10.2087 8.6024C10.2052 8.55471 10.1974 8.5018 10.1765 8.46381C10.1437 8.40396 10.0881 8.36485 10.0358 8.33395C10.0038 8.31509 9.96391 8.29434 9.92139 8.27223C9.89564 8.25885 9.86892 8.24496 9.84244 8.23069C9.76559 8.18928 9.53893 8.06873 9.31379 7.95139C9.09166 7.8356 8.86266 7.7185 8.78642 7.68769L8.78643 7.68767L8.78461 7.68698C8.71801 7.66156 8.63396 7.63019 8.54967 7.64035C8.4532 7.65198 8.37952 7.71246 8.32002 7.81029C8.22067 7.96914 7.93206 8.33333 7.84207 8.44647C7.80706 8.49049 7.78344 8.50031 7.76594 8.50254C7.74399 8.50533 7.70565 8.49952 7.63574 8.46185C7.60852 8.44718 7.57254 8.43034 7.52881 8.40986C7.31144 8.30808 6.90261 8.11665 6.42653 7.65774L6.42637 7.65758C5.9823 7.23151 5.67968 6.701 5.59317 6.5394C5.55974 6.47695 5.56397 6.44264 5.57159 6.42062C5.58199 6.39059 5.60546 6.36254 5.6459 6.31896C5.69199 6.26929 5.74846 6.19548 5.80144 6.12624C5.82915 6.09003 5.8559 6.05506 5.87971 6.02545C5.95561 5.93108 5.98915 5.85559 6.02922 5.7654C6.03457 5.75335 6.04004 5.74104 6.04575 5.72838C6.11233 5.58064 6.07814 5.45318 6.03354 5.35705L6.03355 5.35704L6.03289 5.35568C6.01748 5.32374 5.94568 5.13422 5.85667 4.89931C5.84993 4.88151 5.84309 4.86344 5.83616 4.84517C5.73979 4.59085 5.63044 4.30338 5.56213 4.13855Z" fill="#E2211D" stroke="#E2211D" stroke-width="0.2"/>
</svg>
