<svg width="34" height="34" viewBox="0 0 34 34" fill="none" xmlns="http://www.w3.org/2000/svg">
<path d="M33.7 16.8C33.7 26.1 26.2 33.6 16.9 33.6C7.5 33.7 0 26.1 0 16.8C0 7.5 7.5 0 16.8 0C26.1 0 33.7 7.5 33.7 16.8Z" fill="#878787"/>
<path d="M22.3 25.6998H11C8.90001 25.6998 7.20001 23.9998 7.20001 21.8998V10.5998C7.20001 8.4998 8.90001 6.7998 11 6.7998H22.3C24.4 6.7998 26.1 8.4998 26.1 10.5998V21.8998C26.1 23.9998 24.4 25.6998 22.3 25.6998ZM11 8.6998C9.90001 8.6998 9.00001 9.5998 9.00001 10.6998V21.9998C9.00001 23.0998 9.90001 23.9998 11 23.9998H22.3C23.4 23.9998 24.3 23.0998 24.3 21.9998V10.5998C24.3 9.4998 23.4 8.5998 22.3 8.5998H11V8.6998Z" fill="white"/>
<path d="M16.7 20.6999C14.3 20.6999 12.3 18.6999 12.3 16.2999C12.3 13.8999 14.3 11.8999 16.7 11.8999C19.1 11.8999 21.1 13.8999 21.1 16.2999C21.1 18.6999 19.1 20.6999 16.7 20.6999ZM16.7 13.5999C15.2 13.5999 14.1 14.7999 14.1 16.1999C14.1 17.5999 15.3 18.7999 16.7 18.7999C18.2 18.7999 19.3 17.5999 19.3 16.1999C19.3 14.7999 18.1 13.5999 16.7 13.5999Z" fill="white"/>
<path d="M21.7 9.7998C22.4 9.7998 23 10.3998 23 11.0998C23 11.7998 22.4 12.3998 21.7 12.3998C21 12.3998 20.4 11.7998 20.4 11.0998C20.5 10.3998 21 9.7998 21.7 9.7998Z" fill="white"/>
</svg>
