<svg width="24" height="24" viewBox="0 0 24 24" fill="none" xmlns="http://www.w3.org/2000/svg">
<path d="M4.00004 20.3237V21H20V16.7173C20 15.8027 19.5556 14.9485 18.7974 14.4387C17.1792 13.3586 15.3218 12.6852 13.3846 12.4763C14.5047 12.1453 15.4675 11.424 16.097 10.4445C16.7264 9.465 16.9803 8.29274 16.8122 7.14224C16.6441 5.99174 16.0652 4.93993 15.1816 4.17928C14.2979 3.41863 13.1685 3 12 3C10.8315 3 9.70215 3.41863 8.81848 4.17928C7.93481 4.93993 7.35597 5.99174 7.18787 7.14224C7.01977 8.29274 7.27366 9.465 7.90307 10.4445C8.53249 11.424 9.49534 12.1453 10.6154 12.4763C8.67859 12.6854 6.8216 13.3588 5.20369 14.4387C4.8308 14.6913 4.52601 15.0312 4.31612 15.4286C4.10624 15.8259 3.9977 16.2685 4.00004 16.7173V20.3237V20.3237Z" stroke="#727273" stroke-width="1.5"/>
</svg>
