<svg width="50" height="11" viewBox="0 0 50 11" fill="none" xmlns="http://www.w3.org/2000/svg">
<g clip-path="url(#clip0)">
<path d="M38.7599 10.9773H37.0065V3.32715H38.7599V10.9773Z" fill="#828282"/>
<path d="M3.80675 4.89565C3.25626 4.889 2.73295 5.10834 2.35915 5.50048C1.96497 5.89927 1.76788 6.45094 1.76788 7.14882C1.76788 7.85335 1.96497 8.41166 2.36595 8.8171C2.74654 9.21589 3.27665 9.43523 3.83394 9.42858C4.35045 9.42858 4.76502 9.289 5.07765 9.01649C5.36989 8.77057 5.58057 8.44489 5.69611 8.08598L7.24565 8.63764C7.04177 9.28236 6.64758 9.84066 6.06311 10.3059C5.47863 10.7712 4.73784 11.0038 3.83394 11.0038C2.74654 11.0038 1.83584 10.6382 1.10185 9.90048C0.367852 9.16272 0.000854492 8.2455 0.000854492 7.14882C0.000854492 6.03885 0.361056 5.12163 1.08825 4.39716C1.81545 3.67269 2.71256 3.30713 3.79316 3.30713C4.71745 3.30713 5.47183 3.53976 6.05631 4.00501C6.64079 4.47027 7.01458 5.03523 7.19128 5.68659L5.60776 6.25154C5.51261 5.88598 5.30872 5.54701 5.02328 5.29444C4.72425 5.02858 4.32327 4.89565 3.80675 4.89565Z" fill="#828282"/>
<path d="M10.1544 8.79716C10.5418 9.19595 11.0855 9.42193 11.6496 9.40864C12.2137 9.42193 12.7506 9.2026 13.1448 8.80381C13.5525 8.39837 13.7564 7.84006 13.7564 7.11559C13.7564 6.40441 13.5525 5.85275 13.1448 5.45396C12.7506 5.06181 12.2137 4.84248 11.6496 4.85577C11.0855 4.84248 10.5486 5.06181 10.1544 5.45396C9.74664 5.85275 9.54275 6.40441 9.54275 7.11559C9.54275 7.82677 9.74664 8.39172 10.1544 8.79716ZM11.6496 3.30713C12.7846 3.30713 13.7224 3.66604 14.4564 4.38387C15.1972 5.10169 15.5642 6.01227 15.5642 7.12224C15.5642 8.22556 15.1972 9.14278 14.4564 9.86725C13.7157 10.5917 12.7846 10.9506 11.6496 10.9506C10.5282 10.9506 9.59712 10.5917 8.85633 9.86725C8.11553 9.14278 7.74854 8.22556 7.74854 7.12224C7.74854 6.01891 8.11553 5.10834 8.85633 4.38387C9.59032 3.66604 10.5214 3.30713 11.6496 3.30713Z" fill="#828282"/>
<path d="M20.1381 3.35344V5.10148C19.9478 5.07489 19.7507 5.05496 19.5604 5.05496C18.2284 5.05496 17.5691 5.69302 17.5691 7.10873V10.9504H15.8021V3.32686H17.5216V4.54982C17.6915 4.16432 17.9837 3.84529 18.3575 3.63924C18.7517 3.41326 19.207 3.30027 19.6692 3.30692C19.8255 3.30692 19.9886 3.32021 20.1381 3.35344Z" fill="#828282"/>
<path d="M22.5508 6.33779H26.4858C26.4722 5.90577 26.2819 5.49368 25.9489 5.20123C25.6159 4.89549 25.1334 4.74262 24.5081 4.74262C23.9372 4.74262 23.4751 4.90214 23.1285 5.22117C22.7751 5.54021 22.5848 5.91241 22.5508 6.33779ZM26.6965 8.21211L28.3072 8.67072C28.0762 9.32873 27.648 9.87374 27.0159 10.3058C26.3839 10.7378 25.6091 10.9505 24.6848 10.9505C23.543 10.9505 22.578 10.5982 21.7828 9.90033C20.9876 9.20244 20.5867 8.26528 20.5867 7.08885C20.5867 5.98552 20.9741 5.07495 21.7488 4.37042C22.4828 3.67918 23.4683 3.29368 24.4877 3.30697C25.7178 3.30697 26.6761 3.64595 27.3693 4.31725C28.0626 4.99519 28.4092 5.89912 28.4092 7.04232C28.4092 7.34806 28.3956 7.52752 28.3616 7.58734H22.5032C22.5168 8.10577 22.7615 8.59761 23.1693 8.92994C23.5906 9.2822 24.1343 9.47495 24.6916 9.46166C25.7178 9.46831 26.3907 9.04957 26.6965 8.21211Z" fill="#828282"/>
<path d="M30.5772 10.9771H28.783V-0.00292969H30.5908V4.41701C30.7811 4.11127 31.0937 3.85205 31.5286 3.64601C31.9976 3.43332 32.5073 3.32033 33.0238 3.33363C34.1452 3.33363 35.0219 3.68589 35.654 4.39707C36.286 5.10825 36.5986 6.01218 36.5986 7.1155C36.5986 8.23876 36.2656 9.15598 35.6064 9.88045C34.9472 10.5983 34.0636 10.9572 32.9627 10.9572C31.8617 10.9572 31.0665 10.5783 30.5772 9.81399V10.9771ZM34.1588 8.80372C34.5462 8.39163 34.7365 7.83332 34.7365 7.12879C34.7365 6.42426 34.5462 5.8726 34.1656 5.46716C33.785 5.06837 33.2821 4.86233 32.6568 4.86233C32.052 4.86233 31.5558 5.06172 31.1616 5.46716C30.7675 5.86595 30.5772 6.42426 30.5772 7.12879C30.5772 7.82668 30.7743 8.37834 31.1616 8.79707C31.5558 9.2158 32.052 9.42184 32.6568 9.42184C33.2753 9.42184 33.7714 9.2158 34.1588 8.80372Z" fill="#828282"/>
<path d="M47.0513 10.9707H39.3172V9.46854L44.2037 4.84256H39.2356V3.32715H47.0377V4.78274L42.09 9.4486H47.0513V10.9707Z" fill="#828282"/>
<path d="M47.792 10.6052C47.5473 10.3726 47.4114 10.0469 47.4182 9.71455C47.4114 9.37558 47.5473 9.05654 47.792 8.81727C48.0299 8.57135 48.3561 8.43842 48.7027 8.44506C49.0493 8.43842 49.3823 8.57135 49.6202 8.81727C49.8717 9.0499 50.0076 9.37558 50.0008 9.71455C50.0076 10.0535 49.8717 10.3726 49.6202 10.6052C49.3755 10.8445 49.0425 10.9774 48.7027 10.9707C48.3629 10.9774 48.0299 10.8445 47.792 10.6052Z" fill="#C0C0C0"/>
</g>
<defs>
<clipPath id="clip0">
<rect width="50" height="11" fill="white"/>
</clipPath>
</defs>
</svg>
