<svg width="52" height="18" viewBox="0 0 52 18" fill="none" xmlns="http://www.w3.org/2000/svg">
<g clip-path="url(#clip0)">
<path d="M37.7451 6.66796H35.9092V13.1442C35.9091 13.2032 35.8862 13.2597 35.8457 13.3015C35.8051 13.3432 35.7502 13.3667 35.6929 13.3668H34.277C34.2197 13.3667 34.1647 13.3432 34.1242 13.3015C34.0836 13.2597 34.0608 13.2032 34.0607 13.1442V6.66796H32.214C32.1862 6.66913 32.1584 6.66455 32.1324 6.65448C32.1063 6.6444 32.0825 6.62904 32.0623 6.60931C32.0422 6.58958 32.026 6.56588 32.0149 6.53961C32.0038 6.51335 31.998 6.48505 31.9977 6.45641V5.31091C31.998 5.28227 32.0038 5.25398 32.0149 5.22771C32.026 5.20145 32.0422 5.17774 32.0623 5.15801C32.0825 5.13828 32.1063 5.12292 32.1324 5.11285C32.1584 5.10277 32.1862 5.09819 32.214 5.09937H37.7446C37.802 5.0966 37.858 5.1173 37.9006 5.15693C37.9431 5.19657 37.9687 5.25193 37.9717 5.31091V6.45687C37.9686 6.51569 37.943 6.57086 37.9006 6.61039C37.8582 6.64991 37.8023 6.6706 37.7451 6.66796Z" fill="#828282"/>
<path d="M43.6388 13.3204C43.2605 13.3759 42.6242 13.465 41.4569 13.465C40.0626 13.465 38.8307 13.0978 38.8307 11.0733V7.37816C38.8307 5.35368 40.0738 4.99756 41.4677 4.99756C42.6345 4.99756 43.2605 5.0867 43.6388 5.14213C43.7901 5.1643 43.8552 5.22019 43.8552 5.36477V6.40079C43.855 6.4598 43.8322 6.51636 43.7917 6.55808C43.7511 6.59981 43.6962 6.6233 43.6388 6.62343H41.36C40.852 6.62343 40.6684 6.80126 40.6684 7.38001V8.39248H43.5527C43.61 8.3926 43.665 8.4161 43.7055 8.45782C43.746 8.49955 43.7689 8.55611 43.769 8.61511V9.67193C43.7689 9.73094 43.746 9.78749 43.7055 9.82922C43.665 9.87094 43.61 9.89444 43.5527 9.89456H40.6684V11.0738C40.6684 11.6521 40.852 11.8304 41.36 11.8304H43.6388C43.6962 11.8305 43.7511 11.854 43.7917 11.8957C43.8322 11.9374 43.855 11.994 43.8552 12.053V13.0876C43.8552 13.2313 43.7901 13.2983 43.6388 13.3204Z" fill="#828282"/>
<path d="M51.7936 13.3644H50.0752C49.9348 13.3644 49.8697 13.3182 49.7943 13.1976L48.3044 10.763L46.9545 13.144C46.8786 13.2775 46.8032 13.3667 46.6852 13.3667H45.0858C44.9776 13.3667 44.9238 13.2997 44.9238 13.2221C44.9259 13.1949 44.9332 13.1683 44.9453 13.144L47.2866 9.12556L44.9211 5.30985C44.9091 5.28949 44.9017 5.26659 44.8995 5.24288C44.9034 5.20201 44.9224 5.16423 44.9525 5.13732C44.9827 5.11042 45.0217 5.09646 45.0615 5.09831H46.8014C46.9204 5.09831 47.007 5.20962 47.0707 5.30985L48.4534 7.55697L49.7916 5.30985C49.8454 5.20962 49.9428 5.09831 50.0609 5.09831H51.6603C51.7001 5.09646 51.7392 5.11042 51.7693 5.13732C51.7995 5.16423 51.8184 5.20201 51.8223 5.24288C51.8201 5.26659 51.8127 5.28949 51.8007 5.30985L49.4469 9.14912L51.9017 13.144C51.9209 13.178 51.932 13.2161 51.934 13.2554C51.9345 13.32 51.8802 13.3644 51.7936 13.3644Z" fill="#828282"/>
<path d="M29.4074 5.1215C29.3688 5.12161 29.3314 5.13547 29.3016 5.16073C29.2719 5.186 29.2515 5.2211 29.244 5.26007L27.6751 11.2365C27.6536 11.3589 27.6213 11.4033 27.5239 11.4033C27.4265 11.4033 27.3942 11.3571 27.3727 11.2365L25.802 5.25869C25.7945 5.21971 25.7741 5.18461 25.7443 5.15935C25.7146 5.13408 25.6772 5.12022 25.6386 5.12012H24.0944C24.0693 5.12014 24.0445 5.126 24.0219 5.13725C23.9993 5.14851 23.9794 5.16486 23.9638 5.18511C23.9482 5.20535 23.9372 5.22896 23.9317 5.25418C23.9262 5.27939 23.9263 5.30556 23.9319 5.33074C23.9319 5.33074 25.8482 12.1848 25.8693 12.2522C26.1251 13.0689 26.7457 13.4592 27.5356 13.4592C28.2877 13.4592 28.9443 13.0504 29.2009 12.2545C29.2315 12.1622 31.1051 5.33028 31.1051 5.33028C31.1107 5.30513 31.1107 5.27901 31.1051 5.25385C31.0996 5.2287 31.0886 5.20515 31.073 5.18496C31.0574 5.16478 31.0376 5.14846 31.015 5.13724C30.9924 5.12601 30.9677 5.12016 30.9426 5.12012L29.4074 5.1215Z" fill="#828282"/>
<path d="M19.4273 0H3.74601C2.53008 0 1.75146 1.29594 2.32043 2.3733L3.88899 5.35107H1.04538C0.865301 5.35112 0.688285 5.3978 0.53148 5.48658C0.374676 5.57536 0.243398 5.70323 0.150362 5.85781C0.0573267 6.01239 0.00568641 6.18844 0.000443379 6.3689C-0.00479965 6.54936 0.0365323 6.72812 0.120436 6.88787L5.16572 16.4614C5.25466 16.6297 5.38769 16.7706 5.55051 16.8689C5.71333 16.9671 5.89978 17.0191 6.08982 17.0191C6.27987 17.0191 6.46632 16.9671 6.62914 16.8689C6.79196 16.7706 6.92499 16.6297 7.01393 16.4614L8.38416 13.8754L10.1032 17.1381C10.7083 18.2857 12.3473 18.2878 12.9544 17.1415L20.8143 2.31319C21.3699 1.26442 20.6118 0 19.4273 0ZM12.3833 6.33553L8.99422 12.7307C8.93499 12.8427 8.84645 12.9364 8.73812 13.0017C8.6298 13.0671 8.50576 13.1016 8.37934 13.1016C8.25292 13.1016 8.12889 13.0671 8.02056 13.0017C7.91223 12.9364 7.82369 12.8427 7.76446 12.7307L4.40806 6.36243C4.35197 6.25625 4.32416 6.13735 4.32736 6.01724C4.33055 5.89713 4.36462 5.77988 4.42627 5.67684C4.48793 5.57381 4.57508 5.48848 4.67928 5.42912C4.78349 5.36977 4.90121 5.33839 5.02106 5.33804H11.7854C11.9023 5.33804 12.0171 5.36836 12.1188 5.42604C12.2205 5.48373 12.3056 5.56682 12.3658 5.66723C12.426 5.76764 12.4592 5.88196 12.4623 5.99907C12.4654 6.11617 12.4382 6.23208 12.3833 6.33553Z" fill="#828282"/>
</g>
<defs>
<clipPath id="clip0">
<rect width="52" height="18" fill="white"/>
</clipPath>
</defs>
</svg>
