<svg xmlns="http://www.w3.org/2000/svg" width="48.281" height="45" viewBox="0 0 48.281 45">
  <g id="pino-de-localizacao" transform="translate(-10.797 -25.193)">
    <path id="Caminho_10" data-name="Caminho 10" d="M36.831,29.768a.929.929,0,0,0-.925.87.942.942,0,0,0,1.878.009A.919.919,0,0,0,36.831,29.768Zm16.679,4.616c-1.359-5.407-7.712-8.625-13.319-6.753a.887.887,0,1,0,.547,1.671,9.83,9.83,0,0,1,2.246-.431c5.314-.281,9.533,3.9,8.826,8.81a7.481,7.481,0,0,1-5.258,6.208,8.3,8.3,0,0,1-8.4-1.336,7.255,7.255,0,0,1-2.605-8.159.872.872,0,0,0-.614-1.187.969.969,0,0,0-1.2.712,8.677,8.677,0,0,0-.368,1.627c-.7,5.654,4.021,10.6,10.289,10.648.274-.018.68-.018,1.085-.062C50.885,45.419,54.925,40,53.509,34.384Zm0,0c-1.359-5.407-7.712-8.625-13.319-6.753a.887.887,0,1,0,.547,1.671,9.83,9.83,0,0,1,2.246-.431c5.314-.281,9.533,3.9,8.826,8.81a7.481,7.481,0,0,1-5.258,6.208,8.3,8.3,0,0,1-8.4-1.336,7.255,7.255,0,0,1-2.605-8.159.872.872,0,0,0-.614-1.187.969.969,0,0,0-1.2.712,8.677,8.677,0,0,0-.368,1.627c-.7,5.654,4.021,10.6,10.289,10.648.274-.018.68-.018,1.085-.062C50.885,45.419,54.925,40,53.509,34.384ZM36.868,31.509a.9.9,0,0,0,.925-.862.941.941,0,0,0-1.878-.018A.891.891,0,0,0,36.868,31.509Zm22.2,3.754c-.113-.484-.057-.985-.17-1.468a14.365,14.365,0,0,0-5.7-8.625,16.21,16.21,0,0,0-11.771-2.937,15.271,15.271,0,0,0-9.8,5,13.843,13.843,0,0,0-3.53,7.157c-.113.659-.123.659-.859.659-3.879,0-7.749.018-11.629-.009A4.683,4.683,0,0,0,10.8,39.51c.066,7.676.019,15.352.019,23.019,0,.352.019.7.047,1.046a4.33,4.33,0,0,0,3.9,3.482h.047c.16.009.321-.044.472.044H50.876a1.07,1.07,0,0,1,.472-.044h.066a3.035,3.035,0,0,0,1.567-.413,4.44,4.44,0,0,0,2.464-3.983c.019-1.539,0-3.069,0-4.607V46.791a1.419,1.419,0,0,1,.283-.994,13.945,13.945,0,0,0,2.162-3.324,10.327,10.327,0,0,0,1.133-4.44V38c.009-.149-.047-.308.047-.457v-.176a.643.643,0,0,1,0-.528V35.87a.112.112,0,0,1,0-.176ZM18.8,36.934h8.854c.264,0,.415,0,.434.334a13.705,13.705,0,0,0,3.521,8.59c.632.739,1.246,1.486,1.935,2.3H30.808A.556.556,0,0,1,30.393,48q-5.876-5.473-11.742-10.947a.173.173,0,0,1-.038-.07C18.641,36.9,18.726,36.934,18.8,36.934Zm-6.06,2.928,8.91,8.3H13.11c-.2,0-.387.044-.378-.264C12.751,45.226,12.742,42.553,12.742,39.862Zm17.7,25.49H15.857c-1.973,0-3.115-1.073-3.115-2.91,0-2.647,0-5.284-.009-7.931,0-.29.057-.4.4-.387,2.294.018,4.578.009,6.872,0a.712.712,0,0,1,.538.193Q26.372,59.764,32.215,65.2a1.45,1.45,0,0,1,.132.158H30.44Zm7.976,0H35.188c-.208,0-.293-.141-.415-.255Q28.232,59,21.7,52.91a1.869,1.869,0,0,0-1.406-.554c-2.388.026-4.767,0-7.155.018-.33,0-.425-.07-.406-.378.028-.572.028-1.143,0-1.706-.019-.308.085-.378.406-.378,3.549.009,7.089.009,10.638.009a1.374,1.374,0,0,0,.727-.132.855.855,0,0,0,.076-1.46q-1.826-1.715-3.662-3.412c-2.416-2.251-4.833-4.511-7.259-6.753-.274-.255-.217-.378.038-.572a3.4,3.4,0,0,1,.878-.492,1.606,1.606,0,0,1,1.841.343C20.652,41.454,24.947,45.41,29.2,49.4a1.7,1.7,0,0,0,1.321.519c1.369-.026,2.728,0,4.1-.018a.717.717,0,0,1,.623.281c.576.712,1.17,1.407,1.812,2.181h-4.6c-1.775,0-3.549.009-5.314,0-.51,0-.944.07-1.152.563-.2.466.047.8.4,1.125Q32.253,59.5,38.114,64.965a3.175,3.175,0,0,0,.406.273A.4.4,0,0,0,38.416,65.352Zm15.008-2.673a2.713,2.713,0,0,1-2.851,2.673c-3.03.009-6.06,0-9.09.009a.667.667,0,0,1-.5-.185q-5.848-5.46-11.714-10.92a1.108,1.108,0,0,1-.085-.132h6.173c.906,0,1.822.009,2.728-.009a.8.8,0,0,1,.708.308c1.265,1.539,2.558,3.069,3.842,4.6.642.765,1.208.756,1.85-.009,1.293-1.539,2.6-3.077,3.879-4.634a.675.675,0,0,1,.585-.273c1.369.009,2.728.018,4.1,0,.3,0,.387.07.387.361C53.415,57.21,53.434,59.944,53.424,62.679Zm0-12.459c.009.615-.009,1.231.009,1.838.009.246-.066.317-.34.317-.972-.018-1.944-.009-3.021-.009.689-.818,1.312-1.574,1.944-2.33a3.047,3.047,0,0,1,1.35-.106C53.472,50.017,53.424,50.123,53.424,50.22Zm1.057-6.005c-3.559,4.344-7.2,8.625-10.808,12.925-.028.035-.057.062-.113.123-.727-.87-1.454-1.732-2.171-2.594-2.869-3.429-5.786-6.841-8.608-10.3-6.324-7.755-1.51-18.737,8.656-20.249,7.6-1.125,14.6,3.754,15.631,10.859A11.486,11.486,0,0,1,54.482,44.214ZM40.2,27.632a.887.887,0,1,0,.547,1.671,9.83,9.83,0,0,1,2.246-.431c5.314-.281,9.533,3.9,8.826,8.81a7.481,7.481,0,0,1-5.258,6.208,8.3,8.3,0,0,1-8.4-1.336,7.255,7.255,0,0,1-2.605-8.159.872.872,0,0,0-.614-1.187.969.969,0,0,0-1.2.712,8.677,8.677,0,0,0-.368,1.627c-.7,5.654,4.021,10.6,10.289,10.648.274-.018.68-.018,1.085-.062,6.126-.7,10.166-6.12,8.759-11.738C52.16,28.977,45.8,25.759,40.2,27.632Zm-3.332,3.878a.9.9,0,0,0,.925-.862.941.941,0,0,0-1.878-.018A.891.891,0,0,0,36.868,31.509Z" transform="translate(0 3.082)" fill="#e2211d"/>
    <path id="Caminho_11" data-name="Caminho 11" d="M521.247,190.266a.42.42,0,0,1,0-.566Z" transform="translate(-462.168 -151.997)" fill="#e2211d"/>
    <path id="Caminho_12" data-name="Caminho 12" d="M521.356,198.072l-.038.019-.038-.009c-.019-.17-.066-.34.076-.481Z" transform="translate(-462.277 -159.151)" fill="#e2211d"/>
    <path id="Caminho_13" data-name="Caminho 13" d="M53.309,532.913a.133.133,0,0,0-.009-.085.547.547,0,0,1,.481.085Z" transform="translate(-38.491 -462.72)" fill="#e2211d"/>
    <path id="Caminho_14" data-name="Caminho 14" d="M435.981,532.828a.092.092,0,0,0-.009.085H435.5A.547.547,0,0,1,435.981,532.828Z" transform="translate(-384.615 -462.72)" fill="#e2211d"/>
    <path id="Caminho_15" data-name="Caminho 15" d="M521.516,176.889c-.094-.066-.123-.123,0-.189Z" transform="translate(-462.437 -140.224)" fill="#e2211d"/>
  </g>
</svg>
