<svg width="112" height="120" viewBox="0 0 112 120" fill="none" xmlns="http://www.w3.org/2000/svg">
<path d="M22.7554 77.2168H18.2876L17.2842 80H15.834L19.9062 69.3359H21.1367L25.2163 80H23.7734L22.7554 77.2168ZM18.7124 76.0596H22.3379L20.5215 71.0718L18.7124 76.0596ZM27.9116 80H26.5566V68.75H27.9116V80ZM31.9253 70.1562V72.0752H33.4048V73.1226H31.9253V78.0371C31.9253 78.3545 31.9912 78.5938 32.123 78.7549C32.2549 78.9111 32.4795 78.9893 32.7969 78.9893C32.9531 78.9893 33.168 78.96 33.4414 78.9014V80C33.085 80.0977 32.7383 80.1465 32.4014 80.1465C31.7959 80.1465 31.3394 79.9634 31.0317 79.5972C30.7241 79.231 30.5703 78.7109 30.5703 78.0371V73.1226H29.1274V72.0752H30.5703V70.1562H31.9253ZM34.4888 75.9644C34.4888 75.188 34.6401 74.4897 34.9429 73.8696C35.2505 73.2495 35.6753 72.771 36.2173 72.4341C36.7642 72.0972 37.3867 71.9287 38.085 71.9287C39.1641 71.9287 40.0356 72.3022 40.6997 73.0493C41.3687 73.7964 41.7031 74.79 41.7031 76.0303V76.1255C41.7031 76.897 41.5542 77.5903 41.2563 78.2056C40.9634 78.8159 40.541 79.292 39.9893 79.6338C39.4424 79.9756 38.8125 80.1465 38.0996 80.1465C37.0254 80.1465 36.1538 79.7729 35.4849 79.0259C34.8208 78.2788 34.4888 77.29 34.4888 76.0596V75.9644ZM35.8511 76.1255C35.8511 77.0044 36.0537 77.71 36.459 78.2422C36.8691 78.7744 37.416 79.0405 38.0996 79.0405C38.7881 79.0405 39.335 78.772 39.7402 78.2349C40.1455 77.6929 40.3481 76.936 40.3481 75.9644C40.3481 75.0952 40.1406 74.3921 39.7256 73.855C39.3154 73.313 38.7686 73.042 38.085 73.042C37.416 73.042 36.8765 73.3081 36.4663 73.8403C36.0562 74.3726 35.8511 75.1343 35.8511 76.1255ZM53.8174 76.1255C53.8174 77.3315 53.5415 78.3032 52.9897 79.0405C52.438 79.7778 51.6909 80.1465 50.7485 80.1465C49.7866 80.1465 49.0298 79.8413 48.478 79.231V83.0469H47.123V72.0752H48.3608L48.4268 72.9541C48.9785 72.2705 49.7451 71.9287 50.7266 71.9287C51.6787 71.9287 52.4307 72.2876 52.9824 73.0054C53.5391 73.7231 53.8174 74.7217 53.8174 76.001V76.1255ZM52.4624 75.9717C52.4624 75.0781 52.272 74.3726 51.8911 73.855C51.5103 73.3374 50.9878 73.0786 50.3237 73.0786C49.5034 73.0786 48.8882 73.4424 48.478 74.1699V77.9565C48.8833 78.6792 49.5034 79.0405 50.3384 79.0405C50.9878 79.0405 51.5029 78.7842 51.8838 78.2715C52.2695 77.7539 52.4624 76.9873 52.4624 75.9717ZM60.4385 80C60.3604 79.8438 60.2969 79.5654 60.248 79.165C59.6182 79.8193 58.8662 80.1465 57.9922 80.1465C57.2109 80.1465 56.5688 79.9268 56.0659 79.4873C55.5679 79.043 55.3188 78.4814 55.3188 77.8027C55.3188 76.9775 55.6313 76.3379 56.2563 75.8838C56.8862 75.4248 57.77 75.1953 58.9077 75.1953H60.2261V74.5728C60.2261 74.0991 60.0845 73.7231 59.8013 73.4448C59.5181 73.1616 59.1006 73.02 58.5488 73.02C58.0654 73.02 57.6602 73.1421 57.333 73.3862C57.0059 73.6304 56.8423 73.9258 56.8423 74.2725H55.48C55.48 73.877 55.6191 73.4961 55.8975 73.1299C56.1807 72.7588 56.5615 72.4658 57.04 72.251C57.5234 72.0361 58.0532 71.9287 58.6294 71.9287C59.5425 71.9287 60.2578 72.1582 60.7754 72.6172C61.293 73.0713 61.5615 73.6987 61.5811 74.4995V78.147C61.5811 78.8745 61.6738 79.4531 61.8594 79.8828V80H60.4385ZM58.1899 78.9673C58.6147 78.9673 59.0176 78.8574 59.3984 78.6377C59.7793 78.418 60.0552 78.1323 60.2261 77.7808V76.1548H59.1641C57.5039 76.1548 56.6738 76.6406 56.6738 77.6123C56.6738 78.0371 56.8154 78.3691 57.0986 78.6084C57.3818 78.8477 57.7456 78.9673 58.1899 78.9673ZM63.3755 75.9717C63.3755 74.7559 63.6636 73.7793 64.2397 73.042C64.8159 72.2998 65.5703 71.9287 66.5029 71.9287C67.4307 71.9287 68.1655 72.2461 68.7075 72.8809V68.75H70.0625V80H68.8174L68.7515 79.1504C68.2095 79.8145 67.4551 80.1465 66.4883 80.1465C65.5703 80.1465 64.8208 79.7705 64.2397 79.0186C63.6636 78.2666 63.3755 77.2852 63.3755 76.0742V75.9717ZM64.7305 76.1255C64.7305 77.0239 64.916 77.7271 65.2871 78.2349C65.6582 78.7427 66.1709 78.9966 66.8252 78.9966C67.6846 78.9966 68.312 78.6108 68.7075 77.8394V74.1992C68.3022 73.4521 67.6797 73.0786 66.8398 73.0786C66.1758 73.0786 65.6582 73.335 65.2871 73.8477C64.916 74.3604 64.7305 75.1196 64.7305 76.1255ZM76.0024 73.291C75.7974 73.2568 75.5752 73.2397 75.3359 73.2397C74.4473 73.2397 73.8442 73.6182 73.5269 74.375V80H72.1719V72.0752H73.4902L73.5122 72.9907C73.9565 72.2827 74.5864 71.9287 75.4019 71.9287C75.6655 71.9287 75.8657 71.9629 76.0024 72.0312V73.291ZM81.8545 80C81.7764 79.8438 81.7129 79.5654 81.6641 79.165C81.0342 79.8193 80.2822 80.1465 79.4082 80.1465C78.627 80.1465 77.9849 79.9268 77.4819 79.4873C76.9839 79.043 76.7349 78.4814 76.7349 77.8027C76.7349 76.9775 77.0474 76.3379 77.6724 75.8838C78.3022 75.4248 79.186 75.1953 80.3237 75.1953H81.6421V74.5728C81.6421 74.0991 81.5005 73.7231 81.2173 73.4448C80.9341 73.1616 80.5166 73.02 79.9648 73.02C79.4814 73.02 79.0762 73.1421 78.749 73.3862C78.4219 73.6304 78.2583 73.9258 78.2583 74.2725H76.896C76.896 73.877 77.0352 73.4961 77.3135 73.1299C77.5967 72.7588 77.9775 72.4658 78.4561 72.251C78.9395 72.0361 79.4692 71.9287 80.0454 71.9287C80.9585 71.9287 81.6738 72.1582 82.1914 72.6172C82.709 73.0713 82.9775 73.6987 82.9971 74.4995V78.147C82.9971 78.8745 83.0898 79.4531 83.2754 79.8828V80H81.8545ZM79.606 78.9673C80.0308 78.9673 80.4336 78.8574 80.8145 78.6377C81.1953 78.418 81.4712 78.1323 81.6421 77.7808V76.1548H80.5801C78.9199 76.1548 78.0898 76.6406 78.0898 77.6123C78.0898 78.0371 78.2314 78.3691 78.5146 78.6084C78.7979 78.8477 79.1616 78.9673 79.606 78.9673ZM82.792 68.9844C82.792 69.5117 82.6406 69.939 82.3379 70.2661C82.04 70.5933 81.6665 70.7568 81.2173 70.7568C81.0171 70.7568 80.8438 70.7324 80.6973 70.6836C80.5508 70.6348 80.3579 70.5347 80.1187 70.3833C79.8843 70.2319 79.7134 70.1416 79.606 70.1123C79.5034 70.0781 79.3838 70.061 79.2471 70.061C79.0469 70.061 78.876 70.1392 78.7344 70.2954C78.5928 70.4468 78.522 70.6421 78.522 70.8813L77.6138 70.8301C77.6138 70.3076 77.7603 69.8755 78.0532 69.5337C78.3511 69.1919 78.7271 69.021 79.1812 69.021C79.3521 69.021 79.5059 69.0454 79.6426 69.0942C79.7793 69.1431 79.9648 69.2383 80.1992 69.3799C80.4336 69.5215 80.6118 69.6143 80.7339 69.6582C80.8608 69.7021 81 69.7241 81.1514 69.7241C81.3613 69.7241 81.5347 69.6411 81.6714 69.4751C81.813 69.3091 81.8838 69.1162 81.8838 68.8965L82.792 68.9844ZM84.7622 75.9644C84.7622 75.188 84.9136 74.4897 85.2163 73.8696C85.5239 73.2495 85.9487 72.771 86.4907 72.4341C87.0376 72.0972 87.6602 71.9287 88.3584 71.9287C89.4375 71.9287 90.3091 72.3022 90.9731 73.0493C91.6421 73.7964 91.9766 74.79 91.9766 76.0303V76.1255C91.9766 76.897 91.8276 77.5903 91.5298 78.2056C91.2368 78.8159 90.8145 79.292 90.2627 79.6338C89.7158 79.9756 89.0859 80.1465 88.373 80.1465C87.2988 80.1465 86.4272 79.7729 85.7583 79.0259C85.0942 78.2788 84.7622 77.29 84.7622 76.0596V75.9644ZM86.1245 76.1255C86.1245 77.0044 86.3271 77.71 86.7324 78.2422C87.1426 78.7744 87.6895 79.0405 88.373 79.0405C89.0615 79.0405 89.6084 78.772 90.0137 78.2349C90.4189 77.6929 90.6216 76.936 90.6216 75.9644C90.6216 75.0952 90.4141 74.3921 89.999 73.855C89.5889 73.313 89.042 73.042 88.3584 73.042C87.6895 73.042 87.1499 73.3081 86.7397 73.8403C86.3296 74.3726 86.1245 75.1343 86.1245 76.1255ZM4.56934 93.9717C4.56934 92.7559 4.85742 91.7793 5.43359 91.042C6.00977 90.2998 6.76416 89.9287 7.69678 89.9287C8.62451 89.9287 9.35938 90.2461 9.90137 90.8809V86.75H11.2563V98H10.0112L9.94531 97.1504C9.40332 97.8145 8.64893 98.1465 7.68213 98.1465C6.76416 98.1465 6.01465 97.7705 5.43359 97.0186C4.85742 96.2666 4.56934 95.2852 4.56934 94.0742V93.9717ZM5.92432 94.1255C5.92432 95.0239 6.10986 95.7271 6.48096 96.2349C6.85205 96.7427 7.36475 96.9966 8.01904 96.9966C8.87842 96.9966 9.50586 96.6108 9.90137 95.8394V92.1992C9.49609 91.4521 8.87354 91.0786 8.03369 91.0786C7.36963 91.0786 6.85205 91.335 6.48096 91.8477C6.10986 92.3604 5.92432 93.1196 5.92432 94.1255ZM16.6543 98.1465C15.5801 98.1465 14.7061 97.7949 14.0322 97.0918C13.3584 96.3838 13.0215 95.439 13.0215 94.2573V94.0083C13.0215 93.2222 13.1704 92.5215 13.4683 91.9062C13.771 91.2861 14.1909 90.8027 14.728 90.4561C15.27 90.1045 15.856 89.9287 16.4858 89.9287C17.5161 89.9287 18.3169 90.2681 18.8882 90.9468C19.4595 91.6255 19.7451 92.5972 19.7451 93.8618V94.4258H14.3765C14.396 95.207 14.623 95.8394 15.0576 96.3228C15.4971 96.8013 16.0537 97.0405 16.7275 97.0405C17.2061 97.0405 17.6113 96.9429 17.9434 96.7476C18.2754 96.5522 18.5659 96.2935 18.8149 95.9712L19.6426 96.6157C18.9785 97.6362 17.9824 98.1465 16.6543 98.1465ZM16.4858 91.042C15.939 91.042 15.48 91.2422 15.1089 91.6426C14.7378 92.0381 14.5083 92.5947 14.4204 93.3125H18.3901V93.21C18.3511 92.5215 18.1655 91.9893 17.8335 91.6133C17.5015 91.2324 17.0522 91.042 16.4858 91.042ZM29.9331 98C29.855 97.8438 29.7915 97.5654 29.7427 97.165C29.1128 97.8193 28.3608 98.1465 27.4868 98.1465C26.7056 98.1465 26.0635 97.9268 25.5605 97.4873C25.0625 97.043 24.8135 96.4814 24.8135 95.8027C24.8135 94.9775 25.126 94.3379 25.751 93.8838C26.3809 93.4248 27.2646 93.1953 28.4023 93.1953H29.7207V92.5728C29.7207 92.0991 29.5791 91.7231 29.2959 91.4448C29.0127 91.1616 28.5952 91.02 28.0435 91.02C27.5601 91.02 27.1548 91.1421 26.8276 91.3862C26.5005 91.6304 26.3369 91.9258 26.3369 92.2725H24.9746C24.9746 91.877 25.1138 91.4961 25.3921 91.1299C25.6753 90.7588 26.0562 90.4658 26.5347 90.251C27.0181 90.0361 27.5479 89.9287 28.124 89.9287C29.0371 89.9287 29.7524 90.1582 30.27 90.6172C30.7876 91.0713 31.0562 91.6987 31.0757 92.4995V96.147C31.0757 96.8745 31.1685 97.4531 31.354 97.8828V98H29.9331ZM27.6846 96.9673C28.1094 96.9673 28.5122 96.8574 28.8931 96.6377C29.2739 96.418 29.5498 96.1323 29.7207 95.7808V94.1548H28.6587C26.9985 94.1548 26.1685 94.6406 26.1685 95.6123C26.1685 96.0371 26.3101 96.3691 26.5933 96.6084C26.8765 96.8477 27.2402 96.9673 27.6846 96.9673ZM35.0381 88.1562V90.0752H36.5176V91.1226H35.0381V96.0371C35.0381 96.3545 35.104 96.5938 35.2358 96.7549C35.3677 96.9111 35.5923 96.9893 35.9097 96.9893C36.0659 96.9893 36.2808 96.96 36.5542 96.9014V98C36.1978 98.0977 35.8511 98.1465 35.5142 98.1465C34.9087 98.1465 34.4521 97.9634 34.1445 97.5972C33.8369 97.231 33.6831 96.7109 33.6831 96.0371V91.1226H32.2402V90.0752H33.6831V88.1562H35.0381ZM41.3955 98.1465C40.3213 98.1465 39.4473 97.7949 38.7734 97.0918C38.0996 96.3838 37.7627 95.439 37.7627 94.2573V94.0083C37.7627 93.2222 37.9116 92.5215 38.2095 91.9062C38.5122 91.2861 38.9321 90.8027 39.4692 90.4561C40.0112 90.1045 40.5972 89.9287 41.2271 89.9287C42.2573 89.9287 43.0581 90.2681 43.6294 90.9468C44.2007 91.6255 44.4863 92.5972 44.4863 93.8618V94.4258H39.1177C39.1372 95.207 39.3643 95.8394 39.7988 96.3228C40.2383 96.8013 40.7949 97.0405 41.4688 97.0405C41.9473 97.0405 42.3525 96.9429 42.6846 96.7476C43.0166 96.5522 43.3071 96.2935 43.5562 95.9712L44.3838 96.6157C43.7197 97.6362 42.7236 98.1465 41.3955 98.1465ZM41.2271 91.042C40.6802 91.042 40.2212 91.2422 39.8501 91.6426C39.479 92.0381 39.2495 92.5947 39.1616 93.3125H43.1313V93.21C43.0923 92.5215 42.9067 91.9893 42.5747 91.6133C42.2427 91.2324 41.7935 91.042 41.2271 91.042ZM47.3428 90.0752L47.3867 91.0713C47.9922 90.3096 48.7832 89.9287 49.7598 89.9287C51.4346 89.9287 52.2793 90.8735 52.2939 92.7632V98H50.939V92.7559C50.9341 92.1846 50.8022 91.7622 50.5435 91.4888C50.2896 91.2153 49.8916 91.0786 49.3496 91.0786C48.9102 91.0786 48.5244 91.1958 48.1924 91.4302C47.8604 91.6646 47.6016 91.9722 47.416 92.353V98H46.061V90.0752H47.3428ZM54.0078 93.9717C54.0078 92.7559 54.2959 91.7793 54.8721 91.042C55.4482 90.2998 56.2026 89.9287 57.1353 89.9287C58.063 89.9287 58.7979 90.2461 59.3398 90.8809V86.75H60.6948V98H59.4497L59.3838 97.1504C58.8418 97.8145 58.0874 98.1465 57.1206 98.1465C56.2026 98.1465 55.4531 97.7705 54.8721 97.0186C54.2959 96.2666 54.0078 95.2852 54.0078 94.0742V93.9717ZM55.3628 94.1255C55.3628 95.0239 55.5483 95.7271 55.9194 96.2349C56.2905 96.7427 56.8032 96.9966 57.4575 96.9966C58.3169 96.9966 58.9443 96.6108 59.3398 95.8394V92.1992C58.9346 91.4521 58.312 91.0786 57.4722 91.0786C56.8081 91.0786 56.2905 91.335 55.9194 91.8477C55.5483 92.3604 55.3628 93.1196 55.3628 94.1255ZM64.2764 98H62.9214V90.0752H64.2764V98ZM62.8115 87.9731C62.8115 87.7534 62.8774 87.5679 63.0093 87.4165C63.146 87.2651 63.3462 87.1895 63.6099 87.1895C63.8735 87.1895 64.0737 87.2651 64.2104 87.4165C64.3472 87.5679 64.4155 87.7534 64.4155 87.9731C64.4155 88.1929 64.3472 88.376 64.2104 88.5225C64.0737 88.6689 63.8735 88.7422 63.6099 88.7422C63.3462 88.7422 63.146 88.6689 63.0093 88.5225C62.8774 88.376 62.8115 88.1929 62.8115 87.9731ZM67.7261 90.0752L67.7627 90.9541C68.3438 90.2705 69.1274 89.9287 70.1138 89.9287C71.2222 89.9287 71.9766 90.3535 72.377 91.2031C72.6406 90.8223 72.9824 90.5146 73.4023 90.2803C73.8271 90.0459 74.3276 89.9287 74.9038 89.9287C76.6421 89.9287 77.5259 90.8491 77.5552 92.6899V98H76.2002V92.7705C76.2002 92.2041 76.0708 91.7817 75.812 91.5034C75.5532 91.2202 75.1187 91.0786 74.5083 91.0786C74.0054 91.0786 73.5879 91.23 73.2559 91.5327C72.9238 91.8306 72.731 92.2334 72.6772 92.7412V98H71.3149V92.8071C71.3149 91.6548 70.751 91.0786 69.623 91.0786C68.7344 91.0786 68.1265 91.457 67.7993 92.2139V98H66.4443V90.0752H67.7261ZM82.8945 98.1465C81.8203 98.1465 80.9463 97.7949 80.2725 97.0918C79.5986 96.3838 79.2617 95.439 79.2617 94.2573V94.0083C79.2617 93.2222 79.4106 92.5215 79.7085 91.9062C80.0112 91.2861 80.4312 90.8027 80.9683 90.4561C81.5103 90.1045 82.0962 89.9287 82.7261 89.9287C83.7563 89.9287 84.5571 90.2681 85.1284 90.9468C85.6997 91.6255 85.9854 92.5972 85.9854 93.8618V94.4258H80.6167C80.6362 95.207 80.8633 95.8394 81.2979 96.3228C81.7373 96.8013 82.2939 97.0405 82.9678 97.0405C83.4463 97.0405 83.8516 96.9429 84.1836 96.7476C84.5156 96.5522 84.8062 96.2935 85.0552 95.9712L85.8828 96.6157C85.2188 97.6362 84.2227 98.1465 82.8945 98.1465ZM82.7261 91.042C82.1792 91.042 81.7202 91.2422 81.3491 91.6426C80.978 92.0381 80.7485 92.5947 80.6606 93.3125H84.6304V93.21C84.5913 92.5215 84.4058 91.9893 84.0737 91.6133C83.7417 91.2324 83.2925 91.042 82.7261 91.042ZM88.8418 90.0752L88.8857 91.0713C89.4912 90.3096 90.2822 89.9287 91.2588 89.9287C92.9336 89.9287 93.7783 90.8735 93.793 92.7632V98H92.438V92.7559C92.4331 92.1846 92.3013 91.7622 92.0425 91.4888C91.7886 91.2153 91.3906 91.0786 90.8486 91.0786C90.4092 91.0786 90.0234 91.1958 89.6914 91.4302C89.3594 91.6646 89.1006 91.9722 88.915 92.353V98H87.5601V90.0752H88.8418ZM97.6748 88.1562V90.0752H99.1543V91.1226H97.6748V96.0371C97.6748 96.3545 97.7407 96.5938 97.8726 96.7549C98.0044 96.9111 98.229 96.9893 98.5464 96.9893C98.7026 96.9893 98.9175 96.96 99.1909 96.9014V98C98.8345 98.0977 98.4878 98.1465 98.1509 98.1465C97.5454 98.1465 97.0889 97.9634 96.7812 97.5972C96.4736 97.231 96.3198 96.7109 96.3198 96.0371V91.1226H94.877V90.0752H96.3198V88.1562H97.6748ZM100.238 93.9644C100.238 93.188 100.39 92.4897 100.692 91.8696C101 91.2495 101.425 90.771 101.967 90.4341C102.514 90.0972 103.136 89.9287 103.834 89.9287C104.914 89.9287 105.785 90.3022 106.449 91.0493C107.118 91.7964 107.453 92.79 107.453 94.0303V94.1255C107.453 94.897 107.304 95.5903 107.006 96.2056C106.713 96.8159 106.291 97.292 105.739 97.6338C105.192 97.9756 104.562 98.1465 103.849 98.1465C102.775 98.1465 101.903 97.7729 101.234 97.0259C100.57 96.2788 100.238 95.29 100.238 94.0596V93.9644ZM101.601 94.1255C101.601 95.0044 101.803 95.71 102.208 96.2422C102.619 96.7744 103.166 97.0405 103.849 97.0405C104.538 97.0405 105.084 96.772 105.49 96.2349C105.895 95.6929 106.098 94.936 106.098 93.9644C106.098 93.0952 105.89 92.3921 105.475 91.855C105.065 91.313 104.518 91.042 103.834 91.042C103.166 91.042 102.626 91.3081 102.216 91.8403C101.806 92.3726 101.601 93.1343 101.601 94.1255Z" fill="black"/>
<path d="M69.5366 39.6046H56.4246L47.2 35.9152V17.6046H49.4C49.8088 17.6048 50.2096 17.491 50.5574 17.2762C50.9052 17.0613 51.1863 16.7537 51.369 16.388L57.3354 4.45299L58.2 4.48599C59.41 4.48599 60.4 5.47599 60.4 6.68599V13.2024H58.2C57.6165 13.2024 57.0569 13.4342 56.6444 13.8468C56.2318 14.2593 56 14.8189 56 15.4024C56 15.9859 56.2318 16.5454 56.6444 16.958C57.0569 17.3706 57.6165 17.6024 58.2 17.6024H73.204L69.5366 39.6024V39.6046ZM38.4 35.2046V17.6046H42.8V35.2046H38.4ZM77.4786 13.9834C77.2722 13.7395 77.0151 13.5434 76.7252 13.4089C76.4353 13.2744 76.1196 13.2047 75.8 13.2046H64.8V6.68819C64.8 3.04939 61.841 0.0881888 58.288 0.0881888H58.2836L56.0836 0.00458885C55.6603 -0.0153117 55.2405 0.0893291 54.876 0.305564C54.5116 0.521798 54.2186 0.840136 54.0332 1.22119L48.0404 13.2046H36.2C35.6165 13.2046 35.0569 13.4364 34.6444 13.849C34.2318 14.2615 34 14.8211 34 15.4046V37.4046C34 37.9881 34.2318 38.5476 34.6444 38.9602C35.0569 39.3728 35.6165 39.6046 36.2 39.6046H44.5754L55.1838 43.8506C55.4412 43.9518 55.7184 44.0046 55.9978 44.0046H71.3978C72.4758 44.0046 73.391 43.2258 73.567 42.1676L77.967 15.7676C78.0209 15.4528 78.0049 15.1299 77.9201 14.822C77.8353 14.514 77.6838 14.2285 77.4764 13.9856L77.4786 13.9834Z" fill="#E2211D"/>
</svg>
