<svg width="92" height="120" viewBox="0 0 92 120" fill="none" xmlns="http://www.w3.org/2000/svg">
<path fill-rule="evenodd" clip-rule="evenodd" d="M61.4004 0H30.6004C30.0169 0 29.4573 0.231785 29.0448 0.644365C28.6322 1.05695 28.4004 1.61652 28.4004 2.2V41.8C28.4004 42.3835 28.6322 42.9431 29.0448 43.3556C29.4573 43.7682 30.0169 44 30.6004 44H61.4004C61.9839 44 62.5434 43.7682 62.956 43.3556C63.3686 42.9431 63.6004 42.3835 63.6004 41.8V2.2C63.6004 1.61652 63.3686 1.05695 62.956 0.644365C62.5434 0.231785 61.9839 0 61.4004 0ZM32.8004 39.6H59.2004V4.4H32.8004V39.6ZM43.8004 13.2H48.2004C48.7839 13.2 49.3434 12.9682 49.756 12.5556C50.1686 12.1431 50.4004 11.5835 50.4004 11C50.4004 10.4165 50.1686 9.85695 49.756 9.44437C49.3434 9.03179 48.7839 8.8 48.2004 8.8H43.8004C43.2169 8.8 42.6573 9.03179 42.2448 9.44437C41.8322 9.85695 41.6004 10.4165 41.6004 11C41.6004 11.5835 41.8322 12.1431 42.2448 12.5556C42.6573 12.9682 43.2169 13.2 43.8004 13.2ZM46.0004 30.8C45.4169 30.8 44.8573 31.0318 44.4448 31.4444C44.0322 31.8569 43.8004 32.4165 43.8004 33C43.8004 33.5835 44.0322 34.1431 44.4448 34.5556C44.8573 34.9682 45.4169 35.2 46.0004 35.2C46.5839 35.2 47.1434 34.9682 47.556 34.5556C47.9686 34.1431 48.2004 33.5835 48.2004 33C48.2004 32.4165 47.9686 31.8569 47.556 31.4444C47.1434 31.0318 46.5839 30.8 46.0004 30.8Z" fill="#E2211D"/>
<path d="M5.81201 78.1323L8.85889 69.3359H10.397L6.44189 80H5.19678L1.24902 69.3359H2.77979L5.81201 78.1323ZM14.5864 80.1465C13.5122 80.1465 12.6382 79.7949 11.9644 79.0918C11.2905 78.3838 10.9536 77.439 10.9536 76.2573V76.0083C10.9536 75.2222 11.1025 74.5215 11.4004 73.9062C11.7031 73.2861 12.123 72.8027 12.6602 72.4561C13.2021 72.1045 13.7881 71.9287 14.418 71.9287C15.4482 71.9287 16.249 72.2681 16.8203 72.9468C17.3916 73.6255 17.6772 74.5972 17.6772 75.8618V76.4258H12.3086C12.3281 77.207 12.5552 77.8394 12.9897 78.3228C13.4292 78.8013 13.9858 79.0405 14.6597 79.0405C15.1382 79.0405 15.5435 78.9429 15.8755 78.7476C16.2075 78.5522 16.498 78.2935 16.7471 77.9712L17.5747 78.6157C16.9106 79.6362 15.9146 80.1465 14.5864 80.1465ZM14.418 73.042C13.8711 73.042 13.4121 73.2422 13.041 73.6426C12.6699 74.0381 12.4404 74.5947 12.3525 75.3125H16.3223V75.21C16.2832 74.5215 16.0977 73.9893 15.7656 73.6133C15.4336 73.2324 14.9844 73.042 14.418 73.042ZM20.5337 72.0752L20.5776 73.0713C21.1831 72.3096 21.9741 71.9287 22.9507 71.9287C24.6255 71.9287 25.4702 72.8735 25.4849 74.7632V80H24.1299V74.7559C24.125 74.1846 23.9932 73.7622 23.7344 73.4888C23.4805 73.2153 23.0825 73.0786 22.5405 73.0786C22.1011 73.0786 21.7153 73.1958 21.3833 73.4302C21.0513 73.6646 20.7925 73.9722 20.6069 74.353V80H19.252V72.0752H20.5337ZM27.1987 75.9717C27.1987 74.7559 27.4868 73.7793 28.063 73.042C28.6392 72.2998 29.3936 71.9287 30.3262 71.9287C31.2539 71.9287 31.9888 72.2461 32.5308 72.8809V68.75H33.8857V80H32.6406L32.5747 79.1504C32.0327 79.8145 31.2783 80.1465 30.3115 80.1465C29.3936 80.1465 28.644 79.7705 28.063 79.0186C27.4868 78.2666 27.1987 77.2852 27.1987 76.0742V75.9717ZM28.5537 76.1255C28.5537 77.0239 28.7393 77.7271 29.1104 78.2349C29.4814 78.7427 29.9941 78.9966 30.6484 78.9966C31.5078 78.9966 32.1353 78.6108 32.5308 77.8394V74.1992C32.1255 73.4521 31.5029 73.0786 30.6631 73.0786C29.999 73.0786 29.4814 73.335 29.1104 73.8477C28.7393 74.3604 28.5537 75.1196 28.5537 76.1255ZM40.8877 80C40.8096 79.8438 40.7461 79.5654 40.6973 79.165C40.0674 79.8193 39.3154 80.1465 38.4414 80.1465C37.6602 80.1465 37.0181 79.9268 36.5151 79.4873C36.0171 79.043 35.7681 78.4814 35.7681 77.8027C35.7681 76.9775 36.0806 76.3379 36.7056 75.8838C37.3354 75.4248 38.2192 75.1953 39.3569 75.1953H40.6753V74.5728C40.6753 74.0991 40.5337 73.7231 40.2505 73.4448C39.9673 73.1616 39.5498 73.02 38.998 73.02C38.5146 73.02 38.1094 73.1421 37.7822 73.3862C37.4551 73.6304 37.2915 73.9258 37.2915 74.2725H35.9292C35.9292 73.877 36.0684 73.4961 36.3467 73.1299C36.6299 72.7588 37.0107 72.4658 37.4893 72.251C37.9727 72.0361 38.5024 71.9287 39.0786 71.9287C39.9917 71.9287 40.707 72.1582 41.2246 72.6172C41.7422 73.0713 42.0107 73.6987 42.0303 74.4995V78.147C42.0303 78.8745 42.123 79.4531 42.3086 79.8828V80H40.8877ZM38.6392 78.9673C39.064 78.9673 39.4668 78.8574 39.8477 78.6377C40.2285 78.418 40.5044 78.1323 40.6753 77.7808V76.1548H39.6133C37.9531 76.1548 37.123 76.6406 37.123 77.6123C37.123 78.0371 37.2646 78.3691 37.5479 78.6084C37.8311 78.8477 38.1948 78.9673 38.6392 78.9673ZM49.1567 72.0752L49.2007 73.0713C49.8062 72.3096 50.5972 71.9287 51.5737 71.9287C53.2485 71.9287 54.0933 72.8735 54.1079 74.7632V80H52.7529V74.7559C52.748 74.1846 52.6162 73.7622 52.3574 73.4888C52.1035 73.2153 51.7056 73.0786 51.1636 73.0786C50.7241 73.0786 50.3384 73.1958 50.0063 73.4302C49.6743 73.6646 49.4155 73.9722 49.23 74.353V80H47.875V72.0752H49.1567ZM61.0439 80C60.9658 79.8438 60.9023 79.5654 60.8535 79.165C60.2236 79.8193 59.4717 80.1465 58.5977 80.1465C57.8164 80.1465 57.1743 79.9268 56.6714 79.4873C56.1733 79.043 55.9243 78.4814 55.9243 77.8027C55.9243 76.9775 56.2368 76.3379 56.8618 75.8838C57.4917 75.4248 58.3755 75.1953 59.5132 75.1953H60.8315V74.5728C60.8315 74.0991 60.6899 73.7231 60.4067 73.4448C60.1235 73.1616 59.7061 73.02 59.1543 73.02C58.6709 73.02 58.2656 73.1421 57.9385 73.3862C57.6113 73.6304 57.4478 73.9258 57.4478 74.2725H56.0854C56.0854 73.877 56.2246 73.4961 56.5029 73.1299C56.7861 72.7588 57.167 72.4658 57.6455 72.251C58.1289 72.0361 58.6587 71.9287 59.2349 71.9287C60.1479 71.9287 60.8633 72.1582 61.3809 72.6172C61.8984 73.0713 62.167 73.6987 62.1865 74.4995V78.147C62.1865 78.8745 62.2793 79.4531 62.4648 79.8828V80H61.0439ZM58.7954 78.9673C59.2202 78.9673 59.623 78.8574 60.0039 78.6377C60.3848 78.418 60.6606 78.1323 60.8315 77.7808V76.1548H59.7695C58.1094 76.1548 57.2793 76.6406 57.2793 77.6123C57.2793 78.0371 57.4209 78.3691 57.7041 78.6084C57.9873 78.8477 58.3511 78.9673 58.7954 78.9673ZM69.5034 80H68.1484V68.75H69.5034V80ZM71.3198 75.9644C71.3198 75.188 71.4712 74.4897 71.7739 73.8696C72.0815 73.2495 72.5063 72.771 73.0483 72.4341C73.5952 72.0972 74.2178 71.9287 74.916 71.9287C75.9951 71.9287 76.8667 72.3022 77.5308 73.0493C78.1997 73.7964 78.5342 74.79 78.5342 76.0303V76.1255C78.5342 76.897 78.3853 77.5903 78.0874 78.2056C77.7944 78.8159 77.3721 79.292 76.8203 79.6338C76.2734 79.9756 75.6436 80.1465 74.9307 80.1465C73.8564 80.1465 72.9849 79.7729 72.3159 79.0259C71.6519 78.2788 71.3198 77.29 71.3198 76.0596V75.9644ZM72.6821 76.1255C72.6821 77.0044 72.8848 77.71 73.29 78.2422C73.7002 78.7744 74.2471 79.0405 74.9307 79.0405C75.6191 79.0405 76.166 78.772 76.5713 78.2349C76.9766 77.6929 77.1792 76.936 77.1792 75.9644C77.1792 75.0952 76.9717 74.3921 76.5566 73.855C76.1465 73.313 75.5996 73.042 74.916 73.042C74.2471 73.042 73.7075 73.3081 73.2974 73.8403C72.8872 74.3726 72.6821 75.1343 72.6821 76.1255ZM81.6323 72.0752V80.9155C81.6323 82.439 80.9414 83.2007 79.5596 83.2007C79.2617 83.2007 78.9858 83.1567 78.7319 83.0688V81.9849C78.8882 82.0239 79.0933 82.0435 79.3472 82.0435C79.6499 82.0435 79.8794 81.9604 80.0356 81.7944C80.1968 81.6333 80.2773 81.3501 80.2773 80.9448V72.0752H81.6323ZM80.1382 69.9731C80.1382 69.7583 80.2041 69.5752 80.3359 69.4238C80.4727 69.2676 80.6704 69.1895 80.9292 69.1895C81.1929 69.1895 81.3931 69.2651 81.5298 69.4165C81.6665 69.5679 81.7349 69.7534 81.7349 69.9731C81.7349 70.1929 81.6665 70.376 81.5298 70.5225C81.3931 70.6689 81.1929 70.7422 80.9292 70.7422C80.6655 70.7422 80.4678 70.6689 80.3359 70.5225C80.2041 70.376 80.1382 70.1929 80.1382 69.9731ZM88.7148 80C88.6367 79.8438 88.5732 79.5654 88.5244 79.165C87.8945 79.8193 87.1426 80.1465 86.2686 80.1465C85.4873 80.1465 84.8452 79.9268 84.3423 79.4873C83.8442 79.043 83.5952 78.4814 83.5952 77.8027C83.5952 76.9775 83.9077 76.3379 84.5327 75.8838C85.1626 75.4248 86.0464 75.1953 87.1841 75.1953H88.5024V74.5728C88.5024 74.0991 88.3608 73.7231 88.0776 73.4448C87.7944 73.1616 87.377 73.02 86.8252 73.02C86.3418 73.02 85.9365 73.1421 85.6094 73.3862C85.2822 73.6304 85.1187 73.9258 85.1187 74.2725H83.7563C83.7563 73.877 83.8955 73.4961 84.1738 73.1299C84.457 72.7588 84.8379 72.4658 85.3164 72.251C85.7998 72.0361 86.3296 71.9287 86.9058 71.9287C87.8188 71.9287 88.5342 72.1582 89.0518 72.6172C89.5693 73.0713 89.8379 73.6987 89.8574 74.4995V78.147C89.8574 78.8745 89.9502 79.4531 90.1357 79.8828V80H88.7148ZM86.4663 78.9673C86.8911 78.9673 87.2939 78.8574 87.6748 78.6377C88.0557 78.418 88.3315 78.1323 88.5024 77.7808V76.1548H87.4404C85.7803 76.1548 84.9502 76.6406 84.9502 77.6123C84.9502 78.0371 85.0918 78.3691 85.375 78.6084C85.6582 78.8477 86.022 78.9673 86.4663 78.9673ZM4.63281 93.9644C4.63281 93.188 4.78418 92.4897 5.08691 91.8696C5.39453 91.2495 5.81934 90.771 6.36133 90.4341C6.9082 90.0972 7.53076 89.9287 8.229 89.9287C9.30811 89.9287 10.1797 90.3022 10.8438 91.0493C11.5127 91.7964 11.8472 92.79 11.8472 94.0303V94.1255C11.8472 94.897 11.6982 95.5903 11.4004 96.2056C11.1074 96.8159 10.6851 97.292 10.1333 97.6338C9.58643 97.9756 8.95654 98.1465 8.24365 98.1465C7.16943 98.1465 6.29785 97.7729 5.62891 97.0259C4.96484 96.2788 4.63281 95.29 4.63281 94.0596V93.9644ZM5.99512 94.1255C5.99512 95.0044 6.19775 95.71 6.60303 96.2422C7.01318 96.7744 7.56006 97.0405 8.24365 97.0405C8.93213 97.0405 9.479 96.772 9.88428 96.2349C10.2896 95.6929 10.4922 94.936 10.4922 93.9644C10.4922 93.0952 10.2847 92.3921 9.86963 91.855C9.45947 91.313 8.9126 91.042 8.229 91.042C7.56006 91.042 7.02051 91.3081 6.61035 91.8403C6.2002 92.3726 5.99512 93.1343 5.99512 94.1255ZM14.8281 90.0752L14.8721 91.0713C15.4775 90.3096 16.2686 89.9287 17.2451 89.9287C18.9199 89.9287 19.7646 90.8735 19.7793 92.7632V98H18.4243V92.7559C18.4194 92.1846 18.2876 91.7622 18.0288 91.4888C17.7749 91.2153 17.377 91.0786 16.835 91.0786C16.3955 91.0786 16.0098 91.1958 15.6777 91.4302C15.3457 91.6646 15.0869 91.9722 14.9014 92.353V98H13.5464V90.0752H14.8281ZM24.6426 94.0229H21.0684V92.917H24.6426V94.0229ZM27.4404 98H26.0854V86.75H27.4404V98ZM31.0879 98H29.7329V90.0752H31.0879V98ZM29.623 87.9731C29.623 87.7534 29.689 87.5679 29.8208 87.4165C29.9575 87.2651 30.1577 87.1895 30.4214 87.1895C30.6851 87.1895 30.8853 87.2651 31.022 87.4165C31.1587 87.5679 31.2271 87.7534 31.2271 87.9731C31.2271 88.1929 31.1587 88.376 31.022 88.5225C30.8853 88.6689 30.6851 88.7422 30.4214 88.7422C30.1577 88.7422 29.9575 88.6689 29.8208 88.5225C29.689 88.376 29.623 88.1929 29.623 87.9731ZM34.5449 90.0752L34.5889 91.0713C35.1943 90.3096 35.9854 89.9287 36.9619 89.9287C38.6367 89.9287 39.4814 90.8735 39.4961 92.7632V98H38.1411V92.7559C38.1362 92.1846 38.0044 91.7622 37.7456 91.4888C37.4917 91.2153 37.0938 91.0786 36.5518 91.0786C36.1123 91.0786 35.7266 91.1958 35.3945 91.4302C35.0625 91.6646 34.8037 91.9722 34.6182 92.353V98H33.2632V90.0752H34.5449ZM44.8281 98.1465C43.7539 98.1465 42.8799 97.7949 42.2061 97.0918C41.5322 96.3838 41.1953 95.439 41.1953 94.2573V94.0083C41.1953 93.2222 41.3442 92.5215 41.6421 91.9062C41.9448 91.2861 42.3647 90.8027 42.9019 90.4561C43.4438 90.1045 44.0298 89.9287 44.6597 89.9287C45.6899 89.9287 46.4907 90.2681 47.062 90.9468C47.6333 91.6255 47.9189 92.5972 47.9189 93.8618V94.4258H42.5503C42.5698 95.207 42.7969 95.8394 43.2314 96.3228C43.6709 96.8013 44.2275 97.0405 44.9014 97.0405C45.3799 97.0405 45.7852 96.9429 46.1172 96.7476C46.4492 96.5522 46.7397 96.2935 46.9888 95.9712L47.8164 96.6157C47.1523 97.6362 46.1562 98.1465 44.8281 98.1465ZM44.6597 91.042C44.1128 91.042 43.6538 91.2422 43.2827 91.6426C42.9116 92.0381 42.6821 92.5947 42.5942 93.3125H46.564V93.21C46.5249 92.5215 46.3394 91.9893 46.0073 91.6133C45.6753 91.2324 45.2261 91.042 44.6597 91.042ZM56.5029 98.1465C55.4287 98.1465 54.5547 97.7949 53.8809 97.0918C53.207 96.3838 52.8701 95.439 52.8701 94.2573V94.0083C52.8701 93.2222 53.019 92.5215 53.3169 91.9062C53.6196 91.2861 54.0396 90.8027 54.5767 90.4561C55.1187 90.1045 55.7046 89.9287 56.3345 89.9287C57.3647 89.9287 58.1655 90.2681 58.7368 90.9468C59.3081 91.6255 59.5938 92.5972 59.5938 93.8618V94.4258H54.2251C54.2446 95.207 54.4717 95.8394 54.9062 96.3228C55.3457 96.8013 55.9023 97.0405 56.5762 97.0405C57.0547 97.0405 57.46 96.9429 57.792 96.7476C58.124 96.5522 58.4146 96.2935 58.6636 95.9712L59.4912 96.6157C58.8271 97.6362 57.8311 98.1465 56.5029 98.1465ZM56.3345 91.042C55.7876 91.042 55.3286 91.2422 54.9575 91.6426C54.5864 92.0381 54.3569 92.5947 54.269 93.3125H58.2388V93.21C58.1997 92.5215 58.0142 91.9893 57.6821 91.6133C57.3501 91.2324 56.9009 91.042 56.3345 91.042ZM66.1709 90.0752L66.2148 91.0713C66.8203 90.3096 67.6113 89.9287 68.5879 89.9287C70.2627 89.9287 71.1074 90.8735 71.1221 92.7632V98H69.7671V92.7559C69.7622 92.1846 69.6304 91.7622 69.3716 91.4888C69.1177 91.2153 68.7197 91.0786 68.1777 91.0786C67.7383 91.0786 67.3525 91.1958 67.0205 91.4302C66.6885 91.6646 66.4297 91.9722 66.2441 92.353V98H64.8892V90.0752H66.1709ZM78.0581 98C77.98 97.8438 77.9165 97.5654 77.8677 97.165C77.2378 97.8193 76.4858 98.1465 75.6118 98.1465C74.8306 98.1465 74.1885 97.9268 73.6855 97.4873C73.1875 97.043 72.9385 96.4814 72.9385 95.8027C72.9385 94.9775 73.251 94.3379 73.876 93.8838C74.5059 93.4248 75.3896 93.1953 76.5273 93.1953H77.8457V92.5728C77.8457 92.0991 77.7041 91.7231 77.4209 91.4448C77.1377 91.1616 76.7202 91.02 76.1685 91.02C75.6851 91.02 75.2798 91.1421 74.9526 91.3862C74.6255 91.6304 74.4619 91.9258 74.4619 92.2725H73.0996C73.0996 91.877 73.2388 91.4961 73.5171 91.1299C73.8003 90.7588 74.1812 90.4658 74.6597 90.251C75.1431 90.0361 75.6729 89.9287 76.249 89.9287C77.1621 89.9287 77.8774 90.1582 78.395 90.6172C78.9126 91.0713 79.1812 91.6987 79.2007 92.4995V96.147C79.2007 96.8745 79.2935 97.4531 79.479 97.8828V98H78.0581ZM75.8096 96.9673C76.2344 96.9673 76.6372 96.8574 77.0181 96.6377C77.3989 96.418 77.6748 96.1323 77.8457 95.7808V94.1548H76.7837C75.1235 94.1548 74.2935 94.6406 74.2935 95.6123C74.2935 96.0371 74.4351 96.3691 74.7183 96.6084C75.0015 96.8477 75.3652 96.9673 75.8096 96.9673ZM85.939 95.8979C85.939 95.5317 85.7998 95.2485 85.5215 95.0483C85.248 94.8433 84.7671 94.6675 84.0786 94.521C83.395 94.3745 82.8506 94.1987 82.4453 93.9937C82.0449 93.7886 81.7471 93.5444 81.5518 93.2612C81.3613 92.978 81.2661 92.6411 81.2661 92.2505C81.2661 91.6011 81.5396 91.0518 82.0864 90.6025C82.6382 90.1533 83.3413 89.9287 84.1958 89.9287C85.0942 89.9287 85.8218 90.1606 86.3784 90.6245C86.9399 91.0884 87.2207 91.6816 87.2207 92.4043H85.8584C85.8584 92.0332 85.6997 91.7134 85.3823 91.4448C85.0698 91.1763 84.6743 91.042 84.1958 91.042C83.7026 91.042 83.3169 91.1494 83.0386 91.3643C82.7603 91.5791 82.6211 91.8599 82.6211 92.2065C82.6211 92.5337 82.7505 92.7803 83.0093 92.9463C83.2681 93.1123 83.7344 93.271 84.4082 93.4224C85.0869 93.5737 85.6362 93.7544 86.0562 93.9644C86.4761 94.1743 86.7861 94.4282 86.9863 94.7261C87.1914 95.019 87.2939 95.3779 87.2939 95.8027C87.2939 96.5107 87.0107 97.0796 86.4443 97.5093C85.8779 97.9341 85.1431 98.1465 84.2397 98.1465C83.605 98.1465 83.0435 98.0342 82.5552 97.8096C82.0669 97.585 81.6836 97.2725 81.4053 96.8721C81.1318 96.4668 80.9951 96.0298 80.9951 95.561H82.3501C82.3745 96.0151 82.5552 96.3765 82.8921 96.645C83.2339 96.9087 83.6831 97.0405 84.2397 97.0405C84.7524 97.0405 85.1626 96.938 85.4702 96.7329C85.7827 96.5229 85.939 96.2446 85.939 95.8979ZM8.771 116H7.41602V104.75H8.771V116ZM10.5874 111.964C10.5874 111.188 10.7388 110.49 11.0415 109.87C11.3491 109.25 11.7739 108.771 12.3159 108.434C12.8628 108.097 13.4854 107.929 14.1836 107.929C15.2627 107.929 16.1343 108.302 16.7983 109.049C17.4673 109.796 17.8018 110.79 17.8018 112.03V112.125C17.8018 112.897 17.6528 113.59 17.355 114.206C17.062 114.816 16.6396 115.292 16.0879 115.634C15.541 115.976 14.9111 116.146 14.1982 116.146C13.124 116.146 12.2524 115.773 11.5835 115.026C10.9194 114.279 10.5874 113.29 10.5874 112.06V111.964ZM11.9497 112.125C11.9497 113.004 12.1523 113.71 12.5576 114.242C12.9678 114.774 13.5146 115.041 14.1982 115.041C14.8867 115.041 15.4336 114.772 15.8389 114.235C16.2441 113.693 16.4468 112.936 16.4468 111.964C16.4468 111.095 16.2393 110.392 15.8242 109.855C15.4141 109.313 14.8672 109.042 14.1836 109.042C13.5146 109.042 12.9751 109.308 12.5649 109.84C12.1548 110.373 11.9497 111.134 11.9497 112.125ZM20.8999 108.075V116.916C20.8999 118.439 20.209 119.201 18.8271 119.201C18.5293 119.201 18.2534 119.157 17.9995 119.069V117.985C18.1558 118.024 18.3608 118.043 18.6147 118.043C18.9175 118.043 19.147 117.96 19.3032 117.794C19.4644 117.633 19.5449 117.35 19.5449 116.945V108.075H20.8999ZM19.4058 105.973C19.4058 105.758 19.4717 105.575 19.6035 105.424C19.7402 105.268 19.938 105.189 20.1968 105.189C20.4604 105.189 20.6606 105.265 20.7974 105.417C20.9341 105.568 21.0024 105.753 21.0024 105.973C21.0024 106.193 20.9341 106.376 20.7974 106.522C20.6606 106.669 20.4604 106.742 20.1968 106.742C19.9331 106.742 19.7354 106.669 19.6035 106.522C19.4717 106.376 19.4058 106.193 19.4058 105.973ZM27.9824 116C27.9043 115.844 27.8408 115.565 27.792 115.165C27.1621 115.819 26.4102 116.146 25.5361 116.146C24.7549 116.146 24.1128 115.927 23.6099 115.487C23.1118 115.043 22.8628 114.481 22.8628 113.803C22.8628 112.978 23.1753 112.338 23.8003 111.884C24.4302 111.425 25.314 111.195 26.4517 111.195H27.77V110.573C27.77 110.099 27.6284 109.723 27.3452 109.445C27.062 109.162 26.6445 109.02 26.0928 109.02C25.6094 109.02 25.2041 109.142 24.877 109.386C24.5498 109.63 24.3862 109.926 24.3862 110.272H23.0239C23.0239 109.877 23.1631 109.496 23.4414 109.13C23.7246 108.759 24.1055 108.466 24.584 108.251C25.0674 108.036 25.5972 107.929 26.1733 107.929C27.0864 107.929 27.8018 108.158 28.3193 108.617C28.8369 109.071 29.1055 109.699 29.125 110.5V114.147C29.125 114.875 29.2178 115.453 29.4033 115.883V116H27.9824ZM25.7339 114.967C26.1587 114.967 26.5615 114.857 26.9424 114.638C27.3232 114.418 27.5991 114.132 27.77 113.781V112.155H26.708C25.0479 112.155 24.2178 112.641 24.2178 113.612C24.2178 114.037 24.3594 114.369 24.6426 114.608C24.9258 114.848 25.2896 114.967 25.7339 114.967ZM35.8633 113.898C35.8633 113.532 35.7241 113.249 35.4458 113.048C35.1724 112.843 34.6914 112.667 34.0029 112.521C33.3193 112.375 32.7749 112.199 32.3696 111.994C31.9692 111.789 31.6714 111.544 31.4761 111.261C31.2856 110.978 31.1904 110.641 31.1904 110.25C31.1904 109.601 31.4639 109.052 32.0107 108.603C32.5625 108.153 33.2656 107.929 34.1201 107.929C35.0186 107.929 35.7461 108.161 36.3027 108.625C36.8643 109.088 37.145 109.682 37.145 110.404H35.7827C35.7827 110.033 35.624 109.713 35.3066 109.445C34.9941 109.176 34.5986 109.042 34.1201 109.042C33.627 109.042 33.2412 109.149 32.9629 109.364C32.6846 109.579 32.5454 109.86 32.5454 110.207C32.5454 110.534 32.6748 110.78 32.9336 110.946C33.1924 111.112 33.6587 111.271 34.3325 111.422C35.0112 111.574 35.5605 111.754 35.9805 111.964C36.4004 112.174 36.7104 112.428 36.9106 112.726C37.1157 113.019 37.2183 113.378 37.2183 113.803C37.2183 114.511 36.9351 115.08 36.3687 115.509C35.8022 115.934 35.0674 116.146 34.1641 116.146C33.5293 116.146 32.9678 116.034 32.4795 115.81C31.9912 115.585 31.6079 115.272 31.3296 114.872C31.0562 114.467 30.9194 114.03 30.9194 113.561H32.2744C32.2988 114.015 32.4795 114.376 32.8164 114.645C33.1582 114.909 33.6074 115.041 34.1641 115.041C34.6768 115.041 35.0869 114.938 35.3945 114.733C35.707 114.523 35.8633 114.245 35.8633 113.898ZM43.3706 116V109.123H42.1182V108.075H43.3706V107.262C43.3706 106.413 43.5977 105.756 44.0518 105.292C44.5059 104.828 45.1479 104.596 45.978 104.596C46.2905 104.596 46.6006 104.638 46.9082 104.721L46.835 105.819C46.6055 105.775 46.3613 105.753 46.1025 105.753C45.6631 105.753 45.3237 105.883 45.0845 106.142C44.8452 106.396 44.7256 106.762 44.7256 107.24V108.075H46.4175V109.123H44.7256V116H43.3706ZM49.3911 116H48.0288V108.075H49.3911V116ZM49.4058 104.757H51.0464L49.0835 106.911H47.9922L49.4058 104.757ZM56.2393 113.898C56.2393 113.532 56.1001 113.249 55.8218 113.048C55.5483 112.843 55.0674 112.667 54.3789 112.521C53.6953 112.375 53.1509 112.199 52.7456 111.994C52.3452 111.789 52.0474 111.544 51.8521 111.261C51.6616 110.978 51.5664 110.641 51.5664 110.25C51.5664 109.601 51.8398 109.052 52.3867 108.603C52.9385 108.153 53.6416 107.929 54.4961 107.929C55.3945 107.929 56.1221 108.161 56.6787 108.625C57.2402 109.088 57.521 109.682 57.521 110.404H56.1587C56.1587 110.033 56 109.713 55.6826 109.445C55.3701 109.176 54.9746 109.042 54.4961 109.042C54.0029 109.042 53.6172 109.149 53.3389 109.364C53.0605 109.579 52.9214 109.86 52.9214 110.207C52.9214 110.534 53.0508 110.78 53.3096 110.946C53.5684 111.112 54.0347 111.271 54.7085 111.422C55.3872 111.574 55.9365 111.754 56.3564 111.964C56.7764 112.174 57.0864 112.428 57.2866 112.726C57.4917 113.019 57.5942 113.378 57.5942 113.803C57.5942 114.511 57.311 115.08 56.7446 115.509C56.1782 115.934 55.4434 116.146 54.54 116.146C53.9053 116.146 53.3438 116.034 52.8555 115.81C52.3672 115.585 51.9839 115.272 51.7056 114.872C51.4321 114.467 51.2954 114.03 51.2954 113.561H52.6504C52.6748 114.015 52.8555 114.376 53.1924 114.645C53.5342 114.909 53.9834 115.041 54.54 115.041C55.0527 115.041 55.4629 114.938 55.7705 114.733C56.083 114.523 56.2393 114.245 56.2393 113.898ZM60.8315 116H59.4766V108.075H60.8315V116ZM59.3667 105.973C59.3667 105.753 59.4326 105.568 59.5645 105.417C59.7012 105.265 59.9014 105.189 60.165 105.189C60.4287 105.189 60.6289 105.265 60.7656 105.417C60.9023 105.568 60.9707 105.753 60.9707 105.973C60.9707 106.193 60.9023 106.376 60.7656 106.522C60.6289 106.669 60.4287 106.742 60.165 106.742C59.9014 106.742 59.7012 106.669 59.5645 106.522C59.4326 106.376 59.3667 106.193 59.3667 105.973ZM66.1855 115.041C66.6689 115.041 67.0913 114.894 67.4526 114.601C67.814 114.308 68.0142 113.942 68.0532 113.502H69.335C69.3105 113.957 69.1543 114.389 68.8662 114.799C68.5781 115.209 68.1924 115.536 67.709 115.78C67.2305 116.024 66.7227 116.146 66.1855 116.146C65.1064 116.146 64.2471 115.788 63.6074 115.07C62.9727 114.347 62.6553 113.361 62.6553 112.111V111.884C62.6553 111.112 62.7969 110.426 63.0801 109.826C63.3633 109.225 63.7686 108.759 64.2959 108.427C64.8281 108.095 65.4556 107.929 66.1782 107.929C67.0669 107.929 67.8042 108.195 68.3901 108.727C68.981 109.259 69.2959 109.95 69.335 110.8H68.0532C68.0142 110.287 67.8188 109.867 67.4673 109.54C67.1206 109.208 66.6909 109.042 66.1782 109.042C65.4897 109.042 64.9551 109.291 64.5742 109.789C64.1982 110.282 64.0103 110.998 64.0103 111.935V112.191C64.0103 113.104 64.1982 113.808 64.5742 114.301C64.9502 114.794 65.4873 115.041 66.1855 115.041ZM75.751 116C75.6729 115.844 75.6094 115.565 75.5605 115.165C74.9307 115.819 74.1787 116.146 73.3047 116.146C72.5234 116.146 71.8813 115.927 71.3784 115.487C70.8804 115.043 70.6313 114.481 70.6313 113.803C70.6313 112.978 70.9438 112.338 71.5688 111.884C72.1987 111.425 73.0825 111.195 74.2202 111.195H75.5386V110.573C75.5386 110.099 75.397 109.723 75.1138 109.445C74.8306 109.162 74.4131 109.02 73.8613 109.02C73.3779 109.02 72.9727 109.142 72.6455 109.386C72.3184 109.63 72.1548 109.926 72.1548 110.272H70.7925C70.7925 109.877 70.9316 109.496 71.21 109.13C71.4932 108.759 71.874 108.466 72.3525 108.251C72.8359 108.036 73.3657 107.929 73.9419 107.929C74.855 107.929 75.5703 108.158 76.0879 108.617C76.6055 109.071 76.874 109.699 76.8936 110.5V114.147C76.8936 114.875 76.9863 115.453 77.1719 115.883V116H75.751ZM73.5024 114.967C73.9272 114.967 74.3301 114.857 74.7109 114.638C75.0918 114.418 75.3677 114.132 75.5386 113.781V112.155H74.4766C72.8164 112.155 71.9863 112.641 71.9863 113.612C71.9863 114.037 72.1279 114.369 72.4111 114.608C72.6943 114.848 73.0581 114.967 73.5024 114.967ZM83.6318 113.898C83.6318 113.532 83.4927 113.249 83.2144 113.048C82.9409 112.843 82.46 112.667 81.7715 112.521C81.0879 112.375 80.5435 112.199 80.1382 111.994C79.7378 111.789 79.4399 111.544 79.2446 111.261C79.0542 110.978 78.959 110.641 78.959 110.25C78.959 109.601 79.2324 109.052 79.7793 108.603C80.3311 108.153 81.0342 107.929 81.8887 107.929C82.7871 107.929 83.5146 108.161 84.0713 108.625C84.6328 109.088 84.9136 109.682 84.9136 110.404H83.5513C83.5513 110.033 83.3926 109.713 83.0752 109.445C82.7627 109.176 82.3672 109.042 81.8887 109.042C81.3955 109.042 81.0098 109.149 80.7314 109.364C80.4531 109.579 80.314 109.86 80.314 110.207C80.314 110.534 80.4434 110.78 80.7021 110.946C80.9609 111.112 81.4272 111.271 82.1011 111.422C82.7798 111.574 83.3291 111.754 83.749 111.964C84.1689 112.174 84.479 112.428 84.6792 112.726C84.8843 113.019 84.9868 113.378 84.9868 113.803C84.9868 114.511 84.7036 115.08 84.1372 115.509C83.5708 115.934 82.8359 116.146 81.9326 116.146C81.2979 116.146 80.7363 116.034 80.248 115.81C79.7598 115.585 79.3765 115.272 79.0981 114.872C78.8247 114.467 78.688 114.03 78.688 113.561H80.043C80.0674 114.015 80.248 114.376 80.585 114.645C80.9268 114.909 81.376 115.041 81.9326 115.041C82.4453 115.041 82.8555 114.938 83.1631 114.733C83.4756 114.523 83.6318 114.245 83.6318 113.898Z" fill="black"/>
</svg>
