<svg width="84" height="120" viewBox="0 0 84 120" fill="none" xmlns="http://www.w3.org/2000/svg">
<path d="M42 0C29.8692 0 20 9.8692 20 22C20 34.1308 29.8692 44 42 44C54.1308 44 64 34.1308 64 22C64 9.8692 54.1308 0 42 0ZM42 39.6C32.2958 39.6 24.4 31.7042 24.4 22C24.4 12.2958 32.2958 4.4 42 4.4C51.7042 4.4 59.6 12.2958 59.6 22C59.6 31.7042 51.7042 39.6 42 39.6ZM41.9494 15.4C42.0066 15.4 43.3772 15.488 44.8446 16.9554C45.2595 17.3561 45.8153 17.5779 46.3921 17.5729C46.9689 17.5679 47.5207 17.3365 47.9286 16.9286C48.3365 16.5207 48.5679 15.9689 48.5729 15.3921C48.5779 14.8153 48.3561 14.2595 47.9554 13.8446C46.9034 12.7671 45.6188 11.9446 44.2 11.44V11C44.2 10.4165 43.9682 9.85695 43.5556 9.44437C43.1431 9.03179 42.5835 8.8 42 8.8C41.4165 8.8 40.8569 9.03179 40.4444 9.44437C40.0318 9.85695 39.8 10.4165 39.8 11V11.4048C38.5169 11.8571 37.4052 12.6953 36.6174 13.8045C35.8296 14.9137 35.4044 16.2395 35.4 17.6C35.4 22.616 39.1994 23.5686 41.4676 24.134C43.9206 24.75 44.2 24.9788 44.2 26.4C44.2 27.6144 43.2144 28.6 42.0528 28.6C41.9956 28.6 40.6228 28.512 39.1554 27.0446C38.7426 26.6321 38.1828 26.4004 37.5992 26.4007C37.0156 26.4009 36.456 26.6329 36.0435 27.0457C35.631 27.4585 35.3993 28.0183 35.3996 28.6019C35.3998 29.1855 35.6318 29.7451 36.0446 30.1576C37.098 31.2318 38.3823 32.0519 39.8 32.5556V32.9956C39.8 33.5791 40.0318 34.1387 40.4444 34.5512C40.8569 34.9638 41.4165 35.1956 42 35.1956C42.5835 35.1956 43.1431 34.9638 43.5556 34.5512C43.9682 34.1387 44.2 33.5791 44.2 32.9956V32.5908C45.4826 32.1391 46.594 31.3015 47.3817 30.1932C48.1695 29.0848 48.5951 27.7598 48.6 26.4C48.6 21.384 44.8028 20.4336 42.5346 19.866C40.0816 19.2544 39.8 19.0212 39.8 17.6C39.8 16.39 40.7878 15.4 41.9494 15.4Z" fill="#E2211D"/>
<path d="M7.3418 77.2168H2.87402L1.87061 80H0.42041L4.49268 69.3359H5.72314L9.80273 80H8.35986L7.3418 77.2168ZM3.29883 76.0596H6.92432L5.10791 71.0718L3.29883 76.0596ZM12.3076 72.0752L12.3516 73.0713C12.957 72.3096 13.748 71.9287 14.7246 71.9287C16.3994 71.9287 17.2441 72.8735 17.2588 74.7632V80H15.9038V74.7559C15.8989 74.1846 15.7671 73.7622 15.5083 73.4888C15.2544 73.2153 14.8564 73.0786 14.3145 73.0786C13.875 73.0786 13.4893 73.1958 13.1572 73.4302C12.8252 73.6646 12.5664 73.9722 12.3809 74.353V80H11.0259V72.0752H12.3076ZM21.1406 70.1562V72.0752H22.6201V73.1226H21.1406V78.0371C21.1406 78.3545 21.2065 78.5938 21.3384 78.7549C21.4702 78.9111 21.6948 78.9893 22.0122 78.9893C22.1685 78.9893 22.3833 78.96 22.6567 78.9014V80C22.3003 80.0977 21.9536 80.1465 21.6167 80.1465C21.0112 80.1465 20.5547 79.9634 20.2471 79.5972C19.9395 79.231 19.7856 78.7109 19.7856 78.0371V73.1226H18.3428V72.0752H19.7856V70.1562H21.1406ZM27.498 80.1465C26.4238 80.1465 25.5498 79.7949 24.876 79.0918C24.2021 78.3838 23.8652 77.439 23.8652 76.2573V76.0083C23.8652 75.2222 24.0142 74.5215 24.312 73.9062C24.6147 73.2861 25.0347 72.8027 25.5718 72.4561C26.1138 72.1045 26.6997 71.9287 27.3296 71.9287C28.3599 71.9287 29.1606 72.2681 29.7319 72.9468C30.3032 73.6255 30.5889 74.5972 30.5889 75.8618V76.4258H25.2202C25.2397 77.207 25.4668 77.8394 25.9014 78.3228C26.3408 78.8013 26.8975 79.0405 27.5713 79.0405C28.0498 79.0405 28.4551 78.9429 28.7871 78.7476C29.1191 78.5522 29.4097 78.2935 29.6587 77.9712L30.4863 78.6157C29.8223 79.6362 28.8262 80.1465 27.498 80.1465ZM27.3296 73.042C26.7827 73.042 26.3237 73.2422 25.9526 73.6426C25.5815 74.0381 25.3521 74.5947 25.2642 75.3125H29.2339V75.21C29.1948 74.5215 29.0093 73.9893 28.6772 73.6133C28.3452 73.2324 27.896 73.042 27.3296 73.042ZM35.3423 79.0405C35.8257 79.0405 36.248 78.894 36.6094 78.6011C36.9707 78.3081 37.1709 77.9419 37.21 77.5024H38.4917C38.4673 77.9565 38.311 78.3887 38.0229 78.7988C37.7349 79.209 37.3491 79.5361 36.8657 79.7803C36.3872 80.0244 35.8794 80.1465 35.3423 80.1465C34.2632 80.1465 33.4038 79.7876 32.7642 79.0698C32.1294 78.3472 31.812 77.3608 31.812 76.1108V75.8838C31.812 75.1123 31.9536 74.4263 32.2368 73.8257C32.52 73.2251 32.9253 72.7588 33.4526 72.4268C33.9849 72.0947 34.6123 71.9287 35.335 71.9287C36.2236 71.9287 36.9609 72.1948 37.5469 72.7271C38.1377 73.2593 38.4526 73.9502 38.4917 74.7998H37.21C37.1709 74.2871 36.9756 73.8672 36.624 73.54C36.2773 73.208 35.8477 73.042 35.335 73.042C34.6465 73.042 34.1118 73.291 33.731 73.7891C33.355 74.2822 33.167 74.9976 33.167 75.9351V76.1914C33.167 77.1045 33.355 77.8076 33.731 78.3008C34.1069 78.7939 34.644 79.0405 35.3423 79.0405ZM41.4873 80H40.1323V72.0752H41.4873V80ZM40.0225 69.9731C40.0225 69.7534 40.0884 69.5679 40.2202 69.4165C40.3569 69.2651 40.5571 69.1895 40.8208 69.1895C41.0845 69.1895 41.2847 69.2651 41.4214 69.4165C41.5581 69.5679 41.6265 69.7534 41.6265 69.9731C41.6265 70.1929 41.5581 70.376 41.4214 70.5225C41.2847 70.6689 41.0845 70.7422 40.8208 70.7422C40.5571 70.7422 40.3569 70.6689 40.2202 70.5225C40.0884 70.376 40.0225 70.1929 40.0225 69.9731ZM50.3569 76.1255C50.3569 77.3315 50.0811 78.3032 49.5293 79.0405C48.9775 79.7778 48.2305 80.1465 47.2881 80.1465C46.3262 80.1465 45.5693 79.8413 45.0176 79.231V83.0469H43.6626V72.0752H44.9004L44.9663 72.9541C45.5181 72.2705 46.2847 71.9287 47.2661 71.9287C48.2183 71.9287 48.9702 72.2876 49.522 73.0054C50.0786 73.7231 50.3569 74.7217 50.3569 76.001V76.1255ZM49.002 75.9717C49.002 75.0781 48.8115 74.3726 48.4307 73.855C48.0498 73.3374 47.5273 73.0786 46.8633 73.0786C46.043 73.0786 45.4277 73.4424 45.0176 74.1699V77.9565C45.4229 78.6792 46.043 79.0405 46.8779 79.0405C47.5273 79.0405 48.0425 78.7842 48.4233 78.2715C48.8091 77.7539 49.002 76.9873 49.002 75.9717ZM56.978 80C56.8999 79.8438 56.8364 79.5654 56.7876 79.165C56.1577 79.8193 55.4058 80.1465 54.5317 80.1465C53.7505 80.1465 53.1084 79.9268 52.6055 79.4873C52.1074 79.043 51.8584 78.4814 51.8584 77.8027C51.8584 76.9775 52.1709 76.3379 52.7959 75.8838C53.4258 75.4248 54.3096 75.1953 55.4473 75.1953H56.7656V74.5728C56.7656 74.0991 56.624 73.7231 56.3408 73.4448C56.0576 73.1616 55.6401 73.02 55.0884 73.02C54.605 73.02 54.1997 73.1421 53.8726 73.3862C53.5454 73.6304 53.3818 73.9258 53.3818 74.2725H52.0195C52.0195 73.877 52.1587 73.4961 52.437 73.1299C52.7202 72.7588 53.1011 72.4658 53.5796 72.251C54.063 72.0361 54.5928 71.9287 55.1689 71.9287C56.082 71.9287 56.7974 72.1582 57.3149 72.6172C57.8325 73.0713 58.1011 73.6987 58.1206 74.4995V78.147C58.1206 78.8745 58.2134 79.4531 58.3989 79.8828V80H56.978ZM54.7295 78.9673C55.1543 78.9673 55.5571 78.8574 55.938 78.6377C56.3188 78.418 56.5947 78.1323 56.7656 77.7808V76.1548H55.7036C54.0435 76.1548 53.2134 76.6406 53.2134 77.6123C53.2134 78.0371 53.355 78.3691 53.6382 78.6084C53.9214 78.8477 54.2852 78.9673 54.7295 78.9673ZM63.4233 79.0405C63.9067 79.0405 64.3291 78.894 64.6904 78.6011C65.0518 78.3081 65.252 77.9419 65.291 77.5024H66.5728C66.5483 77.9565 66.3921 78.3887 66.104 78.7988C65.8159 79.209 65.4302 79.5361 64.9468 79.7803C64.4683 80.0244 63.9604 80.1465 63.4233 80.1465C62.3442 80.1465 61.4849 79.7876 60.8452 79.0698C60.2104 78.3472 59.8931 77.3608 59.8931 76.1108V75.8838C59.8931 75.1123 60.0347 74.4263 60.3179 73.8257C60.6011 73.2251 61.0063 72.7588 61.5337 72.4268C62.0659 72.0947 62.6934 71.9287 63.416 71.9287C64.3047 71.9287 65.042 72.1948 65.6279 72.7271C66.2188 73.2593 66.5337 73.9502 66.5728 74.7998H65.291C65.252 74.2871 65.0566 73.8672 64.7051 73.54C64.3584 73.208 63.9287 73.042 63.416 73.042C62.7275 73.042 62.1929 73.291 61.812 73.7891C61.436 74.2822 61.248 74.9976 61.248 75.9351V76.1914C61.248 77.1045 61.436 77.8076 61.812 78.3008C62.188 78.7939 62.7251 79.0405 63.4233 79.0405ZM63.6431 80.0659L63.5552 80.4468C64.3022 80.5786 64.6758 81.001 64.6758 81.7139C64.6758 82.1875 64.4805 82.561 64.0898 82.8345C63.6992 83.1128 63.1548 83.252 62.4565 83.252L62.4053 82.4683C62.791 82.4683 63.0889 82.4048 63.2988 82.2778C63.5137 82.1509 63.6211 81.9727 63.6211 81.7432C63.6211 81.5283 63.543 81.3696 63.3867 81.2671C63.2305 81.1646 62.9131 81.0913 62.4346 81.0474L62.6689 80.0659H63.6431ZM72.9888 80C72.9106 79.8438 72.8472 79.5654 72.7983 79.165C72.1685 79.8193 71.4165 80.1465 70.5425 80.1465C69.7612 80.1465 69.1191 79.9268 68.6162 79.4873C68.1182 79.043 67.8691 78.4814 67.8691 77.8027C67.8691 76.9775 68.1816 76.3379 68.8066 75.8838C69.4365 75.4248 70.3203 75.1953 71.458 75.1953H72.7764V74.5728C72.7764 74.0991 72.6348 73.7231 72.3516 73.4448C72.0684 73.1616 71.6509 73.02 71.0991 73.02C70.6157 73.02 70.2104 73.1421 69.8833 73.3862C69.5562 73.6304 69.3926 73.9258 69.3926 74.2725H68.0303C68.0303 73.877 68.1694 73.4961 68.4478 73.1299C68.731 72.7588 69.1118 72.4658 69.5903 72.251C70.0737 72.0361 70.6035 71.9287 71.1797 71.9287C72.0928 71.9287 72.8081 72.1582 73.3257 72.6172C73.8433 73.0713 74.1118 73.6987 74.1313 74.4995V78.147C74.1313 78.8745 74.2241 79.4531 74.4097 79.8828V80H72.9888ZM70.7402 78.9673C71.165 78.9673 71.5679 78.8574 71.9487 78.6377C72.3296 78.418 72.6055 78.1323 72.7764 77.7808V76.1548H71.7144C70.0542 76.1548 69.2241 76.6406 69.2241 77.6123C69.2241 78.0371 69.3657 78.3691 69.6489 78.6084C69.9321 78.8477 70.2959 78.9673 70.7402 78.9673ZM73.9263 68.9844C73.9263 69.5117 73.7749 69.939 73.4722 70.2661C73.1743 70.5933 72.8008 70.7568 72.3516 70.7568C72.1514 70.7568 71.978 70.7324 71.8315 70.6836C71.6851 70.6348 71.4922 70.5347 71.2529 70.3833C71.0186 70.2319 70.8477 70.1416 70.7402 70.1123C70.6377 70.0781 70.5181 70.061 70.3813 70.061C70.1812 70.061 70.0103 70.1392 69.8687 70.2954C69.7271 70.4468 69.6562 70.6421 69.6562 70.8813L68.748 70.8301C68.748 70.3076 68.8945 69.8755 69.1875 69.5337C69.4854 69.1919 69.8613 69.021 70.3154 69.021C70.4863 69.021 70.6401 69.0454 70.7769 69.0942C70.9136 69.1431 71.0991 69.2383 71.3335 69.3799C71.5679 69.5215 71.7461 69.6143 71.8682 69.6582C71.9951 69.7021 72.1343 69.7241 72.2856 69.7241C72.4956 69.7241 72.6689 69.6411 72.8057 69.4751C72.9473 69.3091 73.0181 69.1162 73.0181 68.8965L73.9263 68.9844ZM75.8965 75.9644C75.8965 75.188 76.0479 74.4897 76.3506 73.8696C76.6582 73.2495 77.083 72.771 77.625 72.4341C78.1719 72.0972 78.7944 71.9287 79.4927 71.9287C80.5718 71.9287 81.4434 72.3022 82.1074 73.0493C82.7764 73.7964 83.1108 74.79 83.1108 76.0303V76.1255C83.1108 76.897 82.9619 77.5903 82.6641 78.2056C82.3711 78.8159 81.9487 79.292 81.397 79.6338C80.8501 79.9756 80.2202 80.1465 79.5073 80.1465C78.4331 80.1465 77.5615 79.7729 76.8926 79.0259C76.2285 78.2788 75.8965 77.29 75.8965 76.0596V75.9644ZM77.2588 76.1255C77.2588 77.0044 77.4614 77.71 77.8667 78.2422C78.2769 78.7744 78.8237 79.0405 79.5073 79.0405C80.1958 79.0405 80.7427 78.772 81.1479 78.2349C81.5532 77.6929 81.7559 76.936 81.7559 75.9644C81.7559 75.0952 81.5483 74.3921 81.1333 73.855C80.7231 73.313 80.1763 73.042 79.4927 73.042C78.8237 73.042 78.2842 73.3081 77.874 73.8403C77.4639 74.3726 77.2588 75.1343 77.2588 76.1255ZM10.7695 98V91.1226H9.51709V90.0752H10.7695V89.4014C10.7695 88.5176 11.021 87.8291 11.5239 87.3359C12.0317 86.8428 12.7471 86.5962 13.6699 86.5962C14.2168 86.5962 14.9077 86.7451 15.7427 87.043L15.5156 88.1855C14.9053 87.9414 14.3242 87.8193 13.7725 87.8193C13.1914 87.8193 12.7715 87.9512 12.5127 88.2148C12.2588 88.4736 12.1318 88.8643 12.1318 89.3867V90.0752H13.7505V91.1226H12.1318V98H10.7695ZM16.4165 98H15.0542V90.0752H16.4165V98ZM19.9028 90.0752L19.9468 91.0713C20.5522 90.3096 21.3433 89.9287 22.3198 89.9287C23.9946 89.9287 24.8394 90.8735 24.854 92.7632V98H23.499V92.7559C23.4941 92.1846 23.3623 91.7622 23.1035 91.4888C22.8496 91.2153 22.4517 91.0786 21.9097 91.0786C21.4702 91.0786 21.0845 91.1958 20.7524 91.4302C20.4204 91.6646 20.1616 91.9722 19.9761 92.353V98H18.6211V90.0752H19.9028ZM31.79 98C31.7119 97.8438 31.6484 97.5654 31.5996 97.165C30.9697 97.8193 30.2178 98.1465 29.3438 98.1465C28.5625 98.1465 27.9204 97.9268 27.4175 97.4873C26.9194 97.043 26.6704 96.4814 26.6704 95.8027C26.6704 94.9775 26.9829 94.3379 27.6079 93.8838C28.2378 93.4248 29.1216 93.1953 30.2593 93.1953H31.5776V92.5728C31.5776 92.0991 31.436 91.7231 31.1528 91.4448C30.8696 91.1616 30.4521 91.02 29.9004 91.02C29.417 91.02 29.0117 91.1421 28.6846 91.3862C28.3574 91.6304 28.1938 91.9258 28.1938 92.2725H26.8315C26.8315 91.877 26.9707 91.4961 27.249 91.1299C27.5322 90.7588 27.9131 90.4658 28.3916 90.251C28.875 90.0361 29.4048 89.9287 29.981 89.9287C30.894 89.9287 31.6094 90.1582 32.127 90.6172C32.6445 91.0713 32.9131 91.6987 32.9326 92.4995V96.147C32.9326 96.8745 33.0254 97.4531 33.2109 97.8828V98H31.79ZM29.5415 96.9673C29.9663 96.9673 30.3691 96.8574 30.75 96.6377C31.1309 96.418 31.4067 96.1323 31.5776 95.7808V94.1548H30.5156C28.8555 94.1548 28.0254 94.6406 28.0254 95.6123C28.0254 96.0371 28.167 96.3691 28.4502 96.6084C28.7334 96.8477 29.0972 96.9673 29.5415 96.9673ZM36.3384 90.0752L36.3823 91.0713C36.9878 90.3096 37.7788 89.9287 38.7554 89.9287C40.4302 89.9287 41.2749 90.8735 41.2896 92.7632V98H39.9346V92.7559C39.9297 92.1846 39.7979 91.7622 39.5391 91.4888C39.2852 91.2153 38.8872 91.0786 38.3452 91.0786C37.9058 91.0786 37.52 91.1958 37.188 91.4302C36.856 91.6646 36.5972 91.9722 36.4116 92.353V98H35.0566V90.0752H36.3384ZM46.5117 97.0405C46.9951 97.0405 47.4175 96.894 47.7788 96.6011C48.1401 96.3081 48.3403 95.9419 48.3794 95.5024H49.6611C49.6367 95.9565 49.4805 96.3887 49.1924 96.7988C48.9043 97.209 48.5186 97.5361 48.0352 97.7803C47.5566 98.0244 47.0488 98.1465 46.5117 98.1465C45.4326 98.1465 44.5732 97.7876 43.9336 97.0698C43.2988 96.3472 42.9814 95.3608 42.9814 94.1108V93.8838C42.9814 93.1123 43.123 92.4263 43.4062 91.8257C43.6895 91.2251 44.0947 90.7588 44.6221 90.4268C45.1543 90.0947 45.7817 89.9287 46.5044 89.9287C47.3931 89.9287 48.1304 90.1948 48.7163 90.7271C49.3071 91.2593 49.6221 91.9502 49.6611 92.7998H48.3794C48.3403 92.2871 48.145 91.8672 47.7935 91.54C47.4468 91.208 47.0171 91.042 46.5044 91.042C45.8159 91.042 45.2812 91.291 44.9004 91.7891C44.5244 92.2822 44.3364 92.9976 44.3364 93.9351V94.1914C44.3364 95.1045 44.5244 95.8076 44.9004 96.3008C45.2764 96.7939 45.8135 97.0405 46.5117 97.0405ZM54.4731 98.1465C53.3989 98.1465 52.5249 97.7949 51.8511 97.0918C51.1772 96.3838 50.8403 95.439 50.8403 94.2573V94.0083C50.8403 93.2222 50.9893 92.5215 51.2871 91.9062C51.5898 91.2861 52.0098 90.8027 52.5469 90.4561C53.0889 90.1045 53.6748 89.9287 54.3047 89.9287C55.335 89.9287 56.1357 90.2681 56.707 90.9468C57.2783 91.6255 57.564 92.5972 57.564 93.8618V94.4258H52.1953C52.2148 95.207 52.4419 95.8394 52.8765 96.3228C53.3159 96.8013 53.8726 97.0405 54.5464 97.0405C55.0249 97.0405 55.4302 96.9429 55.7622 96.7476C56.0942 96.5522 56.3848 96.2935 56.6338 95.9712L57.4614 96.6157C56.7974 97.6362 55.8013 98.1465 54.4731 98.1465ZM54.3047 91.042C53.7578 91.042 53.2988 91.2422 52.9277 91.6426C52.5566 92.0381 52.3271 92.5947 52.2393 93.3125H56.209V93.21C56.1699 92.5215 55.9844 91.9893 55.6523 91.6133C55.3203 91.2324 54.8711 91.042 54.3047 91.042ZM60.6108 98H59.2559V90.0752H60.6108V98ZM59.146 87.9731C59.146 87.7534 59.2119 87.5679 59.3438 87.4165C59.4805 87.2651 59.6807 87.1895 59.9443 87.1895C60.208 87.1895 60.4082 87.2651 60.5449 87.4165C60.6816 87.5679 60.75 87.7534 60.75 87.9731C60.75 88.1929 60.6816 88.376 60.5449 88.5225C60.4082 88.6689 60.208 88.7422 59.9443 88.7422C59.6807 88.7422 59.4805 88.6689 59.3438 88.5225C59.2119 88.376 59.146 88.1929 59.146 87.9731ZM66.6167 91.291C66.4116 91.2568 66.1895 91.2397 65.9502 91.2397C65.0615 91.2397 64.4585 91.6182 64.1411 92.375V98H62.7861V90.0752H64.1045L64.1265 90.9907C64.5708 90.2827 65.2007 89.9287 66.0161 89.9287C66.2798 89.9287 66.48 89.9629 66.6167 90.0312V91.291ZM72.4688 98C72.3906 97.8438 72.3271 97.5654 72.2783 97.165C71.6484 97.8193 70.8965 98.1465 70.0225 98.1465C69.2412 98.1465 68.5991 97.9268 68.0962 97.4873C67.5981 97.043 67.3491 96.4814 67.3491 95.8027C67.3491 94.9775 67.6616 94.3379 68.2866 93.8838C68.9165 93.4248 69.8003 93.1953 70.938 93.1953H72.2563V92.5728C72.2563 92.0991 72.1147 91.7231 71.8315 91.4448C71.5483 91.1616 71.1309 91.02 70.5791 91.02C70.0957 91.02 69.6904 91.1421 69.3633 91.3862C69.0361 91.6304 68.8726 91.9258 68.8726 92.2725H67.5103C67.5103 91.877 67.6494 91.4961 67.9277 91.1299C68.2109 90.7588 68.5918 90.4658 69.0703 90.251C69.5537 90.0361 70.0835 89.9287 70.6597 89.9287C71.5728 89.9287 72.2881 90.1582 72.8057 90.6172C73.3232 91.0713 73.5918 91.6987 73.6113 92.4995V96.147C73.6113 96.8745 73.7041 97.4531 73.8896 97.8828V98H72.4688ZM70.2202 96.9673C70.645 96.9673 71.0479 96.8574 71.4287 96.6377C71.8096 96.418 72.0854 96.1323 72.2563 95.7808V94.1548H71.1943C69.5342 94.1548 68.7041 94.6406 68.7041 95.6123C68.7041 96.0371 68.8457 96.3691 69.1289 96.6084C69.4121 96.8477 69.7759 96.9673 70.2202 96.9673Z" fill="black"/>
</svg>
