<svg width="92" height="120" viewBox="0 0 92 120" fill="none" xmlns="http://www.w3.org/2000/svg">
<path d="M24.1226 70.4932H20.6948V80H19.2959V70.4932H15.8755V69.3359H24.1226V70.4932ZM28.7661 73.291C28.561 73.2568 28.3389 73.2397 28.0996 73.2397C27.2109 73.2397 26.6079 73.6182 26.2905 74.375V80H24.9355V72.0752H26.2539L26.2759 72.9907C26.7202 72.2827 27.3501 71.9287 28.1655 71.9287C28.4292 71.9287 28.6294 71.9629 28.7661 72.0312V73.291ZM34.6182 80C34.54 79.8438 34.4766 79.5654 34.4277 79.165C33.7979 79.8193 33.0459 80.1465 32.1719 80.1465C31.3906 80.1465 30.7485 79.9268 30.2456 79.4873C29.7476 79.043 29.4985 78.4814 29.4985 77.8027C29.4985 76.9775 29.811 76.3379 30.436 75.8838C31.0659 75.4248 31.9497 75.1953 33.0874 75.1953H34.4058V74.5728C34.4058 74.0991 34.2642 73.7231 33.981 73.4448C33.6978 73.1616 33.2803 73.02 32.7285 73.02C32.2451 73.02 31.8398 73.1421 31.5127 73.3862C31.1855 73.6304 31.022 73.9258 31.022 74.2725H29.6597C29.6597 73.877 29.7988 73.4961 30.0771 73.1299C30.3604 72.7588 30.7412 72.4658 31.2197 72.251C31.7031 72.0361 32.2329 71.9287 32.8091 71.9287C33.7222 71.9287 34.4375 72.1582 34.9551 72.6172C35.4727 73.0713 35.7412 73.6987 35.7607 74.4995V78.147C35.7607 78.8745 35.8535 79.4531 36.0391 79.8828V80H34.6182ZM32.3696 78.9673C32.7944 78.9673 33.1973 78.8574 33.5781 78.6377C33.959 78.418 34.2349 78.1323 34.4058 77.7808V76.1548H33.3438C31.6836 76.1548 30.8535 76.6406 30.8535 77.6123C30.8535 78.0371 30.9951 78.3691 31.2783 78.6084C31.5615 78.8477 31.9253 78.9673 32.3696 78.9673ZM37.5552 75.9717C37.5552 74.7559 37.8433 73.7793 38.4194 73.042C38.9956 72.2998 39.75 71.9287 40.6826 71.9287C41.6104 71.9287 42.3452 72.2461 42.8872 72.8809V68.75H44.2422V80H42.9971L42.9312 79.1504C42.3892 79.8145 41.6348 80.1465 40.668 80.1465C39.75 80.1465 39.0005 79.7705 38.4194 79.0186C37.8433 78.2666 37.5552 77.2852 37.5552 76.0742V75.9717ZM38.9102 76.1255C38.9102 77.0239 39.0957 77.7271 39.4668 78.2349C39.8379 78.7427 40.3506 78.9966 41.0049 78.9966C41.8643 78.9966 42.4917 78.6108 42.8872 77.8394V74.1992C42.4819 73.4521 41.8594 73.0786 41.0195 73.0786C40.3555 73.0786 39.8379 73.335 39.4668 73.8477C39.0957 74.3604 38.9102 75.1196 38.9102 76.1255ZM47.8237 80H46.4688V72.0752H47.8237V80ZM46.3589 69.9731C46.3589 69.7534 46.4248 69.5679 46.5566 69.4165C46.6934 69.2651 46.8936 69.1895 47.1572 69.1895C47.4209 69.1895 47.6211 69.2651 47.7578 69.4165C47.8945 69.5679 47.9629 69.7534 47.9629 69.9731C47.9629 70.1929 47.8945 70.376 47.7578 70.5225C47.6211 70.6689 47.4209 70.7422 47.1572 70.7422C46.8936 70.7422 46.6934 70.6689 46.5566 70.5225C46.4248 70.376 46.3589 70.1929 46.3589 69.9731ZM53.1777 79.0405C53.6611 79.0405 54.0835 78.894 54.4448 78.6011C54.8062 78.3081 55.0063 77.9419 55.0454 77.5024H56.3271C56.3027 77.9565 56.1465 78.3887 55.8584 78.7988C55.5703 79.209 55.1846 79.5361 54.7012 79.7803C54.2227 80.0244 53.7148 80.1465 53.1777 80.1465C52.0986 80.1465 51.2393 79.7876 50.5996 79.0698C49.9648 78.3472 49.6475 77.3608 49.6475 76.1108V75.8838C49.6475 75.1123 49.7891 74.4263 50.0723 73.8257C50.3555 73.2251 50.7607 72.7588 51.2881 72.4268C51.8203 72.0947 52.4478 71.9287 53.1704 71.9287C54.0591 71.9287 54.7964 72.1948 55.3823 72.7271C55.9731 73.2593 56.2881 73.9502 56.3271 74.7998H55.0454C55.0063 74.2871 54.811 73.8672 54.4595 73.54C54.1128 73.208 53.6831 73.042 53.1704 73.042C52.4819 73.042 51.9473 73.291 51.5664 73.7891C51.1904 74.2822 51.0024 74.9976 51.0024 75.9351V76.1914C51.0024 77.1045 51.1904 77.8076 51.5664 78.3008C51.9424 78.7939 52.4795 79.0405 53.1777 79.0405ZM53.3975 80.0659L53.3096 80.4468C54.0566 80.5786 54.4302 81.001 54.4302 81.7139C54.4302 82.1875 54.2349 82.561 53.8442 82.8345C53.4536 83.1128 52.9092 83.252 52.2109 83.252L52.1597 82.4683C52.5454 82.4683 52.8433 82.4048 53.0532 82.2778C53.2681 82.1509 53.3755 81.9727 53.3755 81.7432C53.3755 81.5283 53.2974 81.3696 53.1411 81.2671C52.9849 81.1646 52.6675 81.0913 52.189 81.0474L52.4233 80.0659H53.3975ZM62.7432 80C62.665 79.8438 62.6016 79.5654 62.5527 79.165C61.9229 79.8193 61.1709 80.1465 60.2969 80.1465C59.5156 80.1465 58.8735 79.9268 58.3706 79.4873C57.8726 79.043 57.6235 78.4814 57.6235 77.8027C57.6235 76.9775 57.936 76.3379 58.561 75.8838C59.1909 75.4248 60.0747 75.1953 61.2124 75.1953H62.5308V74.5728C62.5308 74.0991 62.3892 73.7231 62.106 73.4448C61.8228 73.1616 61.4053 73.02 60.8535 73.02C60.3701 73.02 59.9648 73.1421 59.6377 73.3862C59.3105 73.6304 59.147 73.9258 59.147 74.2725H57.7847C57.7847 73.877 57.9238 73.4961 58.2021 73.1299C58.4854 72.7588 58.8662 72.4658 59.3447 72.251C59.8281 72.0361 60.3579 71.9287 60.9341 71.9287C61.8472 71.9287 62.5625 72.1582 63.0801 72.6172C63.5977 73.0713 63.8662 73.6987 63.8857 74.4995V78.147C63.8857 78.8745 63.9785 79.4531 64.1641 79.8828V80H62.7432ZM60.4946 78.9673C60.9194 78.9673 61.3223 78.8574 61.7031 78.6377C62.084 78.418 62.3599 78.1323 62.5308 77.7808V76.1548H61.4688C59.8086 76.1548 58.9785 76.6406 58.9785 77.6123C58.9785 78.0371 59.1201 78.3691 59.4033 78.6084C59.6865 78.8477 60.0503 78.9673 60.4946 78.9673ZM63.6807 68.9844C63.6807 69.5117 63.5293 69.939 63.2266 70.2661C62.9287 70.5933 62.5552 70.7568 62.106 70.7568C61.9058 70.7568 61.7324 70.7324 61.5859 70.6836C61.4395 70.6348 61.2466 70.5347 61.0073 70.3833C60.7729 70.2319 60.6021 70.1416 60.4946 70.1123C60.3921 70.0781 60.2725 70.061 60.1357 70.061C59.9355 70.061 59.7646 70.1392 59.623 70.2954C59.4814 70.4468 59.4106 70.6421 59.4106 70.8813L58.5024 70.8301C58.5024 70.3076 58.6489 69.8755 58.9419 69.5337C59.2397 69.1919 59.6157 69.021 60.0698 69.021C60.2407 69.021 60.3945 69.0454 60.5312 69.0942C60.668 69.1431 60.8535 69.2383 61.0879 69.3799C61.3223 69.5215 61.5005 69.6143 61.6226 69.6582C61.7495 69.7021 61.8887 69.7241 62.04 69.7241C62.25 69.7241 62.4233 69.6411 62.5601 69.4751C62.7017 69.3091 62.7725 69.1162 62.7725 68.8965L63.6807 68.9844ZM65.6509 75.9644C65.6509 75.188 65.8022 74.4897 66.105 73.8696C66.4126 73.2495 66.8374 72.771 67.3794 72.4341C67.9263 72.0972 68.5488 71.9287 69.2471 71.9287C70.3262 71.9287 71.1978 72.3022 71.8618 73.0493C72.5308 73.7964 72.8652 74.79 72.8652 76.0303V76.1255C72.8652 76.897 72.7163 77.5903 72.4185 78.2056C72.1255 78.8159 71.7031 79.292 71.1514 79.6338C70.6045 79.9756 69.9746 80.1465 69.2617 80.1465C68.1875 80.1465 67.3159 79.7729 66.647 79.0259C65.9829 78.2788 65.6509 77.29 65.6509 76.0596V75.9644ZM67.0132 76.1255C67.0132 77.0044 67.2158 77.71 67.6211 78.2422C68.0312 78.7744 68.5781 79.0405 69.2617 79.0405C69.9502 79.0405 70.4971 78.772 70.9023 78.2349C71.3076 77.6929 71.5103 76.936 71.5103 75.9644C71.5103 75.0952 71.3027 74.3921 70.8877 73.855C70.4775 73.313 69.9307 73.042 69.2471 73.042C68.5781 73.042 68.0386 73.3081 67.6284 73.8403C67.2183 74.3726 67.0132 75.1343 67.0132 76.1255ZM74.5205 82.124L73.7515 81.5967C74.2104 80.957 74.4497 80.2979 74.4692 79.6191V78.396H75.7949V79.458C75.7949 79.9512 75.6729 80.4443 75.4287 80.9375C75.1895 81.4307 74.8867 81.8262 74.5205 82.124ZM7.70166 93.9717C7.70166 92.7559 7.98975 91.7793 8.56592 91.042C9.14209 90.2998 9.89648 89.9287 10.8291 89.9287C11.7568 89.9287 12.4917 90.2461 13.0337 90.8809V86.75H14.3887V98H13.1436L13.0776 97.1504C12.5356 97.8145 11.7812 98.1465 10.8145 98.1465C9.89648 98.1465 9.14697 97.7705 8.56592 97.0186C7.98975 96.2666 7.70166 95.2852 7.70166 94.0742V93.9717ZM9.05664 94.1255C9.05664 95.0239 9.24219 95.7271 9.61328 96.2349C9.98438 96.7427 10.4971 96.9966 11.1514 96.9966C12.0107 96.9966 12.6382 96.6108 13.0337 95.8394V92.1992C12.6284 91.4521 12.0059 91.0786 11.166 91.0786C10.502 91.0786 9.98438 91.335 9.61328 91.8477C9.24219 92.3604 9.05664 93.1196 9.05664 94.1255ZM19.7866 98.1465C18.7124 98.1465 17.8384 97.7949 17.1646 97.0918C16.4907 96.3838 16.1538 95.439 16.1538 94.2573V94.0083C16.1538 93.2222 16.3027 92.5215 16.6006 91.9062C16.9033 91.2861 17.3232 90.8027 17.8604 90.4561C18.4023 90.1045 18.9883 89.9287 19.6182 89.9287C20.6484 89.9287 21.4492 90.2681 22.0205 90.9468C22.5918 91.6255 22.8774 92.5972 22.8774 93.8618V94.4258H17.5088C17.5283 95.207 17.7554 95.8394 18.1899 96.3228C18.6294 96.8013 19.186 97.0405 19.8599 97.0405C20.3384 97.0405 20.7437 96.9429 21.0757 96.7476C21.4077 96.5522 21.6982 96.2935 21.9473 95.9712L22.7749 96.6157C22.1108 97.6362 21.1147 98.1465 19.7866 98.1465ZM19.6182 91.042C19.0713 91.042 18.6123 91.2422 18.2412 91.6426C17.8701 92.0381 17.6406 92.5947 17.5527 93.3125H21.5225V93.21C21.4834 92.5215 21.2979 91.9893 20.9658 91.6133C20.6338 91.2324 20.1846 91.042 19.6182 91.042ZM29.0664 95.8979C29.0664 95.5317 28.9272 95.2485 28.6489 95.0483C28.3755 94.8433 27.8945 94.6675 27.2061 94.521C26.5225 94.3745 25.978 94.1987 25.5728 93.9937C25.1724 93.7886 24.8745 93.5444 24.6792 93.2612C24.4888 92.978 24.3936 92.6411 24.3936 92.2505C24.3936 91.6011 24.667 91.0518 25.2139 90.6025C25.7656 90.1533 26.4688 89.9287 27.3232 89.9287C28.2217 89.9287 28.9492 90.1606 29.5059 90.6245C30.0674 91.0884 30.3481 91.6816 30.3481 92.4043H28.9858C28.9858 92.0332 28.8271 91.7134 28.5098 91.4448C28.1973 91.1763 27.8018 91.042 27.3232 91.042C26.8301 91.042 26.4443 91.1494 26.166 91.3643C25.8877 91.5791 25.7485 91.8599 25.7485 92.2065C25.7485 92.5337 25.8779 92.7803 26.1367 92.9463C26.3955 93.1123 26.8618 93.271 27.5356 93.4224C28.2144 93.5737 28.7637 93.7544 29.1836 93.9644C29.6035 94.1743 29.9136 94.4282 30.1138 94.7261C30.3188 95.019 30.4214 95.3779 30.4214 95.8027C30.4214 96.5107 30.1382 97.0796 29.5718 97.5093C29.0054 97.9341 28.2705 98.1465 27.3672 98.1465C26.7324 98.1465 26.1709 98.0342 25.6826 97.8096C25.1943 97.585 24.811 97.2725 24.5327 96.8721C24.2593 96.4668 24.1226 96.0298 24.1226 95.561H25.4775C25.502 96.0151 25.6826 96.3765 26.0195 96.645C26.3613 96.9087 26.8105 97.0405 27.3672 97.0405C27.8799 97.0405 28.29 96.938 28.5977 96.7329C28.9102 96.5229 29.0664 96.2446 29.0664 95.8979ZM31.8569 93.9717C31.8569 92.7559 32.145 91.7793 32.7212 91.042C33.2974 90.2998 34.0518 89.9287 34.9844 89.9287C35.9121 89.9287 36.647 90.2461 37.189 90.8809V86.75H38.5439V98H37.2988L37.2329 97.1504C36.6909 97.8145 35.9365 98.1465 34.9697 98.1465C34.0518 98.1465 33.3022 97.7705 32.7212 97.0186C32.145 96.2666 31.8569 95.2852 31.8569 94.0742V93.9717ZM33.2119 94.1255C33.2119 95.0239 33.3975 95.7271 33.7686 96.2349C34.1396 96.7427 34.6523 96.9966 35.3066 96.9966C36.166 96.9966 36.7935 96.6108 37.189 95.8394V92.1992C36.7837 91.4521 36.1611 91.0786 35.3213 91.0786C34.6572 91.0786 34.1396 91.335 33.7686 91.8477C33.3975 92.3604 33.2119 93.1196 33.2119 94.1255ZM43.9419 98.1465C42.8677 98.1465 41.9937 97.7949 41.3198 97.0918C40.646 96.3838 40.3091 95.439 40.3091 94.2573V94.0083C40.3091 93.2222 40.458 92.5215 40.7559 91.9062C41.0586 91.2861 41.4785 90.8027 42.0156 90.4561C42.5576 90.1045 43.1436 89.9287 43.7734 89.9287C44.8037 89.9287 45.6045 90.2681 46.1758 90.9468C46.7471 91.6255 47.0327 92.5972 47.0327 93.8618V94.4258H41.6641C41.6836 95.207 41.9106 95.8394 42.3452 96.3228C42.7847 96.8013 43.3413 97.0405 44.0151 97.0405C44.4937 97.0405 44.8989 96.9429 45.231 96.7476C45.563 96.5522 45.8535 96.2935 46.1025 95.9712L46.9302 96.6157C46.2661 97.6362 45.27 98.1465 43.9419 98.1465ZM43.7734 91.042C43.2266 91.042 42.7676 91.2422 42.3965 91.6426C42.0254 92.0381 41.7959 92.5947 41.708 93.3125H45.6777V93.21C45.6387 92.5215 45.4531 91.9893 45.1211 91.6133C44.7891 91.2324 44.3398 91.042 43.7734 91.042ZM56.6421 98H55.2798V88.9692L52.5479 89.9727V88.7422L56.4297 87.2847H56.6421V98ZM65.8047 93.3125C65.5215 93.6494 65.1821 93.9204 64.7866 94.1255C64.396 94.3306 63.9663 94.4331 63.4976 94.4331C62.8823 94.4331 62.3452 94.2817 61.8862 93.979C61.4321 93.6763 61.0806 93.2515 60.8315 92.7046C60.5825 92.1528 60.458 91.5449 60.458 90.8809C60.458 90.168 60.5923 89.5259 60.8608 88.9546C61.1343 88.3833 61.52 87.9463 62.0181 87.6436C62.5161 87.3408 63.0972 87.1895 63.7612 87.1895C64.8159 87.1895 65.646 87.585 66.2515 88.376C66.8618 89.1621 67.167 90.2363 67.167 91.5986V91.9941C67.167 94.0693 66.7568 95.5854 65.9365 96.5425C65.1162 97.4946 63.8784 97.9829 62.2231 98.0073H61.9595V96.8647H62.2451C63.3633 96.8452 64.2227 96.5547 64.8232 95.9932C65.4238 95.4268 65.751 94.5332 65.8047 93.3125ZM63.7173 93.3125C64.1714 93.3125 64.5889 93.1733 64.9697 92.895C65.3555 92.6167 65.6362 92.2725 65.812 91.8623V91.3203C65.812 90.4316 65.6191 89.709 65.2334 89.1523C64.8477 88.5957 64.3594 88.3174 63.7686 88.3174C63.1729 88.3174 62.6943 88.5469 62.333 89.0059C61.9717 89.46 61.791 90.0605 61.791 90.8076C61.791 91.5352 61.9644 92.1357 62.311 92.6094C62.6626 93.0781 63.1313 93.3125 63.7173 93.3125ZM75.9194 88.0977L71.5029 98H70.082L74.4839 88.4492H68.7124V87.3359H75.9194V88.0977ZM83.1777 94.4185H84.6572V95.5244H83.1777V98H81.8154V95.5244H76.9595V94.7261L81.7349 87.3359H83.1777V94.4185ZM78.4976 94.4185H81.8154V89.189L81.6543 89.4819L78.4976 94.4185ZM8.49268 108.075L8.53662 109.071C9.14209 108.31 9.93311 107.929 10.9097 107.929C12.5845 107.929 13.4292 108.874 13.4438 110.763V116H12.0889V110.756C12.084 110.185 11.9521 109.762 11.6934 109.489C11.4395 109.215 11.0415 109.079 10.4995 109.079C10.0601 109.079 9.67432 109.196 9.34229 109.43C9.01025 109.665 8.75146 109.972 8.56592 110.353V116H7.21094V108.075H8.49268ZM15.1284 111.964C15.1284 111.188 15.2798 110.49 15.5825 109.87C15.8901 109.25 16.3149 108.771 16.8569 108.434C17.4038 108.097 18.0264 107.929 18.7246 107.929C19.8037 107.929 20.6753 108.302 21.3394 109.049C22.0083 109.796 22.3428 110.79 22.3428 112.03V112.125C22.3428 112.897 22.1938 113.59 21.896 114.206C21.603 114.816 21.1807 115.292 20.6289 115.634C20.082 115.976 19.4521 116.146 18.7393 116.146C17.665 116.146 16.7935 115.773 16.1245 115.026C15.4604 114.279 15.1284 113.29 15.1284 112.06V111.964ZM16.4907 112.125C16.4907 113.004 16.6934 113.71 17.0986 114.242C17.5088 114.774 18.0557 115.041 18.7393 115.041C19.4277 115.041 19.9746 114.772 20.3799 114.235C20.7852 113.693 20.9878 112.936 20.9878 111.964C20.9878 111.095 20.7803 110.392 20.3652 109.855C19.9551 109.313 19.4082 109.042 18.7246 109.042C18.0557 109.042 17.5161 109.308 17.106 109.84C16.6958 110.373 16.4907 111.134 16.4907 112.125ZM29.0371 108.075L29.0737 108.954C29.6548 108.271 30.4385 107.929 31.4248 107.929C32.5332 107.929 33.2876 108.354 33.688 109.203C33.9517 108.822 34.2935 108.515 34.7134 108.28C35.1382 108.046 35.6387 107.929 36.2148 107.929C37.9531 107.929 38.8369 108.849 38.8662 110.69V116H37.5112V110.771C37.5112 110.204 37.3818 109.782 37.123 109.503C36.8643 109.22 36.4297 109.079 35.8193 109.079C35.3164 109.079 34.8989 109.23 34.5669 109.533C34.2349 109.831 34.042 110.233 33.9883 110.741V116H32.626V110.807C32.626 109.655 32.062 109.079 30.9341 109.079C30.0454 109.079 29.4375 109.457 29.1104 110.214V116H27.7554V108.075H29.0371ZM44.2056 116.146C43.1313 116.146 42.2573 115.795 41.5835 115.092C40.9097 114.384 40.5728 113.439 40.5728 112.257V112.008C40.5728 111.222 40.7217 110.521 41.0195 109.906C41.3223 109.286 41.7422 108.803 42.2793 108.456C42.8213 108.104 43.4072 107.929 44.0371 107.929C45.0674 107.929 45.8682 108.268 46.4395 108.947C47.0107 109.625 47.2964 110.597 47.2964 111.862V112.426H41.9277C41.9473 113.207 42.1743 113.839 42.6089 114.323C43.0483 114.801 43.605 115.041 44.2788 115.041C44.7573 115.041 45.1626 114.943 45.4946 114.748C45.8267 114.552 46.1172 114.293 46.3662 113.971L47.1938 114.616C46.5298 115.636 45.5337 116.146 44.2056 116.146ZM44.0371 109.042C43.4902 109.042 43.0312 109.242 42.6602 109.643C42.2891 110.038 42.0596 110.595 41.9717 111.312H45.9414V111.21C45.9023 110.521 45.7168 109.989 45.3848 109.613C45.0527 109.232 44.6035 109.042 44.0371 109.042ZM52.7017 109.291C52.4966 109.257 52.2744 109.24 52.0352 109.24C51.1465 109.24 50.5435 109.618 50.2261 110.375V116H48.8711V108.075H50.1895L50.2114 108.991C50.6558 108.283 51.2856 107.929 52.1011 107.929C52.3647 107.929 52.5649 107.963 52.7017 108.031V109.291ZM56.9863 115.041C57.4697 115.041 57.8921 114.894 58.2534 114.601C58.6147 114.308 58.8149 113.942 58.854 113.502H60.1357C60.1113 113.957 59.9551 114.389 59.667 114.799C59.3789 115.209 58.9932 115.536 58.5098 115.78C58.0312 116.024 57.5234 116.146 56.9863 116.146C55.9072 116.146 55.0479 115.788 54.4082 115.07C53.7734 114.347 53.4561 113.361 53.4561 112.111V111.884C53.4561 111.112 53.5977 110.426 53.8809 109.826C54.1641 109.225 54.5693 108.759 55.0967 108.427C55.6289 108.095 56.2563 107.929 56.979 107.929C57.8677 107.929 58.605 108.195 59.1909 108.727C59.7817 109.259 60.0967 109.95 60.1357 110.8H58.854C58.8149 110.287 58.6196 109.867 58.2681 109.54C57.9214 109.208 57.4917 109.042 56.979 109.042C56.2905 109.042 55.7559 109.291 55.375 109.789C54.999 110.282 54.811 110.998 54.811 111.935V112.191C54.811 113.104 54.999 113.808 55.375 114.301C55.751 114.794 56.2881 115.041 56.9863 115.041ZM66.5518 116C66.4736 115.844 66.4102 115.565 66.3613 115.165C65.7314 115.819 64.9795 116.146 64.1055 116.146C63.3242 116.146 62.6821 115.927 62.1792 115.487C61.6812 115.043 61.4321 114.481 61.4321 113.803C61.4321 112.978 61.7446 112.338 62.3696 111.884C62.9995 111.425 63.8833 111.195 65.021 111.195H66.3394V110.573C66.3394 110.099 66.1978 109.723 65.9146 109.445C65.6313 109.162 65.2139 109.02 64.6621 109.02C64.1787 109.02 63.7734 109.142 63.4463 109.386C63.1191 109.63 62.9556 109.926 62.9556 110.272H61.5933C61.5933 109.877 61.7324 109.496 62.0107 109.13C62.2939 108.759 62.6748 108.466 63.1533 108.251C63.6367 108.036 64.1665 107.929 64.7427 107.929C65.6558 107.929 66.3711 108.158 66.8887 108.617C67.4062 109.071 67.6748 109.699 67.6943 110.5V114.147C67.6943 114.875 67.7871 115.453 67.9727 115.883V116H66.5518ZM64.3032 114.967C64.728 114.967 65.1309 114.857 65.5117 114.638C65.8926 114.418 66.1685 114.132 66.3394 113.781V112.155H65.2773C63.6172 112.155 62.7871 112.641 62.7871 113.612C62.7871 114.037 62.9287 114.369 63.2119 114.608C63.4951 114.848 63.8589 114.967 64.3032 114.967ZM69.4888 111.972C69.4888 110.756 69.7769 109.779 70.353 109.042C70.9292 108.3 71.6836 107.929 72.6162 107.929C73.5439 107.929 74.2788 108.246 74.8208 108.881V104.75H76.1758V116H74.9307L74.8647 115.15C74.3228 115.814 73.5684 116.146 72.6016 116.146C71.6836 116.146 70.9341 115.771 70.353 115.019C69.7769 114.267 69.4888 113.285 69.4888 112.074V111.972ZM70.8438 112.125C70.8438 113.024 71.0293 113.727 71.4004 114.235C71.7715 114.743 72.2842 114.997 72.9385 114.997C73.7979 114.997 74.4253 114.611 74.8208 113.839V110.199C74.4155 109.452 73.793 109.079 72.9531 109.079C72.2891 109.079 71.7715 109.335 71.4004 109.848C71.0293 110.36 70.8438 111.12 70.8438 112.125ZM77.9263 111.964C77.9263 111.188 78.0776 110.49 78.3804 109.87C78.688 109.25 79.1128 108.771 79.6548 108.434C80.2017 108.097 80.8242 107.929 81.5225 107.929C82.6016 107.929 83.4731 108.302 84.1372 109.049C84.8062 109.796 85.1406 110.79 85.1406 112.03V112.125C85.1406 112.897 84.9917 113.59 84.6938 114.206C84.4009 114.816 83.9785 115.292 83.4268 115.634C82.8799 115.976 82.25 116.146 81.5371 116.146C80.4629 116.146 79.5913 115.773 78.9224 115.026C78.2583 114.279 77.9263 113.29 77.9263 112.06V111.964ZM79.2886 112.125C79.2886 113.004 79.4912 113.71 79.8965 114.242C80.3066 114.774 80.8535 115.041 81.5371 115.041C82.2256 115.041 82.7725 114.772 83.1777 114.235C83.583 113.693 83.7856 112.936 83.7856 111.964C83.7856 111.095 83.5781 110.392 83.1631 109.855C82.7529 109.313 82.2061 109.042 81.5225 109.042C80.8535 109.042 80.314 109.308 79.9038 109.84C79.4937 110.373 79.2886 111.134 79.2886 112.125Z" fill="black"/>
<path d="M45.9989 5.32929e-05C46.4089 -0.00280008 46.8116 0.108979 47.1614 0.32278C47.5113 0.536581 47.7944 0.843895 47.9789 1.21005L54.0729 13.4201L66.1729 15.4221C66.5741 15.4875 66.9492 15.6628 67.2567 15.9285C67.5643 16.1942 67.7922 16.5399 67.9153 16.9273C68.0383 17.3146 68.0517 17.7285 67.9538 18.123C67.856 18.5175 67.6507 18.8771 67.3609 19.1621L59.3309 27.1701L61.3769 41.4701C61.4364 41.869 61.3851 42.2767 61.2285 42.6484C61.0719 43.0202 60.8161 43.3417 60.4891 43.5779C60.162 43.8141 59.7764 43.9558 59.3743 43.9876C58.9721 44.0194 58.569 43.94 58.2089 43.7581L45.9989 37.6641L33.7889 43.7581C33.43 43.9441 33.0267 44.0276 32.6233 43.9995C32.22 43.9713 31.8322 43.8325 31.5026 43.5984C31.1729 43.3642 30.9142 43.0438 30.7548 42.6722C30.5954 42.3006 30.5415 41.8923 30.5989 41.4921L32.6449 27.1921L24.6369 19.1401C24.3468 18.8537 24.1419 18.4923 24.0452 18.0962C23.9485 17.7002 23.9637 17.285 24.0892 16.8971C24.2147 16.5092 24.4456 16.1638 24.7559 15.8995C25.0663 15.6351 25.444 15.4622 25.8469 15.4001L37.9469 13.3981L44.0189 1.21005C44.2034 0.843895 44.4866 0.536581 44.8364 0.32278C45.1863 0.108979 45.5889 -0.00280008 45.9989 5.32929e-05ZM45.9989 7.12805L41.3789 16.3681C41.2246 16.6856 40.9961 16.9613 40.7127 17.1719C40.4294 17.3825 40.0995 17.5218 39.7509 17.5781L30.7749 19.0741L36.5609 24.8381C36.8018 25.0805 36.9829 25.3757 37.0898 25.7003C37.1967 26.0249 37.2266 26.3699 37.1769 26.7081L35.5709 37.9501L45.0309 33.2421C45.3352 33.0909 45.6702 33.0122 46.0099 33.0122C46.3496 33.0122 46.6847 33.0909 46.9889 33.2421L56.4269 37.9501L54.8209 26.7301C54.7677 26.3885 54.7958 26.0392 54.9028 25.7104C55.0098 25.3817 55.1928 25.0828 55.4369 24.8381L61.2229 19.0741L52.2469 17.5781C51.9045 17.5208 51.5805 17.3833 51.3013 17.1768C51.0222 16.9704 50.7959 16.7008 50.6409 16.3901L45.9989 7.12805Z" fill="#E2211D"/>
</svg>
