<svg width="92" height="120" viewBox="0 0 92 120" fill="none" xmlns="http://www.w3.org/2000/svg">
<g clip-path="url(#clip0)">
<path d="M4.85254 75.2466C3.64648 74.8999 2.76758 74.4751 2.21582 73.9722C1.66895 73.4644 1.39551 72.8394 1.39551 72.0972C1.39551 71.2573 1.72998 70.564 2.39893 70.0171C3.07275 69.4653 3.94678 69.1895 5.021 69.1895C5.75342 69.1895 6.40527 69.3311 6.97656 69.6143C7.55273 69.8975 7.99707 70.2881 8.30957 70.7861C8.62695 71.2842 8.78564 71.8286 8.78564 72.4194H7.37207C7.37207 71.7749 7.16699 71.2695 6.75684 70.9033C6.34668 70.5322 5.76807 70.3467 5.021 70.3467C4.32764 70.3467 3.78564 70.5005 3.39502 70.8081C3.00928 71.1108 2.81641 71.5332 2.81641 72.0752C2.81641 72.5098 2.99951 72.8784 3.36572 73.1812C3.73682 73.479 4.36426 73.7524 5.24805 74.0015C6.13672 74.2505 6.83008 74.5264 7.32812 74.8291C7.83105 75.127 8.20215 75.4761 8.44141 75.8765C8.68555 76.2769 8.80762 76.748 8.80762 77.29C8.80762 78.1543 8.4707 78.8477 7.79688 79.3701C7.12305 79.8877 6.22217 80.1465 5.09424 80.1465C4.36182 80.1465 3.67822 80.0073 3.04346 79.729C2.40869 79.4458 1.91797 79.0601 1.57129 78.5718C1.22949 78.0835 1.05859 77.5293 1.05859 76.9092H2.47217C2.47217 77.5537 2.70898 78.064 3.18262 78.4399C3.66113 78.811 4.29834 78.9966 5.09424 78.9966C5.83643 78.9966 6.40527 78.8452 6.80078 78.5425C7.19629 78.2397 7.39404 77.8271 7.39404 77.3047C7.39404 76.7822 7.21094 76.3794 6.84473 76.0962C6.47852 75.8081 5.81445 75.5249 4.85254 75.2466ZM13.6929 80.1465C12.6187 80.1465 11.7446 79.7949 11.0708 79.0918C10.397 78.3838 10.0601 77.439 10.0601 76.2573V76.0083C10.0601 75.2222 10.209 74.5215 10.5068 73.9062C10.8096 73.2861 11.2295 72.8027 11.7666 72.4561C12.3086 72.1045 12.8945 71.9287 13.5244 71.9287C14.5547 71.9287 15.3555 72.2681 15.9268 72.9468C16.498 73.6255 16.7837 74.5972 16.7837 75.8618V76.4258H11.415C11.4346 77.207 11.6616 77.8394 12.0962 78.3228C12.5356 78.8013 13.0923 79.0405 13.7661 79.0405C14.2446 79.0405 14.6499 78.9429 14.9819 78.7476C15.314 78.5522 15.6045 78.2935 15.8535 77.9712L16.6812 78.6157C16.0171 79.6362 15.021 80.1465 13.6929 80.1465ZM13.5244 73.042C12.9775 73.042 12.5186 73.2422 12.1475 73.6426C11.7764 74.0381 11.5469 74.5947 11.459 75.3125H15.4287V75.21C15.3896 74.5215 15.2041 73.9893 14.8721 73.6133C14.54 73.2324 14.0908 73.042 13.5244 73.042ZM19.6328 72.0752L19.6694 72.9541C20.2505 72.2705 21.0342 71.9287 22.0205 71.9287C23.1289 71.9287 23.8833 72.3535 24.2837 73.2031C24.5474 72.8223 24.8892 72.5146 25.3091 72.2803C25.7339 72.0459 26.2344 71.9287 26.8105 71.9287C28.5488 71.9287 29.4326 72.8491 29.4619 74.6899V80H28.1069V74.7705C28.1069 74.2041 27.9775 73.7817 27.7188 73.5034C27.46 73.2202 27.0254 73.0786 26.415 73.0786C25.9121 73.0786 25.4946 73.23 25.1626 73.5327C24.8306 73.8306 24.6377 74.2334 24.584 74.7412V80H23.2217V74.8071C23.2217 73.6548 22.6577 73.0786 21.5298 73.0786C20.6411 73.0786 20.0332 73.457 19.7061 74.2139V80H18.3511V72.0752H19.6328ZM38.4121 79.0405C38.8955 79.0405 39.3179 78.894 39.6792 78.6011C40.0405 78.3081 40.2407 77.9419 40.2798 77.5024H41.5615C41.5371 77.9565 41.3809 78.3887 41.0928 78.7988C40.8047 79.209 40.4189 79.5361 39.9355 79.7803C39.457 80.0244 38.9492 80.1465 38.4121 80.1465C37.333 80.1465 36.4736 79.7876 35.834 79.0698C35.1992 78.3472 34.8818 77.3608 34.8818 76.1108V75.8838C34.8818 75.1123 35.0234 74.4263 35.3066 73.8257C35.5898 73.2251 35.9951 72.7588 36.5225 72.4268C37.0547 72.0947 37.6821 71.9287 38.4048 71.9287C39.2935 71.9287 40.0308 72.1948 40.6167 72.7271C41.2075 73.2593 41.5225 73.9502 41.5615 74.7998H40.2798C40.2407 74.2871 40.0454 73.8672 39.6938 73.54C39.3472 73.208 38.9175 73.042 38.4048 73.042C37.7163 73.042 37.1816 73.291 36.8008 73.7891C36.4248 74.2822 36.2368 74.9976 36.2368 75.9351V76.1914C36.2368 77.1045 36.4248 77.8076 36.8008 78.3008C37.1768 78.7939 37.7139 79.0405 38.4121 79.0405ZM47.9775 79.2163C47.4502 79.8364 46.6763 80.1465 45.6558 80.1465C44.811 80.1465 44.1665 79.9023 43.7222 79.4141C43.2827 78.9209 43.0605 78.1934 43.0557 77.2314V72.0752H44.4106V77.1948C44.4106 78.396 44.8989 78.9966 45.8755 78.9966C46.9106 78.9966 47.5991 78.6108 47.9409 77.8394V72.0752H49.2959V80H48.0068L47.9775 79.2163ZM55.9756 77.8979C55.9756 77.5317 55.8364 77.2485 55.5581 77.0483C55.2847 76.8433 54.8037 76.6675 54.1152 76.521C53.4316 76.3745 52.8872 76.1987 52.4819 75.9937C52.0815 75.7886 51.7837 75.5444 51.5884 75.2612C51.3979 74.978 51.3027 74.6411 51.3027 74.2505C51.3027 73.6011 51.5762 73.0518 52.123 72.6025C52.6748 72.1533 53.3779 71.9287 54.2324 71.9287C55.1309 71.9287 55.8584 72.1606 56.415 72.6245C56.9766 73.0884 57.2573 73.6816 57.2573 74.4043H55.895C55.895 74.0332 55.7363 73.7134 55.4189 73.4448C55.1064 73.1763 54.7109 73.042 54.2324 73.042C53.7393 73.042 53.3535 73.1494 53.0752 73.3643C52.7969 73.5791 52.6577 73.8599 52.6577 74.2065C52.6577 74.5337 52.7871 74.7803 53.0459 74.9463C53.3047 75.1123 53.771 75.271 54.4448 75.4224C55.1235 75.5737 55.6729 75.7544 56.0928 75.9644C56.5127 76.1743 56.8228 76.4282 57.0229 76.7261C57.228 77.019 57.3306 77.3779 57.3306 77.8027C57.3306 78.5107 57.0474 79.0796 56.481 79.5093C55.9146 79.9341 55.1797 80.1465 54.2764 80.1465C53.6416 80.1465 53.0801 80.0342 52.5918 79.8096C52.1035 79.585 51.7202 79.2725 51.4419 78.8721C51.1685 78.4668 51.0317 78.0298 51.0317 77.561H52.3867C52.4111 78.0151 52.5918 78.3765 52.9287 78.645C53.2705 78.9087 53.7197 79.0405 54.2764 79.0405C54.7891 79.0405 55.1992 78.938 55.5068 78.7329C55.8193 78.5229 55.9756 78.2446 55.9756 77.8979ZM60.9341 70.1562V72.0752H62.4136V73.1226H60.9341V78.0371C60.9341 78.3545 61 78.5938 61.1318 78.7549C61.2637 78.9111 61.4883 78.9893 61.8057 78.9893C61.9619 78.9893 62.1768 78.96 62.4502 78.9014V80C62.0938 80.0977 61.7471 80.1465 61.4102 80.1465C60.8047 80.1465 60.3481 79.9634 60.0405 79.5972C59.7329 79.231 59.5791 78.7109 59.5791 78.0371V73.1226H58.1362V72.0752H59.5791V70.1562H60.9341ZM63.4976 75.9644C63.4976 75.188 63.6489 74.4897 63.9517 73.8696C64.2593 73.2495 64.6841 72.771 65.2261 72.4341C65.7729 72.0972 66.3955 71.9287 67.0938 71.9287C68.1729 71.9287 69.0444 72.3022 69.7085 73.0493C70.3774 73.7964 70.7119 74.79 70.7119 76.0303V76.1255C70.7119 76.897 70.563 77.5903 70.2651 78.2056C69.9722 78.8159 69.5498 79.292 68.998 79.6338C68.4512 79.9756 67.8213 80.1465 67.1084 80.1465C66.0342 80.1465 65.1626 79.7729 64.4937 79.0259C63.8296 78.2788 63.4976 77.29 63.4976 76.0596V75.9644ZM64.8599 76.1255C64.8599 77.0044 65.0625 77.71 65.4678 78.2422C65.8779 78.7744 66.4248 79.0405 67.1084 79.0405C67.7969 79.0405 68.3438 78.772 68.749 78.2349C69.1543 77.6929 69.3569 76.936 69.3569 75.9644C69.3569 75.0952 69.1494 74.3921 68.7344 73.855C68.3242 73.313 67.7773 73.042 67.0938 73.042C66.4248 73.042 65.8853 73.3081 65.4751 73.8403C65.0649 74.3726 64.8599 75.1343 64.8599 76.1255ZM75.8022 75.9717C75.8022 74.7559 76.0903 73.7793 76.6665 73.042C77.2427 72.2998 77.9971 71.9287 78.9297 71.9287C79.8574 71.9287 80.5923 72.2461 81.1343 72.8809V68.75H82.4893V80H81.2441L81.1782 79.1504C80.6362 79.8145 79.8818 80.1465 78.915 80.1465C77.9971 80.1465 77.2476 79.7705 76.6665 79.0186C76.0903 78.2666 75.8022 77.2852 75.8022 76.0742V75.9717ZM77.1572 76.1255C77.1572 77.0239 77.3428 77.7271 77.7139 78.2349C78.085 78.7427 78.5977 78.9966 79.252 78.9966C80.1113 78.9966 80.7388 78.6108 81.1343 77.8394V74.1992C80.729 73.4521 80.1064 73.0786 79.2666 73.0786C78.6025 73.0786 78.085 73.335 77.7139 73.8477C77.3428 74.3604 77.1572 75.1196 77.1572 76.1255ZM87.8872 80.1465C86.813 80.1465 85.939 79.7949 85.2651 79.0918C84.5913 78.3838 84.2544 77.439 84.2544 76.2573V76.0083C84.2544 75.2222 84.4033 74.5215 84.7012 73.9062C85.0039 73.2861 85.4238 72.8027 85.9609 72.4561C86.5029 72.1045 87.0889 71.9287 87.7188 71.9287C88.749 71.9287 89.5498 72.2681 90.1211 72.9468C90.6924 73.6255 90.978 74.5972 90.978 75.8618V76.4258H85.6094C85.6289 77.207 85.856 77.8394 86.2905 78.3228C86.73 78.8013 87.2866 79.0405 87.9604 79.0405C88.439 79.0405 88.8442 78.9429 89.1763 78.7476C89.5083 78.5522 89.7988 78.2935 90.0479 77.9712L90.8755 78.6157C90.2114 79.6362 89.2153 80.1465 87.8872 80.1465ZM87.7188 73.042C87.1719 73.042 86.7129 73.2422 86.3418 73.6426C85.9707 74.0381 85.7412 74.5947 85.6533 75.3125H89.623V75.21C89.584 74.5215 89.3984 73.9893 89.0664 73.6133C88.7344 73.2324 88.2852 73.042 87.7188 73.042ZM27.4038 98C27.3257 97.8438 27.2622 97.5654 27.2134 97.165C26.5835 97.8193 25.8315 98.1465 24.9575 98.1465C24.1763 98.1465 23.5342 97.9268 23.0312 97.4873C22.5332 97.043 22.2842 96.4814 22.2842 95.8027C22.2842 94.9775 22.5967 94.3379 23.2217 93.8838C23.8516 93.4248 24.7354 93.1953 25.873 93.1953H27.1914V92.5728C27.1914 92.0991 27.0498 91.7231 26.7666 91.4448C26.4834 91.1616 26.0659 91.02 25.5142 91.02C25.0308 91.02 24.6255 91.1421 24.2983 91.3862C23.9712 91.6304 23.8076 91.9258 23.8076 92.2725H22.4453C22.4453 91.877 22.5845 91.4961 22.8628 91.1299C23.146 90.7588 23.5269 90.4658 24.0054 90.251C24.4888 90.0361 25.0186 89.9287 25.5947 89.9287C26.5078 89.9287 27.2231 90.1582 27.7407 90.6172C28.2583 91.0713 28.5269 91.6987 28.5464 92.4995V96.147C28.5464 96.8745 28.6392 97.4531 28.8247 97.8828V98H27.4038ZM25.1553 96.9673C25.5801 96.9673 25.9829 96.8574 26.3638 96.6377C26.7446 96.418 27.0205 96.1323 27.1914 95.7808V94.1548H26.1294C24.4692 94.1548 23.6392 94.6406 23.6392 95.6123C23.6392 96.0371 23.7808 96.3691 24.064 96.6084C24.3472 96.8477 24.7109 96.9673 25.1553 96.9673ZM30.3408 93.9717C30.3408 92.7559 30.6289 91.7793 31.2051 91.042C31.7812 90.2998 32.5356 89.9287 33.4683 89.9287C34.396 89.9287 35.1309 90.2461 35.6729 90.8809V86.75H37.0278V98H35.7827L35.7168 97.1504C35.1748 97.8145 34.4204 98.1465 33.4536 98.1465C32.5356 98.1465 31.7861 97.7705 31.2051 97.0186C30.6289 96.2666 30.3408 95.2852 30.3408 94.0742V93.9717ZM31.6958 94.1255C31.6958 95.0239 31.8813 95.7271 32.2524 96.2349C32.6235 96.7427 33.1362 96.9966 33.7905 96.9966C34.6499 96.9966 35.2773 96.6108 35.6729 95.8394V92.1992C35.2676 91.4521 34.645 91.0786 33.8052 91.0786C33.1411 91.0786 32.6235 91.335 32.2524 91.8477C31.8813 92.3604 31.6958 93.1196 31.6958 94.1255ZM42.4258 98.1465C41.3516 98.1465 40.4775 97.7949 39.8037 97.0918C39.1299 96.3838 38.793 95.439 38.793 94.2573V94.0083C38.793 93.2222 38.9419 92.5215 39.2397 91.9062C39.5425 91.2861 39.9624 90.8027 40.4995 90.4561C41.0415 90.1045 41.6274 89.9287 42.2573 89.9287C43.2876 89.9287 44.0884 90.2681 44.6597 90.9468C45.231 91.6255 45.5166 92.5972 45.5166 93.8618V94.4258H40.1479C40.1675 95.207 40.3945 95.8394 40.8291 96.3228C41.2686 96.8013 41.8252 97.0405 42.499 97.0405C42.9775 97.0405 43.3828 96.9429 43.7148 96.7476C44.0469 96.5522 44.3374 96.2935 44.5864 95.9712L45.4141 96.6157C44.75 97.6362 43.7539 98.1465 42.4258 98.1465ZM42.2573 91.042C41.7104 91.042 41.2515 91.2422 40.8804 91.6426C40.5093 92.0381 40.2798 92.5947 40.1919 93.3125H44.1616V93.21C44.1226 92.5215 43.937 91.9893 43.605 91.6133C43.2729 91.2324 42.8237 91.042 42.2573 91.042ZM51.7056 95.8979C51.7056 95.5317 51.5664 95.2485 51.2881 95.0483C51.0146 94.8433 50.5337 94.6675 49.8452 94.521C49.1616 94.3745 48.6172 94.1987 48.2119 93.9937C47.8115 93.7886 47.5137 93.5444 47.3184 93.2612C47.1279 92.978 47.0327 92.6411 47.0327 92.2505C47.0327 91.6011 47.3062 91.0518 47.853 90.6025C48.4048 90.1533 49.1079 89.9287 49.9624 89.9287C50.8608 89.9287 51.5884 90.1606 52.145 90.6245C52.7065 91.0884 52.9873 91.6816 52.9873 92.4043H51.625C51.625 92.0332 51.4663 91.7134 51.1489 91.4448C50.8364 91.1763 50.4409 91.042 49.9624 91.042C49.4692 91.042 49.0835 91.1494 48.8052 91.3643C48.5269 91.5791 48.3877 91.8599 48.3877 92.2065C48.3877 92.5337 48.5171 92.7803 48.7759 92.9463C49.0347 93.1123 49.501 93.271 50.1748 93.4224C50.8535 93.5737 51.4028 93.7544 51.8228 93.9644C52.2427 94.1743 52.5527 94.4282 52.7529 94.7261C52.958 95.019 53.0605 95.3779 53.0605 95.8027C53.0605 96.5107 52.7773 97.0796 52.2109 97.5093C51.6445 97.9341 50.9097 98.1465 50.0063 98.1465C49.3716 98.1465 48.8101 98.0342 48.3218 97.8096C47.8335 97.585 47.4502 97.2725 47.1719 96.8721C46.8984 96.4668 46.7617 96.0298 46.7617 95.561H48.1167C48.1411 96.0151 48.3218 96.3765 48.6587 96.645C49.0005 96.9087 49.4497 97.0405 50.0063 97.0405C50.519 97.0405 50.9292 96.938 51.2368 96.7329C51.5493 96.5229 51.7056 96.2446 51.7056 95.8979ZM59.7183 98C59.6401 97.8438 59.5767 97.5654 59.5278 97.165C58.8979 97.8193 58.146 98.1465 57.272 98.1465C56.4907 98.1465 55.8486 97.9268 55.3457 97.4873C54.8477 97.043 54.5986 96.4814 54.5986 95.8027C54.5986 94.9775 54.9111 94.3379 55.5361 93.8838C56.166 93.4248 57.0498 93.1953 58.1875 93.1953H59.5059V92.5728C59.5059 92.0991 59.3643 91.7231 59.0811 91.4448C58.7979 91.1616 58.3804 91.02 57.8286 91.02C57.3452 91.02 56.9399 91.1421 56.6128 91.3862C56.2856 91.6304 56.1221 91.9258 56.1221 92.2725H54.7598C54.7598 91.877 54.8989 91.4961 55.1772 91.1299C55.4604 90.7588 55.8413 90.4658 56.3198 90.251C56.8032 90.0361 57.333 89.9287 57.9092 89.9287C58.8223 89.9287 59.5376 90.1582 60.0552 90.6172C60.5728 91.0713 60.8413 91.6987 60.8608 92.4995V96.147C60.8608 96.8745 60.9536 97.4531 61.1392 97.8828V98H59.7183ZM57.4697 96.9673C57.8945 96.9673 58.2974 96.8574 58.6782 96.6377C59.0591 96.418 59.335 96.1323 59.5059 95.7808V94.1548H58.4438C56.7837 94.1548 55.9536 94.6406 55.9536 95.6123C55.9536 96.0371 56.0952 96.3691 56.3784 96.6084C56.6616 96.8477 57.0254 96.9673 57.4697 96.9673ZM60.6558 86.9844C60.6558 87.5117 60.5044 87.939 60.2017 88.2661C59.9038 88.5933 59.5303 88.7568 59.0811 88.7568C58.8809 88.7568 58.7075 88.7324 58.561 88.6836C58.4146 88.6348 58.2217 88.5347 57.9824 88.3833C57.748 88.2319 57.5771 88.1416 57.4697 88.1123C57.3672 88.0781 57.2476 88.061 57.1108 88.061C56.9106 88.061 56.7397 88.1392 56.5981 88.2954C56.4565 88.4468 56.3857 88.6421 56.3857 88.8813L55.4775 88.8301C55.4775 88.3076 55.624 87.8755 55.917 87.5337C56.2148 87.1919 56.5908 87.021 57.0449 87.021C57.2158 87.021 57.3696 87.0454 57.5063 87.0942C57.6431 87.1431 57.8286 87.2383 58.063 87.3799C58.2974 87.5215 58.4756 87.6143 58.5977 87.6582C58.7246 87.7021 58.8638 87.7241 59.0151 87.7241C59.2251 87.7241 59.3984 87.6411 59.5352 87.4751C59.6768 87.3091 59.7476 87.1162 59.7476 86.8965L60.6558 86.9844ZM62.626 93.9644C62.626 93.188 62.7773 92.4897 63.0801 91.8696C63.3877 91.2495 63.8125 90.771 64.3545 90.4341C64.9014 90.0972 65.5239 89.9287 66.2222 89.9287C67.3013 89.9287 68.1729 90.3022 68.8369 91.0493C69.5059 91.7964 69.8403 92.79 69.8403 94.0303V94.1255C69.8403 94.897 69.6914 95.5903 69.3936 96.2056C69.1006 96.8159 68.6782 97.292 68.1265 97.6338C67.5796 97.9756 66.9497 98.1465 66.2368 98.1465C65.1626 98.1465 64.291 97.7729 63.6221 97.0259C62.958 96.2788 62.626 95.29 62.626 94.0596V93.9644ZM63.9883 94.1255C63.9883 95.0044 64.1909 95.71 64.5962 96.2422C65.0063 96.7744 65.5532 97.0405 66.2368 97.0405C66.9253 97.0405 67.4722 96.772 67.8774 96.2349C68.2827 95.6929 68.4854 94.936 68.4854 93.9644C68.4854 93.0952 68.2778 92.3921 67.8628 91.855C67.4526 91.313 66.9058 91.042 66.2222 91.042C65.5532 91.042 65.0137 91.3081 64.6035 91.8403C64.1934 92.3726 63.9883 93.1343 63.9883 94.1255Z" fill="black"/>
<path d="M38.7554 13.8446C38.5124 13.6036 38.2167 13.4224 37.8916 13.3153C37.5664 13.2083 37.2209 13.1783 36.8822 13.2278C36.5435 13.2773 36.221 13.405 35.9402 13.6006C35.6593 13.7962 35.4278 14.0545 35.264 14.355L24.5588 34.155C24.5076 34.2492 24.4635 34.347 24.4268 34.4476C23.9687 35.7153 23.8805 37.0871 24.1727 38.403C24.4649 39.7189 25.1252 40.9245 26.0768 41.8792C27.0313 42.8304 28.2366 43.4905 29.552 43.7826C30.8674 44.0748 32.2388 43.9869 33.5062 43.5292C33.6052 43.4918 33.7042 43.4478 33.7966 43.3994L53.6428 32.7382C53.9457 32.5763 54.2063 32.3456 54.4038 32.0647C54.6013 31.7838 54.7302 31.4605 54.78 31.1207C54.8299 30.7809 54.7993 30.4342 54.6909 30.1084C54.5824 29.7825 54.399 29.4867 54.1554 29.2446L38.7554 13.8446ZM31.876 39.4372C31.41 39.579 30.9143 39.5915 30.4418 39.4734C29.9692 39.3554 29.5377 39.1111 29.1932 38.7668C28.8486 38.4225 28.6041 37.9911 28.4857 37.5187C28.3674 37.0462 28.3795 36.5505 28.521 36.0844L37.7324 19.0432L48.9546 30.2632L31.876 39.4372ZM57 8.80003C57.5835 8.80003 58.1431 9.03182 58.5556 9.4444C58.9682 9.85698 59.2 10.4166 59.2 11C59.2 11.5835 59.4318 12.1431 59.8444 12.5557C60.2569 12.9682 60.8165 13.2 61.4 13.2C61.9835 13.2 62.5431 12.9682 62.9556 12.5557C63.3682 12.1431 63.6 11.5835 63.6 11C63.6 10.4166 63.8318 9.85698 64.2444 9.4444C64.6569 9.03182 65.2165 8.80003 65.8 8.80003C66.3835 8.80003 66.9431 8.56825 67.3556 8.15567C67.7682 7.74309 68 7.18351 68 6.60003C68 6.01656 67.7682 5.45698 67.3556 5.0444C66.9431 4.63182 66.3835 4.40003 65.8 4.40003C65.2165 4.40003 64.6569 4.16825 64.2444 3.75567C63.8318 3.34309 63.6 2.78351 63.6 2.20004C63.6 1.61656 63.3682 1.05698 62.9556 0.6444C62.5431 0.23182 61.9835 3.52765e-05 61.4 3.52765e-05C60.8165 3.52765e-05 60.2569 0.23182 59.8444 0.6444C59.4318 1.05698 59.2 1.61656 59.2 2.20004C59.2 2.78351 58.9682 3.34309 58.5556 3.75567C58.1431 4.16825 57.5835 4.40003 57 4.40003C56.4165 4.40003 55.8569 4.63182 55.4444 5.0444C55.0318 5.45698 54.8 6.01656 54.8 6.60003C54.8 7.18351 55.0318 7.74309 55.4444 8.15567C55.8569 8.56825 56.4165 8.80003 57 8.80003ZM26.2 8.80003C26.7835 8.80003 27.3431 9.03182 27.7556 9.4444C28.1682 9.85698 28.4 10.4166 28.4 11C28.4 11.5835 28.6318 12.1431 29.0444 12.5557C29.4569 12.9682 30.0165 13.2 30.6 13.2C31.1835 13.2 31.7431 12.9682 32.1556 12.5557C32.5682 12.1431 32.8 11.5835 32.8 11C32.8 10.4166 33.0318 9.85698 33.4444 9.4444C33.8569 9.03182 34.4165 8.80003 35 8.80003C35.5835 8.80003 36.1431 8.56825 36.5556 8.15567C36.9682 7.74309 37.2 7.18351 37.2 6.60003C37.2 6.01656 36.9682 5.45698 36.5556 5.0444C36.1431 4.63182 35.5835 4.40003 35 4.40003C34.4165 4.40003 33.8569 4.16825 33.4444 3.75567C33.0318 3.34309 32.8 2.78351 32.8 2.20004C32.8 1.61656 32.5682 1.05698 32.1556 0.6444C31.7431 0.23182 31.1835 3.52765e-05 30.6 3.52765e-05C30.0165 3.52765e-05 29.4569 0.23182 29.0444 0.6444C28.6318 1.05698 28.4 1.61656 28.4 2.20004C28.4 2.78351 28.1682 3.34309 27.7556 3.75567C27.3431 4.16825 26.7835 4.40003 26.2 4.40003C25.6165 4.40003 25.0569 4.63182 24.6444 5.0444C24.2318 5.45698 24 6.01656 24 6.60003C24 7.18351 24.2318 7.74309 24.6444 8.15567C25.0569 8.56825 25.6165 8.80003 26.2 8.80003ZM65.8 35.2C65.2165 35.2 64.6569 34.9682 64.2444 34.5557C63.8318 34.1431 63.6 33.5835 63.6 33C63.6 32.4166 63.3682 31.857 62.9556 31.4444C62.5431 31.0318 61.9835 30.8 61.4 30.8C60.8165 30.8 60.2569 31.0318 59.8444 31.4444C59.4318 31.857 59.2 32.4166 59.2 33C59.2 33.5835 58.9682 34.1431 58.5556 34.5557C58.1431 34.9682 57.5835 35.2 57 35.2C56.4165 35.2 55.8569 35.4318 55.4444 35.8444C55.0318 36.257 54.8 36.8166 54.8 37.4C54.8 37.9835 55.0318 38.5431 55.4444 38.9557C55.8569 39.3682 56.4165 39.6 57 39.6C57.5835 39.6 58.1431 39.8318 58.5556 40.2444C58.9682 40.657 59.2 41.2166 59.2 41.8C59.2 42.3835 59.4318 42.9431 59.8444 43.3557C60.2569 43.7682 60.8165 44 61.4 44C61.9835 44 62.5431 43.7682 62.9556 43.3557C63.3682 42.9431 63.6 42.3835 63.6 41.8C63.6 41.2166 63.8318 40.657 64.2444 40.2444C64.6569 39.8318 65.2165 39.6 65.8 39.6C66.3835 39.6 66.9431 39.3682 67.3556 38.9557C67.7682 38.5431 68 37.9835 68 37.4C68 36.8166 67.7682 36.257 67.3556 35.8444C66.9431 35.4318 66.3835 35.2 65.8 35.2ZM50.4 19.8C50.6889 19.8003 50.9751 19.7435 51.242 19.6329C51.5089 19.5223 51.7514 19.36 51.9554 19.1554L54.1554 16.9554C54.3597 16.7512 54.5217 16.5087 54.6322 16.2418C54.7428 15.9749 54.7997 15.6889 54.7997 15.4C54.7997 15.1112 54.7428 14.8251 54.6322 14.5583C54.5217 14.2914 54.3597 14.0489 54.1554 13.8446C53.9511 13.6404 53.7087 13.4783 53.4418 13.3678C53.1749 13.2573 52.8889 13.2004 52.6 13.2004C52.3111 13.2004 52.0251 13.2573 51.7582 13.3678C51.4913 13.4783 51.2489 13.6404 51.0446 13.8446L48.8446 16.0446C48.5359 16.3519 48.3255 16.7439 48.2401 17.171C48.1546 17.598 48.198 18.0409 48.3646 18.4432C48.5313 18.8456 48.8137 19.1894 49.1761 19.431C49.5385 19.6725 49.9645 19.801 50.4 19.8ZM65.1048 19.9144L58.5048 22.1144C58.2219 22.1985 57.9588 22.3385 57.7311 22.5263C57.5035 22.7141 57.316 22.9458 57.1797 23.2076C57.0434 23.4694 56.9612 23.7559 56.938 24.0501C56.9147 24.3443 56.9509 24.6402 57.0444 24.9201C57.1378 25.2 57.2867 25.4583 57.482 25.6795C57.6773 25.9007 57.9151 26.0804 58.1813 26.2078C58.4475 26.3352 58.7366 26.4078 59.0315 26.4211C59.3263 26.4345 59.6208 26.3884 59.8974 26.2856L66.4974 24.0856C66.7803 24.0016 67.0434 23.8615 67.2711 23.6737C67.4987 23.4859 67.6862 23.2542 67.8225 22.9925C67.9588 22.7307 68.041 22.4442 68.0642 22.15C68.0875 21.8558 68.0513 21.5599 67.9578 21.28C67.8644 21.0001 67.7155 20.7418 67.5202 20.5206C67.3249 20.2993 67.0871 20.1197 66.8209 19.9923C66.5547 19.8649 66.2656 19.7923 65.9707 19.7789C65.6759 19.7656 65.3814 19.8116 65.1048 19.9144ZM43.1048 10.8878C43.6582 11.0718 44.2621 11.0288 44.7838 10.7681C45.3056 10.5075 45.7026 10.0505 45.8878 9.49743L48.0878 2.89744C48.2728 2.34401 48.2303 1.73977 47.9698 1.21765C47.7092 0.695532 47.2519 0.298297 46.6985 0.113335C46.1451 -0.0716267 45.5408 -0.029165 45.0187 0.231379C44.4966 0.491923 44.0994 0.949208 43.9144 1.50264L41.7144 8.10263C41.5305 8.65578 41.5736 9.25932 41.8343 9.7807C42.095 10.3021 42.5519 10.6987 43.1048 10.8834" fill="#E2211D"/>
</g>
<defs>
<clipPath id="clip0">
<rect width="92" height="120" fill="white"/>
</clipPath>
</defs>
</svg>
