<svg id="Grupo_4" data-name="Grupo 4" xmlns="http://www.w3.org/2000/svg" width="45.198" height="64.872" viewBox="0 0 45.198 64.872">
  <path id="Caminho_38" data-name="Caminho 38" d="M208.689,90.542V96.47c0,.734-.452,1.242-1.073,1.186-.621,0-1.016-.452-1.016-1.186V90.542c0-.79.4-1.242,1.016-1.242A1.12,1.12,0,0,1,208.689,90.542Z" transform="translate(-182.605 -61.07)" fill="#fefefe"/>
  <path id="Caminho_39" data-name="Caminho 39" d="M183.917,68.715c0-.734-.452-1.186-1.073-1.129-.621,0-1.016.452-1.016,1.186v5.985c0,.734.4,1.186,1.016,1.186a1.071,1.071,0,0,0,1.073-1.186V68.715Zm0,0c0-.734-.452-1.186-1.073-1.129-.621,0-1.016.452-1.016,1.186v5.985c0,.734.4,1.186,1.016,1.186a1.071,1.071,0,0,0,1.073-1.186V68.715ZM206.5,39.3h-40.99c-1.129,0-1.411.339-1.411,1.468V43.2c0,1.016.339,1.411,1.355,1.355.621-.056.734.169.734.734V97.9a.921.921,0,0,0,.677.96c.339.113.4.282.4.621v3.388c0,.96.339,1.3,1.3,1.3h35.118c.9,0,1.242-.4,1.242-1.3V99.316c0-.169-.113-.4.169-.452.847-.226.9-.847.9-1.581V45.341c0-.678.113-.9.847-.847.9.056,1.3-.339,1.3-1.3V40.711C207.969,39.639,207.63,39.3,206.5,39.3Zm-38.28,56.911v-51.1c0-.508.113-.621.621-.621h15.526c.508,0,.621.113.621.621V96.155c0,.565-.113.678-.677.678h-15.47C168.334,96.832,168.221,96.719,168.221,96.211Zm34.5,3.275a13.6,13.6,0,0,0,0,2.145c0,.339-.113.452-.4.4H169.972c-.565,0-.79-.113-.734-.734a9.652,9.652,0,0,0,0-1.807c-.056-.508.113-.621.621-.621h32.295C202.605,98.921,202.775,99.034,202.718,99.486Zm1.073-28.794V96.155c0,.565-.113.678-.678.678h-15.47c-.508,0-.621-.113-.621-.621v-51.1c0-.508.113-.621.621-.621H203.17c.508,0,.621.113.621.621C203.734,53.641,203.791,62.166,203.791,70.691Zm2.089-28.625c-.056.282-.113.452-.4.4H166.81c-.339,0-.678.169-.678-.452,0-.508.113-.621.621-.621h38.505C205.767,41.389,205.936,41.5,205.88,42.067ZM182.845,75.886a1.071,1.071,0,0,0,1.073-1.186V68.715c0-.734-.452-1.186-1.073-1.129-.621,0-1.016.452-1.016,1.186v5.985A1.011,1.011,0,0,0,182.845,75.886Zm1.073-7.17c0-.734-.452-1.186-1.073-1.129-.621,0-1.016.452-1.016,1.186v5.985c0,.734.4,1.186,1.016,1.186a1.071,1.071,0,0,0,1.073-1.186V68.715Zm0,0c0-.734-.452-1.186-1.073-1.129-.621,0-1.016.452-1.016,1.186v5.985c0,.734.4,1.186,1.016,1.186a1.071,1.071,0,0,0,1.073-1.186V68.715Z" transform="translate(-164.1 -39.3)" fill="#fefefe"/>
  <path id="Caminho_40" data-name="Caminho 40" d="M208.689,90.542V96.47c0,.734-.452,1.242-1.073,1.186-.621,0-1.016-.452-1.016-1.186V90.542c0-.79.4-1.242,1.016-1.242A1.12,1.12,0,0,1,208.689,90.542Z" transform="translate(-182.605 -61.07)"/>
  <path id="Caminho_41" data-name="Caminho 41" d="M183.917,68.715c0-.734-.452-1.186-1.073-1.129-.621,0-1.016.452-1.016,1.186v5.985c0,.734.4,1.186,1.016,1.186a1.071,1.071,0,0,0,1.073-1.186V68.715Zm0,0c0-.734-.452-1.186-1.073-1.129-.621,0-1.016.452-1.016,1.186v5.985c0,.734.4,1.186,1.016,1.186a1.071,1.071,0,0,0,1.073-1.186V68.715ZM206.5,39.3h-40.99c-1.129,0-1.411.339-1.411,1.468V43.2c0,1.016.339,1.411,1.355,1.355.621-.056.734.169.734.734V97.9a.921.921,0,0,0,.677.96c.339.113.4.282.4.621v3.388c0,.96.339,1.3,1.3,1.3h35.118c.9,0,1.242-.4,1.242-1.3V99.316c0-.169-.113-.4.169-.452.847-.226.9-.847.9-1.581V45.341c0-.678.113-.9.847-.847.9.056,1.3-.339,1.3-1.3V40.711C207.969,39.639,207.63,39.3,206.5,39.3Zm-38.28,56.911v-51.1c0-.508.113-.621.621-.621h15.526c.508,0,.621.113.621.621V96.155c0,.565-.113.678-.677.678h-15.47C168.334,96.832,168.221,96.719,168.221,96.211Zm34.5,3.275a13.6,13.6,0,0,0,0,2.145c0,.339-.113.452-.4.4H169.972c-.565,0-.79-.113-.734-.734a9.652,9.652,0,0,0,0-1.807c-.056-.508.113-.621.621-.621h32.295C202.605,98.921,202.775,99.034,202.718,99.486Zm1.073-28.794V96.155c0,.565-.113.678-.678.678h-15.47c-.508,0-.621-.113-.621-.621v-51.1c0-.508.113-.621.621-.621H203.17c.508,0,.621.113.621.621C203.734,53.641,203.791,62.166,203.791,70.691Zm2.089-28.625c-.056.282-.113.452-.4.4H166.81c-.339,0-.678.169-.678-.452,0-.508.113-.621.621-.621h38.505C205.767,41.389,205.936,41.5,205.88,42.067ZM182.845,75.886a1.071,1.071,0,0,0,1.073-1.186V68.715c0-.734-.452-1.186-1.073-1.129-.621,0-1.016.452-1.016,1.186v5.985A1.011,1.011,0,0,0,182.845,75.886Zm1.073-7.17c0-.734-.452-1.186-1.073-1.129-.621,0-1.016.452-1.016,1.186v5.985c0,.734.4,1.186,1.016,1.186a1.071,1.071,0,0,0,1.073-1.186V68.715Zm0,0c0-.734-.452-1.186-1.073-1.129-.621,0-1.016.452-1.016,1.186v5.985c0,.734.4,1.186,1.016,1.186a1.071,1.071,0,0,0,1.073-1.186V68.715Z" transform="translate(-162.94 -39.3)"/>
  <path id="Caminho_42" data-name="Caminho 42" d="M197.589,93.534V96.47c0,.734-.452,1.242-1.073,1.186-.621,0-1.016-.452-1.016-1.186V90.486c0-.734.4-1.186,1.016-1.186a1.053,1.053,0,0,1,1.073,1.129Z" transform="translate(-177.772 -61.07)" fill="#fefefe"/>
  <path id="Caminho_43" data-name="Caminho 43" d="M208.689,90.542V96.47c0,.734-.452,1.242-1.073,1.186-.621,0-1.016-.452-1.016-1.186V90.542c0-.79.4-1.242,1.016-1.242A1.12,1.12,0,0,1,208.689,90.542Z" transform="translate(-182.605 -61.07)" fill="#fefefe"/>
  <path id="Caminho_44" data-name="Caminho 44" d="M197.589,93.534V96.47c0,.734-.452,1.242-1.073,1.186-.621,0-1.016-.452-1.016-1.186V90.486c0-.734.4-1.186,1.016-1.186a1.053,1.053,0,0,1,1.073,1.129Z" transform="translate(-177.772 -61.07)"/>
  <path id="Caminho_45" data-name="Caminho 45" d="M208.689,90.542V96.47c0,.734-.452,1.242-1.073,1.186-.621,0-1.016-.452-1.016-1.186V90.542c0-.79.4-1.242,1.016-1.242A1.12,1.12,0,0,1,208.689,90.542Z" transform="translate(-182.605 -61.07)"/>
</svg>
