<svg width="102" height="126" viewBox="0 0 102 126" fill="none" xmlns="http://www.w3.org/2000/svg">
<circle cx="51" cy="51" r="51" fill="white"/>
<path d="M76.334 45.5536C76.2957 45.5536 76.2579 45.5554 76.2198 45.5564V38.8246C76.2198 36.7158 74.4147 35.0001 72.196 35.0001H53.6749C53.0341 34.9963 52.4019 35.1422 51.832 35.4254C51.2621 35.7085 50.7715 36.1205 50.4018 36.6262C50.0268 36.1219 49.5328 35.7114 48.9607 35.4285C48.3886 35.1457 47.755 34.9988 47.1124 35.0001H28.4862C26.2675 35.0001 24.4625 36.7158 24.4625 38.8246V45.5582C21.9838 45.6598 20 47.6066 20 49.986V65.9717C20.0011 66.2452 20.1145 66.507 20.3152 66.6998C20.5159 66.8926 20.7876 67.0005 21.0706 67H28.2614C28.5444 67.0005 28.816 66.8926 29.0167 66.6998C29.2174 66.507 29.3308 66.2452 29.332 65.9717V61.3516L71.668 61.3636V65.9713C71.6692 66.2448 71.7826 66.5066 71.9833 66.6994C72.184 66.8922 72.4556 67.0002 72.7386 66.9996H79.9294C80.2124 67.0001 80.4841 66.8922 80.6847 66.6994C80.8854 66.5066 80.9988 66.2448 81 65.9713V49.9863C81.0006 47.5422 78.9068 45.5536 76.334 45.5536ZM51.8813 37.1471C52.1165 36.9193 52.3963 36.7391 52.7043 36.6169C53.0123 36.4946 53.3424 36.4328 53.6754 36.435H72.196C73.596 36.435 74.7349 37.5071 74.7349 38.8247V45.8218C73.8424 46.1267 73.069 46.6902 72.5201 47.4355C71.9713 48.1808 71.6737 49.0716 71.668 49.9863V50.6301L51.1405 50.6246L51.1429 38.9236C51.138 38.595 51.2007 38.2687 51.3274 37.9637C51.4542 37.6587 51.6424 37.3811 51.8813 37.1471ZM28.4862 36.435H47.1124C48.5123 36.435 49.6512 37.5071 49.6512 38.825L49.6559 50.6242L29.332 50.6187V49.9863C29.3249 49.0168 28.9905 48.0761 28.3796 47.3071C27.7687 46.538 26.9146 45.9827 25.9473 45.7256V38.8247C25.9473 37.5071 27.0863 36.435 28.4862 36.435ZM21.4848 65.565V49.9863C21.4848 48.3333 22.912 46.9885 24.666 46.9885C26.4201 46.9885 27.8471 48.3333 27.8471 49.9863V51.1954C27.8278 51.2882 27.8278 51.3837 27.8471 51.4765V65.565H21.4848ZM29.332 59.9168V52.0536L71.668 52.0649V59.9291L29.332 59.9168ZM79.5158 65.565H73.1529V49.9863C73.1529 48.3333 74.5799 46.9885 76.334 46.9885C78.088 46.9885 79.5152 48.3333 79.5152 49.9863L79.5158 65.565Z" fill="#E2211D"/>
<path d="M30.9355 113.047L34.1895 121.168L37.4434 113.047H39.1455V123H37.833V119.124L37.9561 114.94L34.6885 123H33.6836L30.4229 114.961L30.5527 119.124V123H29.2402V113.047H30.9355ZM40.9297 119.233C40.9297 118.509 41.071 117.857 41.3535 117.278C41.6406 116.7 42.0371 116.253 42.543 115.938C43.0534 115.624 43.6344 115.467 44.2861 115.467C45.2933 115.467 46.1068 115.815 46.7266 116.513C47.3509 117.21 47.6631 118.137 47.6631 119.295V119.384C47.6631 120.104 47.5241 120.751 47.2461 121.325C46.9727 121.895 46.5785 122.339 46.0635 122.658C45.5531 122.977 44.9652 123.137 44.2998 123.137C43.2972 123.137 42.4837 122.788 41.8594 122.091C41.2396 121.394 40.9297 120.471 40.9297 119.322V119.233ZM42.2012 119.384C42.2012 120.204 42.3903 120.863 42.7686 121.359C43.1514 121.856 43.6618 122.104 44.2998 122.104C44.9424 122.104 45.4528 121.854 45.8311 121.353C46.2093 120.847 46.3984 120.14 46.3984 119.233C46.3984 118.422 46.2048 117.766 45.8174 117.265C45.4346 116.759 44.9242 116.506 44.2861 116.506C43.6618 116.506 43.1582 116.754 42.7754 117.251C42.3926 117.748 42.2012 118.459 42.2012 119.384ZM44.8604 112.5H46.3916L44.5596 114.51H43.541L44.8604 112.5ZM51.5801 121.284L53.4121 115.604H54.7041L52.0518 123H51.0879L48.4082 115.604H49.7002L51.5801 121.284ZM58.8945 123.137C57.8919 123.137 57.0762 122.809 56.4473 122.152C55.8184 121.492 55.5039 120.61 55.5039 119.507V119.274C55.5039 118.541 55.6429 117.887 55.9209 117.312C56.2035 116.734 56.5954 116.283 57.0967 115.959C57.6025 115.631 58.1494 115.467 58.7373 115.467C59.6989 115.467 60.4463 115.784 60.9795 116.417C61.5127 117.05 61.7793 117.957 61.7793 119.138V119.664H56.7686C56.7868 120.393 56.9987 120.983 57.4043 121.435C57.8145 121.881 58.334 122.104 58.9629 122.104C59.4095 122.104 59.7878 122.013 60.0977 121.831C60.4076 121.649 60.6787 121.407 60.9111 121.106L61.6836 121.708C61.0638 122.66 60.1341 123.137 58.8945 123.137ZM58.7373 116.506C58.2269 116.506 57.7985 116.693 57.4521 117.066C57.1058 117.436 56.8916 117.955 56.8096 118.625H60.5146V118.529C60.4782 117.887 60.305 117.39 59.9951 117.039C59.6852 116.684 59.266 116.506 58.7373 116.506ZM64.623 123H63.3584V115.604H64.623V123ZM63.2559 113.642C63.2559 113.437 63.3174 113.263 63.4404 113.122C63.568 112.981 63.7549 112.91 64.001 112.91C64.2471 112.91 64.4339 112.981 64.5615 113.122C64.6891 113.263 64.7529 113.437 64.7529 113.642C64.7529 113.847 64.6891 114.018 64.5615 114.154C64.4339 114.291 64.2471 114.359 64.001 114.359C63.7549 114.359 63.568 114.291 63.4404 114.154C63.3174 114.018 63.2559 113.847 63.2559 113.642ZM70.96 121.038C70.96 120.696 70.8301 120.432 70.5703 120.245C70.3151 120.054 69.8662 119.89 69.2236 119.753C68.5856 119.616 68.0775 119.452 67.6992 119.261C67.3255 119.069 67.0475 118.841 66.8652 118.577C66.6875 118.313 66.5986 117.998 66.5986 117.634C66.5986 117.028 66.8538 116.515 67.3643 116.096C67.8792 115.676 68.5355 115.467 69.333 115.467C70.1715 115.467 70.8506 115.683 71.3701 116.116C71.8942 116.549 72.1562 117.103 72.1562 117.777H70.8848C70.8848 117.431 70.7367 117.132 70.4404 116.882C70.1488 116.631 69.7796 116.506 69.333 116.506C68.8727 116.506 68.5127 116.606 68.2529 116.807C67.9932 117.007 67.8633 117.269 67.8633 117.593C67.8633 117.898 67.984 118.128 68.2256 118.283C68.4671 118.438 68.9023 118.586 69.5312 118.728C70.1647 118.869 70.6774 119.037 71.0693 119.233C71.4613 119.429 71.7507 119.666 71.9375 119.944C72.1289 120.218 72.2246 120.553 72.2246 120.949C72.2246 121.61 71.9603 122.141 71.4316 122.542C70.903 122.938 70.2171 123.137 69.374 123.137C68.7816 123.137 68.2575 123.032 67.8018 122.822C67.346 122.613 66.9883 122.321 66.7285 121.947C66.4733 121.569 66.3457 121.161 66.3457 120.724H67.6104C67.6331 121.147 67.8018 121.485 68.1162 121.735C68.4352 121.981 68.8545 122.104 69.374 122.104C69.8525 122.104 70.2354 122.009 70.5225 121.817C70.8141 121.621 70.96 121.362 70.96 121.038Z" fill="white"/>
</svg>
