<svg xmlns="http://www.w3.org/2000/svg" width="15.328" height="22" viewBox="0 0 15.328 22">
  <g id="Grupo_15" data-name="Grupo 15" transform="translate(0)">
    <path id="Caminho_38" data-name="Caminho 38" d="M207.308,89.721v2.01c0,.249-.153.421-.364.4-.211,0-.345-.153-.345-.4v-2.01c0-.268.134-.421.345-.421A.38.38,0,0,1,207.308,89.721Z" transform="translate(-198.462 -79.726)" fill="#e2211d"/>
    <path id="Caminho_39" data-name="Caminho 39" d="M170.821,49.276c0-.249-.153-.4-.364-.383-.211,0-.345.153-.345.4v2.03c0,.249.134.4.345.4a.363.363,0,0,0,.364-.4V49.276Zm0,0c0-.249-.153-.4-.364-.383-.211,0-.345.153-.345.4v2.03c0,.249.134.4.345.4a.363.363,0,0,0,.364-.4V49.276Zm7.659-9.976h-13.9c-.383,0-.479.115-.479.5v.823c0,.345.115.479.46.46.211-.019.249.057.249.249V59.175a.312.312,0,0,0,.23.326c.115.038.134.1.134.211V60.86c0,.325.115.44.44.44h11.909c.306,0,.421-.134.421-.44V59.653c0-.057-.038-.134.057-.153.287-.077.306-.287.306-.536V41.349c0-.23.038-.306.287-.287.306.019.44-.115.44-.44v-.842C178.977,39.415,178.862,39.3,178.479,39.3ZM165.5,58.6V41.272c0-.172.038-.211.211-.211h5.265c.172,0,.211.038.211.211V58.581c0,.191-.038.23-.23.23h-5.246C165.536,58.811,165.5,58.773,165.5,58.6Zm11.7,1.111a4.615,4.615,0,0,0,0,.728c0,.115-.038.153-.134.134H166.091c-.191,0-.268-.038-.249-.249a3.278,3.278,0,0,0,0-.613c-.019-.172.038-.211.211-.211h10.952C177.158,59.519,177.216,59.558,177.2,59.711Zm.364-9.765v8.635c0,.191-.038.23-.23.23h-5.246c-.172,0-.211-.038-.211-.211V41.272c0-.172.038-.211.211-.211h5.265c.172,0,.211.038.211.211C177.541,44.163,177.56,47.055,177.56,49.946Zm.708-9.708c-.019.1-.038.153-.134.134H165.019c-.115,0-.23.057-.23-.153,0-.172.038-.211.211-.211h13.058C178.23,40.008,178.288,40.047,178.269,40.238Zm-7.812,11.469a.363.363,0,0,0,.364-.4v-2.03c0-.249-.153-.4-.364-.383-.211,0-.345.153-.345.4v2.03A.343.343,0,0,0,170.457,51.707Zm.364-2.432c0-.249-.153-.4-.364-.383-.211,0-.345.153-.345.4v2.03c0,.249.134.4.345.4a.363.363,0,0,0,.364-.4V49.276Zm0,0c0-.249-.153-.4-.364-.383-.211,0-.345.153-.345.4v2.03c0,.249.134.4.345.4a.363.363,0,0,0,.364-.4V49.276Z" transform="translate(-164.1 -39.3)" fill="#e2211d"/>
    <path id="Caminho_40" data-name="Caminho 40" d="M207.308,89.721v2.01c0,.249-.153.421-.364.4-.211,0-.345-.153-.345-.4v-2.01c0-.268.134-.421.345-.421A.38.38,0,0,1,207.308,89.721Z" transform="translate(-198.462 -79.726)" fill="#e2211d"/>
    <path id="Caminho_41" data-name="Caminho 41" d="M170.821,49.276c0-.249-.153-.4-.364-.383-.211,0-.345.153-.345.4v2.03c0,.249.134.4.345.4a.363.363,0,0,0,.364-.4V49.276Zm0,0c0-.249-.153-.4-.364-.383-.211,0-.345.153-.345.4v2.03c0,.249.134.4.345.4a.363.363,0,0,0,.364-.4V49.276Zm7.659-9.976h-13.9c-.383,0-.479.115-.479.5v.823c0,.345.115.479.46.46.211-.019.249.057.249.249V59.175a.312.312,0,0,0,.23.326c.115.038.134.1.134.211V60.86c0,.325.115.44.44.44h11.909c.306,0,.421-.134.421-.44V59.653c0-.057-.038-.134.057-.153.287-.077.306-.287.306-.536V41.349c0-.23.038-.306.287-.287.306.019.44-.115.44-.44v-.842C178.977,39.415,178.862,39.3,178.479,39.3ZM165.5,58.6V41.272c0-.172.038-.211.211-.211h5.265c.172,0,.211.038.211.211V58.581c0,.191-.038.23-.23.23h-5.246C165.536,58.811,165.5,58.773,165.5,58.6Zm11.7,1.111a4.615,4.615,0,0,0,0,.728c0,.115-.038.153-.134.134H166.091c-.191,0-.268-.038-.249-.249a3.278,3.278,0,0,0,0-.613c-.019-.172.038-.211.211-.211h10.952C177.158,59.519,177.216,59.558,177.2,59.711Zm.364-9.765v8.635c0,.191-.038.23-.23.23h-5.246c-.172,0-.211-.038-.211-.211V41.272c0-.172.038-.211.211-.211h5.265c.172,0,.211.038.211.211C177.541,44.163,177.56,47.055,177.56,49.946Zm.708-9.708c-.019.1-.038.153-.134.134H165.019c-.115,0-.23.057-.23-.153,0-.172.038-.211.211-.211h13.058C178.23,40.008,178.288,40.047,178.269,40.238Zm-7.812,11.469a.363.363,0,0,0,.364-.4v-2.03c0-.249-.153-.4-.364-.383-.211,0-.345.153-.345.4v2.03A.343.343,0,0,0,170.457,51.707Zm.364-2.432c0-.249-.153-.4-.364-.383-.211,0-.345.153-.345.4v2.03c0,.249.134.4.345.4a.363.363,0,0,0,.364-.4V49.276Zm0,0c0-.249-.153-.4-.364-.383-.211,0-.345.153-.345.4v2.03c0,.249.134.4.345.4a.363.363,0,0,0,.364-.4V49.276Z" transform="translate(-163.707 -39.3)" fill="#e2211d"/>
    <path id="Caminho_42" data-name="Caminho 42" d="M196.208,90.736v1c0,.249-.153.421-.364.4-.211,0-.345-.153-.345-.4V89.7c0-.249.134-.4.345-.4a.357.357,0,0,1,.364.383Z" transform="translate(-189.488 -79.726)" fill="#e2211d"/>
    <path id="Caminho_43" data-name="Caminho 43" d="M207.308,89.721v2.01c0,.249-.153.421-.364.4-.211,0-.345-.153-.345-.4v-2.01c0-.268.134-.421.345-.421A.38.38,0,0,1,207.308,89.721Z" transform="translate(-198.462 -79.726)" fill="#e2211d"/>
    <path id="Caminho_44" data-name="Caminho 44" d="M196.208,90.736v1c0,.249-.153.421-.364.4-.211,0-.345-.153-.345-.4V89.7c0-.249.134-.4.345-.4a.357.357,0,0,1,.364.383Z" transform="translate(-189.488 -79.726)" fill="#e2211d"/>
    <path id="Caminho_45" data-name="Caminho 45" d="M207.308,89.721v2.01c0,.249-.153.421-.364.4-.211,0-.345-.153-.345-.4v-2.01c0-.268.134-.421.345-.421A.38.38,0,0,1,207.308,89.721Z" transform="translate(-198.462 -79.726)" fill="#e2211d"/>
  </g>
</svg>
