<svg width="131" height="131" viewBox="0 0 131 131" fill="none" xmlns="http://www.w3.org/2000/svg">
<path d="M94.6234 48.3204C94.6234 52.489 91.2465 55.868 87.0779 55.868C82.9114 55.868 79.5324 52.489 79.5324 48.3204C79.5324 44.1518 82.9114 40.7749 87.0779 40.7749C91.2465 40.7749 94.6234 44.1518 94.6234 48.3204Z" fill="#E2211D"/>
<path d="M51.2386 48.3204C51.2386 52.489 47.8595 55.868 43.693 55.868C39.5265 55.868 36.1475 52.489 36.1475 48.3204C36.1475 44.1518 39.5265 40.7749 43.693 40.7749C47.8595 40.7749 51.2386 44.1518 51.2386 48.3204Z" fill="#E2211D"/>
<path d="M39.8168 104.727C38.1005 104.727 36.7074 103.336 36.7074 101.618C36.7074 88.1958 47.5033 77.2754 60.7744 77.2754H71.2552C84.5263 77.2754 95.3223 88.1355 95.3223 101.483C95.3223 103.202 93.9313 104.595 92.2129 104.595C90.4964 104.595 89.1056 103.202 89.1056 101.483C89.1056 91.5662 81.0979 83.4962 71.2555 83.4962H60.7747C50.9322 83.4962 42.9266 91.6242 42.9266 101.618C42.9261 103.336 41.533 104.727 39.8168 104.727Z" fill="#E2211D"/>
<path d="M65.4844 131C29.3757 131 0 101.616 0 65.499C0 29.384 29.3757 0 65.4844 0C101.591 0 130.967 29.384 130.967 65.499C130.967 101.616 101.591 131 65.4844 131ZM65.4844 6.22102C32.8043 6.22102 6.21894 32.8129 6.21894 65.499C6.21894 98.1874 32.8045 124.779 65.4844 124.779C98.1624 124.779 124.748 98.1871 124.748 65.499C124.748 32.8126 98.1624 6.22102 65.4844 6.22102Z" fill="#E2211D"/>
</svg>
