<svg id="Grupo_7" data-name="Grupo 7" xmlns="http://www.w3.org/2000/svg" width="64.831" height="64.872" viewBox="0 0 64.831 64.872">
  <path id="Caminho_81" data-name="Caminho 81" d="M29.953,23.876a1.977,1.977,0,0,0-2.011,2.068,2.012,2.012,0,1,0,2.011-2.068ZM42.076,44.157a1.977,1.977,0,0,0-2.011,2.068,2,2,0,0,0,2.068,1.953,2.036,2.036,0,0,0,2.011-2.011A2.085,2.085,0,0,0,42.076,44.157Zm0,0a1.977,1.977,0,0,0-2.011,2.068,2,2,0,0,0,2.068,1.953,2.036,2.036,0,0,0,2.011-2.011A2.085,2.085,0,0,0,42.076,44.157ZM29.953,23.876a1.977,1.977,0,0,0-2.011,2.068,2.012,2.012,0,1,0,2.011-2.068Zm36.6,10.054c.632-1.839,1.609-3.62,1.839-5.63v-.862a2.213,2.213,0,0,0-.977-1.666c-1.666-1.321-3.275-2.7-4.941-3.964a2.04,2.04,0,0,1-.862-1.551c-.345-2.126-.689-4.309-1.034-6.435a2.488,2.488,0,0,0-2.356-2.356c-2.126-.345-4.309-.689-6.435-1.034a2.293,2.293,0,0,1-1.551-.919C48.97,7.846,47.592,6.238,46.27,4.571a2.4,2.4,0,0,0-2.183-.977,6.915,6.915,0,0,0-1.9.345c-1.839.689-3.677,1.436-5.573,2.126a1.341,1.341,0,0,1-1.149,0c-1.034-.4-2.068-.8-3.16-1.207a18.181,18.181,0,0,0-3.792-1.207,2.776,2.776,0,0,0-2.873,1.092C24.38,6.41,23,8.019,21.68,9.685a1.857,1.857,0,0,1-1.379.747c-2.183.287-4.424.689-6.607,1.034a2.446,2.446,0,0,0-2.183,2.183c-.345,2.183-.747,4.424-1.034,6.607a2.418,2.418,0,0,1-.8,1.436c-1.666,1.321-3.275,2.7-5,4.022A2.6,2.6,0,0,0,3.582,28.07a6.969,6.969,0,0,0,.4,1.9c.689,1.839,1.379,3.62,2.068,5.458a1.472,1.472,0,0,1,0,1.207c-.345.862-.689,1.666-.977,2.528A24.139,24.139,0,0,0,3.582,43.64a2.869,2.869,0,0,0,1.149,2.815C6.4,47.719,8.006,49.04,9.615,50.362a1.745,1.745,0,0,1,.747,1.321c.287,2.183.689,4.366,1.034,6.55a2.488,2.488,0,0,0,2.356,2.356c2.126.345,4.309.689,6.435,1.034a2.084,2.084,0,0,1,1.436.747c1.264,1.609,2.585,3.217,3.907,4.826A2.8,2.8,0,0,0,27.311,68.4h.862a14.073,14.073,0,0,0,2.241-.46c1.379-.575,2.758-1.034,4.137-1.609a3.482,3.482,0,0,1,2.93,0,33.292,33.292,0,0,0,6.09,2.126H44.6a2.693,2.693,0,0,0,1.666-.919c1.321-1.666,2.643-3.275,3.964-4.941a2.427,2.427,0,0,1,1.551-.919c2.126-.345,4.309-.632,6.435-1.034a2.488,2.488,0,0,0,2.356-2.356c.345-2.126.689-4.309,1.034-6.435a2.037,2.037,0,0,1,.8-1.436c1.609-1.264,3.16-2.585,4.769-3.849a2.8,2.8,0,0,0,1.207-1.781v-.862a9.779,9.779,0,0,0-.517-2.241c-.575-1.379-1.034-2.815-1.609-4.194a2.672,2.672,0,0,1,0-2.7A2.541,2.541,0,0,0,66.551,33.93ZM29.9,19.854a6.061,6.061,0,1,1-6.09,6.09A6.207,6.207,0,0,1,29.9,19.854ZM27.6,51.281a2.031,2.031,0,0,1-3.677-.689,2.19,2.19,0,0,1,.517-1.839l8.1-11.376,11.548-16.2a4.339,4.339,0,0,1,.632-.8,2.022,2.022,0,0,1,2.241-.4,2.161,2.161,0,0,1,1.207,1.609,2.651,2.651,0,0,1-.632,1.781Q39.261,34.993,30.988,46.57C29.9,48.121,28.747,49.73,27.6,51.281Zm14.478.919a6.061,6.061,0,1,1,6.09-6.033A6.107,6.107,0,0,1,42.076,52.2Zm0-8.043a1.977,1.977,0,0,0-2.011,2.068,2,2,0,0,0,2.068,1.953,2.036,2.036,0,0,0,2.011-2.011A2.085,2.085,0,0,0,42.076,44.157Zm-12.123-16.2a2.011,2.011,0,0,0,0-4.022A1.977,1.977,0,0,0,27.943,26,2.025,2.025,0,0,0,29.953,27.955Zm0-4.079a1.977,1.977,0,0,0-2.011,2.068,2.012,2.012,0,1,0,2.011-2.068Zm0,0a1.977,1.977,0,0,0-2.011,2.068,2.012,2.012,0,1,0,2.011-2.068Z" transform="translate(-3.558 -3.588)" fill="#e2211d"/>
  <path id="Caminho_82" data-name="Caminho 82" d="M70.708,75.979a1.8,1.8,0,0,1-1.779,1.779A1.837,1.837,0,0,1,67.1,76.03a1.812,1.812,0,0,1,1.779-1.83A1.881,1.881,0,0,1,70.708,75.979Z" transform="translate(-30.31 -33.321)" fill="#e2211d"/>
  <path id="Caminho_83" data-name="Caminho 83" d="M49.558,40.73a1.779,1.779,0,1,1-1.779-1.83A1.844,1.844,0,0,1,49.558,40.73Z" transform="translate(-21.43 -18.455)" fill="#e2211d"/>
  <path id="Caminho_84" data-name="Caminho 84" d="M70.708,75.979a1.8,1.8,0,0,1-1.779,1.779A1.837,1.837,0,0,1,67.1,76.03a1.812,1.812,0,0,1,1.779-1.83A1.881,1.881,0,0,1,70.708,75.979Z" transform="translate(-30.31 -33.321)" fill="#e2211d"/>
  <path id="Caminho_85" data-name="Caminho 85" d="M49.558,40.73a1.779,1.779,0,1,1-1.779-1.83A1.844,1.844,0,0,1,49.558,40.73Z" transform="translate(-21.43 -18.455)" fill="#e2211d"/>
</svg>
