<svg width="330" height="330" viewBox="0 0 330 330" fill="none" xmlns="http://www.w3.org/2000/svg">
<path d="M253.125 248.326C240.825 248.326 229.025 243.526 220.325 234.826L173.025 187.426C169.525 184.126 164.025 184.126 160.625 187.426L113.125 234.926C104.425 243.626 92.6254 248.526 80.3254 248.526H71.0254L131.025 308.526C149.725 327.226 180.125 327.226 198.825 308.526L258.925 248.426L253.125 248.326Z" stroke="#E2211D" stroke-width="8" stroke-miterlimit="10"/>
<path d="M80.3254 80.925C92.6254 80.925 104.425 85.825 113.125 94.525L160.625 142.025C164.025 145.425 169.625 145.425 173.025 142.025L220.325 94.725C229.025 86.025 240.825 81.125 253.125 81.125H258.825L198.725 21.025C180.025 2.325 149.625 2.325 130.925 21.025L71.0254 80.925H80.3254Z" stroke="#E2211D" stroke-width="8" stroke-miterlimit="10"/>
<path d="M308.625 130.826L272.325 94.5262C271.525 94.8262 270.625 95.0262 269.725 95.0262H253.225C244.625 95.0262 236.425 98.4262 230.325 104.526L182.925 151.826C174.025 160.726 159.625 160.726 150.825 151.826L103.325 104.326C97.225 98.2262 89.025 94.8262 80.425 94.8262H60.025C59.225 94.8262 58.325 94.6262 57.625 94.3262L21.025 130.826C2.325 149.526 2.325 179.926 21.025 198.626L57.525 235.126C58.325 234.826 59.125 234.626 59.925 234.626H80.325C88.925 234.626 97.125 231.226 103.225 225.126L150.725 177.626C159.325 169.026 174.325 169.026 182.825 177.626L230.125 224.926C236.225 231.026 244.425 234.426 253.025 234.426H269.525C270.425 234.426 271.325 234.626 272.125 234.926L308.425 198.626C327.325 179.926 327.325 149.526 308.625 130.826Z" stroke="#E2211D" stroke-width="8" stroke-miterlimit="10"/>
</svg>
