<svg width="34" height="23" viewBox="0 0 34 23" fill="none" xmlns="http://www.w3.org/2000/svg">
<path d="M33.5 19.8333C33.5 21.1155 32.4489 22.1667 31.1667 22.1667H2.83333C1.55114 22.1667 0.5 21.1155 0.5 19.8333V2.83333C0.5 1.55114 1.55114 0.5 2.83333 0.5H31.1667C32.4489 0.5 33.5 1.55114 33.5 2.83333V19.8333Z" fill="white" stroke="#D0D0D0"/>
<path d="M7 5V17.9375H8.4375V5H7ZM9.875 5V17.9375H14.1875V5H9.875ZM15.625 5V17.9375H17.0625V5H15.625ZM18.5 5V17.9375H21.375V5H18.5ZM22.8125 5V17.9375H24.25V5H22.8125ZM25.6875 5V17.9375H27.125V5H25.6875Z" fill="black"/>
</svg>
