<svg width="35" height="23" viewBox="0 0 35 23" fill="none" xmlns="http://www.w3.org/2000/svg">
<path d="M34.2334 20.7237C34.2334 21.7967 33.3336 22.6666 32.2236 22.6666H2.24318C1.1332 22.6667 0.233398 21.7967 0.233398 20.7237V1.94289C0.233398 0.869825 1.1332 0 2.24318 0H32.2236C33.3337 0 34.2334 0.86989 34.2334 1.94289V20.7237Z" fill="white"/>
<path d="M7.78004 11.4642L6.9817 7.7621C6.84524 7.25157 6.44813 7.09968 5.95194 7.07959H2.29176L2.25916 7.24874C5.10991 7.91681 6.99618 9.52845 7.78004 11.4642Z" fill="#F79F1A"/>
<path d="M16.2605 7.15381H13.8956L12.4186 15.5328H14.7796L16.2605 7.15381Z" fill="#059BBF"/>
<path d="M9.22093 15.5246L12.9403 7.15967H10.4374L8.12364 12.8747L7.87667 12.0118C7.42312 10.9737 6.12687 9.47963 4.6051 8.53906L6.72014 15.5274L9.22093 15.5246Z" fill="#059BBF"/>
<path d="M23.0067 12.7935C23.0155 11.8422 22.3836 11.1167 21.022 10.5174C20.1945 10.1303 19.6902 9.87214 19.6962 9.47934C19.6962 9.13231 20.1233 8.75953 21.0488 8.75953C21.8231 8.74804 22.3807 8.91148 22.8168 9.08069L23.0305 9.17538L23.3509 7.36017C22.8822 7.1909 22.1494 7.01025 21.2329 7.01025C18.8983 7.01025 17.2549 8.14591 17.24 9.77469C17.2252 10.9792 18.4149 11.6502 19.3107 12.0516C20.2302 12.4608 20.5387 12.7226 20.5328 13.0897C20.5269 13.6509 19.8 13.9068 19.1207 13.9068C18.1744 13.9068 17.6731 13.7807 16.8955 13.4676L16.5934 13.3334L16.2615 15.211C16.8128 15.444 17.8332 15.6476 18.8924 15.6561C21.3751 15.6561 22.9889 14.5349 23.0067 12.7935Z" fill="#059BBF"/>
<path d="M25.8151 14.2771C26.085 14.2771 28.4967 14.2799 28.841 14.2799C28.9122 14.5717 29.1287 15.5359 29.1287 15.5359H31.3208L29.4075 7.1626H27.5832C27.0165 7.1626 26.5954 7.31172 26.3462 7.85647L22.8369 15.5359H25.32C25.3198 15.5359 25.7231 14.5037 25.8151 14.2771ZM27.4347 10.2194C27.423 10.2423 27.6306 9.73478 27.7492 9.41933L27.9094 10.1419C27.9094 10.1419 28.3604 12.1436 28.4552 12.5623H26.4944C26.6902 12.0805 27.4347 10.2194 27.4347 10.2194Z" fill="#059BBF"/>
<path d="M32.2236 0H2.24318C1.1332 0 0.233398 0.869826 0.233398 1.94289V3.95934H34.2334V1.94289C34.2334 0.869826 33.3337 0 32.2236 0Z" fill="#059BBF"/>
<path d="M32.2236 22.6669H2.24318C1.1332 22.6669 0.233398 21.797 0.233398 20.724V18.7075H34.2334V20.724C34.2334 21.797 33.3337 22.6669 32.2236 22.6669Z" fill="#F79F1A"/>
</svg>
