<svg width="34" height="23" viewBox="0 0 34 23" fill="none" xmlns="http://www.w3.org/2000/svg">
<path fill-rule="evenodd" clip-rule="evenodd" d="M34 19.8333C34 21.3917 32.725 22.6667 31.1667 22.6667H2.83333C1.275 22.6667 0 21.3917 0 19.8333V2.83333C0 1.275 1.275 0 2.83333 0H31.1667C32.725 0 34 1.275 34 2.83333V19.8333Z" fill="#129AD7"/>
<path d="M9.28314 10.0487L9.95634 11.6008H8.55724L9.28314 10.0487ZM21.6478 12.4803H19.308V11.6393H21.6478V10.8749H19.308V10.187H21.6478V9.53702L23.3835 11.2727L21.6478 13.0163V12.4803ZM24.072 10.6601L22.9251 9.42142H18.322V13.2447H22.7726L24.0346 11.9907L25.3039 13.2447H26.4894L24.6772 11.3101L26.5432 9.42142H25.3045L24.072 10.6601ZM17.442 9.42142H15.8361L14.6279 11.9833L13.328 9.42142H11.7221V13.1302L10.0629 9.42142H8.55668L6.78244 13.2447H7.86818L8.22744 12.3732H10.2918L10.7049 13.2447H12.7007V10.1326L14.1151 13.2447H15.0478L16.4549 10.1858V13.2447H17.4414L17.442 9.42142ZM9.62711 13.222H8.92331H9.62711ZM8.92614 13.1654L8.56518 14.0097H5.33008L7.88348 8.65698H13.9819L14.5973 9.83905L15.1725 8.65698H17.3389H18.4308H23.3943L24.0969 9.39195L24.8517 8.65698H28.6699L25.959 11.3271L28.5526 14.0097H24.858L24.0312 13.2215L23.2112 14.0097H18.4308H17.3389H10.0226L9.62598 13.1654H8.92614Z" fill="white"/>
</svg>
