<svg width="34" height="23" viewBox="0 0 34 23" fill="none" xmlns="http://www.w3.org/2000/svg">
<path fill-rule="evenodd" clip-rule="evenodd" d="M34 19.8333C34 21.3917 32.725 22.6667 31.1667 22.6667H2.83333C1.275 22.6667 0 21.3917 0 19.8333V2.83333C0 1.275 1.275 0 2.83333 0H31.1667C32.725 0 34 1.275 34 2.83333V19.8333Z" fill="white"/>
<path d="M31.1667 0H2.83333C1.275 0 0 1.275 0 2.83333V19.8333C0 21.3917 1.275 22.6667 2.83333 22.6667H31.1667C32.725 22.6667 34 21.3917 34 19.8333V2.83333C34 1.275 32.725 0 31.1667 0ZM31.1667 0.566667C32.4167 0.566667 33.4333 1.58327 33.4333 2.83333V19.8333C33.4333 21.0834 32.4167 22.1 31.1667 22.1H2.83333C1.58327 22.1 0.566667 21.0834 0.566667 19.8333V2.83333C0.566667 1.58327 1.58327 0.566667 2.83333 0.566667H31.1667Z" fill="#D0D0D0"/>
<path fill-rule="evenodd" clip-rule="evenodd" d="M3 17.426H26.9905C27.3926 17.4086 27.7779 17.2527 28.0864 16.9828C28.3948 16.7129 28.6091 16.344 28.6959 15.9336L30.7196 5H6.73557C6.33345 5.01744 5.94815 5.17327 5.63969 5.44321C5.33124 5.71315 5.11694 6.08204 5.0302 6.49241L3 17.426Z" fill="#C1272D"/>
<path d="M5.06268 13.0538C5.22293 12.4478 5.37561 11.7694 5.5207 11.0187C5.66579 10.268 5.79464 9.47034 5.90725 8.62577L6.12001 8.65121C6.16224 8.65121 6.19797 8.65121 6.22558 8.65121C6.25319 8.65121 6.30842 8.65121 6.36039 8.65121C6.41236 8.65121 6.48058 8.63764 6.56503 8.62577C6.47191 8.93669 6.37771 9.33692 6.28243 9.82648L6.26781 9.89601L6.146 10.5201L6.51793 10.532C6.872 10.5405 7.10588 10.5456 7.21957 10.5456C7.45237 10.5456 7.83134 10.5382 8.35648 10.5235H8.46368L8.60498 9.81122C8.65695 9.53874 8.69431 9.31601 8.71705 9.14302C8.73979 8.97343 8.75765 8.80384 8.77065 8.63425C8.85185 8.64781 8.91844 8.6546 8.96717 8.65969C9.01589 8.66477 9.06299 8.65969 9.1036 8.65969H9.21567L9.4333 8.63425C9.21675 9.48673 9.03593 10.2946 8.89083 11.0577C8.74574 11.8209 8.64613 12.4862 8.59199 13.0538L8.3776 13.0267H8.2834C8.24442 13.0267 8.19894 13.0267 8.14534 13.0267C8.09175 13.0267 8.02191 13.0386 7.93258 13.0521C8.00891 12.7553 8.07226 12.4908 8.12585 12.2618C8.17945 12.0329 8.22005 11.8497 8.24767 11.7106L8.41008 10.8627H7.76042H7.27317H6.6836H6.08591L5.94298 11.5818C5.904 11.7971 5.86664 12.0261 5.82766 12.2703C5.78868 12.5145 5.75458 12.7791 5.71722 13.0606L5.52557 13.0369C5.48229 13.0346 5.43892 13.0346 5.39564 13.0369C5.3599 13.0369 5.31714 13.0369 5.26733 13.0369C5.21698 13.0369 5.15039 13.0487 5.06268 13.0623V13.0538ZM10.005 8.81401C10.0029 8.77179 10.0093 8.72957 10.0238 8.6901C10.0384 8.65063 10.0607 8.61479 10.0893 8.58489C10.1179 8.55499 10.1523 8.5317 10.1901 8.51654C10.2279 8.50138 10.2683 8.49468 10.3087 8.49688C10.3485 8.49441 10.3884 8.50051 10.4258 8.51481C10.4633 8.5291 10.4975 8.55129 10.5264 8.57998C10.5534 8.61172 10.574 8.64877 10.5871 8.68896C10.6003 8.72914 10.6055 8.77166 10.6027 8.81401C10.6038 8.856 10.5968 8.8978 10.582 8.93686C10.5672 8.97592 10.545 9.01144 10.5166 9.04127C10.4891 9.07153 10.4558 9.09546 10.4188 9.11152C10.3819 9.12758 10.3422 9.13542 10.3022 9.13454C10.2626 9.13572 10.2232 9.12817 10.1865 9.11239C10.1499 9.09661 10.1168 9.07296 10.0895 9.04296C10.0614 9.01268 10.0394 8.9768 10.0249 8.93747C10.0104 8.89813 10.0036 8.85614 10.005 8.81401ZM9.30337 13.0538C9.47012 12.3834 9.59951 11.7791 9.69155 11.2409C9.77092 10.815 9.82086 10.3837 9.84097 9.95028C9.90106 9.95876 9.95628 9.96385 10.0034 9.96894C10.0505 9.97402 10.1041 9.96894 10.1528 9.96894C10.2015 9.96894 10.2551 9.96894 10.3152 9.96894C10.3753 9.96894 10.4257 9.95876 10.4776 9.95028C10.3174 10.5642 10.1918 11.1352 10.1008 11.6632C10.0181 12.1226 9.96382 12.5871 9.93842 13.0538C9.84747 13.0403 9.776 13.0335 9.73215 13.0284C9.6883 13.0233 9.64607 13.0284 9.61196 13.0284H9.50314C9.45767 13.0284 9.39108 13.0403 9.30175 13.0538H9.30337ZM11.9897 12.7621C12.1449 12.7567 12.2961 12.7094 12.4285 12.6246C12.5609 12.5399 12.6699 12.4207 12.745 12.2788C12.9592 11.9205 13.0661 11.5036 13.0519 11.0815C13.0674 10.8494 13.0073 10.6187 12.8814 10.4268C12.8241 10.3498 12.75 10.2881 12.6652 10.2471C12.5805 10.2061 12.4875 10.1869 12.3942 10.1911C12.2337 10.1948 12.0769 10.2419 11.9391 10.3278C11.8014 10.4137 11.6873 10.5355 11.6081 10.6812C11.3887 11.0382 11.2788 11.4564 11.293 11.8802C11.2767 12.1147 11.3387 12.3478 11.4684 12.54C11.5331 12.6164 11.6138 12.6761 11.7042 12.7147C11.7946 12.7532 11.8923 12.7694 11.9897 12.7621ZM10.1366 14.8227C10.3217 14.1443 10.4944 13.3913 10.6547 12.5637C10.8149 11.7361 10.9595 10.8644 11.0883 9.94859L11.2329 9.96215H11.3449H11.4668L11.6292 9.94859L11.5171 10.4014C11.6524 10.2354 11.818 10.0994 12.0044 10.0012C12.1771 9.91244 12.3673 9.86714 12.5598 9.86888C12.7076 9.86184 12.8551 9.88941 12.9914 9.94956C13.1277 10.0097 13.2494 10.1009 13.3475 10.2165C13.5524 10.4827 13.6559 10.8185 13.6383 11.1595C13.6555 11.6714 13.4912 12.172 13.177 12.5654C13.0369 12.7443 12.8597 12.8876 12.6588 12.9845C12.4579 13.0815 12.2386 13.1295 12.0173 13.125C11.8275 13.1256 11.6428 13.0599 11.4927 12.9385C11.3379 12.8162 11.2241 12.6458 11.1679 12.4518L11.0347 13.1759C11.0347 13.2166 11.0152 13.2794 10.999 13.3625C10.8907 13.9493 10.8063 14.4354 10.7456 14.821L10.5832 14.7921C10.5494 14.7863 10.5152 14.7829 10.4809 14.782C10.4326 14.7825 10.3843 14.7859 10.3363 14.7921C10.2827 14.7921 10.221 14.8074 10.1561 14.821L10.1366 14.8227ZM14.3919 11.1985H14.629H15.1016H15.623H15.8569C15.8569 11.1289 15.8682 11.0696 15.8715 11.0289C15.8747 10.9882 15.8715 10.939 15.8715 10.9017C15.8826 10.699 15.8295 10.4982 15.7204 10.3302C15.6719 10.2628 15.6083 10.2088 15.5353 10.1728C15.4624 10.1367 15.3821 10.1198 15.3014 10.1233C15.1928 10.1252 15.0859 10.1521 14.9885 10.2023C14.891 10.2524 14.8054 10.3245 14.7378 10.4133C14.5584 10.6417 14.4382 10.9144 14.3886 11.2053L14.3919 11.1985ZM14.335 11.4715C14.335 11.5411 14.322 11.6106 14.3172 11.6784C14.3123 11.7463 14.3172 11.8141 14.3172 11.8785C14.3016 12.1313 14.3769 12.3811 14.5283 12.579C14.6059 12.6633 14.7001 12.729 14.8044 12.7714C14.9088 12.8139 15.0207 12.8321 15.1325 12.8249C15.2973 12.8246 15.4597 12.784 15.6067 12.7062C15.784 12.6071 15.9451 12.4795 16.0842 12.328L16.159 12.3924C16.1283 12.4575 16.1012 12.5243 16.0778 12.5925C16.0518 12.6621 16.0307 12.7367 16.0112 12.8113C15.8595 12.916 15.6958 13.0003 15.5239 13.0623C15.3608 13.1173 15.1901 13.1437 15.0188 13.1403C14.8448 13.1491 14.6709 13.1203 14.508 13.0559C14.3451 12.9914 14.1966 12.8925 14.0719 12.7655C13.9524 12.6312 13.8596 12.4735 13.7991 12.3014C13.7386 12.1293 13.7115 11.9464 13.7195 11.7632C13.7037 11.2676 13.8659 10.7837 14.1742 10.4065C14.3144 10.2317 14.4903 10.0919 14.689 9.99741C14.8877 9.90291 15.1042 9.85609 15.3225 9.8604C15.4708 9.85281 15.619 9.87925 15.7565 9.93785C15.8939 9.99645 16.0175 10.0858 16.1184 10.1996C16.3223 10.4608 16.4249 10.7925 16.4058 11.1289C16.4058 11.151 16.4058 11.19 16.4058 11.2511C16.4058 11.3121 16.3961 11.385 16.3912 11.4715H16.2532C15.8016 11.463 15.4817 11.458 15.2933 11.458H14.9067L14.335 11.4664V11.4715ZM16.4075 13.0521C16.5547 12.4552 16.6733 11.8899 16.7631 11.3562C16.8444 10.891 16.9024 10.4218 16.9369 9.95028C16.9922 9.95876 17.0425 9.96385 17.0864 9.96894C17.1302 9.97402 17.1708 9.96894 17.2033 9.96894C17.2358 9.96894 17.2926 9.96894 17.3397 9.96894C17.3868 9.96894 17.4356 9.95876 17.4875 9.95028C17.4565 10.047 17.431 10.1455 17.4112 10.2454C17.3901 10.3471 17.3722 10.4557 17.3592 10.5676C17.4728 10.3723 17.6191 10.2 17.7912 10.0588C17.9172 9.95065 18.0734 9.88816 18.2363 9.88075C18.2628 9.87866 18.2894 9.87866 18.3158 9.88075C18.3443 9.88523 18.3725 9.89146 18.4003 9.8994C18.3749 9.98845 18.3548 10.0791 18.3402 10.1708C18.3271 10.2601 18.3184 10.3501 18.3142 10.4404L18.1518 10.4065C18.1121 10.3998 18.0719 10.3964 18.0316 10.3963C17.7533 10.3963 17.54 10.58 17.3917 10.9475C17.2434 11.3149 17.1129 12.017 17.0003 13.0538L16.8232 13.0318C16.7801 13.0266 16.7367 13.0238 16.6933 13.0233H16.6024L16.4075 13.0487V13.0521ZM20.4256 12.8825C20.2859 12.9671 20.1363 13.0327 19.9806 13.0776C19.8265 13.1208 19.6676 13.1425 19.508 13.142C19.3348 13.1496 19.1619 13.1199 19.0002 13.0549C18.8384 12.9898 18.6912 12.8908 18.5676 12.7638C18.4464 12.6315 18.3522 12.4749 18.2905 12.3035C18.2288 12.1322 18.201 11.9495 18.2087 11.7666C18.1958 11.2726 18.3663 10.7926 18.6845 10.4268C18.8337 10.251 19.0177 10.1111 19.2239 10.0171C19.4301 9.92311 19.6534 9.87715 19.8783 9.88244C20.0658 9.88037 20.2529 9.902 20.4354 9.94689C20.597 9.9878 20.7519 10.0535 20.895 10.1419C20.8534 10.228 20.8176 10.3169 20.7878 10.4082C20.7584 10.4969 20.7345 10.5876 20.7164 10.6795H20.6254C20.5661 10.5195 20.4669 10.3789 20.3379 10.2725C20.2181 10.1771 20.0712 10.1263 19.9205 10.1284C19.7569 10.1318 19.5968 10.1781 19.4548 10.2632C19.3129 10.3483 19.1938 10.4693 19.1084 10.6151C18.883 10.9652 18.7694 11.3807 18.7836 11.8022C18.7665 12.0727 18.8419 12.3407 18.9964 12.5586C19.0716 12.6481 19.1655 12.7185 19.2708 12.7643C19.376 12.8102 19.4899 12.8303 19.6038 12.8232C19.7767 12.8244 19.9477 12.785 20.104 12.7078C20.2558 12.6351 20.3876 12.5237 20.4874 12.3839L20.5734 12.4569C20.5442 12.5224 20.5166 12.5903 20.4906 12.6604C20.4662 12.7316 20.4451 12.8028 20.4273 12.8774L20.4256 12.8825ZM22.2999 12.6315C22.1818 12.7823 22.0374 12.9083 21.8744 13.0029C21.7295 13.0819 21.5684 13.1226 21.405 13.1217C21.3039 13.1277 21.2026 13.1128 21.107 13.0779C21.0114 13.0429 20.9234 12.9887 20.8479 12.9181C20.7788 12.8463 20.7248 12.7602 20.6896 12.6652C20.6543 12.5703 20.6385 12.4687 20.6433 12.367C20.6357 12.2379 20.6566 12.1088 20.7041 11.9895C20.7517 11.8702 20.8248 11.7638 20.9178 11.6784C21.1018 11.5145 21.4267 11.385 21.8923 11.2901L22.4022 11.1849C22.4417 11.1763 22.4784 11.1575 22.509 11.1303C22.5397 11.103 22.5633 11.0682 22.5776 11.0289C22.6211 10.907 22.6405 10.7772 22.6345 10.6473C22.6382 10.5753 22.6273 10.5033 22.6024 10.436C22.5775 10.3688 22.5391 10.3079 22.4899 10.2572C22.4385 10.209 22.3785 10.1719 22.3133 10.148C22.248 10.1241 22.1789 10.114 22.1099 10.1182C21.9389 10.1145 21.7703 10.1603 21.6226 10.2505C21.4823 10.3404 21.3695 10.4705 21.2978 10.6253L21.1906 10.5964C21.2061 10.5362 21.218 10.475 21.2263 10.4133C21.2339 10.3571 21.2377 10.3004 21.2377 10.2437C21.2377 10.2324 21.2377 10.2148 21.2377 10.1911C21.2377 10.1657 21.2377 10.147 21.2377 10.1334C21.3782 10.0406 21.5301 9.96811 21.6892 9.91806C21.8479 9.87211 22.0118 9.84928 22.1765 9.85022C22.4224 9.83335 22.6663 9.90586 22.8667 10.0554C22.9476 10.1271 23.0113 10.2175 23.053 10.3193C23.0948 10.4211 23.1133 10.5317 23.1071 10.6422C23.106 10.7336 23.0995 10.8248 23.0876 10.9153C23.0746 11.0283 23.0562 11.1448 23.0324 11.2646L22.8261 12.3636C22.8164 12.4128 22.8083 12.4569 22.8034 12.5009C22.7985 12.545 22.8034 12.584 22.8034 12.6197C22.8019 12.6452 22.8054 12.6708 22.8134 12.695C22.8215 12.7191 22.8341 12.7414 22.8505 12.7604C22.8683 12.7779 22.8892 12.7914 22.9121 12.8001C22.935 12.8089 22.9593 12.8127 22.9837 12.8113C23.0094 12.8108 23.035 12.8074 23.06 12.8011C23.1001 12.792 23.1397 12.7806 23.1786 12.7672L23.2565 12.9368C23.1703 12.9895 23.0788 13.0321 22.9837 13.064C22.9005 13.0906 22.8141 13.1043 22.7271 13.1047C22.6703 13.108 22.6135 13.0985 22.5605 13.0769C22.5075 13.0552 22.4596 13.0219 22.4201 12.9792C22.341 12.8785 22.2989 12.7516 22.3015 12.6214L22.2999 12.6315ZM22.4899 11.4088L21.9913 11.5326C21.7612 11.5744 21.5439 11.6733 21.3579 11.8209C21.2932 11.8797 21.2419 11.9529 21.2076 12.035C21.1733 12.1171 21.157 12.2062 21.1598 12.2957C21.1545 12.4236 21.1977 12.5485 21.2799 12.6434C21.3208 12.6876 21.3701 12.7222 21.4247 12.745C21.4793 12.7678 21.5379 12.7783 21.5967 12.7757C21.7761 12.7716 21.9485 12.702 22.0839 12.579C22.2261 12.4686 22.3244 12.3074 22.36 12.1261L22.4883 11.4071L22.4899 11.4088ZM23.3345 13.0538C23.4818 12.4569 23.6003 11.8915 23.6902 11.3579C23.7714 10.8927 23.8294 10.4234 23.864 9.95198C23.9192 9.96046 23.9696 9.96554 24.0134 9.97063C24.0573 9.97572 24.0979 9.97063 24.1304 9.97063C24.1628 9.97063 24.2197 9.97063 24.2668 9.97063C24.3139 9.97063 24.3626 9.96046 24.4146 9.95198C24.3835 10.0487 24.358 10.1472 24.3382 10.2471C24.3171 10.3488 24.2993 10.4574 24.2863 10.5693C24.3999 10.374 24.5462 10.2016 24.7183 10.0605C24.8442 9.95235 25.0004 9.88985 25.1633 9.88244C25.1898 9.88036 25.2164 9.88036 25.2429 9.88244C25.2714 9.88692 25.2996 9.89315 25.3274 9.9011C25.3019 9.99014 25.2818 10.0808 25.2673 10.1724C25.2542 10.2618 25.2455 10.3518 25.2413 10.4421L25.0789 10.4082C25.0391 10.4014 24.9989 10.398 24.9587 10.398C24.6804 10.398 24.4671 10.5817 24.3188 10.9492C24.1704 11.3166 24.0426 12.0148 23.9354 13.0436L23.7584 13.0216C23.7153 13.0164 23.6719 13.0136 23.6285 13.0131H23.5375L23.3426 13.0386L23.3345 13.0538ZM27.2715 12.601C27.1291 12.7654 26.9589 12.901 26.7696 13.0012C26.5936 13.0863 26.4016 13.1292 26.2077 13.1267C26.0636 13.1319 25.9202 13.1025 25.7887 13.0408C25.6572 12.9791 25.5411 12.8866 25.4492 12.7706C25.2469 12.5012 25.1448 12.1645 25.1617 11.8226C25.1457 11.3161 25.3074 10.821 25.6165 10.4302C25.7525 10.2525 25.9257 10.1097 26.1228 10.0127C26.3198 9.91572 26.5355 9.86709 26.7534 9.87057C26.9508 9.86603 27.1442 9.92917 27.304 10.0503C27.4644 10.1738 27.5833 10.3471 27.6434 10.5456L27.7831 9.82818C27.8448 9.50765 27.8984 9.21425 27.9455 8.94969C27.9926 8.68512 28.03 8.44091 28.0641 8.195C28.1388 8.21027 28.1956 8.22044 28.2379 8.22553C28.2719 8.22763 28.3061 8.22763 28.3402 8.22553C28.3874 8.22488 28.4346 8.22148 28.4815 8.21535C28.5351 8.21535 28.5968 8.20009 28.6618 8.18652C28.4539 8.97795 28.2703 9.78012 28.1112 10.593C27.952 11.4059 27.8188 12.2239 27.7116 13.047L27.5671 13.0318H27.4518H27.3267L27.1643 13.047L27.2764 12.5942L27.2715 12.601ZM26.8086 10.2403C26.6508 10.2436 26.4966 10.2899 26.3612 10.3747C26.2259 10.4595 26.1142 10.5798 26.0371 10.7236C25.8218 11.0858 25.715 11.5068 25.7301 11.9328C25.7135 12.1606 25.7707 12.3876 25.8926 12.5773C25.9519 12.6533 26.0279 12.7133 26.1141 12.7523C26.2003 12.7912 26.2942 12.808 26.3879 12.8011C26.5493 12.7995 26.7076 12.7542 26.8471 12.6694C26.9866 12.5847 27.1027 12.4635 27.1838 12.3178C27.402 11.9555 27.5107 11.5329 27.4956 11.1052C27.5107 10.8775 27.448 10.6515 27.3186 10.4675C27.2552 10.3928 27.1763 10.3341 27.0879 10.2959C26.9996 10.2577 26.904 10.241 26.8086 10.2471V10.2403Z" fill="white"/>
</svg>
