<svg width="34" height="23" viewBox="0 0 34 23" fill="none" xmlns="http://www.w3.org/2000/svg">
<path fill-rule="evenodd" clip-rule="evenodd" d="M34 19.8333C34 21.3917 32.725 22.6667 31.1667 22.6667H2.83333C1.275 22.6667 0 21.3917 0 19.8333V2.83333C0 1.275 1.275 0 2.83333 0H31.1667C32.725 0 34 1.275 34 2.83333V19.8333Z" fill="black"/>
<path d="M27.9423 12.2555C27.795 12.9768 27.1569 13.5197 26.3925 13.5197C26.2219 13.5197 26.0525 13.4925 25.8904 13.4381L25.5391 14.4876C25.8139 14.5794 26.1024 14.6264 26.3925 14.6258C27.6919 14.6258 28.7765 13.7033 29.0269 12.477L27.9423 12.2555ZM24.6115 13.9521L25.3442 13.123C25.0166 12.8335 24.8109 12.4102 24.8109 11.9381C24.8109 11.4667 25.0172 11.0439 25.3442 10.7544L24.6109 9.92534C24.055 10.4178 23.7042 11.1374 23.7042 11.9381C23.7037 12.7394 24.055 13.4596 24.6115 13.9521ZM25.891 10.4382C26.0485 10.3855 26.2168 10.3571 26.3925 10.3571C27.1575 10.3571 27.7961 10.9006 27.9423 11.6231L29.0269 11.4021C28.7782 10.1747 27.693 9.25101 26.3925 9.25101C26.1029 9.25044 25.8151 9.29747 25.5408 9.38871C25.5402 9.38814 25.891 10.4382 25.891 10.4382ZM22.6446 8.04004V13.2296L23.545 13.603L23.1189 14.6264L22.2281 14.2564C22.028 14.1697 21.8926 14.0371 21.7895 13.888C21.6909 13.735 21.6172 13.5259 21.6172 13.2443V8.04061L22.6446 8.04004ZM18.5419 9.25157C17.0589 9.22891 15.8372 10.4138 15.8145 11.8973C15.806 12.4538 15.9664 12.9734 16.2492 13.4058L21.1168 11.325C20.8431 10.1526 19.8005 9.27084 18.5419 9.25157ZM16.9292 12.1053C16.9224 12.043 16.9178 11.9795 16.9195 11.9149C16.9337 11.0405 17.6528 10.343 18.5266 10.3571C19.002 10.3634 19.4242 10.5815 19.7098 10.9181L16.9292 12.1053ZM19.6072 13.0686C19.3137 13.3542 18.9159 13.5276 18.4767 13.5214C18.1758 13.5163 17.8965 13.4262 17.6596 13.276L17.0714 14.2133C17.4873 14.4768 17.9684 14.6196 18.4609 14.6264C19.206 14.6377 19.8855 14.3448 20.379 13.8614L19.6072 13.0686Z" fill="white"/>
<path fill-rule="evenodd" clip-rule="evenodd" d="M11.9156 11.8535C11.6748 13.0356 10.6299 13.9247 9.37697 13.9247C9.0976 13.9247 8.81994 13.8799 8.55474 13.7915L7.979 15.5113C8.4295 15.6621 8.90154 15.7386 9.37697 15.738C11.5065 15.738 13.283 14.2267 13.6921 12.2179L11.9156 11.8535Z" fill="#ED412F"/>
<path fill-rule="evenodd" clip-rule="evenodd" d="M6.45911 14.6317L7.66044 13.2734C7.12438 12.7986 6.78608 12.1055 6.78608 11.3326C6.78608 10.5602 7.12438 9.86719 7.66044 9.39289L6.45854 8.03516C5.54791 8.84209 4.97388 10.0202 4.97388 11.3332C4.97331 12.6461 5.54791 13.8248 6.45911 14.6317Z" fill="#1AA5DF"/>
<path fill-rule="evenodd" clip-rule="evenodd" d="M8.55519 8.87514C8.81982 8.78674 9.09749 8.74197 9.37686 8.74197C10.6309 8.74197 11.6764 9.63277 11.9167 10.8154L13.6932 10.4533C13.2857 8.44277 11.5081 6.9292 9.37686 6.9292C8.90256 6.92864 8.43109 7.00514 7.98059 7.1553L8.55519 8.87514Z" fill="#FFCA32"/>
</svg>
