<svg xmlns="http://www.w3.org/2000/svg" width="35" xmlns:xlink="http://www.w3.org/1999/xlink" version="1.1" id="footer-diners" x="0px" y="0px" viewBox="0 0 200 153" style="enable-background:new 0 0 200 153;" xml:space="preserve" height="34">
<style type="text/css">
    .footer-diners0{fill:#001D7E;}
    .footer-diners1{fill:#FFFFFF;}
</style>
<g>
    <path class="footer-diners0" d="M129,80.4c22,0,40.1-18,40.1-40.1c0-22-18-40.1-40.1-40.1H77.3c-22.1,0-40.1,18-40.1,40.1s18,40.1,40.1,40.1    H129z"></path>
    <path class="footer-diners1" d="M77.3,1.5c21.4,0,38.8,17.4,38.8,38.8S98.6,79.1,77.3,79.1S38.5,61.7,38.5,40.3S55.8,1.5,77.3,1.5L77.3,1.5z     M85,16.2v48.2c10.2-3.3,17.6-12.9,17.6-24.1C102.6,29.1,95.2,19.5,85,16.2L85,16.2z M70,64.6V16c-10.4,3.1-18.1,12.8-18.1,24.3    C51.9,51.8,59.6,61.5,70,64.6z"></path>
    <path d="M59.6,135.7l5.5-1.1c0.2,0,0.4,0.1,0.3,0.4l-1.8,6.8c2.2-3.7,2.7-4.4,4.1-5.9c0.7-0.8,1.7-1.2,2.3-1.1    c1.7,0.1,1.5,2.6,0.8,3.3c-0.4,0.4-0.9,0.9-1.5,0.9c-0.3,0-0.5-0.1-0.7-0.2c-0.3-0.2-0.4-0.3-0.5-0.7c-0.1-0.3-0.1-0.3-0.1-0.4    c-0.1-0.3-0.3-0.1-0.3-0.1c-0.3,0.3-0.7,0.7-1.3,1.5c-0.9,1.3-1.8,2.8-2.7,4.9c-0.4,1-0.8,1.9-1.1,2.9c-0.4,1.5-0.7,2.3-0.8,2.7    l-0.5,2.4h-3l3.2-12c0.3-1.4,0.3-2.1,0.3-2.7c0-0.3-0.1-0.4-0.3-0.6c-0.3-0.2-0.5-0.3-0.9-0.3c-0.3,0-0.5-0.3-1.1-0.1L59.6,135.7z"></path>
    <path d="M41.9,130l-1.3,4.9h2.9l-0.3,1.3h-2.9l-2.9,11.4c-0.3,1.2-0.3,1.5-0.3,1.9c0,0.2,0.1,0.4,0.1,0.5c0.1,0.1,0.2,0.2,0.3,0.2    c0.3,0,0.6-0.3,1.1-0.7c0.3-0.3,0.7-0.6,1.6-1.9l0.6,0.5c-1.1,1.7-2,2.9-2.9,3.6c-0.6,0.5-1.6,0.7-2.2,0.7c-0.5,0-0.9-0.2-1.2-0.5    c-0.3-0.4-0.5-0.8-0.5-1.3c0-0.7,0.2-1.8,0.5-3.2l2.8-11.1h-2.4l0.1-0.8c1.3-0.4,2.5-0.9,3.3-1.7c0.8-0.8,1.7-1.8,2.7-3.7L41.9,130    L41.9,130z"></path>
    <path d="M116.2,130.3l-1.3,4.9h2.9l-0.3,1.2h-2.9l-2.9,11.4c-0.3,1.2-0.3,1.6-0.3,1.9c0,0.3,0.1,0.4,0.1,0.5    c0.1,0.1,0.2,0.1,0.3,0.1c0.3,0,0.7-0.3,1.1-0.7c0.3-0.3,0.7-0.6,1.6-1.9l0.6,0.5c-1.1,1.7-2,2.9-2.9,3.7c-0.6,0.5-1.6,0.7-2.2,0.7    c-0.5,0-0.9-0.1-1.3-0.5c-0.3-0.3-0.4-0.8-0.4-1.3c0-0.7,0.1-1.7,0.5-3.2l2.8-11.1l-2.5-0.1l0.2-0.8c1.3-0.4,2.5-0.9,3.3-1.7    c0.9-0.8,1.7-1.8,2.7-3.7h0.7V130.3z"></path>
    <path d="M10.3,151.2l-0.2,0.7H0l0.3-0.7c0.9-0.1,1.5-0.1,1.8-0.3c0.5-0.3,0.9-0.5,1.1-0.9c0.4-0.6,0.8-1.7,1.1-3.2l4-15.7    c0.3-1.3,0.5-2.3,0.5-3c0-0.3-0.1-0.6-0.2-0.8c-0.2-0.3-0.4-0.4-0.7-0.5c-0.3-0.1-0.9-0.2-1.8-0.2l0.3-0.7l9.9,0.1l-0.2,0.7    c-0.7-0.1-1.5,0.1-1.9,0.2c-0.5,0.3-0.9,0.6-1.1,1.1c-0.3,0.5-0.6,1.5-1.1,3.2l-4,15.7c-0.4,1.5-0.6,2.3-0.6,2.8    c0,0.3,0.1,0.6,0.3,0.8c0.1,0.2,0.3,0.4,0.7,0.5C8.6,151,9.3,151.2,10.3,151.2z"></path>
    <path d="M186.5,147.6c-0.1,0.3-1.4,4.1,0.9,2.5c0.6-0.4,1.5-1.2,2.1-2.3l0.5,0.6c-1.1,1.7-2.2,2.7-3.1,3.4    c-1.2,0.9-3.6,1.2-3.9-0.9c-0.1-0.5,0-1.6,0.4-3l4.7-17.8c0.3-1.3,0.6-3.1-0.9-3.3c-0.3-0.1-0.5-0.1-1.1-0.1l0.1-0.7l5.6-0.9    c0.3-0.1,0.5,0.1,0.4,0.4L186.5,147.6z"></path>
    <path d="M124.4,126.4c0.5,0,0.9,0.2,1.3,0.6c0.3,0.3,0.5,0.8,0.5,1.3c0,0.5-0.1,0.9-0.5,1.3c-0.3,0.3-0.8,0.5-1.3,0.5    c-0.5,0-0.9-0.2-1.3-0.5c-0.3-0.4-0.5-0.8-0.5-1.3c0-0.5,0.1-0.9,0.5-1.3C123.5,126.7,123.9,126.4,124.4,126.4z"></path>
    <path d="M45,93.7c0.5,0,0.9,0.2,1.3,0.6c0.3,0.4,0.5,0.8,0.5,1.4c0,0.5-0.2,1-0.6,1.4c-0.3,0.4-0.8,0.6-1.3,0.6    c-0.5,0-0.9-0.2-1.3-0.6c-0.4-0.4-0.5-0.9-0.5-1.4c0-0.6,0.1-1,0.5-1.4C44.1,93.9,44.5,93.7,45,93.7z"></path>
    <path d="M124.9,134.9l-3.7,13.2c-0.6,2.1,0.1,3.2,1.6,1.8c0.7-0.6,1.5-1.5,1.9-2.2l0.6,0.4c-0.8,1.4-3.3,4.7-5.7,4.6    c-0.5-0.1-0.8-0.1-1.1-0.5c-0.3-0.3-0.5-0.7-0.5-1.1c0-0.4-0.1-1.5,0.3-2.5l2.3-8.3l0.5-2.1c0.2-0.9-0.2-1.7-1-1.7    c-0.4,0-0.6,0-1.1,0.1l0.1-0.8l5.6-1.3C124.9,134.4,125.1,134.5,124.9,134.9z"></path>
    <path d="M45.6,102.9l-3.8,13.8c-0.6,2.2,0.1,3.3,1.7,1.9c0.8-0.7,1.5-1.6,1.9-2.4l0.6,0.5c-0.8,1.5-3.1,5.1-5.8,4.9    c-0.5,0-0.9-0.2-1.2-0.6c-0.3-0.3-0.4-0.7-0.5-1.2c-0.1-0.4,0-1.5,0.3-2.7l2.3-8.8l0.5-2.1c0.3-0.9-0.2-1.9-1.1-2    c-0.4-0.1-0.6,0-1.2,0.1l0.1-0.8l5.9-1.1C45.6,102.4,45.7,102.6,45.6,102.9z"></path>
    <path d="M55.2,103.1l-2.2,8.1c1.2-2.5,6.5-9.3,9.9-8.5c2.2,0.6,1.3,4.5,0.9,5.9l-2.3,8.3c-0.7,2.7,0.5,2.6,1.1,2.1    c0.8-0.7,1.9-2.5,2.2-3.1l0.5,0.4c-0.7,1.7-3,5.9-5.7,5.5c-0.4-0.1-0.7-0.3-1-0.5c-0.3-0.3-0.4-0.7-0.4-1.2c0-0.6,0.3-1.8,0.6-3.3    l2.1-8.2c0.4-1.5,0.6-3.2-0.4-3.3c-4.4,0.2-8,8.7-9.2,12.8l-0.9,3.3h-2.9l3.5-12.8l0.5-2.5c0.3-1.2-0.7-1.7-1.6-1.6l-0.8,0.1    l0.1-0.8c1.8-0.3,3.9-0.8,5.7-1.1C55,102.7,55.2,102.7,55.2,103.1z"></path>
    <path d="M21.7,134.9l-2,6.9c1.1-2.5,5.9-8.5,9.3-7.6c2.1,0.5,1.3,4.3,1,5.7l-2.2,8c-0.7,2.6,0.6,2.3,1,1.9c0.9-0.8,2-2.3,2.3-2.9    l0.5,0.4c-0.7,1.6-3.2,5.6-5.8,5.2c-0.4-0.1-0.7-0.1-1-0.4c-0.3-0.3-0.3-0.7-0.4-1.2c0-0.8,0.1-1.7,0.5-3.2l2.1-7.8    c0.3-0.9,0.7-3.2-0.3-3.2c-4.3,0.5-8.1,8.7-9,12.2l-0.9,3.3l-2.8-0.1l3.3-12.2l0.5-2.1c0.3-1.1-0.7-1.5-1.6-1.5h-0.7l0.1-0.7    c1.7-0.3,4-0.7,5.7-0.9C21.5,134.5,21.8,134.5,21.7,134.9z"></path>
    <path d="M78,134.9l-2.1,6.9c1.1-2.5,5.9-8.5,9.3-7.6c2.1,0.5,1.4,4.3,1,5.7l-2.2,8c-0.7,2.6,0.6,2.3,1.1,1.9    c0.8-0.8,1.9-2.3,2.2-2.8l0.5,0.3c-0.7,1.7-3,5.5-5.7,5.2c-0.4-0.1-0.8-0.1-1-0.4c-0.3-0.3-0.4-0.7-0.4-1.2    c-0.1-0.8,0.1-1.7,0.5-3.2l2.1-7.8c0.3-0.9,0.4-3-0.5-3c-4.3,0.5-7.9,8.5-8.8,12l-0.9,3.3l-2.8-0.1l3.3-12.2l0.5-2.1    c0.3-1.1-0.7-1.5-1.6-1.5h-0.7l0.1-0.7c1.8-0.3,4-0.7,5.7-0.9C77.8,134.5,78.1,134.5,78,134.9z"></path>
    <path d="M153.1,134.6l-2.1,6.9c1.1-2.5,5.9-8.5,9.3-7.6c2.1,0.5,1.4,4.3,1,5.7l-2.2,8c-0.7,2.6,0.6,2.3,1.1,1.9    c0.8-0.7,1.9-2.3,2.2-2.8l0.5,0.4c-0.7,1.6-3,5.5-5.7,5.1c-0.4-0.1-0.8-0.1-1-0.4c-0.3-0.3-0.4-0.7-0.4-1.2    c-0.1-0.8,0.1-1.6,0.5-3.2l2.1-7.9c0.2-0.9,0.4-2.9-0.6-2.9c-4.3,0.5-7.9,8.5-8.8,12l-0.9,3.2l-2.8-0.1l3.3-12.2l0.5-2.1    c0.3-1.2-0.7-1.5-1.6-1.5h-0.6l0.1-0.7c1.8-0.3,4-0.7,5.7-1C152.9,134.2,153.1,134.3,153.1,134.6z"></path>
    <path d="M83.8,103.9c1.9-0.3,3.9-0.8,5.7-1.3c0.3-0.1,0.5,0.1,0.5,0.4l-1.9,7.3c0.8-1.8,2.9-5.7,5-7.1c1.5-1.1,3.2,0.1,2.8,2.1    c-0.4,1.8-2.7,3.3-3.7,0.5c-3.1,3-5.5,9.9-6.3,12.9l-0.6,2.6h-2.7l3.3-12.8c0.4-1.6,1.1-4.1-2-3.9L83.8,103.9z"></path>
    <path d="M107,102.8l-0.7,6.1h-0.7c-0.1-2.1-0.7-5.1-3.4-5.1c-2.1,0-2.5,2.3-1.9,3.5c0.3,0.4,0.7,1.1,1.1,1.9    c1.3,2.1,2.3,3.7,2.8,4.7c1.8,3.5-0.7,8-4.9,8.1c-1.5,0-2.9-0.5-3.9-0.9c-0.4-0.1-0.7,0.1-1,0.8h-0.7l0.8-6.6h0.7    c0.1,2.5,0.9,5.6,3.9,5.6c3.1-0.6,3.1-3.9,1.3-6.6l-2.5-3.9c-1.3-1.8-1.3-4.9,0.1-6.3c2.7-2.7,5.1-1.3,7.3-0.6    c0.3,0.1,0.8-0.2,0.8-0.8L107,102.8L107,102.8z"></path>
    <path d="M139.8,93.3l-1.5,8.2h-0.8c-0.1-3.7-0.3-7.2-5.4-7.3c-2.1-0.1-4.2,1.1-5.7,2.5c-3.7,3.9-5.7,9.3-5.7,14.6    c0,2.7,0.7,4.8,2.1,6.4c4.3,5,10.4,1.7,13.3-2.7l0.7,0.8c-2.3,3.5-5.7,6.1-10.4,6.1c-2-0.1-3.7-0.5-5.3-1.5c-1.5-0.9-2.7-2.3-3.5-4    s-1.2-3.5-1.2-5.6c0-3,0.9-5.9,2.3-8.8c2.3-4.6,7.3-9.1,13.2-9.2c4-0.1,4.5,1.1,5.7,1.3c0.5,0.1,1.1-0.3,1.5-0.9h0.7V93.3z"></path>
    <path d="M149,92.8l-6,23.9c-1.1,4.2,1.6,2.7,3.3-0.3l0.6,0.6c-2,3.5-5.1,5.7-6.7,4.3c-0.6-0.6-0.8-1.8-0.1-4.2l4.9-19.2    c0.6-2.5,1.1-4.1-2-3.9v-0.8c1.8-0.3,3.7-0.7,5.5-1C148.9,92.1,149.2,92.3,149,92.8z"></path>
    <path d="M165.5,103l-3.2,12.9c-0.4,1.8-0.4,2.1-0.4,2.6c0,0.3,0.1,0.4,0.1,0.5c0.9,1.3,2.5-1.1,3.4-2.6l0.5,0.5    c-0.9,1.7-2.2,3.4-3.3,4.2c-0.8,0.6-2.6,1.2-3.3,0.3c-0.3-0.3-0.5-0.9-0.5-1.3c0-2.3,0.9-5.2,1.6-7.5c0.3-0.8,0.3-0.8-0.1-0.1    c-1.6,3-5.4,9.5-9,9.4c-1.6-0.1-2.1-1.6-2.1-2.8c0-1.1,0.2-2.1,0.7-4.2l1.5-6.3c0.4-1.5,0.4-1.9,0.5-2.2c0.1-1.1-0.3-2-2.2-2    l0.1-0.7c1.5-0.1,4-0.6,5.1-0.9c0.5-0.1,0.9,0,0.8,0.6l-3.1,12c-0.1,0.5-1.1,4,0.4,4.3c1.8,0.3,5.7-4.9,7.5-9.2    c1.2-2.9,1.9-5.9,2.3-7.3L165.5,103L165.5,103z"></path>
    <path d="M47.2,143.3c1.6-0.3,2.3-0.4,3.4-0.9c1.3-0.7,2.3-1.5,3-2.5c0.6-0.9,0.9-1.8,0.9-2.7c0-0.5,0.1-0.9-0.1-1.3    c-0.3-0.3-0.5-0.5-1.1-0.5c-1.1,0-2.1,0.8-3.3,2.2C48.7,139,47.7,140.5,47.2,143.3L47.2,143.3z M46.8,144.6    c-0.1,0.6-0.1,1.1-0.1,1.6c0,1.1,0.1,2.7,0.8,3.5s1.8,1.1,2.8,1.1c0.8,0,1.5-0.5,2.3-0.9c0.7-0.4,1.3-0.9,2.7-2.2l0.5,0.5    c-2.7,3.3-4.8,4.3-7.2,4.3c-1.6,0-3.1-0.5-3.9-1.7c-0.8-1.1-1.1-2.7-1.1-4.1c-0.1-2,0.6-3.8,1.5-5.8c0.9-2,2.5-3.5,4.1-4.7    c1.6-1.1,3.2-1.8,4.8-1.8c1.2,0,2,0.3,2.6,0.8c0.6,0.6,0.8,1.3,0.8,2.1c0,1.1-0.3,2.1-1.1,3.1c-0.9,1.3-2.4,2.3-4.3,3.1    C50.8,143.9,49.1,144.3,46.8,144.6z"></path>
    <path d="M99.1,135.6c-0.3,0.1-1.1,0.3-1.9,1.1c-1.3,1.3-2.2,2.6-3,4.8c-0.8,2.3-1.5,4-1.5,5.7c0,0.9-0.1,1.5,0.3,2.2    c0.3,0.5,0.7,0.8,1.3,0.8c1.2,0,2.7-1.3,3.9-3.5c1.7-3,3-5.5,3.2-8.5c0.1-1.1-0.1-1.8-0.6-2.3C100.3,135.4,99.6,135.5,99.1,135.6    L99.1,135.6z M105.5,134.9l-3.5,12.6l-0.3,1.5c-0.3,1.4,0.7,1.2,1.5,0.5c0.9-0.7,1.5-1.8,1.5-2l0.6,0.5c-0.8,1.3-2,2.5-2.7,3.3    c-1.5,1.3-3.8,2-3.8-0.6c0-1.5,0.5-3,0.9-4.4c-1.5,2.1-3,4.2-4.1,5.1c-0.9,0.8-2,1.1-3,1.1c-0.8,0-1.5-0.3-2.1-1.1    c-0.6-0.8-0.8-1.9-0.8-3.3c0-2,0.5-4.1,1.6-6.4s2.4-4.2,4-5.6c1.3-1.1,2.8-1.6,3.9-1.6c0.7,0,1.5-0.1,1.9,0.3    c0.5,0.4,0.9,0.5,1.1,1.5l0.4-1.5H105.5z"></path>
    <path d="M174.5,135.6c-0.4,0.1-1.1,0.3-2,1.1c-1.2,1.3-2.2,2.7-3,4.9c-0.8,2.3-1.5,4-1.5,5.7c0,0.9-0.1,1.5,0.3,2.1    c0.3,0.6,0.8,0.8,1.3,0.8c1.2,0,2.7-1.3,3.9-3.5c1.7-3,3-5.5,3.2-8.5c0.1-1.1-0.1-1.8-0.5-2.3C175.6,135.4,175,135.5,174.5,135.6    L174.5,135.6z M180.8,134.9l-3.5,12.6L177,149c-0.3,1.5,0.8,1.3,1.6,0.6c0.8-0.7,1.5-1.8,1.5-2l0.6,0.5c-0.8,1.3-2,2.5-2.8,3.3    c-1.5,1.3-3.8,2-3.8-0.6c0-1.5,0.5-3,0.9-4.5c-1.5,2.2-3,4.2-4.2,5.2c-0.9,0.8-2,1-2.9,1c-0.8,0-1.6-0.3-2.1-1.1    c-0.6-0.8-0.8-1.9-0.8-3.2c0-2,0.5-4.1,1.6-6.4s2.4-4.2,4-5.6c1.3-1.1,2.8-1.6,3.9-1.6c0.7,0,1.4-0.1,1.9,0.4    c0.4,0.4,0.9,0.5,1.1,1.5l0.5-1.5L180.8,134.9L180.8,134.9z"></path>
    <path d="M140.8,139.5c0-1.2-0.5-2.3-0.9-3c-0.5-0.6-1.3-1.1-2.1-1c-1.6,0.1-3.3,1.1-5,4c-1.7,2.9-2.5,5.6-2.5,8.2    c0,1.3,0.3,2.1,0.9,2.8c0.5,0.7,1.5,1.2,2.3,1.1c1.8-0.3,3.7-1.3,5.1-4C139.8,144.9,140.8,142.3,140.8,139.5L140.8,139.5z     M143.8,140.7c0,1.9-0.6,4.2-1.8,6.1c-1.1,1.7-2.7,3.3-4.3,4.4c-1.6,1.1-3.8,1.5-5.3,1.5c-1.5,0-2.8-0.5-3.9-1.6    c-0.9-1.1-1.5-2.5-1.5-4.3c0-1.9,0.6-3.7,1.6-5.6c0.9-1.9,2.8-3.9,4.5-4.9c1.9-1.1,2.8-1.5,4.5-1.5c1.5-0.1,3.5,0.5,4.5,1.6    C143.1,137.5,143.8,138.9,143.8,140.7z"></path>
    <path d="M177.1,92.6l-3.5,13.8c1.5-1.8,3.5-3.7,6.1-3.7c1.3,0,2.4,0.7,3.2,1.7c0.9,1,1.3,2.3,1.3,4.1c0,6.4-5.1,13.4-11.1,13.5    c-3.4,0-5.7-0.6-4.9-4.2l4.6-19.5c0.5-2.3,0.9-3.9-1.8-3.5v-0.8c2.1-0.2,4-1.1,5.5-1.7C176.8,92.1,177.2,92.1,177.1,92.6    L177.1,92.6z M173.6,121c1.1-0.1,1.9-0.7,3-1.5c3-2.5,5.9-10.4,3.3-13.5c-0.6-0.7-1.2-1.1-1.9-1.1c-3,0-4.7,3.5-5.2,5.7l-1.7,6.6    C170.5,119.8,170.4,120.8,173.6,121z"></path>
    <path d="M15.6,94.4l0.2-0.8h7.9c3.3,0,6.5,0.5,8.1,1.3c1.6,0.9,2.9,2.1,3.9,4c1.8,3.5,1.8,7.5,0.6,11.2    c-2.3,7.5-9.2,11.2-16.7,11.2H9.1l0.3-0.8c0.9-0.1,1.6-0.1,1.9-0.3c0.5-0.3,0.8-0.6,1.1-0.9c0.3-0.6,0.7-1.7,1.1-3.5l4.3-16.8    c0.3-1.3,0.5-2.3,0.5-3.1c0-0.5-0.2-0.9-0.5-1.2c-0.3-0.3-0.9-0.4-1.8-0.4L15.6,94.4L15.6,94.4z M21.8,97.2L17,115.3    c-0.4,1.5-0.5,2.5-0.6,2.9c-0.2,0.8,0.6,1.3,1.2,1.4c12,3,18.8-14.6,13-22.5c-1.2-1.7-3.3-2.3-5.9-2.3    C22.9,94.7,22.2,95.3,21.8,97.2z"></path>
    <path d="M70.8,113c-1.3,9.1,5.1,8.1,8.8,3.5l0.3,0.6c-2.3,3.4-4.6,4.8-7.2,4.8c-1.7,0-3.2-0.6-4-1.9c-0.9-1.3-1.2-2.7-1.2-4.2    c0-2,0.5-4.4,1.6-6.5c1.1-2.1,2.5-3.8,4.1-5c1.7-1.1,3.3-1.7,5.1-1.7c3.2-0.1,4.2,2.9,2.2,5.7C78,111.7,74.7,112.5,70.8,113    L70.8,113z M70.9,112c1.8-0.2,3.2-0.6,4.3-1.1c1.9-0.9,3.5-2.9,3.5-5.2c0-3.7-3.3-1.3-4.9,0.3C72.5,107.4,71.6,109.1,70.9,112z"></path>
    <path d="M196.7,125.3c1.9,0,3.3,1.6,3.3,3.5c0,2-1.5,3.6-3.3,3.6s-3.4-1.6-3.4-3.6C193.3,127,194.8,125.3,196.7,125.3L196.7,125.3z     M196.7,125.8c-1.6,0-3,1.4-3,3.1c0,1.7,1.3,3.1,3,3.1c1.6,0,2.9-1.4,2.9-3.1C199.6,127.2,198.3,125.8,196.7,125.8L196.7,125.8z     M198.1,130.9l-0.8-1.9c0.5-0.1,0.8-0.6,0.8-1.1c0-0.3-0.2-0.7-0.5-0.9c-0.3-0.2-0.6-0.3-0.9-0.3h-1.5v4.1h0.5v-1.8h1.1l0.8,1.8    L198.1,130.9L198.1,130.9z M195.7,128.7h0.9c0.3,0,0.5,0,0.7-0.3c0.1-0.1,0.3-0.3,0.3-0.5c0-0.3-0.1-0.4-0.3-0.6    c-0.2-0.1-0.4-0.1-0.6-0.1h-1V128.7z"></path>
</g>
</svg>