<svg width="34" height="23" viewBox="0 0 34 23" fill="none" xmlns="http://www.w3.org/2000/svg">
<path fill-rule="evenodd" clip-rule="evenodd" d="M34 19.8333C34 21.3917 32.725 22.6667 31.1667 22.6667H2.83333C1.275 22.6667 0 21.3917 0 19.8333V2.83333C0 1.275 1.275 0 2.83333 0H31.1667C32.725 0 34 1.275 34 2.83333V19.8333Z" fill="white"/>
<path d="M31.1667 0H2.83333C1.275 0 0 1.275 0 2.83333V19.8333C0 21.3917 1.275 22.6667 2.83333 22.6667H31.1667C32.725 22.6667 34 21.3917 34 19.8333V2.83333C34 1.275 32.725 0 31.1667 0ZM31.1667 0.566667C32.4167 0.566667 33.4333 1.58327 33.4333 2.83333V19.8333C33.4333 21.0834 32.4167 22.1 31.1667 22.1H2.83333C1.58327 22.1 0.566667 21.0834 0.566667 19.8333V2.83333C0.566667 1.58327 1.58327 0.566667 2.83333 0.566667H31.1667Z" fill="#D0D0D0"/>
<path d="M19.9863 16.2131C22.6774 16.2131 24.8591 14.0315 24.8591 11.3403C24.8591 8.64914 22.6774 6.46753 19.9863 6.46753C17.2951 6.46753 15.1135 8.64914 15.1135 11.3403C15.1135 14.0315 17.2951 16.2131 19.9863 16.2131Z" fill="#F79E1B"/>
<path d="M14.0139 16.1994C16.705 16.1994 18.8866 14.0178 18.8866 11.3266C18.8866 8.63547 16.705 6.45386 14.0139 6.45386C11.3227 6.45386 9.14111 8.63547 9.14111 11.3266C9.14111 14.0178 11.3227 16.1994 14.0139 16.1994Z" fill="#EB001B"/>
<path fill-rule="evenodd" clip-rule="evenodd" d="M15.1135 11.3294C15.1101 12.8956 15.8451 14.2908 16.9909 15.185C18.1412 14.2959 18.883 12.9047 18.887 11.339C18.8904 9.77273 18.1554 8.3776 17.0096 7.4834C15.8587 8.37137 15.1169 9.7631 15.1135 11.3294Z" fill="#FF5F00"/>
</svg>
