<svg id="Grupo_6" data-name="Grupo 6" xmlns="http://www.w3.org/2000/svg" width="55.93" height="64.872" viewBox="0 0 55.93 64.872">
  <path id="Caminho_70" data-name="Caminho 70" d="M501.13,47.9V95.7a3.6,3.6,0,0,1-3.916,3.916h-17.65c-.643,0-.76.175-.76.76.059,1.286,0,2.572,0,3.857a4.375,4.375,0,0,1-3.682,4.5.2.2,0,0,0-.059.117c0-.351.292-.292.526-.351a4.263,4.263,0,0,0,3.1-4.208v-3.682c0-1.052.117-1.169,1.169-1.169h17.708a3.273,3.273,0,0,0,3.273-2.513,5.756,5.756,0,0,0,.117-.994V48.015a3.421,3.421,0,0,0-3.624-3.682H471.324A3.452,3.452,0,0,0,467.7,47.9v4.442c0,1.169-.058,1.227-1.286,1.227-5.494,0-10.987.058-16.481,0a4.36,4.36,0,0,0-4.5,4.5c.059,15.371,0,30.8,0,46.17a4.231,4.231,0,0,0,2.747,4.208c.234.117.584.117.584.468-.175-.234-.468-.175-.76-.292a4.469,4.469,0,0,1-2.805-4.208V57.833a4.359,4.359,0,0,1,3.39-4.442,7.181,7.181,0,0,1,1.578-.117h16.715c.526,0,.643-.175.643-.643-.058-1.578,0-3.1,0-4.675a3.6,3.6,0,0,1,3.8-3.857h26.007A3.5,3.5,0,0,1,501.13,47.9Z" transform="translate(-445.2 -44.04)" fill="#fefefe"/>
  <path id="Caminho_71" data-name="Caminho 71" d="M505.4,51.035c-.058-.584.351-.935.994-.935h5.552c.643,0,.994.351.994.877,0,.584-.351.935-1.052.935h-5.435Q505.4,51.824,505.4,51.035Z" transform="translate(-470.213 -46.535)"/>
  <path id="Caminho_72" data-name="Caminho 72" d="M464.545,56.682h-5.435a.925.925,0,0,0-1.052.935.956.956,0,0,0,1.052.935H464.6a.956.956,0,0,0,1.052-.935A1.007,1.007,0,0,0,464.545,56.682ZM464.6,103.2h-5.494a.925.925,0,0,0-1.052.935c0,.526.409.877,1.052.935H464.6c.643,0,1.052-.351.993-.935A.878.878,0,0,0,464.6,103.2Zm0,0h-5.494a.925.925,0,0,0-1.052.935c0,.526.409.877,1.052.935H464.6c.643,0,1.052-.351.993-.935A.878.878,0,0,0,464.6,103.2Zm-.058-46.521h-5.435a.925.925,0,0,0-1.052.935.956.956,0,0,0,1.052.935H464.6a.956.956,0,0,0,1.052-.935A1.007,1.007,0,0,0,464.545,56.682ZM497.331,44H471.324a3.575,3.575,0,0,0-3.8,3.857v4.675c0,.526-.117.643-.643.643H450.168a7.181,7.181,0,0,0-1.578.117,4.359,4.359,0,0,0-3.39,4.442v46.579a4.469,4.469,0,0,0,2.805,4.208c.234.117.526.058.76.292h26.3a.2.2,0,0,1,.058-.117,4.287,4.287,0,0,0,3.682-4.5c0-1.286.058-2.571,0-3.857,0-.584.117-.76.76-.76,5.9.058,11.747,0,17.65,0a3.6,3.6,0,0,0,3.916-3.916V47.857A3.575,3.575,0,0,0,497.331,44ZM478.863,97.242V92.625c0-.468.117-.584.584-.584h19.228c.468,0,.643.117.643.643-.058.994,0,2.046,0,3.039a1.824,1.824,0,0,1-2.046,2.046H479.389C478.98,97.768,478.863,97.709,478.863,97.242Zm-1.87-19.052V98.82c0,.468-.058.643-.584.643h-28.7c-.526,0-.643-.117-.643-.643V58.026c0-1.987.994-2.981,2.922-2.981h23.962a2.8,2.8,0,0,1,3.039,3.039Zm-1.519-24.838a6.416,6.416,0,0,0-1.52-.117h-4.091c-.351,0-.526-.058-.526-.468V47.623a1.647,1.647,0,0,1,1.636-1.695h26.007c1.753,0,2.279.526,2.279,2.338V89.644c0,.643-.175.76-.76.76H479.506c-.643,0-.76-.175-.76-.76V57.968A4.23,4.23,0,0,0,475.474,53.351Zm-1.227,53.592H449.934a2.546,2.546,0,0,1-2.864-2.805c0-.76.058-1.461,0-2.221-.058-.468.117-.584.584-.584h28.7c.468,0,.643.058.643.584-.058.76,0,1.52,0,2.279A2.52,2.52,0,0,1,474.246,106.943ZM486.87,94.086h-5.377q-1.052,0-1.052.877c0,.584.351.935,1.052.935h5.494a.925.925,0,0,0,1.052-.935A1.1,1.1,0,0,0,486.87,94.086ZM464.6,103.2h-5.494a.925.925,0,0,0-1.052.935c0,.526.409.877,1.052.935H464.6c.643,0,1.052-.351.993-.935A.878.878,0,0,0,464.6,103.2Zm-.058-46.521h-5.435a.925.925,0,0,0-1.052.935.956.956,0,0,0,1.052.935H464.6a.956.956,0,0,0,1.052-.935A1.007,1.007,0,0,0,464.545,56.682Zm0,0h-5.435a.925.925,0,0,0-1.052.935.956.956,0,0,0,1.052.935H464.6a.956.956,0,0,0,1.052-.935A1.007,1.007,0,0,0,464.545,56.682Zm0,0h-5.435a.925.925,0,0,0-1.052.935.956.956,0,0,0,1.052.935H464.6a.956.956,0,0,0,1.052-.935A1.007,1.007,0,0,0,464.545,56.682Z" transform="translate(-445.2 -44)"/>
  <path id="Caminho_73" data-name="Caminho 73" d="M474.7,66.535c0,.584-.351.935-1.052.935h-5.494a.956.956,0,0,1-1.052-.935c0-.526.409-.877,1.052-.935h5.435C474.288,65.658,474.7,66.009,474.7,66.535Z" transform="translate(-454.301 -52.976)" fill="#fefefe"/>
  <path id="Caminho_74" data-name="Caminho 74" d="M512.935,50.877c0,.584-.351.935-1.052.935h-5.435a.913.913,0,0,1-1.052-.877c-.058-.584.351-.935.994-.935h5.552C512.584,50,512.935,50.351,512.935,50.877Z" transform="translate(-470.213 -46.493)" fill="#fefefe"/>
  <path id="Caminho_75" data-name="Caminho 75" d="M474.739,146.135a.878.878,0,0,1-.994.935h-5.494a.925.925,0,0,1-1.052-.935c0-.526.409-.877,1.052-.935h5.494C474.389,145.258,474.739,145.609,474.739,146.135Z" transform="translate(-454.342 -86.056)" fill="#fefefe"/>
  <path id="Caminho_76" data-name="Caminho 76" d="M512.9,130.577c0,.584-.351.935-1.052.935h-5.494c-.7,0-1.052-.351-1.052-.935s.351-.877,1.052-.877h5.377C512.488,129.7,512.9,130.051,512.9,130.577Z" transform="translate(-470.176 -79.614)" fill="#fefefe"/>
  <path id="Caminho_77" data-name="Caminho 77" d="M474.7,66.535c0,.584-.351.935-1.052.935h-5.494a.956.956,0,0,1-1.052-.935c0-.526.409-.877,1.052-.935h5.435C474.288,65.658,474.7,66.009,474.7,66.535Z" transform="translate(-454.301 -52.976)" fill="#010101"/>
  <path id="Caminho_78" data-name="Caminho 78" d="M512.935,50.877c0,.584-.351.935-1.052.935h-5.435a.913.913,0,0,1-1.052-.877c-.058-.584.351-.935.994-.935h5.552C512.584,50,512.935,50.351,512.935,50.877Z" transform="translate(-470.213 -46.493)"/>
  <path id="Caminho_79" data-name="Caminho 79" d="M474.739,146.135a.878.878,0,0,1-.994.935h-5.494a.925.925,0,0,1-1.052-.935c0-.526.409-.877,1.052-.935h5.494C474.389,145.258,474.739,145.609,474.739,146.135Z" transform="translate(-454.342 -86.056)"/>
  <path id="Caminho_80" data-name="Caminho 80" d="M512.9,130.577c0,.584-.351.935-1.052.935h-5.494c-.7,0-1.052-.351-1.052-.935s.351-.877,1.052-.877h5.377C512.488,129.7,512.9,130.051,512.9,130.577Z" transform="translate(-470.176 -79.614)"/>
</svg>
