<svg width="70" height="70" viewBox="0 0 70 70" fill="none" xmlns="http://www.w3.org/2000/svg">
<path d="M58.3332 29.1668C58.3332 46.6668 34.9998 64.1668 34.9998 64.1668C34.9998 64.1668 11.6665 46.6668 11.6665 29.1668C11.6665 22.9784 14.1248 17.0435 18.5007 12.6677C22.8765 8.29182 28.8115 5.8335 34.9998 5.8335C41.1882 5.8335 47.1231 8.29182 51.499 12.6677C55.8748 17.0435 58.3332 22.9784 58.3332 29.1668V29.1668Z" stroke="#E2211D" stroke-width="4" stroke-linecap="round" stroke-linejoin="round"/>
<path d="M35 37.9165C39.8325 37.9165 43.75 33.999 43.75 29.1665C43.75 24.334 39.8325 20.4165 35 20.4165C30.1675 20.4165 26.25 24.334 26.25 29.1665C26.25 33.999 30.1675 37.9165 35 37.9165Z" stroke="#E2211D" stroke-width="4" stroke-linecap="round" stroke-linejoin="round"/>
</svg>
