<svg id="Grupo_6" data-name="Grupo 6" xmlns="http://www.w3.org/2000/svg" width="18.968" height="22" viewBox="0 0 18.968 22">
  <path id="Caminho_70" data-name="Caminho 70" d="M464.168,45.386V61.6a1.219,1.219,0,0,1-1.328,1.328h-5.986c-.218,0-.258.059-.258.258.02.436,0,.872,0,1.308a1.484,1.484,0,0,1-1.249,1.526.069.069,0,0,0-.02.04c0-.119.1-.1.178-.119a1.446,1.446,0,0,0,1.051-1.427V63.264c0-.357.039-.4.4-.4h6.005a1.11,1.11,0,0,0,1.11-.852,1.946,1.946,0,0,0,.04-.337V45.426a1.16,1.16,0,0,0-1.229-1.249h-8.82a1.171,1.171,0,0,0-1.229,1.209v1.506c0,.4-.02.416-.436.416-1.863,0-3.726.02-5.589,0a1.479,1.479,0,0,0-1.526,1.526c.02,5.213,0,10.445,0,15.658a1.435,1.435,0,0,0,.932,1.427c.079.04.2.04.2.159-.06-.079-.159-.059-.258-.1a1.516,1.516,0,0,1-.951-1.427v-15.8a1.478,1.478,0,0,1,1.15-1.506,2.435,2.435,0,0,1,.535-.04h5.669c.178,0,.218-.059.218-.218-.02-.535,0-1.05,0-1.586a1.223,1.223,0,0,1,1.288-1.308h8.82A1.188,1.188,0,0,1,464.168,45.386Z" transform="translate(-445.2 -44.078)" fill="#e2211d"/>
  <path id="Caminho_71" data-name="Caminho 71" d="M505.392,50.417c-.02-.2.119-.317.337-.317h1.883c.218,0,.337.119.337.3,0,.2-.119.317-.357.317h-1.843Q505.392,50.685,505.392,50.417Z" transform="translate(-493.461 -48.891)" fill="#e2211d"/>
  <path id="Caminho_72" data-name="Caminho 72" d="M451.76,48.3h-1.843a.314.314,0,0,0-.357.317.324.324,0,0,0,.357.317h1.863a.324.324,0,0,0,.357-.317A.342.342,0,0,0,451.76,48.3Zm.02,15.777h-1.863a.314.314,0,0,0-.357.317c0,.178.139.3.357.317h1.863c.218,0,.357-.119.337-.317A.3.3,0,0,0,451.78,64.077Zm0,0h-1.863a.314.314,0,0,0-.357.317c0,.178.139.3.357.317h1.863c.218,0,.357-.119.337-.317A.3.3,0,0,0,451.78,64.077ZM451.76,48.3h-1.843a.314.314,0,0,0-.357.317.324.324,0,0,0,.357.317h1.863a.324.324,0,0,0,.357-.317A.342.342,0,0,0,451.76,48.3ZM462.879,44h-8.82a1.212,1.212,0,0,0-1.288,1.308v1.586c0,.178-.04.218-.218.218h-5.668a2.435,2.435,0,0,0-.535.04,1.478,1.478,0,0,0-1.15,1.506v15.8a1.515,1.515,0,0,0,.951,1.427c.079.04.178.02.258.1h8.919a.069.069,0,0,1,.02-.04,1.454,1.454,0,0,0,1.249-1.526c0-.436.02-.872,0-1.308,0-.2.04-.258.258-.258,2,.02,3.984,0,5.986,0a1.219,1.219,0,0,0,1.328-1.328V45.308A1.212,1.212,0,0,0,462.879,44Zm-6.263,18.056V60.49c0-.159.04-.2.2-.2h6.521c.159,0,.218.04.218.218-.02.337,0,.694,0,1.031a.619.619,0,0,1-.694.694h-6.065C456.656,62.234,456.616,62.214,456.616,62.056Zm-.634-6.461v7c0,.159-.02.218-.2.218h-9.732c-.178,0-.218-.04-.218-.218V48.757a.887.887,0,0,1,.991-1.011h8.126a.948.948,0,0,1,1.031,1.031Zm-.515-8.423a2.176,2.176,0,0,0-.515-.04h-1.387c-.119,0-.178-.02-.178-.159V45.229a.559.559,0,0,1,.555-.575h8.82c.594,0,.773.178.773.793V59.479c0,.218-.059.258-.258.258h-6.441c-.218,0-.258-.059-.258-.258V48.737A1.434,1.434,0,0,0,455.467,47.171Zm-.416,18.175h-8.245a.863.863,0,0,1-.971-.951c0-.258.02-.5,0-.753-.02-.159.04-.2.2-.2h9.732c.159,0,.218.02.218.2-.02.258,0,.515,0,.773A.855.855,0,0,1,455.05,65.346Zm4.281-4.36h-1.823q-.357,0-.357.3c0,.2.119.317.357.317h1.863a.314.314,0,0,0,.357-.317A.374.374,0,0,0,459.332,60.986Zm-7.551,3.092h-1.863a.314.314,0,0,0-.357.317c0,.178.139.3.357.317h1.863c.218,0,.357-.119.337-.317A.3.3,0,0,0,451.78,64.077ZM451.76,48.3h-1.843a.314.314,0,0,0-.357.317.324.324,0,0,0,.357.317h1.863a.324.324,0,0,0,.357-.317A.342.342,0,0,0,451.76,48.3Zm0,0h-1.843a.314.314,0,0,0-.357.317.324.324,0,0,0,.357.317h1.863a.324.324,0,0,0,.357-.317A.342.342,0,0,0,451.76,48.3Zm0,0h-1.843a.314.314,0,0,0-.357.317.324.324,0,0,0,.357.317h1.863a.324.324,0,0,0,.357-.317A.342.342,0,0,0,451.76,48.3Z" transform="translate(-445.2 -44)" fill="#e2211d"/>
  <path id="Caminho_73" data-name="Caminho 73" d="M469.677,65.917c0,.2-.119.317-.357.317h-1.863a.324.324,0,0,1-.357-.317c0-.178.139-.3.357-.317H469.3C469.538,65.62,469.677,65.739,469.677,65.917Z" transform="translate(-462.759 -61.319)" fill="#e2211d"/>
  <path id="Caminho_74" data-name="Caminho 74" d="M507.949,50.3c0,.2-.119.317-.357.317h-1.843a.31.31,0,0,1-.357-.3c-.02-.2.119-.317.337-.317h1.883C507.83,50,507.949,50.119,507.949,50.3Z" transform="translate(-493.461 -48.811)" fill="#e2211d"/>
  <path id="Caminho_75" data-name="Caminho 75" d="M469.757,145.517a.3.3,0,0,1-.337.317h-1.863a.314.314,0,0,1-.357-.317c0-.178.139-.3.357-.317h1.863C469.638,145.22,469.757,145.339,469.757,145.517Z" transform="translate(-462.84 -125.142)" fill="#e2211d"/>
  <path id="Caminho_76" data-name="Caminho 76" d="M507.877,130c0,.2-.119.317-.357.317h-1.863c-.238,0-.357-.119-.357-.317s.119-.3.357-.3h1.823C507.738,129.7,507.877,129.819,507.877,130Z" transform="translate(-493.388 -112.714)" fill="#e2211d"/>
  <path id="Caminho_77" data-name="Caminho 77" d="M469.677,65.917c0,.2-.119.317-.357.317h-1.863a.324.324,0,0,1-.357-.317c0-.178.139-.3.357-.317H469.3C469.538,65.62,469.677,65.739,469.677,65.917Z" transform="translate(-462.759 -61.319)" fill="#e2211d"/>
  <path id="Caminho_78" data-name="Caminho 78" d="M507.949,50.3c0,.2-.119.317-.357.317h-1.843a.31.31,0,0,1-.357-.3c-.02-.2.119-.317.337-.317h1.883C507.83,50,507.949,50.119,507.949,50.3Z" transform="translate(-493.461 -48.811)" fill="#e2211d"/>
  <path id="Caminho_79" data-name="Caminho 79" d="M469.757,145.517a.3.3,0,0,1-.337.317h-1.863a.314.314,0,0,1-.357-.317c0-.178.139-.3.357-.317h1.863C469.638,145.22,469.757,145.339,469.757,145.517Z" transform="translate(-462.84 -125.142)" fill="#e2211d"/>
  <path id="Caminho_80" data-name="Caminho 80" d="M507.877,130c0,.2-.119.317-.357.317h-1.863c-.238,0-.357-.119-.357-.317s.119-.3.357-.3h1.823C507.738,129.7,507.877,129.819,507.877,130Z" transform="translate(-493.388 -112.714)" fill="#e2211d"/>
</svg>
