<svg xmlns="http://www.w3.org/2000/svg" width="29.142" height="34" viewBox="0 0 29.142 34">
  <path id="transferir_5_" data-name="transferir (5)" d="M29.138,32.883,26.577,8.274a1.006,1.006,0,0,0-1-.907H20.77V6.261a6.2,6.2,0,1,0-12.4,0V7.367H3.561a1.006,1.006,0,0,0-1,.907L.007,32.883a1.02,1.02,0,0,0,.252.782A1,1,0,0,0,1,34H28.141a1,1,0,0,0,.745-.334A1.019,1.019,0,0,0,29.138,32.883ZM10.374,6.261a4.2,4.2,0,1,1,8.391,0V7.367h-8.39V6.259ZM2.114,31.976,4.465,9.392H8.373v2.229a1,1,0,1,0,2,0V9.392h8.391v2.229a1,1,0,1,0,2,0V9.392H24.68l2.348,22.584H2.115Z" transform="translate(-0.001)" fill="#666"/>
</svg>
