<svg xmlns="http://www.w3.org/2000/svg" width="23.195" height="23.127" viewBox="0 0 23.195 23.127">
  <g id="Grupo_22" data-name="Grupo 22" transform="translate(255.7 3.2)">
    <path id="Caminho_167" data-name="Caminho 167" d="M-244.295,12.55v-.023c.023-.181-.091-.272-.272-.272h-1.493c-.181,0-.272.068-.272.272v.747c0,.181.068.249.249.249h.747C-244.25,13.523-244.25,13.523-244.295,12.55Zm-.566.588a3.331,3.331,0,0,0-.475,0,1.483,1.483,0,0,0-.317,0c-.317.068-.317-.113-.317-.362,0-.136.068-.158.181-.158h.928c.249,0,.158.158.158.272C-244.657,13.048-244.657,13.161-244.861,13.138Zm2.964-.634c0-.181-.068-.249-.249-.249h-1.539a.217.217,0,0,0-.249.249V13.3c0,.181.091.226.249.226h1.494c.181,0,.272-.068.272-.249C-241.9,13-241.9,12.753-241.9,12.5Zm-.385.453c0,.158-.045.2-.2.181-.294,0-.611-.023-.905,0-.2,0-.181-.113-.181-.249,0-.113-.068-.294.181-.272h.475a1.7,1.7,0,0,0,.339,0C-242.281,12.572-242.258,12.731-242.281,12.957Zm-.5,3.01h-2.67c-.158,0-.294.023-.294.2,0,.158.158.181.272.181h2.67c.136,0,.272,0,.294-.158C-242.485,15.989-242.62,15.967-242.779,15.967Zm0,0h-2.67c-.158,0-.294.023-.294.2,0,.158.158.181.272.181h2.67c.136,0,.272,0,.294-.158C-242.485,15.989-242.62,15.967-242.779,15.967Zm.883-.52c0-.249-.091-.339-.339-.317-.634.023-1.267,0-1.878,0h-1.923c-.2,0-.294.068-.294.294v1.312c0,.2.091.294.272.294h3.87q.305,0,.272-.272C-241.9,16.306-241.919,15.876-241.9,15.446Zm-.43,1.131c-.158.181-.52.045-.815.045h-2.534c-.2,0-.294-.023-.272-.249.023-.294-.113-.679.068-.837.158-.136.543-.045.815-.045h2.512c.2,0,.294.023.272.272C-242.3,16.035-242.19,16.419-242.326,16.578Zm-.453-.611h-2.67c-.158,0-.294.023-.294.2,0,.158.158.181.272.181h2.67c.136,0,.272,0,.294-.158C-242.485,15.989-242.62,15.967-242.779,15.967Zm0,0h-2.67c-.158,0-.294.023-.294.2,0,.158.158.181.272.181h2.67c.136,0,.272,0,.294-.158C-242.485,15.989-242.62,15.967-242.779,15.967Zm0,0h-2.67c-.158,0-.294.023-.294.2,0,.158.158.181.272.181h2.67c.136,0,.272,0,.294-.158C-242.485,15.989-242.62,15.967-242.779,15.967Zm0,0h-2.67c-.158,0-.294.023-.294.2,0,.158.158.181.272.181h2.67c.136,0,.272,0,.294-.158C-242.485,15.989-242.62,15.967-242.779,15.967Zm0,0h-2.67c-.158,0-.294.023-.294.2,0,.158.158.181.272.181h2.67c.136,0,.272,0,.294-.158C-242.485,15.989-242.62,15.967-242.779,15.967Zm.883-.52c0-.249-.091-.339-.339-.317-.634.023-1.267,0-1.878,0h-1.923c-.2,0-.294.068-.294.294v1.312c0,.2.091.294.272.294h3.87q.305,0,.272-.272C-241.9,16.306-241.919,15.876-241.9,15.446Zm-.43,1.131c-.158.181-.52.045-.815.045h-2.534c-.2,0-.294-.023-.272-.249.023-.294-.113-.679.068-.837.158-.136.543-.045.815-.045h2.512c.2,0,.294.023.272.272C-242.3,16.035-242.19,16.419-242.326,16.578Zm-.453-.611h-2.67c-.158,0-.294.023-.294.2,0,.158.158.181.272.181h2.67c.136,0,.272,0,.294-.158C-242.485,15.989-242.62,15.967-242.779,15.967Zm0,0h-2.67c-.158,0-.294.023-.294.2,0,.158.158.181.272.181h2.67c.136,0,.272,0,.294-.158C-242.485,15.989-242.62,15.967-242.779,15.967Zm0,0h-2.67c-.158,0-.294.023-.294.2,0,.158.158.181.272.181h2.67c.136,0,.272,0,.294-.158C-242.485,15.989-242.62,15.967-242.779,15.967Zm.883-3.462c0-.181-.068-.249-.249-.249h-1.539a.217.217,0,0,0-.249.249V13.3c0,.181.091.226.249.226h1.494c.181,0,.272-.068.272-.249C-241.9,13-241.9,12.753-241.9,12.5Zm-.385.453c0,.158-.045.2-.2.181-.294,0-.611-.023-.905,0-.2,0-.181-.113-.181-.249,0-.113-.068-.294.181-.272h.475a1.7,1.7,0,0,0,.339,0C-242.281,12.572-242.258,12.731-242.281,12.957Zm-2.014-.407v-.023c.023-.181-.091-.272-.272-.272h-1.493c-.181,0-.272.068-.272.272v.747c0,.181.068.249.249.249h.747C-244.25,13.523-244.25,13.523-244.295,12.55Zm-.566.588a3.331,3.331,0,0,0-.475,0,1.483,1.483,0,0,0-.317,0c-.317.068-.317-.113-.317-.362,0-.136.068-.158.181-.158h.928c.249,0,.158.158.158.272C-244.657,13.048-244.657,13.161-244.861,13.138Zm.566-.588v-.023c.023-.181-.091-.272-.272-.272h-1.493c-.181,0-.272.068-.272.272v.747c0,.181.068.249.249.249h.747C-244.25,13.523-244.25,13.523-244.295,12.55Zm-.566.588a3.331,3.331,0,0,0-.475,0,1.483,1.483,0,0,0-.317,0c-.317.068-.317-.113-.317-.362,0-.136.068-.158.181-.158h.928c.249,0,.158.158.158.272C-244.657,13.048-244.657,13.161-244.861,13.138Zm2.964-.634c0-.181-.068-.249-.249-.249h-1.539a.217.217,0,0,0-.249.249V13.3c0,.181.091.226.249.226h1.494c.181,0,.272-.068.272-.249C-241.9,13-241.9,12.753-241.9,12.5Zm-.385.453c0,.158-.045.2-.2.181-.294,0-.611-.023-.905,0-.2,0-.181-.113-.181-.249,0-.113-.068-.294.181-.272h.475a1.7,1.7,0,0,0,.339,0C-242.281,12.572-242.258,12.731-242.281,12.957Zm-.5,3.01h-2.67c-.158,0-.294.023-.294.2,0,.158.158.181.272.181h2.67c.136,0,.272,0,.294-.158C-242.485,15.989-242.62,15.967-242.779,15.967Zm0,0h-2.67c-.158,0-.294.023-.294.2,0,.158.158.181.272.181h2.67c.136,0,.272,0,.294-.158C-242.485,15.989-242.62,15.967-242.779,15.967Zm.883-.52c0-.249-.091-.339-.339-.317-.634.023-1.267,0-1.878,0h-1.923c-.2,0-.294.068-.294.294v1.312c0,.2.091.294.272.294h3.87q.305,0,.272-.272C-241.9,16.306-241.919,15.876-241.9,15.446Zm-.43,1.131c-.158.181-.52.045-.815.045h-2.534c-.2,0-.294-.023-.272-.249.023-.294-.113-.679.068-.837.158-.136.543-.045.815-.045h2.512c.2,0,.294.023.272.272C-242.3,16.035-242.19,16.419-242.326,16.578Zm-.453-.611h-2.67c-.158,0-.294.023-.294.2,0,.158.158.181.272.181h2.67c.136,0,.272,0,.294-.158C-242.485,15.989-242.62,15.967-242.779,15.967Zm0,0h-2.67c-.158,0-.294.023-.294.2,0,.158.158.181.272.181h2.67c.136,0,.272,0,.294-.158C-242.485,15.989-242.62,15.967-242.779,15.967Zm0,0h-2.67c-.158,0-.294.023-.294.2,0,.158.158.181.272.181h2.67c.136,0,.272,0,.294-.158C-242.485,15.989-242.62,15.967-242.779,15.967Zm0,0h-2.67c-.158,0-.294.023-.294.2,0,.158.158.181.272.181h2.67c.136,0,.272,0,.294-.158C-242.485,15.989-242.62,15.967-242.779,15.967Zm0,0h-2.67c-.158,0-.294.023-.294.2,0,.158.158.181.272.181h2.67c.136,0,.272,0,.294-.158C-242.485,15.989-242.62,15.967-242.779,15.967Zm.883-.52c0-.249-.091-.339-.339-.317-.634.023-1.267,0-1.878,0h-1.923c-.2,0-.294.068-.294.294v1.312c0,.2.091.294.272.294h3.87q.305,0,.272-.272C-241.9,16.306-241.919,15.876-241.9,15.446Zm-.43,1.131c-.158.181-.52.045-.815.045h-2.534c-.2,0-.294-.023-.272-.249.023-.294-.113-.679.068-.837.158-.136.543-.045.815-.045h2.512c.2,0,.294.023.272.272C-242.3,16.035-242.19,16.419-242.326,16.578Zm-.453-.611h-2.67c-.158,0-.294.023-.294.2,0,.158.158.181.272.181h2.67c.136,0,.272,0,.294-.158C-242.485,15.989-242.62,15.967-242.779,15.967Zm0,0h-2.67c-.158,0-.294.023-.294.2,0,.158.158.181.272.181h2.67c.136,0,.272,0,.294-.158C-242.485,15.989-242.62,15.967-242.779,15.967Zm.883-3.462c0-.181-.068-.249-.249-.249h-1.539a.217.217,0,0,0-.249.249V13.3c0,.181.091.226.249.226h1.494c.181,0,.272-.068.272-.249C-241.9,13-241.9,12.753-241.9,12.5Zm-.385.453c0,.158-.045.2-.2.181-.294,0-.611-.023-.905,0-.2,0-.181-.113-.181-.249,0-.113-.068-.294.181-.272h.475a1.7,1.7,0,0,0,.339,0C-242.281,12.572-242.258,12.731-242.281,12.957Zm-.5,3.01h-2.67c-.158,0-.294.023-.294.2,0,.158.158.181.272.181h2.67c.136,0,.272,0,.294-.158C-242.485,15.989-242.62,15.967-242.779,15.967Zm-1.516-3.417v-.023c.023-.181-.091-.272-.272-.272h-1.493c-.181,0-.272.068-.272.272v.747c0,.181.068.249.249.249h.747C-244.25,13.523-244.25,13.523-244.295,12.55Zm-.566.588a3.331,3.331,0,0,0-.475,0,1.483,1.483,0,0,0-.317,0c-.317.068-.317-.113-.317-.362,0-.136.068-.158.181-.158h.928c.249,0,.158.158.158.272C-244.657,13.048-244.657,13.161-244.861,13.138Zm.566-.588v-.023c.023-.181-.091-.272-.272-.272h-1.493c-.181,0-.272.068-.272.272v.747c0,.181.068.249.249.249h.747C-244.25,13.523-244.25,13.523-244.295,12.55Zm-.566.588a3.331,3.331,0,0,0-.475,0,1.483,1.483,0,0,0-.317,0c-.317.068-.317-.113-.317-.362,0-.136.068-.158.181-.158h.928c.249,0,.158.158.158.272C-244.657,13.048-244.657,13.161-244.861,13.138Zm2.082,2.829h-2.67c-.158,0-.294.023-.294.2,0,.158.158.181.272.181h2.67c.136,0,.272,0,.294-.158C-242.485,15.989-242.62,15.967-242.779,15.967Zm.883-3.462c0-.181-.068-.249-.249-.249h-1.539a.217.217,0,0,0-.249.249V13.3c0,.181.091.226.249.226h1.494c.181,0,.272-.068.272-.249C-241.9,13-241.9,12.753-241.9,12.5Zm-.385.453c0,.158-.045.2-.2.181-.294,0-.611-.023-.905,0-.2,0-.181-.113-.181-.249,0-.113-.068-.294.181-.272h.475a1.7,1.7,0,0,0,.339,0C-242.281,12.572-242.258,12.731-242.281,12.957Zm-.5,3.01h-2.67c-.158,0-.294.023-.294.2,0,.158.158.181.272.181h2.67c.136,0,.272,0,.294-.158C-242.485,15.989-242.62,15.967-242.779,15.967Zm.883-.52c0-.249-.091-.339-.339-.317-.634.023-1.267,0-1.878,0h-1.923c-.2,0-.294.068-.294.294v1.312c0,.2.091.294.272.294h3.87q.305,0,.272-.272C-241.9,16.306-241.919,15.876-241.9,15.446Zm-.43,1.131c-.158.181-.52.045-.815.045h-2.534c-.2,0-.294-.023-.272-.249.023-.294-.113-.679.068-.837.158-.136.543-.045.815-.045h2.512c.2,0,.294.023.272.272C-242.3,16.035-242.19,16.419-242.326,16.578Zm-.453-.611h-2.67c-.158,0-.294.023-.294.2,0,.158.158.181.272.181h2.67c.136,0,.272,0,.294-.158C-242.485,15.989-242.62,15.967-242.779,15.967Zm.883-.52c0-.249-.091-.339-.339-.317-.634.023-1.267,0-1.878,0h-1.923c-.2,0-.294.068-.294.294v1.312c0,.2.091.294.272.294h3.87q.305,0,.272-.272C-241.9,16.306-241.919,15.876-241.9,15.446Zm-.43,1.131c-.158.181-.52.045-.815.045h-2.534c-.2,0-.294-.023-.272-.249.023-.294-.113-.679.068-.837.158-.136.543-.045.815-.045h2.512c.2,0,.294.023.272.272C-242.3,16.035-242.19,16.419-242.326,16.578Zm-1.335-3.055h1.493c.181,0,.272-.068.272-.249v-.747c0-.181-.068-.249-.249-.249h-1.539a.217.217,0,0,0-.249.249v.792Q-243.933,13.523-243.661,13.523Zm.294-.883h.475a1.7,1.7,0,0,0,.339,0c.272-.045.294.113.294.317,0,.158-.045.2-.2.181-.294,0-.611-.023-.905,0-.2,0-.181-.113-.181-.249C-243.548,12.776-243.616,12.618-243.367,12.64Zm.588,3.326h-2.67c-.158,0-.294.023-.294.2,0,.158.158.181.272.181h2.67c.136,0,.272,0,.294-.158C-242.485,15.989-242.62,15.967-242.779,15.967Zm-3.3-2.444h.747c1.064,0,1.064,0,1.041-.95V12.55c.023-.181-.091-.272-.272-.272h-1.493c-.181,0-.272.068-.272.272V13.3A.221.221,0,0,0-246.083,13.523Zm.136-.747c0-.136.068-.158.181-.158h.928c.249,0,.158.158.158.272.023.136.023.249-.181.226a3.331,3.331,0,0,0-.475,0,1.483,1.483,0,0,0-.317,0C-245.947,13.206-245.97,13.025-245.947,12.776Zm13.4-6c0-.362-.158-.5-.52-.5h-2.15c-.226,0-.249-.068-.249-.272V3.091a4.919,4.919,0,0,0-.045-.815,3.746,3.746,0,0,0-3.734-3.1h-3.213c-.226,0-.294-.068-.272-.272a4.626,4.626,0,0,0,0-.792,1.388,1.388,0,0,0-1.38-1.312,1.381,1.381,0,0,0-1.38,1.358c0,.272-.023.52,0,.792.023.226-.068.249-.272.249h-3.123a3.75,3.75,0,0,0-3.892,3.87c0,.95-.023,1.9,0,2.851,0,.317-.091.385-.385.362-.679-.023-1.358,0-2.037,0-.339,0-.475.136-.5.475V7.39c.023.339.158.475.5.475h.543a.889.889,0,0,1,.905.769c.023.317.181.385.453.362h.249c.249-.045.294.045.294.294-.023,1.2,0,2.4,0,3.575v3.417a1.856,1.856,0,0,0,1.607,1.923,4.568,4.568,0,0,0,.792.023c.158,0,.226.023.226.2.045.407.113.815.158,1.222.023.2.113.272.317.272h1.2c.181,0,.272-.068.294-.249.045-.407.113-.815.158-1.222.023-.158.045-.226.226-.226h7.4c.158,0,.2.045.226.2.045.407.113.815.158,1.222.023.181.113.249.294.249h1.222a.24.24,0,0,0,.272-.272c.023-.317.068-.634.113-.928.068-.475.068-.5.543-.475a1.977,1.977,0,0,0,2.127-2.1c-.045-2.172,0-4.345,0-6.517,0-.634,0-.634.634-.634.226,0,.317-.068.339-.294a.921.921,0,0,1,.95-.837h.543a.406.406,0,0,0,.453-.453A2.782,2.782,0,0,1-232.551,6.779Zm-20.208.837v.747c0,.091.045.249-.136.2-.158-.023-.385.136-.475-.113-.317-.792-.679-1-1.584-1.018-.113,0-.294.091-.317-.068a1.473,1.473,0,0,1,.023-.7c0-.023.113-.023.181-.023h2.127c.158,0,.2.045.2.2C-252.758,7.1-252.758,7.368-252.758,7.617Zm7.649-9.459a1.032,1.032,0,0,1,.973-1,1,1,0,0,1,1.018.95c.023.294,0,.588,0,.883,0,.158-.068.181-.2.181h-1.629c-.136,0-.181-.023-.181-.181C-245.11-1.277-245.132-1.571-245.11-1.842Zm-6.721,2.919a3.278,3.278,0,0,1,2.851-1.516h9.708a3.361,3.361,0,0,1,3.417,3.3c.023.815.023.815-.769.815h-15.41c-.294,0-.339-.091-.362-.362A3.859,3.859,0,0,1-251.83,1.077Zm3.372,17.854c-.091.588-.091.588-.679.588-.453,0-.453,0-.52-.453a5.689,5.689,0,0,0-.091-.611c-.045-.2.023-.249.226-.226a3.33,3.33,0,0,0,.475,0C-248.368,18.207-248.368,18.207-248.459,18.931Zm6.811-1.086h-4.933c-.2,0-.294-.045-.294-.272V12.346a.936.936,0,0,1,1.018-1.041h3.462a.927.927,0,0,1,1,1v5.25C-241.353,17.8-241.421,17.845-241.647,17.845Zm3.123,1.064c-.068.611-.068.611-.679.611-.453,0-.453,0-.52-.453a5.689,5.689,0,0,0-.091-.611c-.023-.158-.023-.249.181-.226a4.331,4.331,0,0,0,.543,0c.181.023.5-.113.611.045C-238.366,18.388-238.5,18.682-238.525,18.909Zm2.67-2.783a1.523,1.523,0,0,1-1.72,1.72c-1.018,0-2.059-.023-3.078,0-.317,0-.339-.091-.339-.362.023-1.675,0-3.326,0-5a1.348,1.348,0,0,0-1.539-1.539h-3.236a1.325,1.325,0,0,0-1.471,1.471v5.092c0,.249-.045.339-.317.339-1.064-.023-2.15,0-3.213,0a1.5,1.5,0,0,1-1.629-1.584V5.874c0-.272.113-.272.317-.272h15.886c.272,0,.339.068.339.339Zm-.294-10.907h-15.908c-.272,0-.339-.091-.317-.339a1.833,1.833,0,0,0,0-.5c-.045-.294.091-.339.339-.339h15.84c.294,0,.385.091.339.362a1.835,1.835,0,0,0,0,.5C-235.809,5.173-235.922,5.218-236.149,5.218Zm2.648,2.24a1.313,1.313,0,0,0-1.335.95c-.113.317-.339.136-.52.158-.2.023-.113-.158-.113-.249V6.87c0-.226.068-.272.272-.249.339.023.679,0,1,0h1.064c.158,0,.2.045.2.2C-232.89,7.458-232.89,7.458-233.5,7.458Zm-8.712,7.671c-.634.023-1.267,0-1.878,0h-1.923c-.2,0-.294.068-.294.294v1.312c0,.2.091.294.272.294h3.87q.306,0,.272-.272c0-.43-.023-.86,0-1.29C-241.9,15.2-241.987,15.107-242.213,15.129Zm-.113,1.448c-.158.181-.52.045-.815.045h-2.534c-.2,0-.294-.023-.272-.249.023-.294-.113-.679.068-.837.158-.136.543-.045.815-.045h2.512c.2,0,.294.023.272.272C-242.3,16.035-242.19,16.419-242.326,16.578Zm-1.335-3.055h1.493c.181,0,.272-.068.272-.249v-.747c0-.181-.068-.249-.249-.249h-1.539a.217.217,0,0,0-.249.249v.792Q-243.933,13.523-243.661,13.523Zm.294-.883h.475a1.7,1.7,0,0,0,.339,0c.272-.045.294.113.294.317,0,.158-.045.2-.2.181-.294,0-.611-.023-.905,0-.2,0-.181-.113-.181-.249C-243.548,12.776-243.616,12.618-243.367,12.64Zm.588,3.326h-2.67c-.158,0-.294.023-.294.2,0,.158.158.181.272.181h2.67c.136,0,.272,0,.294-.158C-242.485,15.989-242.62,15.967-242.779,15.967Zm-3.3-2.444h.747c1.064,0,1.064,0,1.041-.95V12.55c.023-.181-.091-.272-.272-.272h-1.493c-.181,0-.272.068-.272.272V13.3A.221.221,0,0,0-246.083,13.523Zm.136-.747c0-.136.068-.158.181-.158h.928c.249,0,.158.158.158.272.023.136.023.249-.181.226a3.331,3.331,0,0,0-.475,0,1.483,1.483,0,0,0-.317,0C-245.947,13.206-245.97,13.025-245.947,12.776Zm1.652-.226v-.023c.023-.181-.091-.272-.272-.272h-1.493c-.181,0-.272.068-.272.272v.747c0,.181.068.249.249.249h.747C-244.25,13.523-244.25,13.523-244.295,12.55Zm-.566.588a3.331,3.331,0,0,0-.475,0,1.483,1.483,0,0,0-.317,0c-.317.068-.317-.113-.317-.362,0-.136.068-.158.181-.158h.928c.249,0,.158.158.158.272C-244.657,13.048-244.657,13.161-244.861,13.138Zm2.082,2.829h-2.67c-.158,0-.294.023-.294.2,0,.158.158.181.272.181h2.67c.136,0,.272,0,.294-.158C-242.485,15.989-242.62,15.967-242.779,15.967Zm.883-3.462c0-.181-.068-.249-.249-.249h-1.539a.217.217,0,0,0-.249.249V13.3c0,.181.091.226.249.226h1.494c.181,0,.272-.068.272-.249C-241.9,13-241.9,12.753-241.9,12.5Zm-.385.453c0,.158-.045.2-.2.181-.294,0-.611-.023-.905,0-.2,0-.181-.113-.181-.249,0-.113-.068-.294.181-.272h.475a1.7,1.7,0,0,0,.339,0C-242.281,12.572-242.258,12.731-242.281,12.957Zm-.5,3.01h-2.67c-.158,0-.294.023-.294.2,0,.158.158.181.272.181h2.67c.136,0,.272,0,.294-.158C-242.485,15.989-242.62,15.967-242.779,15.967Zm.883-.52c0-.249-.091-.339-.339-.317-.634.023-1.267,0-1.878,0h-1.923c-.2,0-.294.068-.294.294v1.312c0,.2.091.294.272.294h3.87q.305,0,.272-.272C-241.9,16.306-241.919,15.876-241.9,15.446Zm-.43,1.131c-.158.181-.52.045-.815.045h-2.534c-.2,0-.294-.023-.272-.249.023-.294-.113-.679.068-.837.158-.136.543-.045.815-.045h2.512c.2,0,.294.023.272.272C-242.3,16.035-242.19,16.419-242.326,16.578Zm-.453-.611h-2.67c-.158,0-.294.023-.294.2,0,.158.158.181.272.181h2.67c.136,0,.272,0,.294-.158C-242.485,15.989-242.62,15.967-242.779,15.967Zm0,0h-2.67c-.158,0-.294.023-.294.2,0,.158.158.181.272.181h2.67c.136,0,.272,0,.294-.158C-242.485,15.989-242.62,15.967-242.779,15.967Zm0,0h-2.67c-.158,0-.294.023-.294.2,0,.158.158.181.272.181h2.67c.136,0,.272,0,.294-.158C-242.485,15.989-242.62,15.967-242.779,15.967Zm.883-.52c0-.249-.091-.339-.339-.317-.634.023-1.267,0-1.878,0h-1.923c-.2,0-.294.068-.294.294v1.312c0,.2.091.294.272.294h3.87q.305,0,.272-.272C-241.9,16.306-241.919,15.876-241.9,15.446Zm-.43,1.131c-.158.181-.52.045-.815.045h-2.534c-.2,0-.294-.023-.272-.249.023-.294-.113-.679.068-.837.158-.136.543-.045.815-.045h2.512c.2,0,.294.023.272.272C-242.3,16.035-242.19,16.419-242.326,16.578Zm-.453-.611h-2.67c-.158,0-.294.023-.294.2,0,.158.158.181.272.181h2.67c.136,0,.272,0,.294-.158C-242.485,15.989-242.62,15.967-242.779,15.967Zm0,0h-2.67c-.158,0-.294.023-.294.2,0,.158.158.181.272.181h2.67c.136,0,.272,0,.294-.158C-242.485,15.989-242.62,15.967-242.779,15.967Zm.883-3.462c0-.181-.068-.249-.249-.249h-1.539a.217.217,0,0,0-.249.249V13.3c0,.181.091.226.249.226h1.494c.181,0,.272-.068.272-.249C-241.9,13-241.9,12.753-241.9,12.5Zm-.385.453c0,.158-.045.2-.2.181-.294,0-.611-.023-.905,0-.2,0-.181-.113-.181-.249,0-.113-.068-.294.181-.272h.475a1.7,1.7,0,0,0,.339,0C-242.281,12.572-242.258,12.731-242.281,12.957Zm-.5,3.01h-2.67c-.158,0-.294.023-.294.2,0,.158.158.181.272.181h2.67c.136,0,.272,0,.294-.158C-242.485,15.989-242.62,15.967-242.779,15.967Zm-1.516-3.417v-.023c.023-.181-.091-.272-.272-.272h-1.493c-.181,0-.272.068-.272.272v.747c0,.181.068.249.249.249h.747C-244.25,13.523-244.25,13.523-244.295,12.55Zm-.566.588a3.331,3.331,0,0,0-.475,0,1.483,1.483,0,0,0-.317,0c-.317.068-.317-.113-.317-.362,0-.136.068-.158.181-.158h.928c.249,0,.158.158.158.272C-244.657,13.048-244.657,13.161-244.861,13.138Zm.566-.588v-.023c.023-.181-.091-.272-.272-.272h-1.493c-.181,0-.272.068-.272.272v.747c0,.181.068.249.249.249h.747C-244.25,13.523-244.25,13.523-244.295,12.55Zm-.566.588a3.331,3.331,0,0,0-.475,0,1.483,1.483,0,0,0-.317,0c-.317.068-.317-.113-.317-.362,0-.136.068-.158.181-.158h.928c.249,0,.158.158.158.272C-244.657,13.048-244.657,13.161-244.861,13.138Zm2.964-.634c0-.181-.068-.249-.249-.249h-1.539a.217.217,0,0,0-.249.249V13.3c0,.181.091.226.249.226h1.494c.181,0,.272-.068.272-.249C-241.9,13-241.9,12.753-241.9,12.5Zm-.385.453c0,.158-.045.2-.2.181-.294,0-.611-.023-.905,0-.2,0-.181-.113-.181-.249,0-.113-.068-.294.181-.272h.475a1.7,1.7,0,0,0,.339,0C-242.281,12.572-242.258,12.731-242.281,12.957Zm-.5,3.01h-2.67c-.158,0-.294.023-.294.2,0,.158.158.181.272.181h2.67c.136,0,.272,0,.294-.158C-242.485,15.989-242.62,15.967-242.779,15.967Zm0,0h-2.67c-.158,0-.294.023-.294.2,0,.158.158.181.272.181h2.67c.136,0,.272,0,.294-.158C-242.485,15.989-242.62,15.967-242.779,15.967Zm.883-.52c0-.249-.091-.339-.339-.317-.634.023-1.267,0-1.878,0h-1.923c-.2,0-.294.068-.294.294v1.312c0,.2.091.294.272.294h3.87q.305,0,.272-.272C-241.9,16.306-241.919,15.876-241.9,15.446Zm-.43,1.131c-.158.181-.52.045-.815.045h-2.534c-.2,0-.294-.023-.272-.249.023-.294-.113-.679.068-.837.158-.136.543-.045.815-.045h2.512c.2,0,.294.023.272.272C-242.3,16.035-242.19,16.419-242.326,16.578Zm-.453-.611h-2.67c-.158,0-.294.023-.294.2,0,.158.158.181.272.181h2.67c.136,0,.272,0,.294-.158C-242.485,15.989-242.62,15.967-242.779,15.967Zm0,0h-2.67c-.158,0-.294.023-.294.2,0,.158.158.181.272.181h2.67c.136,0,.272,0,.294-.158C-242.485,15.989-242.62,15.967-242.779,15.967Zm0,0h-2.67c-.158,0-.294.023-.294.2,0,.158.158.181.272.181h2.67c.136,0,.272,0,.294-.158C-242.485,15.989-242.62,15.967-242.779,15.967Zm0,0h-2.67c-.158,0-.294.023-.294.2,0,.158.158.181.272.181h2.67c.136,0,.272,0,.294-.158C-242.485,15.989-242.62,15.967-242.779,15.967Zm0,0h-2.67c-.158,0-.294.023-.294.2,0,.158.158.181.272.181h2.67c.136,0,.272,0,.294-.158C-242.485,15.989-242.62,15.967-242.779,15.967Zm.883-.52c0-.249-.091-.339-.339-.317-.634.023-1.267,0-1.878,0h-1.923c-.2,0-.294.068-.294.294v1.312c0,.2.091.294.272.294h3.87q.305,0,.272-.272C-241.9,16.306-241.919,15.876-241.9,15.446Zm-.43,1.131c-.158.181-.52.045-.815.045h-2.534c-.2,0-.294-.023-.272-.249.023-.294-.113-.679.068-.837.158-.136.543-.045.815-.045h2.512c.2,0,.294.023.272.272C-242.3,16.035-242.19,16.419-242.326,16.578Zm-.453-.611h-2.67c-.158,0-.294.023-.294.2,0,.158.158.181.272.181h2.67c.136,0,.272,0,.294-.158C-242.485,15.989-242.62,15.967-242.779,15.967Zm0,0h-2.67c-.158,0-.294.023-.294.2,0,.158.158.181.272.181h2.67c.136,0,.272,0,.294-.158C-242.485,15.989-242.62,15.967-242.779,15.967Zm0,0h-2.67c-.158,0-.294.023-.294.2,0,.158.158.181.272.181h2.67c.136,0,.272,0,.294-.158C-242.485,15.989-242.62,15.967-242.779,15.967Zm.883-3.462c0-.181-.068-.249-.249-.249h-1.539a.217.217,0,0,0-.249.249V13.3c0,.181.091.226.249.226h1.494c.181,0,.272-.068.272-.249C-241.9,13-241.9,12.753-241.9,12.5Zm-.385.453c0,.158-.045.2-.2.181-.294,0-.611-.023-.905,0-.2,0-.181-.113-.181-.249,0-.113-.068-.294.181-.272h.475a1.7,1.7,0,0,0,.339,0C-242.281,12.572-242.258,12.731-242.281,12.957Zm-2.014-.407v-.023c.023-.181-.091-.272-.272-.272h-1.493c-.181,0-.272.068-.272.272v.747c0,.181.068.249.249.249h.747C-244.25,13.523-244.25,13.523-244.295,12.55Zm-.566.588a3.331,3.331,0,0,0-.475,0,1.483,1.483,0,0,0-.317,0c-.317.068-.317-.113-.317-.362,0-.136.068-.158.181-.158h.928c.249,0,.158.158.158.272C-244.657,13.048-244.657,13.161-244.861,13.138Zm.566-.588v-.023c.023-.181-.091-.272-.272-.272h-1.493c-.181,0-.272.068-.272.272v.747c0,.181.068.249.249.249h.747C-244.25,13.523-244.25,13.523-244.295,12.55Zm-.566.588a3.331,3.331,0,0,0-.475,0,1.483,1.483,0,0,0-.317,0c-.317.068-.317-.113-.317-.362,0-.136.068-.158.181-.158h.928c.249,0,.158.158.158.272C-244.657,13.048-244.657,13.161-244.861,13.138Zm2.964-.634c0-.181-.068-.249-.249-.249h-1.539a.217.217,0,0,0-.249.249V13.3c0,.181.091.226.249.226h1.494c.181,0,.272-.068.272-.249C-241.9,13-241.9,12.753-241.9,12.5Zm-.385.453c0,.158-.045.2-.2.181-.294,0-.611-.023-.905,0-.2,0-.181-.113-.181-.249,0-.113-.068-.294.181-.272h.475a1.7,1.7,0,0,0,.339,0C-242.281,12.572-242.258,12.731-242.281,12.957Zm-.5,3.01h-2.67c-.158,0-.294.023-.294.2,0,.158.158.181.272.181h2.67c.136,0,.272,0,.294-.158C-242.485,15.989-242.62,15.967-242.779,15.967Zm0,0h-2.67c-.158,0-.294.023-.294.2,0,.158.158.181.272.181h2.67c.136,0,.272,0,.294-.158C-242.485,15.989-242.62,15.967-242.779,15.967Zm.883-.52c0-.249-.091-.339-.339-.317-.634.023-1.267,0-1.878,0h-1.923c-.2,0-.294.068-.294.294v1.312c0,.2.091.294.272.294h3.87q.305,0,.272-.272C-241.9,16.306-241.919,15.876-241.9,15.446Zm-.43,1.131c-.158.181-.52.045-.815.045h-2.534c-.2,0-.294-.023-.272-.249.023-.294-.113-.679.068-.837.158-.136.543-.045.815-.045h2.512c.2,0,.294.023.272.272C-242.3,16.035-242.19,16.419-242.326,16.578Zm-.453-.611h-2.67c-.158,0-.294.023-.294.2,0,.158.158.181.272.181h2.67c.136,0,.272,0,.294-.158C-242.485,15.989-242.62,15.967-242.779,15.967Zm0,0h-2.67c-.158,0-.294.023-.294.2,0,.158.158.181.272.181h2.67c.136,0,.272,0,.294-.158C-242.485,15.989-242.62,15.967-242.779,15.967Zm0,0h-2.67c-.158,0-.294.023-.294.2,0,.158.158.181.272.181h2.67c.136,0,.272,0,.294-.158C-242.485,15.989-242.62,15.967-242.779,15.967Zm0,0h-2.67c-.158,0-.294.023-.294.2,0,.158.158.181.272.181h2.67c.136,0,.272,0,.294-.158C-242.485,15.989-242.62,15.967-242.779,15.967Zm0,0h-2.67c-.158,0-.294.023-.294.2,0,.158.158.181.272.181h2.67c.136,0,.272,0,.294-.158C-242.485,15.989-242.62,15.967-242.779,15.967Zm.883-.52c0-.249-.091-.339-.339-.317-.634.023-1.267,0-1.878,0h-1.923c-.2,0-.294.068-.294.294v1.312c0,.2.091.294.272.294h3.87q.305,0,.272-.272C-241.9,16.306-241.919,15.876-241.9,15.446Zm-.43,1.131c-.158.181-.52.045-.815.045h-2.534c-.2,0-.294-.023-.272-.249.023-.294-.113-.679.068-.837.158-.136.543-.045.815-.045h2.512c.2,0,.294.023.272.272C-242.3,16.035-242.19,16.419-242.326,16.578Zm-.453-.611h-2.67c-.158,0-.294.023-.294.2,0,.158.158.181.272.181h2.67c.136,0,.272,0,.294-.158C-242.485,15.989-242.62,15.967-242.779,15.967Zm0,0h-2.67c-.158,0-.294.023-.294.2,0,.158.158.181.272.181h2.67c.136,0,.272,0,.294-.158C-242.485,15.989-242.62,15.967-242.779,15.967Zm0,0h-2.67c-.158,0-.294.023-.294.2,0,.158.158.181.272.181h2.67c.136,0,.272,0,.294-.158C-242.485,15.989-242.62,15.967-242.779,15.967Zm.883-3.462c0-.181-.068-.249-.249-.249h-1.539a.217.217,0,0,0-.249.249V13.3c0,.181.091.226.249.226h1.494c.181,0,.272-.068.272-.249C-241.9,13-241.9,12.753-241.9,12.5Zm-.385.453c0,.158-.045.2-.2.181-.294,0-.611-.023-.905,0-.2,0-.181-.113-.181-.249,0-.113-.068-.294.181-.272h.475a1.7,1.7,0,0,0,.339,0C-242.281,12.572-242.258,12.731-242.281,12.957Zm-2.014-.407v-.023c.023-.181-.091-.272-.272-.272h-1.493c-.181,0-.272.068-.272.272v.747c0,.181.068.249.249.249h.747C-244.25,13.523-244.25,13.523-244.295,12.55Zm-.566.588a3.331,3.331,0,0,0-.475,0,1.483,1.483,0,0,0-.317,0c-.317.068-.317-.113-.317-.362,0-.136.068-.158.181-.158h.928c.249,0,.158.158.158.272C-244.657,13.048-244.657,13.161-244.861,13.138Z" transform="translate(0)" fill="#e2211d"/>
    <path id="Caminho_168" data-name="Caminho 168" d="M-244.295,12.55v-.023c.023-.181-.091-.272-.272-.272h-1.493c-.181,0-.272.068-.272.272v.747c0,.181.068.249.249.249h.747C-244.25,13.523-244.25,13.523-244.295,12.55Zm-.566.588a3.331,3.331,0,0,0-.475,0,1.483,1.483,0,0,0-.317,0c-.317.068-.317-.113-.317-.362,0-.136.068-.158.181-.158h.928c.249,0,.158.158.158.272C-244.657,13.048-244.657,13.161-244.861,13.138Zm2.964-.634c0-.181-.068-.249-.249-.249h-1.539a.217.217,0,0,0-.249.249V13.3c0,.181.091.226.249.226h1.494c.181,0,.272-.068.272-.249C-241.9,13-241.9,12.753-241.9,12.5Zm-.385.453c0,.158-.045.2-.2.181-.294,0-.611-.023-.905,0-.2,0-.181-.113-.181-.249,0-.113-.068-.294.181-.272h.475a1.7,1.7,0,0,0,.339,0C-242.281,12.572-242.258,12.731-242.281,12.957Zm-.5,3.01h-2.67c-.158,0-.294.023-.294.2,0,.158.158.181.272.181h2.67c.136,0,.272,0,.294-.158C-242.485,15.989-242.62,15.967-242.779,15.967Zm0,0h-2.67c-.158,0-.294.023-.294.2,0,.158.158.181.272.181h2.67c.136,0,.272,0,.294-.158C-242.485,15.989-242.62,15.967-242.779,15.967Zm.883-.52c0-.249-.091-.339-.339-.317-.634.023-1.267,0-1.878,0h-1.923c-.2,0-.294.068-.294.294v1.312c0,.2.091.294.272.294h3.87q.305,0,.272-.272C-241.9,16.306-241.919,15.876-241.9,15.446Zm-.43,1.131c-.158.181-.52.045-.815.045h-2.534c-.2,0-.294-.023-.272-.249.023-.294-.113-.679.068-.837.158-.136.543-.045.815-.045h2.512c.2,0,.294.023.272.272C-242.3,16.035-242.19,16.419-242.326,16.578Zm-.453-.611h-2.67c-.158,0-.294.023-.294.2,0,.158.158.181.272.181h2.67c.136,0,.272,0,.294-.158C-242.485,15.989-242.62,15.967-242.779,15.967Zm0,0h-2.67c-.158,0-.294.023-.294.2,0,.158.158.181.272.181h2.67c.136,0,.272,0,.294-.158C-242.485,15.989-242.62,15.967-242.779,15.967Zm0,0h-2.67c-.158,0-.294.023-.294.2,0,.158.158.181.272.181h2.67c.136,0,.272,0,.294-.158C-242.485,15.989-242.62,15.967-242.779,15.967Zm0,0h-2.67c-.158,0-.294.023-.294.2,0,.158.158.181.272.181h2.67c.136,0,.272,0,.294-.158C-242.485,15.989-242.62,15.967-242.779,15.967Zm0,0h-2.67c-.158,0-.294.023-.294.2,0,.158.158.181.272.181h2.67c.136,0,.272,0,.294-.158C-242.485,15.989-242.62,15.967-242.779,15.967Zm.883-.52c0-.249-.091-.339-.339-.317-.634.023-1.267,0-1.878,0h-1.923c-.2,0-.294.068-.294.294v1.312c0,.2.091.294.272.294h3.87q.305,0,.272-.272C-241.9,16.306-241.919,15.876-241.9,15.446Zm-.43,1.131c-.158.181-.52.045-.815.045h-2.534c-.2,0-.294-.023-.272-.249.023-.294-.113-.679.068-.837.158-.136.543-.045.815-.045h2.512c.2,0,.294.023.272.272C-242.3,16.035-242.19,16.419-242.326,16.578Zm-.453-.611h-2.67c-.158,0-.294.023-.294.2,0,.158.158.181.272.181h2.67c.136,0,.272,0,.294-.158C-242.485,15.989-242.62,15.967-242.779,15.967Zm0,0h-2.67c-.158,0-.294.023-.294.2,0,.158.158.181.272.181h2.67c.136,0,.272,0,.294-.158C-242.485,15.989-242.62,15.967-242.779,15.967Zm0,0h-2.67c-.158,0-.294.023-.294.2,0,.158.158.181.272.181h2.67c.136,0,.272,0,.294-.158C-242.485,15.989-242.62,15.967-242.779,15.967Zm.883-3.462c0-.181-.068-.249-.249-.249h-1.539a.217.217,0,0,0-.249.249V13.3c0,.181.091.226.249.226h1.494c.181,0,.272-.068.272-.249C-241.9,13-241.9,12.753-241.9,12.5Zm-.385.453c0,.158-.045.2-.2.181-.294,0-.611-.023-.905,0-.2,0-.181-.113-.181-.249,0-.113-.068-.294.181-.272h.475a1.7,1.7,0,0,0,.339,0C-242.281,12.572-242.258,12.731-242.281,12.957Zm-2.014-.407v-.023c.023-.181-.091-.272-.272-.272h-1.493c-.181,0-.272.068-.272.272v.747c0,.181.068.249.249.249h.747C-244.25,13.523-244.25,13.523-244.295,12.55Zm-.566.588a3.331,3.331,0,0,0-.475,0,1.483,1.483,0,0,0-.317,0c-.317.068-.317-.113-.317-.362,0-.136.068-.158.181-.158h.928c.249,0,.158.158.158.272C-244.657,13.048-244.657,13.161-244.861,13.138Zm.566-.588v-.023c.023-.181-.091-.272-.272-.272h-1.493c-.181,0-.272.068-.272.272v.747c0,.181.068.249.249.249h.747C-244.25,13.523-244.25,13.523-244.295,12.55Zm-.566.588a3.331,3.331,0,0,0-.475,0,1.483,1.483,0,0,0-.317,0c-.317.068-.317-.113-.317-.362,0-.136.068-.158.181-.158h.928c.249,0,.158.158.158.272C-244.657,13.048-244.657,13.161-244.861,13.138Zm2.964-.634c0-.181-.068-.249-.249-.249h-1.539a.217.217,0,0,0-.249.249V13.3c0,.181.091.226.249.226h1.494c.181,0,.272-.068.272-.249C-241.9,13-241.9,12.753-241.9,12.5Zm-.385.453c0,.158-.045.2-.2.181-.294,0-.611-.023-.905,0-.2,0-.181-.113-.181-.249,0-.113-.068-.294.181-.272h.475a1.7,1.7,0,0,0,.339,0C-242.281,12.572-242.258,12.731-242.281,12.957Zm-.5,3.01h-2.67c-.158,0-.294.023-.294.2,0,.158.158.181.272.181h2.67c.136,0,.272,0,.294-.158C-242.485,15.989-242.62,15.967-242.779,15.967Zm0,0h-2.67c-.158,0-.294.023-.294.2,0,.158.158.181.272.181h2.67c.136,0,.272,0,.294-.158C-242.485,15.989-242.62,15.967-242.779,15.967Zm.883-.52c0-.249-.091-.339-.339-.317-.634.023-1.267,0-1.878,0h-1.923c-.2,0-.294.068-.294.294v1.312c0,.2.091.294.272.294h3.87q.305,0,.272-.272C-241.9,16.306-241.919,15.876-241.9,15.446Zm-.43,1.131c-.158.181-.52.045-.815.045h-2.534c-.2,0-.294-.023-.272-.249.023-.294-.113-.679.068-.837.158-.136.543-.045.815-.045h2.512c.2,0,.294.023.272.272C-242.3,16.035-242.19,16.419-242.326,16.578Zm-.453-.611h-2.67c-.158,0-.294.023-.294.2,0,.158.158.181.272.181h2.67c.136,0,.272,0,.294-.158C-242.485,15.989-242.62,15.967-242.779,15.967Zm0,0h-2.67c-.158,0-.294.023-.294.2,0,.158.158.181.272.181h2.67c.136,0,.272,0,.294-.158C-242.485,15.989-242.62,15.967-242.779,15.967Zm0,0h-2.67c-.158,0-.294.023-.294.2,0,.158.158.181.272.181h2.67c.136,0,.272,0,.294-.158C-242.485,15.989-242.62,15.967-242.779,15.967Zm0,0h-2.67c-.158,0-.294.023-.294.2,0,.158.158.181.272.181h2.67c.136,0,.272,0,.294-.158C-242.485,15.989-242.62,15.967-242.779,15.967Zm0,0h-2.67c-.158,0-.294.023-.294.2,0,.158.158.181.272.181h2.67c.136,0,.272,0,.294-.158C-242.485,15.989-242.62,15.967-242.779,15.967Zm.883-.52c0-.249-.091-.339-.339-.317-.634.023-1.267,0-1.878,0h-1.923c-.2,0-.294.068-.294.294v1.312c0,.2.091.294.272.294h3.87q.305,0,.272-.272C-241.9,16.306-241.919,15.876-241.9,15.446Zm-.43,1.131c-.158.181-.52.045-.815.045h-2.534c-.2,0-.294-.023-.272-.249.023-.294-.113-.679.068-.837.158-.136.543-.045.815-.045h2.512c.2,0,.294.023.272.272C-242.3,16.035-242.19,16.419-242.326,16.578Zm-.453-.611h-2.67c-.158,0-.294.023-.294.2,0,.158.158.181.272.181h2.67c.136,0,.272,0,.294-.158C-242.485,15.989-242.62,15.967-242.779,15.967Zm0,0h-2.67c-.158,0-.294.023-.294.2,0,.158.158.181.272.181h2.67c.136,0,.272,0,.294-.158C-242.485,15.989-242.62,15.967-242.779,15.967Zm.883-3.462c0-.181-.068-.249-.249-.249h-1.539a.217.217,0,0,0-.249.249V13.3c0,.181.091.226.249.226h1.494c.181,0,.272-.068.272-.249C-241.9,13-241.9,12.753-241.9,12.5Zm-.385.453c0,.158-.045.2-.2.181-.294,0-.611-.023-.905,0-.2,0-.181-.113-.181-.249,0-.113-.068-.294.181-.272h.475a1.7,1.7,0,0,0,.339,0C-242.281,12.572-242.258,12.731-242.281,12.957Zm-.5,3.01h-2.67c-.158,0-.294.023-.294.2,0,.158.158.181.272.181h2.67c.136,0,.272,0,.294-.158C-242.485,15.989-242.62,15.967-242.779,15.967Zm-1.516-3.417v-.023c.023-.181-.091-.272-.272-.272h-1.493c-.181,0-.272.068-.272.272v.747c0,.181.068.249.249.249h.747C-244.25,13.523-244.25,13.523-244.295,12.55Zm-.566.588a3.331,3.331,0,0,0-.475,0,1.483,1.483,0,0,0-.317,0c-.317.068-.317-.113-.317-.362,0-.136.068-.158.181-.158h.928c.249,0,.158.158.158.272C-244.657,13.048-244.657,13.161-244.861,13.138Zm.566-.588v-.023c.023-.181-.091-.272-.272-.272h-1.493c-.181,0-.272.068-.272.272v.747c0,.181.068.249.249.249h.747C-244.25,13.523-244.25,13.523-244.295,12.55Zm-.566.588a3.331,3.331,0,0,0-.475,0,1.483,1.483,0,0,0-.317,0c-.317.068-.317-.113-.317-.362,0-.136.068-.158.181-.158h.928c.249,0,.158.158.158.272C-244.657,13.048-244.657,13.161-244.861,13.138Zm2.082,2.829h-2.67c-.158,0-.294.023-.294.2,0,.158.158.181.272.181h2.67c.136,0,.272,0,.294-.158C-242.485,15.989-242.62,15.967-242.779,15.967Zm.883-3.462c0-.181-.068-.249-.249-.249h-1.539a.217.217,0,0,0-.249.249V13.3c0,.181.091.226.249.226h1.494c.181,0,.272-.068.272-.249C-241.9,13-241.9,12.753-241.9,12.5Zm-.385.453c0,.158-.045.2-.2.181-.294,0-.611-.023-.905,0-.2,0-.181-.113-.181-.249,0-.113-.068-.294.181-.272h.475a1.7,1.7,0,0,0,.339,0C-242.281,12.572-242.258,12.731-242.281,12.957Zm-.5,3.01h-2.67c-.158,0-.294.023-.294.2,0,.158.158.181.272.181h2.67c.136,0,.272,0,.294-.158C-242.485,15.989-242.62,15.967-242.779,15.967Zm.883-.52c0-.249-.091-.339-.339-.317-.634.023-1.267,0-1.878,0h-1.923c-.2,0-.294.068-.294.294v1.312c0,.2.091.294.272.294h3.87q.305,0,.272-.272C-241.9,16.306-241.919,15.876-241.9,15.446Zm-.43,1.131c-.158.181-.52.045-.815.045h-2.534c-.2,0-.294-.023-.272-.249.023-.294-.113-.679.068-.837.158-.136.543-.045.815-.045h2.512c.2,0,.294.023.272.272C-242.3,16.035-242.19,16.419-242.326,16.578Zm-.453-.611h-2.67c-.158,0-.294.023-.294.2,0,.158.158.181.272.181h2.67c.136,0,.272,0,.294-.158C-242.485,15.989-242.62,15.967-242.779,15.967Zm.883-.52c0-.249-.091-.339-.339-.317-.634.023-1.267,0-1.878,0h-1.923c-.2,0-.294.068-.294.294v1.312c0,.2.091.294.272.294h3.87q.305,0,.272-.272C-241.9,16.306-241.919,15.876-241.9,15.446Zm-.43,1.131c-.158.181-.52.045-.815.045h-2.534c-.2,0-.294-.023-.272-.249.023-.294-.113-.679.068-.837.158-.136.543-.045.815-.045h2.512c.2,0,.294.023.272.272C-242.3,16.035-242.19,16.419-242.326,16.578Zm-1.335-3.055h1.493c.181,0,.272-.068.272-.249v-.747c0-.181-.068-.249-.249-.249h-1.539a.217.217,0,0,0-.249.249v.792Q-243.933,13.523-243.661,13.523Zm.294-.883h.475a1.7,1.7,0,0,0,.339,0c.272-.045.294.113.294.317,0,.158-.045.2-.2.181-.294,0-.611-.023-.905,0-.2,0-.181-.113-.181-.249C-243.548,12.776-243.616,12.618-243.367,12.64Zm.588,3.326h-2.67c-.158,0-.294.023-.294.2,0,.158.158.181.272.181h2.67c.136,0,.272,0,.294-.158C-242.485,15.989-242.62,15.967-242.779,15.967Zm-3.3-2.444h.747c1.064,0,1.064,0,1.041-.95V12.55c.023-.181-.091-.272-.272-.272h-1.493c-.181,0-.272.068-.272.272V13.3A.221.221,0,0,0-246.083,13.523Zm.136-.747c0-.136.068-.158.181-.158h.928c.249,0,.158.158.158.272.023.136.023.249-.181.226a3.331,3.331,0,0,0-.475,0,1.483,1.483,0,0,0-.317,0C-245.947,13.206-245.97,13.025-245.947,12.776Zm13.4-6c0-.362-.158-.5-.52-.5h-2.15c-.226,0-.249-.068-.249-.272V3.091a4.919,4.919,0,0,0-.045-.815,3.746,3.746,0,0,0-3.734-3.1h-3.213c-.226,0-.294-.068-.272-.272a4.626,4.626,0,0,0,0-.792,1.388,1.388,0,0,0-1.38-1.312,1.381,1.381,0,0,0-1.38,1.358c0,.272-.023.52,0,.792.023.226-.068.249-.272.249h-3.123a3.75,3.75,0,0,0-3.892,3.87c0,.95-.023,1.9,0,2.851,0,.317-.091.385-.385.362-.679-.023-1.358,0-2.037,0-.339,0-.475.136-.5.475V7.39c.023.339.158.475.5.475h.543a.889.889,0,0,1,.905.769c.023.317.181.385.453.362h.249c.249-.045.294.045.294.294-.023,1.2,0,2.4,0,3.575v3.417a1.856,1.856,0,0,0,1.607,1.923,4.568,4.568,0,0,0,.792.023c.158,0,.226.023.226.2.045.407.113.815.158,1.222.023.2.113.272.317.272h1.2c.181,0,.272-.068.294-.249.045-.407.113-.815.158-1.222.023-.158.045-.226.226-.226h7.4c.158,0,.2.045.226.2.045.407.113.815.158,1.222.023.181.113.249.294.249h1.222a.24.24,0,0,0,.272-.272c.023-.317.068-.634.113-.928.068-.475.068-.5.543-.475a1.977,1.977,0,0,0,2.127-2.1c-.045-2.172,0-4.345,0-6.517,0-.634,0-.634.634-.634.226,0,.317-.068.339-.294a.921.921,0,0,1,.95-.837h.543a.406.406,0,0,0,.453-.453A2.782,2.782,0,0,1-232.551,6.779Zm-20.208.837v.747c0,.091.045.249-.136.2-.158-.023-.385.136-.475-.113-.317-.792-.679-1-1.584-1.018-.113,0-.294.091-.317-.068a1.473,1.473,0,0,1,.023-.7c0-.023.113-.023.181-.023h2.127c.158,0,.2.045.2.2C-252.758,7.1-252.758,7.368-252.758,7.617Zm7.649-9.459a1.032,1.032,0,0,1,.973-1,1,1,0,0,1,1.018.95c.023.294,0,.588,0,.883,0,.158-.068.181-.2.181h-1.629c-.136,0-.181-.023-.181-.181C-245.11-1.277-245.132-1.571-245.11-1.842Zm-6.721,2.919a3.278,3.278,0,0,1,2.851-1.516h9.708a3.361,3.361,0,0,1,3.417,3.3c.023.815.023.815-.769.815h-15.41c-.294,0-.339-.091-.362-.362A3.859,3.859,0,0,1-251.83,1.077Zm3.372,17.854c-.091.588-.091.588-.679.588-.453,0-.453,0-.52-.453a5.689,5.689,0,0,0-.091-.611c-.045-.2.023-.249.226-.226a3.33,3.33,0,0,0,.475,0C-248.368,18.207-248.368,18.207-248.459,18.931Zm6.811-1.086h-4.933c-.2,0-.294-.045-.294-.272V12.346a.936.936,0,0,1,1.018-1.041h3.462a.927.927,0,0,1,1,1v5.25C-241.353,17.8-241.421,17.845-241.647,17.845Zm3.123,1.064c-.068.611-.068.611-.679.611-.453,0-.453,0-.52-.453a5.689,5.689,0,0,0-.091-.611c-.023-.158-.023-.249.181-.226a4.331,4.331,0,0,0,.543,0c.181.023.5-.113.611.045C-238.366,18.388-238.5,18.682-238.525,18.909Zm2.67-2.783a1.523,1.523,0,0,1-1.72,1.72c-1.018,0-2.059-.023-3.078,0-.317,0-.339-.091-.339-.362.023-1.675,0-3.326,0-5a1.348,1.348,0,0,0-1.539-1.539h-3.236a1.325,1.325,0,0,0-1.471,1.471v5.092c0,.249-.045.339-.317.339-1.064-.023-2.15,0-3.213,0a1.5,1.5,0,0,1-1.629-1.584V5.874c0-.272.113-.272.317-.272h15.886c.272,0,.339.068.339.339Zm-.294-10.907h-15.908c-.272,0-.339-.091-.317-.339a1.833,1.833,0,0,0,0-.5c-.045-.294.091-.339.339-.339h15.84c.294,0,.385.091.339.362a1.835,1.835,0,0,0,0,.5C-235.809,5.173-235.922,5.218-236.149,5.218Zm2.648,2.24a1.313,1.313,0,0,0-1.335.95c-.113.317-.339.136-.52.158-.2.023-.113-.158-.113-.249V6.87c0-.226.068-.272.272-.249.339.023.679,0,1,0h1.064c.158,0,.2.045.2.2C-232.89,7.458-232.89,7.458-233.5,7.458Zm-8.712,7.671c-.634.023-1.267,0-1.878,0h-1.923c-.2,0-.294.068-.294.294v1.312c0,.2.091.294.272.294h3.87q.306,0,.272-.272c0-.43-.023-.86,0-1.29C-241.9,15.2-241.987,15.107-242.213,15.129Zm-.113,1.448c-.158.181-.52.045-.815.045h-2.534c-.2,0-.294-.023-.272-.249.023-.294-.113-.679.068-.837.158-.136.543-.045.815-.045h2.512c.2,0,.294.023.272.272C-242.3,16.035-242.19,16.419-242.326,16.578Zm-1.335-3.055h1.493c.181,0,.272-.068.272-.249v-.747c0-.181-.068-.249-.249-.249h-1.539a.217.217,0,0,0-.249.249v.792Q-243.933,13.523-243.661,13.523Zm.294-.883h.475a1.7,1.7,0,0,0,.339,0c.272-.045.294.113.294.317,0,.158-.045.2-.2.181-.294,0-.611-.023-.905,0-.2,0-.181-.113-.181-.249C-243.548,12.776-243.616,12.618-243.367,12.64Zm.588,3.326h-2.67c-.158,0-.294.023-.294.2,0,.158.158.181.272.181h2.67c.136,0,.272,0,.294-.158C-242.485,15.989-242.62,15.967-242.779,15.967Zm-3.3-2.444h.747c1.064,0,1.064,0,1.041-.95V12.55c.023-.181-.091-.272-.272-.272h-1.493c-.181,0-.272.068-.272.272V13.3A.221.221,0,0,0-246.083,13.523Zm.136-.747c0-.136.068-.158.181-.158h.928c.249,0,.158.158.158.272.023.136.023.249-.181.226a3.331,3.331,0,0,0-.475,0,1.483,1.483,0,0,0-.317,0C-245.947,13.206-245.97,13.025-245.947,12.776Zm1.652-.226v-.023c.023-.181-.091-.272-.272-.272h-1.493c-.181,0-.272.068-.272.272v.747c0,.181.068.249.249.249h.747C-244.25,13.523-244.25,13.523-244.295,12.55Zm-.566.588a3.331,3.331,0,0,0-.475,0,1.483,1.483,0,0,0-.317,0c-.317.068-.317-.113-.317-.362,0-.136.068-.158.181-.158h.928c.249,0,.158.158.158.272C-244.657,13.048-244.657,13.161-244.861,13.138Zm2.082,2.829h-2.67c-.158,0-.294.023-.294.2,0,.158.158.181.272.181h2.67c.136,0,.272,0,.294-.158C-242.485,15.989-242.62,15.967-242.779,15.967Zm.883-3.462c0-.181-.068-.249-.249-.249h-1.539a.217.217,0,0,0-.249.249V13.3c0,.181.091.226.249.226h1.494c.181,0,.272-.068.272-.249C-241.9,13-241.9,12.753-241.9,12.5Zm-.385.453c0,.158-.045.2-.2.181-.294,0-.611-.023-.905,0-.2,0-.181-.113-.181-.249,0-.113-.068-.294.181-.272h.475a1.7,1.7,0,0,0,.339,0C-242.281,12.572-242.258,12.731-242.281,12.957Zm-.5,3.01h-2.67c-.158,0-.294.023-.294.2,0,.158.158.181.272.181h2.67c.136,0,.272,0,.294-.158C-242.485,15.989-242.62,15.967-242.779,15.967Zm.883-.52c0-.249-.091-.339-.339-.317-.634.023-1.267,0-1.878,0h-1.923c-.2,0-.294.068-.294.294v1.312c0,.2.091.294.272.294h3.87q.305,0,.272-.272C-241.9,16.306-241.919,15.876-241.9,15.446Zm-.43,1.131c-.158.181-.52.045-.815.045h-2.534c-.2,0-.294-.023-.272-.249.023-.294-.113-.679.068-.837.158-.136.543-.045.815-.045h2.512c.2,0,.294.023.272.272C-242.3,16.035-242.19,16.419-242.326,16.578Zm-.453-.611h-2.67c-.158,0-.294.023-.294.2,0,.158.158.181.272.181h2.67c.136,0,.272,0,.294-.158C-242.485,15.989-242.62,15.967-242.779,15.967Zm0,0h-2.67c-.158,0-.294.023-.294.2,0,.158.158.181.272.181h2.67c.136,0,.272,0,.294-.158C-242.485,15.989-242.62,15.967-242.779,15.967Zm0,0h-2.67c-.158,0-.294.023-.294.2,0,.158.158.181.272.181h2.67c.136,0,.272,0,.294-.158C-242.485,15.989-242.62,15.967-242.779,15.967Zm.883-.52c0-.249-.091-.339-.339-.317-.634.023-1.267,0-1.878,0h-1.923c-.2,0-.294.068-.294.294v1.312c0,.2.091.294.272.294h3.87q.305,0,.272-.272C-241.9,16.306-241.919,15.876-241.9,15.446Zm-.43,1.131c-.158.181-.52.045-.815.045h-2.534c-.2,0-.294-.023-.272-.249.023-.294-.113-.679.068-.837.158-.136.543-.045.815-.045h2.512c.2,0,.294.023.272.272C-242.3,16.035-242.19,16.419-242.326,16.578Zm-.453-.611h-2.67c-.158,0-.294.023-.294.2,0,.158.158.181.272.181h2.67c.136,0,.272,0,.294-.158C-242.485,15.989-242.62,15.967-242.779,15.967Zm0,0h-2.67c-.158,0-.294.023-.294.2,0,.158.158.181.272.181h2.67c.136,0,.272,0,.294-.158C-242.485,15.989-242.62,15.967-242.779,15.967Zm.883-3.462c0-.181-.068-.249-.249-.249h-1.539a.217.217,0,0,0-.249.249V13.3c0,.181.091.226.249.226h1.494c.181,0,.272-.068.272-.249C-241.9,13-241.9,12.753-241.9,12.5Zm-.385.453c0,.158-.045.2-.2.181-.294,0-.611-.023-.905,0-.2,0-.181-.113-.181-.249,0-.113-.068-.294.181-.272h.475a1.7,1.7,0,0,0,.339,0C-242.281,12.572-242.258,12.731-242.281,12.957Zm-.5,3.01h-2.67c-.158,0-.294.023-.294.2,0,.158.158.181.272.181h2.67c.136,0,.272,0,.294-.158C-242.485,15.989-242.62,15.967-242.779,15.967Zm-1.516-3.417v-.023c.023-.181-.091-.272-.272-.272h-1.493c-.181,0-.272.068-.272.272v.747c0,.181.068.249.249.249h.747C-244.25,13.523-244.25,13.523-244.295,12.55Zm-.566.588a3.331,3.331,0,0,0-.475,0,1.483,1.483,0,0,0-.317,0c-.317.068-.317-.113-.317-.362,0-.136.068-.158.181-.158h.928c.249,0,.158.158.158.272C-244.657,13.048-244.657,13.161-244.861,13.138Zm.566-.588v-.023c.023-.181-.091-.272-.272-.272h-1.493c-.181,0-.272.068-.272.272v.747c0,.181.068.249.249.249h.747C-244.25,13.523-244.25,13.523-244.295,12.55Zm-.566.588a3.331,3.331,0,0,0-.475,0,1.483,1.483,0,0,0-.317,0c-.317.068-.317-.113-.317-.362,0-.136.068-.158.181-.158h.928c.249,0,.158.158.158.272C-244.657,13.048-244.657,13.161-244.861,13.138Zm2.964-.634c0-.181-.068-.249-.249-.249h-1.539a.217.217,0,0,0-.249.249V13.3c0,.181.091.226.249.226h1.494c.181,0,.272-.068.272-.249C-241.9,13-241.9,12.753-241.9,12.5Zm-.385.453c0,.158-.045.2-.2.181-.294,0-.611-.023-.905,0-.2,0-.181-.113-.181-.249,0-.113-.068-.294.181-.272h.475a1.7,1.7,0,0,0,.339,0C-242.281,12.572-242.258,12.731-242.281,12.957Zm-.5,3.01h-2.67c-.158,0-.294.023-.294.2,0,.158.158.181.272.181h2.67c.136,0,.272,0,.294-.158C-242.485,15.989-242.62,15.967-242.779,15.967Zm0,0h-2.67c-.158,0-.294.023-.294.2,0,.158.158.181.272.181h2.67c.136,0,.272,0,.294-.158C-242.485,15.989-242.62,15.967-242.779,15.967Zm.883-.52c0-.249-.091-.339-.339-.317-.634.023-1.267,0-1.878,0h-1.923c-.2,0-.294.068-.294.294v1.312c0,.2.091.294.272.294h3.87q.305,0,.272-.272C-241.9,16.306-241.919,15.876-241.9,15.446Zm-.43,1.131c-.158.181-.52.045-.815.045h-2.534c-.2,0-.294-.023-.272-.249.023-.294-.113-.679.068-.837.158-.136.543-.045.815-.045h2.512c.2,0,.294.023.272.272C-242.3,16.035-242.19,16.419-242.326,16.578Zm-.453-.611h-2.67c-.158,0-.294.023-.294.2,0,.158.158.181.272.181h2.67c.136,0,.272,0,.294-.158C-242.485,15.989-242.62,15.967-242.779,15.967Zm0,0h-2.67c-.158,0-.294.023-.294.2,0,.158.158.181.272.181h2.67c.136,0,.272,0,.294-.158C-242.485,15.989-242.62,15.967-242.779,15.967Zm0,0h-2.67c-.158,0-.294.023-.294.2,0,.158.158.181.272.181h2.67c.136,0,.272,0,.294-.158C-242.485,15.989-242.62,15.967-242.779,15.967Zm0,0h-2.67c-.158,0-.294.023-.294.2,0,.158.158.181.272.181h2.67c.136,0,.272,0,.294-.158C-242.485,15.989-242.62,15.967-242.779,15.967Zm0,0h-2.67c-.158,0-.294.023-.294.2,0,.158.158.181.272.181h2.67c.136,0,.272,0,.294-.158C-242.485,15.989-242.62,15.967-242.779,15.967Zm.883-.52c0-.249-.091-.339-.339-.317-.634.023-1.267,0-1.878,0h-1.923c-.2,0-.294.068-.294.294v1.312c0,.2.091.294.272.294h3.87q.305,0,.272-.272C-241.9,16.306-241.919,15.876-241.9,15.446Zm-.43,1.131c-.158.181-.52.045-.815.045h-2.534c-.2,0-.294-.023-.272-.249.023-.294-.113-.679.068-.837.158-.136.543-.045.815-.045h2.512c.2,0,.294.023.272.272C-242.3,16.035-242.19,16.419-242.326,16.578Zm-.453-.611h-2.67c-.158,0-.294.023-.294.2,0,.158.158.181.272.181h2.67c.136,0,.272,0,.294-.158C-242.485,15.989-242.62,15.967-242.779,15.967Zm0,0h-2.67c-.158,0-.294.023-.294.2,0,.158.158.181.272.181h2.67c.136,0,.272,0,.294-.158C-242.485,15.989-242.62,15.967-242.779,15.967Zm0,0h-2.67c-.158,0-.294.023-.294.2,0,.158.158.181.272.181h2.67c.136,0,.272,0,.294-.158C-242.485,15.989-242.62,15.967-242.779,15.967Zm.883-3.462c0-.181-.068-.249-.249-.249h-1.539a.217.217,0,0,0-.249.249V13.3c0,.181.091.226.249.226h1.494c.181,0,.272-.068.272-.249C-241.9,13-241.9,12.753-241.9,12.5Zm-.385.453c0,.158-.045.2-.2.181-.294,0-.611-.023-.905,0-.2,0-.181-.113-.181-.249,0-.113-.068-.294.181-.272h.475a1.7,1.7,0,0,0,.339,0C-242.281,12.572-242.258,12.731-242.281,12.957Zm-2.014-.407v-.023c.023-.181-.091-.272-.272-.272h-1.493c-.181,0-.272.068-.272.272v.747c0,.181.068.249.249.249h.747C-244.25,13.523-244.25,13.523-244.295,12.55Zm-.566.588a3.331,3.331,0,0,0-.475,0,1.483,1.483,0,0,0-.317,0c-.317.068-.317-.113-.317-.362,0-.136.068-.158.181-.158h.928c.249,0,.158.158.158.272C-244.657,13.048-244.657,13.161-244.861,13.138Zm.566-.588v-.023c.023-.181-.091-.272-.272-.272h-1.493c-.181,0-.272.068-.272.272v.747c0,.181.068.249.249.249h.747C-244.25,13.523-244.25,13.523-244.295,12.55Zm-.566.588a3.331,3.331,0,0,0-.475,0,1.483,1.483,0,0,0-.317,0c-.317.068-.317-.113-.317-.362,0-.136.068-.158.181-.158h.928c.249,0,.158.158.158.272C-244.657,13.048-244.657,13.161-244.861,13.138Zm2.964-.634c0-.181-.068-.249-.249-.249h-1.539a.217.217,0,0,0-.249.249V13.3c0,.181.091.226.249.226h1.494c.181,0,.272-.068.272-.249C-241.9,13-241.9,12.753-241.9,12.5Zm-.385.453c0,.158-.045.2-.2.181-.294,0-.611-.023-.905,0-.2,0-.181-.113-.181-.249,0-.113-.068-.294.181-.272h.475a1.7,1.7,0,0,0,.339,0C-242.281,12.572-242.258,12.731-242.281,12.957Zm-.5,3.01h-2.67c-.158,0-.294.023-.294.2,0,.158.158.181.272.181h2.67c.136,0,.272,0,.294-.158C-242.485,15.989-242.62,15.967-242.779,15.967Zm0,0h-2.67c-.158,0-.294.023-.294.2,0,.158.158.181.272.181h2.67c.136,0,.272,0,.294-.158C-242.485,15.989-242.62,15.967-242.779,15.967Zm.883-.52c0-.249-.091-.339-.339-.317-.634.023-1.267,0-1.878,0h-1.923c-.2,0-.294.068-.294.294v1.312c0,.2.091.294.272.294h3.87q.305,0,.272-.272C-241.9,16.306-241.919,15.876-241.9,15.446Zm-.43,1.131c-.158.181-.52.045-.815.045h-2.534c-.2,0-.294-.023-.272-.249.023-.294-.113-.679.068-.837.158-.136.543-.045.815-.045h2.512c.2,0,.294.023.272.272C-242.3,16.035-242.19,16.419-242.326,16.578Zm-.453-.611h-2.67c-.158,0-.294.023-.294.2,0,.158.158.181.272.181h2.67c.136,0,.272,0,.294-.158C-242.485,15.989-242.62,15.967-242.779,15.967Zm0,0h-2.67c-.158,0-.294.023-.294.2,0,.158.158.181.272.181h2.67c.136,0,.272,0,.294-.158C-242.485,15.989-242.62,15.967-242.779,15.967Zm0,0h-2.67c-.158,0-.294.023-.294.2,0,.158.158.181.272.181h2.67c.136,0,.272,0,.294-.158C-242.485,15.989-242.62,15.967-242.779,15.967Zm0,0h-2.67c-.158,0-.294.023-.294.2,0,.158.158.181.272.181h2.67c.136,0,.272,0,.294-.158C-242.485,15.989-242.62,15.967-242.779,15.967Zm0,0h-2.67c-.158,0-.294.023-.294.2,0,.158.158.181.272.181h2.67c.136,0,.272,0,.294-.158C-242.485,15.989-242.62,15.967-242.779,15.967Zm.883-.52c0-.249-.091-.339-.339-.317-.634.023-1.267,0-1.878,0h-1.923c-.2,0-.294.068-.294.294v1.312c0,.2.091.294.272.294h3.87q.305,0,.272-.272C-241.9,16.306-241.919,15.876-241.9,15.446Zm-.43,1.131c-.158.181-.52.045-.815.045h-2.534c-.2,0-.294-.023-.272-.249.023-.294-.113-.679.068-.837.158-.136.543-.045.815-.045h2.512c.2,0,.294.023.272.272C-242.3,16.035-242.19,16.419-242.326,16.578Zm-.453-.611h-2.67c-.158,0-.294.023-.294.2,0,.158.158.181.272.181h2.67c.136,0,.272,0,.294-.158C-242.485,15.989-242.62,15.967-242.779,15.967Zm0,0h-2.67c-.158,0-.294.023-.294.2,0,.158.158.181.272.181h2.67c.136,0,.272,0,.294-.158C-242.485,15.989-242.62,15.967-242.779,15.967Zm0,0h-2.67c-.158,0-.294.023-.294.2,0,.158.158.181.272.181h2.67c.136,0,.272,0,.294-.158C-242.485,15.989-242.62,15.967-242.779,15.967Zm.883-3.462c0-.181-.068-.249-.249-.249h-1.539a.217.217,0,0,0-.249.249V13.3c0,.181.091.226.249.226h1.494c.181,0,.272-.068.272-.249C-241.9,13-241.9,12.753-241.9,12.5Zm-.385.453c0,.158-.045.2-.2.181-.294,0-.611-.023-.905,0-.2,0-.181-.113-.181-.249,0-.113-.068-.294.181-.272h.475a1.7,1.7,0,0,0,.339,0C-242.281,12.572-242.258,12.731-242.281,12.957Zm-2.014-.407v-.023c.023-.181-.091-.272-.272-.272h-1.493c-.181,0-.272.068-.272.272v.747c0,.181.068.249.249.249h.747C-244.25,13.523-244.25,13.523-244.295,12.55Zm-.566.588a3.331,3.331,0,0,0-.475,0,1.483,1.483,0,0,0-.317,0c-.317.068-.317-.113-.317-.362,0-.136.068-.158.181-.158h.928c.249,0,.158.158.158.272C-244.657,13.048-244.657,13.161-244.861,13.138Z" transform="translate(0)" fill="#e2211d"/>
    <path id="Caminho_169" data-name="Caminho 169" d="M-212.263,65.394v-.023c.023-.181-.09-.272-.272-.272h-1.494c-.181,0-.272.068-.272.272v.747c0,.181.068.249.249.249h.747C-212.218,66.367-212.218,66.367-212.263,65.394Zm-.566.588a3.331,3.331,0,0,0-.475,0,1.483,1.483,0,0,0-.317,0c-.317.068-.317-.113-.317-.362,0-.136.068-.158.181-.158h.928c.249,0,.158.158.158.272C-212.625,65.892-212.625,66.005-212.829,65.983Z" transform="translate(-32.032 -52.844)" fill="#e2211d"/>
    <path id="Caminho_170" data-name="Caminho 170" d="M-201.663,65.349c0-.181-.068-.249-.249-.249h-1.539a.217.217,0,0,0-.249.249v.792c0,.181.091.226.249.226h1.494c.181,0,.272-.068.272-.249C-201.663,65.847-201.663,65.6-201.663,65.349Zm-.385.453c0,.158-.045.2-.2.181-.294,0-.611-.023-.905,0-.2,0-.181-.113-.181-.249,0-.113-.068-.294.181-.272h.475a1.7,1.7,0,0,0,.339,0C-202.048,65.417-202.025,65.575-202.048,65.8Z" transform="translate(-40.233 -52.844)" fill="#e2211d"/>
    <path id="Caminho_171" data-name="Caminho 171" d="M-208.364,81.626c0,.158-.158.158-.294.158h-2.67c-.136,0-.272,0-.272-.181s.136-.2.294-.2h2.67C-208.5,81.423-208.364,81.445-208.364,81.626Z" transform="translate(-34.121 -65.456)" fill="#e2211d"/>
    <path id="Caminho_172" data-name="Caminho 172" d="M-209.865,78.105c0-.249-.091-.339-.339-.317-.634.023-1.267,0-1.878,0h-1.923c-.2,0-.294.068-.294.294V79.4c0,.2.09.294.272.294h3.87q.305,0,.272-.272C-209.865,78.965-209.887,78.535-209.865,78.105Zm-.43,1.131c-.158.181-.52.045-.815.045h-2.534c-.2,0-.294-.023-.272-.249.023-.294-.113-.679.068-.837.158-.136.543-.045.815-.045h2.512c.2,0,.294.023.272.272C-210.272,78.694-210.159,79.078-210.295,79.237Z" transform="translate(-32.032 -62.659)" fill="#e2211d"/>
    <path id="Caminho_173" data-name="Caminho 173" d="M-209.865,78.105c0-.249-.091-.339-.339-.317-.634.023-1.267,0-1.878,0h-1.923c-.2,0-.294.068-.294.294V79.4c0,.2.09.294.272.294h3.87q.305,0,.272-.272C-209.865,78.965-209.887,78.535-209.865,78.105Zm-.43,1.131c-.158.181-.52.045-.815.045h-2.534c-.2,0-.294-.023-.272-.249.023-.294-.113-.679.068-.837.158-.136.543-.045.815-.045h2.512c.2,0,.294.023.272.272C-210.272,78.694-210.159,79.078-210.295,79.237Z" transform="translate(-32.032 -62.659)" fill="#e2211d"/>
    <path id="Caminho_174" data-name="Caminho 174" d="M-212.263,65.394v-.023c.023-.181-.09-.272-.272-.272h-1.494c-.181,0-.272.068-.272.272v.747c0,.181.068.249.249.249h.747C-212.218,66.367-212.218,66.367-212.263,65.394Zm-.566.588a3.331,3.331,0,0,0-.475,0,1.483,1.483,0,0,0-.317,0c-.317.068-.317-.113-.317-.362,0-.136.068-.158.181-.158h.928c.249,0,.158.158.158.272C-212.625,65.892-212.625,66.005-212.829,65.983Z" transform="translate(-32.032 -52.844)" fill="#e2211d"/>
    <path id="Caminho_175" data-name="Caminho 175" d="M-201.663,65.349c0-.181-.068-.249-.249-.249h-1.539a.217.217,0,0,0-.249.249v.792c0,.181.091.226.249.226h1.494c.181,0,.272-.068.272-.249C-201.663,65.847-201.663,65.6-201.663,65.349Zm-.385.453c0,.158-.045.2-.2.181-.294,0-.611-.023-.905,0-.2,0-.181-.113-.181-.249,0-.113-.068-.294.181-.272h.475a1.7,1.7,0,0,0,.339,0C-202.048,65.417-202.025,65.575-202.048,65.8Z" transform="translate(-40.233 -52.844)" fill="#e2211d"/>
  </g>
</svg>
