<svg width="66" height="66" viewBox="0 0 66 66" fill="none" xmlns="http://www.w3.org/2000/svg">
<circle cx="33" cy="33" r="33" fill="#E31F1A"/>
<path d="M45.2966 13.137C45.0615 13.3722 45.1398 13.876 45.4421 14.0776C45.8452 14.3463 46.2819 14.1447 46.2819 13.6969C46.2819 13.1482 45.6437 12.7899 45.2966 13.137Z" fill="white"/>
<path d="M42.5425 18.0524C42.2402 18.2987 42.1619 18.6906 42.3858 18.9145C42.6097 19.1385 43.0016 19.0713 43.2479 18.7578C43.4831 18.4555 43.4607 18.1867 43.1696 17.9516C42.9344 17.7725 42.8896 17.7725 42.5425 18.0524Z" fill="white"/>
<path d="M32.1409 20.3925C31.0884 20.6612 30.6853 20.9187 30.3718 21.5457C30.1703 21.9264 30.1479 22.128 30.1927 22.7326C30.2263 23.1469 30.2823 23.5724 30.327 23.6955C30.3942 23.9083 30.1815 23.9642 27.1136 24.692C20.6307 26.2036 20.9778 26.114 20.7986 26.3939C20.5523 26.7522 20.7538 27.1105 21.2017 27.1105C21.6384 27.1105 44.95 21.6353 45.1403 21.4898C45.353 21.3106 45.3083 20.7508 45.0619 20.6276C44.9052 20.538 43.7631 20.762 40.3369 21.5793C37.8512 22.1616 35.7239 22.6542 35.6007 22.6654C35.4327 22.6878 35.3544 22.5423 35.1976 21.9824C34.9177 20.9747 34.3131 20.3813 33.4061 20.2357C33.1822 20.2021 32.6336 20.2693 32.1409 20.3925ZM33.6301 21.4562C33.9548 21.6241 34.1451 22.0384 34.2123 22.6766L34.2459 23.0013L32.9583 23.3148C32.2529 23.4828 31.6147 23.6283 31.5475 23.6395C31.3571 23.6395 31.1332 22.4975 31.2676 22.1728C31.4131 21.7809 31.5811 21.6689 32.2865 21.4786C33.0926 21.2546 33.2382 21.2546 33.6301 21.4562Z" fill="white"/>
<path d="M44.0991 23.7963C43.6288 23.9978 43.069 24.6696 42.9234 25.1959C42.6659 26.1588 43.2593 27.3121 44.1886 27.6592C44.9276 27.9391 46.0249 27.7039 46.5288 27.1441C46.8199 26.8306 47.0662 26.1588 47.0662 25.7109C47.0662 25.2631 46.8199 24.5913 46.5288 24.2777C46.0025 23.6955 44.8492 23.4716 44.0991 23.7963ZM45.7002 25.0615C46.1593 25.5654 45.9465 26.4275 45.3083 26.6738C44.7149 26.8978 43.9311 26.3491 43.9311 25.7221C43.9311 25.375 44.2222 24.9495 44.5469 24.804C44.9724 24.6248 45.3755 24.7032 45.7002 25.0615Z" fill="white"/>
<path d="M37.4705 25.8789C36.7203 26.3155 36.2724 27.0321 36.2612 27.8159C36.2612 28.4429 36.4404 28.6444 36.9106 28.5213C37.1122 28.4765 37.2241 28.3533 37.2689 28.1742C37.3025 28.0174 37.3585 27.7599 37.3921 27.592C37.4705 27.2001 38.0415 26.685 38.5006 26.5954C39.2508 26.4611 40.2361 27.2561 40.2361 27.995C40.2361 28.3645 40.4264 28.5661 40.7511 28.5661C41.1878 28.5661 41.3781 28.2638 41.2886 27.7375C40.9862 25.9013 39.0716 24.9607 37.4705 25.8789Z" fill="white"/>
<path d="M20.1939 30.2344C20.1379 30.3576 20.082 31.0854 20.082 31.8468V33.2464L19.2086 33.2799C18.4472 33.3247 18.2681 33.3695 17.9098 33.6494C17.3052 34.1085 17.0588 34.7019 17.0588 35.7656C17.0588 37.5011 17.7754 38.3073 19.343 38.3073H20.0596L20.1043 41.0729C20.1379 43.6145 20.1603 43.8944 20.3731 44.3647C20.7202 45.1037 21.2464 45.6411 21.963 45.9994L22.6012 46.3129H32.7343H42.8673L43.4607 46.0442C44.1885 45.7195 44.9611 44.8797 45.2074 44.1632C45.353 43.7489 45.3865 43.1219 45.3865 40.9721V38.3073H46.1031C46.9541 38.3073 47.3348 38.1841 47.7826 37.7698C48.2641 37.3108 48.4097 36.8629 48.4097 35.788C48.4097 34.7131 48.2641 34.2653 47.7826 33.8062C47.3348 33.3919 46.9541 33.2687 46.1031 33.2687H45.3865V31.7796C45.3865 30.7719 45.3418 30.2456 45.2522 30.1561C45.1514 30.0553 42.2179 30.0217 32.7119 30.0217C20.5634 30.0217 20.3059 30.0217 20.1939 30.2344ZM44.2669 37.2884C44.2669 41.4424 44.2221 43.6593 44.1437 43.872C43.9758 44.3199 43.5055 44.7902 42.9793 45.0365C42.5538 45.238 42.0275 45.2492 32.7566 45.2492C24.1912 45.2492 22.9371 45.2268 22.5676 45.0813C22.019 44.8462 21.6607 44.4991 21.4144 43.9616C21.224 43.5473 21.2016 43.0995 21.2016 37.266V31.0294H32.7343H44.2669V37.2884ZM19.8916 34.5004C20.0484 34.6907 20.082 34.9594 20.082 36.0231V37.322L19.3878 37.2772C18.8167 37.2324 18.66 37.1764 18.436 36.9189C18.2233 36.6614 18.1785 36.4934 18.1785 35.8104C18.1785 34.9371 18.3353 34.5676 18.7831 34.3884C19.2086 34.2205 19.6901 34.2653 19.8916 34.5004ZM47.0437 34.6571C47.3124 34.9259 47.346 35.0378 47.346 35.788C47.346 36.5494 47.3236 36.6502 47.0437 36.9301C46.7749 37.1988 46.6406 37.2436 46.0919 37.2436H45.4425L45.4089 35.9112C45.3977 35.1722 45.4089 34.5004 45.4425 34.4108C45.4873 34.2876 45.6553 34.2653 46.1255 34.2988C46.607 34.3436 46.8085 34.422 47.0437 34.6571Z" fill="white"/>
</svg>
