<svg width="40" height="25" viewBox="0 0 40 25" fill="none" xmlns="http://www.w3.org/2000/svg">
<path d="M17.7467 6.30663C17.9406 6.37405 18.1089 6.41762 18.2472 6.43966C18.2438 6.41733 18.2398 6.39362 18.2352 6.36854C18.1856 6.09858 18.0799 5.7397 17.9305 5.34704C17.6272 4.54962 17.1842 3.71876 16.7772 3.28134C16.5829 3.07286 16.3366 2.96762 16.0824 2.96762C15.8265 2.96762 15.5803 3.07302 15.3863 3.28123C14.9779 3.72084 14.978 4.45306 15.3865 4.89256L17.7467 6.30663ZM17.7467 6.30663C17.4576 6.20609 17.1408 6.06293 16.8283 5.89694M17.7467 6.30663L16.8283 5.89694M16.8283 5.89694C16.1905 5.55814 15.6335 5.15816 15.3865 4.89259L16.8283 5.89694ZM29.9911 6.45691H26.8559C28.013 5.04376 27.9631 2.89484 26.7061 1.54517C25.4095 0.149704 23.1589 0.153674 21.8645 1.5447C21.5124 1.92188 20.9314 2.797 20.4676 3.78981C20.3683 4.00213 20.2719 4.22528 20.1829 4.45507C20.0939 4.22528 19.9974 4.00213 19.8982 3.78981C19.4341 2.79657 18.8533 1.92133 18.5022 1.54462C17.2061 0.153398 14.9558 0.153078 13.6609 1.54494C12.405 2.89464 12.3551 5.04373 13.5098 6.45691H10.3757C9.29707 6.45691 8.47461 7.38418 8.47461 8.45334V10.698C8.47461 11.2551 8.83854 11.764 9.37125 11.9066V12.7396V13.2396V13.7396V22.4628C9.37125 23.5744 10.2533 24.5 11.3658 24.5L18.3383 24.5001H18.8383L19.3383 24.5001H21.0284L21.5284 24.5001H22.0284L29.001 24.5C30.1153 24.5 30.9955 23.5741 30.9955 22.4628L30.9954 13.7396V13.2396V11.9067C31.5282 11.7641 31.8922 11.2551 31.8922 10.698V8.45334C31.8922 7.38452 31.0714 6.45691 29.9911 6.45691ZM22.1048 6.6936C22.1046 6.69383 22.1039 6.69089 22.1031 6.68413C22.1046 6.69001 22.105 6.69338 22.1048 6.6936ZM23.5898 3.28115L23.5904 3.28043C23.9574 2.88464 24.6082 2.88167 24.9806 3.28134L24.9806 3.28137C25.3902 3.72084 25.3902 4.45269 24.9806 4.89216L24.9803 4.89256C24.7333 5.15811 24.1763 5.55811 23.5383 5.89692C23.2258 6.0629 22.9088 6.20606 22.6195 6.30659C22.426 6.37384 22.258 6.41738 22.1196 6.43948C22.123 6.4172 22.127 6.39356 22.1316 6.36853C22.1812 6.09858 22.2868 5.7397 22.4362 5.34704C22.7397 4.54951 23.1827 3.71853 23.5898 3.28115ZM18.262 6.6936C18.2618 6.69339 18.2622 6.69002 18.2637 6.68413C18.2629 6.69088 18.2621 6.69382 18.262 6.6936Z" fill="#482BE7" stroke="#DADADA"/>
<path fill-rule="evenodd" clip-rule="evenodd" d="M21.5285 8.75586H18.8384V11.4459H9.87109V13.2393H18.8384V23.9998H21.5285V13.2393H30.4952V11.4459H21.5285V8.75586Z" fill="url(#paint0_linear_7532_2853)"/>
<path d="M9.87109 13.2397V22.463C9.87109 23.3115 10.5421 24.0002 11.3656 24.0002H18.8381V13.2397H9.87109Z" fill="url(#paint1_linear_7532_2853)"/>
<path d="M21.5283 13.2397V24.0002H29.0008C29.8258 24.0002 30.4953 23.3115 30.4953 22.463V13.2397H21.5283Z" fill="url(#paint2_linear_7532_2853)"/>
<path d="M29.9911 6.95688H25.558C25.8761 6.72493 26.1493 6.49448 26.3398 6.28797C27.4705 5.07437 27.4705 3.09908 26.3398 1.88548C25.2414 0.703298 23.3275 0.706291 22.2304 1.88548C21.6223 2.53642 20.0111 5.1866 20.2338 6.95688H20.133C20.3543 5.1866 18.7431 2.53642 18.1364 1.88548C17.0379 0.706291 15.124 0.706291 14.027 1.88548C12.8977 3.09908 12.8977 5.07437 14.0256 6.28797C14.2175 6.49448 14.4907 6.72493 14.8088 6.95688H10.3757C9.6037 6.95688 8.97461 7.62878 8.97461 8.45331V10.698C8.97461 11.111 9.28846 11.4462 9.67516 11.4462H18.8383V8.75606H21.5284V11.4462H30.6916C31.0783 11.4462 31.3922 11.111 31.3922 10.698V8.45331C31.3922 7.62878 30.7645 6.95688 29.9911 6.95688ZM18.6996 6.9075C18.6996 6.9075 18.6408 6.95688 18.4404 6.95688C17.4723 6.95688 15.6242 5.88244 15.0203 5.23299C14.4333 4.6015 14.4333 3.57195 15.0203 2.94046C15.3048 2.63519 15.6817 2.46759 16.0824 2.46759C16.4817 2.46759 16.8586 2.63519 17.143 2.94046C18.0873 3.95504 19.0261 6.54686 18.6996 6.9075ZM21.925 6.95688C21.726 6.95688 21.6672 6.9075 21.6672 6.9075C21.3407 6.54686 22.2794 3.95504 23.2238 2.94046C23.7884 2.33141 24.7762 2.32842 25.3464 2.94046C25.9349 3.57195 25.9349 4.6015 25.3464 5.23299C24.7426 5.88244 22.8945 6.95688 21.925 6.95688Z" fill="url(#paint3_linear_7532_2853)"/>
<defs>
<linearGradient id="paint0_linear_7532_2853" x1="20.1832" y1="8.75586" x2="20.1832" y2="23.9998" gradientUnits="userSpaceOnUse">
<stop offset="0.557292" stop-color="white"/>
<stop offset="1" stop-color="#E3E3E3"/>
</linearGradient>
<linearGradient id="paint1_linear_7532_2853" x1="14.3546" y1="13.2397" x2="14.3546" y2="24.0002" gradientUnits="userSpaceOnUse">
<stop stop-color="#775EFC"/>
<stop offset="1" stop-color="#482BE7"/>
</linearGradient>
<linearGradient id="paint2_linear_7532_2853" x1="26.0118" y1="13.2397" x2="26.0118" y2="24.0002" gradientUnits="userSpaceOnUse">
<stop stop-color="#775EFC"/>
<stop offset="1" stop-color="#482BE7"/>
</linearGradient>
<linearGradient id="paint3_linear_7532_2853" x1="20.1834" y1="1" x2="20.1834" y2="11.4462" gradientUnits="userSpaceOnUse">
<stop stop-color="#775EFC"/>
<stop offset="1" stop-color="#482BE7"/>
</linearGradient>
</defs>
</svg>
