<svg width="60" height="40" viewBox="0 0 60 40" fill="none" xmlns="http://www.w3.org/2000/svg">
<path d="M53.2774 0H6.19501C2.78034 0 0 2.78034 0 6.19513V33.4534C0 36.868 2.78034 39.6484 6.19501 39.6484H53.2773C56.692 39.6484 59.4723 36.868 59.4723 33.4534V6.19513C59.4725 2.78034 56.6921 0 53.2774 0ZM56.9945 33.4533C56.9945 35.5026 55.3268 37.1703 53.2774 37.1703H6.19501C4.14565 37.1703 2.47798 35.5026 2.47798 33.4533V6.19513C2.47798 4.14577 4.14565 2.4781 6.19501 2.4781H53.2773C55.3267 2.4781 56.9944 4.14577 56.9944 6.19513V33.4533H56.9945Z" fill="#E2211D"/>
<path d="M58.2334 7.43406H1.23905C0.555115 7.43406 0 7.98917 0 8.67311V16.1072C0 16.7911 0.555115 17.3462 1.23905 17.3462H58.2335C58.9175 17.3462 59.4726 16.7911 59.4726 16.1072V8.67311C59.4725 7.98917 58.9173 7.43406 58.2334 7.43406ZM56.9945 14.8681H2.47798V9.91204H56.9944V14.8681H56.9945Z" fill="#E2211D"/>
<path d="M23.5412 24.7803H8.67311C7.98917 24.7803 7.43406 25.3354 7.43406 26.0193C7.43406 26.7033 7.98917 27.2582 8.67311 27.2582H23.5412C24.2252 27.2582 24.7803 26.7031 24.7803 26.0192C24.7803 25.3353 24.2252 24.7803 23.5412 24.7803Z" fill="#E2211D"/>
<path d="M23.5412 29.7362H8.67311C7.98917 29.7362 7.43406 30.2913 7.43406 30.9753C7.43406 31.6592 7.98917 32.2143 8.67311 32.2143H23.5412C24.2252 32.2143 24.7803 31.6592 24.7803 30.9753C24.7802 30.2913 24.2252 29.7362 23.5412 29.7362Z" fill="#E2211D"/>
<path d="M48.3214 22.3022H45.8434C43.794 22.3022 42.1264 23.9698 42.1264 26.0192V28.4972C42.1264 30.5465 43.794 32.2142 45.8434 32.2142H48.3214C50.3707 32.2142 52.0384 30.5465 52.0384 28.4972V26.0192C52.0384 23.97 50.3707 22.3022 48.3214 22.3022ZM49.5604 28.4973C49.5604 29.1812 49.0053 29.7363 48.3214 29.7363H45.8434C45.1595 29.7363 44.6043 29.1812 44.6043 28.4973V26.0193C44.6043 25.3354 45.1595 24.7803 45.8434 24.7803H48.3214C49.0053 24.7803 49.5604 25.3354 49.5604 26.0193V28.4973Z" fill="#E2211D"/>
</svg>
