<svg width="53" height="43" viewBox="0 0 53 43" fill="none" xmlns="http://www.w3.org/2000/svg">
<path d="M49.5957 41.4488V41.4849H49.6318H50.5141C50.9225 41.4849 51.2536 41.816 51.2536 42.2244C51.2536 42.6328 50.9226 42.9639 50.5141 42.9639H2.43352C2.02511 42.9639 1.694 42.6328 1.694 42.2244C1.694 41.816 2.02511 41.4849 2.43352 41.4849H3.31585H3.35192V41.4488V18.439V18.4193L3.33537 18.4087C1.35283 17.133 0.0360744 14.9087 0.0360744 12.3813C0.0360744 12.2527 0.069699 12.1261 0.133499 12.0144L6.28793 1.24407C6.71378 0.498945 7.51145 0.0360744 8.36955 0.0360744H44.5781C45.4362 0.0360744 46.2339 0.499046 46.6597 1.24407L52.8141 12.0144C52.8779 12.1261 52.9116 12.2526 52.9116 12.3813C52.9116 14.9087 51.5948 17.133 49.6123 18.4087L49.5957 18.4193V18.439V41.4488ZM1.60467 13.1208H1.56327L1.56893 13.1618C1.95057 15.9285 4.33014 18.0663 7.20016 18.0663C10.07 18.0663 12.4485 15.9283 12.8302 13.1618L12.8359 13.1208H12.7945H7.4076C6.99919 13.1208 6.66808 12.7897 6.66808 12.3813C6.66808 11.9729 6.99919 11.6417 7.4076 11.6417H45.5405C45.949 11.6417 46.28 11.9729 46.28 12.3813C46.28 12.7897 45.949 13.1208 45.5405 13.1208H40.153H40.1116L40.1173 13.1618C40.499 15.9283 42.8775 18.0663 45.7474 18.0663C48.6174 18.0663 50.997 15.9285 51.3786 13.1618L51.3843 13.1208H51.3429H48.856C48.4475 13.1208 48.1165 12.7897 48.1165 12.3813C48.1165 11.9729 48.4475 11.6417 48.856 11.6417H50.8354H50.8976L50.8667 11.5878L45.3755 1.97788C45.2124 1.69238 44.9069 1.51513 44.5781 1.51513H8.36955C8.04078 1.51513 7.73535 1.69239 7.57215 1.97787L7.57215 1.97788L2.08079 11.5878L2.04995 11.6417H2.11211H4.09114C4.49955 11.6417 4.83066 11.9729 4.83066 12.3813C4.83066 12.7897 4.49955 13.1208 4.09114 13.1208H1.60467ZM38.5285 13.1618L38.5341 13.1208H38.4927H27.304H27.2626L27.2683 13.1618C27.65 15.9283 30.0285 18.0663 32.8984 18.0663C35.7682 18.0663 38.1467 15.9283 38.5285 13.1618ZM25.6794 13.1618L25.685 13.1208H25.6436H14.4549H14.4135L14.4192 13.1618C14.8009 15.9283 17.1794 18.0663 20.0493 18.0663C22.9191 18.0663 25.2976 15.9283 25.6794 13.1618ZM43.9356 41.485H43.9717V41.4489V38.8552V38.8191H43.9356H35.5391H35.5031V38.8552V41.4489V41.485H35.5391H43.9356ZM43.9356 37.3401H43.9717V37.304V23.1046V23.0685H43.9356H35.5391H35.5031V23.1046V37.304V37.3401H35.5391H43.9356ZM48.0806 41.485H48.1167V41.4489V19.1913V19.1408L48.0689 19.1572C47.3403 19.4075 46.5599 19.5454 45.7475 19.5454C42.9596 19.5454 40.5386 17.9447 39.3551 15.614L39.3229 15.5506L39.2908 15.614C38.1073 17.9448 35.6862 19.5454 32.8984 19.5454C30.1105 19.5454 27.6895 17.9447 26.506 15.614L26.4738 15.5506L26.4417 15.614C25.2582 17.9448 22.8371 19.5454 20.0493 19.5454C17.2614 19.5454 14.8403 17.9447 13.6569 15.614L13.6247 15.5506L13.5925 15.614C12.4091 17.9448 9.988 19.5454 7.20016 19.5454C6.38772 19.5454 5.60738 19.4075 4.87877 19.1571L4.83097 19.1407V19.1912V41.4488V41.4849H4.86705H33.988H34.0241V41.4488V22.329C34.0241 21.9206 34.3551 21.5895 34.7636 21.5895H44.7113C45.1198 21.5895 45.4508 21.9206 45.4508 22.329V41.4489V41.485H45.4869H48.0806ZM29.8431 37.3401H29.8792V37.304V23.1046V23.0685H29.8431H9.01196H8.97588V23.1046V37.304V37.3401H9.01196H29.8431ZM8.23636 21.5895H30.6187C31.0273 21.5895 31.3583 21.9205 31.3583 22.329V38.0796C31.3583 38.488 31.0272 38.8191 30.6187 38.8191H8.23636C7.82794 38.8191 7.49683 38.488 7.49683 38.0796V22.329C7.49683 21.9206 7.82794 21.5895 8.23636 21.5895Z" fill="#E2211D" stroke="#666666" stroke-width="0.0721489"/>
</svg>
