<svg width="57" height="41" viewBox="0 0 57 41" fill="none" xmlns="http://www.w3.org/2000/svg">
<path d="M13.1688 29.3329C10.0563 29.3329 7.52505 31.8791 7.52505 35.0102C7.52505 38.1412 10.0563 40.6875 13.1688 40.6875C16.2814 40.6875 18.8126 38.1412 18.8126 35.0102C18.8126 31.8791 16.2813 29.3329 13.1688 29.3329ZM13.1688 38.795C11.0937 38.795 9.40634 37.0975 9.40634 35.0102C9.40634 32.9228 11.0938 31.2253 13.1688 31.2253C15.2438 31.2253 16.9313 32.9229 16.9313 35.0102C16.9313 37.0975 15.2438 38.795 13.1688 38.795Z" fill="#E2211D"/>
<path d="M45.1501 29.3329C42.0375 29.3329 39.5063 31.8791 39.5063 35.0102C39.5063 38.1412 42.0375 40.6875 45.1501 40.6875C48.2626 40.6875 50.7938 38.1412 50.7938 35.0102C50.7938 31.8791 48.2626 29.3329 45.1501 29.3329ZM45.1501 38.795C43.075 38.795 41.3876 37.0975 41.3876 35.0102C41.3876 32.9228 43.0751 31.2253 45.1501 31.2253C47.2252 31.2253 48.9126 32.9229 48.9126 35.0102C48.9126 37.0975 47.2252 38.795 45.1501 38.795Z" fill="#E2211D"/>
<path d="M56.288 24.0899L47.8224 10.8428C47.6493 10.5721 47.3512 10.4084 47.0313 10.4084H36.6844C36.1643 10.4084 35.7439 10.8324 35.7439 11.3546V35.0101C35.7439 35.5333 36.1643 35.9563 36.6844 35.9563H40.4469V34.0638H37.625V12.3009H46.5177L54.5563 24.8799V34.064H49.8531V35.9564H55.4969C56.0171 35.9564 56.4375 35.5334 56.4375 35.0102V24.6017C56.4376 24.421 56.3859 24.2421 56.288 24.0899Z" fill="#E2211D"/>
<path d="M41.3876 22.7093V16.0858H48.9127V14.1933H40.447C39.9269 14.1933 39.5064 14.6172 39.5064 15.1395V23.6554C39.5064 24.1787 39.9269 24.6016 40.447 24.6016H54.5564V22.7092H41.3876V22.7093Z" fill="#E2211D"/>
<path d="M36.6844 3.78495H0.94059C0.421408 3.78495 0 4.20886 0 4.73113V35.0102C0 35.5334 0.421408 35.9564 0.94059 35.9564H8.46564V34.0639H1.88129V5.67732H35.7439V34.0639H17.8719V35.9564L36.6844 35.9563C37.2046 35.9563 37.625 35.5334 37.625 35.0102V4.73113C37.625 4.20886 37.2046 3.78495 36.6844 3.78495Z" fill="#E2211D"/>
<path d="M6.58435 30.2791H0.94059V32.1715H6.58435V30.2791Z" fill="#E2211D"/>
<path d="M35.7439 30.2791H19.7532V32.1715H35.7439V30.2791Z" fill="#E2211D"/>
<path d="M55.4969 30.2791H51.7344V32.1715H55.4969V30.2791Z" fill="#E2211D"/>
<path d="M36.6844 7.56979H3.76247V9.46227H36.6844V7.56979Z" fill="#E2211D"/>
<path d="M14.1094 34.0639H12.2281V35.9564H14.1094V34.0639Z" fill="#E2211D"/>
<path d="M46.0908 34.0639H44.2095V35.9564H46.0908V34.0639Z" fill="#E2211D"/>
<path d="M16.9313 0H3.76247V1.89248H16.9313V0Z" fill="#E2211D"/>
<path d="M1.88129 0H0V1.89248H1.88129V0Z" fill="#E2211D"/>
</svg>
