<svg width="59" height="46" viewBox="0 0 59 46" fill="none" xmlns="http://www.w3.org/2000/svg">
<path d="M58.1823 11.0643L38.4366 0.142631C38.0926 -0.0475436 37.6756 -0.0475436 37.3316 0.142631L29.9064 4.24968C29.7387 4.29666 29.5822 4.38294 29.4494 4.50219L17.586 11.0643C17.2187 11.2676 16.9905 11.6561 16.9905 12.078V14.4423H3.74536C3.11127 14.4423 2.59736 14.9604 2.59736 15.5987C2.59736 16.2375 3.11127 16.7551 3.74536 16.7551H16.9905V20.9182H10.4087C9.77462 20.9182 9.26071 21.4363 9.26071 22.0746C9.26071 22.7133 9.77462 23.231 10.4087 23.231H16.9905V29.2443H7.34722C6.71313 29.2443 6.19922 29.7624 6.19922 30.4007C6.19922 31.0394 6.71313 31.5571 7.34722 31.5571H16.9905V33.9219C16.9905 34.3438 17.2187 34.7323 17.586 34.9355L37.3316 45.8573C37.5038 45.9526 37.694 46 37.8841 46C38.0743 46 38.2644 45.9526 38.4366 45.8573L58.1823 34.9355C58.5495 34.7323 58.7778 34.3438 58.7778 33.9219V28.7434C58.7778 28.1051 58.2639 27.5869 57.6298 27.5869C56.9957 27.5869 56.4818 28.1051 56.4818 28.7434V33.2375L39.0321 42.8894V23.6841L44.5816 20.6146V25.486C44.5816 25.8953 44.7959 26.2738 45.1452 26.4816C45.3251 26.5886 45.5273 26.6424 45.7296 26.6424C45.9197 26.6424 46.1103 26.595 46.2829 26.4992L50.5144 24.1534C50.8808 23.9501 51.1086 23.5621 51.1086 23.1402V17.0045L56.4818 14.0326V19.4921C56.4818 20.1308 56.9957 20.6485 57.6298 20.6485C58.2639 20.6485 58.7778 20.1308 58.7778 19.4921V12.078C58.7778 11.6561 58.5495 11.2676 58.1823 11.0643ZM36.7361 42.8894L19.2865 33.2375V14.0326L36.7361 23.6841V42.8894ZM37.8841 21.6807L20.5237 12.078L25.9799 9.06006L43.3407 18.6627L37.8841 21.6807ZM45.726 17.3433L28.3651 7.74058L30.2472 6.69981L47.6076 16.3025L45.726 17.3433ZM48.8126 22.4567L46.8776 23.5296V19.3448L48.8126 18.2743V22.4567ZM49.9929 14.983L32.6324 5.38034L37.8841 2.47577L55.2445 12.078L49.9929 14.983Z" fill="#E2211D"/>
<path d="M57.6298 22.9618C57.328 22.9618 57.0316 23.0842 56.8181 23.3006C56.6046 23.5156 56.4818 23.8128 56.4818 24.1182C56.4818 24.4222 56.6046 24.7208 56.8181 24.9358C57.0316 25.1508 57.328 25.2746 57.6298 25.2746C57.9316 25.2746 58.228 25.1508 58.4414 24.9358C58.6549 24.7208 58.7778 24.4222 58.7778 24.1182C58.7778 23.8128 58.6549 23.5156 58.4414 23.3006C58.228 23.0842 57.9316 22.9618 57.6298 22.9618Z" fill="#E2211D"/>
<path d="M2.79333 29.2443H1.148C0.513911 29.2443 0 29.7624 0 30.4007C0 31.0394 0.513911 31.5571 1.148 31.5571H2.79333C3.42742 31.5571 3.94133 31.0394 3.94133 30.4007C3.94133 29.7624 3.42742 29.2443 2.79333 29.2443Z" fill="#E2211D"/>
<path d="M6.96515 22.0746C6.96515 21.7706 6.84228 21.4724 6.62838 21.2574C6.41492 21.042 6.11895 20.9182 5.81715 20.9182C5.5149 20.9182 5.21893 21.042 5.00547 21.2574C4.79067 21.4724 4.66915 21.7706 4.66915 22.0746C4.66915 22.3791 4.79067 22.6772 5.00547 22.8922C5.21893 23.1072 5.5149 23.231 5.81715 23.231C6.11895 23.231 6.41492 23.1077 6.62838 22.8922C6.84228 22.6772 6.96515 22.3791 6.96515 22.0746Z" fill="#E2211D"/>
</svg>
