<svg width="54" height="20" viewBox="0 0 54 20" fill="#828282" xmlns="http://www.w3.org/2000/svg">
<path d="M20.929 0H4.09902C2.79402 0 1.95837 1.38735 2.56902 2.5407L4.25247 5.7285H1.20057C1.0073 5.72856 0.817315 5.77853 0.649025 5.87357C0.480734 5.96861 0.339841 6.1055 0.23999 6.27099C0.140139 6.43647 0.0847162 6.62493 0.0790891 6.81812C0.0734621 7.01132 0.117821 7.20269 0.207871 7.3737L5.62272 17.6224C5.71818 17.8027 5.86095 17.9535 6.0357 18.0587C6.21045 18.1639 6.41055 18.2195 6.61452 18.2195C6.81849 18.2195 7.0186 18.1639 7.19334 18.0587C7.36809 17.9535 7.51086 17.8027 7.60632 17.6224L9.07692 14.854L10.9219 18.3469C11.5713 19.5754 13.3303 19.5777 13.9819 18.3505L22.4176 2.47635C23.0139 1.3536 22.2003 0 20.929 0ZM13.369 6.7824L9.73167 13.6287C9.6681 13.7486 9.57308 13.8489 9.45681 13.9188C9.34055 13.9887 9.20743 14.0257 9.07175 14.0257C8.93606 14.0257 8.80295 13.9887 8.68668 13.9188C8.57042 13.8489 8.47539 13.7486 8.41182 13.6287L4.80957 6.8112C4.74936 6.69753 4.71953 6.57024 4.72295 6.44166C4.72638 6.31308 4.76294 6.18756 4.82912 6.07726C4.89529 5.96696 4.98882 5.87561 5.10066 5.81207C5.21249 5.74852 5.33884 5.71493 5.46747 5.71455H12.7273C12.8527 5.71456 12.976 5.74701 13.0852 5.80877C13.1943 5.87052 13.2856 5.95947 13.3502 6.06697C13.4148 6.17446 13.4505 6.29684 13.4538 6.42221C13.4571 6.54758 13.4279 6.67166 13.369 6.7824Z" fill="#F71963"/>
<path d="M38.83 7.36438H36.9891V13.6738C36.989 13.7313 36.9661 13.7864 36.9254 13.8271C36.8848 13.8677 36.8297 13.8906 36.7722 13.8907H35.3524C35.295 13.8906 35.2399 13.8677 35.1992 13.8271C35.1586 13.7864 35.1357 13.7313 35.1355 13.6738V7.36438H33.2838C33.2559 7.36552 33.2281 7.36106 33.202 7.35124C33.1758 7.34143 33.1519 7.32646 33.1317 7.30724C33.1115 7.28802 33.0953 7.26493 33.0842 7.23934C33.0731 7.21375 33.0672 7.18618 33.0669 7.15828V6.04228C33.0672 6.01437 33.0731 5.98681 33.0842 5.96122C33.0953 5.93563 33.1115 5.91254 33.1317 5.89331C33.1519 5.87409 33.1758 5.85913 33.202 5.84931C33.2281 5.8395 33.2559 5.83503 33.2838 5.83618H38.8296C38.8871 5.83348 38.9433 5.85364 38.986 5.89226C39.0286 5.93088 39.0543 5.98481 39.0573 6.04228V7.15873C39.0541 7.21603 39.0285 7.26978 38.986 7.30829C38.9434 7.3468 38.8874 7.36695 38.83 7.36438Z" fill="#F71963"/>
<path d="M44.7399 13.8454C44.3605 13.8994 43.7224 13.9862 42.552 13.9862C41.1538 13.9862 39.9186 13.6285 39.9186 11.6561V8.05612C39.9186 6.08377 41.1651 5.73682 42.5628 5.73682C43.7328 5.73682 44.3605 5.82367 44.7399 5.87767C44.8915 5.89927 44.9568 5.95372 44.9568 6.09457V7.10392C44.9567 7.16141 44.9338 7.21651 44.8931 7.25716C44.8525 7.29781 44.7974 7.3207 44.7399 7.32082H42.4548C41.9454 7.32082 41.7613 7.49407 41.7613 8.05792V9.04432H44.6535C44.711 9.04444 44.7661 9.06733 44.8067 9.10798C44.8474 9.14863 44.8703 9.20373 44.8704 9.26122V10.2908C44.8703 10.3483 44.8474 10.4034 44.8067 10.4441C44.7661 10.4847 44.711 10.5076 44.6535 10.5077H41.7613V11.6566C41.7613 12.22 41.9454 12.3937 42.4548 12.3937H44.7399C44.7974 12.3938 44.8525 12.4167 44.8931 12.4573C44.9338 12.498 44.9567 12.5531 44.9568 12.6106V13.6186C44.9568 13.7585 44.8915 13.8238 44.7399 13.8454Z" fill="#F71963"/>
<path d="M52.9168 13.8886H51.1938C51.0529 13.8886 50.9877 13.8436 50.9121 13.7261L49.4181 11.3542L48.0645 13.6739C47.9884 13.804 47.9128 13.8908 47.7945 13.8908H46.1907C46.0822 13.8908 46.0282 13.8256 46.0282 13.75C46.0303 13.7234 46.0376 13.6976 46.0498 13.6739L48.3975 9.75891L46.0255 6.04146C46.0135 6.02162 46.0061 5.99931 46.0039 5.97621C46.0078 5.9364 46.0268 5.89958 46.057 5.87338C46.0873 5.84717 46.1264 5.83356 46.1664 5.83536H47.911C48.0303 5.83536 48.1171 5.94381 48.181 6.04146L49.5675 8.23071L50.9094 6.04146C50.9634 5.94381 51.061 5.83536 51.1794 5.83536H52.7831C52.8231 5.83356 52.8623 5.84717 52.8925 5.87338C52.9227 5.89958 52.9417 5.9364 52.9456 5.97621C52.9434 5.99931 52.936 6.02162 52.924 6.04146L50.5638 9.78186L53.0253 13.6739C53.0445 13.707 53.0556 13.7442 53.0577 13.7824C53.0581 13.8454 53.0037 13.8886 52.9168 13.8886Z" fill="#F71963"/>
<path d="M30.4694 5.8578C30.4307 5.8579 30.3932 5.8714 30.3633 5.89602C30.3335 5.92063 30.3131 5.95483 30.3056 5.9928L28.7324 11.8153C28.7108 11.9346 28.6784 11.9778 28.5807 11.9778C28.4831 11.9778 28.4507 11.9328 28.4291 11.8153L26.8541 5.99145C26.8466 5.95348 26.8262 5.91928 26.7963 5.89466C26.7665 5.87005 26.729 5.85655 26.6903 5.85645H25.1418C25.1167 5.85647 25.0918 5.86218 25.0691 5.87314C25.0465 5.8841 25.0266 5.90004 25.0109 5.91976C24.9952 5.93948 24.9842 5.96249 24.9787 5.98705C24.9732 6.01162 24.9732 6.03711 24.9789 6.06165C24.9789 6.06165 26.9004 12.7392 26.9216 12.8049C27.1781 13.6005 27.8004 13.9807 28.5924 13.9807C29.3466 13.9807 30.005 13.5825 30.2624 12.8071C30.293 12.7171 32.1717 6.06119 32.1717 6.06119C32.1773 6.0367 32.1774 6.01125 32.1718 5.98674C32.1662 5.96223 32.1552 5.93929 32.1395 5.91962C32.1239 5.89995 32.104 5.88406 32.0814 5.87313C32.0588 5.86219 32.034 5.85649 32.0088 5.85645L30.4694 5.8578Z" fill="#F71963"/>
<path d="M20.929 0H4.09902C2.79402 0 1.95837 1.38735 2.56902 2.5407L4.25247 5.7285H1.20057C1.0073 5.72856 0.817315 5.77853 0.649025 5.87357C0.480734 5.96861 0.339841 6.1055 0.23999 6.27099C0.140139 6.43647 0.0847162 6.62493 0.0790891 6.81812C0.0734621 7.01132 0.117821 7.20269 0.207871 7.3737L5.62272 17.6224C5.71818 17.8027 5.86095 17.9535 6.0357 18.0587C6.21045 18.1639 6.41055 18.2195 6.61452 18.2195C6.81849 18.2195 7.0186 18.1639 7.19334 18.0587C7.36809 17.9535 7.51086 17.8027 7.60632 17.6224L9.07692 14.854L10.9219 18.3469C11.5713 19.5754 13.3303 19.5777 13.9819 18.3505L22.4176 2.47635C23.0139 1.3536 22.2003 0 20.929 0ZM13.369 6.7824L9.73167 13.6287C9.6681 13.7486 9.57308 13.8489 9.45681 13.9188C9.34055 13.9887 9.20743 14.0257 9.07175 14.0257C8.93606 14.0257 8.80295 13.9887 8.68668 13.9188C8.57042 13.8489 8.47539 13.7486 8.41182 13.6287L4.80957 6.8112C4.74936 6.69753 4.71953 6.57024 4.72295 6.44166C4.72638 6.31308 4.76294 6.18756 4.82912 6.07726C4.89529 5.96696 4.98882 5.87561 5.10066 5.81207C5.21249 5.74852 5.33884 5.71493 5.46747 5.71455H12.7273C12.8527 5.71456 12.976 5.74701 13.0852 5.80877C13.1943 5.87052 13.2856 5.95947 13.3502 6.06697C13.4148 6.17446 13.4505 6.29684 13.4538 6.42221C13.4571 6.54758 13.4279 6.67166 13.369 6.7824Z" fill="#F71963"/>
</svg>
